<?xml version="1.0" encoding="utf-8"?>
<svg xmlns="http://www.w3.org/2000/svg" xmlns:xlink="http://www.w3.org/1999/xlink" width="600" height="400" viewBox="0 0 2400 1600">
<defs>
  <clipPath id="clip400">
    <rect x="0" y="0" width="2400" height="1600"/>
  </clipPath>
</defs>
<path clip-path="url(#clip400)" d="
M0 1600 L2400 1600 L2400 0 L0 0  Z
  " fill="#ffffff" fill-rule="evenodd" fill-opacity="1"/>
<defs>
  <clipPath id="clip401">
    <rect x="480" y="0" width="1681" height="1600"/>
  </clipPath>
</defs>
<defs>
  <clipPath id="clip402">
    <rect x="224" y="47" width="2129" height="1440"/>
  </clipPath>
</defs>
<path clip-path="url(#clip402)" d="
M1562.75 1777.98 L1562.75 1325.4 L1580.9 1068.08 L1683.83 1113.45 L1683.83 1566.03 L1665.68 1823.36 L1562.75 1777.98  Z
  " fill="#ffffff" fill-rule="evenodd" fill-opacity="1"/>
<polyline clip-path="url(#clip402)" style="stroke:#000000; stroke-linecap:butt; stroke-linejoin:round; stroke-width:2; stroke-opacity:0.1; fill:none" points="
  882,1301.73 1026.29,892.579 
  "/>
<polyline clip-path="url(#clip402)" style="stroke:#000000; stroke-linecap:butt; stroke-linejoin:round; stroke-width:2; stroke-opacity:0.1; fill:none" points="
  1026.29,892.579 1026.29,172.977 
  "/>
<polyline clip-path="url(#clip402)" style="stroke:#000000; stroke-linecap:butt; stroke-linejoin:round; stroke-width:2; stroke-opacity:0.1; fill:none" points="
  1036.4,1315.34 1180.69,906.191 
  "/>
<polyline clip-path="url(#clip402)" style="stroke:#000000; stroke-linecap:butt; stroke-linejoin:round; stroke-width:2; stroke-opacity:0.1; fill:none" points="
  1180.69,906.191 1180.69,186.589 
  "/>
<polyline clip-path="url(#clip402)" style="stroke:#000000; stroke-linecap:butt; stroke-linejoin:round; stroke-width:2; stroke-opacity:0.1; fill:none" points="
  1190.79,1328.95 1335.08,919.803 
  "/>
<polyline clip-path="url(#clip402)" style="stroke:#000000; stroke-linecap:butt; stroke-linejoin:round; stroke-width:2; stroke-opacity:0.1; fill:none" points="
  1335.08,919.803 1335.08,200.201 
  "/>
<polyline clip-path="url(#clip402)" style="stroke:#000000; stroke-linecap:butt; stroke-linejoin:round; stroke-width:2; stroke-opacity:0.1; fill:none" points="
  1345.19,1342.57 1489.48,933.415 
  "/>
<polyline clip-path="url(#clip402)" style="stroke:#000000; stroke-linecap:butt; stroke-linejoin:round; stroke-width:2; stroke-opacity:0.1; fill:none" points="
  1489.48,933.415 1489.48,213.813 
  "/>
<polyline clip-path="url(#clip402)" style="stroke:#000000; stroke-linecap:butt; stroke-linejoin:round; stroke-width:2; stroke-opacity:0.1; fill:none" points="
  1499.59,1356.18 1643.87,947.027 
  "/>
<polyline clip-path="url(#clip402)" style="stroke:#000000; stroke-linecap:butt; stroke-linejoin:round; stroke-width:2; stroke-opacity:0.1; fill:none" points="
  1643.87,947.027 1643.87,227.425 
  "/>
<polyline clip-path="url(#clip400)" style="stroke:#000000; stroke-linecap:butt; stroke-linejoin:round; stroke-width:4; stroke-opacity:1; fill:none" points="
  807.375,1295.15 1625.68,1367.29 
  "/>
<polyline clip-path="url(#clip400)" style="stroke:#000000; stroke-linecap:butt; stroke-linejoin:round; stroke-width:4; stroke-opacity:1; fill:none" points="
  882,1301.73 883.732,1296.82 
  "/>
<polyline clip-path="url(#clip400)" style="stroke:#000000; stroke-linecap:butt; stroke-linejoin:round; stroke-width:4; stroke-opacity:1; fill:none" points="
  1036.4,1315.34 1038.13,1310.43 
  "/>
<polyline clip-path="url(#clip400)" style="stroke:#000000; stroke-linecap:butt; stroke-linejoin:round; stroke-width:4; stroke-opacity:1; fill:none" points="
  1190.79,1328.95 1192.52,1324.04 
  "/>
<polyline clip-path="url(#clip400)" style="stroke:#000000; stroke-linecap:butt; stroke-linejoin:round; stroke-width:4; stroke-opacity:1; fill:none" points="
  1345.19,1342.57 1346.92,1337.66 
  "/>
<polyline clip-path="url(#clip400)" style="stroke:#000000; stroke-linecap:butt; stroke-linejoin:round; stroke-width:4; stroke-opacity:1; fill:none" points="
  1499.59,1356.18 1501.32,1351.27 
  "/>
<path clip-path="url(#clip400)" d="M808.856 1328.53 L838.531 1328.53 L838.531 1332.47 L808.856 1332.47 L808.856 1328.53 Z" fill="#000000" fill-rule="evenodd" fill-opacity="1" /><path clip-path="url(#clip400)" d="M848.763 1344.64 L848.763 1340.39 Q850.522 1341.22 852.328 1341.66 Q854.133 1342.1 855.869 1342.1 Q860.499 1342.1 862.929 1339 Q865.383 1335.87 865.73 1329.53 Q864.388 1331.52 862.328 1332.58 Q860.267 1333.65 857.767 1333.65 Q852.582 1333.65 849.55 1330.52 Q846.541 1327.38 846.541 1321.94 Q846.541 1316.61 849.689 1313.39 Q852.837 1310.18 858.068 1310.18 Q864.064 1310.18 867.212 1314.78 Q870.383 1319.37 870.383 1328.12 Q870.383 1336.29 866.494 1341.17 Q862.629 1346.03 856.078 1346.03 Q854.318 1346.03 852.513 1345.69 Q850.707 1345.34 848.763 1344.64 M858.068 1329.99 Q861.217 1329.99 863.045 1327.84 Q864.897 1325.69 864.897 1321.94 Q864.897 1318.21 863.045 1316.06 Q861.217 1313.88 858.068 1313.88 Q854.92 1313.88 853.068 1316.06 Q851.24 1318.21 851.24 1321.94 Q851.24 1325.69 853.068 1327.84 Q854.92 1329.99 858.068 1329.99 Z" fill="#000000" fill-rule="evenodd" fill-opacity="1" /><path clip-path="url(#clip400)" d="M962.905 1342.15 L992.581 1342.15 L992.581 1346.08 L962.905 1346.08 L962.905 1342.15 Z" fill="#000000" fill-rule="evenodd" fill-opacity="1" /><path clip-path="url(#clip400)" d="M1013.25 1339.83 Q1010.1 1339.83 1008.25 1341.98 Q1006.42 1344.14 1006.42 1347.89 Q1006.42 1351.61 1008.25 1353.79 Q1010.1 1355.94 1013.25 1355.94 Q1016.4 1355.94 1018.23 1353.79 Q1020.08 1351.61 1020.08 1347.89 Q1020.08 1344.14 1018.23 1341.98 Q1016.4 1339.83 1013.25 1339.83 M1022.53 1325.18 L1022.53 1329.44 Q1020.77 1328.6 1018.97 1328.16 Q1017.19 1327.72 1015.43 1327.72 Q1010.8 1327.72 1008.34 1330.85 Q1005.91 1333.97 1005.57 1340.29 Q1006.93 1338.28 1008.99 1337.22 Q1011.05 1336.13 1013.53 1336.13 Q1018.74 1336.13 1021.75 1339.3 Q1024.78 1342.45 1024.78 1347.89 Q1024.78 1353.21 1021.63 1356.43 Q1018.48 1359.65 1013.25 1359.65 Q1007.26 1359.65 1004.09 1355.06 Q1000.91 1350.46 1000.91 1341.73 Q1000.91 1333.53 1004.8 1328.67 Q1008.69 1323.79 1015.24 1323.79 Q1017 1323.79 1018.78 1324.14 Q1020.59 1324.48 1022.53 1325.18 Z" fill="#000000" fill-rule="evenodd" fill-opacity="1" /><path clip-path="url(#clip400)" d="M1118.11 1355.76 L1147.79 1355.76 L1147.79 1359.69 L1118.11 1359.69 L1118.11 1355.76 Z" fill="#000000" fill-rule="evenodd" fill-opacity="1" /><path clip-path="url(#clip400)" d="M1172.05 1353.95 Q1175.4 1354.67 1177.28 1356.94 Q1179.18 1359.21 1179.18 1362.54 Q1179.18 1367.66 1175.66 1370.46 Q1172.14 1373.26 1165.66 1373.26 Q1163.48 1373.26 1161.17 1372.82 Q1158.88 1372.4 1156.42 1371.54 L1156.42 1367.03 Q1158.37 1368.17 1160.68 1368.74 Q1163 1369.32 1165.52 1369.32 Q1169.92 1369.32 1172.21 1367.59 Q1174.52 1365.85 1174.52 1362.54 Q1174.52 1359.48 1172.37 1357.77 Q1170.24 1356.04 1166.42 1356.04 L1162.39 1356.04 L1162.39 1352.19 L1166.61 1352.19 Q1170.06 1352.19 1171.88 1350.83 Q1173.71 1349.44 1173.71 1346.85 Q1173.71 1344.18 1171.81 1342.77 Q1169.94 1341.34 1166.42 1341.34 Q1164.5 1341.34 1162.3 1341.75 Q1160.1 1342.17 1157.46 1343.05 L1157.46 1338.88 Q1160.13 1338.14 1162.44 1337.77 Q1164.78 1337.4 1166.84 1337.4 Q1172.16 1337.4 1175.26 1339.83 Q1178.37 1342.24 1178.37 1346.36 Q1178.37 1349.23 1176.72 1351.22 Q1175.08 1353.19 1172.05 1353.95 Z" fill="#000000" fill-rule="evenodd" fill-opacity="1" /><path clip-path="url(#clip400)" d="M1321.63 1354.72 Q1318.02 1354.72 1316.19 1358.28 Q1314.38 1361.82 1314.38 1368.95 Q1314.38 1376.06 1316.19 1379.62 Q1318.02 1383.17 1321.63 1383.17 Q1325.26 1383.17 1327.07 1379.62 Q1328.9 1376.06 1328.9 1368.95 Q1328.9 1361.82 1327.07 1358.28 Q1325.26 1354.72 1321.63 1354.72 M1321.63 1351.01 Q1327.44 1351.01 1330.49 1355.62 Q1333.57 1360.2 1333.57 1368.95 Q1333.57 1377.68 1330.49 1382.29 Q1327.44 1386.87 1321.63 1386.87 Q1315.82 1386.87 1312.74 1382.29 Q1309.68 1377.68 1309.68 1368.95 Q1309.68 1360.2 1312.74 1355.62 Q1315.82 1351.01 1321.63 1351.01 Z" fill="#000000" fill-rule="evenodd" fill-opacity="1" /><path clip-path="url(#clip400)" d="M1480.84 1381.18 Q1484.2 1381.89 1486.07 1384.16 Q1487.97 1386.43 1487.97 1389.76 Q1487.97 1394.88 1484.45 1397.68 Q1480.93 1400.48 1474.45 1400.48 Q1472.27 1400.48 1469.96 1400.04 Q1467.67 1399.63 1465.21 1398.77 L1465.21 1394.26 Q1467.16 1395.39 1469.47 1395.97 Q1471.79 1396.55 1474.31 1396.55 Q1478.71 1396.55 1481 1394.81 Q1483.32 1393.07 1483.32 1389.76 Q1483.32 1386.71 1481.16 1385 Q1479.03 1383.26 1475.21 1383.26 L1471.19 1383.26 L1471.19 1379.42 L1475.4 1379.42 Q1478.85 1379.42 1480.68 1378.05 Q1482.51 1376.66 1482.51 1374.07 Q1482.51 1371.41 1480.61 1370 Q1478.73 1368.56 1475.21 1368.56 Q1473.29 1368.56 1471.09 1368.98 Q1468.89 1369.39 1466.26 1370.27 L1466.26 1366.11 Q1468.92 1365.37 1471.23 1365 Q1473.57 1364.63 1475.63 1364.63 Q1480.96 1364.63 1484.06 1367.06 Q1487.16 1369.46 1487.16 1373.58 Q1487.16 1376.45 1485.52 1378.45 Q1483.87 1380.41 1480.84 1381.18 Z" fill="#000000" fill-rule="evenodd" fill-opacity="1" /><polyline clip-path="url(#clip402)" style="stroke:#000000; stroke-linecap:butt; stroke-linejoin:round; stroke-width:2; stroke-opacity:0.1; fill:none" points="
  1629.76,1355.71 811.459,1283.57 
  "/>
<polyline clip-path="url(#clip402)" style="stroke:#000000; stroke-linecap:butt; stroke-linejoin:round; stroke-width:2; stroke-opacity:0.1; fill:none" points="
  811.459,1283.57 811.459,563.968 
  "/>
<polyline clip-path="url(#clip402)" style="stroke:#000000; stroke-linecap:butt; stroke-linejoin:round; stroke-width:2; stroke-opacity:0.1; fill:none" points="
  1675.13,1227.05 856.833,1154.91 
  "/>
<polyline clip-path="url(#clip402)" style="stroke:#000000; stroke-linecap:butt; stroke-linejoin:round; stroke-width:2; stroke-opacity:0.1; fill:none" points="
  856.833,1154.91 856.833,435.305 
  "/>
<polyline clip-path="url(#clip402)" style="stroke:#000000; stroke-linecap:butt; stroke-linejoin:round; stroke-width:2; stroke-opacity:0.1; fill:none" points="
  1720.51,1098.39 902.206,1026.24 
  "/>
<polyline clip-path="url(#clip402)" style="stroke:#000000; stroke-linecap:butt; stroke-linejoin:round; stroke-width:2; stroke-opacity:0.1; fill:none" points="
  902.206,1026.24 902.206,306.641 
  "/>
<polyline clip-path="url(#clip402)" style="stroke:#000000; stroke-linecap:butt; stroke-linejoin:round; stroke-width:2; stroke-opacity:0.1; fill:none" points="
  1765.88,969.724 947.58,897.579 
  "/>
<polyline clip-path="url(#clip402)" style="stroke:#000000; stroke-linecap:butt; stroke-linejoin:round; stroke-width:2; stroke-opacity:0.1; fill:none" points="
  947.58,897.579 947.58,177.977 
  "/>
<polyline clip-path="url(#clip400)" style="stroke:#000000; stroke-linecap:butt; stroke-linejoin:round; stroke-width:4; stroke-opacity:1; fill:none" points="
  1625.68,1367.29 1769.96,958.144 
  "/>
<polyline clip-path="url(#clip400)" style="stroke:#000000; stroke-linecap:butt; stroke-linejoin:round; stroke-width:4; stroke-opacity:1; fill:none" points="
  1629.76,1355.71 1619.94,1354.85 
  "/>
<polyline clip-path="url(#clip400)" style="stroke:#000000; stroke-linecap:butt; stroke-linejoin:round; stroke-width:4; stroke-opacity:1; fill:none" points="
  1675.13,1227.05 1665.31,1226.19 
  "/>
<polyline clip-path="url(#clip400)" style="stroke:#000000; stroke-linecap:butt; stroke-linejoin:round; stroke-width:4; stroke-opacity:1; fill:none" points="
  1720.51,1098.39 1710.69,1097.52 
  "/>
<polyline clip-path="url(#clip400)" style="stroke:#000000; stroke-linecap:butt; stroke-linejoin:round; stroke-width:4; stroke-opacity:1; fill:none" points="
  1765.88,969.724 1756.06,968.858 
  "/>
<path clip-path="url(#clip400)" d="M1670.43 1343.54 Q1666.82 1343.54 1664.99 1347.1 Q1663.19 1350.65 1663.19 1357.78 Q1663.19 1364.88 1664.99 1368.45 Q1666.82 1371.99 1670.43 1371.99 Q1674.07 1371.99 1675.87 1368.45 Q1677.7 1364.88 1677.7 1357.78 Q1677.7 1350.65 1675.87 1347.1 Q1674.07 1343.54 1670.43 1343.54 M1670.43 1339.84 Q1676.24 1339.84 1679.3 1344.44 Q1682.38 1349.03 1682.38 1357.78 Q1682.38 1366.5 1679.3 1371.11 Q1676.24 1375.69 1670.43 1375.69 Q1664.62 1375.69 1661.54 1371.11 Q1658.49 1366.5 1658.49 1357.78 Q1658.49 1349.03 1661.54 1344.44 Q1664.62 1339.84 1670.43 1339.84 Z" fill="#000000" fill-rule="evenodd" fill-opacity="1" /><path clip-path="url(#clip400)" d="M1704.53 1242.42 L1712.17 1242.42 L1712.17 1216.06 L1703.86 1217.72 L1703.86 1213.46 L1712.13 1211.8 L1716.8 1211.8 L1716.8 1242.42 L1724.44 1242.42 L1724.44 1246.36 L1704.53 1246.36 L1704.53 1242.42 Z" fill="#000000" fill-rule="evenodd" fill-opacity="1" /><path clip-path="url(#clip400)" d="M1754.86 1113.76 L1771.18 1113.76 L1771.18 1117.69 L1749.24 1117.69 L1749.24 1113.76 Q1751.9 1111 1756.48 1106.37 Q1761.09 1101.72 1762.27 1100.38 Q1764.51 1097.86 1765.39 1096.12 Q1766.3 1094.36 1766.3 1092.67 Q1766.3 1089.92 1764.35 1088.18 Q1762.43 1086.44 1759.33 1086.44 Q1757.13 1086.44 1754.68 1087.21 Q1752.25 1087.97 1749.47 1089.52 L1749.47 1084.8 Q1752.29 1083.67 1754.75 1083.09 Q1757.2 1082.51 1759.24 1082.51 Q1764.61 1082.51 1767.8 1085.19 Q1771 1087.88 1771 1092.37 Q1771 1094.5 1770.18 1096.42 Q1769.4 1098.32 1767.29 1100.91 Q1766.71 1101.58 1763.61 1104.8 Q1760.51 1107.99 1754.86 1113.76 Z" fill="#000000" fill-rule="evenodd" fill-opacity="1" /><path clip-path="url(#clip400)" d="M1810.23 970.396 Q1813.59 971.113 1815.47 973.382 Q1817.36 975.65 1817.36 978.984 Q1817.36 984.099 1813.85 986.9 Q1810.33 989.701 1803.85 989.701 Q1801.67 989.701 1799.36 989.261 Q1797.06 988.845 1794.61 987.988 L1794.61 983.474 Q1796.55 984.609 1798.87 985.187 Q1801.18 985.766 1803.71 985.766 Q1808.11 985.766 1810.4 984.03 Q1812.71 982.294 1812.71 978.984 Q1812.71 975.928 1810.56 974.215 Q1808.43 972.479 1804.61 972.479 L1800.58 972.479 L1800.58 968.636 L1804.79 968.636 Q1808.24 968.636 1810.07 967.271 Q1811.9 965.882 1811.9 963.289 Q1811.9 960.627 1810 959.215 Q1808.13 957.78 1804.61 957.78 Q1802.69 957.78 1800.49 958.197 Q1798.29 958.613 1795.65 959.493 L1795.65 955.326 Q1798.31 954.586 1800.63 954.215 Q1802.97 953.845 1805.03 953.845 Q1810.35 953.845 1813.45 956.275 Q1816.55 958.683 1816.55 962.803 Q1816.55 965.673 1814.91 967.664 Q1813.27 969.632 1810.23 970.396 Z" fill="#000000" fill-rule="evenodd" fill-opacity="1" /><polyline clip-path="url(#clip402)" style="stroke:#000000; stroke-linecap:butt; stroke-linejoin:round; stroke-width:2; stroke-opacity:0.1; fill:none" points="
  807.375,1210.66 951.664,801.51 
  "/>
<polyline clip-path="url(#clip402)" style="stroke:#000000; stroke-linecap:butt; stroke-linejoin:round; stroke-width:2; stroke-opacity:0.1; fill:none" points="
  951.664,801.51 1769.96,873.655 
  "/>
<polyline clip-path="url(#clip402)" style="stroke:#000000; stroke-linecap:butt; stroke-linejoin:round; stroke-width:2; stroke-opacity:0.1; fill:none" points="
  807.375,1118.34 951.664,709.185 
  "/>
<polyline clip-path="url(#clip402)" style="stroke:#000000; stroke-linecap:butt; stroke-linejoin:round; stroke-width:2; stroke-opacity:0.1; fill:none" points="
  951.664,709.185 1769.96,781.329 
  "/>
<polyline clip-path="url(#clip402)" style="stroke:#000000; stroke-linecap:butt; stroke-linejoin:round; stroke-width:2; stroke-opacity:0.1; fill:none" points="
  807.375,1026.01 951.664,616.859 
  "/>
<polyline clip-path="url(#clip402)" style="stroke:#000000; stroke-linecap:butt; stroke-linejoin:round; stroke-width:2; stroke-opacity:0.1; fill:none" points="
  951.664,616.859 1769.96,689.003 
  "/>
<polyline clip-path="url(#clip402)" style="stroke:#000000; stroke-linecap:butt; stroke-linejoin:round; stroke-width:2; stroke-opacity:0.1; fill:none" points="
  807.375,933.683 951.664,524.533 
  "/>
<polyline clip-path="url(#clip402)" style="stroke:#000000; stroke-linecap:butt; stroke-linejoin:round; stroke-width:2; stroke-opacity:0.1; fill:none" points="
  951.664,524.533 1769.96,596.677 
  "/>
<polyline clip-path="url(#clip402)" style="stroke:#000000; stroke-linecap:butt; stroke-linejoin:round; stroke-width:2; stroke-opacity:0.1; fill:none" points="
  807.375,841.357 951.664,432.207 
  "/>
<polyline clip-path="url(#clip402)" style="stroke:#000000; stroke-linecap:butt; stroke-linejoin:round; stroke-width:2; stroke-opacity:0.1; fill:none" points="
  951.664,432.207 1769.96,504.351 
  "/>
<polyline clip-path="url(#clip402)" style="stroke:#000000; stroke-linecap:butt; stroke-linejoin:round; stroke-width:2; stroke-opacity:0.1; fill:none" points="
  807.375,749.032 951.664,339.881 
  "/>
<polyline clip-path="url(#clip402)" style="stroke:#000000; stroke-linecap:butt; stroke-linejoin:round; stroke-width:2; stroke-opacity:0.1; fill:none" points="
  951.664,339.881 1769.96,412.025 
  "/>
<polyline clip-path="url(#clip402)" style="stroke:#000000; stroke-linecap:butt; stroke-linejoin:round; stroke-width:2; stroke-opacity:0.1; fill:none" points="
  807.375,656.706 951.664,247.555 
  "/>
<polyline clip-path="url(#clip402)" style="stroke:#000000; stroke-linecap:butt; stroke-linejoin:round; stroke-width:2; stroke-opacity:0.1; fill:none" points="
  951.664,247.555 1769.96,319.699 
  "/>
<polyline clip-path="url(#clip400)" style="stroke:#000000; stroke-linecap:butt; stroke-linejoin:round; stroke-width:4; stroke-opacity:1; fill:none" points="
  807.375,1295.15 807.375,575.548 
  "/>
<polyline clip-path="url(#clip400)" style="stroke:#000000; stroke-linecap:butt; stroke-linejoin:round; stroke-width:4; stroke-opacity:1; fill:none" points="
  807.375,1210.66 809.107,1205.75 
  "/>
<polyline clip-path="url(#clip400)" style="stroke:#000000; stroke-linecap:butt; stroke-linejoin:round; stroke-width:4; stroke-opacity:1; fill:none" points="
  807.375,1118.34 809.107,1113.43 
  "/>
<polyline clip-path="url(#clip400)" style="stroke:#000000; stroke-linecap:butt; stroke-linejoin:round; stroke-width:4; stroke-opacity:1; fill:none" points="
  807.375,1026.01 809.107,1021.1 
  "/>
<polyline clip-path="url(#clip400)" style="stroke:#000000; stroke-linecap:butt; stroke-linejoin:round; stroke-width:4; stroke-opacity:1; fill:none" points="
  807.375,933.683 809.107,928.774 
  "/>
<polyline clip-path="url(#clip400)" style="stroke:#000000; stroke-linecap:butt; stroke-linejoin:round; stroke-width:4; stroke-opacity:1; fill:none" points="
  807.375,841.357 809.107,836.448 
  "/>
<polyline clip-path="url(#clip400)" style="stroke:#000000; stroke-linecap:butt; stroke-linejoin:round; stroke-width:4; stroke-opacity:1; fill:none" points="
  807.375,749.032 809.107,744.122 
  "/>
<polyline clip-path="url(#clip400)" style="stroke:#000000; stroke-linecap:butt; stroke-linejoin:round; stroke-width:4; stroke-opacity:1; fill:none" points="
  807.375,656.706 809.107,651.796 
  "/>
<path clip-path="url(#clip400)" d="M641.307 1211.11 L670.983 1211.11 L670.983 1215.05 L641.307 1215.05 L641.307 1211.11 Z" fill="#000000" fill-rule="evenodd" fill-opacity="1" /><path clip-path="url(#clip400)" d="M691.076 1196.46 Q687.465 1196.46 685.636 1200.02 Q683.83 1203.57 683.83 1210.7 Q683.83 1217.8 685.636 1221.37 Q687.465 1224.91 691.076 1224.91 Q694.71 1224.91 696.515 1221.37 Q698.344 1217.8 698.344 1210.7 Q698.344 1203.57 696.515 1200.02 Q694.71 1196.46 691.076 1196.46 M691.076 1192.76 Q696.886 1192.76 699.941 1197.36 Q703.02 1201.95 703.02 1210.7 Q703.02 1219.42 699.941 1224.03 Q696.886 1228.61 691.076 1228.61 Q685.265 1228.61 682.187 1224.03 Q679.131 1219.42 679.131 1210.7 Q679.131 1201.95 682.187 1197.36 Q685.265 1192.76 691.076 1192.76 Z" fill="#000000" fill-rule="evenodd" fill-opacity="1" /><path clip-path="url(#clip400)" d="M711.238 1222.06 L716.122 1222.06 L716.122 1227.94 L711.238 1227.94 L711.238 1222.06 Z" fill="#000000" fill-rule="evenodd" fill-opacity="1" /><path clip-path="url(#clip400)" d="M736.307 1196.46 Q732.696 1196.46 730.867 1200.02 Q729.062 1203.57 729.062 1210.7 Q729.062 1217.8 730.867 1221.37 Q732.696 1224.91 736.307 1224.91 Q739.941 1224.91 741.747 1221.37 Q743.575 1217.8 743.575 1210.7 Q743.575 1203.57 741.747 1200.02 Q739.941 1196.46 736.307 1196.46 M736.307 1192.76 Q742.117 1192.76 745.173 1197.36 Q748.251 1201.95 748.251 1210.7 Q748.251 1219.42 745.173 1224.03 Q742.117 1228.61 736.307 1228.61 Q730.497 1228.61 727.418 1224.03 Q724.362 1219.42 724.362 1210.7 Q724.362 1201.95 727.418 1197.36 Q730.497 1192.76 736.307 1192.76 Z" fill="#000000" fill-rule="evenodd" fill-opacity="1" /><path clip-path="url(#clip400)" d="M767.047 1208.8 Q763.899 1208.8 762.047 1210.95 Q760.219 1213.1 760.219 1216.85 Q760.219 1220.58 762.047 1222.76 Q763.899 1224.91 767.047 1224.91 Q770.196 1224.91 772.024 1222.76 Q773.876 1220.58 773.876 1216.85 Q773.876 1213.1 772.024 1210.95 Q770.196 1208.8 767.047 1208.8 M776.33 1194.14 L776.33 1198.4 Q774.571 1197.57 772.765 1197.13 Q770.983 1196.69 769.223 1196.69 Q764.594 1196.69 762.14 1199.82 Q759.709 1202.94 759.362 1209.26 Q760.728 1207.25 762.788 1206.18 Q764.848 1205.09 767.325 1205.09 Q772.533 1205.09 775.543 1208.27 Q778.575 1211.41 778.575 1216.85 Q778.575 1222.18 775.427 1225.39 Q772.279 1228.61 767.047 1228.61 Q761.052 1228.61 757.881 1224.03 Q754.71 1219.42 754.71 1210.7 Q754.71 1202.5 758.598 1197.64 Q762.487 1192.76 769.038 1192.76 Q770.797 1192.76 772.58 1193.1 Q774.385 1193.45 776.33 1194.14 Z" fill="#000000" fill-rule="evenodd" fill-opacity="1" /><path clip-path="url(#clip400)" d="M640.983 1118.79 L670.659 1118.79 L670.659 1122.72 L640.983 1122.72 L640.983 1118.79 Z" fill="#000000" fill-rule="evenodd" fill-opacity="1" /><path clip-path="url(#clip400)" d="M690.752 1104.13 Q687.14 1104.13 685.312 1107.7 Q683.506 1111.24 683.506 1118.37 Q683.506 1125.48 685.312 1129.04 Q687.14 1132.58 690.752 1132.58 Q694.386 1132.58 696.191 1129.04 Q698.02 1125.48 698.02 1118.37 Q698.02 1111.24 696.191 1107.7 Q694.386 1104.13 690.752 1104.13 M690.752 1100.43 Q696.562 1100.43 699.617 1105.04 Q702.696 1109.62 702.696 1118.37 Q702.696 1127.1 699.617 1131.7 Q696.562 1136.29 690.752 1136.29 Q684.941 1136.29 681.863 1131.7 Q678.807 1127.1 678.807 1118.37 Q678.807 1109.62 681.863 1105.04 Q684.941 1100.43 690.752 1100.43 Z" fill="#000000" fill-rule="evenodd" fill-opacity="1" /><path clip-path="url(#clip400)" d="M710.913 1129.74 L715.798 1129.74 L715.798 1135.62 L710.913 1135.62 L710.913 1129.74 Z" fill="#000000" fill-rule="evenodd" fill-opacity="1" /><path clip-path="url(#clip400)" d="M735.983 1104.13 Q732.372 1104.13 730.543 1107.7 Q728.737 1111.24 728.737 1118.37 Q728.737 1125.48 730.543 1129.04 Q732.372 1132.58 735.983 1132.58 Q739.617 1132.58 741.423 1129.04 Q743.251 1125.48 743.251 1118.37 Q743.251 1111.24 741.423 1107.7 Q739.617 1104.13 735.983 1104.13 M735.983 1100.43 Q741.793 1100.43 744.848 1105.04 Q747.927 1109.62 747.927 1118.37 Q747.927 1127.1 744.848 1131.7 Q741.793 1136.29 735.983 1136.29 Q730.173 1136.29 727.094 1131.7 Q724.038 1127.1 724.038 1118.37 Q724.038 1109.62 727.094 1105.04 Q730.173 1100.43 735.983 1100.43 Z" fill="#000000" fill-rule="evenodd" fill-opacity="1" /><path clip-path="url(#clip400)" d="M768.992 1105.13 L757.186 1123.58 L768.992 1123.58 L768.992 1105.13 M767.765 1101.06 L773.645 1101.06 L773.645 1123.58 L778.575 1123.58 L778.575 1127.47 L773.645 1127.47 L773.645 1135.62 L768.992 1135.62 L768.992 1127.47 L753.39 1127.47 L753.39 1122.95 L767.765 1101.06 Z" fill="#000000" fill-rule="evenodd" fill-opacity="1" /><path clip-path="url(#clip400)" d="M643.067 1026.46 L672.742 1026.46 L672.742 1030.4 L643.067 1030.4 L643.067 1026.46 Z" fill="#000000" fill-rule="evenodd" fill-opacity="1" /><path clip-path="url(#clip400)" d="M692.835 1011.81 Q689.224 1011.81 687.395 1015.37 Q685.59 1018.91 685.59 1026.04 Q685.59 1033.15 687.395 1036.72 Q689.224 1040.26 692.835 1040.26 Q696.469 1040.26 698.275 1036.72 Q700.103 1033.15 700.103 1026.04 Q700.103 1018.91 698.275 1015.37 Q696.469 1011.81 692.835 1011.81 M692.835 1008.1 Q698.645 1008.1 701.701 1012.71 Q704.779 1017.29 704.779 1026.04 Q704.779 1034.77 701.701 1039.38 Q698.645 1043.96 692.835 1043.96 Q687.025 1043.96 683.946 1039.38 Q680.89 1034.77 680.89 1026.04 Q680.89 1017.29 683.946 1012.71 Q687.025 1008.1 692.835 1008.1 Z" fill="#000000" fill-rule="evenodd" fill-opacity="1" /><path clip-path="url(#clip400)" d="M712.997 1037.41 L717.881 1037.41 L717.881 1043.29 L712.997 1043.29 L712.997 1037.41 Z" fill="#000000" fill-rule="evenodd" fill-opacity="1" /><path clip-path="url(#clip400)" d="M738.066 1011.81 Q734.455 1011.81 732.626 1015.37 Q730.821 1018.91 730.821 1026.04 Q730.821 1033.15 732.626 1036.72 Q734.455 1040.26 738.066 1040.26 Q741.7 1040.26 743.506 1036.72 Q745.335 1033.15 745.335 1026.04 Q745.335 1018.91 743.506 1015.37 Q741.7 1011.81 738.066 1011.81 M738.066 1008.1 Q743.876 1008.1 746.932 1012.71 Q750.01 1017.29 750.01 1026.04 Q750.01 1034.77 746.932 1039.38 Q743.876 1043.96 738.066 1043.96 Q732.256 1043.96 729.177 1039.38 Q726.122 1034.77 726.122 1026.04 Q726.122 1017.29 729.177 1012.71 Q732.256 1008.1 738.066 1008.1 Z" fill="#000000" fill-rule="evenodd" fill-opacity="1" /><path clip-path="url(#clip400)" d="M762.256 1039.35 L778.575 1039.35 L778.575 1043.29 L756.631 1043.29 L756.631 1039.35 Q759.293 1036.6 763.876 1031.97 Q768.483 1027.32 769.663 1025.97 Q771.908 1023.45 772.788 1021.72 Q773.691 1019.96 773.691 1018.27 Q773.691 1015.51 771.746 1013.78 Q769.825 1012.04 766.723 1012.04 Q764.524 1012.04 762.071 1012.8 Q759.64 1013.57 756.862 1015.12 L756.862 1010.4 Q759.686 1009.26 762.14 1008.68 Q764.594 1008.1 766.631 1008.1 Q772.001 1008.1 775.196 1010.79 Q778.39 1013.47 778.39 1017.97 Q778.39 1020.09 777.58 1022.02 Q776.793 1023.91 774.686 1026.51 Q774.108 1027.18 771.006 1030.4 Q767.904 1033.59 762.256 1039.35 Z" fill="#000000" fill-rule="evenodd" fill-opacity="1" /><path clip-path="url(#clip400)" d="M691.238 919.482 Q687.627 919.482 685.798 923.047 Q683.992 926.588 683.992 933.718 Q683.992 940.824 685.798 944.389 Q687.627 947.931 691.238 947.931 Q694.872 947.931 696.677 944.389 Q698.506 940.824 698.506 933.718 Q698.506 926.588 696.677 923.047 Q694.872 919.482 691.238 919.482 M691.238 915.778 Q697.048 915.778 700.103 920.385 Q703.182 924.968 703.182 933.718 Q703.182 942.445 700.103 947.051 Q697.048 951.635 691.238 951.635 Q685.427 951.635 682.349 947.051 Q679.293 942.445 679.293 933.718 Q679.293 924.968 682.349 920.385 Q685.427 915.778 691.238 915.778 Z" fill="#000000" fill-rule="evenodd" fill-opacity="1" /><path clip-path="url(#clip400)" d="M711.4 945.084 L716.284 945.084 L716.284 950.963 L711.4 950.963 L711.4 945.084 Z" fill="#000000" fill-rule="evenodd" fill-opacity="1" /><path clip-path="url(#clip400)" d="M736.469 919.482 Q732.858 919.482 731.029 923.047 Q729.224 926.588 729.224 933.718 Q729.224 940.824 731.029 944.389 Q732.858 947.931 736.469 947.931 Q740.103 947.931 741.909 944.389 Q743.737 940.824 743.737 933.718 Q743.737 926.588 741.909 923.047 Q740.103 919.482 736.469 919.482 M736.469 915.778 Q742.279 915.778 745.335 920.385 Q748.413 924.968 748.413 933.718 Q748.413 942.445 745.335 947.051 Q742.279 951.635 736.469 951.635 Q730.659 951.635 727.58 947.051 Q724.524 942.445 724.524 933.718 Q724.524 924.968 727.58 920.385 Q730.659 915.778 736.469 915.778 Z" fill="#000000" fill-rule="evenodd" fill-opacity="1" /><path clip-path="url(#clip400)" d="M766.631 919.482 Q763.02 919.482 761.191 923.047 Q759.385 926.588 759.385 933.718 Q759.385 940.824 761.191 944.389 Q763.02 947.931 766.631 947.931 Q770.265 947.931 772.071 944.389 Q773.899 940.824 773.899 933.718 Q773.899 926.588 772.071 923.047 Q770.265 919.482 766.631 919.482 M766.631 915.778 Q772.441 915.778 775.496 920.385 Q778.575 924.968 778.575 933.718 Q778.575 942.445 775.496 947.051 Q772.441 951.635 766.631 951.635 Q760.821 951.635 757.742 947.051 Q754.686 942.445 754.686 933.718 Q754.686 924.968 757.742 920.385 Q760.821 915.778 766.631 915.778 Z" fill="#000000" fill-rule="evenodd" fill-opacity="1" /><path clip-path="url(#clip400)" d="M692.835 827.156 Q689.224 827.156 687.395 830.721 Q685.59 834.263 685.59 841.392 Q685.59 848.499 687.395 852.063 Q689.224 855.605 692.835 855.605 Q696.469 855.605 698.275 852.063 Q700.103 848.499 700.103 841.392 Q700.103 834.263 698.275 830.721 Q696.469 827.156 692.835 827.156 M692.835 823.452 Q698.645 823.452 701.701 828.059 Q704.779 832.642 704.779 841.392 Q704.779 850.119 701.701 854.725 Q698.645 859.309 692.835 859.309 Q687.025 859.309 683.946 854.725 Q680.89 850.119 680.89 841.392 Q680.89 832.642 683.946 828.059 Q687.025 823.452 692.835 823.452 Z" fill="#000000" fill-rule="evenodd" fill-opacity="1" /><path clip-path="url(#clip400)" d="M712.997 852.758 L717.881 852.758 L717.881 858.637 L712.997 858.637 L712.997 852.758 Z" fill="#000000" fill-rule="evenodd" fill-opacity="1" /><path clip-path="url(#clip400)" d="M738.066 827.156 Q734.455 827.156 732.626 830.721 Q730.821 834.263 730.821 841.392 Q730.821 848.499 732.626 852.063 Q734.455 855.605 738.066 855.605 Q741.7 855.605 743.506 852.063 Q745.335 848.499 745.335 841.392 Q745.335 834.263 743.506 830.721 Q741.7 827.156 738.066 827.156 M738.066 823.452 Q743.876 823.452 746.932 828.059 Q750.01 832.642 750.01 841.392 Q750.01 850.119 746.932 854.725 Q743.876 859.309 738.066 859.309 Q732.256 859.309 729.177 854.725 Q726.122 850.119 726.122 841.392 Q726.122 832.642 729.177 828.059 Q732.256 823.452 738.066 823.452 Z" fill="#000000" fill-rule="evenodd" fill-opacity="1" /><path clip-path="url(#clip400)" d="M762.256 854.702 L778.575 854.702 L778.575 858.637 L756.631 858.637 L756.631 854.702 Q759.293 851.948 763.876 847.318 Q768.483 842.665 769.663 841.323 Q771.908 838.8 772.788 837.063 Q773.691 835.304 773.691 833.614 Q773.691 830.86 771.746 829.124 Q769.825 827.388 766.723 827.388 Q764.524 827.388 762.071 828.152 Q759.64 828.915 756.862 830.466 L756.862 825.744 Q759.686 824.61 762.14 824.031 Q764.594 823.452 766.631 823.452 Q772.001 823.452 775.196 826.138 Q778.39 828.823 778.39 833.314 Q778.39 835.443 777.58 837.364 Q776.793 839.263 774.686 841.855 Q774.108 842.526 771.006 845.744 Q767.904 848.938 762.256 854.702 Z" fill="#000000" fill-rule="evenodd" fill-opacity="1" /><path clip-path="url(#clip400)" d="M690.752 734.83 Q687.14 734.83 685.312 738.395 Q683.506 741.937 683.506 749.066 Q683.506 756.173 685.312 759.738 Q687.14 763.279 690.752 763.279 Q694.386 763.279 696.191 759.738 Q698.02 756.173 698.02 749.066 Q698.02 741.937 696.191 738.395 Q694.386 734.83 690.752 734.83 M690.752 731.127 Q696.562 731.127 699.617 735.733 Q702.696 740.316 702.696 749.066 Q702.696 757.793 699.617 762.4 Q696.562 766.983 690.752 766.983 Q684.941 766.983 681.863 762.4 Q678.807 757.793 678.807 749.066 Q678.807 740.316 681.863 735.733 Q684.941 731.127 690.752 731.127 Z" fill="#000000" fill-rule="evenodd" fill-opacity="1" /><path clip-path="url(#clip400)" d="M710.913 760.432 L715.798 760.432 L715.798 766.312 L710.913 766.312 L710.913 760.432 Z" fill="#000000" fill-rule="evenodd" fill-opacity="1" /><path clip-path="url(#clip400)" d="M735.983 734.83 Q732.372 734.83 730.543 738.395 Q728.737 741.937 728.737 749.066 Q728.737 756.173 730.543 759.738 Q732.372 763.279 735.983 763.279 Q739.617 763.279 741.423 759.738 Q743.251 756.173 743.251 749.066 Q743.251 741.937 741.423 738.395 Q739.617 734.83 735.983 734.83 M735.983 731.127 Q741.793 731.127 744.848 735.733 Q747.927 740.316 747.927 749.066 Q747.927 757.793 744.848 762.4 Q741.793 766.983 735.983 766.983 Q730.173 766.983 727.094 762.4 Q724.038 757.793 724.038 749.066 Q724.038 740.316 727.094 735.733 Q730.173 731.127 735.983 731.127 Z" fill="#000000" fill-rule="evenodd" fill-opacity="1" /><path clip-path="url(#clip400)" d="M768.992 735.826 L757.186 754.275 L768.992 754.275 L768.992 735.826 M767.765 731.752 L773.645 731.752 L773.645 754.275 L778.575 754.275 L778.575 758.163 L773.645 758.163 L773.645 766.312 L768.992 766.312 L768.992 758.163 L753.39 758.163 L753.39 753.65 L767.765 731.752 Z" fill="#000000" fill-rule="evenodd" fill-opacity="1" /><path clip-path="url(#clip400)" d="M691.076 642.504 Q687.465 642.504 685.636 646.069 Q683.83 649.611 683.83 656.74 Q683.83 663.847 685.636 667.412 Q687.465 670.953 691.076 670.953 Q694.71 670.953 696.515 667.412 Q698.344 663.847 698.344 656.74 Q698.344 649.611 696.515 646.069 Q694.71 642.504 691.076 642.504 M691.076 638.801 Q696.886 638.801 699.941 643.407 Q703.02 647.99 703.02 656.74 Q703.02 665.467 699.941 670.074 Q696.886 674.657 691.076 674.657 Q685.265 674.657 682.187 670.074 Q679.131 665.467 679.131 656.74 Q679.131 647.99 682.187 643.407 Q685.265 638.801 691.076 638.801 Z" fill="#000000" fill-rule="evenodd" fill-opacity="1" /><path clip-path="url(#clip400)" d="M711.238 668.106 L716.122 668.106 L716.122 673.986 L711.238 673.986 L711.238 668.106 Z" fill="#000000" fill-rule="evenodd" fill-opacity="1" /><path clip-path="url(#clip400)" d="M736.307 642.504 Q732.696 642.504 730.867 646.069 Q729.062 649.611 729.062 656.74 Q729.062 663.847 730.867 667.412 Q732.696 670.953 736.307 670.953 Q739.941 670.953 741.747 667.412 Q743.575 663.847 743.575 656.74 Q743.575 649.611 741.747 646.069 Q739.941 642.504 736.307 642.504 M736.307 638.801 Q742.117 638.801 745.173 643.407 Q748.251 647.99 748.251 656.74 Q748.251 665.467 745.173 670.074 Q742.117 674.657 736.307 674.657 Q730.497 674.657 727.418 670.074 Q724.362 665.467 724.362 656.74 Q724.362 647.99 727.418 643.407 Q730.497 638.801 736.307 638.801 Z" fill="#000000" fill-rule="evenodd" fill-opacity="1" /><path clip-path="url(#clip400)" d="M767.047 654.842 Q763.899 654.842 762.047 656.995 Q760.219 659.148 760.219 662.898 Q760.219 666.625 762.047 668.801 Q763.899 670.953 767.047 670.953 Q770.196 670.953 772.024 668.801 Q773.876 666.625 773.876 662.898 Q773.876 659.148 772.024 656.995 Q770.196 654.842 767.047 654.842 M776.33 640.19 L776.33 644.449 Q774.571 643.616 772.765 643.176 Q770.983 642.736 769.223 642.736 Q764.594 642.736 762.14 645.861 Q759.709 648.986 759.362 655.305 Q760.728 653.291 762.788 652.227 Q764.848 651.139 767.325 651.139 Q772.533 651.139 775.543 654.31 Q778.575 657.458 778.575 662.898 Q778.575 668.222 775.427 671.439 Q772.279 674.657 767.047 674.657 Q761.052 674.657 757.881 670.074 Q754.71 665.467 754.71 656.74 Q754.71 648.546 758.598 643.685 Q762.487 638.801 769.038 638.801 Q770.797 638.801 772.58 639.148 Q774.385 639.495 776.33 640.19 Z" fill="#000000" fill-rule="evenodd" fill-opacity="1" /><polyline clip-path="url(#clip402)" style="stroke:#0000ff; stroke-linecap:butt; stroke-linejoin:round; stroke-width:4; stroke-opacity:1; fill:none" points="
  834.618,866.802 857.509,939.136 880.401,1006.94 903.296,1068.81 926.208,1123.67 949.179,1170.68 972.367,1208.97 996.291,1236.78 1022.07,1250.14 1050.05,1246.8 
  1078.2,1235.83 1104.28,1226.55 1128.37,1217.38 1151.61,1204.7 1174.59,1187.35 1197.51,1165.43 1220.4,1139.43 1243.28,1109.95 1266.14,1077.61 1288.9,1043.18 
  1311.29,1007.96 1332.43,974.891 1350.37,949.578 1365.1,932.158 1381.51,910.628 1401.69,879.798 1423.78,844.888 1446.45,809.952 1469.28,776.718 1492.15,746.076 
  1515.04,718.697 1537.93,695.211 1560.82,676.25 1583.71,662.447 1606.6,654.437 
  "/>
<polyline clip-path="url(#clip402)" style="stroke:#0000ff; stroke-linecap:butt; stroke-linejoin:round; stroke-width:4; stroke-opacity:1; fill:none" points="
  839.312,853.492 862.196,925.806 885.082,993.593 907.971,1055.45 930.875,1110.3 953.837,1157.32 977.008,1195.64 1000.89,1223.57 1026.57,1237.26 1054.36,1234.55 
  1082.32,1224.23 1108.29,1215.29 1132.33,1206.23 1155.55,1193.58 1178.52,1176.24 1201.43,1154.32 1224.32,1128.33 1247.2,1098.86 1270.05,1066.52 1292.8,1032.1 
  1315.21,996.83 1336.4,963.609 1354.5,937.845 1369.51,919.692 1386.14,897.575 1406.41,866.5 1428.51,831.526 1451.18,796.583 1474.01,763.356 1496.88,732.726 
  1519.76,705.359 1542.64,681.884 1565.53,662.93 1588.41,649.134 1611.29,641.127 
  "/>
<polyline clip-path="url(#clip402)" style="stroke:#0000ff; stroke-linecap:butt; stroke-linejoin:round; stroke-width:4; stroke-opacity:1; fill:none" points="
  844.006,840.182 866.884,912.477 889.763,980.247 912.645,1042.09 935.543,1096.94 958.495,1143.96 981.65,1182.32 1005.49,1210.35 1031.06,1224.37 1058.68,1222.3 
  1086.44,1212.62 1112.3,1204.02 1136.29,1195.08 1159.49,1182.46 1182.45,1165.12 1205.36,1143.22 1228.24,1117.23 1251.11,1087.76 1273.95,1055.44 1296.71,1021.01 
  1319.12,985.703 1340.37,952.327 1358.64,926.112 1373.92,907.225 1390.76,884.521 1411.12,853.202 1433.25,818.164 1455.92,783.213 1478.74,749.995 1501.61,719.375 
  1524.48,692.02 1547.36,668.556 1570.23,649.611 1593.11,635.821 1615.99,627.817 
  "/>
<polyline clip-path="url(#clip402)" style="stroke:#0000ff; stroke-linecap:butt; stroke-linejoin:round; stroke-width:4; stroke-opacity:1; fill:none" points="
  848.7,826.872 871.571,899.147 894.444,966.9 917.32,1028.73 940.21,1083.58 963.153,1130.6 986.291,1168.99 1010.09,1197.14 1035.55,1211.49 1062.99,1210.06 
  1090.57,1201.02 1116.3,1192.76 1140.25,1183.93 1163.43,1171.34 1186.39,1154.01 1209.28,1132.11 1232.16,1106.13 1255.02,1076.67 1277.86,1044.35 1300.61,1009.92 
  1323.04,974.577 1344.34,941.045 1362.77,914.379 1378.33,894.758 1395.39,871.468 1415.83,839.905 1437.98,804.801 1460.65,769.843 1483.47,736.633 1506.33,706.025 
  1529.2,678.682 1552.07,655.228 1574.94,636.292 1597.81,622.508 1620.68,614.507 
  "/>
<polyline clip-path="url(#clip402)" style="stroke:#0000ff; stroke-linecap:butt; stroke-linejoin:round; stroke-width:4; stroke-opacity:1; fill:none" points="
  853.394,813.562 876.259,885.817 899.125,953.554 921.994,1015.38 944.877,1070.21 967.811,1117.25 990.933,1155.66 1014.69,1183.92 1040.05,1198.61 1067.3,1197.81 
  1094.69,1189.41 1120.31,1181.49 1144.21,1172.77 1167.37,1160.22 1190.32,1142.9 1213.2,1121 1236.07,1095.03 1258.93,1065.58 1281.77,1033.26 1304.52,998.827 
  1326.95,963.451 1348.31,929.763 1366.9,902.646 1382.74,882.291 1400.01,858.414 1420.55,826.607 1442.71,791.439 1465.39,756.474 1488.21,723.271 1511.06,692.675 
  1533.92,665.344 1556.78,641.9 1579.65,622.973 1602.51,609.195 1625.38,601.197 
  "/>
<polyline clip-path="url(#clip402)" style="stroke:#0000ff; stroke-linecap:butt; stroke-linejoin:round; stroke-width:4; stroke-opacity:1; fill:none" points="
  858.087,800.252 880.946,872.488 903.806,940.208 926.669,1002.02 949.545,1056.85 972.47,1103.89 995.575,1142.33 1019.29,1170.7 1044.54,1185.72 1071.61,1185.56 
  1098.82,1177.81 1124.32,1170.23 1148.17,1161.62 1171.31,1149.09 1194.25,1131.79 1217.13,1109.9 1239.99,1083.93 1262.84,1054.48 1285.67,1022.18 1308.42,987.738 
  1330.87,952.325 1352.28,918.481 1371.04,890.913 1387.15,869.824 1404.64,845.36 1425.26,813.31 1447.45,778.077 1470.13,743.104 1492.94,709.91 1515.78,679.325 
  1538.64,652.005 1561.49,628.572 1584.35,609.654 1607.21,595.882 1630.07,587.887 
  "/>
<polyline clip-path="url(#clip402)" style="stroke:#0000ff; stroke-linecap:butt; stroke-linejoin:round; stroke-width:4; stroke-opacity:1; fill:none" points="
  862.781,786.941 885.634,859.158 908.487,926.862 931.343,988.659 954.212,1043.48 977.128,1090.53 1000.22,1129 1023.89,1157.49 1049.03,1172.84 1075.92,1173.32 
  1102.94,1166.2 1128.33,1158.97 1152.13,1150.47 1175.26,1137.97 1198.18,1120.68 1221.05,1098.79 1243.91,1072.83 1266.76,1043.39 1289.58,1011.09 1312.33,976.648 
  1334.79,941.199 1356.25,907.199 1375.17,879.18 1391.56,857.357 1409.27,832.307 1429.97,800.012 1452.18,764.715 1474.86,729.734 1497.67,696.548 1520.51,665.975 
  1543.36,638.667 1566.21,615.245 1589.06,596.334 1611.91,582.569 1634.76,574.577 
  "/>
<polyline clip-path="url(#clip402)" style="stroke:#0000ff; stroke-linecap:butt; stroke-linejoin:round; stroke-width:4; stroke-opacity:1; fill:none" points="
  867.475,773.631 890.321,845.829 913.168,913.516 936.018,975.3 958.879,1030.12 981.786,1077.17 1004.86,1115.67 1028.49,1144.27 1053.53,1159.95 1080.23,1161.07 
  1107.06,1154.59 1132.33,1147.7 1156.09,1139.32 1179.2,1126.85 1202.11,1109.57 1224.98,1087.69 1247.83,1061.73 1270.67,1032.3 1293.49,1000 1316.23,965.559 
  1338.7,930.073 1360.22,895.916 1379.31,867.448 1395.97,844.891 1413.89,819.253 1434.68,786.714 1456.92,751.353 1479.6,716.365 1502.4,683.186 1525.23,652.625 
  1548.08,625.329 1570.92,601.917 1593.77,583.015 1616.61,569.256 1639.46,561.267 
  "/>
<polyline clip-path="url(#clip402)" style="stroke:#0000ff; stroke-linecap:butt; stroke-linejoin:round; stroke-width:4; stroke-opacity:1; fill:none" points="
  872.169,760.321 895.008,832.499 917.849,900.17 940.692,961.942 963.547,1016.75 986.444,1063.81 1009.5,1102.35 1033.09,1131.06 1058.02,1147.07 1084.55,1148.82 
  1111.19,1142.99 1136.34,1136.44 1160.05,1128.17 1183.14,1115.73 1206.05,1098.46 1228.9,1076.58 1251.75,1050.63 1274.58,1021.21 1297.39,988.915 1320.14,954.47 
  1342.62,918.947 1364.19,884.634 1383.44,855.715 1400.38,832.424 1418.52,806.2 1439.4,773.417 1461.65,737.99 1484.33,702.995 1507.13,669.825 1529.96,639.275 
  1552.8,611.99 1575.63,588.589 1598.47,569.696 1621.31,555.943 1644.15,547.957 
  "/>
<polyline clip-path="url(#clip402)" style="stroke:#0000ff; stroke-linecap:butt; stroke-linejoin:round; stroke-width:4; stroke-opacity:1; fill:none" points="
  876.863,747.011 899.696,819.169 922.53,886.824 945.367,948.584 968.214,1003.39 991.102,1050.45 1014.14,1089.02 1037.69,1117.84 1062.51,1134.19 1088.86,1136.58 
  1115.31,1131.38 1140.35,1125.17 1164.01,1117.02 1187.08,1104.61 1209.98,1087.34 1232.83,1065.47 1255.66,1039.53 1278.49,1010.11 1301.3,977.828 1324.04,943.38 
  1346.53,907.82 1368.16,873.352 1387.58,843.982 1404.78,819.957 1423.14,793.146 1444.11,760.119 1466.39,724.628 1489.07,689.625 1511.86,656.463 1534.68,625.925 
  1557.51,598.652 1580.35,575.261 1603.18,556.377 1626.01,542.629 1648.84,534.647 
  "/>
<polyline clip-path="url(#clip402)" style="stroke:#0000ff; stroke-linecap:butt; stroke-linejoin:round; stroke-width:4; stroke-opacity:1; fill:none" points="
  881.557,733.701 904.383,805.84 927.211,873.478 950.041,935.226 972.881,990.026 995.761,1037.09 1018.78,1075.69 1042.29,1104.62 1067.01,1121.3 1093.17,1124.33 
  1119.44,1119.78 1144.36,1113.91 1167.97,1105.87 1191.02,1093.49 1213.91,1076.23 1236.75,1054.37 1259.58,1028.43 1282.4,999.019 1305.21,966.741 1327.95,932.291 
  1350.45,896.694 1372.13,862.07 1391.71,832.249 1409.19,807.49 1427.77,780.093 1448.82,746.822 1471.12,711.266 1493.8,676.256 1516.59,643.101 1539.41,612.575 
  1562.23,585.314 1585.06,561.933 1607.89,543.058 1630.71,529.316 1653.54,521.337 
  "/>
<polyline clip-path="url(#clip402)" style="stroke:#0000ff; stroke-linecap:butt; stroke-linejoin:round; stroke-width:4; stroke-opacity:1; fill:none" points="
  886.25,720.391 909.071,792.51 931.892,860.132 954.715,921.867 977.549,976.662 1000.42,1023.73 1023.42,1062.36 1046.89,1091.41 1071.5,1108.42 1097.48,1112.08 
  1123.56,1108.17 1148.36,1102.64 1171.93,1094.72 1194.96,1082.37 1217.84,1065.12 1240.68,1043.26 1263.5,1017.33 1286.32,987.927 1309.11,955.654 1331.85,921.202 
  1354.36,885.568 1376.1,850.788 1395.84,820.516 1413.6,795.023 1432.4,767.039 1453.54,733.524 1475.86,697.904 1498.54,662.886 1521.32,629.74 1544.14,599.225 
  1566.95,571.975 1589.77,548.606 1612.59,529.738 1635.41,516.003 1658.23,508.027 
  "/>
<polyline clip-path="url(#clip402)" style="stroke:#0000ff; stroke-linecap:butt; stroke-linejoin:round; stroke-width:4; stroke-opacity:1; fill:none" points="
  890.944,707.081 913.758,779.181 936.573,846.785 959.39,908.509 982.216,963.298 1005.08,1010.37 1028.07,1049.03 1051.49,1078.19 1075.99,1095.53 1101.79,1099.83 
  1127.68,1096.57 1152.37,1091.38 1175.89,1083.57 1198.9,1071.25 1221.77,1054.01 1244.6,1032.16 1267.42,1006.23 1290.23,976.834 1313.02,944.567 1335.76,910.112 
  1358.28,874.442 1380.07,839.506 1399.98,808.783 1418.01,782.557 1437.02,753.986 1458.25,720.226 1480.59,684.542 1503.28,649.516 1526.06,616.378 1548.86,585.875 
  1571.67,558.637 1594.49,535.278 1617.3,516.419 1640.11,502.69 1662.93,494.717 
  "/>
<polyline clip-path="url(#clip402)" style="stroke:#0000ff; stroke-linecap:butt; stroke-linejoin:round; stroke-width:4; stroke-opacity:1; fill:none" points="
  895.638,693.771 918.446,765.851 941.254,833.439 964.064,895.151 986.883,949.933 1009.74,997.008 1032.71,1035.7 1056.08,1064.97 1080.49,1082.65 1106.1,1087.59 
  1131.81,1084.96 1156.38,1080.11 1179.85,1072.41 1202.85,1060.13 1225.71,1042.9 1248.53,1021.05 1271.34,995.132 1294.14,965.741 1316.93,933.48 1339.66,899.023 
  1362.2,863.316 1384.04,828.224 1404.11,797.05 1422.42,770.09 1441.65,740.932 1462.96,706.929 1485.33,671.18 1508.01,636.147 1530.79,603.016 1553.59,572.525 
  1576.39,545.299 1599.2,521.95 1622.01,503.1 1644.81,489.377 1667.62,481.407 
  "/>
<polyline clip-path="url(#clip402)" style="stroke:#0000ff; stroke-linecap:butt; stroke-linejoin:round; stroke-width:4; stroke-opacity:1; fill:none" points="
  900.332,680.461 923.133,752.521 945.935,820.093 968.739,881.792 991.551,936.569 1014.39,983.648 1037.35,1022.37 1060.68,1051.76 1084.98,1069.77 1110.41,1075.34 
  1135.93,1073.36 1160.39,1068.85 1183.81,1061.26 1206.79,1049.01 1229.64,1031.79 1252.45,1009.94 1275.25,984.032 1298.05,954.648 1320.83,922.393 1343.57,887.934 
  1366.11,852.19 1388.01,816.942 1408.25,785.318 1426.83,757.623 1446.28,727.878 1467.68,693.631 1490.06,657.818 1512.75,622.777 1535.52,589.655 1558.31,559.175 
  1581.11,531.96 1603.91,508.622 1626.71,489.781 1649.51,476.064 1672.31,468.096 
  "/>
<polyline clip-path="url(#clip402)" style="stroke:#0000ff; stroke-linecap:butt; stroke-linejoin:round; stroke-width:4; stroke-opacity:1; fill:none" points="
  905.026,667.151 927.821,739.192 950.616,806.747 973.413,868.434 996.218,923.204 1019.05,970.289 1041.99,1009.05 1065.28,1038.54 1089.47,1056.88 1114.73,1063.09 
  1140.06,1061.75 1164.39,1057.58 1187.77,1050.11 1210.73,1037.89 1233.57,1020.68 1256.38,998.839 1279.17,972.932 1301.96,943.555 1324.74,911.306 1347.47,876.844 
  1370.03,841.064 1391.98,805.66 1412.38,773.585 1431.24,745.156 1450.9,714.825 1472.39,680.334 1494.79,644.456 1517.48,609.407 1540.25,576.293 1563.04,545.825 
  1585.83,518.622 1608.62,495.294 1631.42,476.462 1654.21,462.751 1677.01,454.786 
  "/>
<polyline clip-path="url(#clip402)" style="stroke:#0000ff; stroke-linecap:butt; stroke-linejoin:round; stroke-width:4; stroke-opacity:1; fill:none" points="
  909.72,653.841 932.508,725.862 955.297,793.401 978.088,855.076 1000.89,909.84 1023.71,956.929 1046.63,995.716 1069.88,1025.33 1093.97,1044 1119.04,1050.85 
  1144.18,1050.15 1168.4,1046.32 1191.73,1038.96 1214.67,1026.77 1237.5,1009.56 1260.3,987.733 1283.09,961.832 1305.88,932.462 1328.65,900.219 1351.38,865.755 
  1373.94,829.938 1395.95,794.378 1416.51,761.852 1435.65,732.689 1455.53,701.771 1477.1,667.036 1499.53,631.093 1522.22,596.038 1544.98,562.932 1567.76,532.475 
  1590.55,505.284 1613.34,481.967 1636.13,463.142 1658.91,449.438 1681.7,441.476 
  "/>
<polyline clip-path="url(#clip402)" style="stroke:#0000ff; stroke-linecap:butt; stroke-linejoin:round; stroke-width:4; stroke-opacity:1; fill:none" points="
  914.413,640.531 937.195,712.533 959.978,780.055 982.762,841.717 1005.55,896.476 1028.37,943.569 1051.27,982.388 1074.48,1012.11 1098.46,1031.11 1123.35,1038.6 
  1148.3,1038.54 1172.41,1035.06 1195.68,1027.81 1218.61,1015.65 1241.43,998.453 1264.22,976.627 1287.01,950.733 1309.79,921.369 1332.55,889.132 1355.28,854.666 
  1377.86,818.811 1399.92,783.096 1420.65,750.119 1440.06,720.223 1460.15,688.718 1481.82,653.739 1504.26,617.731 1526.96,582.668 1549.71,549.57 1572.49,519.125 
  1595.27,491.946 1618.05,468.639 1640.83,449.823 1663.61,436.125 1686.4,428.166 
  "/>
<polyline clip-path="url(#clip402)" style="stroke:#0000ff; stroke-linecap:butt; stroke-linejoin:round; stroke-width:4; stroke-opacity:1; fill:none" points="
  919.107,627.221 941.883,699.203 964.659,766.709 987.437,828.359 1010.22,883.111 1033.03,930.209 1055.91,969.059 1079.08,998.893 1102.95,1018.23 1127.66,1026.35 
  1152.43,1026.93 1176.42,1023.79 1199.64,1016.66 1222.55,1004.53 1245.36,987.341 1268.15,965.521 1290.93,939.633 1313.7,910.276 1336.46,878.045 1359.19,843.576 
  1381.77,807.685 1403.89,771.814 1424.78,738.386 1444.46,707.756 1464.78,675.664 1486.53,640.441 1509,604.369 1531.69,569.299 1554.44,536.208 1577.21,505.775 
  1599.99,478.607 1622.76,455.311 1645.54,436.504 1668.31,422.812 1691.09,414.856 
  "/>
<polyline clip-path="url(#clip402)" style="stroke:#0000ff; stroke-linecap:butt; stroke-linejoin:round; stroke-width:4; stroke-opacity:1; fill:none" points="
  923.801,613.911 946.57,685.874 969.34,753.363 992.111,815.001 1014.89,869.747 1037.68,916.849 1060.56,955.73 1083.68,985.677 1107.45,1005.34 1131.97,1014.11 
  1156.55,1015.33 1180.42,1012.53 1203.6,1005.51 1226.49,993.407 1249.3,976.23 1272.07,954.415 1294.84,928.533 1317.61,899.183 1340.37,866.958 1363.09,832.487 
  1385.69,796.559 1407.86,760.532 1428.92,726.653 1448.87,695.289 1469.41,662.611 1491.24,627.144 1513.73,591.007 1536.43,555.929 1559.18,522.847 1581.94,492.425 
  1604.71,465.269 1627.48,441.983 1650.25,423.185 1673.01,409.499 1695.78,401.546 
  "/>
<polyline clip-path="url(#clip402)" style="stroke:#0000ff; stroke-linecap:butt; stroke-linejoin:round; stroke-width:4; stroke-opacity:1; fill:none" points="
  928.495,600.601 951.258,672.544 974.021,740.017 996.786,801.643 1019.55,856.382 1042.34,903.489 1065.2,942.402 1088.28,972.46 1111.94,992.46 1136.28,1001.86 
  1160.68,1003.72 1184.43,1001.26 1207.56,994.355 1230.44,982.287 1253.23,965.118 1276,943.309 1298.76,917.433 1321.52,888.09 1344.27,855.871 1367,821.397 
  1389.61,785.433 1411.83,749.249 1433.05,714.92 1453.28,682.822 1474.03,649.557 1495.96,613.846 1518.47,577.645 1541.16,542.559 1563.91,509.485 1586.67,479.075 
  1609.43,451.931 1632.19,428.656 1654.95,409.866 1677.71,396.185 1700.48,388.236 
  "/>
<polyline clip-path="url(#clip402)" style="stroke:#0000ff; stroke-linecap:butt; stroke-linejoin:round; stroke-width:4; stroke-opacity:1; fill:none" points="
  933.189,587.291 955.945,659.214 978.702,726.67 1001.46,788.284 1024.22,843.018 1047,890.13 1069.84,929.073 1092.88,959.243 1116.44,979.576 1140.6,989.611 
  1164.8,992.118 1188.44,989.997 1211.52,983.204 1234.38,971.166 1257.16,954.007 1279.92,932.203 1302.68,906.333 1325.43,876.997 1348.18,844.784 1370.9,810.308 
  1393.52,774.307 1415.8,737.967 1437.18,703.188 1457.69,670.355 1478.66,636.504 1500.67,600.549 1523.2,564.283 1545.9,529.19 1568.64,496.124 1591.39,465.725 
  1614.15,438.593 1636.9,415.328 1659.66,396.546 1682.41,382.872 1705.17,374.926 
  "/>
<polyline clip-path="url(#clip402)" style="stroke:#0000ff; stroke-linecap:butt; stroke-linejoin:round; stroke-width:4; stroke-opacity:1; fill:none" points="
  937.883,573.981 960.633,645.885 983.383,713.324 1006.13,774.926 1028.89,829.654 1051.66,876.77 1074.48,915.744 1097.48,946.027 1120.93,966.691 1144.91,977.364 
  1168.92,980.512 1192.45,978.732 1215.48,972.052 1238.32,960.045 1261.09,942.895 1283.85,921.097 1306.6,895.234 1329.35,865.904 1352.09,833.697 1374.81,799.219 
  1397.44,763.181 1419.76,726.685 1441.32,691.455 1462.1,657.889 1483.28,623.45 1505.38,587.251 1527.94,550.921 1550.63,515.82 1573.37,482.762 1596.12,452.375 
  1618.87,425.254 1641.61,402 1664.36,383.227 1687.11,369.559 1709.86,361.616 
  "/>
<polyline clip-path="url(#clip402)" style="stroke:#0000ff; stroke-linecap:butt; stroke-linejoin:round; stroke-width:4; stroke-opacity:1; fill:none" points="
  942.576,560.671 965.32,632.555 988.064,699.978 1010.81,761.568 1033.56,816.289 1056.32,863.41 1079.12,902.415 1102.08,932.81 1125.42,953.807 1149.22,965.117 
  1173.05,968.907 1196.45,967.468 1219.44,960.901 1242.26,948.925 1265.02,931.784 1287.77,909.991 1310.52,884.134 1333.26,854.811 1356,822.61 1378.71,788.129 
  1401.35,752.055 1423.73,715.403 1445.45,679.722 1466.51,645.422 1487.91,610.397 1510.09,573.954 1532.67,537.559 1555.37,502.451 1578.1,469.401 1600.84,439.025 
  1623.58,411.916 1646.33,388.672 1669.07,369.908 1691.82,356.246 1714.56,348.306 
  "/>
<polyline clip-path="url(#clip402)" style="stroke:#0000ff; stroke-linecap:butt; stroke-linejoin:round; stroke-width:4; stroke-opacity:1; fill:none" points="
  947.27,547.361 970.008,619.226 992.745,686.632 1015.48,748.209 1038.22,802.925 1060.98,850.05 1083.76,889.086 1106.68,919.594 1129.92,940.923 1153.53,952.87 
  1177.17,957.301 1200.46,956.203 1223.4,949.75 1246.2,937.804 1268.96,920.672 1291.7,898.885 1314.44,873.034 1337.17,843.718 1359.9,811.524 1382.62,777.04 
  1405.27,740.928 1427.7,704.121 1449.59,667.989 1470.92,632.955 1492.54,597.343 1514.81,560.656 1537.41,524.197 1560.11,489.081 1582.83,456.039 1605.57,425.676 
  1628.3,398.578 1651.04,375.345 1673.78,356.589 1696.52,342.933 1719.25,334.996 
  "/>
<polyline clip-path="url(#clip402)" style="stroke:#0000ff; stroke-linecap:butt; stroke-linejoin:round; stroke-width:4; stroke-opacity:1; fill:none" points="
  951.964,534.051 974.695,605.896 997.426,673.286 1020.16,734.851 1042.89,789.56 1065.63,836.69 1088.41,875.758 1111.28,906.377 1134.41,928.038 1157.84,940.623 
  1181.3,945.695 1204.47,944.938 1227.36,938.598 1250.14,926.683 1272.89,909.561 1295.62,887.779 1318.35,861.934 1341.08,832.626 1363.81,800.437 1386.52,765.951 
  1409.18,729.802 1431.67,692.839 1453.72,656.256 1475.33,620.488 1497.16,584.29 1519.52,547.359 1542.14,510.835 1564.84,475.712 1587.56,442.678 1610.29,412.326 
  1633.02,385.24 1655.75,362.017 1678.48,343.27 1701.22,329.62 1723.95,321.686 
  "/>
<polyline clip-path="url(#clip402)" style="stroke:#0000ff; stroke-linecap:butt; stroke-linejoin:round; stroke-width:4; stroke-opacity:1; fill:none" points="
  956.658,520.741 979.383,592.566 1002.11,659.94 1024.83,721.493 1047.56,776.196 1070.29,823.33 1093.05,862.429 1115.88,893.16 1138.9,915.154 1162.15,928.376 
  1185.42,934.09 1208.48,933.674 1231.32,927.447 1254.08,915.563 1276.82,898.449 1299.55,876.673 1322.27,850.834 1344.99,821.533 1367.72,789.35 1390.43,754.861 
  1413.1,718.676 1435.64,681.557 1457.86,644.523 1479.74,608.021 1501.79,571.236 1524.23,534.061 1546.88,497.473 1569.58,462.342 1592.3,429.316 1615.02,398.976 
  1637.74,371.901 1660.47,348.689 1683.19,329.951 1705.92,316.307 1728.64,308.376 
  "/>
<polyline clip-path="url(#clip402)" style="stroke:#0000ff; stroke-linecap:butt; stroke-linejoin:round; stroke-width:4; stroke-opacity:1; fill:none" points="
  961.352,507.431 984.07,579.237 1006.79,646.594 1029.51,708.134 1052.23,762.831 1074.95,809.97 1097.69,849.1 1120.48,879.944 1143.4,902.27 1166.46,916.129 
  1189.55,922.484 1212.48,922.409 1235.28,916.296 1258.03,904.442 1280.75,887.338 1303.47,865.567 1326.19,839.735 1348.91,810.44 1371.62,778.263 1394.33,743.772 
  1417.02,707.55 1439.61,670.275 1461.99,632.79 1484.14,595.555 1506.42,558.183 1528.95,520.764 1551.61,484.111 1574.31,448.973 1597.03,415.955 1619.74,385.626 
  1642.46,358.563 1665.18,335.361 1687.9,316.631 1710.62,302.994 1733.33,295.066 
  "/>
<polyline clip-path="url(#clip402)" style="stroke:#0000ff; stroke-linecap:butt; stroke-linejoin:round; stroke-width:4; stroke-opacity:1; fill:none" points="
  966.046,494.121 988.757,565.907 1011.47,633.247 1034.18,694.776 1056.89,749.467 1079.61,796.61 1102.33,835.771 1125.08,866.727 1147.89,889.385 1170.78,903.882 
  1193.67,910.878 1216.49,911.144 1239.24,905.144 1261.97,893.321 1284.68,876.226 1307.4,854.461 1330.11,828.635 1352.82,799.347 1375.53,767.176 1398.24,732.683 
  1420.93,696.424 1443.58,658.993 1466.12,621.058 1488.55,583.088 1511.04,545.129 1533.66,507.466 1556.34,470.749 1579.05,435.603 1601.76,402.593 1624.47,372.276 
  1647.18,345.225 1669.89,322.034 1692.6,303.312 1715.32,289.681 1738.03,281.756 
  "/>
<polyline clip-path="url(#clip402)" style="stroke:#0000ff; stroke-linecap:butt; stroke-linejoin:round; stroke-width:4; stroke-opacity:1; fill:none" points="
  970.74,480.811 993.445,552.578 1016.15,619.901 1038.86,681.417 1061.56,736.102 1084.27,783.25 1106.97,822.442 1129.68,853.51 1152.38,876.501 1175.09,891.635 
  1197.79,899.273 1220.5,899.879 1243.2,893.993 1265.91,882.201 1288.61,865.115 1311.32,843.355 1334.03,817.535 1356.73,788.254 1379.44,756.089 1402.14,721.593 
  1424.85,685.298 1447.55,647.711 1470.26,609.325 1492.96,570.621 1515.67,532.076 1538.37,494.169 1561.08,457.387 1583.78,422.234 1606.49,389.232 1629.19,358.926 
  1651.9,331.887 1674.61,308.706 1697.31,289.993 1720.02,276.368 1742.72,268.446 
  "/>
</svg>
