<?xml version="1.0" encoding="utf-8"?>
<svg xmlns="http://www.w3.org/2000/svg" xmlns:xlink="http://www.w3.org/1999/xlink" width="600" height="400" viewBox="0 0 2400 1600">
<defs>
  <clipPath id="clip670">
    <rect x="0" y="0" width="2400" height="1600"/>
  </clipPath>
</defs>
<path clip-path="url(#clip670)" d="
M0 1600 L2400 1600 L2400 0 L0 0  Z
  " fill="#ffffff" fill-rule="evenodd" fill-opacity="1"/>
<defs>
  <clipPath id="clip671">
    <rect x="480" y="0" width="1681" height="1600"/>
  </clipPath>
</defs>
<defs>
  <clipPath id="clip672">
    <rect x="223" y="47" width="2130" height="1440"/>
  </clipPath>
</defs>
<path clip-path="url(#clip672)" d="
M1562.36 1777.98 L1562.36 1325.4 L1580.51 1068.08 L1683.44 1113.45 L1683.44 1566.03 L1665.29 1823.36 L1562.36 1777.98  Z
  " fill="#ffffff" fill-rule="evenodd" fill-opacity="1"/>
<polyline clip-path="url(#clip672)" style="stroke:#000000; stroke-linecap:butt; stroke-linejoin:round; stroke-width:2; stroke-opacity:0.1; fill:none" points="
  881.433,1301.73 1025.72,892.579 
  "/>
<polyline clip-path="url(#clip672)" style="stroke:#000000; stroke-linecap:butt; stroke-linejoin:round; stroke-width:2; stroke-opacity:0.1; fill:none" points="
  1025.72,892.579 1025.72,172.977 
  "/>
<polyline clip-path="url(#clip672)" style="stroke:#000000; stroke-linecap:butt; stroke-linejoin:round; stroke-width:2; stroke-opacity:0.1; fill:none" points="
  1035.83,1315.34 1180.12,906.191 
  "/>
<polyline clip-path="url(#clip672)" style="stroke:#000000; stroke-linecap:butt; stroke-linejoin:round; stroke-width:2; stroke-opacity:0.1; fill:none" points="
  1180.12,906.191 1180.12,186.589 
  "/>
<polyline clip-path="url(#clip672)" style="stroke:#000000; stroke-linecap:butt; stroke-linejoin:round; stroke-width:2; stroke-opacity:0.1; fill:none" points="
  1190.23,1328.95 1334.51,919.803 
  "/>
<polyline clip-path="url(#clip672)" style="stroke:#000000; stroke-linecap:butt; stroke-linejoin:round; stroke-width:2; stroke-opacity:0.1; fill:none" points="
  1334.51,919.803 1334.51,200.201 
  "/>
<polyline clip-path="url(#clip672)" style="stroke:#000000; stroke-linecap:butt; stroke-linejoin:round; stroke-width:2; stroke-opacity:0.1; fill:none" points="
  1344.62,1342.57 1488.91,933.415 
  "/>
<polyline clip-path="url(#clip672)" style="stroke:#000000; stroke-linecap:butt; stroke-linejoin:round; stroke-width:2; stroke-opacity:0.1; fill:none" points="
  1488.91,933.415 1488.91,213.813 
  "/>
<polyline clip-path="url(#clip672)" style="stroke:#000000; stroke-linecap:butt; stroke-linejoin:round; stroke-width:2; stroke-opacity:0.1; fill:none" points="
  1499.02,1356.18 1643.31,947.027 
  "/>
<polyline clip-path="url(#clip672)" style="stroke:#000000; stroke-linecap:butt; stroke-linejoin:round; stroke-width:2; stroke-opacity:0.1; fill:none" points="
  1643.31,947.027 1643.31,227.425 
  "/>
<polyline clip-path="url(#clip670)" style="stroke:#000000; stroke-linecap:butt; stroke-linejoin:round; stroke-width:4; stroke-opacity:1; fill:none" points="
  806.808,1295.15 1625.11,1367.29 
  "/>
<polyline clip-path="url(#clip670)" style="stroke:#000000; stroke-linecap:butt; stroke-linejoin:round; stroke-width:4; stroke-opacity:1; fill:none" points="
  881.433,1301.73 883.164,1296.82 
  "/>
<polyline clip-path="url(#clip670)" style="stroke:#000000; stroke-linecap:butt; stroke-linejoin:round; stroke-width:4; stroke-opacity:1; fill:none" points="
  1035.83,1315.34 1037.56,1310.43 
  "/>
<polyline clip-path="url(#clip670)" style="stroke:#000000; stroke-linecap:butt; stroke-linejoin:round; stroke-width:4; stroke-opacity:1; fill:none" points="
  1190.23,1328.95 1191.96,1324.04 
  "/>
<polyline clip-path="url(#clip670)" style="stroke:#000000; stroke-linecap:butt; stroke-linejoin:round; stroke-width:4; stroke-opacity:1; fill:none" points="
  1344.62,1342.57 1346.35,1337.66 
  "/>
<polyline clip-path="url(#clip670)" style="stroke:#000000; stroke-linecap:butt; stroke-linejoin:round; stroke-width:4; stroke-opacity:1; fill:none" points="
  1499.02,1356.18 1500.75,1351.27 
  "/>
<path clip-path="url(#clip670)" d="M808.289 1328.53 L837.964 1328.53 L837.964 1332.47 L808.289 1332.47 L808.289 1328.53 Z" fill="#000000" fill-rule="evenodd" fill-opacity="1" /><path clip-path="url(#clip670)" d="M848.196 1344.64 L848.196 1340.39 Q849.955 1341.22 851.761 1341.66 Q853.566 1342.1 855.302 1342.1 Q859.932 1342.1 862.362 1339 Q864.816 1335.87 865.163 1329.53 Q863.821 1331.52 861.761 1332.58 Q859.7 1333.65 857.2 1333.65 Q852.015 1333.65 848.983 1330.52 Q845.974 1327.38 845.974 1321.94 Q845.974 1316.61 849.122 1313.39 Q852.27 1310.18 857.501 1310.18 Q863.497 1310.18 866.645 1314.78 Q869.816 1319.37 869.816 1328.12 Q869.816 1336.29 865.927 1341.17 Q862.061 1346.03 855.511 1346.03 Q853.751 1346.03 851.946 1345.69 Q850.14 1345.34 848.196 1344.64 M857.501 1329.99 Q860.649 1329.99 862.478 1327.84 Q864.33 1325.69 864.33 1321.94 Q864.33 1318.21 862.478 1316.06 Q860.649 1313.88 857.501 1313.88 Q854.353 1313.88 852.501 1316.06 Q850.673 1318.21 850.673 1321.94 Q850.673 1325.69 852.501 1327.84 Q854.353 1329.99 857.501 1329.99 Z" fill="#000000" fill-rule="evenodd" fill-opacity="1" /><path clip-path="url(#clip670)" d="M962.338 1342.15 L992.014 1342.15 L992.014 1346.08 L962.338 1346.08 L962.338 1342.15 Z" fill="#000000" fill-rule="evenodd" fill-opacity="1" /><path clip-path="url(#clip670)" d="M1012.68 1339.83 Q1009.54 1339.83 1007.68 1341.98 Q1005.86 1344.14 1005.86 1347.89 Q1005.86 1351.61 1007.68 1353.79 Q1009.54 1355.94 1012.68 1355.94 Q1015.83 1355.94 1017.66 1353.79 Q1019.51 1351.61 1019.51 1347.89 Q1019.51 1344.14 1017.66 1341.98 Q1015.83 1339.83 1012.68 1339.83 M1021.97 1325.18 L1021.97 1329.44 Q1020.21 1328.6 1018.4 1328.16 Q1016.62 1327.72 1014.86 1327.72 Q1010.23 1327.72 1007.78 1330.85 Q1005.35 1333.97 1005 1340.29 Q1006.37 1338.28 1008.43 1337.22 Q1010.49 1336.13 1012.96 1336.13 Q1018.17 1336.13 1021.18 1339.3 Q1024.21 1342.45 1024.21 1347.89 Q1024.21 1353.21 1021.06 1356.43 Q1017.92 1359.65 1012.68 1359.65 Q1006.69 1359.65 1003.52 1355.06 Q1000.35 1350.46 1000.35 1341.73 Q1000.35 1333.53 1004.24 1328.67 Q1008.12 1323.79 1014.68 1323.79 Q1016.43 1323.79 1018.22 1324.14 Q1020.02 1324.48 1021.97 1325.18 Z" fill="#000000" fill-rule="evenodd" fill-opacity="1" /><path clip-path="url(#clip670)" d="M1117.54 1355.76 L1147.22 1355.76 L1147.22 1359.69 L1117.54 1359.69 L1117.54 1355.76 Z" fill="#000000" fill-rule="evenodd" fill-opacity="1" /><path clip-path="url(#clip670)" d="M1171.48 1353.95 Q1174.84 1354.67 1176.71 1356.94 Q1178.61 1359.21 1178.61 1362.54 Q1178.61 1367.66 1175.09 1370.46 Q1171.57 1373.26 1165.09 1373.26 Q1162.91 1373.26 1160.6 1372.82 Q1158.31 1372.4 1155.85 1371.54 L1155.85 1367.03 Q1157.8 1368.17 1160.11 1368.74 Q1162.43 1369.32 1164.95 1369.32 Q1169.35 1369.32 1171.64 1367.59 Q1173.96 1365.85 1173.96 1362.54 Q1173.96 1359.48 1171.8 1357.77 Q1169.67 1356.04 1165.85 1356.04 L1161.83 1356.04 L1161.83 1352.19 L1166.04 1352.19 Q1169.49 1352.19 1171.32 1350.83 Q1173.15 1349.44 1173.15 1346.85 Q1173.15 1344.18 1171.25 1342.77 Q1169.37 1341.34 1165.85 1341.34 Q1163.93 1341.34 1161.73 1341.75 Q1159.53 1342.17 1156.9 1343.05 L1156.9 1338.88 Q1159.56 1338.14 1161.87 1337.77 Q1164.21 1337.4 1166.27 1337.4 Q1171.6 1337.4 1174.7 1339.83 Q1177.8 1342.24 1177.8 1346.36 Q1177.8 1349.23 1176.16 1351.22 Q1174.51 1353.19 1171.48 1353.95 Z" fill="#000000" fill-rule="evenodd" fill-opacity="1" /><path clip-path="url(#clip670)" d="M1321.06 1354.72 Q1317.45 1354.72 1315.62 1358.28 Q1313.82 1361.82 1313.82 1368.95 Q1313.82 1376.06 1315.62 1379.62 Q1317.45 1383.17 1321.06 1383.17 Q1324.7 1383.17 1326.5 1379.62 Q1328.33 1376.06 1328.33 1368.95 Q1328.33 1361.82 1326.5 1358.28 Q1324.7 1354.72 1321.06 1354.72 M1321.06 1351.01 Q1326.87 1351.01 1329.93 1355.62 Q1333.01 1360.2 1333.01 1368.95 Q1333.01 1377.68 1329.93 1382.29 Q1326.87 1386.87 1321.06 1386.87 Q1315.25 1386.87 1312.17 1382.29 Q1309.12 1377.68 1309.12 1368.95 Q1309.12 1360.2 1312.17 1355.62 Q1315.25 1351.01 1321.06 1351.01 Z" fill="#000000" fill-rule="evenodd" fill-opacity="1" /><path clip-path="url(#clip670)" d="M1480.27 1381.18 Q1483.63 1381.89 1485.5 1384.16 Q1487.4 1386.43 1487.4 1389.76 Q1487.4 1394.88 1483.88 1397.68 Q1480.36 1400.48 1473.88 1400.48 Q1471.71 1400.48 1469.39 1400.04 Q1467.1 1399.63 1464.65 1398.77 L1464.65 1394.26 Q1466.59 1395.39 1468.91 1395.97 Q1471.22 1396.55 1473.74 1396.55 Q1478.14 1396.55 1480.43 1394.81 Q1482.75 1393.07 1482.75 1389.76 Q1482.75 1386.71 1480.6 1385 Q1478.47 1383.26 1474.65 1383.26 L1470.62 1383.26 L1470.62 1379.42 L1474.83 1379.42 Q1478.28 1379.42 1480.11 1378.05 Q1481.94 1376.66 1481.94 1374.07 Q1481.94 1371.41 1480.04 1370 Q1478.17 1368.56 1474.65 1368.56 Q1472.73 1368.56 1470.53 1368.98 Q1468.33 1369.39 1465.69 1370.27 L1465.69 1366.11 Q1468.35 1365.37 1470.67 1365 Q1473 1364.63 1475.06 1364.63 Q1480.39 1364.63 1483.49 1367.06 Q1486.59 1369.46 1486.59 1373.58 Q1486.59 1376.45 1484.95 1378.45 Q1483.3 1380.41 1480.27 1381.18 Z" fill="#000000" fill-rule="evenodd" fill-opacity="1" /><polyline clip-path="url(#clip672)" style="stroke:#000000; stroke-linecap:butt; stroke-linejoin:round; stroke-width:2; stroke-opacity:0.1; fill:none" points="
  1629.19,1355.71 810.892,1283.57 
  "/>
<polyline clip-path="url(#clip672)" style="stroke:#000000; stroke-linecap:butt; stroke-linejoin:round; stroke-width:2; stroke-opacity:0.1; fill:none" points="
  810.892,1283.57 810.892,563.968 
  "/>
<polyline clip-path="url(#clip672)" style="stroke:#000000; stroke-linecap:butt; stroke-linejoin:round; stroke-width:2; stroke-opacity:0.1; fill:none" points="
  1674.57,1227.05 856.265,1154.91 
  "/>
<polyline clip-path="url(#clip672)" style="stroke:#000000; stroke-linecap:butt; stroke-linejoin:round; stroke-width:2; stroke-opacity:0.1; fill:none" points="
  856.265,1154.91 856.265,435.305 
  "/>
<polyline clip-path="url(#clip672)" style="stroke:#000000; stroke-linecap:butt; stroke-linejoin:round; stroke-width:2; stroke-opacity:0.1; fill:none" points="
  1719.94,1098.39 901.639,1026.24 
  "/>
<polyline clip-path="url(#clip672)" style="stroke:#000000; stroke-linecap:butt; stroke-linejoin:round; stroke-width:2; stroke-opacity:0.1; fill:none" points="
  901.639,1026.24 901.639,306.641 
  "/>
<polyline clip-path="url(#clip672)" style="stroke:#000000; stroke-linecap:butt; stroke-linejoin:round; stroke-width:2; stroke-opacity:0.1; fill:none" points="
  1765.31,969.724 947.013,897.579 
  "/>
<polyline clip-path="url(#clip672)" style="stroke:#000000; stroke-linecap:butt; stroke-linejoin:round; stroke-width:2; stroke-opacity:0.1; fill:none" points="
  947.013,897.579 947.013,177.977 
  "/>
<polyline clip-path="url(#clip670)" style="stroke:#000000; stroke-linecap:butt; stroke-linejoin:round; stroke-width:4; stroke-opacity:1; fill:none" points="
  1625.11,1367.29 1769.4,958.144 
  "/>
<polyline clip-path="url(#clip670)" style="stroke:#000000; stroke-linecap:butt; stroke-linejoin:round; stroke-width:4; stroke-opacity:1; fill:none" points="
  1629.19,1355.71 1619.37,1354.85 
  "/>
<polyline clip-path="url(#clip670)" style="stroke:#000000; stroke-linecap:butt; stroke-linejoin:round; stroke-width:4; stroke-opacity:1; fill:none" points="
  1674.57,1227.05 1664.75,1226.19 
  "/>
<polyline clip-path="url(#clip670)" style="stroke:#000000; stroke-linecap:butt; stroke-linejoin:round; stroke-width:4; stroke-opacity:1; fill:none" points="
  1719.94,1098.39 1710.12,1097.52 
  "/>
<polyline clip-path="url(#clip670)" style="stroke:#000000; stroke-linecap:butt; stroke-linejoin:round; stroke-width:4; stroke-opacity:1; fill:none" points="
  1765.31,969.724 1755.49,968.858 
  "/>
<path clip-path="url(#clip670)" d="M1669.87 1343.54 Q1666.25 1343.54 1664.43 1347.1 Q1662.62 1350.65 1662.62 1357.78 Q1662.62 1364.88 1664.43 1368.45 Q1666.25 1371.99 1669.87 1371.99 Q1673.5 1371.99 1675.31 1368.45 Q1677.13 1364.88 1677.13 1357.78 Q1677.13 1350.65 1675.31 1347.1 Q1673.5 1343.54 1669.87 1343.54 M1669.87 1339.84 Q1675.68 1339.84 1678.73 1344.44 Q1681.81 1349.03 1681.81 1357.78 Q1681.81 1366.5 1678.73 1371.11 Q1675.68 1375.69 1669.87 1375.69 Q1664.06 1375.69 1660.98 1371.11 Q1657.92 1366.5 1657.92 1357.78 Q1657.92 1349.03 1660.98 1344.44 Q1664.06 1339.84 1669.87 1339.84 Z" fill="#000000" fill-rule="evenodd" fill-opacity="1" /><path clip-path="url(#clip670)" d="M1703.97 1242.42 L1711.61 1242.42 L1711.61 1216.06 L1703.3 1217.72 L1703.3 1213.46 L1711.56 1211.8 L1716.23 1211.8 L1716.23 1242.42 L1723.87 1242.42 L1723.87 1246.36 L1703.97 1246.36 L1703.97 1242.42 Z" fill="#000000" fill-rule="evenodd" fill-opacity="1" /><path clip-path="url(#clip670)" d="M1754.29 1113.76 L1770.61 1113.76 L1770.61 1117.69 L1748.67 1117.69 L1748.67 1113.76 Q1751.33 1111 1755.91 1106.37 Q1760.52 1101.72 1761.7 1100.38 Q1763.95 1097.86 1764.83 1096.12 Q1765.73 1094.36 1765.73 1092.67 Q1765.73 1089.92 1763.78 1088.18 Q1761.86 1086.44 1758.76 1086.44 Q1756.56 1086.44 1754.11 1087.21 Q1751.68 1087.97 1748.9 1089.52 L1748.9 1084.8 Q1751.72 1083.67 1754.18 1083.09 Q1756.63 1082.51 1758.67 1082.51 Q1764.04 1082.51 1767.23 1085.19 Q1770.43 1087.88 1770.43 1092.37 Q1770.43 1094.5 1769.62 1096.42 Q1768.83 1098.32 1766.72 1100.91 Q1766.15 1101.58 1763.04 1104.8 Q1759.94 1107.99 1754.29 1113.76 Z" fill="#000000" fill-rule="evenodd" fill-opacity="1" /><path clip-path="url(#clip670)" d="M1809.67 970.396 Q1813.02 971.113 1814.9 973.382 Q1816.8 975.65 1816.8 978.984 Q1816.8 984.099 1813.28 986.9 Q1809.76 989.701 1803.28 989.701 Q1801.1 989.701 1798.79 989.261 Q1796.5 988.845 1794.04 987.988 L1794.04 983.474 Q1795.99 984.609 1798.3 985.187 Q1800.62 985.766 1803.14 985.766 Q1807.54 985.766 1809.83 984.03 Q1812.14 982.294 1812.14 978.984 Q1812.14 975.928 1809.99 974.215 Q1807.86 972.479 1804.04 972.479 L1800.01 972.479 L1800.01 968.636 L1804.23 968.636 Q1807.68 968.636 1809.51 967.271 Q1811.33 965.882 1811.33 963.289 Q1811.33 960.627 1809.44 959.215 Q1807.56 957.78 1804.04 957.78 Q1802.12 957.78 1799.92 958.197 Q1797.72 958.613 1795.08 959.493 L1795.08 955.326 Q1797.75 954.586 1800.06 954.215 Q1802.4 953.845 1804.46 953.845 Q1809.78 953.845 1812.89 956.275 Q1815.99 958.683 1815.99 962.803 Q1815.99 965.673 1814.34 967.664 Q1812.7 969.632 1809.67 970.396 Z" fill="#000000" fill-rule="evenodd" fill-opacity="1" /><polyline clip-path="url(#clip672)" style="stroke:#000000; stroke-linecap:butt; stroke-linejoin:round; stroke-width:2; stroke-opacity:0.1; fill:none" points="
  806.808,1212.16 951.097,803.012 
  "/>
<polyline clip-path="url(#clip672)" style="stroke:#000000; stroke-linecap:butt; stroke-linejoin:round; stroke-width:2; stroke-opacity:0.1; fill:none" points="
  951.097,803.012 1769.4,875.156 
  "/>
<polyline clip-path="url(#clip672)" style="stroke:#000000; stroke-linecap:butt; stroke-linejoin:round; stroke-width:2; stroke-opacity:0.1; fill:none" points="
  806.808,1088.89 951.097,679.737 
  "/>
<polyline clip-path="url(#clip672)" style="stroke:#000000; stroke-linecap:butt; stroke-linejoin:round; stroke-width:2; stroke-opacity:0.1; fill:none" points="
  951.097,679.737 1769.4,751.882 
  "/>
<polyline clip-path="url(#clip672)" style="stroke:#000000; stroke-linecap:butt; stroke-linejoin:round; stroke-width:2; stroke-opacity:0.1; fill:none" points="
  806.808,965.614 951.097,556.463 
  "/>
<polyline clip-path="url(#clip672)" style="stroke:#000000; stroke-linecap:butt; stroke-linejoin:round; stroke-width:2; stroke-opacity:0.1; fill:none" points="
  951.097,556.463 1769.4,628.607 
  "/>
<polyline clip-path="url(#clip672)" style="stroke:#000000; stroke-linecap:butt; stroke-linejoin:round; stroke-width:2; stroke-opacity:0.1; fill:none" points="
  806.808,842.339 951.097,433.189 
  "/>
<polyline clip-path="url(#clip672)" style="stroke:#000000; stroke-linecap:butt; stroke-linejoin:round; stroke-width:2; stroke-opacity:0.1; fill:none" points="
  951.097,433.189 1769.4,505.333 
  "/>
<polyline clip-path="url(#clip672)" style="stroke:#000000; stroke-linecap:butt; stroke-linejoin:round; stroke-width:2; stroke-opacity:0.1; fill:none" points="
  806.808,719.065 951.097,309.914 
  "/>
<polyline clip-path="url(#clip672)" style="stroke:#000000; stroke-linecap:butt; stroke-linejoin:round; stroke-width:2; stroke-opacity:0.1; fill:none" points="
  951.097,309.914 1769.4,382.058 
  "/>
<polyline clip-path="url(#clip672)" style="stroke:#000000; stroke-linecap:butt; stroke-linejoin:round; stroke-width:2; stroke-opacity:0.1; fill:none" points="
  806.808,595.79 951.097,186.64 
  "/>
<polyline clip-path="url(#clip672)" style="stroke:#000000; stroke-linecap:butt; stroke-linejoin:round; stroke-width:2; stroke-opacity:0.1; fill:none" points="
  951.097,186.64 1769.4,258.784 
  "/>
<polyline clip-path="url(#clip670)" style="stroke:#000000; stroke-linecap:butt; stroke-linejoin:round; stroke-width:4; stroke-opacity:1; fill:none" points="
  806.808,1295.15 806.808,575.548 
  "/>
<polyline clip-path="url(#clip670)" style="stroke:#000000; stroke-linecap:butt; stroke-linejoin:round; stroke-width:4; stroke-opacity:1; fill:none" points="
  806.808,1212.16 808.539,1207.25 
  "/>
<polyline clip-path="url(#clip670)" style="stroke:#000000; stroke-linecap:butt; stroke-linejoin:round; stroke-width:4; stroke-opacity:1; fill:none" points="
  806.808,1088.89 808.539,1083.98 
  "/>
<polyline clip-path="url(#clip670)" style="stroke:#000000; stroke-linecap:butt; stroke-linejoin:round; stroke-width:4; stroke-opacity:1; fill:none" points="
  806.808,965.614 808.539,960.704 
  "/>
<polyline clip-path="url(#clip670)" style="stroke:#000000; stroke-linecap:butt; stroke-linejoin:round; stroke-width:4; stroke-opacity:1; fill:none" points="
  806.808,842.339 808.539,837.429 
  "/>
<polyline clip-path="url(#clip670)" style="stroke:#000000; stroke-linecap:butt; stroke-linejoin:round; stroke-width:4; stroke-opacity:1; fill:none" points="
  806.808,719.065 808.539,714.155 
  "/>
<polyline clip-path="url(#clip670)" style="stroke:#000000; stroke-linecap:butt; stroke-linejoin:round; stroke-width:4; stroke-opacity:1; fill:none" points="
  806.808,595.79 808.539,590.88 
  "/>
<path clip-path="url(#clip670)" d="M641.55 1212.61 L671.226 1212.61 L671.226 1216.55 L641.55 1216.55 L641.55 1212.61 Z" fill="#000000" fill-rule="evenodd" fill-opacity="1" /><path clip-path="url(#clip670)" d="M691.319 1197.96 Q687.708 1197.96 685.879 1201.53 Q684.073 1205.07 684.073 1212.2 Q684.073 1219.3 685.879 1222.87 Q687.708 1226.41 691.319 1226.41 Q694.953 1226.41 696.758 1222.87 Q698.587 1219.3 698.587 1212.2 Q698.587 1205.07 696.758 1201.53 Q694.953 1197.96 691.319 1197.96 M691.319 1194.26 Q697.129 1194.26 700.184 1198.86 Q703.263 1203.45 703.263 1212.2 Q703.263 1220.92 700.184 1225.53 Q697.129 1230.11 691.319 1230.11 Q685.508 1230.11 682.43 1225.53 Q679.374 1220.92 679.374 1212.2 Q679.374 1203.45 682.43 1198.86 Q685.508 1194.26 691.319 1194.26 Z" fill="#000000" fill-rule="evenodd" fill-opacity="1" /><path clip-path="url(#clip670)" d="M711.481 1223.56 L716.365 1223.56 L716.365 1229.44 L711.481 1229.44 L711.481 1223.56 Z" fill="#000000" fill-rule="evenodd" fill-opacity="1" /><path clip-path="url(#clip670)" d="M736.55 1197.96 Q732.939 1197.96 731.11 1201.53 Q729.305 1205.07 729.305 1212.2 Q729.305 1219.3 731.11 1222.87 Q732.939 1226.41 736.55 1226.41 Q740.184 1226.41 741.99 1222.87 Q743.818 1219.3 743.818 1212.2 Q743.818 1205.07 741.99 1201.53 Q740.184 1197.96 736.55 1197.96 M736.55 1194.26 Q742.36 1194.26 745.416 1198.86 Q748.494 1203.45 748.494 1212.2 Q748.494 1220.92 745.416 1225.53 Q742.36 1230.11 736.55 1230.11 Q730.74 1230.11 727.661 1225.53 Q724.606 1220.92 724.606 1212.2 Q724.606 1203.45 727.661 1198.86 Q730.74 1194.26 736.55 1194.26 Z" fill="#000000" fill-rule="evenodd" fill-opacity="1" /><path clip-path="url(#clip670)" d="M770.878 1210.81 Q774.235 1211.53 776.11 1213.79 Q778.008 1216.06 778.008 1219.4 Q778.008 1224.51 774.489 1227.31 Q770.971 1230.11 764.49 1230.11 Q762.314 1230.11 759.999 1229.67 Q757.707 1229.26 755.253 1228.4 L755.253 1223.89 Q757.198 1225.02 759.513 1225.6 Q761.828 1226.18 764.351 1226.18 Q768.749 1226.18 771.04 1224.44 Q773.355 1222.71 773.355 1219.4 Q773.355 1216.34 771.202 1214.63 Q769.073 1212.89 765.253 1212.89 L761.226 1212.89 L761.226 1209.05 L765.439 1209.05 Q768.888 1209.05 770.716 1207.68 Q772.545 1206.29 772.545 1203.7 Q772.545 1201.04 770.647 1199.63 Q768.772 1198.19 765.253 1198.19 Q763.332 1198.19 761.133 1198.61 Q758.934 1199.03 756.295 1199.91 L756.295 1195.74 Q758.957 1195 761.272 1194.63 Q763.61 1194.26 765.67 1194.26 Q770.994 1194.26 774.096 1196.69 Q777.198 1199.1 777.198 1203.22 Q777.198 1206.09 775.554 1208.08 Q773.911 1210.04 770.878 1210.81 Z" fill="#000000" fill-rule="evenodd" fill-opacity="1" /><path clip-path="url(#clip670)" d="M642.499 1089.34 L672.175 1089.34 L672.175 1093.27 L642.499 1093.27 L642.499 1089.34 Z" fill="#000000" fill-rule="evenodd" fill-opacity="1" /><path clip-path="url(#clip670)" d="M692.268 1074.69 Q688.657 1074.69 686.828 1078.25 Q685.022 1081.79 685.022 1088.92 Q685.022 1096.03 686.828 1099.59 Q688.657 1103.14 692.268 1103.14 Q695.902 1103.14 697.708 1099.59 Q699.536 1096.03 699.536 1088.92 Q699.536 1081.79 697.708 1078.25 Q695.902 1074.69 692.268 1074.69 M692.268 1070.98 Q698.078 1070.98 701.133 1075.59 Q704.212 1080.17 704.212 1088.92 Q704.212 1097.65 701.133 1102.26 Q698.078 1106.84 692.268 1106.84 Q686.458 1106.84 683.379 1102.26 Q680.323 1097.65 680.323 1088.92 Q680.323 1080.17 683.379 1075.59 Q686.458 1070.98 692.268 1070.98 Z" fill="#000000" fill-rule="evenodd" fill-opacity="1" /><path clip-path="url(#clip670)" d="M712.43 1100.29 L717.314 1100.29 L717.314 1106.17 L712.43 1106.17 L712.43 1100.29 Z" fill="#000000" fill-rule="evenodd" fill-opacity="1" /><path clip-path="url(#clip670)" d="M737.499 1074.69 Q733.888 1074.69 732.059 1078.25 Q730.254 1081.79 730.254 1088.92 Q730.254 1096.03 732.059 1099.59 Q733.888 1103.14 737.499 1103.14 Q741.133 1103.14 742.939 1099.59 Q744.767 1096.03 744.767 1088.92 Q744.767 1081.79 742.939 1078.25 Q741.133 1074.69 737.499 1074.69 M737.499 1070.98 Q743.309 1070.98 746.365 1075.59 Q749.443 1080.17 749.443 1088.92 Q749.443 1097.65 746.365 1102.26 Q743.309 1106.84 737.499 1106.84 Q731.689 1106.84 728.61 1102.26 Q725.555 1097.65 725.555 1088.92 Q725.555 1080.17 728.61 1075.59 Q731.689 1070.98 737.499 1070.98 Z" fill="#000000" fill-rule="evenodd" fill-opacity="1" /><path clip-path="url(#clip670)" d="M761.689 1102.23 L778.008 1102.23 L778.008 1106.17 L756.064 1106.17 L756.064 1102.23 Q758.726 1099.48 763.309 1094.85 Q767.915 1090.2 769.096 1088.85 Q771.341 1086.33 772.221 1084.59 Q773.124 1082.83 773.124 1081.14 Q773.124 1078.39 771.179 1076.65 Q769.258 1074.92 766.156 1074.92 Q763.957 1074.92 761.503 1075.68 Q759.073 1076.45 756.295 1078 L756.295 1073.27 Q759.119 1072.14 761.573 1071.56 Q764.027 1070.98 766.064 1070.98 Q771.434 1070.98 774.628 1073.67 Q777.823 1076.35 777.823 1080.84 Q777.823 1082.97 777.013 1084.89 Q776.226 1086.79 774.119 1089.39 Q773.54 1090.06 770.439 1093.27 Q767.337 1096.47 761.689 1102.23 Z" fill="#000000" fill-rule="evenodd" fill-opacity="1" /><path clip-path="url(#clip670)" d="M642.129 966.065 L671.805 966.065 L671.805 970 L642.129 970 L642.129 966.065 Z" fill="#000000" fill-rule="evenodd" fill-opacity="1" /><path clip-path="url(#clip670)" d="M691.897 951.412 Q688.286 951.412 686.458 954.977 Q684.652 958.519 684.652 965.648 Q684.652 972.755 686.458 976.319 Q688.286 979.861 691.897 979.861 Q695.532 979.861 697.337 976.319 Q699.166 972.755 699.166 965.648 Q699.166 958.519 697.337 954.977 Q695.532 951.412 691.897 951.412 M691.897 947.709 Q697.708 947.709 700.763 952.315 Q703.842 956.898 703.842 965.648 Q703.842 974.375 700.763 978.982 Q697.708 983.565 691.897 983.565 Q686.087 983.565 683.009 978.982 Q679.953 974.375 679.953 965.648 Q679.953 956.898 683.009 952.315 Q686.087 947.709 691.897 947.709 Z" fill="#000000" fill-rule="evenodd" fill-opacity="1" /><path clip-path="url(#clip670)" d="M712.059 977.014 L716.944 977.014 L716.944 982.894 L712.059 982.894 L712.059 977.014 Z" fill="#000000" fill-rule="evenodd" fill-opacity="1" /><path clip-path="url(#clip670)" d="M737.129 951.412 Q733.517 951.412 731.689 954.977 Q729.883 958.519 729.883 965.648 Q729.883 972.755 731.689 976.319 Q733.517 979.861 737.129 979.861 Q740.763 979.861 742.568 976.319 Q744.397 972.755 744.397 965.648 Q744.397 958.519 742.568 954.977 Q740.763 951.412 737.129 951.412 M737.129 947.709 Q742.939 947.709 745.994 952.315 Q749.073 956.898 749.073 965.648 Q749.073 974.375 745.994 978.982 Q742.939 983.565 737.129 983.565 Q731.318 983.565 728.24 978.982 Q725.184 974.375 725.184 965.648 Q725.184 956.898 728.24 952.315 Q731.318 947.709 737.129 947.709 Z" fill="#000000" fill-rule="evenodd" fill-opacity="1" /><path clip-path="url(#clip670)" d="M758.101 978.958 L765.74 978.958 L765.74 952.593 L757.429 954.259 L757.429 950 L765.693 948.334 L770.369 948.334 L770.369 978.958 L778.008 978.958 L778.008 982.894 L758.101 982.894 L758.101 978.958 Z" fill="#000000" fill-rule="evenodd" fill-opacity="1" /><path clip-path="url(#clip670)" d="M690.671 828.138 Q687.059 828.138 685.231 831.703 Q683.425 835.244 683.425 842.374 Q683.425 849.48 685.231 853.045 Q687.059 856.587 690.671 856.587 Q694.305 856.587 696.11 853.045 Q697.939 849.48 697.939 842.374 Q697.939 835.244 696.11 831.703 Q694.305 828.138 690.671 828.138 M690.671 824.434 Q696.481 824.434 699.536 829.041 Q702.615 833.624 702.615 842.374 Q702.615 851.101 699.536 855.707 Q696.481 860.29 690.671 860.29 Q684.86 860.29 681.782 855.707 Q678.726 851.101 678.726 842.374 Q678.726 833.624 681.782 829.041 Q684.86 824.434 690.671 824.434 Z" fill="#000000" fill-rule="evenodd" fill-opacity="1" /><path clip-path="url(#clip670)" d="M710.832 853.739 L715.717 853.739 L715.717 859.619 L710.832 859.619 L710.832 853.739 Z" fill="#000000" fill-rule="evenodd" fill-opacity="1" /><path clip-path="url(#clip670)" d="M735.902 828.138 Q732.291 828.138 730.462 831.703 Q728.656 835.244 728.656 842.374 Q728.656 849.48 730.462 853.045 Q732.291 856.587 735.902 856.587 Q739.536 856.587 741.342 853.045 Q743.17 849.48 743.17 842.374 Q743.17 835.244 741.342 831.703 Q739.536 828.138 735.902 828.138 M735.902 824.434 Q741.712 824.434 744.767 829.041 Q747.846 833.624 747.846 842.374 Q747.846 851.101 744.767 855.707 Q741.712 860.29 735.902 860.29 Q730.092 860.29 727.013 855.707 Q723.957 851.101 723.957 842.374 Q723.957 833.624 727.013 829.041 Q730.092 824.434 735.902 824.434 Z" fill="#000000" fill-rule="evenodd" fill-opacity="1" /><path clip-path="url(#clip670)" d="M766.064 828.138 Q762.453 828.138 760.624 831.703 Q758.818 835.244 758.818 842.374 Q758.818 849.48 760.624 853.045 Q762.453 856.587 766.064 856.587 Q769.698 856.587 771.503 853.045 Q773.332 849.48 773.332 842.374 Q773.332 835.244 771.503 831.703 Q769.698 828.138 766.064 828.138 M766.064 824.434 Q771.874 824.434 774.929 829.041 Q778.008 833.624 778.008 842.374 Q778.008 851.101 774.929 855.707 Q771.874 860.29 766.064 860.29 Q760.253 860.29 757.175 855.707 Q754.119 851.101 754.119 842.374 Q754.119 833.624 757.175 829.041 Q760.253 824.434 766.064 824.434 Z" fill="#000000" fill-rule="evenodd" fill-opacity="1" /><path clip-path="url(#clip670)" d="M691.897 704.863 Q688.286 704.863 686.458 708.428 Q684.652 711.97 684.652 719.099 Q684.652 726.206 686.458 729.771 Q688.286 733.312 691.897 733.312 Q695.532 733.312 697.337 729.771 Q699.166 726.206 699.166 719.099 Q699.166 711.97 697.337 708.428 Q695.532 704.863 691.897 704.863 M691.897 701.16 Q697.708 701.16 700.763 705.766 Q703.842 710.349 703.842 719.099 Q703.842 727.826 700.763 732.433 Q697.708 737.016 691.897 737.016 Q686.087 737.016 683.009 732.433 Q679.953 727.826 679.953 719.099 Q679.953 710.349 683.009 705.766 Q686.087 701.16 691.897 701.16 Z" fill="#000000" fill-rule="evenodd" fill-opacity="1" /><path clip-path="url(#clip670)" d="M712.059 730.465 L716.944 730.465 L716.944 736.345 L712.059 736.345 L712.059 730.465 Z" fill="#000000" fill-rule="evenodd" fill-opacity="1" /><path clip-path="url(#clip670)" d="M737.129 704.863 Q733.517 704.863 731.689 708.428 Q729.883 711.97 729.883 719.099 Q729.883 726.206 731.689 729.771 Q733.517 733.312 737.129 733.312 Q740.763 733.312 742.568 729.771 Q744.397 726.206 744.397 719.099 Q744.397 711.97 742.568 708.428 Q740.763 704.863 737.129 704.863 M737.129 701.16 Q742.939 701.16 745.994 705.766 Q749.073 710.349 749.073 719.099 Q749.073 727.826 745.994 732.433 Q742.939 737.016 737.129 737.016 Q731.318 737.016 728.24 732.433 Q725.184 727.826 725.184 719.099 Q725.184 710.349 728.24 705.766 Q731.318 701.16 737.129 701.16 Z" fill="#000000" fill-rule="evenodd" fill-opacity="1" /><path clip-path="url(#clip670)" d="M758.101 732.41 L765.74 732.41 L765.74 706.044 L757.429 707.711 L757.429 703.451 L765.693 701.785 L770.369 701.785 L770.369 732.41 L778.008 732.41 L778.008 736.345 L758.101 736.345 L758.101 732.41 Z" fill="#000000" fill-rule="evenodd" fill-opacity="1" /><path clip-path="url(#clip670)" d="M692.268 581.589 Q688.657 581.589 686.828 585.154 Q685.022 588.695 685.022 595.825 Q685.022 602.931 686.828 606.496 Q688.657 610.038 692.268 610.038 Q695.902 610.038 697.708 606.496 Q699.536 602.931 699.536 595.825 Q699.536 588.695 697.708 585.154 Q695.902 581.589 692.268 581.589 M692.268 577.885 Q698.078 577.885 701.133 582.492 Q704.212 587.075 704.212 595.825 Q704.212 604.552 701.133 609.158 Q698.078 613.742 692.268 613.742 Q686.458 613.742 683.379 609.158 Q680.323 604.552 680.323 595.825 Q680.323 587.075 683.379 582.492 Q686.458 577.885 692.268 577.885 Z" fill="#000000" fill-rule="evenodd" fill-opacity="1" /><path clip-path="url(#clip670)" d="M712.43 607.191 L717.314 607.191 L717.314 613.07 L712.43 613.07 L712.43 607.191 Z" fill="#000000" fill-rule="evenodd" fill-opacity="1" /><path clip-path="url(#clip670)" d="M737.499 581.589 Q733.888 581.589 732.059 585.154 Q730.254 588.695 730.254 595.825 Q730.254 602.931 732.059 606.496 Q733.888 610.038 737.499 610.038 Q741.133 610.038 742.939 606.496 Q744.767 602.931 744.767 595.825 Q744.767 588.695 742.939 585.154 Q741.133 581.589 737.499 581.589 M737.499 577.885 Q743.309 577.885 746.365 582.492 Q749.443 587.075 749.443 595.825 Q749.443 604.552 746.365 609.158 Q743.309 613.742 737.499 613.742 Q731.689 613.742 728.61 609.158 Q725.555 604.552 725.555 595.825 Q725.555 587.075 728.61 582.492 Q731.689 577.885 737.499 577.885 Z" fill="#000000" fill-rule="evenodd" fill-opacity="1" /><path clip-path="url(#clip670)" d="M761.689 609.135 L778.008 609.135 L778.008 613.07 L756.064 613.07 L756.064 609.135 Q758.726 606.38 763.309 601.751 Q767.915 597.098 769.096 595.756 Q771.341 593.232 772.221 591.496 Q773.124 589.737 773.124 588.047 Q773.124 585.293 771.179 583.557 Q769.258 581.82 766.156 581.82 Q763.957 581.82 761.503 582.584 Q759.073 583.348 756.295 584.899 L756.295 580.177 Q759.119 579.043 761.573 578.464 Q764.027 577.885 766.064 577.885 Q771.434 577.885 774.628 580.57 Q777.823 583.256 777.823 587.746 Q777.823 589.876 777.013 591.797 Q776.226 593.695 774.119 596.288 Q773.54 596.959 770.439 600.177 Q767.337 603.371 761.689 609.135 Z" fill="#000000" fill-rule="evenodd" fill-opacity="1" /><polyline clip-path="url(#clip672)" style="stroke:#0000ff; stroke-linecap:butt; stroke-linejoin:round; stroke-width:4; stroke-opacity:1; fill:none" points="
  834.051,1265.25 856.942,1244.99 879.833,1215.27 902.729,1178.25 925.641,1135.94 948.612,1090.09 971.8,1041.92 995.724,991.37 1021.51,936.234 1049.49,875.929 
  1077.63,817.393 1103.72,768.453 1127.8,729.002 1151.04,695.699 1174.02,666.927 1196.94,642.161 1219.84,621.189 1242.72,603.882 1265.57,590.129 1288.33,579.981 
  1310.72,574.032 1331.87,574.494 1349.8,585.63 1364.54,606.342 1380.94,626.25 1401.13,640.484 1423.21,652.901 1445.88,666.85 1468.71,683.623 1491.59,703.698 
  1514.47,727.313 1537.36,754.618 1560.25,785.711 1583.14,820.618 1606.03,859.278 
  "/>
<polyline clip-path="url(#clip672)" style="stroke:#0000ff; stroke-linecap:butt; stroke-linejoin:round; stroke-width:4; stroke-opacity:1; fill:none" points="
  834.206,1264.81 857.097,1244.55 879.988,1214.83 902.884,1177.81 925.795,1135.5 948.765,1089.65 971.953,1041.49 995.876,990.938 1021.65,935.813 1049.63,875.525 
  1077.77,817.007 1103.85,768.079 1127.93,728.633 1151.17,695.331 1174.15,666.56 1197.07,641.794 1219.96,620.822 1242.85,603.516 1265.7,589.762 1288.46,579.614 
  1310.85,573.664 1332,574.12 1349.94,585.242 1364.68,605.932 1381.09,625.823 1401.28,640.049 1423.37,652.463 1446.04,666.411 1468.87,683.184 1491.74,703.26 
  1514.63,726.874 1537.52,754.18 1560.41,785.272 1583.3,820.179 1606.19,858.839 
  "/>
<polyline clip-path="url(#clip672)" style="stroke:#0000ff; stroke-linecap:butt; stroke-linejoin:round; stroke-width:4; stroke-opacity:1; fill:none" points="
  834.397,1264.27 857.287,1244.01 880.178,1214.29 903.073,1177.27 925.984,1134.96 948.954,1089.12 972.141,1040.95 996.062,990.408 1021.84,935.294 1049.8,875.029 
  1077.93,816.534 1104.01,767.62 1128.09,728.179 1151.33,694.879 1174.31,666.109 1197.23,641.343 1220.12,620.372 1243,603.066 1265.86,589.312 1288.62,579.164 
  1311.01,573.211 1332.16,573.661 1350.11,584.765 1364.86,605.429 1381.28,625.298 1401.47,639.514 1423.56,651.925 1446.23,665.873 1469.06,682.646 1491.94,702.721 
  1514.82,726.335 1537.71,753.641 1560.6,784.732 1583.49,819.639 1606.38,858.299 
  "/>
<polyline clip-path="url(#clip672)" style="stroke:#0000ff; stroke-linecap:butt; stroke-linejoin:round; stroke-width:4; stroke-opacity:1; fill:none" points="
  834.63,1263.6 857.52,1243.35 880.411,1213.63 903.306,1176.61 926.217,1134.3 949.186,1088.46 972.372,1040.29 996.291,989.756 1022.06,934.658 1050.02,874.419 
  1078.14,815.953 1104.21,767.056 1128.29,727.622 1151.53,694.325 1174.51,665.555 1197.42,640.79 1220.32,619.819 1243.2,602.513 1266.05,588.76 1288.81,578.61 
  1311.21,572.656 1332.36,573.097 1350.31,584.18 1365.08,604.81 1381.51,624.653 1401.71,638.857 1423.79,651.265 1446.46,665.212 1469.3,681.984 1492.17,702.06 
  1515.06,725.674 1537.94,752.979 1560.83,784.07 1583.72,818.977 1606.61,857.636 
  "/>
<polyline clip-path="url(#clip672)" style="stroke:#0000ff; stroke-linecap:butt; stroke-linejoin:round; stroke-width:4; stroke-opacity:1; fill:none" points="
  834.917,1262.79 857.807,1242.53 880.697,1212.82 903.592,1175.8 926.502,1133.49 949.471,1087.65 972.656,1039.49 996.573,988.957 1022.34,933.877 1050.28,873.671 
  1078.39,815.24 1104.45,766.364 1128.53,726.938 1151.77,693.643 1174.75,664.875 1197.66,640.111 1220.56,619.141 1243.44,601.835 1266.29,588.081 1289.05,577.931 
  1311.45,571.974 1332.6,572.405 1350.56,583.461 1365.35,604.052 1381.8,623.861 1402,638.051 1424.08,650.455 1446.75,664.4 1469.59,681.172 1492.46,701.248 
  1515.34,724.862 1538.23,752.166 1561.12,783.258 1584.01,818.163 1606.9,856.822 
  "/>
<polyline clip-path="url(#clip672)" style="stroke:#0000ff; stroke-linecap:butt; stroke-linejoin:round; stroke-width:4; stroke-opacity:1; fill:none" points="
  835.27,1261.79 858.159,1241.54 881.049,1211.82 903.943,1174.8 926.852,1132.5 949.821,1086.66 973.005,1038.5 996.918,987.976 1022.67,932.919 1050.6,872.754 
  1078.7,814.365 1104.76,765.515 1128.83,726.098 1152.06,692.808 1175.04,664.041 1197.96,639.278 1220.85,618.308 1243.73,601.002 1266.59,587.249 1289.34,577.098 
  1311.74,571.137 1332.9,571.556 1350.87,582.58 1365.68,603.12 1382.14,622.89 1402.35,637.062 1424.44,649.46 1447.11,663.404 1469.94,680.176 1492.81,700.251 
  1515.7,723.865 1538.59,751.17 1561.47,782.26 1584.36,817.165 1607.25,855.823 
  "/>
<polyline clip-path="url(#clip672)" style="stroke:#0000ff; stroke-linecap:butt; stroke-linejoin:round; stroke-width:4; stroke-opacity:1; fill:none" points="
  835.701,1260.57 858.59,1240.31 881.479,1210.6 904.373,1173.58 927.282,1131.28 950.249,1085.44 973.432,1037.28 997.341,986.773 1023.09,931.743 1051,871.628 
  1079.08,813.292 1105.12,764.473 1129.19,725.069 1152.42,691.783 1175.41,663.018 1198.32,638.256 1221.21,617.287 1244.09,599.982 1266.95,586.228 1289.7,576.077 
  1312.1,570.111 1333.26,570.515 1351.25,581.499 1366.09,601.979 1382.57,621.699 1402.78,635.849 1424.87,648.241 1447.55,662.183 1470.38,678.955 1493.25,699.03 
  1516.13,722.643 1539.02,749.947 1561.91,781.038 1584.8,815.942 1607.68,854.599 
  "/>
<polyline clip-path="url(#clip672)" style="stroke:#0000ff; stroke-linecap:butt; stroke-linejoin:round; stroke-width:4; stroke-opacity:1; fill:none" points="
  836.231,1259.07 859.118,1238.81 882.007,1209.1 904.9,1172.08 927.808,1129.78 950.775,1083.95 973.955,1035.8 997.859,985.298 1023.59,930.303 1051.49,870.249 
  1079.54,811.977 1105.58,763.197 1129.64,723.808 1152.87,690.527 1175.85,661.765 1198.76,637.004 1221.65,616.036 1244.53,598.731 1267.39,584.978 1290.14,574.825 
  1312.54,568.854 1333.71,569.239 1351.72,580.175 1366.58,600.579 1383.09,620.24 1403.31,634.363 1425.41,646.746 1448.08,660.687 1470.91,677.458 1493.78,697.532 
  1516.67,721.146 1539.55,748.449 1562.44,779.539 1585.33,814.442 1608.21,853.098 
  "/>
<polyline clip-path="url(#clip672)" style="stroke:#0000ff; stroke-linecap:butt; stroke-linejoin:round; stroke-width:4; stroke-opacity:1; fill:none" points="
  836.879,1257.23 859.765,1236.98 882.653,1207.26 905.545,1170.25 928.453,1127.95 951.418,1082.12 974.596,1033.98 998.494,983.493 1024.21,928.539 1052.08,868.56 
  1080.11,810.366 1106.13,761.634 1130.18,722.264 1153.41,688.989 1176.39,660.23 1199.3,635.471 1222.2,614.504 1245.07,597.2 1267.93,583.446 1290.68,573.292 
  1313.08,567.314 1334.26,567.677 1352.29,578.553 1367.19,598.866 1383.73,618.452 1403.97,632.543 1426.06,644.916 1448.73,658.854 1471.56,675.624 1494.43,695.699 
  1517.32,719.312 1540.2,746.615 1563.09,777.704 1585.97,812.606 1608.86,851.26 
  "/>
<polyline clip-path="url(#clip672)" style="stroke:#0000ff; stroke-linecap:butt; stroke-linejoin:round; stroke-width:4; stroke-opacity:1; fill:none" points="
  837.671,1254.98 860.557,1234.73 883.444,1205.02 906.335,1168.01 929.241,1125.71 952.204,1079.88 975.38,1031.75 999.271,981.284 1024.97,926.382 1052.81,866.494 
  1080.81,808.396 1106.81,759.722 1130.85,720.374 1154.08,687.108 1177.06,658.352 1199.97,633.595 1222.86,612.629 1245.73,595.326 1268.58,581.572 1291.34,571.416 
  1313.75,565.43 1334.93,565.765 1352.99,576.568 1367.94,596.77 1384.51,616.266 1404.76,630.316 1426.86,642.677 1449.53,656.612 1472.36,673.382 1495.23,693.456 
  1518.11,717.069 1541,744.371 1563.88,775.459 1586.77,810.36 1609.65,849.012 
  "/>
<polyline clip-path="url(#clip672)" style="stroke:#0000ff; stroke-linecap:butt; stroke-linejoin:round; stroke-width:4; stroke-opacity:1; fill:none" points="
  838.64,1252.23 861.525,1231.98 884.41,1202.28 907.299,1165.27 930.204,1122.98 953.166,1077.15 976.338,1029.03 1000.22,978.586 1025.9,923.746 1053.7,863.97 
  1081.66,805.989 1107.63,757.385 1131.67,718.066 1154.89,684.81 1177.87,656.058 1200.78,631.303 1223.67,610.339 1246.54,593.037 1269.39,579.283 1292.15,569.124 
  1314.55,563.129 1335.75,563.43 1353.84,574.144 1368.85,594.209 1385.46,613.595 1405.73,627.596 1427.84,639.942 1450.51,653.873 1473.34,670.642 1496.21,690.716 
  1519.09,714.328 1541.97,741.629 1564.85,772.716 1587.74,807.615 1610.62,846.266 
  "/>
<polyline clip-path="url(#clip672)" style="stroke:#0000ff; stroke-linecap:butt; stroke-linejoin:round; stroke-width:4; stroke-opacity:1; fill:none" points="
  839.822,1248.88 862.705,1228.63 885.589,1198.93 908.476,1161.93 931.379,1119.64 954.339,1073.82 977.506,1025.71 1001.38,975.294 1027.03,920.53 1054.79,860.89 
  1082.7,803.053 1108.64,754.535 1132.67,715.249 1155.88,682.005 1178.86,653.259 1201.76,628.507 1224.65,607.545 1247.53,590.244 1270.37,576.49 1293.13,566.329 
  1315.54,560.321 1336.75,560.581 1354.88,571.186 1369.96,591.085 1386.63,610.336 1406.92,624.277 1429.03,636.605 1451.7,650.531 1474.53,667.299 1497.4,687.372 
  1520.28,710.984 1543.16,738.284 1566.04,769.369 1588.92,804.266 1611.8,842.914 
  "/>
<polyline clip-path="url(#clip672)" style="stroke:#0000ff; stroke-linecap:butt; stroke-linejoin:round; stroke-width:4; stroke-opacity:1; fill:none" points="
  841.261,1244.8 864.142,1224.55 887.024,1194.85 909.91,1157.86 932.81,1115.57 955.767,1069.76 978.929,1021.66 1002.79,971.284 1028.41,916.613 1056.11,857.14 
  1083.96,799.476 1109.87,751.064 1133.88,711.819 1157.09,678.59 1180.06,649.85 1202.97,625.102 1225.85,604.142 1248.73,586.842 1271.57,573.089 1294.33,562.924 
  1316.74,556.902 1337.96,557.111 1356.15,567.584 1371.31,587.28 1388.05,606.367 1408.37,620.234 1430.48,632.54 1453.15,646.461 1475.98,663.228 1498.85,683.301 
  1521.72,706.911 1544.6,734.211 1567.48,765.294 1590.36,800.188 1613.24,838.833 
  "/>
<polyline clip-path="url(#clip672)" style="stroke:#0000ff; stroke-linecap:butt; stroke-linejoin:round; stroke-width:4; stroke-opacity:1; fill:none" points="
  843.01,1239.84 865.889,1219.6 888.768,1189.9 911.651,1152.91 934.549,1110.63 957.502,1064.83 980.659,1016.75 1004.5,966.412 1030.08,911.853 1057.72,852.582 
  1085.5,795.131 1111.36,746.846 1135.36,707.651 1158.56,674.44 1181.53,645.708 1204.43,620.964 1227.31,600.008 1250.18,582.709 1273.03,568.956 1295.78,558.786 
  1318.2,552.746 1339.44,552.894 1357.69,563.207 1372.95,582.656 1389.77,601.544 1410.12,615.323 1432.25,627.602 1454.92,641.516 1477.74,658.281 1500.61,678.353 
  1523.48,701.963 1546.36,729.261 1569.24,760.341 1592.11,795.233 1614.99,833.874 
  "/>
<polyline clip-path="url(#clip672)" style="stroke:#0000ff; stroke-linecap:butt; stroke-linejoin:round; stroke-width:4; stroke-opacity:1; fill:none" points="
  845.13,1233.83 868.005,1213.59 890.882,1183.9 913.762,1146.91 936.657,1104.65 959.606,1058.85 982.755,1010.79 1006.58,960.508 1032.11,906.085 1059.66,847.059 
  1087.36,789.864 1113.17,741.734 1137.15,702.6 1160.34,669.41 1183.3,640.688 1206.2,615.95 1229.08,594.996 1251.95,577.7 1274.79,563.946 1297.55,553.772 
  1319.97,547.71 1341.24,547.784 1359.56,557.902 1374.94,577.052 1391.86,595.698 1412.25,609.37 1434.38,621.616 1457.06,635.522 1479.88,652.285 1502.74,672.356 
  1525.61,695.965 1548.49,723.261 1571.36,754.339 1594.24,789.227 1617.11,827.863 
  "/>
<polyline clip-path="url(#clip672)" style="stroke:#0000ff; stroke-linecap:butt; stroke-linejoin:round; stroke-width:4; stroke-opacity:1; fill:none" points="
  847.69,1226.57 870.562,1206.33 893.435,1176.65 916.312,1139.67 939.203,1097.41 962.147,1051.64 985.287,1003.59 1009.09,953.375 1034.56,899.116 1062.01,840.386 
  1089.61,783.501 1115.36,735.558 1139.31,696.498 1162.49,663.334 1185.45,634.623 1208.34,609.891 1231.22,588.942 1254.08,571.649 1276.92,557.895 1299.68,547.714 
  1322.1,541.627 1343.4,541.61 1361.81,551.493 1377.35,570.282 1394.38,588.637 1414.82,602.178 1436.97,614.385 1459.64,628.281 1482.46,645.042 1505.32,665.112 
  1528.19,688.72 1551.06,716.014 1573.93,747.088 1596.8,781.972 1619.67,820.603 
  "/>
<polyline clip-path="url(#clip672)" style="stroke:#0000ff; stroke-linecap:butt; stroke-linejoin:round; stroke-width:4; stroke-opacity:1; fill:none" points="
  850.772,1217.83 873.639,1197.6 896.508,1167.92 919.381,1130.96 942.267,1088.71 965.205,1042.95 988.334,994.935 1012.11,944.791 1037.51,890.731 1064.84,832.356 
  1092.32,775.844 1117.99,728.127 1141.91,689.154 1165.08,656.022 1188.03,627.325 1210.92,602.601 1233.79,581.657 1256.65,564.366 1279.49,550.613 1302.24,540.425 
  1324.67,534.306 1346.01,534.181 1364.53,543.781 1380.24,562.136 1397.42,580.139 1417.92,593.525 1440.07,605.684 1462.75,619.568 1485.57,636.326 1508.42,656.395 
  1531.28,680.001 1554.15,707.292 1577.02,738.363 1599.89,773.241 1622.75,811.865 
  "/>
<polyline clip-path="url(#clip672)" style="stroke:#0000ff; stroke-linecap:butt; stroke-linejoin:round; stroke-width:4; stroke-opacity:1; fill:none" points="
  854.462,1207.37 877.325,1187.14 900.189,1157.47 923.056,1120.52 945.937,1078.29 968.868,1032.54 991.983,984.564 1015.72,934.51 1041.05,880.687 1068.23,822.739 
  1095.56,766.674 1121.14,719.226 1145.02,680.359 1168.18,647.265 1191.12,618.584 1214.01,593.87 1236.87,572.932 1259.73,555.645 1282.56,541.891 1305.31,531.694 
  1327.75,525.537 1349.13,525.284 1367.78,534.544 1383.71,552.378 1401.06,569.962 1421.62,583.16 1443.8,595.262 1466.47,609.132 1489.29,625.886 1512.14,645.954 
  1535,669.558 1557.86,696.846 1580.72,727.912 1603.58,762.784 1626.44,801.4 
  "/>
<polyline clip-path="url(#clip672)" style="stroke:#0000ff; stroke-linecap:butt; stroke-linejoin:round; stroke-width:4; stroke-opacity:1; fill:none" points="
  858.858,1194.9 881.715,1174.68 904.572,1145.03 927.434,1108.09 950.308,1065.87 973.23,1020.15 996.33,972.211 1020.03,922.265 1045.25,868.725 1072.27,811.284 
  1099.42,755.751 1124.89,708.625 1148.73,669.883 1171.87,636.834 1194.8,608.173 1217.68,583.47 1240.54,562.54 1263.39,545.256 1286.22,531.503 1308.97,521.295 
  1331.42,515.094 1352.85,514.686 1371.65,523.543 1387.84,540.757 1405.39,557.84 1426.03,570.815 1448.23,582.849 1470.91,596.702 1493.72,613.452 1516.56,633.519 
  1539.41,657.12 1562.27,684.405 1585.13,715.465 1607.98,750.329 1630.84,788.936 
  "/>
<polyline clip-path="url(#clip672)" style="stroke:#0000ff; stroke-linecap:butt; stroke-linejoin:round; stroke-width:4; stroke-opacity:1; fill:none" points="
  864.058,1180.16 886.908,1159.94 909.759,1130.3 932.613,1093.38 955.479,1051.18 978.391,1005.49 1001.47,957.597 1025.13,907.777 1050.23,854.572 1077.05,797.732 
  1103.99,742.828 1129.33,696.082 1153.11,657.49 1176.24,624.494 1199.16,595.856 1222.03,571.166 1244.88,550.244 1267.73,532.966 1290.55,519.212 1313.29,508.992 
  1335.76,502.738 1357.24,502.148 1376.23,510.526 1392.72,527.008 1410.52,543.498 1431.26,556.209 1453.48,568.164 1476.16,581.996 1498.96,598.742 1521.8,618.806 
  1544.64,642.405 1567.49,669.685 1590.34,700.739 1613.19,735.594 1636.04,774.189 
  "/>
<polyline clip-path="url(#clip672)" style="stroke:#0000ff; stroke-linecap:butt; stroke-linejoin:round; stroke-width:4; stroke-opacity:1; fill:none" points="
  870.163,1162.85 893.004,1142.64 915.847,1113.02 938.692,1076.11 961.549,1033.94 984.449,988.274 1007.51,940.442 1031.11,890.772 1056.08,837.959 1082.66,781.824 
  1109.36,727.66 1134.55,681.36 1158.26,642.942 1181.36,610.008 1204.27,581.397 1227.13,556.723 1249.98,535.812 1272.81,518.539 1295.63,504.786 1318.37,494.551 
  1340.85,488.234 1362.41,487.43 1381.61,495.248 1398.46,510.869 1416.53,526.664 1437.39,539.065 1459.63,550.925 1482.31,564.734 1505.11,581.474 1527.94,601.536 
  1550.78,625.132 1573.62,652.406 1596.46,683.452 1619.3,718.297 1642.14,756.879 
  "/>
<polyline clip-path="url(#clip672)" style="stroke:#0000ff; stroke-linecap:butt; stroke-linejoin:round; stroke-width:4; stroke-opacity:1; fill:none" points="
  877.262,1142.71 900.094,1122.52 922.927,1092.91 945.762,1056.03 968.608,1013.88 991.495,968.257 1014.53,920.491 1038.07,870.994 1062.87,818.638 1089.18,763.323 
  1115.59,710.018 1140.61,664.237 1164.25,626.022 1187.32,593.161 1210.22,564.582 1233.07,539.926 1255.9,519.027 1278.73,501.761 1301.54,488.007 1324.28,477.755 
  1346.77,471.366 1368.41,470.313 1387.86,477.479 1405.13,492.099 1423.53,507.085 1444.51,519.126 1466.8,530.877 1489.48,544.658 1512.27,561.392 1535.09,581.451 
  1557.92,605.044 1580.75,632.312 1603.58,663.348 1626.41,698.181 1649.24,736.747 
  "/>
<polyline clip-path="url(#clip672)" style="stroke:#0000ff; stroke-linecap:butt; stroke-linejoin:round; stroke-width:4; stroke-opacity:1; fill:none" points="
  885.431,1119.55 908.252,1099.37 931.073,1069.78 953.897,1032.93 976.731,990.813 999.601,945.226 1022.61,897.537 1046.07,848.239 1070.69,796.408 1096.68,742.037 
  1122.77,689.721 1147.58,644.537 1171.15,606.555 1194.18,573.778 1217.06,545.235 1239.9,520.6 1262.72,499.715 1285.54,482.456 1308.34,468.703 1331.07,458.431 
  1353.59,451.959 1375.32,450.619 1395.05,457.035 1412.8,470.503 1431.58,484.559 1452.72,496.185 1475.03,507.81 1497.72,521.559 1520.5,538.286 1543.31,558.342 
  1566.13,581.93 1588.95,609.191 1611.77,640.218 1634.59,675.036 1657.41,713.584 
  "/>
<polyline clip-path="url(#clip672)" style="stroke:#0000ff; stroke-linecap:butt; stroke-linejoin:round; stroke-width:4; stroke-opacity:1; fill:none" points="
  894.714,1093.23 917.522,1073.06 940.33,1043.5 963.141,1006.67 985.961,964.593 1008.81,919.053 1031.79,871.45 1055.17,822.379 1079.58,771.146 1105.21,717.846 
  1130.93,666.654 1155.51,622.149 1178.98,584.433 1201.98,551.751 1224.84,523.249 1247.66,498.638 1270.47,477.768 1293.27,460.518 1316.06,446.765 1338.8,436.47 
  1361.33,429.904 1383.17,428.239 1403.23,433.801 1421.52,445.961 1440.73,458.96 1462.04,470.115 1484.4,481.597 1507.08,495.31 1529.86,512.028 1552.66,532.081 
  1575.47,555.664 1598.27,582.917 1621.08,613.931 1643.89,648.733 1666.7,687.261 
  "/>
<polyline clip-path="url(#clip672)" style="stroke:#0000ff; stroke-linecap:butt; stroke-linejoin:round; stroke-width:4; stroke-opacity:1; fill:none" points="
  905.116,1063.73 927.91,1043.58 950.704,1014.04 973.5,977.25 996.304,935.212 1019.14,889.724 1042.07,842.219 1065.36,793.402 1089.54,742.837 1114.76,690.739 
  1140.07,640.806 1164.39,597.061 1187.75,559.643 1210.71,527.067 1233.55,498.612 1256.36,474.027 1279.15,453.175 1301.94,435.935 1324.72,422.181 1347.45,411.862 
  1370.01,405.189 1391.97,403.16 1412.39,407.767 1431.29,418.459 1450.98,430.274 1472.48,440.901 1494.89,452.223 1517.58,465.895 1540.35,482.604 1563.13,502.653 
  1585.92,526.231 1608.72,553.475 1631.51,584.476 1654.3,619.259 1677.1,657.765 
  "/>
<polyline clip-path="url(#clip672)" style="stroke:#0000ff; stroke-linecap:butt; stroke-linejoin:round; stroke-width:4; stroke-opacity:1; fill:none" points="
  916.59,1031.19 939.369,1011.06 962.147,981.552 984.928,944.796 1007.71,902.801 1030.52,857.371 1053.42,809.973 1076.6,761.437 1100.52,711.61 1125.3,660.837 
  1150.15,612.294 1174.18,569.388 1197.43,532.297 1220.35,499.839 1243.16,471.435 1265.95,446.879 1288.73,426.047 1311.51,408.817 1334.27,395.063 1357,384.717 
  1379.58,377.927 1401.67,375.495 1422.5,379.048 1442.07,388.123 1462.29,398.63 1484,408.676 1506.46,419.821 1529.16,433.448 1551.91,450.146 1574.68,470.191 
  1597.46,493.763 1620.24,520.997 1643.02,551.983 1665.79,586.747 1688.57,625.227 
  "/>
<polyline clip-path="url(#clip672)" style="stroke:#0000ff; stroke-linecap:butt; stroke-linejoin:round; stroke-width:4; stroke-opacity:1; fill:none" points="
  929.03,995.919 951.792,975.806 974.553,946.327 997.316,909.611 1020.08,867.663 1042.87,822.296 1065.72,775.014 1088.79,726.782 1112.43,677.755 1136.73,628.419 
  1161.08,581.382 1184.81,539.385 1207.93,502.651 1230.79,470.32 1253.58,441.971 1276.35,417.447 1299.12,396.635 1321.87,379.418 1344.63,365.664 1367.35,355.287 
  1389.96,348.371 1412.19,345.503 1433.45,347.912 1453.75,355.234 1474.55,364.325 1496.5,373.738 1519.01,384.692 1541.71,398.271 1564.45,414.958 1587.21,434.998 
  1609.97,458.563 1632.73,485.786 1655.49,516.756 1678.25,551.498 1701.01,589.951 
  "/>
<polyline clip-path="url(#clip672)" style="stroke:#0000ff; stroke-linecap:butt; stroke-linejoin:round; stroke-width:4; stroke-opacity:1; fill:none" points="
  942.266,958.386 965.01,938.293 987.753,908.848 1010.5,872.174 1033.25,830.277 1056.01,784.977 1078.81,737.819 1101.76,689.91 1125.1,641.734 1148.89,593.927 
  1172.71,548.492 1196.11,507.463 1219.09,471.107 1241.91,438.912 1264.67,410.622 1287.42,386.131 1310.16,365.342 1332.91,348.137 1355.64,334.383 1378.36,323.974 
  1401,316.923 1423.38,313.591 1445.11,314.785 1466.18,320.24 1487.6,327.824 1509.79,336.566 1532.36,347.315 1555.06,360.843 1577.79,377.517 1600.53,397.552 
  1623.28,421.111 1646.02,448.322 1668.76,479.275 1691.51,513.994 1714.25,552.419 
  "/>
<polyline clip-path="url(#clip672)" style="stroke:#0000ff; stroke-linecap:butt; stroke-linejoin:round; stroke-width:4; stroke-opacity:1; fill:none" points="
  956.071,919.241 978.796,899.168 1001.52,869.758 1024.25,833.129 1046.97,791.285 1069.71,746.054 1092.46,699.025 1115.29,651.453 1138.32,604.166 1161.57,557.953 
  1184.84,514.19 1207.89,474.169 1230.74,438.208 1253.5,406.154 1276.24,377.926 1298.96,353.47 1321.69,332.704 1344.41,315.512 1367.13,301.758 1389.84,291.316 
  1412.52,284.124 1435.06,280.308 1457.27,280.234 1479.15,283.743 1501.2,289.755 1523.65,297.797 1546.29,308.333 1568.99,321.807 1591.71,338.469 1614.43,358.499 
  1637.16,382.05 1659.88,409.249 1682.6,440.184 1705.33,474.879 1728.05,513.273 
  "/>
<polyline clip-path="url(#clip672)" style="stroke:#0000ff; stroke-linecap:butt; stroke-linejoin:round; stroke-width:4; stroke-opacity:1; fill:none" points="
  970.172,879.255 992.878,859.204 1015.58,829.829 1038.29,793.245 1060.99,751.455 1083.7,706.295 1106.4,659.398 1129.11,612.171 1151.82,565.791 1174.52,521.206 
  1197.23,479.15 1219.93,440.161 1242.64,404.603 1265.34,372.693 1288.05,344.528 1310.75,320.108 1333.46,299.366 1356.16,282.187 1378.87,268.433 1401.57,257.956 
  1424.28,250.621 1446.98,246.311 1469.69,244.941 1492.4,246.462 1515.1,250.869 1537.81,258.195 1560.51,268.514 1583.22,281.932 1605.92,298.581 1628.63,318.606 
  1651.33,342.149 1674.04,369.337 1696.74,400.253 1719.45,434.924 1742.15,473.287 
  "/>
</svg>
