<?xml version="1.0" encoding="utf-8"?>
<svg xmlns="http://www.w3.org/2000/svg" xmlns:xlink="http://www.w3.org/1999/xlink" width="600" height="400" viewBox="0 0 2400 1600">
<defs>
  <clipPath id="clip460">
    <rect x="0" y="0" width="2400" height="1600"/>
  </clipPath>
</defs>
<path clip-path="url(#clip460)" d="
M0 1600 L2400 1600 L2400 0 L0 0  Z
  " fill="#ffffff" fill-rule="evenodd" fill-opacity="1"/>
<defs>
  <clipPath id="clip461">
    <rect x="480" y="0" width="1681" height="1600"/>
  </clipPath>
</defs>
<defs>
  <clipPath id="clip462">
    <rect x="223" y="47" width="2130" height="1440"/>
  </clipPath>
</defs>
<path clip-path="url(#clip462)" d="
M1562.36 1777.98 L1562.36 1325.4 L1580.51 1068.08 L1683.44 1113.45 L1683.44 1566.03 L1665.29 1823.36 L1562.36 1777.98  Z
  " fill="#ffffff" fill-rule="evenodd" fill-opacity="1"/>
<polyline clip-path="url(#clip462)" style="stroke:#000000; stroke-linecap:butt; stroke-linejoin:round; stroke-width:2; stroke-opacity:0.1; fill:none" points="
  881.433,1301.73 1025.72,892.579 
  "/>
<polyline clip-path="url(#clip462)" style="stroke:#000000; stroke-linecap:butt; stroke-linejoin:round; stroke-width:2; stroke-opacity:0.1; fill:none" points="
  1025.72,892.579 1025.72,172.977 
  "/>
<polyline clip-path="url(#clip462)" style="stroke:#000000; stroke-linecap:butt; stroke-linejoin:round; stroke-width:2; stroke-opacity:0.1; fill:none" points="
  1035.83,1315.34 1180.12,906.191 
  "/>
<polyline clip-path="url(#clip462)" style="stroke:#000000; stroke-linecap:butt; stroke-linejoin:round; stroke-width:2; stroke-opacity:0.1; fill:none" points="
  1180.12,906.191 1180.12,186.589 
  "/>
<polyline clip-path="url(#clip462)" style="stroke:#000000; stroke-linecap:butt; stroke-linejoin:round; stroke-width:2; stroke-opacity:0.1; fill:none" points="
  1190.23,1328.95 1334.51,919.803 
  "/>
<polyline clip-path="url(#clip462)" style="stroke:#000000; stroke-linecap:butt; stroke-linejoin:round; stroke-width:2; stroke-opacity:0.1; fill:none" points="
  1334.51,919.803 1334.51,200.201 
  "/>
<polyline clip-path="url(#clip462)" style="stroke:#000000; stroke-linecap:butt; stroke-linejoin:round; stroke-width:2; stroke-opacity:0.1; fill:none" points="
  1344.62,1342.57 1488.91,933.415 
  "/>
<polyline clip-path="url(#clip462)" style="stroke:#000000; stroke-linecap:butt; stroke-linejoin:round; stroke-width:2; stroke-opacity:0.1; fill:none" points="
  1488.91,933.415 1488.91,213.813 
  "/>
<polyline clip-path="url(#clip462)" style="stroke:#000000; stroke-linecap:butt; stroke-linejoin:round; stroke-width:2; stroke-opacity:0.1; fill:none" points="
  1499.02,1356.18 1643.31,947.027 
  "/>
<polyline clip-path="url(#clip462)" style="stroke:#000000; stroke-linecap:butt; stroke-linejoin:round; stroke-width:2; stroke-opacity:0.1; fill:none" points="
  1643.31,947.027 1643.31,227.425 
  "/>
<polyline clip-path="url(#clip460)" style="stroke:#000000; stroke-linecap:butt; stroke-linejoin:round; stroke-width:4; stroke-opacity:1; fill:none" points="
  806.808,1295.15 1625.11,1367.29 
  "/>
<polyline clip-path="url(#clip460)" style="stroke:#000000; stroke-linecap:butt; stroke-linejoin:round; stroke-width:4; stroke-opacity:1; fill:none" points="
  881.433,1301.73 883.164,1296.82 
  "/>
<polyline clip-path="url(#clip460)" style="stroke:#000000; stroke-linecap:butt; stroke-linejoin:round; stroke-width:4; stroke-opacity:1; fill:none" points="
  1035.83,1315.34 1037.56,1310.43 
  "/>
<polyline clip-path="url(#clip460)" style="stroke:#000000; stroke-linecap:butt; stroke-linejoin:round; stroke-width:4; stroke-opacity:1; fill:none" points="
  1190.23,1328.95 1191.96,1324.04 
  "/>
<polyline clip-path="url(#clip460)" style="stroke:#000000; stroke-linecap:butt; stroke-linejoin:round; stroke-width:4; stroke-opacity:1; fill:none" points="
  1344.62,1342.57 1346.35,1337.66 
  "/>
<polyline clip-path="url(#clip460)" style="stroke:#000000; stroke-linecap:butt; stroke-linejoin:round; stroke-width:4; stroke-opacity:1; fill:none" points="
  1499.02,1356.18 1500.75,1351.27 
  "/>
<path clip-path="url(#clip460)" d="M808.289 1328.53 L837.964 1328.53 L837.964 1332.47 L808.289 1332.47 L808.289 1328.53 Z" fill="#000000" fill-rule="evenodd" fill-opacity="1" /><path clip-path="url(#clip460)" d="M848.196 1344.64 L848.196 1340.39 Q849.955 1341.22 851.761 1341.66 Q853.566 1342.1 855.302 1342.1 Q859.932 1342.1 862.362 1339 Q864.816 1335.87 865.163 1329.53 Q863.821 1331.52 861.761 1332.58 Q859.7 1333.65 857.2 1333.65 Q852.015 1333.65 848.983 1330.52 Q845.974 1327.38 845.974 1321.94 Q845.974 1316.61 849.122 1313.39 Q852.27 1310.18 857.501 1310.18 Q863.497 1310.18 866.645 1314.78 Q869.816 1319.37 869.816 1328.12 Q869.816 1336.29 865.927 1341.17 Q862.061 1346.03 855.511 1346.03 Q853.751 1346.03 851.946 1345.69 Q850.14 1345.34 848.196 1344.64 M857.501 1329.99 Q860.649 1329.99 862.478 1327.84 Q864.33 1325.69 864.33 1321.94 Q864.33 1318.21 862.478 1316.06 Q860.649 1313.88 857.501 1313.88 Q854.353 1313.88 852.501 1316.06 Q850.673 1318.21 850.673 1321.94 Q850.673 1325.69 852.501 1327.84 Q854.353 1329.99 857.501 1329.99 Z" fill="#000000" fill-rule="evenodd" fill-opacity="1" /><path clip-path="url(#clip460)" d="M962.338 1342.15 L992.014 1342.15 L992.014 1346.08 L962.338 1346.08 L962.338 1342.15 Z" fill="#000000" fill-rule="evenodd" fill-opacity="1" /><path clip-path="url(#clip460)" d="M1012.68 1339.83 Q1009.54 1339.83 1007.68 1341.98 Q1005.86 1344.14 1005.86 1347.89 Q1005.86 1351.61 1007.68 1353.79 Q1009.54 1355.94 1012.68 1355.94 Q1015.83 1355.94 1017.66 1353.79 Q1019.51 1351.61 1019.51 1347.89 Q1019.51 1344.14 1017.66 1341.98 Q1015.83 1339.83 1012.68 1339.83 M1021.97 1325.18 L1021.97 1329.44 Q1020.21 1328.6 1018.4 1328.16 Q1016.62 1327.72 1014.86 1327.72 Q1010.23 1327.72 1007.78 1330.85 Q1005.35 1333.97 1005 1340.29 Q1006.37 1338.28 1008.43 1337.22 Q1010.49 1336.13 1012.96 1336.13 Q1018.17 1336.13 1021.18 1339.3 Q1024.21 1342.45 1024.21 1347.89 Q1024.21 1353.21 1021.06 1356.43 Q1017.92 1359.65 1012.68 1359.65 Q1006.69 1359.65 1003.52 1355.06 Q1000.35 1350.46 1000.35 1341.73 Q1000.35 1333.53 1004.24 1328.67 Q1008.12 1323.79 1014.68 1323.79 Q1016.43 1323.79 1018.22 1324.14 Q1020.02 1324.48 1021.97 1325.18 Z" fill="#000000" fill-rule="evenodd" fill-opacity="1" /><path clip-path="url(#clip460)" d="M1117.54 1355.76 L1147.22 1355.76 L1147.22 1359.69 L1117.54 1359.69 L1117.54 1355.76 Z" fill="#000000" fill-rule="evenodd" fill-opacity="1" /><path clip-path="url(#clip460)" d="M1171.48 1353.95 Q1174.84 1354.67 1176.71 1356.94 Q1178.61 1359.21 1178.61 1362.54 Q1178.61 1367.66 1175.09 1370.46 Q1171.57 1373.26 1165.09 1373.26 Q1162.91 1373.26 1160.6 1372.82 Q1158.31 1372.4 1155.85 1371.54 L1155.85 1367.03 Q1157.8 1368.17 1160.11 1368.74 Q1162.43 1369.32 1164.95 1369.32 Q1169.35 1369.32 1171.64 1367.59 Q1173.96 1365.85 1173.96 1362.54 Q1173.96 1359.48 1171.8 1357.77 Q1169.67 1356.04 1165.85 1356.04 L1161.83 1356.04 L1161.83 1352.19 L1166.04 1352.19 Q1169.49 1352.19 1171.32 1350.83 Q1173.15 1349.44 1173.15 1346.85 Q1173.15 1344.18 1171.25 1342.77 Q1169.37 1341.34 1165.85 1341.34 Q1163.93 1341.34 1161.73 1341.75 Q1159.53 1342.17 1156.9 1343.05 L1156.9 1338.88 Q1159.56 1338.14 1161.87 1337.77 Q1164.21 1337.4 1166.27 1337.4 Q1171.6 1337.4 1174.7 1339.83 Q1177.8 1342.24 1177.8 1346.36 Q1177.8 1349.23 1176.16 1351.22 Q1174.51 1353.19 1171.48 1353.95 Z" fill="#000000" fill-rule="evenodd" fill-opacity="1" /><path clip-path="url(#clip460)" d="M1321.06 1354.72 Q1317.45 1354.72 1315.62 1358.28 Q1313.82 1361.82 1313.82 1368.95 Q1313.82 1376.06 1315.62 1379.62 Q1317.45 1383.17 1321.06 1383.17 Q1324.7 1383.17 1326.5 1379.62 Q1328.33 1376.06 1328.33 1368.95 Q1328.33 1361.82 1326.5 1358.28 Q1324.7 1354.72 1321.06 1354.72 M1321.06 1351.01 Q1326.87 1351.01 1329.93 1355.62 Q1333.01 1360.2 1333.01 1368.95 Q1333.01 1377.68 1329.93 1382.29 Q1326.87 1386.87 1321.06 1386.87 Q1315.25 1386.87 1312.17 1382.29 Q1309.12 1377.68 1309.12 1368.95 Q1309.12 1360.2 1312.17 1355.62 Q1315.25 1351.01 1321.06 1351.01 Z" fill="#000000" fill-rule="evenodd" fill-opacity="1" /><path clip-path="url(#clip460)" d="M1480.27 1381.18 Q1483.63 1381.89 1485.5 1384.16 Q1487.4 1386.43 1487.4 1389.76 Q1487.4 1394.88 1483.88 1397.68 Q1480.36 1400.48 1473.88 1400.48 Q1471.71 1400.48 1469.39 1400.04 Q1467.1 1399.63 1464.65 1398.77 L1464.65 1394.26 Q1466.59 1395.39 1468.91 1395.97 Q1471.22 1396.55 1473.74 1396.55 Q1478.14 1396.55 1480.43 1394.81 Q1482.75 1393.07 1482.75 1389.76 Q1482.75 1386.71 1480.6 1385 Q1478.47 1383.26 1474.65 1383.26 L1470.62 1383.26 L1470.62 1379.42 L1474.83 1379.42 Q1478.28 1379.42 1480.11 1378.05 Q1481.94 1376.66 1481.94 1374.07 Q1481.94 1371.41 1480.04 1370 Q1478.17 1368.56 1474.65 1368.56 Q1472.73 1368.56 1470.53 1368.98 Q1468.33 1369.39 1465.69 1370.27 L1465.69 1366.11 Q1468.35 1365.37 1470.67 1365 Q1473 1364.63 1475.06 1364.63 Q1480.39 1364.63 1483.49 1367.06 Q1486.59 1369.46 1486.59 1373.58 Q1486.59 1376.45 1484.95 1378.45 Q1483.3 1380.41 1480.27 1381.18 Z" fill="#000000" fill-rule="evenodd" fill-opacity="1" /><polyline clip-path="url(#clip462)" style="stroke:#000000; stroke-linecap:butt; stroke-linejoin:round; stroke-width:2; stroke-opacity:0.1; fill:none" points="
  1629.19,1355.71 810.892,1283.57 
  "/>
<polyline clip-path="url(#clip462)" style="stroke:#000000; stroke-linecap:butt; stroke-linejoin:round; stroke-width:2; stroke-opacity:0.1; fill:none" points="
  810.892,1283.57 810.892,563.968 
  "/>
<polyline clip-path="url(#clip462)" style="stroke:#000000; stroke-linecap:butt; stroke-linejoin:round; stroke-width:2; stroke-opacity:0.1; fill:none" points="
  1674.57,1227.05 856.265,1154.91 
  "/>
<polyline clip-path="url(#clip462)" style="stroke:#000000; stroke-linecap:butt; stroke-linejoin:round; stroke-width:2; stroke-opacity:0.1; fill:none" points="
  856.265,1154.91 856.265,435.305 
  "/>
<polyline clip-path="url(#clip462)" style="stroke:#000000; stroke-linecap:butt; stroke-linejoin:round; stroke-width:2; stroke-opacity:0.1; fill:none" points="
  1719.94,1098.39 901.639,1026.24 
  "/>
<polyline clip-path="url(#clip462)" style="stroke:#000000; stroke-linecap:butt; stroke-linejoin:round; stroke-width:2; stroke-opacity:0.1; fill:none" points="
  901.639,1026.24 901.639,306.641 
  "/>
<polyline clip-path="url(#clip462)" style="stroke:#000000; stroke-linecap:butt; stroke-linejoin:round; stroke-width:2; stroke-opacity:0.1; fill:none" points="
  1765.31,969.724 947.013,897.579 
  "/>
<polyline clip-path="url(#clip462)" style="stroke:#000000; stroke-linecap:butt; stroke-linejoin:round; stroke-width:2; stroke-opacity:0.1; fill:none" points="
  947.013,897.579 947.013,177.977 
  "/>
<polyline clip-path="url(#clip460)" style="stroke:#000000; stroke-linecap:butt; stroke-linejoin:round; stroke-width:4; stroke-opacity:1; fill:none" points="
  1625.11,1367.29 1769.4,958.144 
  "/>
<polyline clip-path="url(#clip460)" style="stroke:#000000; stroke-linecap:butt; stroke-linejoin:round; stroke-width:4; stroke-opacity:1; fill:none" points="
  1629.19,1355.71 1619.37,1354.85 
  "/>
<polyline clip-path="url(#clip460)" style="stroke:#000000; stroke-linecap:butt; stroke-linejoin:round; stroke-width:4; stroke-opacity:1; fill:none" points="
  1674.57,1227.05 1664.75,1226.19 
  "/>
<polyline clip-path="url(#clip460)" style="stroke:#000000; stroke-linecap:butt; stroke-linejoin:round; stroke-width:4; stroke-opacity:1; fill:none" points="
  1719.94,1098.39 1710.12,1097.52 
  "/>
<polyline clip-path="url(#clip460)" style="stroke:#000000; stroke-linecap:butt; stroke-linejoin:round; stroke-width:4; stroke-opacity:1; fill:none" points="
  1765.31,969.724 1755.49,968.858 
  "/>
<path clip-path="url(#clip460)" d="M1669.87 1343.54 Q1666.25 1343.54 1664.43 1347.1 Q1662.62 1350.65 1662.62 1357.78 Q1662.62 1364.88 1664.43 1368.45 Q1666.25 1371.99 1669.87 1371.99 Q1673.5 1371.99 1675.31 1368.45 Q1677.13 1364.88 1677.13 1357.78 Q1677.13 1350.65 1675.31 1347.1 Q1673.5 1343.54 1669.87 1343.54 M1669.87 1339.84 Q1675.68 1339.84 1678.73 1344.44 Q1681.81 1349.03 1681.81 1357.78 Q1681.81 1366.5 1678.73 1371.11 Q1675.68 1375.69 1669.87 1375.69 Q1664.06 1375.69 1660.98 1371.11 Q1657.92 1366.5 1657.92 1357.78 Q1657.92 1349.03 1660.98 1344.44 Q1664.06 1339.84 1669.87 1339.84 Z" fill="#000000" fill-rule="evenodd" fill-opacity="1" /><path clip-path="url(#clip460)" d="M1703.97 1242.42 L1711.61 1242.42 L1711.61 1216.06 L1703.3 1217.72 L1703.3 1213.46 L1711.56 1211.8 L1716.23 1211.8 L1716.23 1242.42 L1723.87 1242.42 L1723.87 1246.36 L1703.97 1246.36 L1703.97 1242.42 Z" fill="#000000" fill-rule="evenodd" fill-opacity="1" /><path clip-path="url(#clip460)" d="M1754.29 1113.76 L1770.61 1113.76 L1770.61 1117.69 L1748.67 1117.69 L1748.67 1113.76 Q1751.33 1111 1755.91 1106.37 Q1760.52 1101.72 1761.7 1100.38 Q1763.95 1097.86 1764.83 1096.12 Q1765.73 1094.36 1765.73 1092.67 Q1765.73 1089.92 1763.78 1088.18 Q1761.86 1086.44 1758.76 1086.44 Q1756.56 1086.44 1754.11 1087.21 Q1751.68 1087.97 1748.9 1089.52 L1748.9 1084.8 Q1751.72 1083.67 1754.18 1083.09 Q1756.63 1082.51 1758.67 1082.51 Q1764.04 1082.51 1767.23 1085.19 Q1770.43 1087.88 1770.43 1092.37 Q1770.43 1094.5 1769.62 1096.42 Q1768.83 1098.32 1766.72 1100.91 Q1766.15 1101.58 1763.04 1104.8 Q1759.94 1107.99 1754.29 1113.76 Z" fill="#000000" fill-rule="evenodd" fill-opacity="1" /><path clip-path="url(#clip460)" d="M1809.67 970.396 Q1813.02 971.113 1814.9 973.382 Q1816.8 975.65 1816.8 978.984 Q1816.8 984.099 1813.28 986.9 Q1809.76 989.701 1803.28 989.701 Q1801.1 989.701 1798.79 989.261 Q1796.5 988.845 1794.04 987.988 L1794.04 983.474 Q1795.99 984.609 1798.3 985.187 Q1800.62 985.766 1803.14 985.766 Q1807.54 985.766 1809.83 984.03 Q1812.14 982.294 1812.14 978.984 Q1812.14 975.928 1809.99 974.215 Q1807.86 972.479 1804.04 972.479 L1800.01 972.479 L1800.01 968.636 L1804.23 968.636 Q1807.68 968.636 1809.51 967.271 Q1811.33 965.882 1811.33 963.289 Q1811.33 960.627 1809.44 959.215 Q1807.56 957.78 1804.04 957.78 Q1802.12 957.78 1799.92 958.197 Q1797.72 958.613 1795.08 959.493 L1795.08 955.326 Q1797.75 954.586 1800.06 954.215 Q1802.4 953.845 1804.46 953.845 Q1809.78 953.845 1812.89 956.275 Q1815.99 958.683 1815.99 962.803 Q1815.99 965.673 1814.34 967.664 Q1812.7 969.632 1809.67 970.396 Z" fill="#000000" fill-rule="evenodd" fill-opacity="1" /><polyline clip-path="url(#clip462)" style="stroke:#000000; stroke-linecap:butt; stroke-linejoin:round; stroke-width:2; stroke-opacity:0.1; fill:none" points="
  806.808,1212.16 951.097,803.012 
  "/>
<polyline clip-path="url(#clip462)" style="stroke:#000000; stroke-linecap:butt; stroke-linejoin:round; stroke-width:2; stroke-opacity:0.1; fill:none" points="
  951.097,803.012 1769.4,875.156 
  "/>
<polyline clip-path="url(#clip462)" style="stroke:#000000; stroke-linecap:butt; stroke-linejoin:round; stroke-width:2; stroke-opacity:0.1; fill:none" points="
  806.808,1088.89 951.097,679.737 
  "/>
<polyline clip-path="url(#clip462)" style="stroke:#000000; stroke-linecap:butt; stroke-linejoin:round; stroke-width:2; stroke-opacity:0.1; fill:none" points="
  951.097,679.737 1769.4,751.882 
  "/>
<polyline clip-path="url(#clip462)" style="stroke:#000000; stroke-linecap:butt; stroke-linejoin:round; stroke-width:2; stroke-opacity:0.1; fill:none" points="
  806.808,965.614 951.097,556.463 
  "/>
<polyline clip-path="url(#clip462)" style="stroke:#000000; stroke-linecap:butt; stroke-linejoin:round; stroke-width:2; stroke-opacity:0.1; fill:none" points="
  951.097,556.463 1769.4,628.607 
  "/>
<polyline clip-path="url(#clip462)" style="stroke:#000000; stroke-linecap:butt; stroke-linejoin:round; stroke-width:2; stroke-opacity:0.1; fill:none" points="
  806.808,842.339 951.097,433.189 
  "/>
<polyline clip-path="url(#clip462)" style="stroke:#000000; stroke-linecap:butt; stroke-linejoin:round; stroke-width:2; stroke-opacity:0.1; fill:none" points="
  951.097,433.189 1769.4,505.333 
  "/>
<polyline clip-path="url(#clip462)" style="stroke:#000000; stroke-linecap:butt; stroke-linejoin:round; stroke-width:2; stroke-opacity:0.1; fill:none" points="
  806.808,719.065 951.097,309.914 
  "/>
<polyline clip-path="url(#clip462)" style="stroke:#000000; stroke-linecap:butt; stroke-linejoin:round; stroke-width:2; stroke-opacity:0.1; fill:none" points="
  951.097,309.914 1769.4,382.058 
  "/>
<polyline clip-path="url(#clip462)" style="stroke:#000000; stroke-linecap:butt; stroke-linejoin:round; stroke-width:2; stroke-opacity:0.1; fill:none" points="
  806.808,595.79 951.097,186.64 
  "/>
<polyline clip-path="url(#clip462)" style="stroke:#000000; stroke-linecap:butt; stroke-linejoin:round; stroke-width:2; stroke-opacity:0.1; fill:none" points="
  951.097,186.64 1769.4,258.784 
  "/>
<polyline clip-path="url(#clip460)" style="stroke:#000000; stroke-linecap:butt; stroke-linejoin:round; stroke-width:4; stroke-opacity:1; fill:none" points="
  806.808,1295.15 806.808,575.548 
  "/>
<polyline clip-path="url(#clip460)" style="stroke:#000000; stroke-linecap:butt; stroke-linejoin:round; stroke-width:4; stroke-opacity:1; fill:none" points="
  806.808,1212.16 808.539,1207.25 
  "/>
<polyline clip-path="url(#clip460)" style="stroke:#000000; stroke-linecap:butt; stroke-linejoin:round; stroke-width:4; stroke-opacity:1; fill:none" points="
  806.808,1088.89 808.539,1083.98 
  "/>
<polyline clip-path="url(#clip460)" style="stroke:#000000; stroke-linecap:butt; stroke-linejoin:round; stroke-width:4; stroke-opacity:1; fill:none" points="
  806.808,965.614 808.539,960.704 
  "/>
<polyline clip-path="url(#clip460)" style="stroke:#000000; stroke-linecap:butt; stroke-linejoin:round; stroke-width:4; stroke-opacity:1; fill:none" points="
  806.808,842.339 808.539,837.429 
  "/>
<polyline clip-path="url(#clip460)" style="stroke:#000000; stroke-linecap:butt; stroke-linejoin:round; stroke-width:4; stroke-opacity:1; fill:none" points="
  806.808,719.065 808.539,714.155 
  "/>
<polyline clip-path="url(#clip460)" style="stroke:#000000; stroke-linecap:butt; stroke-linejoin:round; stroke-width:4; stroke-opacity:1; fill:none" points="
  806.808,595.79 808.539,590.88 
  "/>
<path clip-path="url(#clip460)" d="M641.55 1212.61 L671.226 1212.61 L671.226 1216.55 L641.55 1216.55 L641.55 1212.61 Z" fill="#000000" fill-rule="evenodd" fill-opacity="1" /><path clip-path="url(#clip460)" d="M691.319 1197.96 Q687.708 1197.96 685.879 1201.53 Q684.073 1205.07 684.073 1212.2 Q684.073 1219.3 685.879 1222.87 Q687.708 1226.41 691.319 1226.41 Q694.953 1226.41 696.758 1222.87 Q698.587 1219.3 698.587 1212.2 Q698.587 1205.07 696.758 1201.53 Q694.953 1197.96 691.319 1197.96 M691.319 1194.26 Q697.129 1194.26 700.184 1198.86 Q703.263 1203.45 703.263 1212.2 Q703.263 1220.92 700.184 1225.53 Q697.129 1230.11 691.319 1230.11 Q685.508 1230.11 682.43 1225.53 Q679.374 1220.92 679.374 1212.2 Q679.374 1203.45 682.43 1198.86 Q685.508 1194.26 691.319 1194.26 Z" fill="#000000" fill-rule="evenodd" fill-opacity="1" /><path clip-path="url(#clip460)" d="M711.481 1223.56 L716.365 1223.56 L716.365 1229.44 L711.481 1229.44 L711.481 1223.56 Z" fill="#000000" fill-rule="evenodd" fill-opacity="1" /><path clip-path="url(#clip460)" d="M736.55 1197.96 Q732.939 1197.96 731.11 1201.53 Q729.305 1205.07 729.305 1212.2 Q729.305 1219.3 731.11 1222.87 Q732.939 1226.41 736.55 1226.41 Q740.184 1226.41 741.99 1222.87 Q743.818 1219.3 743.818 1212.2 Q743.818 1205.07 741.99 1201.53 Q740.184 1197.96 736.55 1197.96 M736.55 1194.26 Q742.36 1194.26 745.416 1198.86 Q748.494 1203.45 748.494 1212.2 Q748.494 1220.92 745.416 1225.53 Q742.36 1230.11 736.55 1230.11 Q730.74 1230.11 727.661 1225.53 Q724.606 1220.92 724.606 1212.2 Q724.606 1203.45 727.661 1198.86 Q730.74 1194.26 736.55 1194.26 Z" fill="#000000" fill-rule="evenodd" fill-opacity="1" /><path clip-path="url(#clip460)" d="M770.878 1210.81 Q774.235 1211.53 776.11 1213.79 Q778.008 1216.06 778.008 1219.4 Q778.008 1224.51 774.489 1227.31 Q770.971 1230.11 764.49 1230.11 Q762.314 1230.11 759.999 1229.67 Q757.707 1229.26 755.253 1228.4 L755.253 1223.89 Q757.198 1225.02 759.513 1225.6 Q761.828 1226.18 764.351 1226.18 Q768.749 1226.18 771.04 1224.44 Q773.355 1222.71 773.355 1219.4 Q773.355 1216.34 771.202 1214.63 Q769.073 1212.89 765.253 1212.89 L761.226 1212.89 L761.226 1209.05 L765.439 1209.05 Q768.888 1209.05 770.716 1207.68 Q772.545 1206.29 772.545 1203.7 Q772.545 1201.04 770.647 1199.63 Q768.772 1198.19 765.253 1198.19 Q763.332 1198.19 761.133 1198.61 Q758.934 1199.03 756.295 1199.91 L756.295 1195.74 Q758.957 1195 761.272 1194.63 Q763.61 1194.26 765.67 1194.26 Q770.994 1194.26 774.096 1196.69 Q777.198 1199.1 777.198 1203.22 Q777.198 1206.09 775.554 1208.08 Q773.911 1210.04 770.878 1210.81 Z" fill="#000000" fill-rule="evenodd" fill-opacity="1" /><path clip-path="url(#clip460)" d="M642.499 1089.34 L672.175 1089.34 L672.175 1093.27 L642.499 1093.27 L642.499 1089.34 Z" fill="#000000" fill-rule="evenodd" fill-opacity="1" /><path clip-path="url(#clip460)" d="M692.268 1074.69 Q688.657 1074.69 686.828 1078.25 Q685.022 1081.79 685.022 1088.92 Q685.022 1096.03 686.828 1099.59 Q688.657 1103.14 692.268 1103.14 Q695.902 1103.14 697.708 1099.59 Q699.536 1096.03 699.536 1088.92 Q699.536 1081.79 697.708 1078.25 Q695.902 1074.69 692.268 1074.69 M692.268 1070.98 Q698.078 1070.98 701.133 1075.59 Q704.212 1080.17 704.212 1088.92 Q704.212 1097.65 701.133 1102.26 Q698.078 1106.84 692.268 1106.84 Q686.458 1106.84 683.379 1102.26 Q680.323 1097.65 680.323 1088.92 Q680.323 1080.17 683.379 1075.59 Q686.458 1070.98 692.268 1070.98 Z" fill="#000000" fill-rule="evenodd" fill-opacity="1" /><path clip-path="url(#clip460)" d="M712.43 1100.29 L717.314 1100.29 L717.314 1106.17 L712.43 1106.17 L712.43 1100.29 Z" fill="#000000" fill-rule="evenodd" fill-opacity="1" /><path clip-path="url(#clip460)" d="M737.499 1074.69 Q733.888 1074.69 732.059 1078.25 Q730.254 1081.79 730.254 1088.92 Q730.254 1096.03 732.059 1099.59 Q733.888 1103.14 737.499 1103.14 Q741.133 1103.14 742.939 1099.59 Q744.767 1096.03 744.767 1088.92 Q744.767 1081.79 742.939 1078.25 Q741.133 1074.69 737.499 1074.69 M737.499 1070.98 Q743.309 1070.98 746.365 1075.59 Q749.443 1080.17 749.443 1088.92 Q749.443 1097.65 746.365 1102.26 Q743.309 1106.84 737.499 1106.84 Q731.689 1106.84 728.61 1102.26 Q725.555 1097.65 725.555 1088.92 Q725.555 1080.17 728.61 1075.59 Q731.689 1070.98 737.499 1070.98 Z" fill="#000000" fill-rule="evenodd" fill-opacity="1" /><path clip-path="url(#clip460)" d="M761.689 1102.23 L778.008 1102.23 L778.008 1106.17 L756.064 1106.17 L756.064 1102.23 Q758.726 1099.48 763.309 1094.85 Q767.915 1090.2 769.096 1088.85 Q771.341 1086.33 772.221 1084.59 Q773.124 1082.83 773.124 1081.14 Q773.124 1078.39 771.179 1076.65 Q769.258 1074.92 766.156 1074.92 Q763.957 1074.92 761.503 1075.68 Q759.073 1076.45 756.295 1078 L756.295 1073.27 Q759.119 1072.14 761.573 1071.56 Q764.027 1070.98 766.064 1070.98 Q771.434 1070.98 774.628 1073.67 Q777.823 1076.35 777.823 1080.84 Q777.823 1082.97 777.013 1084.89 Q776.226 1086.79 774.119 1089.39 Q773.54 1090.06 770.439 1093.27 Q767.337 1096.47 761.689 1102.23 Z" fill="#000000" fill-rule="evenodd" fill-opacity="1" /><path clip-path="url(#clip460)" d="M642.129 966.065 L671.805 966.065 L671.805 970 L642.129 970 L642.129 966.065 Z" fill="#000000" fill-rule="evenodd" fill-opacity="1" /><path clip-path="url(#clip460)" d="M691.897 951.412 Q688.286 951.412 686.458 954.977 Q684.652 958.519 684.652 965.648 Q684.652 972.755 686.458 976.319 Q688.286 979.861 691.897 979.861 Q695.532 979.861 697.337 976.319 Q699.166 972.755 699.166 965.648 Q699.166 958.519 697.337 954.977 Q695.532 951.412 691.897 951.412 M691.897 947.709 Q697.708 947.709 700.763 952.315 Q703.842 956.898 703.842 965.648 Q703.842 974.375 700.763 978.982 Q697.708 983.565 691.897 983.565 Q686.087 983.565 683.009 978.982 Q679.953 974.375 679.953 965.648 Q679.953 956.898 683.009 952.315 Q686.087 947.709 691.897 947.709 Z" fill="#000000" fill-rule="evenodd" fill-opacity="1" /><path clip-path="url(#clip460)" d="M712.059 977.014 L716.944 977.014 L716.944 982.894 L712.059 982.894 L712.059 977.014 Z" fill="#000000" fill-rule="evenodd" fill-opacity="1" /><path clip-path="url(#clip460)" d="M737.129 951.412 Q733.517 951.412 731.689 954.977 Q729.883 958.519 729.883 965.648 Q729.883 972.755 731.689 976.319 Q733.517 979.861 737.129 979.861 Q740.763 979.861 742.568 976.319 Q744.397 972.755 744.397 965.648 Q744.397 958.519 742.568 954.977 Q740.763 951.412 737.129 951.412 M737.129 947.709 Q742.939 947.709 745.994 952.315 Q749.073 956.898 749.073 965.648 Q749.073 974.375 745.994 978.982 Q742.939 983.565 737.129 983.565 Q731.318 983.565 728.24 978.982 Q725.184 974.375 725.184 965.648 Q725.184 956.898 728.24 952.315 Q731.318 947.709 737.129 947.709 Z" fill="#000000" fill-rule="evenodd" fill-opacity="1" /><path clip-path="url(#clip460)" d="M758.101 978.958 L765.74 978.958 L765.74 952.593 L757.429 954.259 L757.429 950 L765.693 948.334 L770.369 948.334 L770.369 978.958 L778.008 978.958 L778.008 982.894 L758.101 982.894 L758.101 978.958 Z" fill="#000000" fill-rule="evenodd" fill-opacity="1" /><path clip-path="url(#clip460)" d="M690.671 828.138 Q687.059 828.138 685.231 831.703 Q683.425 835.244 683.425 842.374 Q683.425 849.48 685.231 853.045 Q687.059 856.587 690.671 856.587 Q694.305 856.587 696.11 853.045 Q697.939 849.48 697.939 842.374 Q697.939 835.244 696.11 831.703 Q694.305 828.138 690.671 828.138 M690.671 824.434 Q696.481 824.434 699.536 829.041 Q702.615 833.624 702.615 842.374 Q702.615 851.101 699.536 855.707 Q696.481 860.29 690.671 860.29 Q684.86 860.29 681.782 855.707 Q678.726 851.101 678.726 842.374 Q678.726 833.624 681.782 829.041 Q684.86 824.434 690.671 824.434 Z" fill="#000000" fill-rule="evenodd" fill-opacity="1" /><path clip-path="url(#clip460)" d="M710.832 853.739 L715.717 853.739 L715.717 859.619 L710.832 859.619 L710.832 853.739 Z" fill="#000000" fill-rule="evenodd" fill-opacity="1" /><path clip-path="url(#clip460)" d="M735.902 828.138 Q732.291 828.138 730.462 831.703 Q728.656 835.244 728.656 842.374 Q728.656 849.48 730.462 853.045 Q732.291 856.587 735.902 856.587 Q739.536 856.587 741.342 853.045 Q743.17 849.48 743.17 842.374 Q743.17 835.244 741.342 831.703 Q739.536 828.138 735.902 828.138 M735.902 824.434 Q741.712 824.434 744.767 829.041 Q747.846 833.624 747.846 842.374 Q747.846 851.101 744.767 855.707 Q741.712 860.29 735.902 860.29 Q730.092 860.29 727.013 855.707 Q723.957 851.101 723.957 842.374 Q723.957 833.624 727.013 829.041 Q730.092 824.434 735.902 824.434 Z" fill="#000000" fill-rule="evenodd" fill-opacity="1" /><path clip-path="url(#clip460)" d="M766.064 828.138 Q762.453 828.138 760.624 831.703 Q758.818 835.244 758.818 842.374 Q758.818 849.48 760.624 853.045 Q762.453 856.587 766.064 856.587 Q769.698 856.587 771.503 853.045 Q773.332 849.48 773.332 842.374 Q773.332 835.244 771.503 831.703 Q769.698 828.138 766.064 828.138 M766.064 824.434 Q771.874 824.434 774.929 829.041 Q778.008 833.624 778.008 842.374 Q778.008 851.101 774.929 855.707 Q771.874 860.29 766.064 860.29 Q760.253 860.29 757.175 855.707 Q754.119 851.101 754.119 842.374 Q754.119 833.624 757.175 829.041 Q760.253 824.434 766.064 824.434 Z" fill="#000000" fill-rule="evenodd" fill-opacity="1" /><path clip-path="url(#clip460)" d="M691.897 704.863 Q688.286 704.863 686.458 708.428 Q684.652 711.97 684.652 719.099 Q684.652 726.206 686.458 729.771 Q688.286 733.312 691.897 733.312 Q695.532 733.312 697.337 729.771 Q699.166 726.206 699.166 719.099 Q699.166 711.97 697.337 708.428 Q695.532 704.863 691.897 704.863 M691.897 701.16 Q697.708 701.16 700.763 705.766 Q703.842 710.349 703.842 719.099 Q703.842 727.826 700.763 732.433 Q697.708 737.016 691.897 737.016 Q686.087 737.016 683.009 732.433 Q679.953 727.826 679.953 719.099 Q679.953 710.349 683.009 705.766 Q686.087 701.16 691.897 701.16 Z" fill="#000000" fill-rule="evenodd" fill-opacity="1" /><path clip-path="url(#clip460)" d="M712.059 730.465 L716.944 730.465 L716.944 736.345 L712.059 736.345 L712.059 730.465 Z" fill="#000000" fill-rule="evenodd" fill-opacity="1" /><path clip-path="url(#clip460)" d="M737.129 704.863 Q733.517 704.863 731.689 708.428 Q729.883 711.97 729.883 719.099 Q729.883 726.206 731.689 729.771 Q733.517 733.312 737.129 733.312 Q740.763 733.312 742.568 729.771 Q744.397 726.206 744.397 719.099 Q744.397 711.97 742.568 708.428 Q740.763 704.863 737.129 704.863 M737.129 701.16 Q742.939 701.16 745.994 705.766 Q749.073 710.349 749.073 719.099 Q749.073 727.826 745.994 732.433 Q742.939 737.016 737.129 737.016 Q731.318 737.016 728.24 732.433 Q725.184 727.826 725.184 719.099 Q725.184 710.349 728.24 705.766 Q731.318 701.16 737.129 701.16 Z" fill="#000000" fill-rule="evenodd" fill-opacity="1" /><path clip-path="url(#clip460)" d="M758.101 732.41 L765.74 732.41 L765.74 706.044 L757.429 707.711 L757.429 703.451 L765.693 701.785 L770.369 701.785 L770.369 732.41 L778.008 732.41 L778.008 736.345 L758.101 736.345 L758.101 732.41 Z" fill="#000000" fill-rule="evenodd" fill-opacity="1" /><path clip-path="url(#clip460)" d="M692.268 581.589 Q688.657 581.589 686.828 585.154 Q685.022 588.695 685.022 595.825 Q685.022 602.931 686.828 606.496 Q688.657 610.038 692.268 610.038 Q695.902 610.038 697.708 606.496 Q699.536 602.931 699.536 595.825 Q699.536 588.695 697.708 585.154 Q695.902 581.589 692.268 581.589 M692.268 577.885 Q698.078 577.885 701.133 582.492 Q704.212 587.075 704.212 595.825 Q704.212 604.552 701.133 609.158 Q698.078 613.742 692.268 613.742 Q686.458 613.742 683.379 609.158 Q680.323 604.552 680.323 595.825 Q680.323 587.075 683.379 582.492 Q686.458 577.885 692.268 577.885 Z" fill="#000000" fill-rule="evenodd" fill-opacity="1" /><path clip-path="url(#clip460)" d="M712.43 607.191 L717.314 607.191 L717.314 613.07 L712.43 613.07 L712.43 607.191 Z" fill="#000000" fill-rule="evenodd" fill-opacity="1" /><path clip-path="url(#clip460)" d="M737.499 581.589 Q733.888 581.589 732.059 585.154 Q730.254 588.695 730.254 595.825 Q730.254 602.931 732.059 606.496 Q733.888 610.038 737.499 610.038 Q741.133 610.038 742.939 606.496 Q744.767 602.931 744.767 595.825 Q744.767 588.695 742.939 585.154 Q741.133 581.589 737.499 581.589 M737.499 577.885 Q743.309 577.885 746.365 582.492 Q749.443 587.075 749.443 595.825 Q749.443 604.552 746.365 609.158 Q743.309 613.742 737.499 613.742 Q731.689 613.742 728.61 609.158 Q725.555 604.552 725.555 595.825 Q725.555 587.075 728.61 582.492 Q731.689 577.885 737.499 577.885 Z" fill="#000000" fill-rule="evenodd" fill-opacity="1" /><path clip-path="url(#clip460)" d="M761.689 609.135 L778.008 609.135 L778.008 613.07 L756.064 613.07 L756.064 609.135 Q758.726 606.38 763.309 601.751 Q767.915 597.098 769.096 595.756 Q771.341 593.232 772.221 591.496 Q773.124 589.737 773.124 588.047 Q773.124 585.293 771.179 583.557 Q769.258 581.82 766.156 581.82 Q763.957 581.82 761.503 582.584 Q759.073 583.348 756.295 584.899 L756.295 580.177 Q759.119 579.043 761.573 578.464 Q764.027 577.885 766.064 577.885 Q771.434 577.885 774.628 580.57 Q777.823 583.256 777.823 587.746 Q777.823 589.876 777.013 591.797 Q776.226 593.695 774.119 596.288 Q773.54 596.959 770.439 600.177 Q767.337 603.371 761.689 609.135 Z" fill="#000000" fill-rule="evenodd" fill-opacity="1" /><polyline clip-path="url(#clip462)" style="stroke:#0000ff; stroke-linecap:butt; stroke-linejoin:round; stroke-width:4; stroke-opacity:1; fill:none" points="
  834.051,1265.25 856.942,1244.99 879.833,1215.27 902.729,1178.25 925.641,1135.94 948.612,1090.09 971.8,1041.92 995.724,991.37 1021.51,936.234 1049.49,875.929 
  1077.63,817.393 1103.72,768.453 1127.8,729.002 1151.04,695.699 1174.02,666.927 1196.94,642.161 1219.84,621.189 1242.72,603.882 1265.57,590.129 1288.33,579.981 
  1310.72,574.032 1331.87,574.494 1349.8,585.63 1364.54,606.342 1380.94,626.25 1401.13,640.484 1423.21,652.901 1445.88,666.85 1468.71,683.623 1491.59,703.698 
  1514.47,727.313 1537.36,754.618 1560.25,785.711 1583.14,820.618 1606.03,859.278 
  "/>
<polyline clip-path="url(#clip462)" style="stroke:#0000ff; stroke-linecap:butt; stroke-linejoin:round; stroke-width:4; stroke-opacity:1; fill:none" points="
  838.745,1251.94 861.629,1231.69 884.514,1201.98 907.404,1164.97 930.308,1122.68 953.27,1076.86 976.441,1028.73 1000.32,978.294 1026,923.461 1053.8,863.697 
  1081.75,805.729 1107.72,757.133 1131.76,717.816 1154.98,684.561 1177.96,655.81 1200.86,631.055 1223.75,610.091 1246.63,592.789 1269.48,579.036 1292.23,568.877 
  1314.64,562.88 1335.84,563.177 1353.94,573.882 1368.95,593.932 1385.57,613.306 1405.84,627.301 1427.94,639.646 1450.62,653.577 1473.44,670.345 1496.31,690.419 
  1519.19,714.031 1542.08,741.333 1564.96,772.419 1587.84,807.318 1610.73,845.968 
  "/>
<polyline clip-path="url(#clip462)" style="stroke:#0000ff; stroke-linecap:butt; stroke-linejoin:round; stroke-width:4; stroke-opacity:1; fill:none" points="
  843.439,1238.63 866.317,1218.38 889.196,1188.69 912.078,1151.7 934.976,1109.42 957.928,1063.62 981.083,1015.54 1004.92,965.218 1030.49,910.687 1058.11,851.465 
  1085.88,794.065 1111.73,745.812 1135.72,706.63 1158.92,673.423 1181.89,644.693 1204.79,619.95 1227.67,598.994 1250.54,581.696 1273.39,567.943 1296.14,557.772 
  1318.56,551.728 1339.81,551.861 1358.07,562.134 1373.36,581.522 1390.19,600.361 1410.55,614.119 1432.68,626.391 1455.35,640.303 1478.18,657.068 1501.04,677.14 
  1523.91,700.75 1546.79,728.047 1569.67,759.127 1592.54,794.018 1615.42,832.658 
  "/>
<polyline clip-path="url(#clip462)" style="stroke:#0000ff; stroke-linecap:butt; stroke-linejoin:round; stroke-width:4; stroke-opacity:1; fill:none" points="
  848.133,1225.32 871.004,1205.08 893.877,1175.4 916.753,1138.42 939.643,1096.16 962.586,1050.39 985.724,1002.35 1009.52,952.142 1034.99,897.913 1062.42,839.233 
  1090,782.402 1115.74,734.492 1139.68,695.443 1162.86,662.285 1185.82,633.575 1208.71,608.845 1231.59,587.897 1254.45,570.603 1277.29,556.85 1300.04,546.668 
  1322.47,540.576 1343.78,540.544 1362.2,550.386 1377.76,569.113 1394.82,587.417 1415.27,600.936 1437.41,613.136 1460.09,627.03 1482.91,643.791 1505.76,663.861 
  1528.63,687.468 1551.5,714.762 1574.37,745.836 1597.24,780.719 1620.11,819.348 
  "/>
<polyline clip-path="url(#clip462)" style="stroke:#0000ff; stroke-linecap:butt; stroke-linejoin:round; stroke-width:4; stroke-opacity:1; fill:none" points="
  852.826,1212.01 875.692,1191.78 898.558,1162.11 921.427,1125.14 944.31,1082.91 967.244,1037.15 990.366,989.16 1014.12,939.067 1039.48,885.139 1066.73,827.002 
  1094.13,770.738 1119.74,723.171 1143.64,684.257 1166.81,651.146 1189.75,622.458 1212.64,597.74 1235.51,576.799 1258.36,559.51 1281.2,545.757 1303.95,535.564 
  1326.39,529.424 1347.75,529.227 1366.34,538.638 1382.17,556.703 1399.45,574.473 1419.98,587.753 1442.15,599.881 1464.82,613.757 1487.64,630.513 1510.49,650.582 
  1533.35,674.187 1556.21,701.476 1579.08,732.544 1601.94,767.419 1624.81,806.038 
  "/>
<polyline clip-path="url(#clip462)" style="stroke:#0000ff; stroke-linecap:butt; stroke-linejoin:round; stroke-width:4; stroke-opacity:1; fill:none" points="
  857.52,1198.7 880.379,1178.47 903.239,1148.82 926.102,1111.87 948.978,1069.65 971.903,1023.92 995.007,975.97 1018.72,925.991 1043.97,872.365 1071.04,814.77 
  1098.25,759.075 1123.75,711.851 1147.6,673.071 1170.75,640.008 1193.68,611.341 1216.56,586.634 1239.43,565.702 1262.28,548.417 1285.11,534.664 1307.85,524.459 
  1330.3,518.271 1351.71,517.911 1370.47,526.89 1386.58,544.293 1404.07,561.528 1424.69,574.571 1446.88,586.626 1469.56,600.484 1492.37,617.236 1515.22,637.303 
  1538.07,660.905 1560.93,688.19 1583.79,719.252 1606.64,754.119 1629.5,792.728 
  "/>
<polyline clip-path="url(#clip462)" style="stroke:#0000ff; stroke-linecap:butt; stroke-linejoin:round; stroke-width:4; stroke-opacity:1; fill:none" points="
  862.214,1185.39 885.066,1165.17 907.92,1135.52 930.776,1098.59 953.645,1056.39 976.561,1010.69 999.649,962.779 1023.32,912.915 1048.47,859.591 1075.36,802.538 
  1102.37,747.411 1127.76,700.53 1151.56,661.885 1174.69,628.87 1197.62,600.224 1220.49,575.529 1243.34,554.605 1266.19,537.324 1289.01,523.571 1311.76,513.355 
  1334.22,507.119 1355.68,506.594 1374.61,515.142 1390.99,531.884 1408.7,548.584 1429.4,561.388 1451.62,573.372 1474.29,587.211 1497.1,603.958 1519.94,624.024 
  1542.79,647.624 1565.64,674.905 1588.49,705.961 1611.34,740.819 1634.2,779.418 
  "/>
<polyline clip-path="url(#clip462)" style="stroke:#0000ff; stroke-linecap:butt; stroke-linejoin:round; stroke-width:4; stroke-opacity:1; fill:none" points="
  866.908,1172.08 889.754,1151.87 912.601,1122.23 935.451,1085.32 958.312,1043.13 981.219,997.451 1004.29,949.589 1027.92,899.839 1052.96,846.817 1079.67,790.306 
  1106.5,735.747 1131.77,689.21 1155.52,650.698 1178.63,617.732 1201.55,589.106 1224.41,564.424 1247.26,543.507 1270.1,526.231 1292.92,512.478 1315.66,502.251 
  1338.13,495.967 1359.65,495.277 1378.74,503.394 1395.4,519.474 1413.33,535.64 1434.12,548.206 1456.35,560.117 1479.03,573.938 1501.83,590.681 1524.67,610.745 
  1547.51,634.342 1570.35,661.619 1593.2,692.669 1616.04,727.519 1638.89,766.108 
  "/>
<polyline clip-path="url(#clip462)" style="stroke:#0000ff; stroke-linecap:butt; stroke-linejoin:round; stroke-width:4; stroke-opacity:1; fill:none" points="
  871.602,1158.77 894.441,1138.57 917.282,1108.94 940.125,1072.04 962.98,1029.87 985.877,984.217 1008.93,936.398 1032.52,886.763 1057.45,834.043 1083.98,778.074 
  1110.62,724.084 1135.77,677.889 1159.48,639.512 1182.57,606.594 1205.48,577.989 1228.34,553.318 1251.18,532.41 1274.01,515.139 1296.83,501.385 1319.57,491.146 
  1342.05,484.815 1363.62,483.961 1382.87,491.646 1399.81,507.064 1417.95,522.695 1438.83,535.023 1461.09,546.862 1483.77,560.665 1506.56,577.404 1529.39,597.465 
  1552.23,621.06 1575.07,648.334 1597.91,679.378 1620.74,714.22 1643.58,752.798 
  "/>
<polyline clip-path="url(#clip462)" style="stroke:#0000ff; stroke-linecap:butt; stroke-linejoin:round; stroke-width:4; stroke-opacity:1; fill:none" points="
  876.296,1145.46 899.129,1125.26 921.963,1095.65 944.799,1058.76 967.647,1016.62 990.535,970.982 1013.57,923.208 1037.12,873.687 1061.95,821.269 1088.29,765.842 
  1114.75,712.42 1139.78,666.569 1163.44,628.326 1186.51,595.455 1209.41,566.872 1232.26,542.213 1255.1,521.313 1277.92,504.046 1300.73,490.292 1323.47,480.042 
  1345.97,473.663 1367.59,472.644 1387.01,479.899 1404.22,494.655 1422.58,509.751 1443.54,521.841 1465.82,533.607 1488.5,547.391 1511.29,564.126 1534.12,584.186 
  1556.95,607.779 1579.78,635.048 1602.61,666.086 1625.44,700.92 1648.28,739.488 
  "/>
<polyline clip-path="url(#clip462)" style="stroke:#0000ff; stroke-linecap:butt; stroke-linejoin:round; stroke-width:4; stroke-opacity:1; fill:none" points="
  880.989,1132.15 903.816,1111.96 926.644,1082.36 949.474,1045.49 972.314,1003.36 995.193,957.748 1018.22,910.018 1041.72,860.611 1066.44,808.495 1092.6,753.611 
  1118.87,700.757 1143.79,655.248 1167.4,617.14 1190.45,584.317 1213.34,555.755 1236.19,531.108 1259.02,510.215 1281.84,492.953 1304.64,479.199 1327.38,468.938 
  1349.88,462.511 1371.56,461.327 1391.14,468.151 1408.63,482.245 1427.2,496.807 1448.26,508.658 1470.55,520.352 1493.24,534.118 1516.03,550.849 1538.84,570.907 
  1561.67,594.497 1584.49,621.762 1607.32,652.794 1630.15,687.62 1652.97,726.178 
  "/>
<polyline clip-path="url(#clip462)" style="stroke:#0000ff; stroke-linecap:butt; stroke-linejoin:round; stroke-width:4; stroke-opacity:1; fill:none" points="
  885.683,1118.84 908.504,1098.66 931.325,1069.07 954.148,1032.21 976.982,990.1 999.852,944.514 1022.86,896.827 1046.32,847.536 1070.93,795.721 1096.91,741.379 
  1122.99,689.093 1147.8,643.928 1171.36,605.954 1194.4,573.179 1217.27,544.637 1240.11,520.003 1262.93,499.118 1285.75,481.86 1308.55,468.106 1331.28,457.834 
  1353.8,451.359 1375.53,450.011 1395.28,456.403 1413.04,469.835 1431.83,483.862 1452.97,495.476 1475.29,507.097 1497.97,520.845 1520.76,537.572 1543.57,557.628 
  1566.39,581.216 1589.21,608.477 1612.03,639.503 1634.85,674.32 1657.67,712.868 
  "/>
<polyline clip-path="url(#clip462)" style="stroke:#0000ff; stroke-linecap:butt; stroke-linejoin:round; stroke-width:4; stroke-opacity:1; fill:none" points="
  890.377,1105.53 913.191,1085.35 936.006,1055.78 958.823,1018.94 981.649,976.842 1004.51,931.279 1027.5,883.637 1050.92,834.46 1075.43,782.947 1101.22,729.147 
  1127.12,677.43 1151.8,632.607 1175.32,594.767 1198.34,562.041 1221.21,533.52 1244.03,508.897 1266.85,488.021 1289.66,470.767 1312.45,457.013 1335.19,446.729 
  1357.71,440.207 1379.5,438.694 1399.41,444.655 1417.44,457.426 1436.46,470.918 1457.68,482.294 1480.02,493.843 1502.71,507.572 1525.49,524.294 1548.29,544.349 
  1571.11,567.934 1593.92,595.191 1616.73,626.211 1639.55,661.02 1662.36,699.558 
  "/>
<polyline clip-path="url(#clip462)" style="stroke:#0000ff; stroke-linecap:butt; stroke-linejoin:round; stroke-width:4; stroke-opacity:1; fill:none" points="
  895.071,1092.22 917.879,1072.05 940.687,1042.49 963.497,1005.66 986.316,963.584 1009.17,918.045 1032.14,870.446 1055.52,821.384 1079.92,770.173 1105.54,716.915 
  1131.24,665.766 1155.81,621.287 1179.28,583.581 1202.28,550.903 1225.14,522.403 1247.96,497.792 1270.77,476.923 1293.57,459.674 1316.36,445.92 1339.09,435.625 
  1361.63,429.055 1383.47,427.377 1403.54,432.907 1421.85,445.016 1441.08,457.974 1462.4,469.111 1484.76,480.588 1507.45,494.299 1530.22,511.017 1553.02,531.07 
  1575.82,554.653 1598.63,581.906 1621.44,612.919 1644.25,647.721 1667.05,686.248 
  "/>
<polyline clip-path="url(#clip462)" style="stroke:#0000ff; stroke-linecap:butt; stroke-linejoin:round; stroke-width:4; stroke-opacity:1; fill:none" points="
  899.765,1078.91 922.566,1058.75 945.368,1029.2 968.172,992.385 990.984,950.326 1013.83,904.811 1036.78,857.256 1060.12,808.308 1084.41,757.399 1109.85,704.683 
  1135.37,654.103 1159.82,609.966 1183.24,572.395 1206.22,539.765 1229.07,511.286 1251.88,486.687 1274.69,465.826 1297.48,448.581 1320.27,434.827 1343,424.521 
  1365.54,417.902 1387.44,416.061 1407.68,421.159 1426.26,432.606 1445.71,445.03 1467.11,455.929 1489.49,467.333 1512.18,481.026 1534.95,497.74 1557.74,517.791 
  1580.54,541.371 1603.34,568.62 1626.15,599.628 1648.95,634.421 1671.75,672.938 
  "/>
<polyline clip-path="url(#clip462)" style="stroke:#0000ff; stroke-linecap:butt; stroke-linejoin:round; stroke-width:4; stroke-opacity:1; fill:none" points="
  904.459,1065.6 927.253,1045.44 950.049,1015.9 972.846,979.109 995.651,937.068 1018.48,891.576 1041.42,844.065 1064.72,795.232 1088.91,744.625 1114.16,692.452 
  1139.49,642.439 1163.83,598.646 1187.2,561.209 1210.16,528.627 1233,500.168 1255.81,475.581 1278.61,454.728 1301.4,437.488 1324.17,423.734 1346.9,413.416 
  1369.46,406.75 1391.41,404.744 1411.81,409.411 1430.67,420.197 1450.33,432.086 1471.82,442.746 1494.23,454.078 1516.92,467.753 1539.68,484.462 1562.47,504.512 
  1585.26,528.09 1608.06,555.334 1630.85,586.336 1653.65,621.121 1676.44,659.628 
  "/>
<polyline clip-path="url(#clip462)" style="stroke:#0000ff; stroke-linecap:butt; stroke-linejoin:round; stroke-width:4; stroke-opacity:1; fill:none" points="
  909.152,1052.29 931.941,1032.14 954.73,1002.61 977.521,965.833 1000.32,923.81 1023.14,878.342 1046.06,830.875 1069.32,782.157 1093.4,731.851 1118.47,680.22 
  1143.61,630.776 1167.83,587.326 1191.16,550.023 1214.1,517.488 1236.93,489.051 1259.73,464.476 1282.52,443.631 1305.31,426.395 1328.08,412.641 1350.81,402.312 
  1373.38,395.598 1395.38,393.427 1415.95,397.663 1435.08,407.787 1454.96,419.141 1476.54,429.564 1498.96,440.824 1521.65,454.48 1544.41,471.185 1567.2,491.233 
  1589.98,514.808 1612.77,542.049 1635.56,573.045 1658.35,607.821 1681.13,646.318 
  "/>
<polyline clip-path="url(#clip462)" style="stroke:#0000ff; stroke-linecap:butt; stroke-linejoin:round; stroke-width:4; stroke-opacity:1; fill:none" points="
  913.846,1038.98 936.628,1018.84 959.411,989.322 982.195,952.557 1004.99,910.552 1027.8,865.108 1050.71,817.684 1073.92,769.081 1097.89,719.077 1122.78,667.988 
  1147.74,619.112 1171.84,576.005 1195.12,538.836 1218.04,506.35 1240.87,477.934 1263.66,453.371 1286.44,432.534 1309.22,415.302 1331.99,401.548 1354.71,391.208 
  1377.29,384.446 1399.35,382.111 1420.08,385.915 1439.49,395.377 1459.59,406.197 1481.25,416.382 1503.7,427.569 1526.39,441.207 1549.15,457.908 1571.92,477.954 
  1594.7,501.527 1617.48,528.763 1640.26,559.753 1663.05,594.522 1685.83,633.008 
  "/>
<polyline clip-path="url(#clip462)" style="stroke:#0000ff; stroke-linecap:butt; stroke-linejoin:round; stroke-width:4; stroke-opacity:1; fill:none" points="
  918.54,1025.67 941.316,1005.54 964.092,976.031 986.869,939.281 1009.65,897.294 1032.46,851.873 1055.35,804.494 1078.52,756.005 1102.39,706.303 1127.09,655.756 
  1151.86,607.449 1175.85,564.685 1199.08,527.65 1221.99,495.212 1244.8,466.817 1267.58,442.266 1290.36,421.436 1313.13,404.209 1335.89,390.455 1358.62,380.104 
  1381.21,373.294 1403.32,370.794 1424.22,374.167 1443.9,382.968 1464.21,393.253 1485.96,403.199 1508.43,414.314 1531.12,427.934 1553.88,444.631 1576.65,464.675 
  1599.42,488.245 1622.2,515.478 1644.97,546.461 1667.75,581.222 1690.52,619.698 
  "/>
<polyline clip-path="url(#clip462)" style="stroke:#0000ff; stroke-linecap:butt; stroke-linejoin:round; stroke-width:4; stroke-opacity:1; fill:none" points="
  923.234,1012.36 946.003,992.233 968.773,962.74 991.544,926.005 1014.32,884.036 1037.12,838.639 1059.99,791.303 1083.11,742.929 1106.88,693.53 1131.41,643.524 
  1155.99,595.785 1179.86,553.364 1203.04,516.464 1225.93,484.074 1248.73,455.7 1271.51,431.16 1294.28,410.339 1317.04,393.116 1339.8,379.362 1362.52,368.999 
  1385.12,362.142 1407.29,359.477 1428.35,362.42 1448.31,370.558 1468.84,380.309 1490.68,390.017 1513.17,401.06 1535.86,414.661 1558.61,431.353 1581.37,451.396 
  1604.14,474.964 1626.91,502.192 1649.68,533.17 1672.45,567.922 1695.22,606.388 
  "/>
<polyline clip-path="url(#clip462)" style="stroke:#0000ff; stroke-linecap:butt; stroke-linejoin:round; stroke-width:4; stroke-opacity:1; fill:none" points="
  927.928,999.045 950.691,978.93 973.454,949.449 996.218,912.729 1018.99,870.778 1041.78,825.405 1064.63,778.113 1087.71,729.853 1111.37,680.756 1135.72,631.292 
  1160.11,584.122 1183.86,542.044 1207,505.278 1229.87,472.936 1252.66,444.582 1275.43,420.055 1298.2,399.242 1320.96,382.023 1343.71,368.269 1366.43,357.895 
  1389.04,350.99 1411.26,348.161 1432.48,350.672 1452.72,358.149 1473.47,367.365 1495.39,376.835 1517.9,387.805 1540.6,401.388 1563.34,418.076 1586.1,438.117 
  1608.86,461.683 1631.62,488.907 1654.38,519.878 1677.15,554.622 1699.91,593.078 
  "/>
<polyline clip-path="url(#clip462)" style="stroke:#0000ff; stroke-linecap:butt; stroke-linejoin:round; stroke-width:4; stroke-opacity:1; fill:none" points="
  932.622,985.735 955.378,965.627 978.135,936.158 1000.89,899.453 1023.66,857.52 1046.43,812.17 1069.27,764.922 1092.31,716.778 1115.87,667.982 1140.03,619.061 
  1164.23,572.458 1187.87,530.724 1210.96,494.092 1233.81,461.798 1256.59,433.465 1279.36,408.95 1302.11,388.144 1324.87,370.93 1347.61,357.176 1370.33,346.791 
  1392.95,339.838 1415.23,336.844 1436.62,338.924 1457.12,345.739 1478.09,354.421 1500.1,363.652 1522.64,374.55 1545.33,388.115 1568.07,404.799 1590.82,424.838 
  1613.58,448.401 1636.33,475.621 1659.09,506.586 1681.85,541.322 1704.6,579.768 
  "/>
<polyline clip-path="url(#clip462)" style="stroke:#0000ff; stroke-linecap:butt; stroke-linejoin:round; stroke-width:4; stroke-opacity:1; fill:none" points="
  937.316,972.425 960.066,952.324 982.816,922.867 1005.57,886.177 1028.32,844.261 1051.09,798.936 1073.91,751.732 1096.91,703.702 1120.36,655.208 1144.34,606.829 
  1168.36,560.795 1191.88,519.403 1214.92,482.906 1237.75,450.66 1260.52,422.348 1283.28,397.845 1306.03,377.047 1328.78,359.837 1351.52,346.083 1374.24,335.686 
  1396.87,328.686 1419.2,325.527 1440.75,327.176 1461.53,333.329 1482.72,341.477 1504.81,350.47 1527.37,361.296 1550.07,374.842 1572.8,391.522 1595.55,411.559 
  1618.3,435.12 1641.05,462.336 1663.8,493.295 1686.55,528.023 1709.3,566.458 
  "/>
<polyline clip-path="url(#clip462)" style="stroke:#0000ff; stroke-linecap:butt; stroke-linejoin:round; stroke-width:4; stroke-opacity:1; fill:none" points="
  942.009,959.115 964.753,939.021 987.497,909.575 1010.24,872.901 1032.99,831.003 1055.75,785.702 1078.56,738.541 1101.51,690.626 1124.85,642.434 1148.65,594.597 
  1172.48,549.131 1195.89,508.083 1218.88,471.72 1241.69,439.522 1264.46,411.231 1287.21,386.739 1309.95,365.95 1332.69,348.745 1355.43,334.99 1378.14,324.582 
  1400.79,317.534 1423.17,314.211 1444.89,315.428 1465.94,320.92 1487.34,328.533 1509.53,337.288 1532.1,348.041 1554.8,361.569 1577.53,378.244 1600.27,398.28 
  1623.02,421.838 1645.76,449.05 1668.5,480.003 1691.25,514.723 1713.99,553.148 
  "/>
<polyline clip-path="url(#clip462)" style="stroke:#0000ff; stroke-linecap:butt; stroke-linejoin:round; stroke-width:4; stroke-opacity:1; fill:none" points="
  946.703,945.805 969.441,925.718 992.178,896.284 1014.92,859.625 1037.66,817.745 1060.41,772.467 1083.2,725.351 1106.11,677.55 1129.35,629.66 1152.96,582.365 
  1176.61,537.468 1199.89,496.763 1222.84,460.533 1245.63,428.384 1268.39,400.114 1291.13,375.634 1313.87,354.852 1336.6,337.652 1359.33,323.897 1382.05,313.478 
  1404.7,306.382 1427.14,302.894 1449.02,303.68 1470.35,308.51 1491.97,315.589 1514.24,324.106 1536.84,334.787 1559.54,348.297 1582.27,364.967 1605,385.001 
  1627.74,408.557 1650.47,435.764 1673.21,466.712 1695.95,501.423 1718.69,539.838 
  "/>
<polyline clip-path="url(#clip462)" style="stroke:#0000ff; stroke-linecap:butt; stroke-linejoin:round; stroke-width:4; stroke-opacity:1; fill:none" points="
  951.397,932.495 974.128,912.415 996.859,882.993 1019.59,846.349 1042.32,804.487 1065.07,759.233 1087.84,712.16 1110.71,664.474 1133.84,616.886 1157.27,570.133 
  1180.73,525.804 1203.9,485.442 1226.8,449.347 1249.58,417.245 1272.32,388.996 1295.05,364.529 1317.79,343.755 1340.52,326.559 1363.24,312.804 1385.95,302.374 
  1408.62,295.23 1431.11,291.578 1453.15,291.932 1474.76,296.101 1496.6,302.645 1518.95,310.924 1541.57,321.532 1564.27,335.024 1587,351.69 1609.73,371.722 
  1632.46,395.275 1655.19,422.479 1677.92,453.42 1700.65,488.123 1723.38,526.528 
  "/>
<polyline clip-path="url(#clip462)" style="stroke:#0000ff; stroke-linecap:butt; stroke-linejoin:round; stroke-width:4; stroke-opacity:1; fill:none" points="
  956.091,919.185 978.815,899.112 1001.54,869.702 1024.27,833.073 1046.99,791.229 1069.72,745.999 1092.48,698.97 1115.31,651.399 1138.33,604.112 1161.59,557.901 
  1184.85,514.141 1207.91,474.122 1230.76,438.161 1253.52,406.107 1276.25,377.879 1298.98,353.424 1321.7,332.658 1344.43,315.466 1367.15,301.711 1389.86,291.269 
  1412.53,284.078 1435.08,280.261 1457.29,280.184 1479.17,283.691 1501.22,289.701 1523.67,297.741 1546.31,308.277 1569.01,321.751 1591.73,338.413 1614.45,358.443 
  1637.18,381.994 1659.9,409.193 1682.62,440.128 1705.35,474.824 1728.07,513.217 
  "/>
<polyline clip-path="url(#clip462)" style="stroke:#0000ff; stroke-linecap:butt; stroke-linejoin:round; stroke-width:4; stroke-opacity:1; fill:none" points="
  960.785,905.875 983.503,885.809 1006.22,856.411 1028.94,819.797 1051.66,777.971 1074.38,732.764 1097.12,685.779 1119.91,638.323 1142.83,591.339 1165.9,545.67 
  1188.98,502.477 1211.92,462.802 1234.72,426.975 1257.46,394.969 1280.18,366.762 1302.9,342.318 1325.62,321.56 1348.34,304.373 1371.06,290.619 1393.76,280.165 
  1416.45,272.925 1439.05,268.944 1461.42,268.436 1483.58,271.281 1505.85,276.757 1528.38,284.559 1551.04,295.023 1573.75,308.478 1596.46,325.136 1619.18,345.164 
  1641.89,368.712 1664.61,395.908 1687.33,426.837 1710.05,461.524 1732.77,499.907 
  "/>
<polyline clip-path="url(#clip462)" style="stroke:#0000ff; stroke-linecap:butt; stroke-linejoin:round; stroke-width:4; stroke-opacity:1; fill:none" points="
  965.479,892.565 988.19,872.507 1010.9,843.12 1033.61,806.521 1056.33,764.713 1079.04,719.53 1101.76,672.589 1124.51,625.247 1147.32,578.565 1170.21,533.438 
  1193.1,490.814 1215.92,451.481 1238.68,415.789 1261.4,383.831 1284.12,355.645 1306.83,331.213 1329.54,310.463 1352.25,293.28 1374.96,279.526 1397.67,269.061 
  1420.36,261.773 1443.02,257.628 1465.56,256.689 1487.99,258.872 1510.47,263.813 1533.09,271.377 1555.78,281.768 1578.48,295.205 1601.19,311.858 1623.9,331.885 
  1646.61,355.431 1669.33,382.622 1692.04,413.545 1714.75,448.224 1737.46,486.597 
  "/>
<polyline clip-path="url(#clip462)" style="stroke:#0000ff; stroke-linecap:butt; stroke-linejoin:round; stroke-width:4; stroke-opacity:1; fill:none" points="
  970.172,879.255 992.878,859.204 1015.58,829.829 1038.29,793.245 1060.99,751.455 1083.7,706.295 1106.4,659.398 1129.11,612.171 1151.82,565.791 1174.52,521.206 
  1197.23,479.15 1219.93,440.161 1242.64,404.603 1265.34,372.693 1288.05,344.528 1310.75,320.108 1333.46,299.366 1356.16,282.187 1378.87,268.433 1401.57,257.956 
  1424.28,250.621 1446.98,246.311 1469.69,244.941 1492.4,246.462 1515.1,250.869 1537.81,258.195 1560.51,268.514 1583.22,281.932 1605.92,298.581 1628.63,318.606 
  1651.33,342.149 1674.04,369.337 1696.74,400.253 1719.45,434.924 1742.15,473.287 
  "/>
</svg>
