<?xml version="1.0" encoding="utf-8"?>
<svg xmlns="http://www.w3.org/2000/svg" xmlns:xlink="http://www.w3.org/1999/xlink" width="600" height="400" viewBox="0 0 2400 1600">
<defs>
  <clipPath id="clip430">
    <rect x="0" y="0" width="2400" height="1600"/>
  </clipPath>
</defs>
<path clip-path="url(#clip430)" d="
M0 1600 L2400 1600 L2400 0 L0 0  Z
  " fill="#ffffff" fill-rule="evenodd" fill-opacity="1"/>
<defs>
  <clipPath id="clip431">
    <rect x="480" y="0" width="1681" height="1600"/>
  </clipPath>
</defs>
<defs>
  <clipPath id="clip432">
    <rect x="185" y="47" width="2168" height="1440"/>
  </clipPath>
</defs>
<path clip-path="url(#clip432)" d="
M1549.5 1777.98 L1549.5 1325.4 L1567.65 1068.08 L1670.58 1113.45 L1670.58 1566.03 L1652.43 1823.36 L1549.5 1777.98  Z
  " fill="#ffffff" fill-rule="evenodd" fill-opacity="1"/>
<polyline clip-path="url(#clip432)" style="stroke:#000000; stroke-linecap:butt; stroke-linejoin:round; stroke-width:2; stroke-opacity:0.1; fill:none" points="
  862.671,1301.73 1006.96,892.579 
  "/>
<polyline clip-path="url(#clip432)" style="stroke:#000000; stroke-linecap:butt; stroke-linejoin:round; stroke-width:2; stroke-opacity:0.1; fill:none" points="
  1006.96,892.579 1006.96,172.977 
  "/>
<polyline clip-path="url(#clip432)" style="stroke:#000000; stroke-linecap:butt; stroke-linejoin:round; stroke-width:2; stroke-opacity:0.1; fill:none" points="
  1017.07,1315.34 1161.36,906.191 
  "/>
<polyline clip-path="url(#clip432)" style="stroke:#000000; stroke-linecap:butt; stroke-linejoin:round; stroke-width:2; stroke-opacity:0.1; fill:none" points="
  1161.36,906.191 1161.36,186.589 
  "/>
<polyline clip-path="url(#clip432)" style="stroke:#000000; stroke-linecap:butt; stroke-linejoin:round; stroke-width:2; stroke-opacity:0.1; fill:none" points="
  1171.46,1328.95 1315.75,919.803 
  "/>
<polyline clip-path="url(#clip432)" style="stroke:#000000; stroke-linecap:butt; stroke-linejoin:round; stroke-width:2; stroke-opacity:0.1; fill:none" points="
  1315.75,919.803 1315.75,200.201 
  "/>
<polyline clip-path="url(#clip432)" style="stroke:#000000; stroke-linecap:butt; stroke-linejoin:round; stroke-width:2; stroke-opacity:0.1; fill:none" points="
  1325.86,1342.57 1470.15,933.415 
  "/>
<polyline clip-path="url(#clip432)" style="stroke:#000000; stroke-linecap:butt; stroke-linejoin:round; stroke-width:2; stroke-opacity:0.1; fill:none" points="
  1470.15,933.415 1470.15,213.813 
  "/>
<polyline clip-path="url(#clip432)" style="stroke:#000000; stroke-linecap:butt; stroke-linejoin:round; stroke-width:2; stroke-opacity:0.1; fill:none" points="
  1480.26,1356.18 1624.55,947.027 
  "/>
<polyline clip-path="url(#clip432)" style="stroke:#000000; stroke-linecap:butt; stroke-linejoin:round; stroke-width:2; stroke-opacity:0.1; fill:none" points="
  1624.55,947.027 1624.55,227.425 
  "/>
<polyline clip-path="url(#clip430)" style="stroke:#000000; stroke-linecap:butt; stroke-linejoin:round; stroke-width:4; stroke-opacity:1; fill:none" points="
  788.047,1295.15 1606.35,1367.29 
  "/>
<polyline clip-path="url(#clip430)" style="stroke:#000000; stroke-linecap:butt; stroke-linejoin:round; stroke-width:4; stroke-opacity:1; fill:none" points="
  862.671,1301.73 864.403,1296.82 
  "/>
<polyline clip-path="url(#clip430)" style="stroke:#000000; stroke-linecap:butt; stroke-linejoin:round; stroke-width:4; stroke-opacity:1; fill:none" points="
  1017.07,1315.34 1018.8,1310.43 
  "/>
<polyline clip-path="url(#clip430)" style="stroke:#000000; stroke-linecap:butt; stroke-linejoin:round; stroke-width:4; stroke-opacity:1; fill:none" points="
  1171.46,1328.95 1173.2,1324.04 
  "/>
<polyline clip-path="url(#clip430)" style="stroke:#000000; stroke-linecap:butt; stroke-linejoin:round; stroke-width:4; stroke-opacity:1; fill:none" points="
  1325.86,1342.57 1327.59,1337.66 
  "/>
<polyline clip-path="url(#clip430)" style="stroke:#000000; stroke-linecap:butt; stroke-linejoin:round; stroke-width:4; stroke-opacity:1; fill:none" points="
  1480.26,1356.18 1481.99,1351.27 
  "/>
<path clip-path="url(#clip430)" d="M789.527 1328.53 L819.203 1328.53 L819.203 1332.47 L789.527 1332.47 L789.527 1328.53 Z" fill="#000000" fill-rule="evenodd" fill-opacity="1" /><path clip-path="url(#clip430)" d="M829.434 1344.64 L829.434 1340.39 Q831.194 1341.22 832.999 1341.66 Q834.805 1342.1 836.541 1342.1 Q841.17 1342.1 843.601 1339 Q846.055 1335.87 846.402 1329.53 Q845.059 1331.52 842.999 1332.58 Q840.939 1333.65 838.439 1333.65 Q833.254 1333.65 830.221 1330.52 Q827.212 1327.38 827.212 1321.94 Q827.212 1316.61 830.36 1313.39 Q833.508 1310.18 838.74 1310.18 Q844.735 1310.18 847.883 1314.78 Q851.055 1319.37 851.055 1328.12 Q851.055 1336.29 847.166 1341.17 Q843.3 1346.03 836.749 1346.03 Q834.99 1346.03 833.184 1345.69 Q831.379 1345.34 829.434 1344.64 M838.74 1329.99 Q841.888 1329.99 843.717 1327.84 Q845.568 1325.69 845.568 1321.94 Q845.568 1318.21 843.717 1316.06 Q841.888 1313.88 838.74 1313.88 Q835.592 1313.88 833.74 1316.06 Q831.911 1318.21 831.911 1321.94 Q831.911 1325.69 833.74 1327.84 Q835.592 1329.99 838.74 1329.99 Z" fill="#000000" fill-rule="evenodd" fill-opacity="1" /><path clip-path="url(#clip430)" d="M943.576 1342.15 L973.252 1342.15 L973.252 1346.08 L943.576 1346.08 L943.576 1342.15 Z" fill="#000000" fill-rule="evenodd" fill-opacity="1" /><path clip-path="url(#clip430)" d="M993.923 1339.83 Q990.775 1339.83 988.923 1341.98 Q987.095 1344.14 987.095 1347.89 Q987.095 1351.61 988.923 1353.79 Q990.775 1355.94 993.923 1355.94 Q997.071 1355.94 998.9 1353.79 Q1000.75 1351.61 1000.75 1347.89 Q1000.75 1344.14 998.9 1341.98 Q997.071 1339.83 993.923 1339.83 M1003.21 1325.18 L1003.21 1329.44 Q1001.45 1328.6 999.641 1328.16 Q997.858 1327.72 996.099 1327.72 Q991.47 1327.72 989.016 1330.85 Q986.585 1333.97 986.238 1340.29 Q987.604 1338.28 989.664 1337.22 Q991.724 1336.13 994.201 1336.13 Q999.409 1336.13 1002.42 1339.3 Q1005.45 1342.45 1005.45 1347.89 Q1005.45 1353.21 1002.3 1356.43 Q999.155 1359.65 993.923 1359.65 Q987.928 1359.65 984.757 1355.06 Q981.585 1350.46 981.585 1341.73 Q981.585 1333.53 985.474 1328.67 Q989.363 1323.79 995.914 1323.79 Q997.673 1323.79 999.456 1324.14 Q1001.26 1324.48 1003.21 1325.18 Z" fill="#000000" fill-rule="evenodd" fill-opacity="1" /><path clip-path="url(#clip430)" d="M1098.78 1355.76 L1128.46 1355.76 L1128.46 1359.69 L1098.78 1359.69 L1098.78 1355.76 Z" fill="#000000" fill-rule="evenodd" fill-opacity="1" /><path clip-path="url(#clip430)" d="M1152.72 1353.95 Q1156.07 1354.67 1157.95 1356.94 Q1159.85 1359.21 1159.85 1362.54 Q1159.85 1367.66 1156.33 1370.46 Q1152.81 1373.26 1146.33 1373.26 Q1144.15 1373.26 1141.84 1372.82 Q1139.55 1372.4 1137.09 1371.54 L1137.09 1367.03 Q1139.04 1368.17 1141.35 1368.74 Q1143.67 1369.32 1146.19 1369.32 Q1150.59 1369.32 1152.88 1367.59 Q1155.19 1365.85 1155.19 1362.54 Q1155.19 1359.48 1153.04 1357.77 Q1150.91 1356.04 1147.09 1356.04 L1143.07 1356.04 L1143.07 1352.19 L1147.28 1352.19 Q1150.73 1352.19 1152.56 1350.83 Q1154.38 1349.44 1154.38 1346.85 Q1154.38 1344.18 1152.49 1342.77 Q1150.61 1341.34 1147.09 1341.34 Q1145.17 1341.34 1142.97 1341.75 Q1140.77 1342.17 1138.13 1343.05 L1138.13 1338.88 Q1140.8 1338.14 1143.11 1337.77 Q1145.45 1337.4 1147.51 1337.4 Q1152.83 1337.4 1155.94 1339.83 Q1159.04 1342.24 1159.04 1346.36 Q1159.04 1349.23 1157.39 1351.22 Q1155.75 1353.19 1152.72 1353.95 Z" fill="#000000" fill-rule="evenodd" fill-opacity="1" /><path clip-path="url(#clip430)" d="M1302.3 1354.72 Q1298.69 1354.72 1296.86 1358.28 Q1295.05 1361.82 1295.05 1368.95 Q1295.05 1376.06 1296.86 1379.62 Q1298.69 1383.17 1302.3 1383.17 Q1305.93 1383.17 1307.74 1379.62 Q1309.57 1376.06 1309.57 1368.95 Q1309.57 1361.82 1307.74 1358.28 Q1305.93 1354.72 1302.3 1354.72 M1302.3 1351.01 Q1308.11 1351.01 1311.17 1355.62 Q1314.24 1360.2 1314.24 1368.95 Q1314.24 1377.68 1311.17 1382.29 Q1308.11 1386.87 1302.3 1386.87 Q1296.49 1386.87 1293.41 1382.29 Q1290.36 1377.68 1290.36 1368.95 Q1290.36 1360.2 1293.41 1355.62 Q1296.49 1351.01 1302.3 1351.01 Z" fill="#000000" fill-rule="evenodd" fill-opacity="1" /><path clip-path="url(#clip430)" d="M1461.51 1381.18 Q1464.87 1381.89 1466.74 1384.16 Q1468.64 1386.43 1468.64 1389.76 Q1468.64 1394.88 1465.12 1397.68 Q1461.6 1400.48 1455.12 1400.48 Q1452.95 1400.48 1450.63 1400.04 Q1448.34 1399.63 1445.89 1398.77 L1445.89 1394.26 Q1447.83 1395.39 1450.14 1395.97 Q1452.46 1396.55 1454.98 1396.55 Q1459.38 1396.55 1461.67 1394.81 Q1463.99 1393.07 1463.99 1389.76 Q1463.99 1386.71 1461.83 1385 Q1459.71 1383.26 1455.89 1383.26 L1451.86 1383.26 L1451.86 1379.42 L1456.07 1379.42 Q1459.52 1379.42 1461.35 1378.05 Q1463.18 1376.66 1463.18 1374.07 Q1463.18 1371.41 1461.28 1370 Q1459.4 1368.56 1455.89 1368.56 Q1453.96 1368.56 1451.77 1368.98 Q1449.57 1369.39 1446.93 1370.27 L1446.93 1366.11 Q1449.59 1365.37 1451.9 1365 Q1454.24 1364.63 1456.3 1364.63 Q1461.63 1364.63 1464.73 1367.06 Q1467.83 1369.46 1467.83 1373.58 Q1467.83 1376.45 1466.19 1378.45 Q1464.54 1380.41 1461.51 1381.18 Z" fill="#000000" fill-rule="evenodd" fill-opacity="1" /><polyline clip-path="url(#clip432)" style="stroke:#000000; stroke-linecap:butt; stroke-linejoin:round; stroke-width:2; stroke-opacity:0.1; fill:none" points="
  1610.43,1355.71 792.13,1283.57 
  "/>
<polyline clip-path="url(#clip432)" style="stroke:#000000; stroke-linecap:butt; stroke-linejoin:round; stroke-width:2; stroke-opacity:0.1; fill:none" points="
  792.13,1283.57 792.13,563.968 
  "/>
<polyline clip-path="url(#clip432)" style="stroke:#000000; stroke-linecap:butt; stroke-linejoin:round; stroke-width:2; stroke-opacity:0.1; fill:none" points="
  1655.81,1227.05 837.504,1154.91 
  "/>
<polyline clip-path="url(#clip432)" style="stroke:#000000; stroke-linecap:butt; stroke-linejoin:round; stroke-width:2; stroke-opacity:0.1; fill:none" points="
  837.504,1154.91 837.504,435.305 
  "/>
<polyline clip-path="url(#clip432)" style="stroke:#000000; stroke-linecap:butt; stroke-linejoin:round; stroke-width:2; stroke-opacity:0.1; fill:none" points="
  1701.18,1098.39 882.878,1026.24 
  "/>
<polyline clip-path="url(#clip432)" style="stroke:#000000; stroke-linecap:butt; stroke-linejoin:round; stroke-width:2; stroke-opacity:0.1; fill:none" points="
  882.878,1026.24 882.878,306.641 
  "/>
<polyline clip-path="url(#clip432)" style="stroke:#000000; stroke-linecap:butt; stroke-linejoin:round; stroke-width:2; stroke-opacity:0.1; fill:none" points="
  1746.55,969.724 928.251,897.579 
  "/>
<polyline clip-path="url(#clip432)" style="stroke:#000000; stroke-linecap:butt; stroke-linejoin:round; stroke-width:2; stroke-opacity:0.1; fill:none" points="
  928.251,897.579 928.251,177.977 
  "/>
<polyline clip-path="url(#clip430)" style="stroke:#000000; stroke-linecap:butt; stroke-linejoin:round; stroke-width:4; stroke-opacity:1; fill:none" points="
  1606.35,1367.29 1750.64,958.144 
  "/>
<polyline clip-path="url(#clip430)" style="stroke:#000000; stroke-linecap:butt; stroke-linejoin:round; stroke-width:4; stroke-opacity:1; fill:none" points="
  1610.43,1355.71 1600.61,1354.85 
  "/>
<polyline clip-path="url(#clip430)" style="stroke:#000000; stroke-linecap:butt; stroke-linejoin:round; stroke-width:4; stroke-opacity:1; fill:none" points="
  1655.81,1227.05 1645.99,1226.19 
  "/>
<polyline clip-path="url(#clip430)" style="stroke:#000000; stroke-linecap:butt; stroke-linejoin:round; stroke-width:4; stroke-opacity:1; fill:none" points="
  1701.18,1098.39 1691.36,1097.52 
  "/>
<polyline clip-path="url(#clip430)" style="stroke:#000000; stroke-linecap:butt; stroke-linejoin:round; stroke-width:4; stroke-opacity:1; fill:none" points="
  1746.55,969.724 1736.73,968.858 
  "/>
<path clip-path="url(#clip430)" d="M1651.1 1343.54 Q1647.49 1343.54 1645.66 1347.1 Q1643.86 1350.65 1643.86 1357.78 Q1643.86 1364.88 1645.66 1368.45 Q1647.49 1371.99 1651.1 1371.99 Q1654.74 1371.99 1656.54 1368.45 Q1658.37 1364.88 1658.37 1357.78 Q1658.37 1350.65 1656.54 1347.1 Q1654.74 1343.54 1651.1 1343.54 M1651.1 1339.84 Q1656.91 1339.84 1659.97 1344.44 Q1663.05 1349.03 1663.05 1357.78 Q1663.05 1366.5 1659.97 1371.11 Q1656.91 1375.69 1651.1 1375.69 Q1645.29 1375.69 1642.22 1371.11 Q1639.16 1366.5 1639.16 1357.78 Q1639.16 1349.03 1642.22 1344.44 Q1645.29 1339.84 1651.1 1339.84 Z" fill="#000000" fill-rule="evenodd" fill-opacity="1" /><path clip-path="url(#clip430)" d="M1685.2 1242.42 L1692.84 1242.42 L1692.84 1216.06 L1684.53 1217.72 L1684.53 1213.46 L1692.8 1211.8 L1697.47 1211.8 L1697.47 1242.42 L1705.11 1242.42 L1705.11 1246.36 L1685.2 1246.36 L1685.2 1242.42 Z" fill="#000000" fill-rule="evenodd" fill-opacity="1" /><path clip-path="url(#clip430)" d="M1735.53 1113.76 L1751.85 1113.76 L1751.85 1117.69 L1729.91 1117.69 L1729.91 1113.76 Q1732.57 1111 1737.15 1106.37 Q1741.76 1101.72 1742.94 1100.38 Q1745.19 1097.86 1746.06 1096.12 Q1746.97 1094.36 1746.97 1092.67 Q1746.97 1089.92 1745.02 1088.18 Q1743.1 1086.44 1740 1086.44 Q1737.8 1086.44 1735.35 1087.21 Q1732.92 1087.97 1730.14 1089.52 L1730.14 1084.8 Q1732.96 1083.67 1735.42 1083.09 Q1737.87 1082.51 1739.91 1082.51 Q1745.28 1082.51 1748.47 1085.19 Q1751.67 1087.88 1751.67 1092.37 Q1751.67 1094.5 1750.86 1096.42 Q1750.07 1098.32 1747.96 1100.91 Q1747.38 1101.58 1744.28 1104.8 Q1741.18 1107.99 1735.53 1113.76 Z" fill="#000000" fill-rule="evenodd" fill-opacity="1" /><path clip-path="url(#clip430)" d="M1790.91 970.396 Q1794.26 971.113 1796.14 973.382 Q1798.04 975.65 1798.04 978.984 Q1798.04 984.099 1794.52 986.9 Q1791 989.701 1784.52 989.701 Q1782.34 989.701 1780.03 989.261 Q1777.73 988.845 1775.28 987.988 L1775.28 983.474 Q1777.23 984.609 1779.54 985.187 Q1781.86 985.766 1784.38 985.766 Q1788.78 985.766 1791.07 984.03 Q1793.38 982.294 1793.38 978.984 Q1793.38 975.928 1791.23 974.215 Q1789.1 972.479 1785.28 972.479 L1781.25 972.479 L1781.25 968.636 L1785.47 968.636 Q1788.92 968.636 1790.74 967.271 Q1792.57 965.882 1792.57 963.289 Q1792.57 960.627 1790.67 959.215 Q1788.8 957.78 1785.28 957.78 Q1783.36 957.78 1781.16 958.197 Q1778.96 958.613 1776.32 959.493 L1776.32 955.326 Q1778.98 954.586 1781.3 954.215 Q1783.64 953.845 1785.7 953.845 Q1791.02 953.845 1794.12 956.275 Q1797.23 958.683 1797.23 962.803 Q1797.23 965.673 1795.58 967.664 Q1793.94 969.632 1790.91 970.396 Z" fill="#000000" fill-rule="evenodd" fill-opacity="1" /><polyline clip-path="url(#clip432)" style="stroke:#000000; stroke-linecap:butt; stroke-linejoin:round; stroke-width:2; stroke-opacity:0.1; fill:none" points="
  788.047,1274.78 932.335,865.633 
  "/>
<polyline clip-path="url(#clip432)" style="stroke:#000000; stroke-linecap:butt; stroke-linejoin:round; stroke-width:2; stroke-opacity:0.1; fill:none" points="
  932.335,865.633 1750.64,937.778 
  "/>
<polyline clip-path="url(#clip432)" style="stroke:#000000; stroke-linecap:butt; stroke-linejoin:round; stroke-width:2; stroke-opacity:0.1; fill:none" points="
  788.047,1105.07 932.335,695.916 
  "/>
<polyline clip-path="url(#clip432)" style="stroke:#000000; stroke-linecap:butt; stroke-linejoin:round; stroke-width:2; stroke-opacity:0.1; fill:none" points="
  932.335,695.916 1750.64,768.06 
  "/>
<polyline clip-path="url(#clip432)" style="stroke:#000000; stroke-linecap:butt; stroke-linejoin:round; stroke-width:2; stroke-opacity:0.1; fill:none" points="
  788.047,935.349 932.335,526.199 
  "/>
<polyline clip-path="url(#clip432)" style="stroke:#000000; stroke-linecap:butt; stroke-linejoin:round; stroke-width:2; stroke-opacity:0.1; fill:none" points="
  932.335,526.199 1750.64,598.343 
  "/>
<polyline clip-path="url(#clip432)" style="stroke:#000000; stroke-linecap:butt; stroke-linejoin:round; stroke-width:2; stroke-opacity:0.1; fill:none" points="
  788.047,765.632 932.335,356.481 
  "/>
<polyline clip-path="url(#clip432)" style="stroke:#000000; stroke-linecap:butt; stroke-linejoin:round; stroke-width:2; stroke-opacity:0.1; fill:none" points="
  932.335,356.481 1750.64,428.625 
  "/>
<polyline clip-path="url(#clip432)" style="stroke:#000000; stroke-linecap:butt; stroke-linejoin:round; stroke-width:2; stroke-opacity:0.1; fill:none" points="
  788.047,595.914 932.335,186.764 
  "/>
<polyline clip-path="url(#clip432)" style="stroke:#000000; stroke-linecap:butt; stroke-linejoin:round; stroke-width:2; stroke-opacity:0.1; fill:none" points="
  932.335,186.764 1750.64,258.908 
  "/>
<polyline clip-path="url(#clip430)" style="stroke:#000000; stroke-linecap:butt; stroke-linejoin:round; stroke-width:4; stroke-opacity:1; fill:none" points="
  788.047,1295.15 788.047,575.548 
  "/>
<polyline clip-path="url(#clip430)" style="stroke:#000000; stroke-linecap:butt; stroke-linejoin:round; stroke-width:4; stroke-opacity:1; fill:none" points="
  788.047,1274.78 789.778,1269.87 
  "/>
<polyline clip-path="url(#clip430)" style="stroke:#000000; stroke-linecap:butt; stroke-linejoin:round; stroke-width:4; stroke-opacity:1; fill:none" points="
  788.047,1105.07 789.778,1100.16 
  "/>
<polyline clip-path="url(#clip430)" style="stroke:#000000; stroke-linecap:butt; stroke-linejoin:round; stroke-width:4; stroke-opacity:1; fill:none" points="
  788.047,935.349 789.778,930.439 
  "/>
<polyline clip-path="url(#clip430)" style="stroke:#000000; stroke-linecap:butt; stroke-linejoin:round; stroke-width:4; stroke-opacity:1; fill:none" points="
  788.047,765.632 789.778,760.722 
  "/>
<polyline clip-path="url(#clip430)" style="stroke:#000000; stroke-linecap:butt; stroke-linejoin:round; stroke-width:4; stroke-opacity:1; fill:none" points="
  788.047,595.914 789.778,591.004 
  "/>
<path clip-path="url(#clip430)" d="M662.719 1288.13 L670.358 1288.13 L670.358 1261.76 L662.048 1263.43 L662.048 1259.17 L670.312 1257.5 L674.988 1257.5 L674.988 1288.13 L682.627 1288.13 L682.627 1292.06 L662.719 1292.06 L662.719 1288.13 Z" fill="#000000" fill-rule="evenodd" fill-opacity="1" /><path clip-path="url(#clip430)" d="M692.071 1286.18 L696.955 1286.18 L696.955 1292.06 L692.071 1292.06 L692.071 1286.18 Z" fill="#000000" fill-rule="evenodd" fill-opacity="1" /><path clip-path="url(#clip430)" d="M717.14 1260.58 Q713.529 1260.58 711.7 1264.15 Q709.895 1267.69 709.895 1274.82 Q709.895 1281.93 711.7 1285.49 Q713.529 1289.03 717.14 1289.03 Q720.775 1289.03 722.58 1285.49 Q724.409 1281.93 724.409 1274.82 Q724.409 1267.69 722.58 1264.15 Q720.775 1260.58 717.14 1260.58 M717.14 1256.88 Q722.95 1256.88 726.006 1261.49 Q729.085 1266.07 729.085 1274.82 Q729.085 1283.55 726.006 1288.15 Q722.95 1292.74 717.14 1292.74 Q711.33 1292.74 708.251 1288.15 Q705.196 1283.55 705.196 1274.82 Q705.196 1266.07 708.251 1261.49 Q711.33 1256.88 717.14 1256.88 Z" fill="#000000" fill-rule="evenodd" fill-opacity="1" /><path clip-path="url(#clip430)" d="M747.302 1260.58 Q743.691 1260.58 741.862 1264.15 Q740.057 1267.69 740.057 1274.82 Q740.057 1281.93 741.862 1285.49 Q743.691 1289.03 747.302 1289.03 Q750.936 1289.03 752.742 1285.49 Q754.571 1281.93 754.571 1274.82 Q754.571 1267.69 752.742 1264.15 Q750.936 1260.58 747.302 1260.58 M747.302 1256.88 Q753.112 1256.88 756.168 1261.49 Q759.247 1266.07 759.247 1274.82 Q759.247 1283.55 756.168 1288.15 Q753.112 1292.74 747.302 1292.74 Q741.492 1292.74 738.413 1288.15 Q735.358 1283.55 735.358 1274.82 Q735.358 1266.07 738.413 1261.49 Q741.492 1256.88 747.302 1256.88 Z" fill="#000000" fill-rule="evenodd" fill-opacity="1" /><path clip-path="url(#clip430)" d="M663.715 1118.41 L671.353 1118.41 L671.353 1092.05 L663.043 1093.71 L663.043 1089.45 L671.307 1087.79 L675.983 1087.79 L675.983 1118.41 L683.622 1118.41 L683.622 1122.35 L663.715 1122.35 L663.715 1118.41 Z" fill="#000000" fill-rule="evenodd" fill-opacity="1" /><path clip-path="url(#clip430)" d="M693.066 1116.47 L697.951 1116.47 L697.951 1122.35 L693.066 1122.35 L693.066 1116.47 Z" fill="#000000" fill-rule="evenodd" fill-opacity="1" /><path clip-path="url(#clip430)" d="M712.163 1118.41 L728.483 1118.41 L728.483 1122.35 L706.538 1122.35 L706.538 1118.41 Q709.2 1115.66 713.784 1111.03 Q718.39 1106.37 719.571 1105.03 Q721.816 1102.51 722.696 1100.77 Q723.599 1099.01 723.599 1097.32 Q723.599 1094.57 721.654 1092.83 Q719.733 1091.1 716.631 1091.1 Q714.432 1091.1 711.978 1091.86 Q709.548 1092.62 706.77 1094.18 L706.77 1089.45 Q709.594 1088.32 712.048 1087.74 Q714.501 1087.16 716.538 1087.16 Q721.909 1087.16 725.103 1089.85 Q728.298 1092.53 728.298 1097.02 Q728.298 1099.15 727.487 1101.07 Q726.7 1102.97 724.594 1105.56 Q724.015 1106.24 720.913 1109.45 Q717.812 1112.65 712.163 1118.41 Z" fill="#000000" fill-rule="evenodd" fill-opacity="1" /><path clip-path="url(#clip430)" d="M738.344 1087.79 L756.7 1087.79 L756.7 1091.72 L742.626 1091.72 L742.626 1100.19 Q743.645 1099.85 744.663 1099.68 Q745.682 1099.5 746.7 1099.5 Q752.487 1099.5 755.867 1102.67 Q759.247 1105.84 759.247 1111.26 Q759.247 1116.84 755.774 1119.94 Q752.302 1123.02 745.983 1123.02 Q743.807 1123.02 741.538 1122.65 Q739.293 1122.28 736.886 1121.54 L736.886 1116.84 Q738.969 1117.97 741.191 1118.53 Q743.413 1119.08 745.89 1119.08 Q749.895 1119.08 752.233 1116.98 Q754.571 1114.87 754.571 1111.26 Q754.571 1107.65 752.233 1105.54 Q749.895 1103.43 745.89 1103.43 Q744.015 1103.43 742.14 1103.85 Q740.288 1104.27 738.344 1105.15 L738.344 1087.79 Z" fill="#000000" fill-rule="evenodd" fill-opacity="1" /><path clip-path="url(#clip430)" d="M662.719 948.694 L670.358 948.694 L670.358 922.328 L662.048 923.995 L662.048 919.736 L670.312 918.069 L674.988 918.069 L674.988 948.694 L682.627 948.694 L682.627 952.629 L662.719 952.629 L662.719 948.694 Z" fill="#000000" fill-rule="evenodd" fill-opacity="1" /><path clip-path="url(#clip430)" d="M692.071 946.75 L696.955 946.75 L696.955 952.629 L692.071 952.629 L692.071 946.75 Z" fill="#000000" fill-rule="evenodd" fill-opacity="1" /><path clip-path="url(#clip430)" d="M707.187 918.069 L725.543 918.069 L725.543 922.004 L711.469 922.004 L711.469 930.476 Q712.488 930.129 713.506 929.967 Q714.525 929.782 715.543 929.782 Q721.33 929.782 724.71 932.953 Q728.089 936.125 728.089 941.541 Q728.089 947.12 724.617 950.222 Q721.145 953.3 714.825 953.3 Q712.65 953.3 710.381 952.93 Q708.136 952.56 705.728 951.819 L705.728 947.12 Q707.812 948.254 710.034 948.81 Q712.256 949.365 714.733 949.365 Q718.737 949.365 721.075 947.259 Q723.413 945.152 723.413 941.541 Q723.413 937.93 721.075 935.824 Q718.737 933.717 714.733 933.717 Q712.858 933.717 710.983 934.134 Q709.131 934.551 707.187 935.43 L707.187 918.069 Z" fill="#000000" fill-rule="evenodd" fill-opacity="1" /><path clip-path="url(#clip430)" d="M747.302 921.148 Q743.691 921.148 741.862 924.713 Q740.057 928.254 740.057 935.384 Q740.057 942.49 741.862 946.055 Q743.691 949.597 747.302 949.597 Q750.936 949.597 752.742 946.055 Q754.571 942.49 754.571 935.384 Q754.571 928.254 752.742 924.713 Q750.936 921.148 747.302 921.148 M747.302 917.444 Q753.112 917.444 756.168 922.051 Q759.247 926.634 759.247 935.384 Q759.247 944.111 756.168 948.717 Q753.112 953.3 747.302 953.3 Q741.492 953.3 738.413 948.717 Q735.358 944.111 735.358 935.384 Q735.358 926.634 738.413 922.051 Q741.492 917.444 747.302 917.444 Z" fill="#000000" fill-rule="evenodd" fill-opacity="1" /><path clip-path="url(#clip430)" d="M663.715 778.977 L671.353 778.977 L671.353 752.611 L663.043 754.278 L663.043 750.018 L671.307 748.352 L675.983 748.352 L675.983 778.977 L683.622 778.977 L683.622 782.912 L663.715 782.912 L663.715 778.977 Z" fill="#000000" fill-rule="evenodd" fill-opacity="1" /><path clip-path="url(#clip430)" d="M693.066 777.032 L697.951 777.032 L697.951 782.912 L693.066 782.912 L693.066 777.032 Z" fill="#000000" fill-rule="evenodd" fill-opacity="1" /><path clip-path="url(#clip430)" d="M706.955 748.352 L729.177 748.352 L729.177 750.342 L716.631 782.912 L711.747 782.912 L723.552 752.287 L706.955 752.287 L706.955 748.352 Z" fill="#000000" fill-rule="evenodd" fill-opacity="1" /><path clip-path="url(#clip430)" d="M738.344 748.352 L756.7 748.352 L756.7 752.287 L742.626 752.287 L742.626 760.759 Q743.645 760.412 744.663 760.25 Q745.682 760.065 746.7 760.065 Q752.487 760.065 755.867 763.236 Q759.247 766.407 759.247 771.824 Q759.247 777.402 755.774 780.504 Q752.302 783.583 745.983 783.583 Q743.807 783.583 741.538 783.213 Q739.293 782.842 736.886 782.102 L736.886 777.402 Q738.969 778.537 741.191 779.092 Q743.413 779.648 745.89 779.648 Q749.895 779.648 752.233 777.541 Q754.571 775.435 754.571 771.824 Q754.571 768.213 752.233 766.106 Q749.895 764 745.89 764 Q744.015 764 742.14 764.416 Q740.288 764.833 738.344 765.713 L738.344 748.352 Z" fill="#000000" fill-rule="evenodd" fill-opacity="1" /><path clip-path="url(#clip430)" d="M665.937 609.259 L682.256 609.259 L682.256 613.194 L660.312 613.194 L660.312 609.259 Q662.974 606.504 667.557 601.875 Q672.164 597.222 673.344 595.88 Q675.59 593.356 676.469 591.62 Q677.372 589.861 677.372 588.171 Q677.372 585.417 675.428 583.681 Q673.506 581.944 670.404 581.944 Q668.205 581.944 665.752 582.708 Q663.321 583.472 660.543 585.023 L660.543 580.301 Q663.367 579.167 665.821 578.588 Q668.275 578.009 670.312 578.009 Q675.682 578.009 678.877 580.694 Q682.071 583.38 682.071 587.87 Q682.071 590 681.261 591.921 Q680.474 593.819 678.367 596.412 Q677.789 597.083 674.687 600.301 Q671.585 603.495 665.937 609.259 Z" fill="#000000" fill-rule="evenodd" fill-opacity="1" /><path clip-path="url(#clip430)" d="M692.071 607.315 L696.955 607.315 L696.955 613.194 L692.071 613.194 L692.071 607.315 Z" fill="#000000" fill-rule="evenodd" fill-opacity="1" /><path clip-path="url(#clip430)" d="M717.14 581.713 Q713.529 581.713 711.7 585.278 Q709.895 588.819 709.895 595.949 Q709.895 603.055 711.7 606.62 Q713.529 610.162 717.14 610.162 Q720.775 610.162 722.58 606.62 Q724.409 603.055 724.409 595.949 Q724.409 588.819 722.58 585.278 Q720.775 581.713 717.14 581.713 M717.14 578.009 Q722.95 578.009 726.006 582.616 Q729.085 587.199 729.085 595.949 Q729.085 604.676 726.006 609.282 Q722.95 613.866 717.14 613.866 Q711.33 613.866 708.251 609.282 Q705.196 604.676 705.196 595.949 Q705.196 587.199 708.251 582.616 Q711.33 578.009 717.14 578.009 Z" fill="#000000" fill-rule="evenodd" fill-opacity="1" /><path clip-path="url(#clip430)" d="M747.302 581.713 Q743.691 581.713 741.862 585.278 Q740.057 588.819 740.057 595.949 Q740.057 603.055 741.862 606.62 Q743.691 610.162 747.302 610.162 Q750.936 610.162 752.742 606.62 Q754.571 603.055 754.571 595.949 Q754.571 588.819 752.742 585.278 Q750.936 581.713 747.302 581.713 M747.302 578.009 Q753.112 578.009 756.168 582.616 Q759.247 587.199 759.247 595.949 Q759.247 604.676 756.168 609.282 Q753.112 613.866 747.302 613.866 Q741.492 613.866 738.413 609.282 Q735.358 604.676 735.358 595.949 Q735.358 587.199 738.413 582.616 Q741.492 578.009 747.302 578.009 Z" fill="#000000" fill-rule="evenodd" fill-opacity="1" /><polyline clip-path="url(#clip432)" style="stroke:#0000ff; stroke-linecap:butt; stroke-linejoin:round; stroke-width:4; stroke-opacity:1; fill:none" points="
  815.29,1265.25 838.18,1267.26 861.072,1269.28 883.968,1271.28 906.879,1273.24 929.85,1275.03 953.038,1276.19 976.962,1275.17 1002.74,1268.07 1030.72,1252.36 
  1058.87,1235.91 1084.95,1227.73 1109.04,1226.22 1132.28,1227.24 1155.26,1228.99 1178.18,1230.93 1201.07,1232.94 1223.95,1234.98 1246.81,1237.1 1269.57,1239.49 
  1291.96,1242.89 1313.11,1249.61 1331.04,1264 1345.78,1285.21 1362.18,1302.95 1382.36,1312.07 1404.45,1316.32 1427.12,1318.96 1449.95,1321.14 1472.83,1323.2 
  1495.71,1325.23 1518.6,1327.25 1541.49,1329.27 1564.38,1331.29 1587.27,1333.31 
  "/>
<polyline clip-path="url(#clip432)" style="stroke:#0000ff; stroke-linecap:butt; stroke-linejoin:round; stroke-width:4; stroke-opacity:1; fill:none" points="
  819.983,1251.94 842.868,1253.95 865.753,1255.97 888.642,1257.97 911.547,1259.93 934.508,1261.72 957.68,1262.92 981.562,1262 1007.24,1255.22 1035.04,1240.12 
  1062.99,1224.31 1088.96,1216.48 1113,1215.09 1136.22,1216.14 1159.19,1217.89 1182.1,1219.84 1204.99,1221.84 1227.87,1223.89 1250.72,1226 1273.47,1228.38 
  1295.88,1231.73 1317.08,1238.29 1335.17,1252.26 1350.18,1272.8 1366.81,1290 1387.08,1298.87 1409.18,1303.05 1431.85,1305.66 1454.68,1307.83 1477.55,1309.89 
  1500.43,1311.92 1523.31,1313.94 1546.2,1315.96 1569.08,1317.98 1591.97,1320 
  "/>
<polyline clip-path="url(#clip432)" style="stroke:#0000ff; stroke-linecap:butt; stroke-linejoin:round; stroke-width:4; stroke-opacity:1; fill:none" points="
  824.677,1238.63 847.555,1240.64 870.434,1242.65 893.317,1244.66 916.214,1246.62 939.166,1248.42 962.321,1249.64 986.161,1248.83 1011.73,1242.36 1039.35,1227.87 
  1067.12,1212.7 1092.97,1205.22 1116.96,1203.95 1140.16,1205.03 1163.13,1206.8 1186.03,1208.75 1208.91,1210.75 1231.78,1212.79 1254.62,1214.9 1277.38,1217.27 
  1299.79,1220.57 1321.04,1226.97 1339.31,1240.51 1354.59,1260.39 1371.43,1277.04 1391.79,1285.67 1413.92,1289.77 1436.59,1292.36 1459.41,1294.53 1482.28,1296.59 
  1505.15,1298.62 1528.03,1300.63 1550.9,1302.65 1573.78,1304.67 1596.66,1306.69 
  "/>
<polyline clip-path="url(#clip432)" style="stroke:#0000ff; stroke-linecap:butt; stroke-linejoin:round; stroke-width:4; stroke-opacity:1; fill:none" points="
  829.371,1225.32 852.243,1227.33 875.115,1229.34 897.991,1231.35 920.881,1233.31 943.825,1235.12 966.963,1236.37 990.761,1235.66 1016.22,1229.51 1043.66,1215.63 
  1071.24,1201.09 1096.98,1193.96 1120.92,1192.82 1144.1,1193.93 1167.06,1195.71 1189.95,1197.66 1212.83,1199.66 1235.69,1201.7 1258.53,1203.81 1281.28,1206.16 
  1303.71,1209.41 1325.01,1215.65 1343.44,1228.76 1359,1247.98 1376.06,1264.09 1396.5,1272.48 1418.65,1276.49 1441.33,1279.06 1464.15,1281.23 1487,1283.28 
  1509.87,1285.31 1532.74,1287.33 1555.61,1289.34 1578.48,1291.36 1601.35,1293.38 
  "/>
<polyline clip-path="url(#clip432)" style="stroke:#0000ff; stroke-linecap:butt; stroke-linejoin:round; stroke-width:4; stroke-opacity:1; fill:none" points="
  834.065,1212.01 856.93,1214.02 879.796,1216.03 902.666,1218.04 925.549,1220 948.483,1221.82 971.604,1223.1 995.36,1222.5 1020.72,1216.65 1047.97,1203.38 
  1075.36,1189.48 1100.98,1182.7 1124.88,1181.68 1148.04,1182.83 1170.99,1184.61 1193.88,1186.57 1216.75,1188.57 1239.6,1190.61 1262.44,1192.71 1285.19,1195.05 
  1307.63,1198.25 1328.98,1204.33 1347.58,1217.01 1363.41,1235.57 1380.69,1251.14 1401.22,1259.28 1423.39,1263.22 1446.06,1265.76 1468.88,1267.92 1491.73,1269.97 
  1514.59,1272 1537.45,1274.02 1560.32,1276.03 1583.18,1278.05 1606.05,1280.07 
  "/>
<polyline clip-path="url(#clip432)" style="stroke:#0000ff; stroke-linecap:butt; stroke-linejoin:round; stroke-width:4; stroke-opacity:1; fill:none" points="
  838.759,1198.7 861.618,1200.71 884.477,1202.72 907.34,1204.72 930.216,1206.69 953.141,1208.52 976.246,1209.82 999.96,1209.33 1025.21,1203.8 1052.28,1191.14 
  1079.49,1177.87 1104.99,1171.45 1128.84,1170.54 1151.99,1171.73 1174.92,1173.52 1197.8,1175.48 1220.66,1177.48 1243.51,1179.52 1266.34,1181.61 1289.09,1183.94 
  1311.54,1187.1 1332.95,1193 1351.71,1205.26 1367.82,1223.16 1385.31,1238.18 1405.93,1246.08 1428.12,1249.94 1450.8,1252.46 1473.61,1254.62 1496.45,1256.67 
  1519.31,1258.69 1542.17,1260.71 1565.02,1262.73 1587.88,1264.74 1610.74,1266.76 
  "/>
<polyline clip-path="url(#clip432)" style="stroke:#0000ff; stroke-linecap:butt; stroke-linejoin:round; stroke-width:4; stroke-opacity:1; fill:none" points="
  843.453,1185.39 866.305,1187.4 889.158,1189.41 912.015,1191.41 934.883,1193.38 957.799,1195.21 980.887,1196.55 1004.56,1196.16 1029.71,1190.94 1056.59,1178.89 
  1083.61,1166.26 1109,1160.19 1132.8,1159.41 1155.93,1160.63 1178.85,1162.43 1201.73,1164.39 1224.58,1166.39 1247.43,1168.42 1270.25,1170.52 1293,1172.83 
  1315.46,1175.94 1336.92,1181.68 1355.84,1193.51 1372.23,1210.75 1389.94,1225.23 1410.64,1232.88 1432.85,1236.66 1455.53,1239.17 1478.34,1241.31 1501.18,1243.36 
  1524.03,1245.38 1546.88,1247.4 1569.73,1249.42 1592.58,1251.43 1615.43,1253.45 
  "/>
<polyline clip-path="url(#clip432)" style="stroke:#0000ff; stroke-linecap:butt; stroke-linejoin:round; stroke-width:4; stroke-opacity:1; fill:none" points="
  848.146,1172.08 870.992,1174.09 893.839,1176.1 916.689,1178.1 939.551,1180.07 962.457,1181.91 985.529,1183.28 1009.16,1182.99 1034.2,1178.09 1060.91,1166.65 
  1087.74,1154.66 1113.01,1148.93 1136.76,1148.27 1159.87,1149.52 1182.79,1151.33 1205.65,1153.29 1228.5,1155.3 1251.34,1157.33 1274.16,1159.42 1296.9,1161.72 
  1319.37,1164.78 1340.89,1170.36 1359.98,1181.76 1376.64,1198.34 1394.56,1212.27 1415.36,1219.68 1437.59,1223.39 1460.27,1225.87 1483.07,1228.01 1505.9,1230.05 
  1528.75,1232.08 1551.59,1234.09 1574.44,1236.11 1597.28,1238.12 1620.13,1240.14 
  "/>
<polyline clip-path="url(#clip432)" style="stroke:#0000ff; stroke-linecap:butt; stroke-linejoin:round; stroke-width:4; stroke-opacity:1; fill:none" points="
  852.84,1158.77 875.68,1160.78 898.52,1162.79 921.363,1164.79 944.218,1166.76 967.116,1168.61 990.171,1170 1013.76,1169.82 1038.69,1165.23 1065.22,1154.4 
  1091.86,1143.05 1117.01,1137.68 1140.72,1137.13 1163.81,1138.42 1186.72,1140.24 1209.57,1142.2 1232.42,1144.2 1255.25,1146.24 1278.06,1148.32 1300.81,1150.61 
  1323.29,1153.62 1344.86,1159.04 1364.11,1170.02 1381.05,1185.92 1399.19,1199.32 1420.07,1206.48 1442.32,1210.11 1465,1212.57 1487.8,1214.7 1510.63,1216.75 
  1533.47,1218.77 1556.31,1220.78 1579.14,1222.8 1601.98,1224.81 1624.82,1226.83 
  "/>
<polyline clip-path="url(#clip432)" style="stroke:#0000ff; stroke-linecap:butt; stroke-linejoin:round; stroke-width:4; stroke-opacity:1; fill:none" points="
  857.534,1145.46 880.367,1147.47 903.201,1149.48 926.038,1151.48 948.886,1153.45 971.774,1155.31 994.812,1156.73 1018.36,1156.65 1043.19,1152.38 1069.53,1142.16 
  1095.98,1131.44 1121.02,1126.42 1144.68,1126 1167.75,1127.32 1190.65,1129.15 1213.5,1131.11 1236.34,1133.11 1259.16,1135.14 1281.97,1137.23 1304.71,1139.5 
  1327.2,1142.46 1348.83,1147.72 1368.25,1158.27 1385.46,1173.51 1403.82,1186.37 1424.78,1193.28 1447.06,1196.83 1469.74,1199.27 1492.53,1201.4 1515.36,1203.44 
  1538.19,1205.46 1561.02,1207.48 1583.85,1209.49 1606.68,1211.5 1629.52,1213.52 
  "/>
<polyline clip-path="url(#clip432)" style="stroke:#0000ff; stroke-linecap:butt; stroke-linejoin:round; stroke-width:4; stroke-opacity:1; fill:none" points="
  862.228,1132.15 885.055,1134.16 907.882,1136.17 930.712,1138.17 953.553,1140.14 976.432,1142 999.454,1143.46 1022.96,1143.48 1047.68,1139.52 1073.84,1129.92 
  1100.11,1119.83 1125.03,1115.16 1148.64,1114.86 1171.69,1116.22 1194.58,1118.05 1217.42,1120.02 1240.25,1122.02 1263.07,1124.05 1285.88,1126.13 1308.62,1128.39 
  1331.12,1131.3 1352.8,1136.4 1372.38,1146.52 1389.86,1161.1 1408.44,1173.41 1429.5,1180.08 1451.79,1183.56 1474.48,1185.97 1497.26,1188.09 1520.08,1190.13 
  1542.91,1192.15 1565.73,1194.17 1588.56,1196.18 1611.38,1198.19 1634.21,1200.21 
  "/>
<polyline clip-path="url(#clip432)" style="stroke:#0000ff; stroke-linecap:butt; stroke-linejoin:round; stroke-width:4; stroke-opacity:1; fill:none" points="
  866.922,1118.84 889.742,1120.85 912.563,1122.86 935.387,1124.86 958.22,1126.83 981.09,1128.7 1004.1,1130.18 1027.56,1130.31 1052.17,1126.67 1078.15,1117.67 
  1104.23,1108.22 1129.04,1103.9 1152.6,1103.73 1175.63,1105.12 1198.51,1106.96 1221.35,1108.93 1244.17,1110.93 1266.99,1112.96 1289.78,1115.03 1312.52,1117.28 
  1335.04,1120.14 1356.77,1125.08 1376.51,1134.77 1394.27,1148.69 1413.07,1160.46 1434.21,1166.88 1456.53,1170.28 1479.21,1172.67 1502,1174.79 1524.81,1176.83 
  1547.62,1178.85 1570.44,1180.86 1593.26,1182.87 1616.08,1184.88 1638.9,1186.9 
  "/>
<polyline clip-path="url(#clip432)" style="stroke:#0000ff; stroke-linecap:butt; stroke-linejoin:round; stroke-width:4; stroke-opacity:1; fill:none" points="
  871.616,1105.53 894.43,1107.54 917.244,1109.55 940.061,1111.55 962.888,1113.52 985.748,1115.4 1008.74,1116.91 1032.16,1117.14 1056.67,1113.81 1082.46,1105.43 
  1108.36,1096.61 1133.04,1092.65 1156.56,1092.59 1179.58,1094.01 1202.44,1095.87 1225.27,1097.84 1248.09,1099.84 1270.9,1101.87 1293.69,1103.93 1316.43,1106.17 
  1338.95,1108.99 1360.74,1113.76 1380.65,1123.02 1398.68,1136.28 1417.69,1147.51 1438.92,1153.68 1461.26,1157 1483.95,1159.38 1506.73,1161.48 1529.53,1163.52 
  1552.34,1165.54 1575.16,1167.55 1597.97,1169.56 1620.78,1171.57 1643.6,1173.59 
  "/>
<polyline clip-path="url(#clip432)" style="stroke:#0000ff; stroke-linecap:butt; stroke-linejoin:round; stroke-width:4; stroke-opacity:1; fill:none" points="
  876.31,1092.22 899.117,1094.23 921.925,1096.23 944.736,1098.24 967.555,1100.21 990.407,1102.1 1013.38,1103.64 1036.76,1103.97 1061.16,1100.95 1086.77,1093.18 
  1112.48,1085.01 1137.05,1081.39 1160.52,1081.45 1183.52,1082.91 1206.38,1084.77 1229.2,1086.75 1252.01,1088.75 1274.81,1090.77 1297.6,1092.84 1320.33,1095.05 
  1342.87,1097.83 1364.71,1102.43 1384.78,1111.27 1403.09,1123.87 1422.32,1134.55 1443.63,1140.48 1466,1143.73 1488.68,1146.08 1511.46,1148.18 1534.26,1150.21 
  1557.06,1152.23 1579.87,1154.24 1602.68,1156.25 1625.48,1158.27 1648.29,1160.28 
  "/>
<polyline clip-path="url(#clip432)" style="stroke:#0000ff; stroke-linecap:butt; stroke-linejoin:round; stroke-width:4; stroke-opacity:1; fill:none" points="
  881.003,1078.91 903.805,1080.92 926.606,1082.92 949.41,1084.93 972.222,1086.9 995.065,1088.8 1018.02,1090.37 1041.36,1090.8 1065.65,1088.1 1091.09,1080.94 
  1116.6,1073.4 1141.06,1070.13 1164.48,1070.32 1187.46,1071.81 1210.31,1073.68 1233.12,1075.65 1255.93,1077.66 1278.72,1079.68 1301.51,1081.74 1324.24,1083.94 
  1346.78,1086.67 1368.68,1091.11 1388.92,1099.52 1407.5,1111.46 1426.95,1121.6 1448.35,1127.29 1470.73,1130.45 1493.42,1132.78 1516.19,1134.87 1538.98,1136.91 
  1561.78,1138.92 1584.58,1140.94 1607.38,1142.95 1630.18,1144.96 1652.99,1146.97 
  "/>
<polyline clip-path="url(#clip432)" style="stroke:#0000ff; stroke-linecap:butt; stroke-linejoin:round; stroke-width:4; stroke-opacity:1; fill:none" points="
  885.697,1065.6 908.492,1067.6 931.287,1069.61 954.085,1071.61 976.89,1073.59 999.723,1075.49 1022.66,1077.09 1045.96,1077.64 1070.15,1075.24 1095.4,1068.69 
  1120.73,1061.79 1145.07,1058.88 1168.44,1059.18 1191.4,1060.71 1214.24,1062.59 1237.05,1064.56 1259.84,1066.56 1282.63,1068.59 1305.41,1070.64 1328.14,1072.83 
  1350.7,1075.51 1372.65,1079.79 1393.05,1087.78 1411.91,1099.05 1431.57,1108.65 1453.06,1114.09 1475.47,1117.17 1498.16,1119.48 1520.92,1121.57 1543.71,1123.6 
  1566.5,1125.62 1589.3,1127.63 1612.09,1129.64 1634.88,1131.65 1657.68,1133.66 
  "/>
<polyline clip-path="url(#clip432)" style="stroke:#0000ff; stroke-linecap:butt; stroke-linejoin:round; stroke-width:4; stroke-opacity:1; fill:none" points="
  890.391,1052.29 913.179,1054.29 935.968,1056.3 958.759,1058.3 981.557,1060.29 1004.38,1062.19 1027.3,1063.82 1050.55,1064.47 1074.64,1062.39 1099.71,1056.45 
  1124.85,1050.18 1149.07,1047.62 1172.4,1048.05 1195.34,1049.61 1218.17,1051.49 1240.97,1053.47 1263.76,1055.47 1286.55,1057.49 1309.32,1059.55 1332.05,1061.72 
  1354.61,1064.35 1376.62,1068.47 1397.19,1076.03 1416.32,1086.64 1436.2,1095.69 1457.77,1100.89 1480.2,1103.9 1502.89,1106.18 1525.65,1108.27 1548.43,1110.29 
  1571.22,1112.31 1594.01,1114.32 1616.8,1116.33 1639.58,1118.34 1662.37,1120.35 
  "/>
<polyline clip-path="url(#clip432)" style="stroke:#0000ff; stroke-linecap:butt; stroke-linejoin:round; stroke-width:4; stroke-opacity:1; fill:none" points="
  895.085,1038.98 917.867,1040.98 940.649,1042.99 963.434,1044.99 986.224,1046.98 1009.04,1048.89 1031.94,1050.55 1055.15,1051.3 1079.13,1049.53 1104.02,1044.2 
  1128.98,1038.57 1153.08,1036.36 1176.36,1036.91 1199.28,1038.5 1222.1,1040.4 1244.9,1042.38 1267.68,1044.38 1290.46,1046.4 1313.23,1048.45 1335.95,1050.61 
  1358.53,1053.19 1380.59,1057.15 1401.32,1064.28 1420.73,1074.23 1440.83,1082.74 1462.49,1087.69 1484.94,1090.62 1507.63,1092.88 1530.38,1094.96 1553.16,1096.99 
  1575.94,1099 1598.72,1101.01 1621.5,1103.02 1644.29,1105.03 1667.07,1107.04 
  "/>
<polyline clip-path="url(#clip432)" style="stroke:#0000ff; stroke-linecap:butt; stroke-linejoin:round; stroke-width:4; stroke-opacity:1; fill:none" points="
  899.779,1025.67 922.554,1027.67 945.33,1029.68 968.108,1031.68 990.892,1033.67 1013.7,1035.59 1036.59,1037.27 1059.75,1038.13 1083.63,1036.68 1108.33,1031.96 
  1133.1,1026.96 1157.09,1025.1 1180.32,1025.77 1203.22,1027.4 1226.04,1029.31 1248.82,1031.29 1271.6,1033.29 1294.37,1035.31 1317.13,1037.35 1339.86,1039.5 
  1362.45,1042.03 1384.56,1045.83 1405.45,1052.53 1425.14,1061.82 1445.45,1069.79 1467.2,1074.49 1489.67,1077.34 1512.36,1079.59 1535.12,1081.66 1557.89,1083.68 
  1580.66,1085.69 1603.43,1087.7 1626.21,1089.71 1648.99,1091.72 1671.76,1093.73 
  "/>
<polyline clip-path="url(#clip432)" style="stroke:#0000ff; stroke-linecap:butt; stroke-linejoin:round; stroke-width:4; stroke-opacity:1; fill:none" points="
  904.473,1012.36 927.242,1014.36 950.011,1016.37 972.782,1018.37 995.559,1020.36 1018.36,1022.29 1041.23,1024 1064.35,1024.96 1088.12,1023.82 1112.64,1019.72 
  1137.22,1015.36 1161.1,1013.85 1184.28,1014.64 1207.17,1016.3 1229.97,1018.21 1252.75,1020.2 1275.52,1022.2 1298.28,1024.21 1321.04,1026.26 1343.76,1028.39 
  1366.36,1030.88 1388.53,1034.51 1409.59,1040.78 1429.55,1049.4 1450.08,1056.83 1471.91,1061.29 1494.4,1064.07 1517.1,1066.29 1539.85,1068.35 1562.61,1070.37 
  1585.38,1072.38 1608.15,1074.39 1630.92,1076.4 1653.69,1078.41 1676.45,1080.42 
  "/>
<polyline clip-path="url(#clip432)" style="stroke:#0000ff; stroke-linecap:butt; stroke-linejoin:round; stroke-width:4; stroke-opacity:1; fill:none" points="
  909.166,999.045 931.929,1001.05 954.692,1003.06 977.457,1005.06 1000.23,1007.05 1023.01,1008.98 1045.87,1010.73 1068.95,1011.79 1092.61,1010.97 1116.96,1007.47 
  1141.35,1003.75 1165.1,1002.59 1188.24,1003.5 1211.11,1005.2 1233.9,1007.12 1256.67,1009.1 1279.43,1011.11 1302.19,1013.12 1324.95,1015.16 1347.67,1017.28 
  1370.28,1019.72 1392.5,1023.18 1413.72,1029.03 1433.95,1036.99 1454.7,1043.88 1476.63,1048.09 1499.14,1050.79 1521.83,1052.99 1544.58,1055.05 1567.34,1057.07 
  1590.1,1059.08 1612.86,1061.09 1635.62,1063.09 1658.39,1065.1 1681.15,1067.11 
  "/>
<polyline clip-path="url(#clip432)" style="stroke:#0000ff; stroke-linecap:butt; stroke-linejoin:round; stroke-width:4; stroke-opacity:1; fill:none" points="
  913.86,985.735 936.617,987.741 959.373,989.746 982.131,991.748 1004.89,993.738 1027.67,995.681 1050.51,997.452 1073.55,998.62 1097.11,998.112 1121.27,995.227 
  1145.47,992.139 1169.11,991.332 1192.2,992.365 1215.05,994.095 1237.83,996.027 1260.59,998.013 1283.35,1000.02 1306.11,1002.03 1328.85,1004.06 1351.57,1006.17 
  1374.19,1008.56 1396.47,1011.86 1417.86,1017.28 1438.36,1024.58 1459.33,1030.93 1481.34,1034.89 1503.87,1037.51 1526.57,1039.69 1549.31,1041.74 1572.06,1043.76 
  1594.82,1045.77 1617.57,1047.78 1640.33,1049.78 1663.09,1051.79 1685.84,1053.8 
  "/>
<polyline clip-path="url(#clip432)" style="stroke:#0000ff; stroke-linecap:butt; stroke-linejoin:round; stroke-width:4; stroke-opacity:1; fill:none" points="
  918.554,972.425 941.304,974.431 964.054,976.435 986.806,978.437 1009.56,980.428 1032.33,982.379 1055.15,984.179 1078.15,985.451 1101.6,985.257 1125.58,982.982 
  1149.6,980.531 1173.12,980.075 1196.16,981.229 1218.99,982.993 1241.76,984.933 1264.52,986.922 1287.27,988.924 1310.02,990.936 1332.76,992.965 1355.48,995.062 
  1378.11,997.4 1400.44,1000.54 1421.99,1005.53 1442.77,1012.17 1463.96,1017.97 1486.05,1021.69 1508.61,1024.24 1531.31,1026.39 1554.04,1028.44 1576.79,1030.45 
  1599.54,1032.46 1622.29,1034.47 1645.04,1036.47 1667.79,1038.48 1690.54,1040.49 
  "/>
<polyline clip-path="url(#clip432)" style="stroke:#0000ff; stroke-linecap:butt; stroke-linejoin:round; stroke-width:4; stroke-opacity:1; fill:none" points="
  923.248,959.115 945.992,961.12 968.735,963.124 991.48,965.126 1014.23,967.119 1036.99,969.077 1059.79,970.905 1082.75,972.282 1106.09,972.401 1129.89,970.738 
  1153.72,968.923 1177.13,968.818 1200.12,970.093 1222.93,971.891 1245.69,973.84 1268.44,975.831 1291.19,977.832 1313.93,979.843 1336.67,981.869 1359.38,983.951 
  1382.02,986.242 1404.41,989.221 1426.12,993.786 1447.18,999.761 1468.58,1005.02 1490.77,1008.49 1513.34,1010.96 1536.04,1013.09 1558.77,1015.13 1581.51,1017.15 
  1604.26,1019.15 1627,1021.16 1649.74,1023.17 1672.49,1025.17 1695.23,1027.18 
  "/>
<polyline clip-path="url(#clip432)" style="stroke:#0000ff; stroke-linecap:butt; stroke-linejoin:round; stroke-width:4; stroke-opacity:1; fill:none" points="
  927.942,945.805 950.679,947.81 973.417,949.813 996.155,951.815 1018.9,953.809 1041.65,955.775 1064.44,957.632 1087.35,959.113 1110.59,959.546 1134.2,958.493 
  1157.84,957.314 1181.13,957.561 1204.08,958.957 1226.87,960.789 1249.63,962.747 1272.37,964.739 1295.11,966.741 1317.84,968.75 1340.57,970.772 1363.29,972.841 
  1385.94,975.083 1408.38,977.899 1430.26,982.037 1451.59,987.35 1473.21,992.065 1495.48,995.295 1518.08,997.684 1540.78,999.795 1563.5,1001.83 1586.24,1003.84 
  1608.98,1005.85 1631.71,1007.85 1654.45,1009.86 1677.19,1011.86 1699.92,1013.87 
  "/>
<polyline clip-path="url(#clip432)" style="stroke:#0000ff; stroke-linecap:butt; stroke-linejoin:round; stroke-width:4; stroke-opacity:1; fill:none" points="
  932.636,932.495 955.366,934.499 978.098,936.502 1000.83,938.504 1023.56,940.5 1046.3,942.472 1069.08,944.359 1091.95,945.944 1115.08,946.691 1138.51,946.249 
  1161.97,945.706 1185.14,946.303 1208.04,947.821 1230.81,949.687 1253.56,951.653 1276.29,953.648 1299.02,955.649 1321.75,957.657 1344.48,959.675 1367.19,961.73 
  1389.86,963.925 1412.35,966.578 1434.39,970.289 1456,974.94 1477.83,979.112 1500.19,982.096 1522.81,984.408 1545.51,986.497 1568.24,988.523 1590.96,990.533 
  1613.69,992.539 1636.43,994.544 1659.16,996.548 1681.89,998.552 1704.62,1000.56 
  "/>
<polyline clip-path="url(#clip432)" style="stroke:#0000ff; stroke-linecap:butt; stroke-linejoin:round; stroke-width:4; stroke-opacity:1; fill:none" points="
  937.329,919.185 960.054,921.188 982.779,923.191 1005.5,925.193 1028.23,927.191 1050.96,929.17 1073.72,931.086 1096.55,932.775 1119.57,933.835 1142.82,934.004 
  1166.09,934.098 1189.15,935.046 1212,936.685 1234.76,938.584 1257.49,940.56 1280.22,942.556 1302.94,944.558 1325.67,946.564 1348.39,948.578 1371.1,950.62 
  1393.77,952.766 1416.31,955.256 1438.53,958.54 1460.41,962.529 1482.46,966.158 1504.91,968.897 1527.55,971.131 1550.25,973.198 1572.97,975.219 1595.69,977.227 
  1618.41,979.231 1641.14,981.235 1663.86,983.239 1686.59,985.242 1709.31,987.246 
  "/>
<polyline clip-path="url(#clip432)" style="stroke:#0000ff; stroke-linecap:butt; stroke-linejoin:round; stroke-width:4; stroke-opacity:1; fill:none" points="
  942.023,905.875 964.741,907.878 987.46,909.881 1010.18,911.882 1032.9,913.881 1055.62,915.868 1078.36,917.812 1101.15,919.606 1124.07,920.98 1147.14,921.76 
  1170.22,922.489 1193.15,923.789 1215.96,925.549 1238.7,927.482 1261.42,929.467 1284.14,931.465 1306.86,933.466 1329.58,935.471 1352.29,937.481 1375,939.51 
  1397.69,941.608 1420.28,943.935 1442.66,946.791 1464.82,950.118 1487.09,953.205 1509.62,955.698 1532.28,957.855 1554.98,959.9 1577.7,961.914 1600.42,963.92 
  1623.13,965.924 1645.85,967.927 1668.57,969.93 1691.29,971.933 1714.01,973.936 
  "/>
<polyline clip-path="url(#clip432)" style="stroke:#0000ff; stroke-linecap:butt; stroke-linejoin:round; stroke-width:4; stroke-opacity:1; fill:none" points="
  946.717,892.565 969.429,894.567 992.141,896.57 1014.85,898.571 1037.56,900.572 1060.28,902.566 1083,904.539 1105.75,906.437 1128.56,908.125 1151.45,909.515 
  1174.34,910.881 1197.16,912.532 1219.92,914.412 1242.64,916.38 1265.35,918.373 1288.07,920.373 1310.78,922.375 1333.49,924.378 1356.2,926.384 1378.91,928.399 
  1401.6,930.449 1424.25,932.614 1446.79,935.043 1469.23,937.707 1491.71,940.251 1514.33,942.499 1537.02,944.578 1559.72,946.602 1582.43,948.61 1605.14,950.613 
  1627.85,952.616 1650.56,954.619 1673.28,956.621 1695.99,958.623 1718.7,960.626 
  "/>
<polyline clip-path="url(#clip432)" style="stroke:#0000ff; stroke-linecap:butt; stroke-linejoin:round; stroke-width:4; stroke-opacity:1; fill:none" points="
  951.411,879.255 974.116,881.257 996.822,883.259 1019.53,885.26 1042.23,887.262 1064.94,889.264 1087.64,891.266 1110.35,893.267 1133.05,895.269 1155.76,897.271 
  1178.46,899.273 1201.17,901.275 1223.88,903.276 1246.58,905.278 1269.29,907.28 1291.99,909.282 1314.7,911.284 1337.4,913.285 1360.11,915.287 1382.81,917.289 
  1405.52,919.291 1428.22,921.292 1450.93,923.294 1473.63,925.296 1496.34,927.298 1519.04,929.3 1541.75,931.301 1564.46,933.303 1587.16,935.305 1609.87,937.307 
  1632.57,939.308 1655.28,941.31 1677.98,943.312 1700.69,945.314 1723.39,947.316 
  "/>
</svg>
