<?xml version="1.0" encoding="utf-8"?>
<svg xmlns="http://www.w3.org/2000/svg" xmlns:xlink="http://www.w3.org/1999/xlink" width="600" height="400" viewBox="0 0 2400 1600">
<defs>
  <clipPath id="clip610">
    <rect x="0" y="0" width="2400" height="1600"/>
  </clipPath>
</defs>
<path clip-path="url(#clip610)" d="
M0 1600 L2400 1600 L2400 0 L0 0  Z
  " fill="#ffffff" fill-rule="evenodd" fill-opacity="1"/>
<defs>
  <clipPath id="clip611">
    <rect x="480" y="0" width="1681" height="1600"/>
  </clipPath>
</defs>
<defs>
  <clipPath id="clip612">
    <rect x="224" y="47" width="2129" height="1440"/>
  </clipPath>
</defs>
<path clip-path="url(#clip612)" d="
M1562.75 1777.98 L1562.75 1325.4 L1580.9 1068.08 L1683.83 1113.45 L1683.83 1566.03 L1665.68 1823.36 L1562.75 1777.98  Z
  " fill="#ffffff" fill-rule="evenodd" fill-opacity="1"/>
<polyline clip-path="url(#clip612)" style="stroke:#000000; stroke-linecap:butt; stroke-linejoin:round; stroke-width:2; stroke-opacity:0.1; fill:none" points="
  882,1301.73 1026.29,892.579 
  "/>
<polyline clip-path="url(#clip612)" style="stroke:#000000; stroke-linecap:butt; stroke-linejoin:round; stroke-width:2; stroke-opacity:0.1; fill:none" points="
  1026.29,892.579 1026.29,172.977 
  "/>
<polyline clip-path="url(#clip612)" style="stroke:#000000; stroke-linecap:butt; stroke-linejoin:round; stroke-width:2; stroke-opacity:0.1; fill:none" points="
  1036.4,1315.34 1180.69,906.191 
  "/>
<polyline clip-path="url(#clip612)" style="stroke:#000000; stroke-linecap:butt; stroke-linejoin:round; stroke-width:2; stroke-opacity:0.1; fill:none" points="
  1180.69,906.191 1180.69,186.589 
  "/>
<polyline clip-path="url(#clip612)" style="stroke:#000000; stroke-linecap:butt; stroke-linejoin:round; stroke-width:2; stroke-opacity:0.1; fill:none" points="
  1190.79,1328.95 1335.08,919.803 
  "/>
<polyline clip-path="url(#clip612)" style="stroke:#000000; stroke-linecap:butt; stroke-linejoin:round; stroke-width:2; stroke-opacity:0.1; fill:none" points="
  1335.08,919.803 1335.08,200.201 
  "/>
<polyline clip-path="url(#clip612)" style="stroke:#000000; stroke-linecap:butt; stroke-linejoin:round; stroke-width:2; stroke-opacity:0.1; fill:none" points="
  1345.19,1342.57 1489.48,933.415 
  "/>
<polyline clip-path="url(#clip612)" style="stroke:#000000; stroke-linecap:butt; stroke-linejoin:round; stroke-width:2; stroke-opacity:0.1; fill:none" points="
  1489.48,933.415 1489.48,213.813 
  "/>
<polyline clip-path="url(#clip612)" style="stroke:#000000; stroke-linecap:butt; stroke-linejoin:round; stroke-width:2; stroke-opacity:0.1; fill:none" points="
  1499.59,1356.18 1643.87,947.027 
  "/>
<polyline clip-path="url(#clip612)" style="stroke:#000000; stroke-linecap:butt; stroke-linejoin:round; stroke-width:2; stroke-opacity:0.1; fill:none" points="
  1643.87,947.027 1643.87,227.425 
  "/>
<polyline clip-path="url(#clip610)" style="stroke:#000000; stroke-linecap:butt; stroke-linejoin:round; stroke-width:4; stroke-opacity:1; fill:none" points="
  807.375,1295.15 1625.68,1367.29 
  "/>
<polyline clip-path="url(#clip610)" style="stroke:#000000; stroke-linecap:butt; stroke-linejoin:round; stroke-width:4; stroke-opacity:1; fill:none" points="
  882,1301.73 883.732,1296.82 
  "/>
<polyline clip-path="url(#clip610)" style="stroke:#000000; stroke-linecap:butt; stroke-linejoin:round; stroke-width:4; stroke-opacity:1; fill:none" points="
  1036.4,1315.34 1038.13,1310.43 
  "/>
<polyline clip-path="url(#clip610)" style="stroke:#000000; stroke-linecap:butt; stroke-linejoin:round; stroke-width:4; stroke-opacity:1; fill:none" points="
  1190.79,1328.95 1192.52,1324.04 
  "/>
<polyline clip-path="url(#clip610)" style="stroke:#000000; stroke-linecap:butt; stroke-linejoin:round; stroke-width:4; stroke-opacity:1; fill:none" points="
  1345.19,1342.57 1346.92,1337.66 
  "/>
<polyline clip-path="url(#clip610)" style="stroke:#000000; stroke-linecap:butt; stroke-linejoin:round; stroke-width:4; stroke-opacity:1; fill:none" points="
  1499.59,1356.18 1501.32,1351.27 
  "/>
<path clip-path="url(#clip610)" d="M808.856 1328.53 L838.531 1328.53 L838.531 1332.47 L808.856 1332.47 L808.856 1328.53 Z" fill="#000000" fill-rule="evenodd" fill-opacity="1" /><path clip-path="url(#clip610)" d="M848.763 1344.64 L848.763 1340.39 Q850.522 1341.22 852.328 1341.66 Q854.133 1342.1 855.869 1342.1 Q860.499 1342.1 862.929 1339 Q865.383 1335.87 865.73 1329.53 Q864.388 1331.52 862.328 1332.58 Q860.267 1333.65 857.767 1333.65 Q852.582 1333.65 849.55 1330.52 Q846.541 1327.38 846.541 1321.94 Q846.541 1316.61 849.689 1313.39 Q852.837 1310.18 858.068 1310.18 Q864.064 1310.18 867.212 1314.78 Q870.383 1319.37 870.383 1328.12 Q870.383 1336.29 866.494 1341.17 Q862.629 1346.03 856.078 1346.03 Q854.318 1346.03 852.513 1345.69 Q850.707 1345.34 848.763 1344.64 M858.068 1329.99 Q861.217 1329.99 863.045 1327.84 Q864.897 1325.69 864.897 1321.94 Q864.897 1318.21 863.045 1316.06 Q861.217 1313.88 858.068 1313.88 Q854.92 1313.88 853.068 1316.06 Q851.24 1318.21 851.24 1321.94 Q851.24 1325.69 853.068 1327.84 Q854.92 1329.99 858.068 1329.99 Z" fill="#000000" fill-rule="evenodd" fill-opacity="1" /><path clip-path="url(#clip610)" d="M962.905 1342.15 L992.581 1342.15 L992.581 1346.08 L962.905 1346.08 L962.905 1342.15 Z" fill="#000000" fill-rule="evenodd" fill-opacity="1" /><path clip-path="url(#clip610)" d="M1013.25 1339.83 Q1010.1 1339.83 1008.25 1341.98 Q1006.42 1344.14 1006.42 1347.89 Q1006.42 1351.61 1008.25 1353.79 Q1010.1 1355.94 1013.25 1355.94 Q1016.4 1355.94 1018.23 1353.79 Q1020.08 1351.61 1020.08 1347.89 Q1020.08 1344.14 1018.23 1341.98 Q1016.4 1339.83 1013.25 1339.83 M1022.53 1325.18 L1022.53 1329.44 Q1020.77 1328.6 1018.97 1328.16 Q1017.19 1327.72 1015.43 1327.72 Q1010.8 1327.72 1008.34 1330.85 Q1005.91 1333.97 1005.57 1340.29 Q1006.93 1338.28 1008.99 1337.22 Q1011.05 1336.13 1013.53 1336.13 Q1018.74 1336.13 1021.75 1339.3 Q1024.78 1342.45 1024.78 1347.89 Q1024.78 1353.21 1021.63 1356.43 Q1018.48 1359.65 1013.25 1359.65 Q1007.26 1359.65 1004.09 1355.06 Q1000.91 1350.46 1000.91 1341.73 Q1000.91 1333.53 1004.8 1328.67 Q1008.69 1323.79 1015.24 1323.79 Q1017 1323.79 1018.78 1324.14 Q1020.59 1324.48 1022.53 1325.18 Z" fill="#000000" fill-rule="evenodd" fill-opacity="1" /><path clip-path="url(#clip610)" d="M1118.11 1355.76 L1147.79 1355.76 L1147.79 1359.69 L1118.11 1359.69 L1118.11 1355.76 Z" fill="#000000" fill-rule="evenodd" fill-opacity="1" /><path clip-path="url(#clip610)" d="M1172.05 1353.95 Q1175.4 1354.67 1177.28 1356.94 Q1179.18 1359.21 1179.18 1362.54 Q1179.18 1367.66 1175.66 1370.46 Q1172.14 1373.26 1165.66 1373.26 Q1163.48 1373.26 1161.17 1372.82 Q1158.88 1372.4 1156.42 1371.54 L1156.42 1367.03 Q1158.37 1368.17 1160.68 1368.74 Q1163 1369.32 1165.52 1369.32 Q1169.92 1369.32 1172.21 1367.59 Q1174.52 1365.85 1174.52 1362.54 Q1174.52 1359.48 1172.37 1357.77 Q1170.24 1356.04 1166.42 1356.04 L1162.39 1356.04 L1162.39 1352.19 L1166.61 1352.19 Q1170.06 1352.19 1171.88 1350.83 Q1173.71 1349.44 1173.71 1346.85 Q1173.71 1344.18 1171.81 1342.77 Q1169.94 1341.34 1166.42 1341.34 Q1164.5 1341.34 1162.3 1341.75 Q1160.1 1342.17 1157.46 1343.05 L1157.46 1338.88 Q1160.13 1338.14 1162.44 1337.77 Q1164.78 1337.4 1166.84 1337.4 Q1172.16 1337.4 1175.26 1339.83 Q1178.37 1342.24 1178.37 1346.36 Q1178.37 1349.23 1176.72 1351.22 Q1175.08 1353.19 1172.05 1353.95 Z" fill="#000000" fill-rule="evenodd" fill-opacity="1" /><path clip-path="url(#clip610)" d="M1321.63 1354.72 Q1318.02 1354.72 1316.19 1358.28 Q1314.38 1361.82 1314.38 1368.95 Q1314.38 1376.06 1316.19 1379.62 Q1318.02 1383.17 1321.63 1383.17 Q1325.26 1383.17 1327.07 1379.62 Q1328.9 1376.06 1328.9 1368.95 Q1328.9 1361.82 1327.07 1358.28 Q1325.26 1354.72 1321.63 1354.72 M1321.63 1351.01 Q1327.44 1351.01 1330.49 1355.62 Q1333.57 1360.2 1333.57 1368.95 Q1333.57 1377.68 1330.49 1382.29 Q1327.44 1386.87 1321.63 1386.87 Q1315.82 1386.87 1312.74 1382.29 Q1309.68 1377.68 1309.68 1368.95 Q1309.68 1360.2 1312.74 1355.62 Q1315.82 1351.01 1321.63 1351.01 Z" fill="#000000" fill-rule="evenodd" fill-opacity="1" /><path clip-path="url(#clip610)" d="M1480.84 1381.18 Q1484.2 1381.89 1486.07 1384.16 Q1487.97 1386.43 1487.97 1389.76 Q1487.97 1394.88 1484.45 1397.68 Q1480.93 1400.48 1474.45 1400.48 Q1472.27 1400.48 1469.96 1400.04 Q1467.67 1399.63 1465.21 1398.77 L1465.21 1394.26 Q1467.16 1395.39 1469.47 1395.97 Q1471.79 1396.55 1474.31 1396.55 Q1478.71 1396.55 1481 1394.81 Q1483.32 1393.07 1483.32 1389.76 Q1483.32 1386.71 1481.16 1385 Q1479.03 1383.26 1475.21 1383.26 L1471.19 1383.26 L1471.19 1379.42 L1475.4 1379.42 Q1478.85 1379.42 1480.68 1378.05 Q1482.51 1376.66 1482.51 1374.07 Q1482.51 1371.41 1480.61 1370 Q1478.73 1368.56 1475.21 1368.56 Q1473.29 1368.56 1471.09 1368.98 Q1468.89 1369.39 1466.26 1370.27 L1466.26 1366.11 Q1468.92 1365.37 1471.23 1365 Q1473.57 1364.63 1475.63 1364.63 Q1480.96 1364.63 1484.06 1367.06 Q1487.16 1369.46 1487.16 1373.58 Q1487.16 1376.45 1485.52 1378.45 Q1483.87 1380.41 1480.84 1381.18 Z" fill="#000000" fill-rule="evenodd" fill-opacity="1" /><polyline clip-path="url(#clip612)" style="stroke:#000000; stroke-linecap:butt; stroke-linejoin:round; stroke-width:2; stroke-opacity:0.1; fill:none" points="
  1629.76,1355.71 811.459,1283.57 
  "/>
<polyline clip-path="url(#clip612)" style="stroke:#000000; stroke-linecap:butt; stroke-linejoin:round; stroke-width:2; stroke-opacity:0.1; fill:none" points="
  811.459,1283.57 811.459,563.968 
  "/>
<polyline clip-path="url(#clip612)" style="stroke:#000000; stroke-linecap:butt; stroke-linejoin:round; stroke-width:2; stroke-opacity:0.1; fill:none" points="
  1675.13,1227.05 856.833,1154.91 
  "/>
<polyline clip-path="url(#clip612)" style="stroke:#000000; stroke-linecap:butt; stroke-linejoin:round; stroke-width:2; stroke-opacity:0.1; fill:none" points="
  856.833,1154.91 856.833,435.305 
  "/>
<polyline clip-path="url(#clip612)" style="stroke:#000000; stroke-linecap:butt; stroke-linejoin:round; stroke-width:2; stroke-opacity:0.1; fill:none" points="
  1720.51,1098.39 902.206,1026.24 
  "/>
<polyline clip-path="url(#clip612)" style="stroke:#000000; stroke-linecap:butt; stroke-linejoin:round; stroke-width:2; stroke-opacity:0.1; fill:none" points="
  902.206,1026.24 902.206,306.641 
  "/>
<polyline clip-path="url(#clip612)" style="stroke:#000000; stroke-linecap:butt; stroke-linejoin:round; stroke-width:2; stroke-opacity:0.1; fill:none" points="
  1765.88,969.724 947.58,897.579 
  "/>
<polyline clip-path="url(#clip612)" style="stroke:#000000; stroke-linecap:butt; stroke-linejoin:round; stroke-width:2; stroke-opacity:0.1; fill:none" points="
  947.58,897.579 947.58,177.977 
  "/>
<polyline clip-path="url(#clip610)" style="stroke:#000000; stroke-linecap:butt; stroke-linejoin:round; stroke-width:4; stroke-opacity:1; fill:none" points="
  1625.68,1367.29 1769.96,958.144 
  "/>
<polyline clip-path="url(#clip610)" style="stroke:#000000; stroke-linecap:butt; stroke-linejoin:round; stroke-width:4; stroke-opacity:1; fill:none" points="
  1629.76,1355.71 1619.94,1354.85 
  "/>
<polyline clip-path="url(#clip610)" style="stroke:#000000; stroke-linecap:butt; stroke-linejoin:round; stroke-width:4; stroke-opacity:1; fill:none" points="
  1675.13,1227.05 1665.31,1226.19 
  "/>
<polyline clip-path="url(#clip610)" style="stroke:#000000; stroke-linecap:butt; stroke-linejoin:round; stroke-width:4; stroke-opacity:1; fill:none" points="
  1720.51,1098.39 1710.69,1097.52 
  "/>
<polyline clip-path="url(#clip610)" style="stroke:#000000; stroke-linecap:butt; stroke-linejoin:round; stroke-width:4; stroke-opacity:1; fill:none" points="
  1765.88,969.724 1756.06,968.858 
  "/>
<path clip-path="url(#clip610)" d="M1670.43 1343.54 Q1666.82 1343.54 1664.99 1347.1 Q1663.19 1350.65 1663.19 1357.78 Q1663.19 1364.88 1664.99 1368.45 Q1666.82 1371.99 1670.43 1371.99 Q1674.07 1371.99 1675.87 1368.45 Q1677.7 1364.88 1677.7 1357.78 Q1677.7 1350.65 1675.87 1347.1 Q1674.07 1343.54 1670.43 1343.54 M1670.43 1339.84 Q1676.24 1339.84 1679.3 1344.44 Q1682.38 1349.03 1682.38 1357.78 Q1682.38 1366.5 1679.3 1371.11 Q1676.24 1375.69 1670.43 1375.69 Q1664.62 1375.69 1661.54 1371.11 Q1658.49 1366.5 1658.49 1357.78 Q1658.49 1349.03 1661.54 1344.44 Q1664.62 1339.84 1670.43 1339.84 Z" fill="#000000" fill-rule="evenodd" fill-opacity="1" /><path clip-path="url(#clip610)" d="M1704.53 1242.42 L1712.17 1242.42 L1712.17 1216.06 L1703.86 1217.72 L1703.86 1213.46 L1712.13 1211.8 L1716.8 1211.8 L1716.8 1242.42 L1724.44 1242.42 L1724.44 1246.36 L1704.53 1246.36 L1704.53 1242.42 Z" fill="#000000" fill-rule="evenodd" fill-opacity="1" /><path clip-path="url(#clip610)" d="M1754.86 1113.76 L1771.18 1113.76 L1771.18 1117.69 L1749.24 1117.69 L1749.24 1113.76 Q1751.9 1111 1756.48 1106.37 Q1761.09 1101.72 1762.27 1100.38 Q1764.51 1097.86 1765.39 1096.12 Q1766.3 1094.36 1766.3 1092.67 Q1766.3 1089.92 1764.35 1088.18 Q1762.43 1086.44 1759.33 1086.44 Q1757.13 1086.44 1754.68 1087.21 Q1752.25 1087.97 1749.47 1089.52 L1749.47 1084.8 Q1752.29 1083.67 1754.75 1083.09 Q1757.2 1082.51 1759.24 1082.51 Q1764.61 1082.51 1767.8 1085.19 Q1771 1087.88 1771 1092.37 Q1771 1094.5 1770.18 1096.42 Q1769.4 1098.32 1767.29 1100.91 Q1766.71 1101.58 1763.61 1104.8 Q1760.51 1107.99 1754.86 1113.76 Z" fill="#000000" fill-rule="evenodd" fill-opacity="1" /><path clip-path="url(#clip610)" d="M1810.23 970.396 Q1813.59 971.113 1815.47 973.382 Q1817.36 975.65 1817.36 978.984 Q1817.36 984.099 1813.85 986.9 Q1810.33 989.701 1803.85 989.701 Q1801.67 989.701 1799.36 989.261 Q1797.06 988.845 1794.61 987.988 L1794.61 983.474 Q1796.55 984.609 1798.87 985.187 Q1801.18 985.766 1803.71 985.766 Q1808.11 985.766 1810.4 984.03 Q1812.71 982.294 1812.71 978.984 Q1812.71 975.928 1810.56 974.215 Q1808.43 972.479 1804.61 972.479 L1800.58 972.479 L1800.58 968.636 L1804.79 968.636 Q1808.24 968.636 1810.07 967.271 Q1811.9 965.882 1811.9 963.289 Q1811.9 960.627 1810 959.215 Q1808.13 957.78 1804.61 957.78 Q1802.69 957.78 1800.49 958.197 Q1798.29 958.613 1795.65 959.493 L1795.65 955.326 Q1798.31 954.586 1800.63 954.215 Q1802.97 953.845 1805.03 953.845 Q1810.35 953.845 1813.45 956.275 Q1816.55 958.683 1816.55 962.803 Q1816.55 965.673 1814.91 967.664 Q1813.27 969.632 1810.23 970.396 Z" fill="#000000" fill-rule="evenodd" fill-opacity="1" /><polyline clip-path="url(#clip612)" style="stroke:#000000; stroke-linecap:butt; stroke-linejoin:round; stroke-width:2; stroke-opacity:0.1; fill:none" points="
  807.375,1210.66 951.664,801.51 
  "/>
<polyline clip-path="url(#clip612)" style="stroke:#000000; stroke-linecap:butt; stroke-linejoin:round; stroke-width:2; stroke-opacity:0.1; fill:none" points="
  951.664,801.51 1769.96,873.655 
  "/>
<polyline clip-path="url(#clip612)" style="stroke:#000000; stroke-linecap:butt; stroke-linejoin:round; stroke-width:2; stroke-opacity:0.1; fill:none" points="
  807.375,1118.34 951.664,709.185 
  "/>
<polyline clip-path="url(#clip612)" style="stroke:#000000; stroke-linecap:butt; stroke-linejoin:round; stroke-width:2; stroke-opacity:0.1; fill:none" points="
  951.664,709.185 1769.96,781.329 
  "/>
<polyline clip-path="url(#clip612)" style="stroke:#000000; stroke-linecap:butt; stroke-linejoin:round; stroke-width:2; stroke-opacity:0.1; fill:none" points="
  807.375,1026.01 951.664,616.859 
  "/>
<polyline clip-path="url(#clip612)" style="stroke:#000000; stroke-linecap:butt; stroke-linejoin:round; stroke-width:2; stroke-opacity:0.1; fill:none" points="
  951.664,616.859 1769.96,689.003 
  "/>
<polyline clip-path="url(#clip612)" style="stroke:#000000; stroke-linecap:butt; stroke-linejoin:round; stroke-width:2; stroke-opacity:0.1; fill:none" points="
  807.375,933.683 951.664,524.533 
  "/>
<polyline clip-path="url(#clip612)" style="stroke:#000000; stroke-linecap:butt; stroke-linejoin:round; stroke-width:2; stroke-opacity:0.1; fill:none" points="
  951.664,524.533 1769.96,596.677 
  "/>
<polyline clip-path="url(#clip612)" style="stroke:#000000; stroke-linecap:butt; stroke-linejoin:round; stroke-width:2; stroke-opacity:0.1; fill:none" points="
  807.375,841.357 951.664,432.207 
  "/>
<polyline clip-path="url(#clip612)" style="stroke:#000000; stroke-linecap:butt; stroke-linejoin:round; stroke-width:2; stroke-opacity:0.1; fill:none" points="
  951.664,432.207 1769.96,504.351 
  "/>
<polyline clip-path="url(#clip612)" style="stroke:#000000; stroke-linecap:butt; stroke-linejoin:round; stroke-width:2; stroke-opacity:0.1; fill:none" points="
  807.375,749.032 951.664,339.881 
  "/>
<polyline clip-path="url(#clip612)" style="stroke:#000000; stroke-linecap:butt; stroke-linejoin:round; stroke-width:2; stroke-opacity:0.1; fill:none" points="
  951.664,339.881 1769.96,412.025 
  "/>
<polyline clip-path="url(#clip612)" style="stroke:#000000; stroke-linecap:butt; stroke-linejoin:round; stroke-width:2; stroke-opacity:0.1; fill:none" points="
  807.375,656.706 951.664,247.555 
  "/>
<polyline clip-path="url(#clip612)" style="stroke:#000000; stroke-linecap:butt; stroke-linejoin:round; stroke-width:2; stroke-opacity:0.1; fill:none" points="
  951.664,247.555 1769.96,319.699 
  "/>
<polyline clip-path="url(#clip610)" style="stroke:#000000; stroke-linecap:butt; stroke-linejoin:round; stroke-width:4; stroke-opacity:1; fill:none" points="
  807.375,1295.15 807.375,575.548 
  "/>
<polyline clip-path="url(#clip610)" style="stroke:#000000; stroke-linecap:butt; stroke-linejoin:round; stroke-width:4; stroke-opacity:1; fill:none" points="
  807.375,1210.66 809.107,1205.75 
  "/>
<polyline clip-path="url(#clip610)" style="stroke:#000000; stroke-linecap:butt; stroke-linejoin:round; stroke-width:4; stroke-opacity:1; fill:none" points="
  807.375,1118.34 809.107,1113.43 
  "/>
<polyline clip-path="url(#clip610)" style="stroke:#000000; stroke-linecap:butt; stroke-linejoin:round; stroke-width:4; stroke-opacity:1; fill:none" points="
  807.375,1026.01 809.107,1021.1 
  "/>
<polyline clip-path="url(#clip610)" style="stroke:#000000; stroke-linecap:butt; stroke-linejoin:round; stroke-width:4; stroke-opacity:1; fill:none" points="
  807.375,933.683 809.107,928.774 
  "/>
<polyline clip-path="url(#clip610)" style="stroke:#000000; stroke-linecap:butt; stroke-linejoin:round; stroke-width:4; stroke-opacity:1; fill:none" points="
  807.375,841.357 809.107,836.448 
  "/>
<polyline clip-path="url(#clip610)" style="stroke:#000000; stroke-linecap:butt; stroke-linejoin:round; stroke-width:4; stroke-opacity:1; fill:none" points="
  807.375,749.032 809.107,744.122 
  "/>
<polyline clip-path="url(#clip610)" style="stroke:#000000; stroke-linecap:butt; stroke-linejoin:round; stroke-width:4; stroke-opacity:1; fill:none" points="
  807.375,656.706 809.107,651.796 
  "/>
<path clip-path="url(#clip610)" d="M641.307 1211.11 L670.983 1211.11 L670.983 1215.05 L641.307 1215.05 L641.307 1211.11 Z" fill="#000000" fill-rule="evenodd" fill-opacity="1" /><path clip-path="url(#clip610)" d="M691.076 1196.46 Q687.465 1196.46 685.636 1200.02 Q683.83 1203.57 683.83 1210.7 Q683.83 1217.8 685.636 1221.37 Q687.465 1224.91 691.076 1224.91 Q694.71 1224.91 696.515 1221.37 Q698.344 1217.8 698.344 1210.7 Q698.344 1203.57 696.515 1200.02 Q694.71 1196.46 691.076 1196.46 M691.076 1192.76 Q696.886 1192.76 699.941 1197.36 Q703.02 1201.95 703.02 1210.7 Q703.02 1219.42 699.941 1224.03 Q696.886 1228.61 691.076 1228.61 Q685.265 1228.61 682.187 1224.03 Q679.131 1219.42 679.131 1210.7 Q679.131 1201.95 682.187 1197.36 Q685.265 1192.76 691.076 1192.76 Z" fill="#000000" fill-rule="evenodd" fill-opacity="1" /><path clip-path="url(#clip610)" d="M711.238 1222.06 L716.122 1222.06 L716.122 1227.94 L711.238 1227.94 L711.238 1222.06 Z" fill="#000000" fill-rule="evenodd" fill-opacity="1" /><path clip-path="url(#clip610)" d="M736.307 1196.46 Q732.696 1196.46 730.867 1200.02 Q729.062 1203.57 729.062 1210.7 Q729.062 1217.8 730.867 1221.37 Q732.696 1224.91 736.307 1224.91 Q739.941 1224.91 741.747 1221.37 Q743.575 1217.8 743.575 1210.7 Q743.575 1203.57 741.747 1200.02 Q739.941 1196.46 736.307 1196.46 M736.307 1192.76 Q742.117 1192.76 745.173 1197.36 Q748.251 1201.95 748.251 1210.7 Q748.251 1219.42 745.173 1224.03 Q742.117 1228.61 736.307 1228.61 Q730.497 1228.61 727.418 1224.03 Q724.362 1219.42 724.362 1210.7 Q724.362 1201.95 727.418 1197.36 Q730.497 1192.76 736.307 1192.76 Z" fill="#000000" fill-rule="evenodd" fill-opacity="1" /><path clip-path="url(#clip610)" d="M767.047 1208.8 Q763.899 1208.8 762.047 1210.95 Q760.219 1213.1 760.219 1216.85 Q760.219 1220.58 762.047 1222.76 Q763.899 1224.91 767.047 1224.91 Q770.196 1224.91 772.024 1222.76 Q773.876 1220.58 773.876 1216.85 Q773.876 1213.1 772.024 1210.95 Q770.196 1208.8 767.047 1208.8 M776.33 1194.14 L776.33 1198.4 Q774.571 1197.57 772.765 1197.13 Q770.983 1196.69 769.223 1196.69 Q764.594 1196.69 762.14 1199.82 Q759.709 1202.94 759.362 1209.26 Q760.728 1207.25 762.788 1206.18 Q764.848 1205.09 767.325 1205.09 Q772.533 1205.09 775.543 1208.27 Q778.575 1211.41 778.575 1216.85 Q778.575 1222.18 775.427 1225.39 Q772.279 1228.61 767.047 1228.61 Q761.052 1228.61 757.881 1224.03 Q754.71 1219.42 754.71 1210.7 Q754.71 1202.5 758.598 1197.64 Q762.487 1192.76 769.038 1192.76 Q770.797 1192.76 772.58 1193.1 Q774.385 1193.45 776.33 1194.14 Z" fill="#000000" fill-rule="evenodd" fill-opacity="1" /><path clip-path="url(#clip610)" d="M640.983 1118.79 L670.659 1118.79 L670.659 1122.72 L640.983 1122.72 L640.983 1118.79 Z" fill="#000000" fill-rule="evenodd" fill-opacity="1" /><path clip-path="url(#clip610)" d="M690.752 1104.13 Q687.14 1104.13 685.312 1107.7 Q683.506 1111.24 683.506 1118.37 Q683.506 1125.48 685.312 1129.04 Q687.14 1132.58 690.752 1132.58 Q694.386 1132.58 696.191 1129.04 Q698.02 1125.48 698.02 1118.37 Q698.02 1111.24 696.191 1107.7 Q694.386 1104.13 690.752 1104.13 M690.752 1100.43 Q696.562 1100.43 699.617 1105.04 Q702.696 1109.62 702.696 1118.37 Q702.696 1127.1 699.617 1131.7 Q696.562 1136.29 690.752 1136.29 Q684.941 1136.29 681.863 1131.7 Q678.807 1127.1 678.807 1118.37 Q678.807 1109.62 681.863 1105.04 Q684.941 1100.43 690.752 1100.43 Z" fill="#000000" fill-rule="evenodd" fill-opacity="1" /><path clip-path="url(#clip610)" d="M710.913 1129.74 L715.798 1129.74 L715.798 1135.62 L710.913 1135.62 L710.913 1129.74 Z" fill="#000000" fill-rule="evenodd" fill-opacity="1" /><path clip-path="url(#clip610)" d="M735.983 1104.13 Q732.372 1104.13 730.543 1107.7 Q728.737 1111.24 728.737 1118.37 Q728.737 1125.48 730.543 1129.04 Q732.372 1132.58 735.983 1132.58 Q739.617 1132.58 741.423 1129.04 Q743.251 1125.48 743.251 1118.37 Q743.251 1111.24 741.423 1107.7 Q739.617 1104.13 735.983 1104.13 M735.983 1100.43 Q741.793 1100.43 744.848 1105.04 Q747.927 1109.62 747.927 1118.37 Q747.927 1127.1 744.848 1131.7 Q741.793 1136.29 735.983 1136.29 Q730.173 1136.29 727.094 1131.7 Q724.038 1127.1 724.038 1118.37 Q724.038 1109.62 727.094 1105.04 Q730.173 1100.43 735.983 1100.43 Z" fill="#000000" fill-rule="evenodd" fill-opacity="1" /><path clip-path="url(#clip610)" d="M768.992 1105.13 L757.186 1123.58 L768.992 1123.58 L768.992 1105.13 M767.765 1101.06 L773.645 1101.06 L773.645 1123.58 L778.575 1123.58 L778.575 1127.47 L773.645 1127.47 L773.645 1135.62 L768.992 1135.62 L768.992 1127.47 L753.39 1127.47 L753.39 1122.95 L767.765 1101.06 Z" fill="#000000" fill-rule="evenodd" fill-opacity="1" /><path clip-path="url(#clip610)" d="M643.067 1026.46 L672.742 1026.46 L672.742 1030.4 L643.067 1030.4 L643.067 1026.46 Z" fill="#000000" fill-rule="evenodd" fill-opacity="1" /><path clip-path="url(#clip610)" d="M692.835 1011.81 Q689.224 1011.81 687.395 1015.37 Q685.59 1018.91 685.59 1026.04 Q685.59 1033.15 687.395 1036.72 Q689.224 1040.26 692.835 1040.26 Q696.469 1040.26 698.275 1036.72 Q700.103 1033.15 700.103 1026.04 Q700.103 1018.91 698.275 1015.37 Q696.469 1011.81 692.835 1011.81 M692.835 1008.1 Q698.645 1008.1 701.701 1012.71 Q704.779 1017.29 704.779 1026.04 Q704.779 1034.77 701.701 1039.38 Q698.645 1043.96 692.835 1043.96 Q687.025 1043.96 683.946 1039.38 Q680.89 1034.77 680.89 1026.04 Q680.89 1017.29 683.946 1012.71 Q687.025 1008.1 692.835 1008.1 Z" fill="#000000" fill-rule="evenodd" fill-opacity="1" /><path clip-path="url(#clip610)" d="M712.997 1037.41 L717.881 1037.41 L717.881 1043.29 L712.997 1043.29 L712.997 1037.41 Z" fill="#000000" fill-rule="evenodd" fill-opacity="1" /><path clip-path="url(#clip610)" d="M738.066 1011.81 Q734.455 1011.81 732.626 1015.37 Q730.821 1018.91 730.821 1026.04 Q730.821 1033.15 732.626 1036.72 Q734.455 1040.26 738.066 1040.26 Q741.7 1040.26 743.506 1036.72 Q745.335 1033.15 745.335 1026.04 Q745.335 1018.91 743.506 1015.37 Q741.7 1011.81 738.066 1011.81 M738.066 1008.1 Q743.876 1008.1 746.932 1012.71 Q750.01 1017.29 750.01 1026.04 Q750.01 1034.77 746.932 1039.38 Q743.876 1043.96 738.066 1043.96 Q732.256 1043.96 729.177 1039.38 Q726.122 1034.77 726.122 1026.04 Q726.122 1017.29 729.177 1012.71 Q732.256 1008.1 738.066 1008.1 Z" fill="#000000" fill-rule="evenodd" fill-opacity="1" /><path clip-path="url(#clip610)" d="M762.256 1039.35 L778.575 1039.35 L778.575 1043.29 L756.631 1043.29 L756.631 1039.35 Q759.293 1036.6 763.876 1031.97 Q768.483 1027.32 769.663 1025.97 Q771.908 1023.45 772.788 1021.72 Q773.691 1019.96 773.691 1018.27 Q773.691 1015.51 771.746 1013.78 Q769.825 1012.04 766.723 1012.04 Q764.524 1012.04 762.071 1012.8 Q759.64 1013.57 756.862 1015.12 L756.862 1010.4 Q759.686 1009.26 762.14 1008.68 Q764.594 1008.1 766.631 1008.1 Q772.001 1008.1 775.196 1010.79 Q778.39 1013.47 778.39 1017.97 Q778.39 1020.09 777.58 1022.02 Q776.793 1023.91 774.686 1026.51 Q774.108 1027.18 771.006 1030.4 Q767.904 1033.59 762.256 1039.35 Z" fill="#000000" fill-rule="evenodd" fill-opacity="1" /><path clip-path="url(#clip610)" d="M691.238 919.482 Q687.627 919.482 685.798 923.047 Q683.992 926.588 683.992 933.718 Q683.992 940.824 685.798 944.389 Q687.627 947.931 691.238 947.931 Q694.872 947.931 696.677 944.389 Q698.506 940.824 698.506 933.718 Q698.506 926.588 696.677 923.047 Q694.872 919.482 691.238 919.482 M691.238 915.778 Q697.048 915.778 700.103 920.385 Q703.182 924.968 703.182 933.718 Q703.182 942.445 700.103 947.051 Q697.048 951.635 691.238 951.635 Q685.427 951.635 682.349 947.051 Q679.293 942.445 679.293 933.718 Q679.293 924.968 682.349 920.385 Q685.427 915.778 691.238 915.778 Z" fill="#000000" fill-rule="evenodd" fill-opacity="1" /><path clip-path="url(#clip610)" d="M711.4 945.084 L716.284 945.084 L716.284 950.963 L711.4 950.963 L711.4 945.084 Z" fill="#000000" fill-rule="evenodd" fill-opacity="1" /><path clip-path="url(#clip610)" d="M736.469 919.482 Q732.858 919.482 731.029 923.047 Q729.224 926.588 729.224 933.718 Q729.224 940.824 731.029 944.389 Q732.858 947.931 736.469 947.931 Q740.103 947.931 741.909 944.389 Q743.737 940.824 743.737 933.718 Q743.737 926.588 741.909 923.047 Q740.103 919.482 736.469 919.482 M736.469 915.778 Q742.279 915.778 745.335 920.385 Q748.413 924.968 748.413 933.718 Q748.413 942.445 745.335 947.051 Q742.279 951.635 736.469 951.635 Q730.659 951.635 727.58 947.051 Q724.524 942.445 724.524 933.718 Q724.524 924.968 727.58 920.385 Q730.659 915.778 736.469 915.778 Z" fill="#000000" fill-rule="evenodd" fill-opacity="1" /><path clip-path="url(#clip610)" d="M766.631 919.482 Q763.02 919.482 761.191 923.047 Q759.385 926.588 759.385 933.718 Q759.385 940.824 761.191 944.389 Q763.02 947.931 766.631 947.931 Q770.265 947.931 772.071 944.389 Q773.899 940.824 773.899 933.718 Q773.899 926.588 772.071 923.047 Q770.265 919.482 766.631 919.482 M766.631 915.778 Q772.441 915.778 775.496 920.385 Q778.575 924.968 778.575 933.718 Q778.575 942.445 775.496 947.051 Q772.441 951.635 766.631 951.635 Q760.821 951.635 757.742 947.051 Q754.686 942.445 754.686 933.718 Q754.686 924.968 757.742 920.385 Q760.821 915.778 766.631 915.778 Z" fill="#000000" fill-rule="evenodd" fill-opacity="1" /><path clip-path="url(#clip610)" d="M692.835 827.156 Q689.224 827.156 687.395 830.721 Q685.59 834.263 685.59 841.392 Q685.59 848.499 687.395 852.063 Q689.224 855.605 692.835 855.605 Q696.469 855.605 698.275 852.063 Q700.103 848.499 700.103 841.392 Q700.103 834.263 698.275 830.721 Q696.469 827.156 692.835 827.156 M692.835 823.452 Q698.645 823.452 701.701 828.059 Q704.779 832.642 704.779 841.392 Q704.779 850.119 701.701 854.725 Q698.645 859.309 692.835 859.309 Q687.025 859.309 683.946 854.725 Q680.89 850.119 680.89 841.392 Q680.89 832.642 683.946 828.059 Q687.025 823.452 692.835 823.452 Z" fill="#000000" fill-rule="evenodd" fill-opacity="1" /><path clip-path="url(#clip610)" d="M712.997 852.758 L717.881 852.758 L717.881 858.637 L712.997 858.637 L712.997 852.758 Z" fill="#000000" fill-rule="evenodd" fill-opacity="1" /><path clip-path="url(#clip610)" d="M738.066 827.156 Q734.455 827.156 732.626 830.721 Q730.821 834.263 730.821 841.392 Q730.821 848.499 732.626 852.063 Q734.455 855.605 738.066 855.605 Q741.7 855.605 743.506 852.063 Q745.335 848.499 745.335 841.392 Q745.335 834.263 743.506 830.721 Q741.7 827.156 738.066 827.156 M738.066 823.452 Q743.876 823.452 746.932 828.059 Q750.01 832.642 750.01 841.392 Q750.01 850.119 746.932 854.725 Q743.876 859.309 738.066 859.309 Q732.256 859.309 729.177 854.725 Q726.122 850.119 726.122 841.392 Q726.122 832.642 729.177 828.059 Q732.256 823.452 738.066 823.452 Z" fill="#000000" fill-rule="evenodd" fill-opacity="1" /><path clip-path="url(#clip610)" d="M762.256 854.702 L778.575 854.702 L778.575 858.637 L756.631 858.637 L756.631 854.702 Q759.293 851.948 763.876 847.318 Q768.483 842.665 769.663 841.323 Q771.908 838.8 772.788 837.063 Q773.691 835.304 773.691 833.614 Q773.691 830.86 771.746 829.124 Q769.825 827.388 766.723 827.388 Q764.524 827.388 762.071 828.152 Q759.64 828.915 756.862 830.466 L756.862 825.744 Q759.686 824.61 762.14 824.031 Q764.594 823.452 766.631 823.452 Q772.001 823.452 775.196 826.138 Q778.39 828.823 778.39 833.314 Q778.39 835.443 777.58 837.364 Q776.793 839.263 774.686 841.855 Q774.108 842.526 771.006 845.744 Q767.904 848.938 762.256 854.702 Z" fill="#000000" fill-rule="evenodd" fill-opacity="1" /><path clip-path="url(#clip610)" d="M690.752 734.83 Q687.14 734.83 685.312 738.395 Q683.506 741.937 683.506 749.066 Q683.506 756.173 685.312 759.738 Q687.14 763.279 690.752 763.279 Q694.386 763.279 696.191 759.738 Q698.02 756.173 698.02 749.066 Q698.02 741.937 696.191 738.395 Q694.386 734.83 690.752 734.83 M690.752 731.127 Q696.562 731.127 699.617 735.733 Q702.696 740.316 702.696 749.066 Q702.696 757.793 699.617 762.4 Q696.562 766.983 690.752 766.983 Q684.941 766.983 681.863 762.4 Q678.807 757.793 678.807 749.066 Q678.807 740.316 681.863 735.733 Q684.941 731.127 690.752 731.127 Z" fill="#000000" fill-rule="evenodd" fill-opacity="1" /><path clip-path="url(#clip610)" d="M710.913 760.432 L715.798 760.432 L715.798 766.312 L710.913 766.312 L710.913 760.432 Z" fill="#000000" fill-rule="evenodd" fill-opacity="1" /><path clip-path="url(#clip610)" d="M735.983 734.83 Q732.372 734.83 730.543 738.395 Q728.737 741.937 728.737 749.066 Q728.737 756.173 730.543 759.738 Q732.372 763.279 735.983 763.279 Q739.617 763.279 741.423 759.738 Q743.251 756.173 743.251 749.066 Q743.251 741.937 741.423 738.395 Q739.617 734.83 735.983 734.83 M735.983 731.127 Q741.793 731.127 744.848 735.733 Q747.927 740.316 747.927 749.066 Q747.927 757.793 744.848 762.4 Q741.793 766.983 735.983 766.983 Q730.173 766.983 727.094 762.4 Q724.038 757.793 724.038 749.066 Q724.038 740.316 727.094 735.733 Q730.173 731.127 735.983 731.127 Z" fill="#000000" fill-rule="evenodd" fill-opacity="1" /><path clip-path="url(#clip610)" d="M768.992 735.826 L757.186 754.275 L768.992 754.275 L768.992 735.826 M767.765 731.752 L773.645 731.752 L773.645 754.275 L778.575 754.275 L778.575 758.163 L773.645 758.163 L773.645 766.312 L768.992 766.312 L768.992 758.163 L753.39 758.163 L753.39 753.65 L767.765 731.752 Z" fill="#000000" fill-rule="evenodd" fill-opacity="1" /><path clip-path="url(#clip610)" d="M691.076 642.504 Q687.465 642.504 685.636 646.069 Q683.83 649.611 683.83 656.74 Q683.83 663.847 685.636 667.412 Q687.465 670.953 691.076 670.953 Q694.71 670.953 696.515 667.412 Q698.344 663.847 698.344 656.74 Q698.344 649.611 696.515 646.069 Q694.71 642.504 691.076 642.504 M691.076 638.801 Q696.886 638.801 699.941 643.407 Q703.02 647.99 703.02 656.74 Q703.02 665.467 699.941 670.074 Q696.886 674.657 691.076 674.657 Q685.265 674.657 682.187 670.074 Q679.131 665.467 679.131 656.74 Q679.131 647.99 682.187 643.407 Q685.265 638.801 691.076 638.801 Z" fill="#000000" fill-rule="evenodd" fill-opacity="1" /><path clip-path="url(#clip610)" d="M711.238 668.106 L716.122 668.106 L716.122 673.986 L711.238 673.986 L711.238 668.106 Z" fill="#000000" fill-rule="evenodd" fill-opacity="1" /><path clip-path="url(#clip610)" d="M736.307 642.504 Q732.696 642.504 730.867 646.069 Q729.062 649.611 729.062 656.74 Q729.062 663.847 730.867 667.412 Q732.696 670.953 736.307 670.953 Q739.941 670.953 741.747 667.412 Q743.575 663.847 743.575 656.74 Q743.575 649.611 741.747 646.069 Q739.941 642.504 736.307 642.504 M736.307 638.801 Q742.117 638.801 745.173 643.407 Q748.251 647.99 748.251 656.74 Q748.251 665.467 745.173 670.074 Q742.117 674.657 736.307 674.657 Q730.497 674.657 727.418 670.074 Q724.362 665.467 724.362 656.74 Q724.362 647.99 727.418 643.407 Q730.497 638.801 736.307 638.801 Z" fill="#000000" fill-rule="evenodd" fill-opacity="1" /><path clip-path="url(#clip610)" d="M767.047 654.842 Q763.899 654.842 762.047 656.995 Q760.219 659.148 760.219 662.898 Q760.219 666.625 762.047 668.801 Q763.899 670.953 767.047 670.953 Q770.196 670.953 772.024 668.801 Q773.876 666.625 773.876 662.898 Q773.876 659.148 772.024 656.995 Q770.196 654.842 767.047 654.842 M776.33 640.19 L776.33 644.449 Q774.571 643.616 772.765 643.176 Q770.983 642.736 769.223 642.736 Q764.594 642.736 762.14 645.861 Q759.709 648.986 759.362 655.305 Q760.728 653.291 762.788 652.227 Q764.848 651.139 767.325 651.139 Q772.533 651.139 775.543 654.31 Q778.575 657.458 778.575 662.898 Q778.575 668.222 775.427 671.439 Q772.279 674.657 767.047 674.657 Q761.052 674.657 757.881 670.074 Q754.71 665.467 754.71 656.74 Q754.71 648.546 758.598 643.685 Q762.487 638.801 769.038 638.801 Q770.797 638.801 772.58 639.148 Q774.385 639.495 776.33 640.19 Z" fill="#000000" fill-rule="evenodd" fill-opacity="1" /><polyline clip-path="url(#clip612)" style="stroke:#0000ff; stroke-linecap:butt; stroke-linejoin:round; stroke-width:4; stroke-opacity:1; fill:none" points="
  834.618,866.802 857.509,939.136 880.401,1006.94 903.296,1068.81 926.208,1123.67 949.179,1170.68 972.367,1208.97 996.291,1236.78 1022.07,1250.14 1050.05,1246.8 
  1078.2,1235.83 1104.28,1226.55 1128.37,1217.38 1151.61,1204.7 1174.59,1187.35 1197.51,1165.43 1220.4,1139.43 1243.28,1109.95 1266.14,1077.61 1288.9,1043.18 
  1311.29,1007.96 1332.43,974.891 1350.37,949.578 1365.1,932.158 1381.51,910.628 1401.69,879.798 1423.78,844.888 1446.45,809.952 1469.28,776.718 1492.15,746.076 
  1515.04,718.697 1537.93,695.211 1560.82,676.25 1583.71,662.447 1606.6,654.437 
  "/>
<polyline clip-path="url(#clip612)" style="stroke:#0000ff; stroke-linecap:butt; stroke-linejoin:round; stroke-width:4; stroke-opacity:1; fill:none" points="
  834.773,866.362 857.664,938.696 880.555,1006.5 903.451,1068.37 926.362,1123.23 949.333,1170.24 972.52,1208.53 996.443,1236.35 1022.22,1249.72 1050.2,1246.39 
  1078.33,1235.45 1104.41,1226.18 1128.5,1217.01 1151.74,1204.33 1174.72,1186.98 1197.64,1165.06 1220.53,1139.06 1243.41,1109.58 1266.27,1077.24 1289.03,1042.82 
  1311.42,1007.59 1332.57,974.518 1350.5,949.19 1365.25,931.747 1381.66,910.197 1401.85,879.358 1423.93,844.447 1446.6,809.511 1469.44,776.277 1492.31,745.635 
  1515.2,718.256 1538.09,694.771 1560.98,675.81 1583.87,662.008 1606.76,653.997 
  "/>
<polyline clip-path="url(#clip612)" style="stroke:#0000ff; stroke-linecap:butt; stroke-linejoin:round; stroke-width:4; stroke-opacity:1; fill:none" points="
  834.964,865.822 857.854,938.155 880.745,1005.96 903.64,1067.82 926.552,1122.69 949.521,1169.7 972.708,1207.99 996.629,1235.81 1022.4,1249.19 1050.37,1245.9 
  1078.5,1234.98 1104.58,1225.72 1128.66,1216.56 1151.9,1203.88 1174.88,1186.53 1197.8,1164.61 1220.69,1138.61 1243.57,1109.13 1266.43,1076.79 1289.18,1042.37 
  1311.58,1007.14 1332.73,974.061 1350.67,948.714 1365.43,931.241 1381.85,909.668 1402.04,878.819 1424.12,843.905 1446.8,808.969 1469.63,775.735 1492.5,745.093 
  1515.39,717.715 1538.28,694.231 1561.17,675.269 1584.06,661.468 1606.95,653.457 
  "/>
<polyline clip-path="url(#clip612)" style="stroke:#0000ff; stroke-linecap:butt; stroke-linejoin:round; stroke-width:4; stroke-opacity:1; fill:none" points="
  835.197,865.159 858.087,937.491 880.978,1005.29 903.873,1067.16 926.784,1122.02 949.754,1169.03 972.94,1207.33 996.858,1235.15 1022.63,1248.55 1050.58,1245.29 
  1078.71,1234.4 1104.78,1225.16 1128.86,1216 1152.09,1203.32 1175.08,1185.98 1197.99,1164.06 1220.89,1138.06 1243.77,1108.58 1266.62,1076.24 1289.38,1041.82 
  1311.78,1006.58 1332.92,973.499 1350.88,948.13 1365.65,930.62 1382.08,909.017 1402.27,878.157 1424.36,843.239 1447.03,808.303 1469.86,775.069 1492.74,744.428 
  1515.62,717.051 1538.51,693.567 1561.4,674.606 1584.29,660.804 1607.18,652.794 
  "/>
<polyline clip-path="url(#clip612)" style="stroke:#0000ff; stroke-linecap:butt; stroke-linejoin:round; stroke-width:4; stroke-opacity:1; fill:none" points="
  835.485,864.345 858.374,936.676 881.265,1004.48 904.159,1066.34 927.069,1121.2 950.038,1168.22 973.223,1206.51 997.14,1234.35 1022.9,1247.76 1050.85,1244.54 
  1078.96,1233.69 1105.02,1224.47 1129.1,1215.32 1152.33,1202.64 1175.32,1185.3 1198.23,1163.38 1221.13,1137.38 1244.01,1107.9 1266.86,1075.56 1289.62,1041.14 
  1312.01,1005.9 1333.17,972.809 1351.13,947.412 1365.92,929.858 1382.36,908.219 1402.56,877.344 1424.65,842.422 1447.32,807.485 1470.15,774.252 1493.03,743.612 
  1515.91,716.235 1538.8,692.752 1561.69,673.791 1584.58,659.99 1607.47,651.981 
  "/>
<polyline clip-path="url(#clip612)" style="stroke:#0000ff; stroke-linecap:butt; stroke-linejoin:round; stroke-width:4; stroke-opacity:1; fill:none" points="
  835.837,863.347 858.726,935.676 881.616,1003.47 904.51,1065.34 927.42,1120.2 950.388,1167.22 973.572,1205.51 997.485,1233.35 1023.24,1246.8 1051.17,1243.62 
  1079.27,1232.82 1105.32,1223.63 1129.39,1214.48 1152.63,1201.81 1175.61,1184.46 1198.53,1162.55 1221.42,1136.55 1244.3,1107.07 1267.15,1074.73 1289.91,1040.31 
  1312.31,1005.07 1333.46,971.962 1351.44,946.532 1366.25,928.922 1382.71,907.24 1402.92,876.346 1425.01,841.419 1447.68,806.482 1470.51,773.25 1493.38,742.61 
  1516.27,715.235 1539.15,691.752 1562.04,672.792 1584.93,658.992 1607.82,650.982 
  "/>
<polyline clip-path="url(#clip612)" style="stroke:#0000ff; stroke-linecap:butt; stroke-linejoin:round; stroke-width:4; stroke-opacity:1; fill:none" points="
  836.269,862.122 859.157,934.449 882.046,1002.25 904.94,1064.11 927.849,1118.97 950.816,1165.99 973.999,1204.29 997.908,1232.14 1023.65,1245.61 1051.57,1242.49 
  1079.65,1231.75 1105.69,1222.59 1129.76,1213.46 1152.99,1200.79 1175.97,1183.44 1198.89,1161.52 1221.78,1135.53 1244.66,1106.05 1267.51,1073.71 1290.27,1039.29 
  1312.67,1004.04 1333.83,970.924 1351.82,945.452 1366.65,927.775 1383.14,906.039 1403.35,875.122 1425.44,840.19 1448.11,805.252 1470.94,772.02 1493.82,741.382 
  1516.7,714.007 1539.59,690.526 1562.47,671.567 1585.36,657.767 1608.25,649.757 
  "/>
<polyline clip-path="url(#clip612)" style="stroke:#0000ff; stroke-linecap:butt; stroke-linejoin:round; stroke-width:4; stroke-opacity:1; fill:none" points="
  836.798,860.621 859.685,932.946 882.574,1000.74 905.467,1062.61 928.375,1117.46 951.342,1164.48 974.522,1202.78 998.427,1230.65 1024.16,1244.16 1052.05,1241.11 
  1080.11,1230.44 1106.14,1221.32 1130.21,1212.2 1153.44,1199.53 1176.42,1182.19 1199.33,1160.27 1222.22,1134.27 1245.1,1104.8 1267.95,1072.46 1290.71,1038.04 
  1313.11,1002.79 1334.28,969.652 1352.29,944.13 1367.15,926.37 1383.66,904.567 1403.88,873.623 1425.97,838.683 1448.65,803.744 1471.48,770.514 1494.35,739.877 
  1517.23,712.503 1540.12,689.023 1563.01,670.065 1585.89,656.266 1608.78,648.257 
  "/>
<polyline clip-path="url(#clip612)" style="stroke:#0000ff; stroke-linecap:butt; stroke-linejoin:round; stroke-width:4; stroke-opacity:1; fill:none" points="
  837.446,858.784 860.333,931.106 883.22,998.899 906.112,1060.76 929.02,1115.62 951.985,1162.64 975.163,1200.94 999.062,1228.82 1024.78,1242.38 1052.65,1239.42 
  1080.68,1228.84 1106.7,1219.77 1130.75,1210.66 1153.98,1198 1176.96,1180.65 1199.87,1158.74 1222.76,1132.74 1245.64,1103.27 1268.49,1070.93 1291.25,1036.5 
  1313.65,1001.25 1334.83,968.095 1352.86,942.51 1367.76,924.648 1384.3,902.765 1404.53,871.787 1426.63,836.838 1449.3,801.898 1472.13,768.669 1495,738.033 
  1517.88,710.662 1540.77,687.183 1563.66,668.226 1586.54,654.427 1609.43,646.419 
  "/>
<polyline clip-path="url(#clip612)" style="stroke:#0000ff; stroke-linecap:butt; stroke-linejoin:round; stroke-width:4; stroke-opacity:1; fill:none" points="
  838.239,856.536 861.124,928.855 884.011,996.645 906.902,1058.5 929.808,1113.36 952.772,1160.38 975.947,1198.69 999.838,1226.59 1025.54,1240.2 1053.38,1237.35 
  1081.38,1226.88 1107.37,1217.86 1131.42,1208.78 1154.65,1196.12 1177.62,1178.78 1200.53,1156.86 1223.42,1130.87 1246.3,1101.39 1269.15,1069.06 1291.91,1034.63 
  1314.31,999.374 1335.5,966.189 1353.56,940.528 1368.5,922.543 1385.08,900.56 1405.33,869.541 1427.43,834.582 1450.1,799.64 1472.93,766.412 1495.8,735.779 
  1518.68,708.409 1541.57,684.932 1564.45,665.976 1587.34,652.179 1610.22,644.171 
  "/>
<polyline clip-path="url(#clip612)" style="stroke:#0000ff; stroke-linecap:butt; stroke-linejoin:round; stroke-width:4; stroke-opacity:1; fill:none" points="
  839.207,853.789 862.092,926.104 884.977,993.891 907.867,1055.75 930.771,1110.6 953.733,1157.62 976.905,1195.94 1000.79,1223.86 1026.47,1237.54 1054.27,1234.82 
  1082.23,1224.49 1108.2,1215.54 1132.24,1206.48 1155.46,1193.83 1178.44,1176.48 1201.34,1154.57 1224.23,1128.58 1247.11,1099.1 1269.96,1066.77 1292.71,1032.34 
  1315.12,997.078 1336.32,963.861 1354.41,938.107 1369.41,919.97 1386.03,897.866 1406.3,866.797 1428.4,831.824 1451.08,796.881 1473.91,763.655 1496.77,733.024 
  1519.65,705.656 1542.54,682.181 1565.42,663.228 1588.31,649.432 1611.19,641.424 
  "/>
<polyline clip-path="url(#clip612)" style="stroke:#0000ff; stroke-linecap:butt; stroke-linejoin:round; stroke-width:4; stroke-opacity:1; fill:none" points="
  840.389,850.438 863.272,922.748 886.156,990.53 909.043,1052.38 931.946,1107.24 954.906,1154.26 978.073,1192.59 1001.95,1220.54 1027.6,1234.3 1055.35,1231.74 
  1083.27,1221.56 1109.21,1212.7 1133.23,1203.67 1156.45,1191.03 1179.43,1173.69 1202.33,1151.77 1225.22,1125.78 1248.09,1096.31 1270.94,1063.98 1293.7,1029.55 
  1316.11,994.277 1337.31,961.02 1355.45,935.153 1370.52,916.831 1387.2,894.58 1407.49,863.449 1429.6,828.46 1452.27,793.515 1475.1,760.29 1497.96,729.662 
  1520.84,702.298 1543.72,678.826 1566.61,659.874 1589.49,646.08 1612.37,638.073 
  "/>
<polyline clip-path="url(#clip612)" style="stroke:#0000ff; stroke-linecap:butt; stroke-linejoin:round; stroke-width:4; stroke-opacity:1; fill:none" points="
  841.828,846.357 864.709,918.661 887.591,986.438 910.477,1048.29 933.377,1103.14 956.334,1150.16 979.497,1188.5 1003.36,1216.48 1028.98,1230.35 1056.68,1227.99 
  1084.53,1218.01 1110.44,1209.25 1134.45,1200.25 1157.66,1187.62 1180.63,1170.28 1203.54,1148.37 1226.42,1122.38 1249.29,1092.91 1272.14,1060.58 1294.89,1026.15 
  1317.31,990.865 1338.53,957.561 1356.72,931.555 1371.88,913.008 1388.62,890.577 1408.93,859.372 1431.05,824.363 1453.72,789.416 1476.55,756.193 1499.41,725.569 
  1522.29,698.208 1545.17,674.739 1568.05,655.79 1590.93,641.998 1613.81,633.992 
  "/>
<polyline clip-path="url(#clip612)" style="stroke:#0000ff; stroke-linecap:butt; stroke-linejoin:round; stroke-width:4; stroke-opacity:1; fill:none" points="
  843.577,841.397 866.456,913.694 889.335,981.465 912.218,1043.31 935.116,1098.16 958.07,1145.18 981.226,1183.53 1005.07,1211.56 1030.65,1225.55 1058.28,1223.42 
  1086.07,1213.68 1111.93,1205.05 1135.92,1196.09 1159.13,1183.47 1182.1,1166.14 1205,1144.23 1227.88,1118.24 1250.75,1088.78 1273.6,1056.45 1296.35,1022.02 
  1318.77,986.72 1340.01,953.357 1358.26,927.183 1373.52,908.363 1390.34,885.713 1410.69,854.417 1432.81,819.384 1455.49,784.434 1478.31,751.215 1501.17,720.595 
  1524.05,693.238 1546.93,669.773 1569.8,650.828 1592.68,637.037 1615.56,629.033 
  "/>
<polyline clip-path="url(#clip612)" style="stroke:#0000ff; stroke-linecap:butt; stroke-linejoin:round; stroke-width:4; stroke-opacity:1; fill:none" points="
  845.697,835.387 868.572,907.675 891.449,975.439 914.329,1037.28 937.224,1092.13 960.173,1139.15 983.322,1177.51 1007.15,1205.59 1032.68,1219.73 1060.23,1217.89 
  1087.93,1208.44 1113.74,1199.96 1137.71,1191.06 1160.91,1178.45 1183.87,1161.12 1206.77,1139.22 1229.65,1113.23 1252.52,1083.77 1275.36,1051.44 1298.11,1017.01 
  1320.53,981.695 1341.8,948.262 1360.13,921.885 1375.51,902.734 1392.43,879.819 1412.82,848.412 1434.95,813.35 1457.62,778.397 1480.45,745.181 1503.31,714.566 
  1526.18,687.215 1549.05,663.755 1571.93,644.813 1594.8,631.025 1617.68,623.022 
  "/>
<polyline clip-path="url(#clip612)" style="stroke:#0000ff; stroke-linecap:butt; stroke-linejoin:round; stroke-width:4; stroke-opacity:1; fill:none" points="
  848.257,828.126 871.129,900.403 894.003,968.158 916.879,1029.99 939.77,1084.84 962.714,1131.86 985.854,1170.24 1009.66,1198.38 1035.13,1212.7 1062.58,1211.21 
  1090.18,1202.11 1115.93,1193.82 1139.87,1184.98 1163.06,1172.38 1186.02,1155.06 1208.91,1133.16 1231.79,1107.18 1254.65,1077.72 1277.49,1045.39 1300.24,1010.96 
  1322.67,975.626 1343.97,942.108 1362.38,915.485 1377.92,895.933 1394.95,872.698 1415.39,841.158 1437.53,806.061 1460.21,771.103 1483.03,737.892 1505.89,707.283 
  1528.75,679.939 1551.62,656.484 1574.5,637.547 1597.37,623.763 1620.24,615.761 
  "/>
<polyline clip-path="url(#clip612)" style="stroke:#0000ff; stroke-linecap:butt; stroke-linejoin:round; stroke-width:4; stroke-opacity:1; fill:none" points="
  851.339,819.388 874.207,891.653 897.075,959.397 919.948,1021.22 942.834,1076.06 965.772,1123.09 988.901,1161.49 1012.68,1189.71 1038.08,1204.25 1065.41,1203.17 
  1092.89,1194.49 1118.56,1186.43 1142.47,1177.66 1165.65,1165.08 1188.6,1147.77 1211.49,1125.87 1234.36,1099.89 1257.22,1070.43 1280.06,1038.12 1302.81,1003.68 
  1325.24,968.322 1346.57,934.702 1365.09,907.782 1380.81,887.749 1397.99,864.129 1418.48,832.429 1440.64,797.289 1463.32,762.327 1486.13,729.121 1508.99,698.52 
  1531.85,671.183 1554.72,647.735 1577.59,628.804 1600.45,615.023 1623.32,607.024 
  "/>
<polyline clip-path="url(#clip612)" style="stroke:#0000ff; stroke-linecap:butt; stroke-linejoin:round; stroke-width:4; stroke-opacity:1; fill:none" points="
  855.029,808.923 877.892,881.172 900.756,948.903 923.623,1010.72 946.504,1065.55 969.435,1112.59 992.551,1151.01 1016.29,1179.32 1041.61,1194.12 1068.8,1193.54 
  1096.13,1185.37 1121.71,1177.57 1145.59,1168.89 1168.75,1156.34 1191.69,1139.03 1214.57,1117.13 1237.44,1091.16 1260.29,1061.71 1283.13,1029.4 1305.88,994.963 
  1328.32,959.574 1349.7,925.831 1368.35,898.557 1384.28,877.947 1401.63,853.865 1422.19,821.973 1444.36,786.783 1467.04,751.814 1489.85,718.615 1512.7,688.023 
  1535.56,660.695 1558.42,637.256 1581.29,618.331 1604.15,604.556 1627.01,596.558 
  "/>
<polyline clip-path="url(#clip612)" style="stroke:#0000ff; stroke-linecap:butt; stroke-linejoin:round; stroke-width:4; stroke-opacity:1; fill:none" points="
  859.425,796.459 882.282,868.689 905.14,936.405 928.001,998.21 950.875,1053.04 973.797,1100.08 996.897,1138.53 1020.6,1166.94 1045.82,1182.05 1072.84,1182.07 
  1099.99,1174.5 1125.46,1167.02 1149.29,1158.45 1172.44,1145.93 1195.37,1128.62 1218.25,1106.73 1241.11,1080.77 1263.96,1051.32 1286.79,1019.02 1309.53,984.578 
  1331.99,949.155 1353.41,915.266 1372.22,887.57 1388.41,866.272 1405.96,841.641 1426.6,809.52 1448.8,774.269 1471.48,739.294 1494.28,706.102 1517.13,675.521 
  1539.98,648.204 1562.84,624.775 1585.69,605.858 1608.55,592.088 1631.41,584.094 
  "/>
<polyline clip-path="url(#clip612)" style="stroke:#0000ff; stroke-linecap:butt; stroke-linejoin:round; stroke-width:4; stroke-opacity:1; fill:none" points="
  864.625,781.712 887.475,853.921 910.326,921.618 933.18,983.41 956.046,1038.23 978.958,1085.28 1002.04,1123.77 1025.7,1152.3 1050.8,1167.78 1077.62,1168.5 
  1104.56,1161.64 1129.9,1154.54 1153.68,1146.09 1176.8,1133.61 1199.73,1116.31 1222.6,1094.43 1245.45,1068.47 1268.29,1039.03 1291.11,1006.73 1313.86,972.291 
  1336.32,936.827 1357.81,902.766 1376.8,874.571 1393.29,852.459 1411.08,827.178 1431.82,794.787 1454.04,759.465 1476.72,724.481 1499.53,691.298 1522.36,660.73 
  1545.21,633.426 1568.06,610.008 1590.91,591.101 1613.76,577.338 1636.61,569.347 
  "/>
<polyline clip-path="url(#clip612)" style="stroke:#0000ff; stroke-linecap:butt; stroke-linejoin:round; stroke-width:4; stroke-opacity:1; fill:none" points="
  870.73,764.402 893.571,836.585 916.414,904.261 939.259,966.037 962.116,1020.85 985.016,1067.9 1008.08,1106.43 1031.68,1135.11 1056.64,1151.02 1083.22,1152.58 
  1109.92,1146.55 1135.11,1139.89 1158.83,1131.59 1181.93,1119.14 1204.84,1101.86 1227.7,1079.99 1250.55,1054.03 1273.38,1024.61 1296.2,992.314 1318.94,957.869 
  1341.42,922.358 1362.97,888.093 1382.17,859.312 1399.02,836.246 1417.1,810.202 1437.95,777.493 1460.2,742.087 1482.88,707.094 1505.68,673.921 1528.51,643.368 
  1551.35,616.079 1574.19,592.675 1597.03,573.779 1619.87,560.024 1642.71,552.037 
  "/>
<polyline clip-path="url(#clip612)" style="stroke:#0000ff; stroke-linecap:butt; stroke-linejoin:round; stroke-width:4; stroke-opacity:1; fill:none" points="
  877.829,744.27 900.661,816.424 923.494,884.075 946.329,945.833 969.175,1000.64 992.062,1047.7 1015.1,1086.27 1038.63,1115.12 1063.44,1131.53 1089.74,1134.05 
  1116.16,1128.99 1141.17,1122.85 1164.82,1114.72 1187.89,1102.32 1210.79,1085.06 1233.64,1063.19 1256.47,1037.24 1279.3,1007.83 1302.1,975.545 1324.85,941.096 
  1347.34,905.529 1368.98,871.029 1388.43,841.565 1405.69,817.389 1424.1,790.458 1445.08,757.38 1467.36,721.876 1490.04,686.872 1512.84,653.711 1535.66,623.176 
  1558.49,595.905 1581.32,572.516 1604.15,553.634 1626.98,539.888 1649.81,531.905 
  "/>
<polyline clip-path="url(#clip612)" style="stroke:#0000ff; stroke-linecap:butt; stroke-linejoin:round; stroke-width:4; stroke-opacity:1; fill:none" points="
  885.998,721.107 908.819,793.227 931.64,860.849 954.464,922.586 977.298,977.381 1000.17,1024.45 1023.17,1063.08 1046.64,1092.12 1071.26,1109.11 1097.25,1112.74 
  1123.34,1108.8 1148.15,1103.25 1171.71,1095.32 1194.75,1082.97 1217.63,1065.72 1240.47,1043.86 1263.29,1017.93 1286.1,988.523 1308.9,956.25 1331.64,921.798 
  1354.15,886.167 1375.89,851.395 1395.62,821.147 1413.37,795.694 1432.15,767.741 1453.28,734.239 1475.6,698.623 1498.29,663.605 1521.07,630.458 1543.88,599.943 
  1566.7,572.693 1589.52,549.322 1612.34,530.455 1635.16,516.719 1657.98,508.743 
  "/>
<polyline clip-path="url(#clip612)" style="stroke:#0000ff; stroke-linecap:butt; stroke-linejoin:round; stroke-width:4; stroke-opacity:1; fill:none" points="
  895.281,694.785 918.089,766.866 940.898,834.455 963.708,896.168 986.528,950.951 1009.38,998.025 1032.35,1036.72 1055.73,1065.98 1080.15,1083.63 1105.77,1088.52 
  1131.49,1085.85 1156.07,1080.97 1179.54,1073.26 1202.55,1060.98 1225.41,1043.74 1248.23,1021.9 1271.04,995.977 1293.84,966.585 1316.63,934.324 1339.36,899.867 
  1361.9,864.163 1383.74,829.083 1403.8,797.944 1422.08,771.039 1441.3,741.926 1462.6,707.941 1484.97,672.197 1507.65,637.165 1530.43,604.034 1553.23,573.541 
  1576.03,546.314 1598.84,522.965 1621.65,504.114 1644.46,490.391 1667.26,482.42 
  "/>
<polyline clip-path="url(#clip612)" style="stroke:#0000ff; stroke-linecap:butt; stroke-linejoin:round; stroke-width:4; stroke-opacity:1; fill:none" points="
  905.683,665.288 928.477,737.326 951.271,804.879 974.068,866.564 996.872,921.334 1019.7,968.418 1042.64,1007.18 1065.93,1036.69 1090.1,1055.08 1115.33,1061.38 
  1140.63,1060.13 1164.95,1056.01 1188.32,1048.55 1211.28,1036.33 1234.12,1019.12 1256.92,997.284 1279.72,971.378 1302.51,942.002 1325.29,909.754 1348.02,875.292 
  1370.58,839.506 1392.53,804.081 1412.96,771.942 1431.86,743.411 1451.55,712.998 1473.05,678.472 1495.46,642.585 1518.15,607.536 1540.91,574.423 1563.7,543.956 
  1586.49,516.755 1609.28,493.429 1632.08,474.597 1654.87,460.887 1677.66,452.923 
  "/>
<polyline clip-path="url(#clip612)" style="stroke:#0000ff; stroke-linecap:butt; stroke-linejoin:round; stroke-width:4; stroke-opacity:1; fill:none" points="
  917.157,632.75 939.936,704.74 962.714,772.253 985.495,833.909 1008.28,888.663 1031.09,935.759 1053.99,974.596 1077.17,1004.38 1101.09,1023.58 1125.87,1031.44 
  1150.72,1031.76 1174.75,1028.47 1198,1021.29 1220.92,1009.15 1243.73,991.957 1266.52,970.135 1289.3,944.244 1312.07,914.884 1334.84,882.651 1357.56,848.183 
  1380.15,812.307 1402.24,776.5 1423.06,743.26 1442.63,712.935 1462.86,681.087 1484.57,645.965 1507.03,609.92 1529.72,574.853 1552.48,541.759 1575.25,511.321 
  1598.03,484.148 1620.81,460.848 1643.58,442.037 1666.36,428.342 1689.14,420.386 
  "/>
<polyline clip-path="url(#clip612)" style="stroke:#0000ff; stroke-linecap:butt; stroke-linejoin:round; stroke-width:4; stroke-opacity:1; fill:none" points="
  929.597,597.475 952.359,669.413 975.121,736.882 997.883,798.505 1020.65,853.243 1043.44,900.351 1066.29,939.271 1089.36,969.356 1113,989.434 1137.3,998.981 
  1161.65,1001 1185.37,998.616 1208.49,991.736 1231.36,979.674 1254.15,962.508 1276.92,940.7 1299.68,914.826 1322.44,885.485 1345.19,853.267 1367.91,818.793 
  1390.53,782.82 1412.76,746.599 1434.02,712.165 1454.32,679.894 1475.12,646.491 1497.06,610.723 1519.58,574.507 1542.27,539.419 1565.02,506.347 1587.78,475.94 
  1610.54,448.798 1633.3,425.525 1656.06,406.737 1678.82,393.058 1701.58,385.11 
  "/>
<polyline clip-path="url(#clip612)" style="stroke:#0000ff; stroke-linecap:butt; stroke-linejoin:round; stroke-width:4; stroke-opacity:1; fill:none" points="
  942.834,559.942 965.577,631.825 988.32,699.247 1011.06,760.836 1033.81,815.557 1056.57,862.678 1079.38,901.685 1102.33,932.086 1125.67,953.101 1149.45,964.446 
  1173.27,968.271 1196.67,966.851 1219.66,960.29 1242.48,948.316 1265.24,931.175 1287.99,909.383 1310.73,883.526 1333.47,854.204 1356.21,822.003 1378.93,787.522 
  1401.57,751.445 1423.95,714.785 1445.68,679.079 1466.75,644.739 1488.16,609.682 1510.35,573.225 1532.93,536.827 1555.63,501.719 1578.36,468.669 1601.1,438.294 
  1623.84,411.186 1646.59,387.942 1669.33,369.179 1692.07,355.517 1714.82,347.577 
  "/>
<polyline clip-path="url(#clip612)" style="stroke:#0000ff; stroke-linecap:butt; stroke-linejoin:round; stroke-width:4; stroke-opacity:1; fill:none" points="
  956.638,520.797 979.363,592.622 1002.09,659.996 1024.81,721.549 1047.54,776.252 1070.27,823.386 1093.03,862.485 1115.86,893.216 1138.88,915.208 1162.13,928.427 
  1185.4,934.139 1208.46,933.721 1231.31,927.494 1254.07,915.609 1276.8,898.496 1299.53,876.72 1322.25,850.881 1344.98,821.579 1367.7,789.396 1390.41,754.908 
  1413.08,718.723 1435.63,681.604 1457.84,644.573 1479.72,608.074 1501.77,571.291 1524.21,534.117 1546.86,497.529 1569.56,462.398 1592.28,429.372 1615,399.032 
  1637.72,371.957 1660.45,348.745 1683.17,330.007 1705.9,316.363 1728.62,308.432 
  "/>
<polyline clip-path="url(#clip612)" style="stroke:#0000ff; stroke-linecap:butt; stroke-linejoin:round; stroke-width:4; stroke-opacity:1; fill:none" points="
  970.74,480.811 993.445,552.578 1016.15,619.901 1038.86,681.417 1061.56,736.102 1084.27,783.25 1106.97,822.442 1129.68,853.51 1152.38,876.501 1175.09,891.635 
  1197.79,899.273 1220.5,899.879 1243.2,893.993 1265.91,882.201 1288.61,865.115 1311.32,843.355 1334.03,817.535 1356.73,788.254 1379.44,756.089 1402.14,721.593 
  1424.85,685.298 1447.55,647.711 1470.26,609.325 1492.96,570.621 1515.67,532.076 1538.37,494.169 1561.08,457.387 1583.78,422.234 1606.49,389.232 1629.19,358.926 
  1651.9,331.887 1674.61,308.706 1697.31,289.993 1720.02,276.368 1742.72,268.446 
  "/>
</svg>
