<?xml version="1.0" encoding="utf-8"?>
<svg xmlns="http://www.w3.org/2000/svg" xmlns:xlink="http://www.w3.org/1999/xlink" width="600" height="400" viewBox="0 0 2400 1600">
<defs>
  <clipPath id="clip640">
    <rect x="0" y="0" width="2400" height="1600"/>
  </clipPath>
</defs>
<path clip-path="url(#clip640)" d="
M0 1600 L2400 1600 L2400 0 L0 0  Z
  " fill="#ffffff" fill-rule="evenodd" fill-opacity="1"/>
<defs>
  <clipPath id="clip641">
    <rect x="480" y="0" width="1681" height="1600"/>
  </clipPath>
</defs>
<defs>
  <clipPath id="clip642">
    <rect x="185" y="47" width="2168" height="1440"/>
  </clipPath>
</defs>
<path clip-path="url(#clip642)" d="
M1549.5 1777.98 L1549.5 1325.4 L1567.65 1068.08 L1670.58 1113.45 L1670.58 1566.03 L1652.43 1823.36 L1549.5 1777.98  Z
  " fill="#ffffff" fill-rule="evenodd" fill-opacity="1"/>
<polyline clip-path="url(#clip642)" style="stroke:#000000; stroke-linecap:butt; stroke-linejoin:round; stroke-width:2; stroke-opacity:0.1; fill:none" points="
  862.671,1301.73 1006.96,892.579 
  "/>
<polyline clip-path="url(#clip642)" style="stroke:#000000; stroke-linecap:butt; stroke-linejoin:round; stroke-width:2; stroke-opacity:0.1; fill:none" points="
  1006.96,892.579 1006.96,172.977 
  "/>
<polyline clip-path="url(#clip642)" style="stroke:#000000; stroke-linecap:butt; stroke-linejoin:round; stroke-width:2; stroke-opacity:0.1; fill:none" points="
  1017.07,1315.34 1161.36,906.191 
  "/>
<polyline clip-path="url(#clip642)" style="stroke:#000000; stroke-linecap:butt; stroke-linejoin:round; stroke-width:2; stroke-opacity:0.1; fill:none" points="
  1161.36,906.191 1161.36,186.589 
  "/>
<polyline clip-path="url(#clip642)" style="stroke:#000000; stroke-linecap:butt; stroke-linejoin:round; stroke-width:2; stroke-opacity:0.1; fill:none" points="
  1171.46,1328.95 1315.75,919.803 
  "/>
<polyline clip-path="url(#clip642)" style="stroke:#000000; stroke-linecap:butt; stroke-linejoin:round; stroke-width:2; stroke-opacity:0.1; fill:none" points="
  1315.75,919.803 1315.75,200.201 
  "/>
<polyline clip-path="url(#clip642)" style="stroke:#000000; stroke-linecap:butt; stroke-linejoin:round; stroke-width:2; stroke-opacity:0.1; fill:none" points="
  1325.86,1342.57 1470.15,933.415 
  "/>
<polyline clip-path="url(#clip642)" style="stroke:#000000; stroke-linecap:butt; stroke-linejoin:round; stroke-width:2; stroke-opacity:0.1; fill:none" points="
  1470.15,933.415 1470.15,213.813 
  "/>
<polyline clip-path="url(#clip642)" style="stroke:#000000; stroke-linecap:butt; stroke-linejoin:round; stroke-width:2; stroke-opacity:0.1; fill:none" points="
  1480.26,1356.18 1624.55,947.027 
  "/>
<polyline clip-path="url(#clip642)" style="stroke:#000000; stroke-linecap:butt; stroke-linejoin:round; stroke-width:2; stroke-opacity:0.1; fill:none" points="
  1624.55,947.027 1624.55,227.425 
  "/>
<polyline clip-path="url(#clip640)" style="stroke:#000000; stroke-linecap:butt; stroke-linejoin:round; stroke-width:4; stroke-opacity:1; fill:none" points="
  788.047,1295.15 1606.35,1367.29 
  "/>
<polyline clip-path="url(#clip640)" style="stroke:#000000; stroke-linecap:butt; stroke-linejoin:round; stroke-width:4; stroke-opacity:1; fill:none" points="
  862.671,1301.73 864.403,1296.82 
  "/>
<polyline clip-path="url(#clip640)" style="stroke:#000000; stroke-linecap:butt; stroke-linejoin:round; stroke-width:4; stroke-opacity:1; fill:none" points="
  1017.07,1315.34 1018.8,1310.43 
  "/>
<polyline clip-path="url(#clip640)" style="stroke:#000000; stroke-linecap:butt; stroke-linejoin:round; stroke-width:4; stroke-opacity:1; fill:none" points="
  1171.46,1328.95 1173.2,1324.04 
  "/>
<polyline clip-path="url(#clip640)" style="stroke:#000000; stroke-linecap:butt; stroke-linejoin:round; stroke-width:4; stroke-opacity:1; fill:none" points="
  1325.86,1342.57 1327.59,1337.66 
  "/>
<polyline clip-path="url(#clip640)" style="stroke:#000000; stroke-linecap:butt; stroke-linejoin:round; stroke-width:4; stroke-opacity:1; fill:none" points="
  1480.26,1356.18 1481.99,1351.27 
  "/>
<path clip-path="url(#clip640)" d="M789.527 1328.53 L819.203 1328.53 L819.203 1332.47 L789.527 1332.47 L789.527 1328.53 Z" fill="#000000" fill-rule="evenodd" fill-opacity="1" /><path clip-path="url(#clip640)" d="M829.434 1344.64 L829.434 1340.39 Q831.194 1341.22 832.999 1341.66 Q834.805 1342.1 836.541 1342.1 Q841.17 1342.1 843.601 1339 Q846.055 1335.87 846.402 1329.53 Q845.059 1331.52 842.999 1332.58 Q840.939 1333.65 838.439 1333.65 Q833.254 1333.65 830.221 1330.52 Q827.212 1327.38 827.212 1321.94 Q827.212 1316.61 830.36 1313.39 Q833.508 1310.18 838.74 1310.18 Q844.735 1310.18 847.883 1314.78 Q851.055 1319.37 851.055 1328.12 Q851.055 1336.29 847.166 1341.17 Q843.3 1346.03 836.749 1346.03 Q834.99 1346.03 833.184 1345.69 Q831.379 1345.34 829.434 1344.64 M838.74 1329.99 Q841.888 1329.99 843.717 1327.84 Q845.568 1325.69 845.568 1321.94 Q845.568 1318.21 843.717 1316.06 Q841.888 1313.88 838.74 1313.88 Q835.592 1313.88 833.74 1316.06 Q831.911 1318.21 831.911 1321.94 Q831.911 1325.69 833.74 1327.84 Q835.592 1329.99 838.74 1329.99 Z" fill="#000000" fill-rule="evenodd" fill-opacity="1" /><path clip-path="url(#clip640)" d="M943.576 1342.15 L973.252 1342.15 L973.252 1346.08 L943.576 1346.08 L943.576 1342.15 Z" fill="#000000" fill-rule="evenodd" fill-opacity="1" /><path clip-path="url(#clip640)" d="M993.923 1339.83 Q990.775 1339.83 988.923 1341.98 Q987.095 1344.14 987.095 1347.89 Q987.095 1351.61 988.923 1353.79 Q990.775 1355.94 993.923 1355.94 Q997.071 1355.94 998.9 1353.79 Q1000.75 1351.61 1000.75 1347.89 Q1000.75 1344.14 998.9 1341.98 Q997.071 1339.83 993.923 1339.83 M1003.21 1325.18 L1003.21 1329.44 Q1001.45 1328.6 999.641 1328.16 Q997.858 1327.72 996.099 1327.72 Q991.47 1327.72 989.016 1330.85 Q986.585 1333.97 986.238 1340.29 Q987.604 1338.28 989.664 1337.22 Q991.724 1336.13 994.201 1336.13 Q999.409 1336.13 1002.42 1339.3 Q1005.45 1342.45 1005.45 1347.89 Q1005.45 1353.21 1002.3 1356.43 Q999.155 1359.65 993.923 1359.65 Q987.928 1359.65 984.757 1355.06 Q981.585 1350.46 981.585 1341.73 Q981.585 1333.53 985.474 1328.67 Q989.363 1323.79 995.914 1323.79 Q997.673 1323.79 999.456 1324.14 Q1001.26 1324.48 1003.21 1325.18 Z" fill="#000000" fill-rule="evenodd" fill-opacity="1" /><path clip-path="url(#clip640)" d="M1098.78 1355.76 L1128.46 1355.76 L1128.46 1359.69 L1098.78 1359.69 L1098.78 1355.76 Z" fill="#000000" fill-rule="evenodd" fill-opacity="1" /><path clip-path="url(#clip640)" d="M1152.72 1353.95 Q1156.07 1354.67 1157.95 1356.94 Q1159.85 1359.21 1159.85 1362.54 Q1159.85 1367.66 1156.33 1370.46 Q1152.81 1373.26 1146.33 1373.26 Q1144.15 1373.26 1141.84 1372.82 Q1139.55 1372.4 1137.09 1371.54 L1137.09 1367.03 Q1139.04 1368.17 1141.35 1368.74 Q1143.67 1369.32 1146.19 1369.32 Q1150.59 1369.32 1152.88 1367.59 Q1155.19 1365.85 1155.19 1362.54 Q1155.19 1359.48 1153.04 1357.77 Q1150.91 1356.04 1147.09 1356.04 L1143.07 1356.04 L1143.07 1352.19 L1147.28 1352.19 Q1150.73 1352.19 1152.56 1350.83 Q1154.38 1349.44 1154.38 1346.85 Q1154.38 1344.18 1152.49 1342.77 Q1150.61 1341.34 1147.09 1341.34 Q1145.17 1341.34 1142.97 1341.75 Q1140.77 1342.17 1138.13 1343.05 L1138.13 1338.88 Q1140.8 1338.14 1143.11 1337.77 Q1145.45 1337.4 1147.51 1337.4 Q1152.83 1337.4 1155.94 1339.83 Q1159.04 1342.24 1159.04 1346.36 Q1159.04 1349.23 1157.39 1351.22 Q1155.75 1353.19 1152.72 1353.95 Z" fill="#000000" fill-rule="evenodd" fill-opacity="1" /><path clip-path="url(#clip640)" d="M1302.3 1354.72 Q1298.69 1354.72 1296.86 1358.28 Q1295.05 1361.82 1295.05 1368.95 Q1295.05 1376.06 1296.86 1379.62 Q1298.69 1383.17 1302.3 1383.17 Q1305.93 1383.17 1307.74 1379.62 Q1309.57 1376.06 1309.57 1368.95 Q1309.57 1361.82 1307.74 1358.28 Q1305.93 1354.72 1302.3 1354.72 M1302.3 1351.01 Q1308.11 1351.01 1311.17 1355.62 Q1314.24 1360.2 1314.24 1368.95 Q1314.24 1377.68 1311.17 1382.29 Q1308.11 1386.87 1302.3 1386.87 Q1296.49 1386.87 1293.41 1382.29 Q1290.36 1377.68 1290.36 1368.95 Q1290.36 1360.2 1293.41 1355.62 Q1296.49 1351.01 1302.3 1351.01 Z" fill="#000000" fill-rule="evenodd" fill-opacity="1" /><path clip-path="url(#clip640)" d="M1461.51 1381.18 Q1464.87 1381.89 1466.74 1384.16 Q1468.64 1386.43 1468.64 1389.76 Q1468.64 1394.88 1465.12 1397.68 Q1461.6 1400.48 1455.12 1400.48 Q1452.95 1400.48 1450.63 1400.04 Q1448.34 1399.63 1445.89 1398.77 L1445.89 1394.26 Q1447.83 1395.39 1450.14 1395.97 Q1452.46 1396.55 1454.98 1396.55 Q1459.38 1396.55 1461.67 1394.81 Q1463.99 1393.07 1463.99 1389.76 Q1463.99 1386.71 1461.83 1385 Q1459.71 1383.26 1455.89 1383.26 L1451.86 1383.26 L1451.86 1379.42 L1456.07 1379.42 Q1459.52 1379.42 1461.35 1378.05 Q1463.18 1376.66 1463.18 1374.07 Q1463.18 1371.41 1461.28 1370 Q1459.4 1368.56 1455.89 1368.56 Q1453.96 1368.56 1451.77 1368.98 Q1449.57 1369.39 1446.93 1370.27 L1446.93 1366.11 Q1449.59 1365.37 1451.9 1365 Q1454.24 1364.63 1456.3 1364.63 Q1461.63 1364.63 1464.73 1367.06 Q1467.83 1369.46 1467.83 1373.58 Q1467.83 1376.45 1466.19 1378.45 Q1464.54 1380.41 1461.51 1381.18 Z" fill="#000000" fill-rule="evenodd" fill-opacity="1" /><polyline clip-path="url(#clip642)" style="stroke:#000000; stroke-linecap:butt; stroke-linejoin:round; stroke-width:2; stroke-opacity:0.1; fill:none" points="
  1610.43,1355.71 792.13,1283.57 
  "/>
<polyline clip-path="url(#clip642)" style="stroke:#000000; stroke-linecap:butt; stroke-linejoin:round; stroke-width:2; stroke-opacity:0.1; fill:none" points="
  792.13,1283.57 792.13,563.968 
  "/>
<polyline clip-path="url(#clip642)" style="stroke:#000000; stroke-linecap:butt; stroke-linejoin:round; stroke-width:2; stroke-opacity:0.1; fill:none" points="
  1655.81,1227.05 837.504,1154.91 
  "/>
<polyline clip-path="url(#clip642)" style="stroke:#000000; stroke-linecap:butt; stroke-linejoin:round; stroke-width:2; stroke-opacity:0.1; fill:none" points="
  837.504,1154.91 837.504,435.305 
  "/>
<polyline clip-path="url(#clip642)" style="stroke:#000000; stroke-linecap:butt; stroke-linejoin:round; stroke-width:2; stroke-opacity:0.1; fill:none" points="
  1701.18,1098.39 882.878,1026.24 
  "/>
<polyline clip-path="url(#clip642)" style="stroke:#000000; stroke-linecap:butt; stroke-linejoin:round; stroke-width:2; stroke-opacity:0.1; fill:none" points="
  882.878,1026.24 882.878,306.641 
  "/>
<polyline clip-path="url(#clip642)" style="stroke:#000000; stroke-linecap:butt; stroke-linejoin:round; stroke-width:2; stroke-opacity:0.1; fill:none" points="
  1746.55,969.724 928.251,897.579 
  "/>
<polyline clip-path="url(#clip642)" style="stroke:#000000; stroke-linecap:butt; stroke-linejoin:round; stroke-width:2; stroke-opacity:0.1; fill:none" points="
  928.251,897.579 928.251,177.977 
  "/>
<polyline clip-path="url(#clip640)" style="stroke:#000000; stroke-linecap:butt; stroke-linejoin:round; stroke-width:4; stroke-opacity:1; fill:none" points="
  1606.35,1367.29 1750.64,958.144 
  "/>
<polyline clip-path="url(#clip640)" style="stroke:#000000; stroke-linecap:butt; stroke-linejoin:round; stroke-width:4; stroke-opacity:1; fill:none" points="
  1610.43,1355.71 1600.61,1354.85 
  "/>
<polyline clip-path="url(#clip640)" style="stroke:#000000; stroke-linecap:butt; stroke-linejoin:round; stroke-width:4; stroke-opacity:1; fill:none" points="
  1655.81,1227.05 1645.99,1226.19 
  "/>
<polyline clip-path="url(#clip640)" style="stroke:#000000; stroke-linecap:butt; stroke-linejoin:round; stroke-width:4; stroke-opacity:1; fill:none" points="
  1701.18,1098.39 1691.36,1097.52 
  "/>
<polyline clip-path="url(#clip640)" style="stroke:#000000; stroke-linecap:butt; stroke-linejoin:round; stroke-width:4; stroke-opacity:1; fill:none" points="
  1746.55,969.724 1736.73,968.858 
  "/>
<path clip-path="url(#clip640)" d="M1651.1 1343.54 Q1647.49 1343.54 1645.66 1347.1 Q1643.86 1350.65 1643.86 1357.78 Q1643.86 1364.88 1645.66 1368.45 Q1647.49 1371.99 1651.1 1371.99 Q1654.74 1371.99 1656.54 1368.45 Q1658.37 1364.88 1658.37 1357.78 Q1658.37 1350.65 1656.54 1347.1 Q1654.74 1343.54 1651.1 1343.54 M1651.1 1339.84 Q1656.91 1339.84 1659.97 1344.44 Q1663.05 1349.03 1663.05 1357.78 Q1663.05 1366.5 1659.97 1371.11 Q1656.91 1375.69 1651.1 1375.69 Q1645.29 1375.69 1642.22 1371.11 Q1639.16 1366.5 1639.16 1357.78 Q1639.16 1349.03 1642.22 1344.44 Q1645.29 1339.84 1651.1 1339.84 Z" fill="#000000" fill-rule="evenodd" fill-opacity="1" /><path clip-path="url(#clip640)" d="M1685.2 1242.42 L1692.84 1242.42 L1692.84 1216.06 L1684.53 1217.72 L1684.53 1213.46 L1692.8 1211.8 L1697.47 1211.8 L1697.47 1242.42 L1705.11 1242.42 L1705.11 1246.36 L1685.2 1246.36 L1685.2 1242.42 Z" fill="#000000" fill-rule="evenodd" fill-opacity="1" /><path clip-path="url(#clip640)" d="M1735.53 1113.76 L1751.85 1113.76 L1751.85 1117.69 L1729.91 1117.69 L1729.91 1113.76 Q1732.57 1111 1737.15 1106.37 Q1741.76 1101.72 1742.94 1100.38 Q1745.19 1097.86 1746.06 1096.12 Q1746.97 1094.36 1746.97 1092.67 Q1746.97 1089.92 1745.02 1088.18 Q1743.1 1086.44 1740 1086.44 Q1737.8 1086.44 1735.35 1087.21 Q1732.92 1087.97 1730.14 1089.52 L1730.14 1084.8 Q1732.96 1083.67 1735.42 1083.09 Q1737.87 1082.51 1739.91 1082.51 Q1745.28 1082.51 1748.47 1085.19 Q1751.67 1087.88 1751.67 1092.37 Q1751.67 1094.5 1750.86 1096.42 Q1750.07 1098.32 1747.96 1100.91 Q1747.38 1101.58 1744.28 1104.8 Q1741.18 1107.99 1735.53 1113.76 Z" fill="#000000" fill-rule="evenodd" fill-opacity="1" /><path clip-path="url(#clip640)" d="M1790.91 970.396 Q1794.26 971.113 1796.14 973.382 Q1798.04 975.65 1798.04 978.984 Q1798.04 984.099 1794.52 986.9 Q1791 989.701 1784.52 989.701 Q1782.34 989.701 1780.03 989.261 Q1777.73 988.845 1775.28 987.988 L1775.28 983.474 Q1777.23 984.609 1779.54 985.187 Q1781.86 985.766 1784.38 985.766 Q1788.78 985.766 1791.07 984.03 Q1793.38 982.294 1793.38 978.984 Q1793.38 975.928 1791.23 974.215 Q1789.1 972.479 1785.28 972.479 L1781.25 972.479 L1781.25 968.636 L1785.47 968.636 Q1788.92 968.636 1790.74 967.271 Q1792.57 965.882 1792.57 963.289 Q1792.57 960.627 1790.67 959.215 Q1788.8 957.78 1785.28 957.78 Q1783.36 957.78 1781.16 958.197 Q1778.96 958.613 1776.32 959.493 L1776.32 955.326 Q1778.98 954.586 1781.3 954.215 Q1783.64 953.845 1785.7 953.845 Q1791.02 953.845 1794.12 956.275 Q1797.23 958.683 1797.23 962.803 Q1797.23 965.673 1795.58 967.664 Q1793.94 969.632 1790.91 970.396 Z" fill="#000000" fill-rule="evenodd" fill-opacity="1" /><polyline clip-path="url(#clip642)" style="stroke:#000000; stroke-linecap:butt; stroke-linejoin:round; stroke-width:2; stroke-opacity:0.1; fill:none" points="
  788.047,1274.78 932.335,865.633 
  "/>
<polyline clip-path="url(#clip642)" style="stroke:#000000; stroke-linecap:butt; stroke-linejoin:round; stroke-width:2; stroke-opacity:0.1; fill:none" points="
  932.335,865.633 1750.64,937.778 
  "/>
<polyline clip-path="url(#clip642)" style="stroke:#000000; stroke-linecap:butt; stroke-linejoin:round; stroke-width:2; stroke-opacity:0.1; fill:none" points="
  788.047,1105.07 932.335,695.916 
  "/>
<polyline clip-path="url(#clip642)" style="stroke:#000000; stroke-linecap:butt; stroke-linejoin:round; stroke-width:2; stroke-opacity:0.1; fill:none" points="
  932.335,695.916 1750.64,768.06 
  "/>
<polyline clip-path="url(#clip642)" style="stroke:#000000; stroke-linecap:butt; stroke-linejoin:round; stroke-width:2; stroke-opacity:0.1; fill:none" points="
  788.047,935.349 932.335,526.199 
  "/>
<polyline clip-path="url(#clip642)" style="stroke:#000000; stroke-linecap:butt; stroke-linejoin:round; stroke-width:2; stroke-opacity:0.1; fill:none" points="
  932.335,526.199 1750.64,598.343 
  "/>
<polyline clip-path="url(#clip642)" style="stroke:#000000; stroke-linecap:butt; stroke-linejoin:round; stroke-width:2; stroke-opacity:0.1; fill:none" points="
  788.047,765.632 932.335,356.481 
  "/>
<polyline clip-path="url(#clip642)" style="stroke:#000000; stroke-linecap:butt; stroke-linejoin:round; stroke-width:2; stroke-opacity:0.1; fill:none" points="
  932.335,356.481 1750.64,428.625 
  "/>
<polyline clip-path="url(#clip642)" style="stroke:#000000; stroke-linecap:butt; stroke-linejoin:round; stroke-width:2; stroke-opacity:0.1; fill:none" points="
  788.047,595.914 932.335,186.764 
  "/>
<polyline clip-path="url(#clip642)" style="stroke:#000000; stroke-linecap:butt; stroke-linejoin:round; stroke-width:2; stroke-opacity:0.1; fill:none" points="
  932.335,186.764 1750.64,258.908 
  "/>
<polyline clip-path="url(#clip640)" style="stroke:#000000; stroke-linecap:butt; stroke-linejoin:round; stroke-width:4; stroke-opacity:1; fill:none" points="
  788.047,1295.15 788.047,575.548 
  "/>
<polyline clip-path="url(#clip640)" style="stroke:#000000; stroke-linecap:butt; stroke-linejoin:round; stroke-width:4; stroke-opacity:1; fill:none" points="
  788.047,1274.78 789.778,1269.87 
  "/>
<polyline clip-path="url(#clip640)" style="stroke:#000000; stroke-linecap:butt; stroke-linejoin:round; stroke-width:4; stroke-opacity:1; fill:none" points="
  788.047,1105.07 789.778,1100.16 
  "/>
<polyline clip-path="url(#clip640)" style="stroke:#000000; stroke-linecap:butt; stroke-linejoin:round; stroke-width:4; stroke-opacity:1; fill:none" points="
  788.047,935.349 789.778,930.439 
  "/>
<polyline clip-path="url(#clip640)" style="stroke:#000000; stroke-linecap:butt; stroke-linejoin:round; stroke-width:4; stroke-opacity:1; fill:none" points="
  788.047,765.632 789.778,760.722 
  "/>
<polyline clip-path="url(#clip640)" style="stroke:#000000; stroke-linecap:butt; stroke-linejoin:round; stroke-width:4; stroke-opacity:1; fill:none" points="
  788.047,595.914 789.778,591.004 
  "/>
<path clip-path="url(#clip640)" d="M662.719 1288.13 L670.358 1288.13 L670.358 1261.76 L662.048 1263.43 L662.048 1259.17 L670.312 1257.5 L674.988 1257.5 L674.988 1288.13 L682.627 1288.13 L682.627 1292.06 L662.719 1292.06 L662.719 1288.13 Z" fill="#000000" fill-rule="evenodd" fill-opacity="1" /><path clip-path="url(#clip640)" d="M692.071 1286.18 L696.955 1286.18 L696.955 1292.06 L692.071 1292.06 L692.071 1286.18 Z" fill="#000000" fill-rule="evenodd" fill-opacity="1" /><path clip-path="url(#clip640)" d="M717.14 1260.58 Q713.529 1260.58 711.7 1264.15 Q709.895 1267.69 709.895 1274.82 Q709.895 1281.93 711.7 1285.49 Q713.529 1289.03 717.14 1289.03 Q720.775 1289.03 722.58 1285.49 Q724.409 1281.93 724.409 1274.82 Q724.409 1267.69 722.58 1264.15 Q720.775 1260.58 717.14 1260.58 M717.14 1256.88 Q722.95 1256.88 726.006 1261.49 Q729.085 1266.07 729.085 1274.82 Q729.085 1283.55 726.006 1288.15 Q722.95 1292.74 717.14 1292.74 Q711.33 1292.74 708.251 1288.15 Q705.196 1283.55 705.196 1274.82 Q705.196 1266.07 708.251 1261.49 Q711.33 1256.88 717.14 1256.88 Z" fill="#000000" fill-rule="evenodd" fill-opacity="1" /><path clip-path="url(#clip640)" d="M747.302 1260.58 Q743.691 1260.58 741.862 1264.15 Q740.057 1267.69 740.057 1274.82 Q740.057 1281.93 741.862 1285.49 Q743.691 1289.03 747.302 1289.03 Q750.936 1289.03 752.742 1285.49 Q754.571 1281.93 754.571 1274.82 Q754.571 1267.69 752.742 1264.15 Q750.936 1260.58 747.302 1260.58 M747.302 1256.88 Q753.112 1256.88 756.168 1261.49 Q759.247 1266.07 759.247 1274.82 Q759.247 1283.55 756.168 1288.15 Q753.112 1292.74 747.302 1292.74 Q741.492 1292.74 738.413 1288.15 Q735.358 1283.55 735.358 1274.82 Q735.358 1266.07 738.413 1261.49 Q741.492 1256.88 747.302 1256.88 Z" fill="#000000" fill-rule="evenodd" fill-opacity="1" /><path clip-path="url(#clip640)" d="M663.715 1118.41 L671.353 1118.41 L671.353 1092.05 L663.043 1093.71 L663.043 1089.45 L671.307 1087.79 L675.983 1087.79 L675.983 1118.41 L683.622 1118.41 L683.622 1122.35 L663.715 1122.35 L663.715 1118.41 Z" fill="#000000" fill-rule="evenodd" fill-opacity="1" /><path clip-path="url(#clip640)" d="M693.066 1116.47 L697.951 1116.47 L697.951 1122.35 L693.066 1122.35 L693.066 1116.47 Z" fill="#000000" fill-rule="evenodd" fill-opacity="1" /><path clip-path="url(#clip640)" d="M712.163 1118.41 L728.483 1118.41 L728.483 1122.35 L706.538 1122.35 L706.538 1118.41 Q709.2 1115.66 713.784 1111.03 Q718.39 1106.37 719.571 1105.03 Q721.816 1102.51 722.696 1100.77 Q723.599 1099.01 723.599 1097.32 Q723.599 1094.57 721.654 1092.83 Q719.733 1091.1 716.631 1091.1 Q714.432 1091.1 711.978 1091.86 Q709.548 1092.62 706.77 1094.18 L706.77 1089.45 Q709.594 1088.32 712.048 1087.74 Q714.501 1087.16 716.538 1087.16 Q721.909 1087.16 725.103 1089.85 Q728.298 1092.53 728.298 1097.02 Q728.298 1099.15 727.487 1101.07 Q726.7 1102.97 724.594 1105.56 Q724.015 1106.24 720.913 1109.45 Q717.812 1112.65 712.163 1118.41 Z" fill="#000000" fill-rule="evenodd" fill-opacity="1" /><path clip-path="url(#clip640)" d="M738.344 1087.79 L756.7 1087.79 L756.7 1091.72 L742.626 1091.72 L742.626 1100.19 Q743.645 1099.85 744.663 1099.68 Q745.682 1099.5 746.7 1099.5 Q752.487 1099.5 755.867 1102.67 Q759.247 1105.84 759.247 1111.26 Q759.247 1116.84 755.774 1119.94 Q752.302 1123.02 745.983 1123.02 Q743.807 1123.02 741.538 1122.65 Q739.293 1122.28 736.886 1121.54 L736.886 1116.84 Q738.969 1117.97 741.191 1118.53 Q743.413 1119.08 745.89 1119.08 Q749.895 1119.08 752.233 1116.98 Q754.571 1114.87 754.571 1111.26 Q754.571 1107.65 752.233 1105.54 Q749.895 1103.43 745.89 1103.43 Q744.015 1103.43 742.14 1103.85 Q740.288 1104.27 738.344 1105.15 L738.344 1087.79 Z" fill="#000000" fill-rule="evenodd" fill-opacity="1" /><path clip-path="url(#clip640)" d="M662.719 948.694 L670.358 948.694 L670.358 922.328 L662.048 923.995 L662.048 919.736 L670.312 918.069 L674.988 918.069 L674.988 948.694 L682.627 948.694 L682.627 952.629 L662.719 952.629 L662.719 948.694 Z" fill="#000000" fill-rule="evenodd" fill-opacity="1" /><path clip-path="url(#clip640)" d="M692.071 946.75 L696.955 946.75 L696.955 952.629 L692.071 952.629 L692.071 946.75 Z" fill="#000000" fill-rule="evenodd" fill-opacity="1" /><path clip-path="url(#clip640)" d="M707.187 918.069 L725.543 918.069 L725.543 922.004 L711.469 922.004 L711.469 930.476 Q712.488 930.129 713.506 929.967 Q714.525 929.782 715.543 929.782 Q721.33 929.782 724.71 932.953 Q728.089 936.125 728.089 941.541 Q728.089 947.12 724.617 950.222 Q721.145 953.3 714.825 953.3 Q712.65 953.3 710.381 952.93 Q708.136 952.56 705.728 951.819 L705.728 947.12 Q707.812 948.254 710.034 948.81 Q712.256 949.365 714.733 949.365 Q718.737 949.365 721.075 947.259 Q723.413 945.152 723.413 941.541 Q723.413 937.93 721.075 935.824 Q718.737 933.717 714.733 933.717 Q712.858 933.717 710.983 934.134 Q709.131 934.551 707.187 935.43 L707.187 918.069 Z" fill="#000000" fill-rule="evenodd" fill-opacity="1" /><path clip-path="url(#clip640)" d="M747.302 921.148 Q743.691 921.148 741.862 924.713 Q740.057 928.254 740.057 935.384 Q740.057 942.49 741.862 946.055 Q743.691 949.597 747.302 949.597 Q750.936 949.597 752.742 946.055 Q754.571 942.49 754.571 935.384 Q754.571 928.254 752.742 924.713 Q750.936 921.148 747.302 921.148 M747.302 917.444 Q753.112 917.444 756.168 922.051 Q759.247 926.634 759.247 935.384 Q759.247 944.111 756.168 948.717 Q753.112 953.3 747.302 953.3 Q741.492 953.3 738.413 948.717 Q735.358 944.111 735.358 935.384 Q735.358 926.634 738.413 922.051 Q741.492 917.444 747.302 917.444 Z" fill="#000000" fill-rule="evenodd" fill-opacity="1" /><path clip-path="url(#clip640)" d="M663.715 778.977 L671.353 778.977 L671.353 752.611 L663.043 754.278 L663.043 750.018 L671.307 748.352 L675.983 748.352 L675.983 778.977 L683.622 778.977 L683.622 782.912 L663.715 782.912 L663.715 778.977 Z" fill="#000000" fill-rule="evenodd" fill-opacity="1" /><path clip-path="url(#clip640)" d="M693.066 777.032 L697.951 777.032 L697.951 782.912 L693.066 782.912 L693.066 777.032 Z" fill="#000000" fill-rule="evenodd" fill-opacity="1" /><path clip-path="url(#clip640)" d="M706.955 748.352 L729.177 748.352 L729.177 750.342 L716.631 782.912 L711.747 782.912 L723.552 752.287 L706.955 752.287 L706.955 748.352 Z" fill="#000000" fill-rule="evenodd" fill-opacity="1" /><path clip-path="url(#clip640)" d="M738.344 748.352 L756.7 748.352 L756.7 752.287 L742.626 752.287 L742.626 760.759 Q743.645 760.412 744.663 760.25 Q745.682 760.065 746.7 760.065 Q752.487 760.065 755.867 763.236 Q759.247 766.407 759.247 771.824 Q759.247 777.402 755.774 780.504 Q752.302 783.583 745.983 783.583 Q743.807 783.583 741.538 783.213 Q739.293 782.842 736.886 782.102 L736.886 777.402 Q738.969 778.537 741.191 779.092 Q743.413 779.648 745.89 779.648 Q749.895 779.648 752.233 777.541 Q754.571 775.435 754.571 771.824 Q754.571 768.213 752.233 766.106 Q749.895 764 745.89 764 Q744.015 764 742.14 764.416 Q740.288 764.833 738.344 765.713 L738.344 748.352 Z" fill="#000000" fill-rule="evenodd" fill-opacity="1" /><path clip-path="url(#clip640)" d="M665.937 609.259 L682.256 609.259 L682.256 613.194 L660.312 613.194 L660.312 609.259 Q662.974 606.504 667.557 601.875 Q672.164 597.222 673.344 595.88 Q675.59 593.356 676.469 591.62 Q677.372 589.861 677.372 588.171 Q677.372 585.417 675.428 583.681 Q673.506 581.944 670.404 581.944 Q668.205 581.944 665.752 582.708 Q663.321 583.472 660.543 585.023 L660.543 580.301 Q663.367 579.167 665.821 578.588 Q668.275 578.009 670.312 578.009 Q675.682 578.009 678.877 580.694 Q682.071 583.38 682.071 587.87 Q682.071 590 681.261 591.921 Q680.474 593.819 678.367 596.412 Q677.789 597.083 674.687 600.301 Q671.585 603.495 665.937 609.259 Z" fill="#000000" fill-rule="evenodd" fill-opacity="1" /><path clip-path="url(#clip640)" d="M692.071 607.315 L696.955 607.315 L696.955 613.194 L692.071 613.194 L692.071 607.315 Z" fill="#000000" fill-rule="evenodd" fill-opacity="1" /><path clip-path="url(#clip640)" d="M717.14 581.713 Q713.529 581.713 711.7 585.278 Q709.895 588.819 709.895 595.949 Q709.895 603.055 711.7 606.62 Q713.529 610.162 717.14 610.162 Q720.775 610.162 722.58 606.62 Q724.409 603.055 724.409 595.949 Q724.409 588.819 722.58 585.278 Q720.775 581.713 717.14 581.713 M717.14 578.009 Q722.95 578.009 726.006 582.616 Q729.085 587.199 729.085 595.949 Q729.085 604.676 726.006 609.282 Q722.95 613.866 717.14 613.866 Q711.33 613.866 708.251 609.282 Q705.196 604.676 705.196 595.949 Q705.196 587.199 708.251 582.616 Q711.33 578.009 717.14 578.009 Z" fill="#000000" fill-rule="evenodd" fill-opacity="1" /><path clip-path="url(#clip640)" d="M747.302 581.713 Q743.691 581.713 741.862 585.278 Q740.057 588.819 740.057 595.949 Q740.057 603.055 741.862 606.62 Q743.691 610.162 747.302 610.162 Q750.936 610.162 752.742 606.62 Q754.571 603.055 754.571 595.949 Q754.571 588.819 752.742 585.278 Q750.936 581.713 747.302 581.713 M747.302 578.009 Q753.112 578.009 756.168 582.616 Q759.247 587.199 759.247 595.949 Q759.247 604.676 756.168 609.282 Q753.112 613.866 747.302 613.866 Q741.492 613.866 738.413 609.282 Q735.358 604.676 735.358 595.949 Q735.358 587.199 738.413 582.616 Q741.492 578.009 747.302 578.009 Z" fill="#000000" fill-rule="evenodd" fill-opacity="1" /><polyline clip-path="url(#clip642)" style="stroke:#0000ff; stroke-linecap:butt; stroke-linejoin:round; stroke-width:4; stroke-opacity:1; fill:none" points="
  815.29,1265.25 838.18,1267.26 861.072,1269.28 883.968,1271.28 906.879,1273.24 929.85,1275.03 953.038,1276.19 976.962,1275.17 1002.74,1268.07 1030.72,1252.36 
  1058.87,1235.91 1084.95,1227.73 1109.04,1226.22 1132.28,1227.24 1155.26,1228.99 1178.18,1230.93 1201.07,1232.94 1223.95,1234.98 1246.81,1237.1 1269.57,1239.49 
  1291.96,1242.89 1313.11,1249.61 1331.04,1264 1345.78,1285.21 1362.18,1302.95 1382.36,1312.07 1404.45,1316.32 1427.12,1318.96 1449.95,1321.14 1472.83,1323.2 
  1495.71,1325.23 1518.6,1327.25 1541.49,1329.27 1564.38,1331.29 1587.27,1333.31 
  "/>
<polyline clip-path="url(#clip642)" style="stroke:#0000ff; stroke-linecap:butt; stroke-linejoin:round; stroke-width:4; stroke-opacity:1; fill:none" points="
  815.445,1264.81 838.335,1266.82 861.227,1268.84 884.122,1270.84 907.034,1272.8 930.004,1274.59 953.192,1275.75 977.114,1274.74 1002.89,1267.65 1030.87,1251.96 
  1059,1235.53 1085.09,1227.36 1109.17,1225.86 1132.41,1226.87 1155.39,1228.62 1178.31,1230.57 1201.2,1232.57 1224.08,1234.61 1246.94,1236.73 1269.7,1239.12 
  1292.09,1242.52 1313.24,1249.24 1331.18,1263.62 1345.92,1284.8 1362.33,1302.52 1382.52,1311.64 1404.6,1315.88 1427.28,1318.52 1450.11,1320.7 1472.98,1322.76 
  1495.87,1324.79 1518.76,1326.81 1541.65,1328.83 1564.54,1330.85 1587.43,1332.87 
  "/>
<polyline clip-path="url(#clip642)" style="stroke:#0000ff; stroke-linecap:butt; stroke-linejoin:round; stroke-width:4; stroke-opacity:1; fill:none" points="
  815.635,1264.27 838.525,1266.28 861.417,1268.3 884.312,1270.3 907.223,1272.26 930.193,1274.05 953.38,1275.21 977.301,1274.2 1003.08,1267.13 1031.04,1251.46 
  1059.17,1235.06 1085.25,1226.91 1109.33,1225.4 1132.57,1226.42 1155.55,1228.17 1178.47,1230.12 1201.36,1232.12 1224.24,1234.16 1247.1,1236.28 1269.86,1238.67 
  1292.25,1242.07 1313.4,1248.78 1331.34,1263.14 1346.1,1284.3 1362.52,1302 1382.71,1311.1 1404.8,1315.35 1427.47,1317.98 1450.3,1320.16 1473.17,1322.22 
  1496.06,1324.25 1518.95,1326.27 1541.84,1328.29 1564.73,1330.31 1587.62,1332.33 
  "/>
<polyline clip-path="url(#clip642)" style="stroke:#0000ff; stroke-linecap:butt; stroke-linejoin:round; stroke-width:4; stroke-opacity:1; fill:none" points="
  815.869,1263.6 838.759,1265.62 861.65,1267.63 884.545,1269.64 907.455,1271.59 930.425,1273.38 953.611,1274.55 977.53,1273.55 1003.3,1266.49 1031.26,1250.85 
  1059.38,1234.48 1085.45,1226.34 1109.53,1224.85 1132.76,1225.87 1155.75,1227.62 1178.66,1229.57 1201.56,1231.57 1224.44,1233.61 1247.29,1235.73 1270.05,1238.12 
  1292.45,1241.51 1313.6,1248.21 1331.55,1262.55 1346.32,1283.68 1362.75,1301.35 1382.95,1310.44 1405.03,1314.68 1427.7,1317.32 1450.53,1319.5 1473.41,1321.56 
  1496.29,1323.59 1519.18,1325.61 1542.07,1327.63 1564.96,1329.65 1587.85,1331.66 
  "/>
<polyline clip-path="url(#clip642)" style="stroke:#0000ff; stroke-linecap:butt; stroke-linejoin:round; stroke-width:4; stroke-opacity:1; fill:none" points="
  816.156,1262.79 839.045,1264.81 861.936,1266.82 884.831,1268.82 907.741,1270.78 930.71,1272.57 953.895,1273.74 977.811,1272.74 1003.57,1265.7 1031.52,1250.1 
  1059.63,1233.77 1085.69,1225.66 1109.77,1224.17 1133.01,1225.19 1155.99,1226.94 1178.9,1228.89 1201.8,1230.89 1224.68,1232.93 1247.53,1235.05 1270.29,1237.44 
  1292.69,1240.83 1313.84,1247.52 1331.8,1261.84 1346.59,1282.92 1363.03,1300.56 1383.23,1309.64 1405.32,1313.87 1427.99,1316.5 1450.82,1318.68 1473.7,1320.74 
  1496.58,1322.77 1519.47,1324.8 1542.36,1326.81 1565.25,1328.83 1588.14,1330.85 
  "/>
<polyline clip-path="url(#clip642)" style="stroke:#0000ff; stroke-linecap:butt; stroke-linejoin:round; stroke-width:4; stroke-opacity:1; fill:none" points="
  816.508,1261.79 839.397,1263.81 862.287,1265.82 885.181,1267.82 908.091,1269.78 931.059,1271.57 954.243,1272.75 978.156,1271.75 1003.91,1264.74 1031.84,1249.18 
  1059.94,1232.9 1085.99,1224.81 1110.07,1223.33 1133.3,1224.36 1156.28,1226.11 1179.2,1228.05 1202.09,1230.06 1224.97,1232.1 1247.82,1234.22 1270.58,1236.61 
  1292.98,1239.99 1314.14,1246.67 1332.11,1260.95 1346.92,1281.99 1363.38,1299.59 1383.59,1308.65 1405.68,1312.88 1428.35,1315.5 1451.18,1317.69 1474.05,1319.75 
  1496.94,1321.78 1519.82,1323.8 1542.71,1325.82 1565.6,1327.83 1588.49,1329.85 
  "/>
<polyline clip-path="url(#clip642)" style="stroke:#0000ff; stroke-linecap:butt; stroke-linejoin:round; stroke-width:4; stroke-opacity:1; fill:none" points="
  816.94,1260.57 839.828,1262.58 862.718,1264.6 885.611,1266.6 908.52,1268.56 931.488,1270.35 954.67,1271.52 978.579,1270.54 1004.32,1263.55 1032.24,1248.05 
  1060.32,1231.83 1086.36,1223.78 1110.43,1222.31 1133.66,1223.34 1156.64,1225.09 1179.56,1227.03 1202.45,1229.04 1225.33,1231.08 1248.18,1233.2 1270.94,1235.58 
  1293.34,1238.97 1314.5,1245.63 1332.49,1259.87 1347.33,1280.85 1363.81,1298.39 1384.02,1307.43 1406.11,1311.65 1428.78,1314.28 1451.61,1316.46 1474.49,1318.52 
  1497.37,1320.55 1520.26,1322.57 1543.15,1324.59 1566.03,1326.61 1588.92,1328.63 
  "/>
<polyline clip-path="url(#clip642)" style="stroke:#0000ff; stroke-linecap:butt; stroke-linejoin:round; stroke-width:4; stroke-opacity:1; fill:none" points="
  817.469,1259.07 840.357,1261.08 863.246,1263.1 886.138,1265.1 909.047,1267.06 932.013,1268.85 955.193,1270.03 979.098,1269.06 1004.83,1262.11 1032.73,1246.67 
  1060.78,1230.52 1086.81,1222.51 1110.88,1221.05 1134.11,1222.08 1157.09,1223.84 1180,1225.78 1202.89,1227.79 1225.77,1229.83 1248.62,1231.94 1271.38,1234.33 
  1293.78,1237.71 1314.95,1244.35 1332.96,1258.55 1347.82,1279.45 1364.33,1296.93 1384.55,1305.94 1406.65,1310.16 1429.32,1312.78 1452.15,1314.96 1475.02,1317.02 
  1497.9,1319.05 1520.79,1321.07 1543.68,1323.09 1566.56,1325.11 1589.45,1327.13 
  "/>
<polyline clip-path="url(#clip642)" style="stroke:#0000ff; stroke-linecap:butt; stroke-linejoin:round; stroke-width:4; stroke-opacity:1; fill:none" points="
  818.117,1257.23 841.004,1259.24 863.892,1261.26 886.784,1263.26 909.691,1265.22 932.656,1267.01 955.834,1268.2 979.733,1267.24 1005.45,1260.33 1033.32,1244.98 
  1061.35,1228.92 1087.37,1220.95 1111.42,1219.51 1134.65,1220.55 1157.63,1222.3 1180.54,1224.25 1203.43,1226.25 1226.31,1228.3 1249.16,1230.41 1271.92,1232.8 
  1294.32,1236.17 1315.5,1242.79 1333.53,1256.93 1348.43,1277.74 1364.97,1295.15 1385.2,1304.12 1407.3,1308.32 1429.97,1310.95 1452.8,1313.12 1475.67,1315.18 
  1498.56,1317.21 1521.44,1319.23 1544.33,1321.25 1567.21,1323.27 1590.1,1325.29 
  "/>
<polyline clip-path="url(#clip642)" style="stroke:#0000ff; stroke-linecap:butt; stroke-linejoin:round; stroke-width:4; stroke-opacity:1; fill:none" points="
  818.91,1254.98 841.796,1257 864.683,1259.01 887.573,1261.01 910.479,1262.97 933.443,1264.77 956.618,1265.95 980.51,1265.01 1006.21,1258.16 1034.05,1242.92 
  1062.05,1226.96 1088.04,1219.05 1112.09,1217.63 1135.32,1218.68 1158.3,1220.43 1181.21,1222.38 1204.1,1224.38 1226.97,1226.42 1249.82,1228.54 1272.58,1230.92 
  1294.98,1234.28 1316.17,1240.88 1334.23,1254.94 1349.18,1275.64 1365.75,1292.96 1386,1301.89 1408.1,1306.08 1430.77,1308.7 1453.6,1310.88 1476.47,1312.94 
  1499.35,1314.97 1522.24,1316.99 1545.12,1319.01 1568.01,1321.02 1590.89,1323.04 
  "/>
<polyline clip-path="url(#clip642)" style="stroke:#0000ff; stroke-linecap:butt; stroke-linejoin:round; stroke-width:4; stroke-opacity:1; fill:none" points="
  819.879,1252.23 842.763,1254.25 865.649,1256.26 888.538,1258.27 911.443,1260.22 934.404,1262.02 957.576,1263.21 981.459,1262.3 1007.14,1255.51 1034.94,1240.39 
  1062.9,1224.56 1088.87,1216.73 1112.91,1215.34 1136.13,1216.38 1159.11,1218.14 1182.01,1220.09 1204.9,1222.09 1227.78,1224.14 1250.63,1226.25 1273.39,1228.63 
  1295.79,1231.98 1316.99,1238.54 1335.08,1252.52 1350.09,1273.08 1366.7,1290.28 1386.97,1299.17 1409.08,1303.34 1431.75,1305.96 1454.58,1308.13 1477.45,1310.19 
  1500.33,1312.22 1523.21,1314.24 1546.09,1316.26 1568.98,1318.28 1591.86,1320.29 
  "/>
<polyline clip-path="url(#clip642)" style="stroke:#0000ff; stroke-linecap:butt; stroke-linejoin:round; stroke-width:4; stroke-opacity:1; fill:none" points="
  821.06,1248.88 843.943,1250.9 866.827,1252.91 889.715,1254.91 912.618,1256.87 935.577,1258.67 958.745,1259.87 982.617,1258.98 1008.27,1252.27 1036.03,1237.31 
  1063.94,1221.64 1089.88,1213.89 1113.91,1212.53 1137.12,1213.59 1160.1,1215.35 1183,1217.3 1205.89,1219.3 1228.76,1221.34 1251.61,1223.45 1274.37,1225.83 
  1296.78,1229.17 1317.99,1235.69 1336.12,1249.56 1351.2,1269.95 1367.87,1287.02 1388.16,1295.85 1410.27,1300 1432.94,1302.61 1455.77,1304.78 1478.64,1306.84 
  1501.51,1308.87 1524.4,1310.89 1547.28,1312.91 1570.16,1314.93 1593.04,1316.94 
  "/>
<polyline clip-path="url(#clip642)" style="stroke:#0000ff; stroke-linecap:butt; stroke-linejoin:round; stroke-width:4; stroke-opacity:1; fill:none" points="
  822.5,1244.8 845.381,1246.82 868.262,1248.83 891.148,1250.83 914.049,1252.79 937.005,1254.59 960.168,1255.8 984.027,1254.94 1009.65,1248.33 1037.35,1233.55 
  1065.2,1218.08 1091.11,1210.44 1115.12,1209.12 1138.33,1210.19 1161.3,1211.95 1184.21,1213.9 1207.09,1215.9 1229.96,1217.94 1252.81,1220.05 1275.57,1222.42 
  1297.98,1225.75 1319.2,1232.22 1337.39,1245.96 1352.55,1266.15 1369.29,1283.05 1389.6,1291.8 1411.72,1295.93 1434.39,1298.53 1457.22,1300.7 1480.08,1302.76 
  1502.96,1304.79 1525.84,1306.81 1548.72,1308.83 1571.6,1310.84 1594.48,1312.86 
  "/>
<polyline clip-path="url(#clip642)" style="stroke:#0000ff; stroke-linecap:butt; stroke-linejoin:round; stroke-width:4; stroke-opacity:1; fill:none" points="
  824.249,1239.84 847.127,1241.86 870.007,1243.87 892.89,1245.87 915.788,1247.83 938.741,1249.64 961.897,1250.86 985.741,1250.04 1011.32,1243.54 1038.95,1228.99 
  1066.74,1213.76 1092.6,1206.25 1116.6,1204.97 1139.8,1206.05 1162.77,1207.81 1185.67,1209.76 1208.55,1211.77 1231.42,1213.81 1254.27,1215.92 1277.02,1218.28 
  1299.44,1221.59 1320.68,1228 1338.93,1241.58 1354.19,1261.52 1371.01,1278.23 1391.36,1286.88 1413.48,1290.98 1436.16,1293.57 1458.98,1295.75 1481.85,1297.8 
  1504.72,1299.83 1527.6,1301.85 1550.47,1303.87 1573.35,1305.89 1596.23,1307.9 
  "/>
<polyline clip-path="url(#clip642)" style="stroke:#0000ff; stroke-linecap:butt; stroke-linejoin:round; stroke-width:4; stroke-opacity:1; fill:none" points="
  826.368,1233.83 849.244,1235.85 872.12,1237.86 895.001,1239.86 917.895,1241.82 940.845,1243.63 963.993,1244.86 987.818,1244.09 1013.35,1237.73 1040.9,1223.46 
  1068.6,1208.52 1094.41,1201.16 1118.38,1199.94 1141.58,1201.04 1164.54,1202.8 1187.44,1204.76 1210.32,1206.76 1233.19,1208.8 1256.03,1210.91 1278.78,1213.27 
  1301.21,1216.55 1322.47,1222.89 1340.8,1236.27 1356.18,1255.92 1373.1,1272.38 1393.49,1280.92 1415.62,1284.99 1438.3,1287.57 1461.12,1289.74 1483.98,1291.79 
  1506.85,1293.82 1529.73,1295.84 1552.6,1297.86 1575.48,1299.87 1598.35,1301.89 
  "/>
<polyline clip-path="url(#clip642)" style="stroke:#0000ff; stroke-linecap:butt; stroke-linejoin:round; stroke-width:4; stroke-opacity:1; fill:none" points="
  828.929,1226.57 851.801,1228.59 874.674,1230.6 897.551,1232.6 920.442,1234.56 943.386,1236.37 966.525,1237.62 990.327,1236.91 1015.8,1230.72 1043.25,1216.78 
  1070.85,1202.18 1096.6,1195.02 1120.54,1193.86 1143.73,1194.98 1166.69,1196.75 1189.58,1198.7 1212.46,1200.71 1235.32,1202.75 1258.16,1204.85 1280.91,1207.21 
  1303.34,1210.46 1324.64,1216.71 1343.05,1229.87 1358.59,1249.15 1375.62,1265.31 1396.06,1273.72 1418.21,1277.74 1440.88,1280.31 1463.7,1282.48 1486.56,1284.53 
  1509.43,1286.56 1532.3,1288.58 1555.17,1290.6 1578.04,1292.61 1600.91,1294.63 
  "/>
<polyline clip-path="url(#clip642)" style="stroke:#0000ff; stroke-linecap:butt; stroke-linejoin:round; stroke-width:4; stroke-opacity:1; fill:none" points="
  832.01,1217.83 854.878,1219.85 877.747,1221.86 900.619,1223.86 923.506,1225.83 946.444,1227.64 969.572,1228.91 993.347,1228.26 1018.75,1222.28 1046.08,1208.74 
  1073.56,1194.56 1099.23,1187.63 1123.14,1186.55 1146.32,1187.69 1169.27,1189.47 1192.16,1191.42 1215.03,1193.43 1237.89,1195.46 1260.73,1197.57 1283.48,1199.91 
  1305.91,1203.14 1327.25,1209.28 1345.77,1222.15 1361.48,1241 1378.66,1256.81 1399.15,1265.05 1421.31,1269.03 1443.99,1271.59 1466.81,1273.75 1489.66,1275.8 
  1512.52,1277.83 1535.39,1279.84 1558.26,1281.86 1581.12,1283.88 1603.99,1285.89 
  "/>
<polyline clip-path="url(#clip642)" style="stroke:#0000ff; stroke-linecap:butt; stroke-linejoin:round; stroke-width:4; stroke-opacity:1; fill:none" points="
  835.701,1207.37 858.564,1209.38 881.427,1211.39 904.295,1213.4 927.175,1215.36 950.106,1217.18 973.222,1218.47 996.963,1217.91 1022.28,1212.17 1049.47,1199.11 
  1076.8,1185.44 1102.38,1178.78 1126.26,1177.8 1149.42,1178.96 1172.36,1180.75 1195.24,1182.7 1218.11,1184.7 1240.97,1186.74 1263.8,1188.84 1286.55,1191.18 
  1308.99,1194.37 1330.37,1200.38 1349.02,1212.92 1364.95,1231.24 1382.3,1246.62 1402.86,1254.68 1425.04,1258.59 1447.71,1261.13 1470.53,1263.28 1493.37,1265.34 
  1516.23,1267.36 1539.1,1269.38 1561.96,1271.4 1584.82,1273.41 1607.68,1275.43 
  "/>
<polyline clip-path="url(#clip642)" style="stroke:#0000ff; stroke-linecap:butt; stroke-linejoin:round; stroke-width:4; stroke-opacity:1; fill:none" points="
  840.096,1194.9 862.953,1196.92 885.811,1198.93 908.672,1200.93 931.546,1202.9 954.468,1204.72 977.569,1206.04 1001.27,1205.57 1026.49,1200.13 1053.51,1187.65 
  1080.66,1174.56 1106.13,1168.24 1129.97,1167.37 1153.11,1168.56 1176.04,1170.36 1198.92,1172.32 1221.78,1174.32 1244.63,1176.35 1267.46,1178.45 1290.21,1180.77 
  1312.66,1183.92 1334.08,1189.78 1352.89,1201.91 1369.08,1219.62 1386.63,1234.49 1407.27,1242.32 1429.47,1246.16 1452.15,1248.68 1474.96,1250.82 1497.8,1252.88 
  1520.65,1254.9 1543.51,1256.92 1566.37,1258.93 1589.22,1260.95 1612.08,1262.96 
  "/>
<polyline clip-path="url(#clip642)" style="stroke:#0000ff; stroke-linecap:butt; stroke-linejoin:round; stroke-width:4; stroke-opacity:1; fill:none" points="
  845.297,1180.16 868.147,1182.17 890.997,1184.18 913.851,1186.18 936.717,1188.15 959.629,1189.99 982.711,1191.34 1006.37,1190.98 1031.47,1185.89 1058.29,1174.08 
  1085.23,1161.7 1110.57,1155.77 1134.35,1155.03 1157.48,1156.26 1180.4,1158.07 1203.27,1160.03 1226.12,1162.03 1248.96,1164.06 1271.79,1166.16 1294.53,1168.46 
  1317,1171.55 1338.48,1177.24 1357.47,1188.9 1373.96,1205.87 1391.76,1220.14 1412.49,1227.69 1434.72,1231.45 1457.39,1233.94 1480.2,1236.08 1503.04,1238.13 
  1525.88,1240.16 1548.73,1242.17 1571.58,1244.19 1594.43,1246.2 1617.28,1248.22 
  "/>
<polyline clip-path="url(#clip642)" style="stroke:#0000ff; stroke-linecap:butt; stroke-linejoin:round; stroke-width:4; stroke-opacity:1; fill:none" points="
  851.401,1162.85 874.243,1164.86 897.085,1166.87 919.93,1168.87 942.787,1170.84 965.688,1172.69 988.748,1174.07 1012.35,1173.86 1037.31,1169.17 1063.89,1158.16 
  1090.6,1146.61 1115.78,1141.13 1139.5,1140.55 1162.6,1141.83 1185.51,1143.64 1208.37,1145.6 1231.22,1147.6 1254.05,1149.64 1276.87,1151.72 1299.61,1154.01 
  1322.09,1157.04 1343.65,1162.51 1362.85,1173.62 1379.7,1189.73 1397.77,1203.29 1418.62,1210.53 1440.87,1214.18 1463.55,1216.65 1486.35,1218.78 1509.18,1220.83 
  1532.02,1222.85 1554.86,1224.86 1577.7,1226.88 1600.54,1228.89 1623.38,1230.91 
  "/>
<polyline clip-path="url(#clip642)" style="stroke:#0000ff; stroke-linecap:butt; stroke-linejoin:round; stroke-width:4; stroke-opacity:1; fill:none" points="
  858.501,1142.71 881.333,1144.73 904.165,1146.74 927.001,1148.74 949.847,1150.71 972.733,1152.57 995.768,1154 1019.31,1153.94 1044.11,1149.73 1070.42,1139.64 
  1096.83,1129.05 1121.85,1124.1 1145.49,1123.7 1168.56,1125.03 1191.46,1126.86 1214.31,1128.83 1237.14,1130.83 1259.97,1132.86 1282.78,1134.94 1305.52,1137.21 
  1328.01,1140.16 1349.65,1145.39 1369.1,1155.85 1386.36,1170.96 1404.77,1183.7 1425.75,1190.56 1448.03,1194.1 1470.72,1196.53 1493.51,1198.66 1516.33,1200.7 
  1539.16,1202.72 1561.99,1204.74 1584.82,1206.75 1607.65,1208.76 1630.48,1210.78 
  "/>
<polyline clip-path="url(#clip642)" style="stroke:#0000ff; stroke-linecap:butt; stroke-linejoin:round; stroke-width:4; stroke-opacity:1; fill:none" points="
  866.669,1119.55 889.49,1121.56 912.311,1123.57 935.135,1125.57 957.969,1127.55 980.84,1129.42 1003.85,1130.9 1027.31,1131.02 1051.93,1127.36 1077.92,1118.33 
  1104.01,1108.85 1128.82,1104.51 1152.38,1104.33 1175.42,1105.71 1198.3,1107.56 1221.14,1109.52 1243.96,1111.53 1266.78,1113.55 1289.57,1115.63 1312.31,1117.87 
  1334.83,1120.74 1356.56,1125.69 1376.29,1135.4 1394.04,1149.36 1412.82,1161.16 1433.96,1167.59 1456.27,1170.99 1478.96,1173.39 1501.74,1175.5 1524.55,1177.54 
  1547.37,1179.56 1570.19,1181.58 1593.01,1183.59 1615.83,1185.6 1638.65,1187.61 
  "/>
<polyline clip-path="url(#clip642)" style="stroke:#0000ff; stroke-linecap:butt; stroke-linejoin:round; stroke-width:4; stroke-opacity:1; fill:none" points="
  875.952,1093.23 898.76,1095.24 921.569,1097.25 944.38,1099.25 967.2,1101.23 990.052,1103.11 1013.02,1104.65 1036.41,1104.98 1060.82,1101.93 1086.45,1094.11 
  1112.17,1085.89 1136.75,1082.25 1160.22,1082.3 1183.22,1083.76 1206.08,1085.62 1228.9,1087.59 1251.71,1089.59 1274.51,1091.62 1297.3,1093.68 1320.04,1095.9 
  1342.57,1098.68 1364.41,1103.3 1384.47,1112.17 1402.76,1124.81 1421.97,1135.54 1443.28,1141.49 1465.64,1144.74 1488.32,1147.09 1511.1,1149.19 1533.9,1151.23 
  1556.7,1153.24 1579.51,1155.26 1602.32,1157.27 1625.13,1159.28 1647.93,1161.29 
  "/>
<polyline clip-path="url(#clip642)" style="stroke:#0000ff; stroke-linecap:butt; stroke-linejoin:round; stroke-width:4; stroke-opacity:1; fill:none" points="
  886.354,1063.73 909.148,1065.74 931.943,1067.75 954.739,1069.75 977.543,1071.73 1000.38,1073.63 1023.31,1075.23 1046.6,1075.79 1070.77,1073.44 1096,1066.98 
  1121.31,1060.16 1145.63,1057.3 1168.99,1057.62 1191.95,1059.15 1214.79,1061.03 1237.6,1063.01 1260.39,1065.01 1283.18,1067.03 1305.96,1069.09 1328.69,1071.28 
  1351.25,1073.95 1373.2,1078.21 1393.63,1086.13 1412.53,1097.31 1432.22,1106.83 1453.72,1112.24 1476.13,1115.32 1498.82,1117.62 1521.58,1119.71 1544.37,1121.74 
  1567.16,1123.75 1589.96,1125.76 1612.75,1127.77 1635.54,1129.78 1658.34,1131.79 
  "/>
<polyline clip-path="url(#clip642)" style="stroke:#0000ff; stroke-linecap:butt; stroke-linejoin:round; stroke-width:4; stroke-opacity:1; fill:none" points="
  897.829,1031.19 920.607,1033.2 943.386,1035.21 966.166,1037.21 988.953,1039.2 1011.76,1041.11 1034.66,1042.79 1057.84,1043.6 1081.76,1042.02 1106.54,1037.05 
  1131.39,1031.79 1155.42,1029.78 1178.67,1030.4 1201.59,1032.01 1224.4,1033.92 1247.19,1035.9 1269.97,1037.9 1292.75,1039.92 1315.51,1041.96 1338.24,1044.12 
  1360.82,1046.67 1382.91,1050.53 1403.74,1057.41 1423.3,1066.97 1443.53,1075.17 1465.24,1079.97 1487.7,1082.86 1510.39,1085.11 1533.15,1087.18 1555.92,1089.21 
  1578.7,1091.22 1601.48,1093.23 1624.25,1095.24 1647.03,1097.25 1669.81,1099.26 
  "/>
<polyline clip-path="url(#clip642)" style="stroke:#0000ff; stroke-linecap:butt; stroke-linejoin:round; stroke-width:4; stroke-opacity:1; fill:none" points="
  910.269,995.919 933.03,997.925 955.792,999.931 978.555,1001.93 1001.32,1003.92 1024.11,1005.86 1046.96,1007.61 1070.03,1008.7 1093.67,1007.95 1117.97,1004.59 
  1142.32,1001.02 1166.04,999.945 1189.17,1000.89 1212.03,1002.59 1234.82,1004.51 1257.59,1006.5 1280.35,1008.5 1303.11,1010.52 1325.86,1012.55 1348.58,1014.67 
  1371.2,1017.1 1393.43,1020.53 1414.69,1026.27 1434.99,1034.08 1455.79,1040.84 1477.73,1044.99 1500.25,1047.67 1522.95,1049.87 1545.69,1051.92 1568.45,1053.94 
  1591.21,1055.95 1613.97,1057.96 1636.73,1059.97 1659.49,1061.97 1682.25,1063.98 
  "/>
<polyline clip-path="url(#clip642)" style="stroke:#0000ff; stroke-linecap:butt; stroke-linejoin:round; stroke-width:4; stroke-opacity:1; fill:none" points="
  923.505,958.386 946.248,960.391 968.992,962.395 991.736,964.397 1014.48,966.39 1037.24,968.348 1060.05,970.178 1083,971.561 1106.34,971.697 1130.13,970.067 
  1153.95,968.287 1177.34,968.201 1200.33,969.483 1223.15,971.283 1245.91,973.233 1268.66,975.223 1291.4,977.225 1314.14,979.235 1336.88,981.261 1359.6,983.343 
  1382.24,985.631 1404.62,988.6 1426.35,993.143 1447.42,999.082 1468.84,1004.31 1491.02,1007.77 1513.6,1010.23 1536.3,1012.37 1559.03,1014.4 1581.77,1016.42 
  1604.51,1018.43 1627.26,1020.43 1650,1022.44 1672.74,1024.44 1695.49,1026.45 
  "/>
<polyline clip-path="url(#clip642)" style="stroke:#0000ff; stroke-linecap:butt; stroke-linejoin:round; stroke-width:4; stroke-opacity:1; fill:none" points="
  937.31,919.241 960.034,921.244 982.759,923.247 1005.48,925.249 1028.21,927.246 1050.94,929.226 1073.7,931.141 1096.53,932.83 1119.55,933.889 1142.81,934.056 
  1166.08,934.147 1189.13,935.093 1211.98,936.731 1234.74,938.631 1257.47,940.607 1280.2,942.603 1302.93,944.605 1325.65,946.611 1348.37,948.624 1371.08,950.667 
  1393.75,952.813 1416.3,955.304 1438.51,958.589 1460.39,962.581 1482.44,966.213 1504.89,968.952 1527.53,971.187 1550.23,973.254 1572.95,975.275 1595.67,977.283 
  1618.39,979.287 1641.12,981.291 1663.84,983.295 1686.57,985.298 1709.29,987.302 
  "/>
<polyline clip-path="url(#clip642)" style="stroke:#0000ff; stroke-linecap:butt; stroke-linejoin:round; stroke-width:4; stroke-opacity:1; fill:none" points="
  951.411,879.255 974.116,881.257 996.822,883.259 1019.53,885.26 1042.23,887.262 1064.94,889.264 1087.64,891.266 1110.35,893.267 1133.05,895.269 1155.76,897.271 
  1178.46,899.273 1201.17,901.275 1223.88,903.276 1246.58,905.278 1269.29,907.28 1291.99,909.282 1314.7,911.284 1337.4,913.285 1360.11,915.287 1382.81,917.289 
  1405.52,919.291 1428.22,921.292 1450.93,923.294 1473.63,925.296 1496.34,927.298 1519.04,929.3 1541.75,931.301 1564.46,933.303 1587.16,935.305 1609.87,937.307 
  1632.57,939.308 1655.28,941.31 1677.98,943.312 1700.69,945.314 1723.39,947.316 
  "/>
</svg>
