<?xml version="1.0" encoding="utf-8"?>
<svg xmlns="http://www.w3.org/2000/svg" xmlns:xlink="http://www.w3.org/1999/xlink" width="600" height="400" viewBox="0 0 2400 1600">
<defs>
  <clipPath id="clip490">
    <rect x="0" y="0" width="2400" height="1600"/>
  </clipPath>
</defs>
<path clip-path="url(#clip490)" d="
M0 1600 L2400 1600 L2400 0 L0 0  Z
  " fill="#ffffff" fill-rule="evenodd" fill-opacity="1"/>
<defs>
  <clipPath id="clip491">
    <rect x="480" y="0" width="1681" height="1600"/>
  </clipPath>
</defs>
<defs>
  <clipPath id="clip492">
    <rect x="110" y="47" width="2243" height="1440"/>
  </clipPath>
</defs>
<path clip-path="url(#clip492)" d="
M1523.77 1777.98 L1523.77 1325.4 L1541.92 1068.08 L1644.85 1113.45 L1644.85 1566.03 L1626.71 1823.36 L1523.77 1777.98  Z
  " fill="#ffffff" fill-rule="evenodd" fill-opacity="1"/>
<polyline clip-path="url(#clip492)" style="stroke:#000000; stroke-linecap:butt; stroke-linejoin:round; stroke-width:2; stroke-opacity:0.1; fill:none" points="
  825.149,1301.73 969.437,892.579 
  "/>
<polyline clip-path="url(#clip492)" style="stroke:#000000; stroke-linecap:butt; stroke-linejoin:round; stroke-width:2; stroke-opacity:0.1; fill:none" points="
  969.437,892.579 969.437,172.977 
  "/>
<polyline clip-path="url(#clip492)" style="stroke:#000000; stroke-linecap:butt; stroke-linejoin:round; stroke-width:2; stroke-opacity:0.1; fill:none" points="
  979.545,1315.34 1123.83,906.191 
  "/>
<polyline clip-path="url(#clip492)" style="stroke:#000000; stroke-linecap:butt; stroke-linejoin:round; stroke-width:2; stroke-opacity:0.1; fill:none" points="
  1123.83,906.191 1123.83,186.589 
  "/>
<polyline clip-path="url(#clip492)" style="stroke:#000000; stroke-linecap:butt; stroke-linejoin:round; stroke-width:2; stroke-opacity:0.1; fill:none" points="
  1133.94,1328.95 1278.23,919.803 
  "/>
<polyline clip-path="url(#clip492)" style="stroke:#000000; stroke-linecap:butt; stroke-linejoin:round; stroke-width:2; stroke-opacity:0.1; fill:none" points="
  1278.23,919.803 1278.23,200.201 
  "/>
<polyline clip-path="url(#clip492)" style="stroke:#000000; stroke-linecap:butt; stroke-linejoin:round; stroke-width:2; stroke-opacity:0.1; fill:none" points="
  1288.34,1342.57 1432.63,933.415 
  "/>
<polyline clip-path="url(#clip492)" style="stroke:#000000; stroke-linecap:butt; stroke-linejoin:round; stroke-width:2; stroke-opacity:0.1; fill:none" points="
  1432.63,933.415 1432.63,213.813 
  "/>
<polyline clip-path="url(#clip492)" style="stroke:#000000; stroke-linecap:butt; stroke-linejoin:round; stroke-width:2; stroke-opacity:0.1; fill:none" points="
  1442.73,1356.18 1587.02,947.027 
  "/>
<polyline clip-path="url(#clip492)" style="stroke:#000000; stroke-linecap:butt; stroke-linejoin:round; stroke-width:2; stroke-opacity:0.1; fill:none" points="
  1587.02,947.027 1587.02,227.425 
  "/>
<polyline clip-path="url(#clip490)" style="stroke:#000000; stroke-linecap:butt; stroke-linejoin:round; stroke-width:4; stroke-opacity:1; fill:none" points="
  750.524,1295.15 1568.82,1367.29 
  "/>
<polyline clip-path="url(#clip490)" style="stroke:#000000; stroke-linecap:butt; stroke-linejoin:round; stroke-width:4; stroke-opacity:1; fill:none" points="
  825.149,1301.73 826.88,1296.82 
  "/>
<polyline clip-path="url(#clip490)" style="stroke:#000000; stroke-linecap:butt; stroke-linejoin:round; stroke-width:4; stroke-opacity:1; fill:none" points="
  979.545,1315.34 981.276,1310.43 
  "/>
<polyline clip-path="url(#clip490)" style="stroke:#000000; stroke-linecap:butt; stroke-linejoin:round; stroke-width:4; stroke-opacity:1; fill:none" points="
  1133.94,1328.95 1135.67,1324.04 
  "/>
<polyline clip-path="url(#clip490)" style="stroke:#000000; stroke-linecap:butt; stroke-linejoin:round; stroke-width:4; stroke-opacity:1; fill:none" points="
  1288.34,1342.57 1290.07,1337.66 
  "/>
<polyline clip-path="url(#clip490)" style="stroke:#000000; stroke-linecap:butt; stroke-linejoin:round; stroke-width:4; stroke-opacity:1; fill:none" points="
  1442.73,1356.18 1444.47,1351.27 
  "/>
<path clip-path="url(#clip490)" d="M752.004 1328.53 L781.68 1328.53 L781.68 1332.47 L752.004 1332.47 L752.004 1328.53 Z" fill="#000000" fill-rule="evenodd" fill-opacity="1" /><path clip-path="url(#clip490)" d="M791.911 1344.64 L791.911 1340.39 Q793.671 1341.22 795.476 1341.66 Q797.282 1342.1 799.018 1342.1 Q803.647 1342.1 806.078 1339 Q808.532 1335.87 808.879 1329.53 Q807.536 1331.52 805.476 1332.58 Q803.416 1333.65 800.916 1333.65 Q795.731 1333.65 792.698 1330.52 Q789.689 1327.38 789.689 1321.94 Q789.689 1316.61 792.837 1313.39 Q795.985 1310.18 801.217 1310.18 Q807.212 1310.18 810.36 1314.78 Q813.532 1319.37 813.532 1328.12 Q813.532 1336.29 809.643 1341.17 Q805.777 1346.03 799.226 1346.03 Q797.467 1346.03 795.661 1345.69 Q793.856 1345.34 791.911 1344.64 M801.217 1329.99 Q804.365 1329.99 806.194 1327.84 Q808.046 1325.69 808.046 1321.94 Q808.046 1318.21 806.194 1316.06 Q804.365 1313.88 801.217 1313.88 Q798.069 1313.88 796.217 1316.06 Q794.388 1318.21 794.388 1321.94 Q794.388 1325.69 796.217 1327.84 Q798.069 1329.99 801.217 1329.99 Z" fill="#000000" fill-rule="evenodd" fill-opacity="1" /><path clip-path="url(#clip490)" d="M906.053 1342.15 L935.729 1342.15 L935.729 1346.08 L906.053 1346.08 L906.053 1342.15 Z" fill="#000000" fill-rule="evenodd" fill-opacity="1" /><path clip-path="url(#clip490)" d="M956.4 1339.83 Q953.252 1339.83 951.4 1341.98 Q949.572 1344.14 949.572 1347.89 Q949.572 1351.61 951.4 1353.79 Q953.252 1355.94 956.4 1355.94 Q959.548 1355.94 961.377 1353.79 Q963.229 1351.61 963.229 1347.89 Q963.229 1344.14 961.377 1341.98 Q959.548 1339.83 956.4 1339.83 M965.683 1325.18 L965.683 1329.44 Q963.923 1328.6 962.118 1328.16 Q960.335 1327.72 958.576 1327.72 Q953.947 1327.72 951.493 1330.85 Q949.062 1333.97 948.715 1340.29 Q950.081 1338.28 952.141 1337.22 Q954.201 1336.13 956.678 1336.13 Q961.886 1336.13 964.896 1339.3 Q967.928 1342.45 967.928 1347.89 Q967.928 1353.21 964.78 1356.43 Q961.632 1359.65 956.4 1359.65 Q950.405 1359.65 947.234 1355.06 Q944.062 1350.46 944.062 1341.73 Q944.062 1333.53 947.951 1328.67 Q951.84 1323.79 958.391 1323.79 Q960.15 1323.79 961.933 1324.14 Q963.738 1324.48 965.683 1325.18 Z" fill="#000000" fill-rule="evenodd" fill-opacity="1" /><path clip-path="url(#clip490)" d="M1061.26 1355.76 L1090.94 1355.76 L1090.94 1359.69 L1061.26 1359.69 L1061.26 1355.76 Z" fill="#000000" fill-rule="evenodd" fill-opacity="1" /><path clip-path="url(#clip490)" d="M1115.19 1353.95 Q1118.55 1354.67 1120.43 1356.94 Q1122.32 1359.21 1122.32 1362.54 Q1122.32 1367.66 1118.81 1370.46 Q1115.29 1373.26 1108.81 1373.26 Q1106.63 1373.26 1104.32 1372.82 Q1102.02 1372.4 1099.57 1371.54 L1099.57 1367.03 Q1101.51 1368.17 1103.83 1368.74 Q1106.14 1369.32 1108.67 1369.32 Q1113.07 1369.32 1115.36 1367.59 Q1117.67 1365.85 1117.67 1362.54 Q1117.67 1359.48 1115.52 1357.77 Q1113.39 1356.04 1109.57 1356.04 L1105.54 1356.04 L1105.54 1352.19 L1109.76 1352.19 Q1113.2 1352.19 1115.03 1350.83 Q1116.86 1349.44 1116.86 1346.85 Q1116.86 1344.18 1114.96 1342.77 Q1113.09 1341.34 1109.57 1341.34 Q1107.65 1341.34 1105.45 1341.75 Q1103.25 1342.17 1100.61 1343.05 L1100.61 1338.88 Q1103.27 1338.14 1105.59 1337.77 Q1107.93 1337.4 1109.99 1337.4 Q1115.31 1337.4 1118.41 1339.83 Q1121.51 1342.24 1121.51 1346.36 Q1121.51 1349.23 1119.87 1351.22 Q1118.23 1353.19 1115.19 1353.95 Z" fill="#000000" fill-rule="evenodd" fill-opacity="1" /><path clip-path="url(#clip490)" d="M1264.78 1354.72 Q1261.17 1354.72 1259.34 1358.28 Q1257.53 1361.82 1257.53 1368.95 Q1257.53 1376.06 1259.34 1379.62 Q1261.17 1383.17 1264.78 1383.17 Q1268.41 1383.17 1270.22 1379.62 Q1272.04 1376.06 1272.04 1368.95 Q1272.04 1361.82 1270.22 1358.28 Q1268.41 1354.72 1264.78 1354.72 M1264.78 1351.01 Q1270.59 1351.01 1273.64 1355.62 Q1276.72 1360.2 1276.72 1368.95 Q1276.72 1377.68 1273.64 1382.29 Q1270.59 1386.87 1264.78 1386.87 Q1258.97 1386.87 1255.89 1382.29 Q1252.83 1377.68 1252.83 1368.95 Q1252.83 1360.2 1255.89 1355.62 Q1258.97 1351.01 1264.78 1351.01 Z" fill="#000000" fill-rule="evenodd" fill-opacity="1" /><path clip-path="url(#clip490)" d="M1423.99 1381.18 Q1427.34 1381.89 1429.22 1384.16 Q1431.12 1386.43 1431.12 1389.76 Q1431.12 1394.88 1427.6 1397.68 Q1424.08 1400.48 1417.6 1400.48 Q1415.42 1400.48 1413.11 1400.04 Q1410.82 1399.63 1408.36 1398.77 L1408.36 1394.26 Q1410.31 1395.39 1412.62 1395.97 Q1414.94 1396.55 1417.46 1396.55 Q1421.86 1396.55 1424.15 1394.81 Q1426.46 1393.07 1426.46 1389.76 Q1426.46 1386.71 1424.31 1385 Q1422.18 1383.26 1418.36 1383.26 L1414.34 1383.26 L1414.34 1379.42 L1418.55 1379.42 Q1422 1379.42 1423.83 1378.05 Q1425.65 1376.66 1425.65 1374.07 Q1425.65 1371.41 1423.76 1370 Q1421.88 1368.56 1418.36 1368.56 Q1416.44 1368.56 1414.24 1368.98 Q1412.04 1369.39 1409.4 1370.27 L1409.4 1366.11 Q1412.07 1365.37 1414.38 1365 Q1416.72 1364.63 1418.78 1364.63 Q1424.1 1364.63 1427.21 1367.06 Q1430.31 1369.46 1430.31 1373.58 Q1430.31 1376.45 1428.66 1378.45 Q1427.02 1380.41 1423.99 1381.18 Z" fill="#000000" fill-rule="evenodd" fill-opacity="1" /><polyline clip-path="url(#clip492)" style="stroke:#000000; stroke-linecap:butt; stroke-linejoin:round; stroke-width:2; stroke-opacity:0.1; fill:none" points="
  1572.91,1355.71 754.607,1283.57 
  "/>
<polyline clip-path="url(#clip492)" style="stroke:#000000; stroke-linecap:butt; stroke-linejoin:round; stroke-width:2; stroke-opacity:0.1; fill:none" points="
  754.607,1283.57 754.607,563.968 
  "/>
<polyline clip-path="url(#clip492)" style="stroke:#000000; stroke-linecap:butt; stroke-linejoin:round; stroke-width:2; stroke-opacity:0.1; fill:none" points="
  1618.28,1227.05 799.981,1154.91 
  "/>
<polyline clip-path="url(#clip492)" style="stroke:#000000; stroke-linecap:butt; stroke-linejoin:round; stroke-width:2; stroke-opacity:0.1; fill:none" points="
  799.981,1154.91 799.981,435.305 
  "/>
<polyline clip-path="url(#clip492)" style="stroke:#000000; stroke-linecap:butt; stroke-linejoin:round; stroke-width:2; stroke-opacity:0.1; fill:none" points="
  1663.66,1098.39 845.355,1026.24 
  "/>
<polyline clip-path="url(#clip492)" style="stroke:#000000; stroke-linecap:butt; stroke-linejoin:round; stroke-width:2; stroke-opacity:0.1; fill:none" points="
  845.355,1026.24 845.355,306.641 
  "/>
<polyline clip-path="url(#clip492)" style="stroke:#000000; stroke-linecap:butt; stroke-linejoin:round; stroke-width:2; stroke-opacity:0.1; fill:none" points="
  1709.03,969.724 890.728,897.579 
  "/>
<polyline clip-path="url(#clip492)" style="stroke:#000000; stroke-linecap:butt; stroke-linejoin:round; stroke-width:2; stroke-opacity:0.1; fill:none" points="
  890.728,897.579 890.728,177.977 
  "/>
<polyline clip-path="url(#clip490)" style="stroke:#000000; stroke-linecap:butt; stroke-linejoin:round; stroke-width:4; stroke-opacity:1; fill:none" points="
  1568.82,1367.29 1713.11,958.144 
  "/>
<polyline clip-path="url(#clip490)" style="stroke:#000000; stroke-linecap:butt; stroke-linejoin:round; stroke-width:4; stroke-opacity:1; fill:none" points="
  1572.91,1355.71 1563.09,1354.85 
  "/>
<polyline clip-path="url(#clip490)" style="stroke:#000000; stroke-linecap:butt; stroke-linejoin:round; stroke-width:4; stroke-opacity:1; fill:none" points="
  1618.28,1227.05 1608.46,1226.19 
  "/>
<polyline clip-path="url(#clip490)" style="stroke:#000000; stroke-linecap:butt; stroke-linejoin:round; stroke-width:4; stroke-opacity:1; fill:none" points="
  1663.66,1098.39 1653.84,1097.52 
  "/>
<polyline clip-path="url(#clip490)" style="stroke:#000000; stroke-linecap:butt; stroke-linejoin:round; stroke-width:4; stroke-opacity:1; fill:none" points="
  1709.03,969.724 1699.21,968.858 
  "/>
<path clip-path="url(#clip490)" d="M1613.58 1343.54 Q1609.97 1343.54 1608.14 1347.1 Q1606.34 1350.65 1606.34 1357.78 Q1606.34 1364.88 1608.14 1368.45 Q1609.97 1371.99 1613.58 1371.99 Q1617.22 1371.99 1619.02 1368.45 Q1620.85 1364.88 1620.85 1357.78 Q1620.85 1350.65 1619.02 1347.1 Q1617.22 1343.54 1613.58 1343.54 M1613.58 1339.84 Q1619.39 1339.84 1622.45 1344.44 Q1625.53 1349.03 1625.53 1357.78 Q1625.53 1366.5 1622.45 1371.11 Q1619.39 1375.69 1613.58 1375.69 Q1607.77 1375.69 1604.69 1371.11 Q1601.64 1366.5 1601.64 1357.78 Q1601.64 1349.03 1604.69 1344.44 Q1607.77 1339.84 1613.58 1339.84 Z" fill="#000000" fill-rule="evenodd" fill-opacity="1" /><path clip-path="url(#clip490)" d="M1647.68 1242.42 L1655.32 1242.42 L1655.32 1216.06 L1647.01 1217.72 L1647.01 1213.46 L1655.27 1211.8 L1659.95 1211.8 L1659.95 1242.42 L1667.59 1242.42 L1667.59 1246.36 L1647.68 1246.36 L1647.68 1242.42 Z" fill="#000000" fill-rule="evenodd" fill-opacity="1" /><path clip-path="url(#clip490)" d="M1698.01 1113.76 L1714.33 1113.76 L1714.33 1117.69 L1692.38 1117.69 L1692.38 1113.76 Q1695.05 1111 1699.63 1106.37 Q1704.24 1101.72 1705.42 1100.38 Q1707.66 1097.86 1708.54 1096.12 Q1709.44 1094.36 1709.44 1092.67 Q1709.44 1089.92 1707.5 1088.18 Q1705.58 1086.44 1702.48 1086.44 Q1700.28 1086.44 1697.82 1087.21 Q1695.39 1087.97 1692.62 1089.52 L1692.62 1084.8 Q1695.44 1083.67 1697.89 1083.09 Q1700.35 1082.51 1702.38 1082.51 Q1707.75 1082.51 1710.95 1085.19 Q1714.14 1087.88 1714.14 1092.37 Q1714.14 1094.5 1713.33 1096.42 Q1712.55 1098.32 1710.44 1100.91 Q1709.86 1101.58 1706.76 1104.8 Q1703.66 1107.99 1698.01 1113.76 Z" fill="#000000" fill-rule="evenodd" fill-opacity="1" /><path clip-path="url(#clip490)" d="M1753.38 970.396 Q1756.74 971.113 1758.61 973.382 Q1760.51 975.65 1760.51 978.984 Q1760.51 984.099 1756.99 986.9 Q1753.48 989.701 1746.99 989.701 Q1744.82 989.701 1742.5 989.261 Q1740.21 988.845 1737.76 987.988 L1737.76 983.474 Q1739.7 984.609 1742.02 985.187 Q1744.33 985.766 1746.86 985.766 Q1751.25 985.766 1753.55 984.03 Q1755.86 982.294 1755.86 978.984 Q1755.86 975.928 1753.71 974.215 Q1751.58 972.479 1747.76 972.479 L1743.73 972.479 L1743.73 968.636 L1747.94 968.636 Q1751.39 968.636 1753.22 967.271 Q1755.05 965.882 1755.05 963.289 Q1755.05 960.627 1753.15 959.215 Q1751.28 957.78 1747.76 957.78 Q1745.84 957.78 1743.64 958.197 Q1741.44 958.613 1738.8 959.493 L1738.8 955.326 Q1741.46 954.586 1743.78 954.215 Q1746.11 953.845 1748.17 953.845 Q1753.5 953.845 1756.6 956.275 Q1759.7 958.683 1759.7 962.803 Q1759.7 965.673 1758.06 967.664 Q1756.42 969.632 1753.38 970.396 Z" fill="#000000" fill-rule="evenodd" fill-opacity="1" /><polyline clip-path="url(#clip492)" style="stroke:#000000; stroke-linecap:butt; stroke-linejoin:round; stroke-width:2; stroke-opacity:0.1; fill:none" points="
  750.524,1280.15 894.812,870.997 
  "/>
<polyline clip-path="url(#clip492)" style="stroke:#000000; stroke-linecap:butt; stroke-linejoin:round; stroke-width:2; stroke-opacity:0.1; fill:none" points="
  894.812,870.997 1713.11,943.142 
  "/>
<polyline clip-path="url(#clip492)" style="stroke:#000000; stroke-linecap:butt; stroke-linejoin:round; stroke-width:2; stroke-opacity:0.1; fill:none" points="
  750.524,1082.21 894.812,673.057 
  "/>
<polyline clip-path="url(#clip492)" style="stroke:#000000; stroke-linecap:butt; stroke-linejoin:round; stroke-width:2; stroke-opacity:0.1; fill:none" points="
  894.812,673.057 1713.11,745.201 
  "/>
<polyline clip-path="url(#clip492)" style="stroke:#000000; stroke-linecap:butt; stroke-linejoin:round; stroke-width:2; stroke-opacity:0.1; fill:none" points="
  750.524,884.267 894.812,475.117 
  "/>
<polyline clip-path="url(#clip492)" style="stroke:#000000; stroke-linecap:butt; stroke-linejoin:round; stroke-width:2; stroke-opacity:0.1; fill:none" points="
  894.812,475.117 1713.11,547.261 
  "/>
<polyline clip-path="url(#clip492)" style="stroke:#000000; stroke-linecap:butt; stroke-linejoin:round; stroke-width:2; stroke-opacity:0.1; fill:none" points="
  750.524,686.327 894.812,277.176 
  "/>
<polyline clip-path="url(#clip492)" style="stroke:#000000; stroke-linecap:butt; stroke-linejoin:round; stroke-width:2; stroke-opacity:0.1; fill:none" points="
  894.812,277.176 1713.11,349.32 
  "/>
<polyline clip-path="url(#clip490)" style="stroke:#000000; stroke-linecap:butt; stroke-linejoin:round; stroke-width:4; stroke-opacity:1; fill:none" points="
  750.524,1295.15 750.524,575.548 
  "/>
<polyline clip-path="url(#clip490)" style="stroke:#000000; stroke-linecap:butt; stroke-linejoin:round; stroke-width:4; stroke-opacity:1; fill:none" points="
  750.524,1280.15 752.255,1275.24 
  "/>
<polyline clip-path="url(#clip490)" style="stroke:#000000; stroke-linecap:butt; stroke-linejoin:round; stroke-width:4; stroke-opacity:1; fill:none" points="
  750.524,1082.21 752.255,1077.3 
  "/>
<polyline clip-path="url(#clip490)" style="stroke:#000000; stroke-linecap:butt; stroke-linejoin:round; stroke-width:4; stroke-opacity:1; fill:none" points="
  750.524,884.267 752.255,879.357 
  "/>
<polyline clip-path="url(#clip490)" style="stroke:#000000; stroke-linecap:butt; stroke-linejoin:round; stroke-width:4; stroke-opacity:1; fill:none" points="
  750.524,686.327 752.255,681.417 
  "/>
<path clip-path="url(#clip490)" d="M709.779 1265.95 Q706.168 1265.95 704.339 1269.51 Q702.534 1273.05 702.534 1280.18 Q702.534 1287.29 704.339 1290.85 Q706.168 1294.4 709.779 1294.4 Q713.413 1294.4 715.219 1290.85 Q717.048 1287.29 717.048 1280.18 Q717.048 1273.05 715.219 1269.51 Q713.413 1265.95 709.779 1265.95 M709.779 1262.24 Q715.589 1262.24 718.645 1266.85 Q721.724 1271.43 721.724 1280.18 Q721.724 1288.91 718.645 1293.52 Q715.589 1298.1 709.779 1298.1 Q703.969 1298.1 700.89 1293.52 Q697.835 1288.91 697.835 1280.18 Q697.835 1271.43 700.89 1266.85 Q703.969 1262.24 709.779 1262.24 Z" fill="#000000" fill-rule="evenodd" fill-opacity="1" /><path clip-path="url(#clip490)" d="M701.816 1095.55 L709.455 1095.55 L709.455 1069.19 L701.145 1070.85 L701.145 1066.59 L709.409 1064.93 L714.085 1064.93 L714.085 1095.55 L721.724 1095.55 L721.724 1099.49 L701.816 1099.49 L701.816 1095.55 Z" fill="#000000" fill-rule="evenodd" fill-opacity="1" /><path clip-path="url(#clip490)" d="M705.404 897.612 L721.724 897.612 L721.724 901.547 L699.779 901.547 L699.779 897.612 Q702.441 894.857 707.025 890.228 Q711.631 885.575 712.812 884.232 Q715.057 881.709 715.937 879.973 Q716.839 878.214 716.839 876.524 Q716.839 873.769 714.895 872.033 Q712.974 870.297 709.872 870.297 Q707.673 870.297 705.219 871.061 Q702.788 871.825 700.011 873.376 L700.011 868.654 Q702.835 867.52 705.288 866.941 Q707.742 866.362 709.779 866.362 Q715.15 866.362 718.344 869.047 Q721.538 871.732 721.538 876.223 Q721.538 878.353 720.728 880.274 Q719.941 882.172 717.835 884.765 Q717.256 885.436 714.154 888.654 Q711.052 891.848 705.404 897.612 Z" fill="#000000" fill-rule="evenodd" fill-opacity="1" /><path clip-path="url(#clip490)" d="M714.594 684.973 Q717.95 685.69 719.825 687.959 Q721.724 690.227 721.724 693.56 Q721.724 698.676 718.205 701.477 Q714.687 704.278 708.205 704.278 Q706.029 704.278 703.714 703.838 Q701.423 703.422 698.969 702.565 L698.969 698.051 Q700.914 699.185 703.228 699.764 Q705.543 700.343 708.066 700.343 Q712.464 700.343 714.756 698.607 Q717.071 696.871 717.071 693.56 Q717.071 690.505 714.918 688.792 Q712.788 687.056 708.969 687.056 L704.941 687.056 L704.941 683.213 L709.154 683.213 Q712.603 683.213 714.432 681.848 Q716.261 680.459 716.261 677.866 Q716.261 675.204 714.363 673.792 Q712.488 672.357 708.969 672.357 Q707.048 672.357 704.849 672.774 Q702.65 673.19 700.011 674.07 L700.011 669.903 Q702.673 669.162 704.988 668.792 Q707.326 668.422 709.386 668.422 Q714.71 668.422 717.812 670.852 Q720.913 673.26 720.913 677.38 Q720.913 680.25 719.27 682.241 Q717.626 684.209 714.594 684.973 Z" fill="#000000" fill-rule="evenodd" fill-opacity="1" /><polyline clip-path="url(#clip492)" style="stroke:#0000ff; stroke-linecap:butt; stroke-linejoin:round; stroke-width:4; stroke-opacity:1; fill:none" points="
  777.767,1180.62 800.657,1182.21 823.549,1185.11 846.445,1189.17 869.356,1194.19 892.327,1199.73 915.515,1204.46 939.439,1204.28 965.222,1189.1 993.201,1152.23 
  1021.34,1113.67 1047.43,1096.24 1071.51,1095.72 1094.75,1101.4 1117.74,1108.64 1140.66,1115.97 1163.55,1122.94 1186.43,1129.45 1209.29,1135.52 1232.04,1141.6 
  1254.44,1149.52 1275.58,1165.13 1293.52,1199.51 1308.25,1250.55 1324.66,1292.02 1344.84,1310.75 1366.92,1316.32 1389.6,1317.06 1412.43,1315.95 1435.3,1313.88 
  1458.19,1311.14 1481.08,1307.86 1503.97,1304.12 1526.86,1300.03 1549.75,1295.69 
  "/>
<polyline clip-path="url(#clip492)" style="stroke:#0000ff; stroke-linecap:butt; stroke-linejoin:round; stroke-width:4; stroke-opacity:1; fill:none" points="
  777.922,1179.5 800.812,1181.1 823.704,1183.99 846.599,1188.05 869.511,1193.07 892.481,1198.61 915.669,1203.35 939.591,1203.17 965.37,1188.02 993.344,1151.21 
  1021.48,1112.69 1047.56,1095.3 1071.65,1094.78 1094.88,1100.47 1117.87,1107.71 1140.78,1115.04 1163.68,1122.01 1186.56,1128.52 1209.42,1134.59 1232.17,1140.67 
  1254.57,1148.58 1275.71,1164.18 1293.65,1198.52 1308.4,1249.51 1324.81,1290.93 1345,1309.64 1367.08,1315.21 1389.75,1315.94 1412.58,1314.83 1435.46,1312.77 
  1458.35,1310.03 1481.23,1306.74 1504.12,1303.01 1527.01,1298.92 1549.9,1294.58 
  "/>
<polyline clip-path="url(#clip492)" style="stroke:#0000ff; stroke-linecap:butt; stroke-linejoin:round; stroke-width:4; stroke-opacity:1; fill:none" points="
  778.112,1178.13 801.002,1179.73 823.894,1182.62 846.789,1186.68 869.7,1191.7 892.67,1197.24 915.857,1201.98 939.778,1201.82 965.552,1186.69 993.519,1149.95 
  1021.65,1111.5 1047.73,1094.14 1071.81,1093.64 1095.04,1099.33 1118.03,1106.57 1140.94,1113.9 1163.84,1120.87 1186.72,1127.38 1209.57,1133.44 1232.33,1139.52 
  1254.73,1147.43 1275.87,1163.02 1293.82,1197.31 1308.58,1248.23 1325,1289.59 1345.19,1308.28 1367.27,1313.84 1389.94,1314.57 1412.78,1313.46 1435.65,1311.4 
  1458.54,1308.66 1481.43,1305.37 1504.31,1301.63 1527.2,1297.55 1550.09,1293.21 
  "/>
<polyline clip-path="url(#clip492)" style="stroke:#0000ff; stroke-linecap:butt; stroke-linejoin:round; stroke-width:4; stroke-opacity:1; fill:none" points="
  778.346,1176.45 801.236,1178.05 824.127,1180.94 847.022,1185 869.932,1190.02 892.902,1195.56 916.088,1200.3 940.007,1200.15 965.776,1185.07 993.733,1148.4 
  1021.85,1110.03 1047.93,1092.72 1072,1092.23 1095.24,1097.93 1118.22,1105.16 1141.14,1112.49 1164.03,1119.46 1186.91,1125.98 1209.77,1132.04 1232.53,1138.12 
  1254.92,1146.02 1276.07,1161.59 1294.03,1195.83 1308.8,1246.66 1325.23,1287.96 1345.42,1306.61 1367.51,1312.16 1390.18,1312.89 1413.01,1311.78 1435.89,1309.71 
  1458.77,1306.97 1481.66,1303.69 1504.55,1299.95 1527.44,1295.86 1550.33,1291.52 
  "/>
<polyline clip-path="url(#clip492)" style="stroke:#0000ff; stroke-linecap:butt; stroke-linejoin:round; stroke-width:4; stroke-opacity:1; fill:none" points="
  778.633,1174.38 801.522,1175.98 824.413,1178.87 847.308,1182.93 870.218,1187.96 893.187,1193.49 916.372,1198.24 940.288,1198.11 966.051,1183.07 993.997,1146.5 
  1022.11,1108.23 1048.17,1090.97 1072.25,1090.5 1095.48,1096.2 1118.47,1103.44 1141.38,1110.77 1164.27,1117.74 1187.15,1124.25 1210.01,1130.32 1232.77,1136.4 
  1255.16,1144.29 1276.32,1159.83 1294.28,1194 1309.07,1244.73 1325.51,1285.94 1345.71,1304.56 1367.8,1310.1 1390.47,1310.83 1413.3,1309.71 1436.18,1307.65 
  1459.06,1304.91 1481.95,1301.62 1504.84,1297.89 1527.73,1293.8 1550.62,1289.46 
  "/>
<polyline clip-path="url(#clip492)" style="stroke:#0000ff; stroke-linecap:butt; stroke-linejoin:round; stroke-width:4; stroke-opacity:1; fill:none" points="
  778.985,1171.85 801.874,1173.44 824.764,1176.33 847.658,1180.4 870.568,1185.42 893.536,1190.96 916.72,1195.71 940.633,1195.6 966.388,1180.62 994.321,1144.17 
  1022.42,1106.02 1048.47,1088.83 1072.54,1088.38 1095.78,1094.09 1118.76,1101.33 1141.67,1108.66 1164.57,1115.63 1187.45,1122.14 1210.3,1128.2 1233.06,1134.28 
  1255.46,1142.17 1276.61,1157.67 1294.59,1191.77 1309.4,1242.37 1325.86,1283.48 1346.06,1302.05 1368.15,1307.57 1390.83,1308.29 1413.66,1307.18 1436.53,1305.11 
  1459.41,1302.37 1482.3,1299.09 1505.19,1295.35 1528.08,1291.26 1550.97,1286.92 
  "/>
<polyline clip-path="url(#clip492)" style="stroke:#0000ff; stroke-linecap:butt; stroke-linejoin:round; stroke-width:4; stroke-opacity:1; fill:none" points="
  779.417,1168.74 802.305,1170.34 825.195,1173.23 848.088,1177.29 870.997,1182.31 893.965,1187.85 917.147,1192.61 941.056,1192.52 966.801,1177.62 994.717,1141.31 
  1022.79,1103.31 1048.84,1086.2 1072.91,1085.78 1096.14,1091.5 1119.12,1098.74 1142.03,1106.07 1164.93,1113.04 1187.81,1119.55 1210.66,1125.61 1233.42,1131.68 
  1255.82,1139.56 1276.98,1155.03 1294.97,1189.02 1309.8,1239.47 1326.28,1280.45 1346.5,1298.97 1368.59,1304.47 1391.26,1305.19 1414.09,1304.07 1436.96,1302 
  1459.85,1299.26 1482.74,1295.98 1505.62,1292.24 1528.51,1288.15 1551.4,1283.82 
  "/>
<polyline clip-path="url(#clip492)" style="stroke:#0000ff; stroke-linecap:butt; stroke-linejoin:round; stroke-width:4; stroke-opacity:1; fill:none" points="
  779.946,1164.93 802.834,1166.53 825.723,1169.42 848.615,1173.48 871.524,1178.5 894.49,1184.05 917.671,1188.81 941.575,1188.75 967.308,1173.94 995.203,1137.8 
  1023.26,1099.99 1049.29,1082.98 1073.35,1082.59 1096.58,1088.32 1119.57,1095.56 1142.48,1102.89 1165.37,1109.87 1188.25,1116.37 1211.1,1122.44 1233.86,1128.5 
  1256.26,1136.37 1277.43,1151.79 1295.44,1185.66 1310.3,1235.92 1326.81,1276.74 1347.03,1295.19 1369.12,1300.67 1391.79,1301.38 1414.63,1300.26 1437.5,1298.19 
  1460.38,1295.45 1483.27,1292.17 1506.15,1288.43 1529.04,1284.34 1551.93,1280.01 
  "/>
<polyline clip-path="url(#clip492)" style="stroke:#0000ff; stroke-linecap:butt; stroke-linejoin:round; stroke-width:4; stroke-opacity:1; fill:none" points="
  780.594,1160.26 803.481,1161.86 826.369,1164.75 849.261,1168.81 872.168,1173.84 895.133,1179.38 918.311,1184.16 942.21,1184.14 967.929,1169.43 995.799,1133.51 
  1023.83,1095.92 1049.84,1079.03 1073.9,1078.69 1097.13,1084.43 1120.11,1091.68 1143.02,1099.01 1165.91,1105.98 1188.79,1112.49 1211.64,1118.55 1234.4,1124.61 
  1256.8,1132.46 1277.97,1147.82 1296.01,1181.54 1310.91,1231.57 1327.44,1272.2 1347.68,1290.56 1369.78,1296.01 1392.45,1296.72 1415.28,1295.6 1438.15,1293.53 
  1461.03,1290.79 1483.92,1287.5 1506.8,1283.77 1529.69,1279.68 1552.58,1275.34 
  "/>
<polyline clip-path="url(#clip492)" style="stroke:#0000ff; stroke-linecap:butt; stroke-linejoin:round; stroke-width:4; stroke-opacity:1; fill:none" points="
  781.387,1154.56 804.273,1156.15 827.16,1159.04 850.05,1163.1 872.956,1168.13 895.92,1173.68 919.095,1178.47 942.987,1178.49 968.687,1163.92 996.527,1128.26 
  1024.53,1090.94 1050.52,1074.21 1074.57,1073.92 1097.79,1079.67 1120.77,1086.92 1143.68,1094.25 1166.57,1101.22 1189.45,1107.73 1212.3,1113.79 1235.06,1119.85 
  1257.46,1127.67 1278.64,1142.97 1296.71,1176.51 1311.65,1226.25 1328.23,1266.65 1348.48,1284.9 1370.58,1290.32 1393.25,1291.01 1416.08,1289.89 1438.95,1287.82 
  1461.83,1285.08 1484.71,1281.8 1507.6,1278.06 1530.48,1273.97 1553.37,1269.63 
  "/>
<polyline clip-path="url(#clip492)" style="stroke:#0000ff; stroke-linecap:butt; stroke-linejoin:round; stroke-width:4; stroke-opacity:1; fill:none" points="
  782.356,1147.58 805.24,1149.18 828.126,1152.07 851.015,1156.13 873.92,1161.16 896.881,1166.71 920.053,1171.52 943.936,1171.59 969.615,1157.19 997.417,1121.85 
  1025.38,1084.86 1051.35,1068.31 1075.39,1068.08 1098.61,1073.85 1121.58,1081.11 1144.49,1088.44 1167.38,1095.41 1190.26,1101.92 1213.11,1107.98 1235.86,1114.03 
  1258.27,1121.83 1279.46,1137.04 1297.56,1170.35 1312.56,1219.74 1329.18,1259.86 1349.45,1277.98 1371.55,1283.36 1394.23,1284.04 1417.05,1282.92 1439.92,1280.85 
  1462.8,1278.11 1485.69,1274.82 1508.57,1271.09 1531.45,1267 1554.34,1262.66 
  "/>
<polyline clip-path="url(#clip492)" style="stroke:#0000ff; stroke-linecap:butt; stroke-linejoin:round; stroke-width:4; stroke-opacity:1; fill:none" points="
  783.538,1139.08 806.42,1140.68 829.304,1143.56 852.192,1147.62 875.095,1152.65 898.054,1158.21 921.222,1163.03 945.094,1163.17 970.746,1148.97 998.502,1114.02 
  1026.42,1077.44 1052.36,1061.12 1076.38,1060.97 1099.6,1066.76 1122.57,1074.02 1145.48,1081.35 1168.37,1088.32 1191.24,1094.83 1214.09,1100.88 1236.85,1106.93 
  1259.25,1114.69 1280.46,1129.8 1298.6,1162.84 1313.67,1211.81 1330.35,1251.58 1350.64,1269.54 1372.75,1274.87 1395.42,1275.54 1418.25,1274.41 1441.11,1272.34 
  1463.99,1269.6 1486.87,1266.32 1509.75,1262.58 1532.64,1258.49 1555.52,1254.16 
  "/>
<polyline clip-path="url(#clip492)" style="stroke:#0000ff; stroke-linecap:butt; stroke-linejoin:round; stroke-width:4; stroke-opacity:1; fill:none" points="
  784.977,1128.72 807.858,1130.32 830.739,1133.2 853.625,1137.26 876.526,1142.29 899.482,1147.85 922.645,1152.7 946.504,1152.92 972.124,1138.96 999.824,1104.49 
  1027.68,1068.41 1053.59,1052.36 1077.6,1052.3 1100.81,1058.12 1123.78,1065.39 1146.68,1072.72 1169.57,1079.69 1192.44,1086.2 1215.29,1092.25 1238.04,1098.28 
  1260.46,1106.01 1281.68,1120.99 1299.87,1153.7 1315.03,1202.15 1331.76,1241.49 1352.08,1259.27 1374.2,1264.54 1396.87,1265.19 1419.7,1264.05 1442.56,1261.98 
  1465.44,1259.24 1488.32,1255.95 1511.2,1252.22 1534.08,1248.13 1556.96,1243.8 
  "/>
<polyline clip-path="url(#clip492)" style="stroke:#0000ff; stroke-linecap:butt; stroke-linejoin:round; stroke-width:4; stroke-opacity:1; fill:none" points="
  786.726,1116.13 809.604,1117.73 832.484,1120.61 855.367,1124.67 878.265,1129.7 901.218,1135.27 924.374,1140.14 948.218,1140.46 973.798,1126.8 1001.43,1092.91 
  1029.22,1057.43 1055.08,1041.71 1079.07,1041.77 1102.28,1047.62 1125.24,1054.9 1148.15,1062.23 1171.03,1069.2 1193.9,1075.7 1216.74,1081.75 1239.5,1087.77 
  1261.91,1095.46 1283.16,1110.28 1301.41,1142.59 1316.67,1190.41 1333.49,1229.24 1353.84,1246.78 1375.96,1251.97 1398.63,1252.6 1421.46,1251.47 1444.32,1249.39 
  1467.2,1246.65 1490.07,1243.36 1512.95,1239.63 1535.83,1235.54 1558.71,1231.21 
  "/>
<polyline clip-path="url(#clip492)" style="stroke:#0000ff; stroke-linecap:butt; stroke-linejoin:round; stroke-width:4; stroke-opacity:1; fill:none" points="
  788.845,1100.87 811.721,1102.47 834.597,1105.36 857.478,1109.42 880.373,1114.45 903.322,1120.02 926.47,1124.93 950.295,1125.36 975.827,1112.06 1003.38,1078.87 
  1031.08,1044.13 1056.89,1028.81 1080.86,1029.01 1104.06,1034.9 1127.02,1042.18 1149.92,1049.52 1172.8,1056.49 1195.67,1062.99 1218.51,1069.03 1241.26,1075.03 
  1263.68,1082.67 1284.95,1097.31 1303.27,1129.12 1318.66,1176.18 1335.58,1214.38 1355.97,1231.64 1378.1,1236.75 1400.77,1237.35 1423.6,1236.21 1446.46,1234.13 
  1469.33,1231.39 1492.2,1228.11 1515.08,1224.37 1537.95,1220.28 1560.83,1215.95 
  "/>
<polyline clip-path="url(#clip492)" style="stroke:#0000ff; stroke-linecap:butt; stroke-linejoin:round; stroke-width:4; stroke-opacity:1; fill:none" points="
  791.406,1082.44 814.278,1084.04 837.151,1086.92 860.028,1090.98 882.919,1096.02 905.863,1101.6 929.003,1106.54 952.804,1107.12 978.278,1094.26 1005.73,1061.92 
  1033.33,1028.06 1059.08,1013.22 1083.02,1013.59 1106.21,1019.52 1129.16,1026.82 1152.06,1034.16 1174.94,1041.13 1197.8,1047.63 1220.64,1053.66 1243.39,1059.65 
  1265.82,1067.21 1287.12,1081.63 1305.53,1112.85 1321.06,1158.99 1338.1,1196.44 1358.54,1213.36 1380.68,1218.36 1403.36,1218.93 1426.18,1217.78 1449.03,1215.7 
  1471.9,1212.96 1494.77,1209.67 1517.64,1205.94 1540.52,1201.85 1563.39,1197.52 
  "/>
<polyline clip-path="url(#clip492)" style="stroke:#0000ff; stroke-linecap:butt; stroke-linejoin:round; stroke-width:4; stroke-opacity:1; fill:none" points="
  794.487,1060.26 817.355,1061.86 840.224,1064.74 863.096,1068.8 885.983,1073.84 908.921,1079.43 932.049,1084.42 955.824,1085.18 981.228,1072.83 1008.56,1041.51 
  1036.04,1008.71 1061.71,994.469 1085.62,995.035 1108.8,1001.03 1131.75,1008.34 1154.64,1015.68 1177.51,1022.65 1200.37,1029.14 1223.2,1035.17 1245.96,1041.14 
  1268.39,1048.62 1289.72,1062.77 1308.24,1093.27 1323.96,1138.31 1341.14,1174.85 1361.63,1191.35 1383.79,1196.23 1406.47,1196.76 1429.28,1195.6 1452.14,1193.52 
  1475,1190.78 1497.87,1187.49 1520.73,1183.76 1543.6,1179.67 1566.47,1175.34 
  "/>
<polyline clip-path="url(#clip492)" style="stroke:#0000ff; stroke-linecap:butt; stroke-linejoin:round; stroke-width:4; stroke-opacity:1; fill:none" points="
  798.178,1033.7 821.041,1035.29 843.904,1038.18 866.772,1042.24 889.652,1047.27 912.583,1052.88 935.699,1057.93 959.44,1058.89 984.761,1047.17 1011.95,1017.07 
  1039.28,985.549 1064.86,972.005 1088.73,972.813 1111.89,978.87 1134.84,986.197 1157.72,993.541 1180.59,1000.51 1203.44,1007 1226.28,1013.02 1249.03,1018.96 
  1271.47,1026.35 1292.84,1040.17 1311.49,1069.83 1327.42,1113.53 1344.77,1148.99 1365.34,1165 1387.51,1169.72 1410.19,1170.21 1433,1169.04 1455.85,1166.95 
  1478.71,1164.21 1501.57,1160.92 1524.43,1157.19 1547.3,1153.11 1570.16,1148.77 
  "/>
<polyline clip-path="url(#clip492)" style="stroke:#0000ff; stroke-linecap:butt; stroke-linejoin:round; stroke-width:4; stroke-opacity:1; fill:none" points="
  802.573,1002.06 825.43,1003.65 848.288,1006.54 871.149,1010.59 894.023,1015.63 916.945,1021.26 940.046,1026.37 963.748,1027.58 988.969,1016.61 1015.99,987.965 
  1043.14,957.958 1068.61,945.25 1092.44,946.345 1115.59,952.482 1138.52,959.828 1161.4,967.176 1184.26,974.144 1207.11,980.633 1229.93,986.645 1252.68,992.55 
  1275.13,999.826 1296.56,1013.26 1315.37,1041.9 1331.55,1084.03 1349.11,1118.18 1369.75,1133.61 1391.95,1138.14 1414.62,1138.59 1437.43,1137.4 1460.28,1135.31 
  1483.13,1132.57 1505.99,1129.28 1528.84,1125.55 1551.7,1121.46 1574.56,1117.13 
  "/>
<polyline clip-path="url(#clip492)" style="stroke:#0000ff; stroke-linecap:butt; stroke-linejoin:round; stroke-width:4; stroke-opacity:1; fill:none" points="
  807.774,964.622 830.624,966.217 853.474,969.101 876.328,973.158 899.194,978.201 922.106,983.846 945.188,989.039 968.844,990.536 993.948,980.447 1020.76,953.527 
  1047.71,925.315 1073.05,913.596 1096.83,915.03 1119.95,921.261 1142.88,928.631 1165.74,935.983 1188.6,942.95 1211.44,949.435 1234.26,955.436 1257.01,961.303 
  1279.47,968.444 1300.96,981.421 1319.95,1008.86 1336.44,1049.12 1354.23,1081.74 1374.97,1096.48 1397.19,1100.79 1419.87,1101.17 1442.68,1099.97 1465.51,1097.88 
  1488.36,1095.13 1511.21,1091.84 1534.06,1088.11 1556.91,1084.03 1579.76,1079.7 
  "/>
<polyline clip-path="url(#clip492)" style="stroke:#0000ff; stroke-linecap:butt; stroke-linejoin:round; stroke-width:4; stroke-opacity:1; fill:none" points="
  813.878,920.681 836.72,922.275 859.562,925.159 882.408,929.215 905.264,934.262 928.165,939.929 951.225,945.215 974.825,947.054 999.791,938 1026.37,913.103 
  1053.07,886.998 1078.26,876.439 1101.98,878.272 1125.08,884.614 1147.99,892.011 1170.85,899.368 1193.69,906.335 1216.53,912.813 1239.34,918.801 1262.09,924.624 
  1284.57,931.607 1306.12,944.048 1325.32,970.073 1342.17,1008.14 1360.25,1038.97 1381.1,1052.89 1403.35,1056.94 1426.03,1057.26 1448.83,1056.03 1471.66,1053.93 
  1494.5,1051.19 1517.34,1047.9 1540.18,1044.17 1563.02,1040.09 1585.86,1035.76 
  "/>
<polyline clip-path="url(#clip492)" style="stroke:#0000ff; stroke-linecap:butt; stroke-linejoin:round; stroke-width:4; stroke-opacity:1; fill:none" points="
  820.978,869.578 843.81,871.171 866.642,874.053 889.478,878.109 912.324,883.16 935.21,888.853 958.245,894.248 981.782,896.484 1006.59,888.635 1032.89,866.09 
  1059.31,842.436 1084.32,833.226 1107.97,835.522 1131.04,841.993 1153.94,849.422 1176.78,856.785 1199.62,863.75 1222.45,870.223 1245.25,876.195 1267.99,881.967 
  1290.49,888.766 1312.13,900.583 1331.58,924.966 1348.84,960.481 1367.25,989.216 1388.23,1002.19 1410.51,1005.95 1433.19,1006.18 1455.98,1004.93 1478.81,1002.83 
  1501.63,1000.08 1524.47,996.793 1547.3,993.063 1570.13,988.983 1592.96,984.656 
  "/>
<polyline clip-path="url(#clip492)" style="stroke:#0000ff; stroke-linecap:butt; stroke-linejoin:round; stroke-width:4; stroke-opacity:1; fill:none" points="
  829.146,810.781 851.967,812.373 874.788,815.253 897.612,819.308 920.446,824.364 943.317,830.088 966.323,835.607 989.787,838.301 1014.41,831.837 1040.4,811.999 
  1066.49,791.163 1091.3,783.507 1114.86,786.336 1137.9,792.956 1160.78,800.421 1183.61,807.791 1206.44,814.754 1229.25,821.22 1252.05,827.174 1274.79,832.887 
  1297.3,839.474 1319.03,850.574 1338.77,873.068 1356.51,905.648 1375.3,931.977 1396.43,943.866 1418.75,947.28 1441.43,947.411 1464.22,946.137 1487.03,944.026 
  1509.85,941.275 1532.67,937.991 1555.49,934.262 1578.31,930.183 1601.13,925.859 
  "/>
<polyline clip-path="url(#clip492)" style="stroke:#0000ff; stroke-linecap:butt; stroke-linejoin:round; stroke-width:4; stroke-opacity:1; fill:none" points="
  838.429,743.963 861.237,745.554 884.046,748.432 906.857,752.486 929.677,757.548 952.529,763.305 975.502,768.966 998.883,772.18 1023.29,767.291 1048.92,750.528 
  1074.64,732.897 1099.22,727.004 1122.69,730.44 1145.69,737.228 1168.55,744.735 1191.38,752.112 1214.19,759.074 1236.99,765.531 1259.78,771.466 1282.51,777.111 
  1305.05,783.458 1326.88,793.743 1346.95,814.09 1365.23,843.335 1384.45,866.928 1405.75,877.581 1428.11,880.605 1450.8,880.627 1473.58,879.322 1496.38,877.203 
  1519.18,874.451 1541.99,871.167 1564.8,867.439 1587.6,863.363 1610.41,859.04 
  "/>
<polyline clip-path="url(#clip492)" style="stroke:#0000ff; stroke-linecap:butt; stroke-linejoin:round; stroke-width:4; stroke-opacity:1; fill:none" points="
  848.831,669.088 871.625,670.678 894.42,673.554 917.216,677.606 940.02,682.675 962.852,688.47 985.788,694.29 1009.08,698.086 1033.25,694.963 1058.48,681.645 
  1083.78,667.604 1108.1,663.689 1131.47,667.804 1154.43,674.781 1177.27,682.335 1200.07,689.72 1222.87,696.681 1245.66,703.129 1268.44,709.04 1291.17,714.611 
  1313.72,720.688 1335.68,730.059 1356.11,748.001 1375,773.508 1394.7,794.036 1416.2,803.303 1438.61,805.89 1461.3,805.79 1484.06,804.452 1506.85,802.323 
  1529.64,799.569 1552.43,796.285 1575.23,792.56 1598.02,788.485 1620.81,784.165 
  "/>
<polyline clip-path="url(#clip492)" style="stroke:#0000ff; stroke-linecap:butt; stroke-linejoin:round; stroke-width:4; stroke-opacity:1; fill:none" points="
  860.306,586.493 883.084,588.082 905.863,590.955 928.643,595.007 951.43,600.082 974.239,605.92 997.135,611.915 1020.32,616.354 1044.24,615.177 1069.02,605.661 
  1093.86,595.58 1117.9,593.846 1141.15,598.711 1164.06,605.896 1186.88,613.501 1209.67,620.896 1232.45,627.854 1255.22,634.292 1277.99,640.179 1300.71,645.667 
  1323.3,651.447 1345.39,659.809 1366.21,675.098 1385.78,696.482 1406.01,713.63 1427.72,721.367 1450.18,723.472 1472.87,723.237 1495.63,721.862 1518.4,719.723 
  1541.18,716.967 1563.95,713.684 1586.73,709.96 1609.51,705.888 1632.29,701.571 
  "/>
<polyline clip-path="url(#clip492)" style="stroke:#0000ff; stroke-linecap:butt; stroke-linejoin:round; stroke-width:4; stroke-opacity:1; fill:none" points="
  872.746,496.948 895.507,498.535 918.269,501.407 941.032,505.457 963.8,510.539 986.585,516.423 1009.44,522.608 1032.51,527.744 1056.15,528.677 1080.44,523.283 
  1104.79,517.495 1128.52,518.127 1151.64,523.803 1174.51,531.214 1197.3,538.875 1220.07,546.28 1242.83,553.237 1265.59,559.663 1288.34,565.523 1311.06,570.921 
  1333.67,576.379 1355.91,583.648 1377.17,596.06 1397.47,612.974 1418.27,626.457 1440.21,632.537 1462.73,634.119 1485.42,633.738 1508.17,632.323 1530.92,630.173 
  1553.68,627.414 1576.44,624.131 1599.21,620.409 1621.97,616.34 1644.73,612.026 
  "/>
<polyline clip-path="url(#clip492)" style="stroke:#0000ff; stroke-linecap:butt; stroke-linejoin:round; stroke-width:4; stroke-opacity:1; fill:none" points="
  885.982,401.674 908.725,403.259 931.469,406.128 954.213,410.176 976.961,415.267 999.721,421.199 1022.53,427.586 1045.48,433.464 1068.82,436.643 1092.6,435.633 
  1116.42,434.414 1139.82,437.562 1162.81,444.103 1185.62,451.753 1208.39,459.473 1231.14,466.889 1253.88,473.844 1276.62,480.259 1299.36,486.09 1322.07,491.392 
  1344.72,496.507 1367.1,502.614 1388.83,511.965 1409.9,524.123 1431.31,533.706 1453.5,538.023 1476.08,539.049 1498.78,538.512 1521.51,537.054 1544.25,534.892 
  1566.99,532.131 1589.73,528.849 1612.48,525.128 1635.22,521.062 1657.96,516.751 
  "/>
<polyline clip-path="url(#clip492)" style="stroke:#0000ff; stroke-linecap:butt; stroke-linejoin:round; stroke-width:4; stroke-opacity:1; fill:none" points="
  899.787,302.306 922.511,303.89 945.236,306.756 967.961,310.803 990.688,315.902 1013.42,321.885 1036.18,328.483 1059.01,335.133 1082.03,340.655 1105.28,344.219 
  1128.55,347.764 1151.61,353.536 1174.46,360.978 1197.22,368.879 1219.95,376.661 1242.68,384.089 1265.4,391.041 1288.13,397.443 1310.85,403.244 1333.56,408.447 
  1356.23,413.205 1378.78,418.099 1400.99,424.257 1422.87,431.455 1444.92,436.97 1467.36,439.448 1490,439.894 1512.71,439.195 1535.42,437.692 1558.15,435.519 
  1580.87,432.754 1603.6,429.473 1626.32,425.755 1649.04,421.691 1671.77,417.384 
  "/>
<polyline clip-path="url(#clip492)" style="stroke:#0000ff; stroke-linecap:butt; stroke-linejoin:round; stroke-width:4; stroke-opacity:1; fill:none" points="
  913.888,200.804 936.593,202.387 959.299,205.25 982.004,209.295 1004.71,214.403 1027.41,220.438 1050.12,227.251 1072.83,234.691 1095.53,242.605 1118.24,250.84 
  1140.94,259.253 1163.65,267.705 1186.35,276.068 1209.06,284.225 1231.76,292.07 1254.47,299.509 1277.17,306.459 1299.88,312.849 1322.58,318.619 1345.29,323.72 
  1368,328.113 1390.7,331.768 1413.41,334.666 1436.11,336.796 1458.82,338.157 1481.52,338.756 1504.23,338.61 1526.93,337.745 1549.64,336.196 1572.34,334.01 
  1595.05,331.243 1617.75,327.962 1640.46,324.246 1663.16,320.186 1685.87,315.882 
  "/>
</svg>
