<?xml version="1.0" encoding="utf-8"?>
<svg xmlns="http://www.w3.org/2000/svg" xmlns:xlink="http://www.w3.org/1999/xlink" width="600" height="400" viewBox="0 0 2400 1600">
<defs>
  <clipPath id="clip280">
    <rect x="0" y="0" width="2400" height="1600"/>
  </clipPath>
</defs>
<path clip-path="url(#clip280)" d="
M0 1600 L2400 1600 L2400 0 L0 0  Z
  " fill="#ffffff" fill-rule="evenodd" fill-opacity="1"/>
<defs>
  <clipPath id="clip281">
    <rect x="480" y="0" width="1681" height="1600"/>
  </clipPath>
</defs>
<defs>
  <clipPath id="clip282">
    <rect x="110" y="47" width="2243" height="1440"/>
  </clipPath>
</defs>
<path clip-path="url(#clip282)" d="
M1523.77 1777.98 L1523.77 1325.4 L1541.92 1068.08 L1644.85 1113.45 L1644.85 1566.03 L1626.71 1823.36 L1523.77 1777.98  Z
  " fill="#ffffff" fill-rule="evenodd" fill-opacity="1"/>
<polyline clip-path="url(#clip282)" style="stroke:#000000; stroke-linecap:butt; stroke-linejoin:round; stroke-width:2; stroke-opacity:0.1; fill:none" points="
  825.149,1301.73 969.437,892.579 
  "/>
<polyline clip-path="url(#clip282)" style="stroke:#000000; stroke-linecap:butt; stroke-linejoin:round; stroke-width:2; stroke-opacity:0.1; fill:none" points="
  969.437,892.579 969.437,172.977 
  "/>
<polyline clip-path="url(#clip282)" style="stroke:#000000; stroke-linecap:butt; stroke-linejoin:round; stroke-width:2; stroke-opacity:0.1; fill:none" points="
  979.545,1315.34 1123.83,906.191 
  "/>
<polyline clip-path="url(#clip282)" style="stroke:#000000; stroke-linecap:butt; stroke-linejoin:round; stroke-width:2; stroke-opacity:0.1; fill:none" points="
  1123.83,906.191 1123.83,186.589 
  "/>
<polyline clip-path="url(#clip282)" style="stroke:#000000; stroke-linecap:butt; stroke-linejoin:round; stroke-width:2; stroke-opacity:0.1; fill:none" points="
  1133.94,1328.95 1278.23,919.803 
  "/>
<polyline clip-path="url(#clip282)" style="stroke:#000000; stroke-linecap:butt; stroke-linejoin:round; stroke-width:2; stroke-opacity:0.1; fill:none" points="
  1278.23,919.803 1278.23,200.201 
  "/>
<polyline clip-path="url(#clip282)" style="stroke:#000000; stroke-linecap:butt; stroke-linejoin:round; stroke-width:2; stroke-opacity:0.1; fill:none" points="
  1288.34,1342.57 1432.63,933.415 
  "/>
<polyline clip-path="url(#clip282)" style="stroke:#000000; stroke-linecap:butt; stroke-linejoin:round; stroke-width:2; stroke-opacity:0.1; fill:none" points="
  1432.63,933.415 1432.63,213.813 
  "/>
<polyline clip-path="url(#clip282)" style="stroke:#000000; stroke-linecap:butt; stroke-linejoin:round; stroke-width:2; stroke-opacity:0.1; fill:none" points="
  1442.73,1356.18 1587.02,947.027 
  "/>
<polyline clip-path="url(#clip282)" style="stroke:#000000; stroke-linecap:butt; stroke-linejoin:round; stroke-width:2; stroke-opacity:0.1; fill:none" points="
  1587.02,947.027 1587.02,227.425 
  "/>
<polyline clip-path="url(#clip280)" style="stroke:#000000; stroke-linecap:butt; stroke-linejoin:round; stroke-width:4; stroke-opacity:1; fill:none" points="
  750.524,1295.15 1568.82,1367.29 
  "/>
<polyline clip-path="url(#clip280)" style="stroke:#000000; stroke-linecap:butt; stroke-linejoin:round; stroke-width:4; stroke-opacity:1; fill:none" points="
  825.149,1301.73 826.88,1296.82 
  "/>
<polyline clip-path="url(#clip280)" style="stroke:#000000; stroke-linecap:butt; stroke-linejoin:round; stroke-width:4; stroke-opacity:1; fill:none" points="
  979.545,1315.34 981.276,1310.43 
  "/>
<polyline clip-path="url(#clip280)" style="stroke:#000000; stroke-linecap:butt; stroke-linejoin:round; stroke-width:4; stroke-opacity:1; fill:none" points="
  1133.94,1328.95 1135.67,1324.04 
  "/>
<polyline clip-path="url(#clip280)" style="stroke:#000000; stroke-linecap:butt; stroke-linejoin:round; stroke-width:4; stroke-opacity:1; fill:none" points="
  1288.34,1342.57 1290.07,1337.66 
  "/>
<polyline clip-path="url(#clip280)" style="stroke:#000000; stroke-linecap:butt; stroke-linejoin:round; stroke-width:4; stroke-opacity:1; fill:none" points="
  1442.73,1356.18 1444.47,1351.27 
  "/>
<path clip-path="url(#clip280)" d="M752.004 1328.53 L781.68 1328.53 L781.68 1332.47 L752.004 1332.47 L752.004 1328.53 Z" fill="#000000" fill-rule="evenodd" fill-opacity="1" /><path clip-path="url(#clip280)" d="M791.911 1344.64 L791.911 1340.39 Q793.671 1341.22 795.476 1341.66 Q797.282 1342.1 799.018 1342.1 Q803.647 1342.1 806.078 1339 Q808.532 1335.87 808.879 1329.53 Q807.536 1331.52 805.476 1332.58 Q803.416 1333.65 800.916 1333.65 Q795.731 1333.65 792.698 1330.52 Q789.689 1327.38 789.689 1321.94 Q789.689 1316.61 792.837 1313.39 Q795.985 1310.18 801.217 1310.18 Q807.212 1310.18 810.36 1314.78 Q813.532 1319.37 813.532 1328.12 Q813.532 1336.29 809.643 1341.17 Q805.777 1346.03 799.226 1346.03 Q797.467 1346.03 795.661 1345.69 Q793.856 1345.34 791.911 1344.64 M801.217 1329.99 Q804.365 1329.99 806.194 1327.84 Q808.046 1325.69 808.046 1321.94 Q808.046 1318.21 806.194 1316.06 Q804.365 1313.88 801.217 1313.88 Q798.069 1313.88 796.217 1316.06 Q794.388 1318.21 794.388 1321.94 Q794.388 1325.69 796.217 1327.84 Q798.069 1329.99 801.217 1329.99 Z" fill="#000000" fill-rule="evenodd" fill-opacity="1" /><path clip-path="url(#clip280)" d="M906.053 1342.15 L935.729 1342.15 L935.729 1346.08 L906.053 1346.08 L906.053 1342.15 Z" fill="#000000" fill-rule="evenodd" fill-opacity="1" /><path clip-path="url(#clip280)" d="M956.4 1339.83 Q953.252 1339.83 951.4 1341.98 Q949.572 1344.14 949.572 1347.89 Q949.572 1351.61 951.4 1353.79 Q953.252 1355.94 956.4 1355.94 Q959.548 1355.94 961.377 1353.79 Q963.229 1351.61 963.229 1347.89 Q963.229 1344.14 961.377 1341.98 Q959.548 1339.83 956.4 1339.83 M965.683 1325.18 L965.683 1329.44 Q963.923 1328.6 962.118 1328.16 Q960.335 1327.72 958.576 1327.72 Q953.947 1327.72 951.493 1330.85 Q949.062 1333.97 948.715 1340.29 Q950.081 1338.28 952.141 1337.22 Q954.201 1336.13 956.678 1336.13 Q961.886 1336.13 964.896 1339.3 Q967.928 1342.45 967.928 1347.89 Q967.928 1353.21 964.78 1356.43 Q961.632 1359.65 956.4 1359.65 Q950.405 1359.65 947.234 1355.06 Q944.062 1350.46 944.062 1341.73 Q944.062 1333.53 947.951 1328.67 Q951.84 1323.79 958.391 1323.79 Q960.15 1323.79 961.933 1324.14 Q963.738 1324.48 965.683 1325.18 Z" fill="#000000" fill-rule="evenodd" fill-opacity="1" /><path clip-path="url(#clip280)" d="M1061.26 1355.76 L1090.94 1355.76 L1090.94 1359.69 L1061.26 1359.69 L1061.26 1355.76 Z" fill="#000000" fill-rule="evenodd" fill-opacity="1" /><path clip-path="url(#clip280)" d="M1115.19 1353.95 Q1118.55 1354.67 1120.43 1356.94 Q1122.32 1359.21 1122.32 1362.54 Q1122.32 1367.66 1118.81 1370.46 Q1115.29 1373.26 1108.81 1373.26 Q1106.63 1373.26 1104.32 1372.82 Q1102.02 1372.4 1099.57 1371.54 L1099.57 1367.03 Q1101.51 1368.17 1103.83 1368.74 Q1106.14 1369.32 1108.67 1369.32 Q1113.07 1369.32 1115.36 1367.59 Q1117.67 1365.85 1117.67 1362.54 Q1117.67 1359.48 1115.52 1357.77 Q1113.39 1356.04 1109.57 1356.04 L1105.54 1356.04 L1105.54 1352.19 L1109.76 1352.19 Q1113.2 1352.19 1115.03 1350.83 Q1116.86 1349.44 1116.86 1346.85 Q1116.86 1344.18 1114.96 1342.77 Q1113.09 1341.34 1109.57 1341.34 Q1107.65 1341.34 1105.45 1341.75 Q1103.25 1342.17 1100.61 1343.05 L1100.61 1338.88 Q1103.27 1338.14 1105.59 1337.77 Q1107.93 1337.4 1109.99 1337.4 Q1115.31 1337.4 1118.41 1339.83 Q1121.51 1342.24 1121.51 1346.36 Q1121.51 1349.23 1119.87 1351.22 Q1118.23 1353.19 1115.19 1353.95 Z" fill="#000000" fill-rule="evenodd" fill-opacity="1" /><path clip-path="url(#clip280)" d="M1264.78 1354.72 Q1261.17 1354.72 1259.34 1358.28 Q1257.53 1361.82 1257.53 1368.95 Q1257.53 1376.06 1259.34 1379.62 Q1261.17 1383.17 1264.78 1383.17 Q1268.41 1383.17 1270.22 1379.62 Q1272.04 1376.06 1272.04 1368.95 Q1272.04 1361.82 1270.22 1358.28 Q1268.41 1354.72 1264.78 1354.72 M1264.78 1351.01 Q1270.59 1351.01 1273.64 1355.62 Q1276.72 1360.2 1276.72 1368.95 Q1276.72 1377.68 1273.64 1382.29 Q1270.59 1386.87 1264.78 1386.87 Q1258.97 1386.87 1255.89 1382.29 Q1252.83 1377.68 1252.83 1368.95 Q1252.83 1360.2 1255.89 1355.62 Q1258.97 1351.01 1264.78 1351.01 Z" fill="#000000" fill-rule="evenodd" fill-opacity="1" /><path clip-path="url(#clip280)" d="M1423.99 1381.18 Q1427.34 1381.89 1429.22 1384.16 Q1431.12 1386.43 1431.12 1389.76 Q1431.12 1394.88 1427.6 1397.68 Q1424.08 1400.48 1417.6 1400.48 Q1415.42 1400.48 1413.11 1400.04 Q1410.82 1399.63 1408.36 1398.77 L1408.36 1394.26 Q1410.31 1395.39 1412.62 1395.97 Q1414.94 1396.55 1417.46 1396.55 Q1421.86 1396.55 1424.15 1394.81 Q1426.46 1393.07 1426.46 1389.76 Q1426.46 1386.71 1424.31 1385 Q1422.18 1383.26 1418.36 1383.26 L1414.34 1383.26 L1414.34 1379.42 L1418.55 1379.42 Q1422 1379.42 1423.83 1378.05 Q1425.65 1376.66 1425.65 1374.07 Q1425.65 1371.41 1423.76 1370 Q1421.88 1368.56 1418.36 1368.56 Q1416.44 1368.56 1414.24 1368.98 Q1412.04 1369.39 1409.4 1370.27 L1409.4 1366.11 Q1412.07 1365.37 1414.38 1365 Q1416.72 1364.63 1418.78 1364.63 Q1424.1 1364.63 1427.21 1367.06 Q1430.31 1369.46 1430.31 1373.58 Q1430.31 1376.45 1428.66 1378.45 Q1427.02 1380.41 1423.99 1381.18 Z" fill="#000000" fill-rule="evenodd" fill-opacity="1" /><polyline clip-path="url(#clip282)" style="stroke:#000000; stroke-linecap:butt; stroke-linejoin:round; stroke-width:2; stroke-opacity:0.1; fill:none" points="
  1572.91,1355.71 754.607,1283.57 
  "/>
<polyline clip-path="url(#clip282)" style="stroke:#000000; stroke-linecap:butt; stroke-linejoin:round; stroke-width:2; stroke-opacity:0.1; fill:none" points="
  754.607,1283.57 754.607,563.968 
  "/>
<polyline clip-path="url(#clip282)" style="stroke:#000000; stroke-linecap:butt; stroke-linejoin:round; stroke-width:2; stroke-opacity:0.1; fill:none" points="
  1618.28,1227.05 799.981,1154.91 
  "/>
<polyline clip-path="url(#clip282)" style="stroke:#000000; stroke-linecap:butt; stroke-linejoin:round; stroke-width:2; stroke-opacity:0.1; fill:none" points="
  799.981,1154.91 799.981,435.305 
  "/>
<polyline clip-path="url(#clip282)" style="stroke:#000000; stroke-linecap:butt; stroke-linejoin:round; stroke-width:2; stroke-opacity:0.1; fill:none" points="
  1663.66,1098.39 845.355,1026.24 
  "/>
<polyline clip-path="url(#clip282)" style="stroke:#000000; stroke-linecap:butt; stroke-linejoin:round; stroke-width:2; stroke-opacity:0.1; fill:none" points="
  845.355,1026.24 845.355,306.641 
  "/>
<polyline clip-path="url(#clip282)" style="stroke:#000000; stroke-linecap:butt; stroke-linejoin:round; stroke-width:2; stroke-opacity:0.1; fill:none" points="
  1709.03,969.724 890.728,897.579 
  "/>
<polyline clip-path="url(#clip282)" style="stroke:#000000; stroke-linecap:butt; stroke-linejoin:round; stroke-width:2; stroke-opacity:0.1; fill:none" points="
  890.728,897.579 890.728,177.977 
  "/>
<polyline clip-path="url(#clip280)" style="stroke:#000000; stroke-linecap:butt; stroke-linejoin:round; stroke-width:4; stroke-opacity:1; fill:none" points="
  1568.82,1367.29 1713.11,958.144 
  "/>
<polyline clip-path="url(#clip280)" style="stroke:#000000; stroke-linecap:butt; stroke-linejoin:round; stroke-width:4; stroke-opacity:1; fill:none" points="
  1572.91,1355.71 1563.09,1354.85 
  "/>
<polyline clip-path="url(#clip280)" style="stroke:#000000; stroke-linecap:butt; stroke-linejoin:round; stroke-width:4; stroke-opacity:1; fill:none" points="
  1618.28,1227.05 1608.46,1226.19 
  "/>
<polyline clip-path="url(#clip280)" style="stroke:#000000; stroke-linecap:butt; stroke-linejoin:round; stroke-width:4; stroke-opacity:1; fill:none" points="
  1663.66,1098.39 1653.84,1097.52 
  "/>
<polyline clip-path="url(#clip280)" style="stroke:#000000; stroke-linecap:butt; stroke-linejoin:round; stroke-width:4; stroke-opacity:1; fill:none" points="
  1709.03,969.724 1699.21,968.858 
  "/>
<path clip-path="url(#clip280)" d="M1613.58 1343.54 Q1609.97 1343.54 1608.14 1347.1 Q1606.34 1350.65 1606.34 1357.78 Q1606.34 1364.88 1608.14 1368.45 Q1609.97 1371.99 1613.58 1371.99 Q1617.22 1371.99 1619.02 1368.45 Q1620.85 1364.88 1620.85 1357.78 Q1620.85 1350.65 1619.02 1347.1 Q1617.22 1343.54 1613.58 1343.54 M1613.58 1339.84 Q1619.39 1339.84 1622.45 1344.44 Q1625.53 1349.03 1625.53 1357.78 Q1625.53 1366.5 1622.45 1371.11 Q1619.39 1375.69 1613.58 1375.69 Q1607.77 1375.69 1604.69 1371.11 Q1601.64 1366.5 1601.64 1357.78 Q1601.64 1349.03 1604.69 1344.44 Q1607.77 1339.84 1613.58 1339.84 Z" fill="#000000" fill-rule="evenodd" fill-opacity="1" /><path clip-path="url(#clip280)" d="M1647.68 1242.42 L1655.32 1242.42 L1655.32 1216.06 L1647.01 1217.72 L1647.01 1213.46 L1655.27 1211.8 L1659.95 1211.8 L1659.95 1242.42 L1667.59 1242.42 L1667.59 1246.36 L1647.68 1246.36 L1647.68 1242.42 Z" fill="#000000" fill-rule="evenodd" fill-opacity="1" /><path clip-path="url(#clip280)" d="M1698.01 1113.76 L1714.33 1113.76 L1714.33 1117.69 L1692.38 1117.69 L1692.38 1113.76 Q1695.05 1111 1699.63 1106.37 Q1704.24 1101.72 1705.42 1100.38 Q1707.66 1097.86 1708.54 1096.12 Q1709.44 1094.36 1709.44 1092.67 Q1709.44 1089.92 1707.5 1088.18 Q1705.58 1086.44 1702.48 1086.44 Q1700.28 1086.44 1697.82 1087.21 Q1695.39 1087.97 1692.62 1089.52 L1692.62 1084.8 Q1695.44 1083.67 1697.89 1083.09 Q1700.35 1082.51 1702.38 1082.51 Q1707.75 1082.51 1710.95 1085.19 Q1714.14 1087.88 1714.14 1092.37 Q1714.14 1094.5 1713.33 1096.42 Q1712.55 1098.32 1710.44 1100.91 Q1709.86 1101.58 1706.76 1104.8 Q1703.66 1107.99 1698.01 1113.76 Z" fill="#000000" fill-rule="evenodd" fill-opacity="1" /><path clip-path="url(#clip280)" d="M1753.38 970.396 Q1756.74 971.113 1758.61 973.382 Q1760.51 975.65 1760.51 978.984 Q1760.51 984.099 1756.99 986.9 Q1753.48 989.701 1746.99 989.701 Q1744.82 989.701 1742.5 989.261 Q1740.21 988.845 1737.76 987.988 L1737.76 983.474 Q1739.7 984.609 1742.02 985.187 Q1744.33 985.766 1746.86 985.766 Q1751.25 985.766 1753.55 984.03 Q1755.86 982.294 1755.86 978.984 Q1755.86 975.928 1753.71 974.215 Q1751.58 972.479 1747.76 972.479 L1743.73 972.479 L1743.73 968.636 L1747.94 968.636 Q1751.39 968.636 1753.22 967.271 Q1755.05 965.882 1755.05 963.289 Q1755.05 960.627 1753.15 959.215 Q1751.28 957.78 1747.76 957.78 Q1745.84 957.78 1743.64 958.197 Q1741.44 958.613 1738.8 959.493 L1738.8 955.326 Q1741.46 954.586 1743.78 954.215 Q1746.11 953.845 1748.17 953.845 Q1753.5 953.845 1756.6 956.275 Q1759.7 958.683 1759.7 962.803 Q1759.7 965.673 1758.06 967.664 Q1756.42 969.632 1753.38 970.396 Z" fill="#000000" fill-rule="evenodd" fill-opacity="1" /><polyline clip-path="url(#clip282)" style="stroke:#000000; stroke-linecap:butt; stroke-linejoin:round; stroke-width:2; stroke-opacity:0.1; fill:none" points="
  750.524,1280.15 894.812,870.997 
  "/>
<polyline clip-path="url(#clip282)" style="stroke:#000000; stroke-linecap:butt; stroke-linejoin:round; stroke-width:2; stroke-opacity:0.1; fill:none" points="
  894.812,870.997 1713.11,943.142 
  "/>
<polyline clip-path="url(#clip282)" style="stroke:#000000; stroke-linecap:butt; stroke-linejoin:round; stroke-width:2; stroke-opacity:0.1; fill:none" points="
  750.524,1082.21 894.812,673.057 
  "/>
<polyline clip-path="url(#clip282)" style="stroke:#000000; stroke-linecap:butt; stroke-linejoin:round; stroke-width:2; stroke-opacity:0.1; fill:none" points="
  894.812,673.057 1713.11,745.201 
  "/>
<polyline clip-path="url(#clip282)" style="stroke:#000000; stroke-linecap:butt; stroke-linejoin:round; stroke-width:2; stroke-opacity:0.1; fill:none" points="
  750.524,884.267 894.812,475.117 
  "/>
<polyline clip-path="url(#clip282)" style="stroke:#000000; stroke-linecap:butt; stroke-linejoin:round; stroke-width:2; stroke-opacity:0.1; fill:none" points="
  894.812,475.117 1713.11,547.261 
  "/>
<polyline clip-path="url(#clip282)" style="stroke:#000000; stroke-linecap:butt; stroke-linejoin:round; stroke-width:2; stroke-opacity:0.1; fill:none" points="
  750.524,686.327 894.812,277.176 
  "/>
<polyline clip-path="url(#clip282)" style="stroke:#000000; stroke-linecap:butt; stroke-linejoin:round; stroke-width:2; stroke-opacity:0.1; fill:none" points="
  894.812,277.176 1713.11,349.32 
  "/>
<polyline clip-path="url(#clip280)" style="stroke:#000000; stroke-linecap:butt; stroke-linejoin:round; stroke-width:4; stroke-opacity:1; fill:none" points="
  750.524,1295.15 750.524,575.548 
  "/>
<polyline clip-path="url(#clip280)" style="stroke:#000000; stroke-linecap:butt; stroke-linejoin:round; stroke-width:4; stroke-opacity:1; fill:none" points="
  750.524,1280.15 752.255,1275.24 
  "/>
<polyline clip-path="url(#clip280)" style="stroke:#000000; stroke-linecap:butt; stroke-linejoin:round; stroke-width:4; stroke-opacity:1; fill:none" points="
  750.524,1082.21 752.255,1077.3 
  "/>
<polyline clip-path="url(#clip280)" style="stroke:#000000; stroke-linecap:butt; stroke-linejoin:round; stroke-width:4; stroke-opacity:1; fill:none" points="
  750.524,884.267 752.255,879.357 
  "/>
<polyline clip-path="url(#clip280)" style="stroke:#000000; stroke-linecap:butt; stroke-linejoin:round; stroke-width:4; stroke-opacity:1; fill:none" points="
  750.524,686.327 752.255,681.417 
  "/>
<path clip-path="url(#clip280)" d="M709.779 1265.95 Q706.168 1265.95 704.339 1269.51 Q702.534 1273.05 702.534 1280.18 Q702.534 1287.29 704.339 1290.85 Q706.168 1294.4 709.779 1294.4 Q713.413 1294.4 715.219 1290.85 Q717.048 1287.29 717.048 1280.18 Q717.048 1273.05 715.219 1269.51 Q713.413 1265.95 709.779 1265.95 M709.779 1262.24 Q715.589 1262.24 718.645 1266.85 Q721.724 1271.43 721.724 1280.18 Q721.724 1288.91 718.645 1293.52 Q715.589 1298.1 709.779 1298.1 Q703.969 1298.1 700.89 1293.52 Q697.835 1288.91 697.835 1280.18 Q697.835 1271.43 700.89 1266.85 Q703.969 1262.24 709.779 1262.24 Z" fill="#000000" fill-rule="evenodd" fill-opacity="1" /><path clip-path="url(#clip280)" d="M701.816 1095.55 L709.455 1095.55 L709.455 1069.19 L701.145 1070.85 L701.145 1066.59 L709.409 1064.93 L714.085 1064.93 L714.085 1095.55 L721.724 1095.55 L721.724 1099.49 L701.816 1099.49 L701.816 1095.55 Z" fill="#000000" fill-rule="evenodd" fill-opacity="1" /><path clip-path="url(#clip280)" d="M705.404 897.612 L721.724 897.612 L721.724 901.547 L699.779 901.547 L699.779 897.612 Q702.441 894.857 707.025 890.228 Q711.631 885.575 712.812 884.232 Q715.057 881.709 715.937 879.973 Q716.839 878.214 716.839 876.524 Q716.839 873.769 714.895 872.033 Q712.974 870.297 709.872 870.297 Q707.673 870.297 705.219 871.061 Q702.788 871.825 700.011 873.376 L700.011 868.654 Q702.835 867.52 705.288 866.941 Q707.742 866.362 709.779 866.362 Q715.15 866.362 718.344 869.047 Q721.538 871.732 721.538 876.223 Q721.538 878.353 720.728 880.274 Q719.941 882.172 717.835 884.765 Q717.256 885.436 714.154 888.654 Q711.052 891.848 705.404 897.612 Z" fill="#000000" fill-rule="evenodd" fill-opacity="1" /><path clip-path="url(#clip280)" d="M714.594 684.973 Q717.95 685.69 719.825 687.959 Q721.724 690.227 721.724 693.56 Q721.724 698.676 718.205 701.477 Q714.687 704.278 708.205 704.278 Q706.029 704.278 703.714 703.838 Q701.423 703.422 698.969 702.565 L698.969 698.051 Q700.914 699.185 703.228 699.764 Q705.543 700.343 708.066 700.343 Q712.464 700.343 714.756 698.607 Q717.071 696.871 717.071 693.56 Q717.071 690.505 714.918 688.792 Q712.788 687.056 708.969 687.056 L704.941 687.056 L704.941 683.213 L709.154 683.213 Q712.603 683.213 714.432 681.848 Q716.261 680.459 716.261 677.866 Q716.261 675.204 714.363 673.792 Q712.488 672.357 708.969 672.357 Q707.048 672.357 704.849 672.774 Q702.65 673.19 700.011 674.07 L700.011 669.903 Q702.673 669.162 704.988 668.792 Q707.326 668.422 709.386 668.422 Q714.71 668.422 717.812 670.852 Q720.913 673.26 720.913 677.38 Q720.913 680.25 719.27 682.241 Q717.626 684.209 714.594 684.973 Z" fill="#000000" fill-rule="evenodd" fill-opacity="1" /><polyline clip-path="url(#clip282)" style="stroke:#0000ff; stroke-linecap:butt; stroke-linejoin:round; stroke-width:4; stroke-opacity:1; fill:none" points="
  777.767,1180.62 800.657,1182.21 823.549,1185.11 846.445,1189.17 869.356,1194.19 892.327,1199.73 915.515,1204.46 939.439,1204.28 965.222,1189.1 993.201,1152.23 
  1021.34,1113.67 1047.43,1096.24 1071.51,1095.72 1094.75,1101.4 1117.74,1108.64 1140.66,1115.97 1163.55,1122.94 1186.43,1129.45 1209.29,1135.52 1232.04,1141.6 
  1254.44,1149.52 1275.58,1165.13 1293.52,1199.51 1308.25,1250.55 1324.66,1292.02 1344.84,1310.75 1366.92,1316.32 1389.6,1317.06 1412.43,1315.95 1435.3,1313.88 
  1458.19,1311.14 1481.08,1307.86 1503.97,1304.12 1526.86,1300.03 1549.75,1295.69 
  "/>
<polyline clip-path="url(#clip282)" style="stroke:#0000ff; stroke-linecap:butt; stroke-linejoin:round; stroke-width:4; stroke-opacity:1; fill:none" points="
  782.461,1146.83 805.345,1148.43 828.23,1151.32 851.119,1155.38 874.024,1160.4 896.985,1165.96 920.157,1170.76 944.039,1170.84 969.715,1156.46 997.513,1121.15 
  1025.47,1084.2 1051.44,1067.67 1075.47,1067.45 1098.7,1073.23 1121.67,1080.48 1144.58,1087.81 1167.47,1094.78 1190.34,1101.29 1213.19,1107.35 1235.95,1113.4 
  1258.36,1121.19 1279.55,1136.4 1297.65,1169.68 1312.66,1219.04 1329.28,1259.12 1349.55,1277.23 1371.66,1282.61 1394.33,1283.29 1417.16,1282.17 1440.03,1280.1 
  1462.91,1277.35 1485.79,1274.07 1508.68,1270.33 1531.56,1266.24 1554.44,1261.91 
  "/>
<polyline clip-path="url(#clip282)" style="stroke:#0000ff; stroke-linecap:butt; stroke-linejoin:round; stroke-width:4; stroke-opacity:1; fill:none" points="
  787.154,1113.04 810.032,1114.64 832.911,1117.53 855.794,1121.59 878.691,1126.62 901.644,1132.19 924.798,1137.07 948.638,1137.41 974.209,1123.82 1001.82,1090.07 
  1029.59,1054.74 1055.45,1039.1 1079.43,1039.19 1102.64,1045.05 1125.6,1052.32 1148.5,1059.66 1171.39,1066.63 1194.26,1073.13 1217.1,1079.18 1239.85,1085.19 
  1262.27,1092.87 1283.52,1107.66 1301.78,1139.86 1317.07,1187.53 1333.91,1226.23 1354.27,1243.72 1376.39,1248.89 1399.07,1249.52 1421.89,1248.38 1444.75,1246.31 
  1467.63,1243.56 1490.5,1240.28 1513.38,1236.54 1536.26,1232.46 1559.14,1228.12 
  "/>
<polyline clip-path="url(#clip282)" style="stroke:#0000ff; stroke-linecap:butt; stroke-linejoin:round; stroke-width:4; stroke-opacity:1; fill:none" points="
  791.848,1079.26 814.72,1080.85 837.592,1083.74 860.468,1087.8 883.359,1092.83 906.302,1098.42 929.44,1103.37 953.238,1103.97 978.702,1091.18 1006.14,1058.99 
  1033.72,1025.28 1059.45,1010.53 1083.39,1010.93 1106.58,1016.87 1129.54,1024.17 1152.43,1031.51 1175.31,1038.48 1198.17,1044.97 1221.01,1051.01 1243.76,1056.99 
  1266.19,1064.55 1287.49,1078.92 1305.92,1110.04 1321.48,1156.02 1338.54,1193.34 1358.98,1210.2 1381.13,1215.18 1403.8,1215.75 1426.62,1214.6 1449.48,1212.52 
  1472.35,1209.77 1495.22,1206.49 1518.09,1202.75 1540.96,1198.67 1563.83,1194.33 
  "/>
<polyline clip-path="url(#clip282)" style="stroke:#0000ff; stroke-linecap:butt; stroke-linejoin:round; stroke-width:4; stroke-opacity:1; fill:none" points="
  796.542,1045.47 819.407,1047.07 842.273,1049.95 865.143,1054.01 888.026,1059.05 910.96,1064.65 934.081,1069.67 957.837,1070.54 983.195,1058.55 1010.45,1027.9 
  1037.84,995.816 1063.46,981.962 1087.35,982.662 1110.52,988.69 1133.47,996.009 1156.35,1003.35 1179.22,1010.32 1202.08,1016.82 1224.91,1022.84 1247.66,1028.79 
  1270.1,1036.22 1291.46,1050.19 1310.05,1080.22 1325.89,1124.51 1343.16,1160.45 1363.69,1176.68 1385.86,1181.47 1408.54,1181.98 1431.35,1180.81 1454.21,1178.73 
  1477.07,1175.99 1499.93,1172.7 1522.79,1168.97 1545.66,1164.88 1568.52,1160.55 
  "/>
<polyline clip-path="url(#clip282)" style="stroke:#0000ff; stroke-linecap:butt; stroke-linejoin:round; stroke-width:4; stroke-opacity:1; fill:none" points="
  801.236,1011.68 824.095,1013.28 846.954,1016.16 869.817,1020.22 892.693,1025.26 915.618,1030.88 938.723,1035.98 962.437,1037.11 987.689,1025.91 1014.76,996.822 
  1041.96,966.354 1067.47,953.391 1091.31,954.398 1114.46,960.511 1137.4,967.852 1160.28,975.199 1183.14,982.167 1205.99,988.657 1228.82,994.672 1251.57,1000.59 
  1274.02,1007.9 1295.43,1021.45 1314.19,1050.4 1330.3,1093.01 1347.79,1127.56 1368.41,1143.17 1390.6,1147.75 1413.27,1148.21 1436.08,1147.03 1458.93,1144.94 
  1481.79,1142.2 1504.64,1138.91 1527.5,1135.18 1550.36,1131.09 1573.22,1126.76 
  "/>
<polyline clip-path="url(#clip282)" style="stroke:#0000ff; stroke-linecap:butt; stroke-linejoin:round; stroke-width:4; stroke-opacity:1; fill:none" points="
  805.93,977.897 828.782,979.492 851.635,982.376 874.492,986.434 897.361,991.476 920.276,997.114 943.365,1002.28 967.036,1003.67 992.182,993.27 1019.07,965.739 
  1046.09,936.891 1071.48,924.821 1095.27,926.135 1118.4,932.333 1141.33,939.694 1164.2,947.045 1187.06,954.012 1209.9,960.498 1232.73,966.503 1255.47,972.384 
  1277.93,979.572 1299.4,992.712 1318.32,1020.57 1334.71,1061.5 1352.41,1094.67 1373.12,1109.65 1395.33,1114.04 1418.01,1114.44 1440.82,1113.24 1463.66,1111.15 
  1486.5,1108.41 1509.36,1105.12 1532.21,1101.39 1555.06,1097.3 1577.91,1092.97 
  "/>
<polyline clip-path="url(#clip282)" style="stroke:#0000ff; stroke-linecap:butt; stroke-linejoin:round; stroke-width:4; stroke-opacity:1; fill:none" points="
  810.624,944.11 833.469,945.705 856.316,948.588 879.166,952.645 902.028,957.69 924.934,963.345 948.006,968.582 971.636,970.238 996.676,960.632 1023.38,934.657 
  1050.21,907.429 1075.48,896.251 1099.23,897.871 1122.35,904.154 1145.26,911.537 1168.13,918.891 1190.98,925.858 1213.82,932.34 1236.63,938.334 1259.38,944.181 
  1281.85,951.248 1303.37,963.975 1322.46,990.752 1339.12,1029.99 1357.04,1061.77 1377.83,1076.13 1400.07,1080.32 1422.75,1080.67 1445.55,1079.46 1468.38,1077.36 
  1491.22,1074.62 1514.07,1071.33 1536.91,1067.6 1559.76,1063.52 1582.61,1059.19 
  "/>
<polyline clip-path="url(#clip282)" style="stroke:#0000ff; stroke-linecap:butt; stroke-linejoin:round; stroke-width:4; stroke-opacity:1; fill:none" points="
  815.317,910.324 838.157,911.917 860.997,914.8 883.841,918.857 906.695,923.904 929.593,929.577 952.648,934.885 976.235,936.804 1001.17,927.995 1027.69,903.574 
  1054.34,877.966 1079.49,867.681 1103.19,869.607 1126.29,875.976 1149.19,883.379 1172.05,890.737 1194.9,897.703 1217.73,904.181 1240.54,910.166 1263.28,915.978 
  1285.77,922.924 1307.34,935.238 1326.59,960.93 1343.52,998.48 1361.67,1028.88 1382.55,1042.61 1404.8,1046.61 1427.48,1046.9 1450.28,1045.67 1473.11,1043.57 
  1495.94,1040.83 1518.78,1037.54 1541.62,1033.81 1564.46,1029.73 1587.3,1025.4 
  "/>
<polyline clip-path="url(#clip282)" style="stroke:#0000ff; stroke-linecap:butt; stroke-linejoin:round; stroke-width:4; stroke-opacity:1; fill:none" points="
  820.011,876.537 842.844,878.13 865.678,881.012 888.515,885.068 911.363,890.119 934.251,895.808 957.289,901.188 980.835,903.37 1005.66,895.357 1032.01,872.492 
  1058.46,848.504 1083.5,839.11 1107.15,841.343 1130.23,847.797 1153.13,855.222 1175.98,862.584 1198.81,869.549 1221.64,876.022 1244.45,881.997 1267.19,887.775 
  1289.68,894.599 1311.31,906.502 1330.72,931.108 1347.93,966.971 1366.29,995.991 1387.26,1009.1 1409.54,1012.89 1432.22,1013.13 1455.01,1011.89 1477.83,1009.79 
  1500.66,1007.04 1523.5,1003.75 1546.33,1000.02 1569.16,995.942 1591.99,991.615 
  "/>
<polyline clip-path="url(#clip282)" style="stroke:#0000ff; stroke-linecap:butt; stroke-linejoin:round; stroke-width:4; stroke-opacity:1; fill:none" points="
  824.705,842.75 847.532,844.343 870.359,847.224 893.189,851.28 916.03,856.333 938.909,862.04 961.931,867.491 985.435,869.936 1010.16,862.719 1036.32,841.409 
  1062.59,819.041 1087.51,810.54 1111.11,813.08 1134.17,819.618 1157.06,827.064 1179.9,834.43 1202.73,841.394 1225.55,847.864 1248.36,853.828 1271.09,859.573 
  1293.6,866.275 1315.28,877.765 1334.86,901.286 1352.34,935.462 1370.92,963.099 1391.97,975.58 1414.27,979.181 1436.95,979.364 1459.74,978.104 1482.56,975.997 
  1505.38,973.247 1528.21,969.963 1551.03,966.233 1573.86,962.154 1596.69,957.828 
  "/>
<polyline clip-path="url(#clip282)" style="stroke:#0000ff; stroke-linecap:butt; stroke-linejoin:round; stroke-width:4; stroke-opacity:1; fill:none" points="
  829.399,808.964 852.219,810.556 875.04,813.436 897.864,817.491 920.697,822.547 943.567,828.271 966.572,833.794 990.034,836.502 1014.65,830.082 1040.63,810.327 
  1066.71,789.579 1091.51,781.97 1115.07,784.816 1138.11,791.44 1160.99,798.906 1183.83,806.276 1206.65,813.24 1229.46,819.705 1252.26,825.659 1275,831.37 
  1297.51,837.951 1319.25,849.028 1338.99,871.464 1356.75,903.953 1375.55,930.207 1396.69,942.063 1419,945.466 1441.69,945.595 1464.47,944.32 1487.28,942.208 
  1510.1,939.458 1532.92,936.173 1555.74,932.445 1578.56,928.366 1601.38,924.041 
  "/>
<polyline clip-path="url(#clip282)" style="stroke:#0000ff; stroke-linecap:butt; stroke-linejoin:round; stroke-width:4; stroke-opacity:1; fill:none" points="
  834.093,775.177 856.907,776.769 879.721,779.648 902.538,783.702 925.365,788.761 948.225,794.503 971.214,800.097 994.634,803.068 1019.14,797.444 1044.94,779.244 
  1070.83,760.116 1095.52,753.399 1119.03,756.552 1142.05,763.261 1164.92,770.749 1187.75,778.122 1210.57,785.085 1233.38,791.546 1256.17,797.49 1278.9,803.167 
  1301.43,809.626 1323.22,820.292 1343.13,841.642 1361.16,872.445 1380.17,897.316 1401.4,908.546 1423.74,911.752 1446.42,911.826 1469.2,910.535 1492.01,908.419 
  1514.82,905.668 1537.63,902.384 1560.45,898.656 1583.26,894.578 1606.07,890.255 
  "/>
<polyline clip-path="url(#clip282)" style="stroke:#0000ff; stroke-linecap:butt; stroke-linejoin:round; stroke-width:4; stroke-opacity:1; fill:none" points="
  838.787,741.39 861.594,742.982 884.402,745.86 907.213,749.914 930.032,754.976 952.884,760.734 975.855,766.4 999.233,769.634 1023.64,764.807 1049.25,748.161 
  1074.96,730.653 1099.53,724.829 1122.99,728.288 1145.99,735.083 1168.85,742.591 1191.67,749.969 1214.49,756.931 1237.29,763.388 1260.08,769.321 1282.81,774.964 
  1305.34,781.302 1327.19,791.555 1347.26,811.82 1365.57,840.936 1384.8,864.424 1406.11,875.029 1428.47,878.038 1451.16,878.056 1473.94,876.75 1496.73,874.631 
  1519.54,871.878 1542.35,868.594 1565.15,864.867 1587.96,860.79 1610.77,856.468 
  "/>
<polyline clip-path="url(#clip282)" style="stroke:#0000ff; stroke-linecap:butt; stroke-linejoin:round; stroke-width:4; stroke-opacity:1; fill:none" points="
  843.48,707.604 866.282,709.194 889.083,712.072 911.887,716.125 934.699,721.19 957.542,726.965 980.497,732.704 1003.83,736.2 1028.13,732.169 1053.56,717.079 
  1079.08,701.191 1103.54,696.259 1126.95,700.025 1149.94,706.904 1172.79,714.434 1195.6,721.815 1218.4,728.776 1241.2,735.229 1263.98,741.152 1286.71,746.761 
  1309.26,752.978 1331.16,762.818 1351.39,781.998 1369.98,809.427 1389.42,831.532 1410.83,841.512 1433.21,844.324 1455.9,844.287 1478.67,842.966 1501.46,840.842 
  1524.26,838.089 1547.06,834.805 1569.86,831.078 1592.66,827.003 1615.46,822.681 
  "/>
<polyline clip-path="url(#clip282)" style="stroke:#0000ff; stroke-linecap:butt; stroke-linejoin:round; stroke-width:4; stroke-opacity:1; fill:none" points="
  848.174,673.817 870.969,675.407 893.764,678.283 916.562,682.336 939.367,687.404 962.2,693.197 985.138,699.007 1008.43,702.766 1032.62,699.531 1057.87,685.996 
  1083.21,671.728 1107.54,667.689 1130.91,671.761 1153.88,678.725 1176.72,686.276 1199.52,693.661 1222.32,700.622 1245.11,707.07 1267.89,712.983 1290.62,718.559 
  1313.18,724.653 1335.13,734.082 1355.53,752.175 1374.39,777.918 1394.05,798.641 1415.54,807.995 1437.94,810.61 1460.63,810.517 1483.4,809.181 1506.19,807.053 
  1528.98,804.299 1551.77,801.015 1574.57,797.289 1597.36,793.215 1620.16,788.895 
  "/>
<polyline clip-path="url(#clip282)" style="stroke:#0000ff; stroke-linecap:butt; stroke-linejoin:round; stroke-width:4; stroke-opacity:1; fill:none" points="
  852.868,640.031 875.656,641.62 898.445,644.495 921.236,648.548 944.034,653.618 966.858,659.428 989.78,665.31 1013.03,669.332 1037.12,666.894 1062.19,654.914 
  1087.33,642.266 1111.55,639.118 1134.87,643.497 1157.82,650.547 1180.65,658.119 1203.45,665.508 1226.24,672.467 1249.02,678.912 1271.8,684.815 1294.52,690.356 
  1317.09,696.329 1339.1,705.345 1359.66,722.353 1378.8,746.41 1398.68,765.749 1420.25,774.478 1442.68,776.895 1465.37,776.748 1488.13,775.397 1510.91,773.264 
  1533.7,770.509 1556.49,767.226 1579.27,763.501 1602.06,759.427 1624.85,755.108 
  "/>
<polyline clip-path="url(#clip282)" style="stroke:#0000ff; stroke-linecap:butt; stroke-linejoin:round; stroke-width:4; stroke-opacity:1; fill:none" points="
  857.562,606.244 880.344,607.833 903.126,610.707 925.911,614.759 948.701,619.832 971.516,625.66 994.422,631.613 1017.63,635.898 1041.61,634.256 1066.5,623.831 
  1091.45,612.803 1115.56,610.548 1138.83,615.233 1161.76,622.368 1184.58,629.961 1207.37,637.354 1230.16,644.313 1252.94,650.753 1275.7,656.646 1298.43,662.153 
  1321.01,668.005 1343.07,676.608 1363.8,692.531 1383.2,714.901 1403.3,732.857 1424.96,740.961 1447.41,743.181 1470.1,742.978 1492.86,741.612 1515.64,739.476 
  1538.42,736.719 1561.2,733.436 1583.98,729.712 1606.76,725.639 1629.54,721.322 
  "/>
<polyline clip-path="url(#clip282)" style="stroke:#0000ff; stroke-linecap:butt; stroke-linejoin:round; stroke-width:4; stroke-opacity:1; fill:none" points="
  862.256,572.457 885.031,574.046 907.807,576.919 930.585,580.97 953.369,586.047 976.175,591.891 999.063,597.916 1022.23,602.465 1046.1,601.618 1070.81,592.749 
  1095.58,583.341 1119.56,581.978 1142.79,586.969 1165.7,594.19 1188.51,601.803 1211.3,609.2 1234.08,616.158 1256.85,622.594 1279.61,628.477 1302.33,633.95 
  1324.92,639.68 1347.04,647.872 1367.93,662.709 1387.61,683.392 1407.93,699.966 1429.68,707.444 1452.15,709.467 1474.84,709.209 1497.59,707.827 1520.36,705.687 
  1543.14,702.93 1565.91,699.647 1588.69,695.923 1611.46,691.851 1634.24,687.535 
  "/>
<polyline clip-path="url(#clip282)" style="stroke:#0000ff; stroke-linecap:butt; stroke-linejoin:round; stroke-width:4; stroke-opacity:1; fill:none" points="
  866.95,538.671 889.719,540.259 912.488,543.131 935.26,547.182 958.036,552.261 980.833,558.123 1003.7,564.219 1026.83,569.031 1050.6,568.981 1075.12,561.666 
  1099.7,553.878 1123.57,553.408 1146.75,558.706 1169.64,566.011 1192.44,573.646 1215.22,581.046 1237.99,588.004 1260.76,594.436 1283.52,600.308 1306.24,605.748 
  1328.84,611.356 1351,619.135 1372.06,632.887 1392.02,651.883 1412.55,667.074 1434.39,673.927 1456.88,675.753 1479.58,675.439 1502.32,674.043 1525.09,671.898 
  1547.86,669.14 1570.62,665.857 1593.39,662.134 1616.16,658.064 1638.93,653.748 
  "/>
<polyline clip-path="url(#clip282)" style="stroke:#0000ff; stroke-linecap:butt; stroke-linejoin:round; stroke-width:4; stroke-opacity:1; fill:none" points="
  871.643,504.884 894.406,506.471 917.169,509.343 939.934,513.393 962.703,518.475 985.491,524.354 1008.35,530.522 1031.43,535.597 1055.09,536.343 1079.43,530.583 
  1103.83,524.416 1127.58,524.837 1150.71,530.442 1173.58,537.832 1196.38,545.488 1219.15,552.893 1241.91,559.849 1264.67,566.277 1287.42,572.139 1310.14,577.545 
  1332.75,583.032 1354.97,590.398 1376.2,603.065 1396.43,620.375 1417.18,634.182 1439.1,640.41 1461.62,642.038 1484.31,641.67 1507.06,640.258 1529.81,638.109 
  1552.58,635.35 1575.34,632.068 1598.1,628.345 1620.86,624.276 1643.63,619.962 
  "/>
<polyline clip-path="url(#clip282)" style="stroke:#0000ff; stroke-linecap:butt; stroke-linejoin:round; stroke-width:4; stroke-opacity:1; fill:none" points="
  876.337,471.097 899.094,472.684 921.851,475.555 944.608,479.604 967.371,484.689 990.149,490.586 1012.99,496.826 1036.03,502.163 1059.58,503.706 1083.74,499.501 
  1107.95,494.953 1131.59,496.267 1154.67,502.178 1177.53,509.654 1200.31,517.331 1223.07,524.739 1245.83,531.695 1268.58,538.118 1291.33,543.97 1314.05,549.342 
  1336.67,554.707 1358.94,561.661 1380.33,573.243 1400.84,588.866 1421.81,601.291 1443.82,606.893 1466.35,608.324 1489.05,607.901 1511.79,606.473 1534.54,604.321 
  1557.29,601.561 1580.05,598.278 1602.81,594.557 1625.56,590.488 1648.32,586.175 
  "/>
<polyline clip-path="url(#clip282)" style="stroke:#0000ff; stroke-linecap:butt; stroke-linejoin:round; stroke-width:4; stroke-opacity:1; fill:none" points="
  881.031,437.311 903.781,438.897 926.532,441.767 949.283,445.816 972.038,450.904 994.807,456.817 1017.63,463.129 1040.63,468.729 1064.08,471.068 1088.06,468.418 
  1112.07,465.491 1135.59,467.697 1158.63,473.914 1181.47,481.475 1204.24,489.173 1227,496.585 1249.75,503.541 1272.5,509.96 1295.24,515.801 1317.95,521.139 
  1340.59,526.383 1362.91,532.925 1384.47,543.421 1405.25,557.357 1426.43,568.399 1448.53,573.376 1471.09,574.61 1493.78,574.131 1516.52,572.689 1539.26,570.532 
  1562.01,567.771 1584.76,564.489 1607.51,560.768 1630.26,556.7 1653.01,552.388 
  "/>
<polyline clip-path="url(#clip282)" style="stroke:#0000ff; stroke-linecap:butt; stroke-linejoin:round; stroke-width:4; stroke-opacity:1; fill:none" points="
  885.725,403.524 908.469,405.11 931.213,407.979 953.957,412.027 976.705,417.118 999.466,423.049 1022.27,429.432 1045.23,435.295 1068.57,438.43 1092.37,437.336 
  1116.2,436.028 1139.6,439.126 1162.59,445.651 1185.41,453.297 1208.17,461.016 1230.92,468.431 1253.67,475.386 1276.41,481.801 1299.14,487.633 1321.86,492.937 
  1344.5,498.059 1366.88,504.188 1388.6,513.599 1409.66,525.848 1431.06,535.507 1453.24,539.858 1475.82,540.896 1498.52,540.362 1521.25,538.904 1543.99,536.743 
  1566.73,533.981 1589.48,530.699 1612.22,526.979 1634.96,522.912 1657.71,518.602 
  "/>
<polyline clip-path="url(#clip282)" style="stroke:#0000ff; stroke-linecap:butt; stroke-linejoin:round; stroke-width:4; stroke-opacity:1; fill:none" points="
  890.419,369.738 913.156,371.323 935.894,374.19 958.632,378.238 981.373,383.332 1004.12,389.28 1026.91,395.735 1049.83,401.861 1073.06,405.793 1096.68,406.253 
  1120.32,406.566 1143.61,410.556 1166.55,417.387 1189.35,425.118 1212.1,432.858 1234.85,440.278 1257.58,447.232 1280.32,453.642 1303.05,459.464 1325.76,464.734 
  1348.42,469.734 1370.85,475.451 1392.74,483.776 1414.07,494.34 1435.69,502.615 1457.96,506.341 1480.55,507.181 1503.25,506.592 1525.98,505.12 1548.72,502.954 
  1571.45,500.192 1594.19,496.91 1616.93,493.19 1639.66,489.125 1662.4,484.815 
  "/>
<polyline clip-path="url(#clip282)" style="stroke:#0000ff; stroke-linecap:butt; stroke-linejoin:round; stroke-width:4; stroke-opacity:1; fill:none" points="
  895.113,335.951 917.844,337.536 940.575,340.402 963.306,344.45 986.04,349.546 1008.78,355.512 1031.55,362.038 1054.43,368.427 1077.56,373.155 1100.99,375.171 
  1124.45,377.103 1147.62,381.986 1170.51,389.123 1193.29,396.939 1216.04,404.7 1238.77,412.124 1261.5,419.077 1284.23,425.484 1306.96,431.295 1329.67,436.531 
  1352.33,441.41 1374.82,446.715 1396.87,453.954 1418.48,462.831 1440.31,469.724 1462.67,472.824 1485.29,473.467 1507.99,472.823 1530.71,471.335 1553.44,469.166 
  1576.17,466.402 1598.9,463.12 1621.63,459.401 1644.36,455.337 1667.09,451.029 
  "/>
<polyline clip-path="url(#clip282)" style="stroke:#0000ff; stroke-linecap:butt; stroke-linejoin:round; stroke-width:4; stroke-opacity:1; fill:none" points="
  899.806,302.164 922.531,303.749 945.256,306.614 967.981,310.661 990.707,315.761 1013.44,321.743 1036.2,328.341 1059.03,334.993 1082.05,340.517 1105.3,344.088 
  1128.57,347.64 1151.62,353.416 1174.47,360.859 1197.23,368.761 1219.97,376.543 1242.69,383.97 1265.42,390.923 1288.14,397.325 1310.86,403.126 1333.57,408.328 
  1356.25,413.086 1378.79,417.978 1401,424.132 1422.88,431.322 1444.94,436.832 1467.38,439.307 1490.02,439.753 1512.73,439.053 1535.44,437.55 1558.17,435.377 
  1580.89,432.612 1603.62,429.331 1626.34,425.613 1649.06,421.549 1671.79,417.242 
  "/>
<polyline clip-path="url(#clip282)" style="stroke:#0000ff; stroke-linecap:butt; stroke-linejoin:round; stroke-width:4; stroke-opacity:1; fill:none" points="
  904.5,268.378 927.218,269.961 949.937,272.826 972.655,276.873 995.375,281.975 1018.1,287.975 1040.84,294.645 1063.63,301.559 1086.54,307.88 1109.61,313.005 
  1132.69,318.178 1155.63,324.845 1178.43,332.595 1201.17,340.582 1223.9,348.385 1246.62,355.817 1269.34,362.768 1292.06,369.166 1314.77,374.957 1337.48,380.126 
  1360.16,384.761 1382.76,389.241 1405.14,394.31 1427.29,399.813 1449.56,403.94 1472.1,405.79 1494.76,406.038 1517.46,405.284 1540.18,403.766 1562.89,401.588 
  1585.61,398.823 1608.33,395.541 1631.05,391.824 1653.76,387.761 1676.48,383.455 
  "/>
<polyline clip-path="url(#clip282)" style="stroke:#0000ff; stroke-linecap:butt; stroke-linejoin:round; stroke-width:4; stroke-opacity:1; fill:none" points="
  909.194,234.591 931.906,236.174 954.618,239.038 977.33,243.084 1000.04,248.189 1022.76,254.206 1045.48,260.948 1068.23,268.125 1091.04,275.242 1113.92,281.923 
  1136.82,288.715 1159.64,296.275 1182.39,304.332 1205.12,312.404 1227.83,320.228 1250.54,327.663 1273.26,334.614 1295.97,341.008 1318.68,346.788 1341.38,351.923 
  1364.08,356.437 1386.73,360.505 1409.27,364.488 1431.7,368.305 1454.19,371.049 1476.81,372.273 1499.49,372.324 1522.2,371.514 1544.91,369.981 1567.62,367.799 
  1590.33,365.033 1613.04,361.752 1635.75,358.035 1658.46,353.973 1681.18,349.669 
  "/>
<polyline clip-path="url(#clip282)" style="stroke:#0000ff; stroke-linecap:butt; stroke-linejoin:round; stroke-width:4; stroke-opacity:1; fill:none" points="
  913.888,200.804 936.593,202.387 959.299,205.25 982.004,209.295 1004.71,214.403 1027.41,220.438 1050.12,227.251 1072.83,234.691 1095.53,242.605 1118.24,250.84 
  1140.94,259.253 1163.65,267.705 1186.35,276.068 1209.06,284.225 1231.76,292.07 1254.47,299.509 1277.17,306.459 1299.88,312.849 1322.58,318.619 1345.29,323.72 
  1368,328.113 1390.7,331.768 1413.41,334.666 1436.11,336.796 1458.82,338.157 1481.52,338.756 1504.23,338.61 1526.93,337.745 1549.64,336.196 1572.34,334.01 
  1595.05,331.243 1617.75,327.962 1640.46,324.246 1663.16,320.186 1685.87,315.882 
  "/>
</svg>
