<?xml version="1.0" encoding="utf-8"?>
<svg xmlns="http://www.w3.org/2000/svg" xmlns:xlink="http://www.w3.org/1999/xlink" width="600" height="400" viewBox="0 0 2400 1600">
<defs>
  <clipPath id="clip370">
    <rect x="0" y="0" width="2400" height="1600"/>
  </clipPath>
</defs>
<path clip-path="url(#clip370)" d="
M0 1600 L2400 1600 L2400 0 L0 0  Z
  " fill="#ffffff" fill-rule="evenodd" fill-opacity="1"/>
<defs>
  <clipPath id="clip371">
    <rect x="480" y="0" width="1681" height="1600"/>
  </clipPath>
</defs>
<defs>
  <clipPath id="clip372">
    <rect x="223" y="47" width="2130" height="1440"/>
  </clipPath>
</defs>
<path clip-path="url(#clip372)" d="
M1562.36 1777.98 L1562.36 1325.4 L1580.51 1068.08 L1683.44 1113.45 L1683.44 1566.03 L1665.29 1823.36 L1562.36 1777.98  Z
  " fill="#ffffff" fill-rule="evenodd" fill-opacity="1"/>
<polyline clip-path="url(#clip372)" style="stroke:#000000; stroke-linecap:butt; stroke-linejoin:round; stroke-width:2; stroke-opacity:0.1; fill:none" points="
  881.433,1301.73 1025.72,892.579 
  "/>
<polyline clip-path="url(#clip372)" style="stroke:#000000; stroke-linecap:butt; stroke-linejoin:round; stroke-width:2; stroke-opacity:0.1; fill:none" points="
  1025.72,892.579 1025.72,172.977 
  "/>
<polyline clip-path="url(#clip372)" style="stroke:#000000; stroke-linecap:butt; stroke-linejoin:round; stroke-width:2; stroke-opacity:0.1; fill:none" points="
  1035.83,1315.34 1180.12,906.191 
  "/>
<polyline clip-path="url(#clip372)" style="stroke:#000000; stroke-linecap:butt; stroke-linejoin:round; stroke-width:2; stroke-opacity:0.1; fill:none" points="
  1180.12,906.191 1180.12,186.589 
  "/>
<polyline clip-path="url(#clip372)" style="stroke:#000000; stroke-linecap:butt; stroke-linejoin:round; stroke-width:2; stroke-opacity:0.1; fill:none" points="
  1190.23,1328.95 1334.51,919.803 
  "/>
<polyline clip-path="url(#clip372)" style="stroke:#000000; stroke-linecap:butt; stroke-linejoin:round; stroke-width:2; stroke-opacity:0.1; fill:none" points="
  1334.51,919.803 1334.51,200.201 
  "/>
<polyline clip-path="url(#clip372)" style="stroke:#000000; stroke-linecap:butt; stroke-linejoin:round; stroke-width:2; stroke-opacity:0.1; fill:none" points="
  1344.62,1342.57 1488.91,933.415 
  "/>
<polyline clip-path="url(#clip372)" style="stroke:#000000; stroke-linecap:butt; stroke-linejoin:round; stroke-width:2; stroke-opacity:0.1; fill:none" points="
  1488.91,933.415 1488.91,213.813 
  "/>
<polyline clip-path="url(#clip372)" style="stroke:#000000; stroke-linecap:butt; stroke-linejoin:round; stroke-width:2; stroke-opacity:0.1; fill:none" points="
  1499.02,1356.18 1643.31,947.027 
  "/>
<polyline clip-path="url(#clip372)" style="stroke:#000000; stroke-linecap:butt; stroke-linejoin:round; stroke-width:2; stroke-opacity:0.1; fill:none" points="
  1643.31,947.027 1643.31,227.425 
  "/>
<polyline clip-path="url(#clip370)" style="stroke:#000000; stroke-linecap:butt; stroke-linejoin:round; stroke-width:4; stroke-opacity:1; fill:none" points="
  806.808,1295.15 1625.11,1367.29 
  "/>
<polyline clip-path="url(#clip370)" style="stroke:#000000; stroke-linecap:butt; stroke-linejoin:round; stroke-width:4; stroke-opacity:1; fill:none" points="
  881.433,1301.73 883.164,1296.82 
  "/>
<polyline clip-path="url(#clip370)" style="stroke:#000000; stroke-linecap:butt; stroke-linejoin:round; stroke-width:4; stroke-opacity:1; fill:none" points="
  1035.83,1315.34 1037.56,1310.43 
  "/>
<polyline clip-path="url(#clip370)" style="stroke:#000000; stroke-linecap:butt; stroke-linejoin:round; stroke-width:4; stroke-opacity:1; fill:none" points="
  1190.23,1328.95 1191.96,1324.04 
  "/>
<polyline clip-path="url(#clip370)" style="stroke:#000000; stroke-linecap:butt; stroke-linejoin:round; stroke-width:4; stroke-opacity:1; fill:none" points="
  1344.62,1342.57 1346.35,1337.66 
  "/>
<polyline clip-path="url(#clip370)" style="stroke:#000000; stroke-linecap:butt; stroke-linejoin:round; stroke-width:4; stroke-opacity:1; fill:none" points="
  1499.02,1356.18 1500.75,1351.27 
  "/>
<path clip-path="url(#clip370)" d="M808.289 1328.53 L837.964 1328.53 L837.964 1332.47 L808.289 1332.47 L808.289 1328.53 Z" fill="#000000" fill-rule="evenodd" fill-opacity="1" /><path clip-path="url(#clip370)" d="M848.196 1344.64 L848.196 1340.39 Q849.955 1341.22 851.761 1341.66 Q853.566 1342.1 855.302 1342.1 Q859.932 1342.1 862.362 1339 Q864.816 1335.87 865.163 1329.53 Q863.821 1331.52 861.761 1332.58 Q859.7 1333.65 857.2 1333.65 Q852.015 1333.65 848.983 1330.52 Q845.974 1327.38 845.974 1321.94 Q845.974 1316.61 849.122 1313.39 Q852.27 1310.18 857.501 1310.18 Q863.497 1310.18 866.645 1314.78 Q869.816 1319.37 869.816 1328.12 Q869.816 1336.29 865.927 1341.17 Q862.061 1346.03 855.511 1346.03 Q853.751 1346.03 851.946 1345.69 Q850.14 1345.34 848.196 1344.64 M857.501 1329.99 Q860.649 1329.99 862.478 1327.84 Q864.33 1325.69 864.33 1321.94 Q864.33 1318.21 862.478 1316.06 Q860.649 1313.88 857.501 1313.88 Q854.353 1313.88 852.501 1316.06 Q850.673 1318.21 850.673 1321.94 Q850.673 1325.69 852.501 1327.84 Q854.353 1329.99 857.501 1329.99 Z" fill="#000000" fill-rule="evenodd" fill-opacity="1" /><path clip-path="url(#clip370)" d="M962.338 1342.15 L992.014 1342.15 L992.014 1346.08 L962.338 1346.08 L962.338 1342.15 Z" fill="#000000" fill-rule="evenodd" fill-opacity="1" /><path clip-path="url(#clip370)" d="M1012.68 1339.83 Q1009.54 1339.83 1007.68 1341.98 Q1005.86 1344.14 1005.86 1347.89 Q1005.86 1351.61 1007.68 1353.79 Q1009.54 1355.94 1012.68 1355.94 Q1015.83 1355.94 1017.66 1353.79 Q1019.51 1351.61 1019.51 1347.89 Q1019.51 1344.14 1017.66 1341.98 Q1015.83 1339.83 1012.68 1339.83 M1021.97 1325.18 L1021.97 1329.44 Q1020.21 1328.6 1018.4 1328.16 Q1016.62 1327.72 1014.86 1327.72 Q1010.23 1327.72 1007.78 1330.85 Q1005.35 1333.97 1005 1340.29 Q1006.37 1338.28 1008.43 1337.22 Q1010.49 1336.13 1012.96 1336.13 Q1018.17 1336.13 1021.18 1339.3 Q1024.21 1342.45 1024.21 1347.89 Q1024.21 1353.21 1021.06 1356.43 Q1017.92 1359.65 1012.68 1359.65 Q1006.69 1359.65 1003.52 1355.06 Q1000.35 1350.46 1000.35 1341.73 Q1000.35 1333.53 1004.24 1328.67 Q1008.12 1323.79 1014.68 1323.79 Q1016.43 1323.79 1018.22 1324.14 Q1020.02 1324.48 1021.97 1325.18 Z" fill="#000000" fill-rule="evenodd" fill-opacity="1" /><path clip-path="url(#clip370)" d="M1117.54 1355.76 L1147.22 1355.76 L1147.22 1359.69 L1117.54 1359.69 L1117.54 1355.76 Z" fill="#000000" fill-rule="evenodd" fill-opacity="1" /><path clip-path="url(#clip370)" d="M1171.48 1353.95 Q1174.84 1354.67 1176.71 1356.94 Q1178.61 1359.21 1178.61 1362.54 Q1178.61 1367.66 1175.09 1370.46 Q1171.57 1373.26 1165.09 1373.26 Q1162.91 1373.26 1160.6 1372.82 Q1158.31 1372.4 1155.85 1371.54 L1155.85 1367.03 Q1157.8 1368.17 1160.11 1368.74 Q1162.43 1369.32 1164.95 1369.32 Q1169.35 1369.32 1171.64 1367.59 Q1173.96 1365.85 1173.96 1362.54 Q1173.96 1359.48 1171.8 1357.77 Q1169.67 1356.04 1165.85 1356.04 L1161.83 1356.04 L1161.83 1352.19 L1166.04 1352.19 Q1169.49 1352.19 1171.32 1350.83 Q1173.15 1349.44 1173.15 1346.85 Q1173.15 1344.18 1171.25 1342.77 Q1169.37 1341.34 1165.85 1341.34 Q1163.93 1341.34 1161.73 1341.75 Q1159.53 1342.17 1156.9 1343.05 L1156.9 1338.88 Q1159.56 1338.14 1161.87 1337.77 Q1164.21 1337.4 1166.27 1337.4 Q1171.6 1337.4 1174.7 1339.83 Q1177.8 1342.24 1177.8 1346.36 Q1177.8 1349.23 1176.16 1351.22 Q1174.51 1353.19 1171.48 1353.95 Z" fill="#000000" fill-rule="evenodd" fill-opacity="1" /><path clip-path="url(#clip370)" d="M1321.06 1354.72 Q1317.45 1354.72 1315.62 1358.28 Q1313.82 1361.82 1313.82 1368.95 Q1313.82 1376.06 1315.62 1379.62 Q1317.45 1383.17 1321.06 1383.17 Q1324.7 1383.17 1326.5 1379.62 Q1328.33 1376.06 1328.33 1368.95 Q1328.33 1361.82 1326.5 1358.28 Q1324.7 1354.72 1321.06 1354.72 M1321.06 1351.01 Q1326.87 1351.01 1329.93 1355.62 Q1333.01 1360.2 1333.01 1368.95 Q1333.01 1377.68 1329.93 1382.29 Q1326.87 1386.87 1321.06 1386.87 Q1315.25 1386.87 1312.17 1382.29 Q1309.12 1377.68 1309.12 1368.95 Q1309.12 1360.2 1312.17 1355.62 Q1315.25 1351.01 1321.06 1351.01 Z" fill="#000000" fill-rule="evenodd" fill-opacity="1" /><path clip-path="url(#clip370)" d="M1480.27 1381.18 Q1483.63 1381.89 1485.5 1384.16 Q1487.4 1386.43 1487.4 1389.76 Q1487.4 1394.88 1483.88 1397.68 Q1480.36 1400.48 1473.88 1400.48 Q1471.71 1400.48 1469.39 1400.04 Q1467.1 1399.63 1464.65 1398.77 L1464.65 1394.26 Q1466.59 1395.39 1468.91 1395.97 Q1471.22 1396.55 1473.74 1396.55 Q1478.14 1396.55 1480.43 1394.81 Q1482.75 1393.07 1482.75 1389.76 Q1482.75 1386.71 1480.6 1385 Q1478.47 1383.26 1474.65 1383.26 L1470.62 1383.26 L1470.62 1379.42 L1474.83 1379.42 Q1478.28 1379.42 1480.11 1378.05 Q1481.94 1376.66 1481.94 1374.07 Q1481.94 1371.41 1480.04 1370 Q1478.17 1368.56 1474.65 1368.56 Q1472.73 1368.56 1470.53 1368.98 Q1468.33 1369.39 1465.69 1370.27 L1465.69 1366.11 Q1468.35 1365.37 1470.67 1365 Q1473 1364.63 1475.06 1364.63 Q1480.39 1364.63 1483.49 1367.06 Q1486.59 1369.46 1486.59 1373.58 Q1486.59 1376.45 1484.95 1378.45 Q1483.3 1380.41 1480.27 1381.18 Z" fill="#000000" fill-rule="evenodd" fill-opacity="1" /><polyline clip-path="url(#clip372)" style="stroke:#000000; stroke-linecap:butt; stroke-linejoin:round; stroke-width:2; stroke-opacity:0.1; fill:none" points="
  1629.19,1355.71 810.892,1283.57 
  "/>
<polyline clip-path="url(#clip372)" style="stroke:#000000; stroke-linecap:butt; stroke-linejoin:round; stroke-width:2; stroke-opacity:0.1; fill:none" points="
  810.892,1283.57 810.892,563.968 
  "/>
<polyline clip-path="url(#clip372)" style="stroke:#000000; stroke-linecap:butt; stroke-linejoin:round; stroke-width:2; stroke-opacity:0.1; fill:none" points="
  1674.57,1227.05 856.265,1154.91 
  "/>
<polyline clip-path="url(#clip372)" style="stroke:#000000; stroke-linecap:butt; stroke-linejoin:round; stroke-width:2; stroke-opacity:0.1; fill:none" points="
  856.265,1154.91 856.265,435.305 
  "/>
<polyline clip-path="url(#clip372)" style="stroke:#000000; stroke-linecap:butt; stroke-linejoin:round; stroke-width:2; stroke-opacity:0.1; fill:none" points="
  1719.94,1098.39 901.639,1026.24 
  "/>
<polyline clip-path="url(#clip372)" style="stroke:#000000; stroke-linecap:butt; stroke-linejoin:round; stroke-width:2; stroke-opacity:0.1; fill:none" points="
  901.639,1026.24 901.639,306.641 
  "/>
<polyline clip-path="url(#clip372)" style="stroke:#000000; stroke-linecap:butt; stroke-linejoin:round; stroke-width:2; stroke-opacity:0.1; fill:none" points="
  1765.31,969.724 947.013,897.579 
  "/>
<polyline clip-path="url(#clip372)" style="stroke:#000000; stroke-linecap:butt; stroke-linejoin:round; stroke-width:2; stroke-opacity:0.1; fill:none" points="
  947.013,897.579 947.013,177.977 
  "/>
<polyline clip-path="url(#clip370)" style="stroke:#000000; stroke-linecap:butt; stroke-linejoin:round; stroke-width:4; stroke-opacity:1; fill:none" points="
  1625.11,1367.29 1769.4,958.144 
  "/>
<polyline clip-path="url(#clip370)" style="stroke:#000000; stroke-linecap:butt; stroke-linejoin:round; stroke-width:4; stroke-opacity:1; fill:none" points="
  1629.19,1355.71 1619.37,1354.85 
  "/>
<polyline clip-path="url(#clip370)" style="stroke:#000000; stroke-linecap:butt; stroke-linejoin:round; stroke-width:4; stroke-opacity:1; fill:none" points="
  1674.57,1227.05 1664.75,1226.19 
  "/>
<polyline clip-path="url(#clip370)" style="stroke:#000000; stroke-linecap:butt; stroke-linejoin:round; stroke-width:4; stroke-opacity:1; fill:none" points="
  1719.94,1098.39 1710.12,1097.52 
  "/>
<polyline clip-path="url(#clip370)" style="stroke:#000000; stroke-linecap:butt; stroke-linejoin:round; stroke-width:4; stroke-opacity:1; fill:none" points="
  1765.31,969.724 1755.49,968.858 
  "/>
<path clip-path="url(#clip370)" d="M1669.87 1343.54 Q1666.25 1343.54 1664.43 1347.1 Q1662.62 1350.65 1662.62 1357.78 Q1662.62 1364.88 1664.43 1368.45 Q1666.25 1371.99 1669.87 1371.99 Q1673.5 1371.99 1675.31 1368.45 Q1677.13 1364.88 1677.13 1357.78 Q1677.13 1350.65 1675.31 1347.1 Q1673.5 1343.54 1669.87 1343.54 M1669.87 1339.84 Q1675.68 1339.84 1678.73 1344.44 Q1681.81 1349.03 1681.81 1357.78 Q1681.81 1366.5 1678.73 1371.11 Q1675.68 1375.69 1669.87 1375.69 Q1664.06 1375.69 1660.98 1371.11 Q1657.92 1366.5 1657.92 1357.78 Q1657.92 1349.03 1660.98 1344.44 Q1664.06 1339.84 1669.87 1339.84 Z" fill="#000000" fill-rule="evenodd" fill-opacity="1" /><path clip-path="url(#clip370)" d="M1703.97 1242.42 L1711.61 1242.42 L1711.61 1216.06 L1703.3 1217.72 L1703.3 1213.46 L1711.56 1211.8 L1716.23 1211.8 L1716.23 1242.42 L1723.87 1242.42 L1723.87 1246.36 L1703.97 1246.36 L1703.97 1242.42 Z" fill="#000000" fill-rule="evenodd" fill-opacity="1" /><path clip-path="url(#clip370)" d="M1754.29 1113.76 L1770.61 1113.76 L1770.61 1117.69 L1748.67 1117.69 L1748.67 1113.76 Q1751.33 1111 1755.91 1106.37 Q1760.52 1101.72 1761.7 1100.38 Q1763.95 1097.86 1764.83 1096.12 Q1765.73 1094.36 1765.73 1092.67 Q1765.73 1089.92 1763.78 1088.18 Q1761.86 1086.44 1758.76 1086.44 Q1756.56 1086.44 1754.11 1087.21 Q1751.68 1087.97 1748.9 1089.52 L1748.9 1084.8 Q1751.72 1083.67 1754.18 1083.09 Q1756.63 1082.51 1758.67 1082.51 Q1764.04 1082.51 1767.23 1085.19 Q1770.43 1087.88 1770.43 1092.37 Q1770.43 1094.5 1769.62 1096.42 Q1768.83 1098.32 1766.72 1100.91 Q1766.15 1101.58 1763.04 1104.8 Q1759.94 1107.99 1754.29 1113.76 Z" fill="#000000" fill-rule="evenodd" fill-opacity="1" /><path clip-path="url(#clip370)" d="M1809.67 970.396 Q1813.02 971.113 1814.9 973.382 Q1816.8 975.65 1816.8 978.984 Q1816.8 984.099 1813.28 986.9 Q1809.76 989.701 1803.28 989.701 Q1801.1 989.701 1798.79 989.261 Q1796.5 988.845 1794.04 987.988 L1794.04 983.474 Q1795.99 984.609 1798.3 985.187 Q1800.62 985.766 1803.14 985.766 Q1807.54 985.766 1809.83 984.03 Q1812.14 982.294 1812.14 978.984 Q1812.14 975.928 1809.99 974.215 Q1807.86 972.479 1804.04 972.479 L1800.01 972.479 L1800.01 968.636 L1804.23 968.636 Q1807.68 968.636 1809.51 967.271 Q1811.33 965.882 1811.33 963.289 Q1811.33 960.627 1809.44 959.215 Q1807.56 957.78 1804.04 957.78 Q1802.12 957.78 1799.92 958.197 Q1797.72 958.613 1795.08 959.493 L1795.08 955.326 Q1797.75 954.586 1800.06 954.215 Q1802.4 953.845 1804.46 953.845 Q1809.78 953.845 1812.89 956.275 Q1815.99 958.683 1815.99 962.803 Q1815.99 965.673 1814.34 967.664 Q1812.7 969.632 1809.67 970.396 Z" fill="#000000" fill-rule="evenodd" fill-opacity="1" /><polyline clip-path="url(#clip372)" style="stroke:#000000; stroke-linecap:butt; stroke-linejoin:round; stroke-width:2; stroke-opacity:0.1; fill:none" points="
  806.808,1204.52 951.097,795.373 
  "/>
<polyline clip-path="url(#clip372)" style="stroke:#000000; stroke-linecap:butt; stroke-linejoin:round; stroke-width:2; stroke-opacity:0.1; fill:none" points="
  951.097,795.373 1769.4,867.517 
  "/>
<polyline clip-path="url(#clip372)" style="stroke:#000000; stroke-linecap:butt; stroke-linejoin:round; stroke-width:2; stroke-opacity:0.1; fill:none" points="
  806.808,1082.72 951.097,673.573 
  "/>
<polyline clip-path="url(#clip372)" style="stroke:#000000; stroke-linecap:butt; stroke-linejoin:round; stroke-width:2; stroke-opacity:0.1; fill:none" points="
  951.097,673.573 1769.4,745.717 
  "/>
<polyline clip-path="url(#clip372)" style="stroke:#000000; stroke-linecap:butt; stroke-linejoin:round; stroke-width:2; stroke-opacity:0.1; fill:none" points="
  806.808,960.923 951.097,551.773 
  "/>
<polyline clip-path="url(#clip372)" style="stroke:#000000; stroke-linecap:butt; stroke-linejoin:round; stroke-width:2; stroke-opacity:0.1; fill:none" points="
  951.097,551.773 1769.4,623.917 
  "/>
<polyline clip-path="url(#clip372)" style="stroke:#000000; stroke-linecap:butt; stroke-linejoin:round; stroke-width:2; stroke-opacity:0.1; fill:none" points="
  806.808,839.123 951.097,429.973 
  "/>
<polyline clip-path="url(#clip372)" style="stroke:#000000; stroke-linecap:butt; stroke-linejoin:round; stroke-width:2; stroke-opacity:0.1; fill:none" points="
  951.097,429.973 1769.4,502.117 
  "/>
<polyline clip-path="url(#clip372)" style="stroke:#000000; stroke-linecap:butt; stroke-linejoin:round; stroke-width:2; stroke-opacity:0.1; fill:none" points="
  806.808,717.323 951.097,308.173 
  "/>
<polyline clip-path="url(#clip372)" style="stroke:#000000; stroke-linecap:butt; stroke-linejoin:round; stroke-width:2; stroke-opacity:0.1; fill:none" points="
  951.097,308.173 1769.4,380.317 
  "/>
<polyline clip-path="url(#clip372)" style="stroke:#000000; stroke-linecap:butt; stroke-linejoin:round; stroke-width:2; stroke-opacity:0.1; fill:none" points="
  806.808,595.523 951.097,186.373 
  "/>
<polyline clip-path="url(#clip372)" style="stroke:#000000; stroke-linecap:butt; stroke-linejoin:round; stroke-width:2; stroke-opacity:0.1; fill:none" points="
  951.097,186.373 1769.4,258.517 
  "/>
<polyline clip-path="url(#clip370)" style="stroke:#000000; stroke-linecap:butt; stroke-linejoin:round; stroke-width:4; stroke-opacity:1; fill:none" points="
  806.808,1295.15 806.808,575.548 
  "/>
<polyline clip-path="url(#clip370)" style="stroke:#000000; stroke-linecap:butt; stroke-linejoin:round; stroke-width:4; stroke-opacity:1; fill:none" points="
  806.808,1204.52 808.539,1199.61 
  "/>
<polyline clip-path="url(#clip370)" style="stroke:#000000; stroke-linecap:butt; stroke-linejoin:round; stroke-width:4; stroke-opacity:1; fill:none" points="
  806.808,1082.72 808.539,1077.81 
  "/>
<polyline clip-path="url(#clip370)" style="stroke:#000000; stroke-linecap:butt; stroke-linejoin:round; stroke-width:4; stroke-opacity:1; fill:none" points="
  806.808,960.923 808.539,956.014 
  "/>
<polyline clip-path="url(#clip370)" style="stroke:#000000; stroke-linecap:butt; stroke-linejoin:round; stroke-width:4; stroke-opacity:1; fill:none" points="
  806.808,839.123 808.539,834.214 
  "/>
<polyline clip-path="url(#clip370)" style="stroke:#000000; stroke-linecap:butt; stroke-linejoin:round; stroke-width:4; stroke-opacity:1; fill:none" points="
  806.808,717.323 808.539,712.414 
  "/>
<polyline clip-path="url(#clip370)" style="stroke:#000000; stroke-linecap:butt; stroke-linejoin:round; stroke-width:4; stroke-opacity:1; fill:none" points="
  806.808,595.523 808.539,590.614 
  "/>
<path clip-path="url(#clip370)" d="M641.55 1204.97 L671.226 1204.97 L671.226 1208.91 L641.55 1208.91 L641.55 1204.97 Z" fill="#000000" fill-rule="evenodd" fill-opacity="1" /><path clip-path="url(#clip370)" d="M691.319 1190.32 Q687.708 1190.32 685.879 1193.89 Q684.073 1197.43 684.073 1204.56 Q684.073 1211.66 685.879 1215.23 Q687.708 1218.77 691.319 1218.77 Q694.953 1218.77 696.758 1215.23 Q698.587 1211.66 698.587 1204.56 Q698.587 1197.43 696.758 1193.89 Q694.953 1190.32 691.319 1190.32 M691.319 1186.62 Q697.129 1186.62 700.184 1191.22 Q703.263 1195.81 703.263 1204.56 Q703.263 1213.28 700.184 1217.89 Q697.129 1222.47 691.319 1222.47 Q685.508 1222.47 682.43 1217.89 Q679.374 1213.28 679.374 1204.56 Q679.374 1195.81 682.43 1191.22 Q685.508 1186.62 691.319 1186.62 Z" fill="#000000" fill-rule="evenodd" fill-opacity="1" /><path clip-path="url(#clip370)" d="M711.481 1215.92 L716.365 1215.92 L716.365 1221.8 L711.481 1221.8 L711.481 1215.92 Z" fill="#000000" fill-rule="evenodd" fill-opacity="1" /><path clip-path="url(#clip370)" d="M736.55 1190.32 Q732.939 1190.32 731.11 1193.89 Q729.305 1197.43 729.305 1204.56 Q729.305 1211.66 731.11 1215.23 Q732.939 1218.77 736.55 1218.77 Q740.184 1218.77 741.99 1215.23 Q743.818 1211.66 743.818 1204.56 Q743.818 1197.43 741.99 1193.89 Q740.184 1190.32 736.55 1190.32 M736.55 1186.62 Q742.36 1186.62 745.416 1191.22 Q748.494 1195.81 748.494 1204.56 Q748.494 1213.28 745.416 1217.89 Q742.36 1222.47 736.55 1222.47 Q730.74 1222.47 727.661 1217.89 Q724.606 1213.28 724.606 1204.56 Q724.606 1195.81 727.661 1191.22 Q730.74 1186.62 736.55 1186.62 Z" fill="#000000" fill-rule="evenodd" fill-opacity="1" /><path clip-path="url(#clip370)" d="M770.878 1203.17 Q774.235 1203.89 776.11 1206.16 Q778.008 1208.42 778.008 1211.76 Q778.008 1216.87 774.489 1219.67 Q770.971 1222.47 764.49 1222.47 Q762.314 1222.47 759.999 1222.03 Q757.707 1221.62 755.253 1220.76 L755.253 1216.25 Q757.198 1217.38 759.513 1217.96 Q761.828 1218.54 764.351 1218.54 Q768.749 1218.54 771.04 1216.8 Q773.355 1215.07 773.355 1211.76 Q773.355 1208.7 771.202 1206.99 Q769.073 1205.25 765.253 1205.25 L761.226 1205.25 L761.226 1201.41 L765.439 1201.41 Q768.888 1201.41 770.716 1200.04 Q772.545 1198.66 772.545 1196.06 Q772.545 1193.4 770.647 1191.99 Q768.772 1190.55 765.253 1190.55 Q763.332 1190.55 761.133 1190.97 Q758.934 1191.39 756.295 1192.27 L756.295 1188.1 Q758.957 1187.36 761.272 1186.99 Q763.61 1186.62 765.67 1186.62 Q770.994 1186.62 774.096 1189.05 Q777.198 1191.46 777.198 1195.58 Q777.198 1198.45 775.554 1200.44 Q773.911 1202.41 770.878 1203.17 Z" fill="#000000" fill-rule="evenodd" fill-opacity="1" /><path clip-path="url(#clip370)" d="M642.499 1083.17 L672.175 1083.17 L672.175 1087.11 L642.499 1087.11 L642.499 1083.17 Z" fill="#000000" fill-rule="evenodd" fill-opacity="1" /><path clip-path="url(#clip370)" d="M692.268 1068.52 Q688.657 1068.52 686.828 1072.09 Q685.022 1075.63 685.022 1082.76 Q685.022 1089.86 686.828 1093.43 Q688.657 1096.97 692.268 1096.97 Q695.902 1096.97 697.708 1093.43 Q699.536 1089.86 699.536 1082.76 Q699.536 1075.63 697.708 1072.09 Q695.902 1068.52 692.268 1068.52 M692.268 1064.82 Q698.078 1064.82 701.133 1069.42 Q704.212 1074.01 704.212 1082.76 Q704.212 1091.48 701.133 1096.09 Q698.078 1100.67 692.268 1100.67 Q686.458 1100.67 683.379 1096.09 Q680.323 1091.48 680.323 1082.76 Q680.323 1074.01 683.379 1069.42 Q686.458 1064.82 692.268 1064.82 Z" fill="#000000" fill-rule="evenodd" fill-opacity="1" /><path clip-path="url(#clip370)" d="M712.43 1094.12 L717.314 1094.12 L717.314 1100 L712.43 1100 L712.43 1094.12 Z" fill="#000000" fill-rule="evenodd" fill-opacity="1" /><path clip-path="url(#clip370)" d="M737.499 1068.52 Q733.888 1068.52 732.059 1072.09 Q730.254 1075.63 730.254 1082.76 Q730.254 1089.86 732.059 1093.43 Q733.888 1096.97 737.499 1096.97 Q741.133 1096.97 742.939 1093.43 Q744.767 1089.86 744.767 1082.76 Q744.767 1075.63 742.939 1072.09 Q741.133 1068.52 737.499 1068.52 M737.499 1064.82 Q743.309 1064.82 746.365 1069.42 Q749.443 1074.01 749.443 1082.76 Q749.443 1091.48 746.365 1096.09 Q743.309 1100.67 737.499 1100.67 Q731.689 1100.67 728.61 1096.09 Q725.555 1091.48 725.555 1082.76 Q725.555 1074.01 728.61 1069.42 Q731.689 1064.82 737.499 1064.82 Z" fill="#000000" fill-rule="evenodd" fill-opacity="1" /><path clip-path="url(#clip370)" d="M761.689 1096.07 L778.008 1096.07 L778.008 1100 L756.064 1100 L756.064 1096.07 Q758.726 1093.31 763.309 1088.68 Q767.915 1084.03 769.096 1082.69 Q771.341 1080.17 772.221 1078.43 Q773.124 1076.67 773.124 1074.98 Q773.124 1072.23 771.179 1070.49 Q769.258 1068.75 766.156 1068.75 Q763.957 1068.75 761.503 1069.52 Q759.073 1070.28 756.295 1071.83 L756.295 1067.11 Q759.119 1065.98 761.573 1065.4 Q764.027 1064.82 766.064 1064.82 Q771.434 1064.82 774.628 1067.5 Q777.823 1070.19 777.823 1074.68 Q777.823 1076.81 777.013 1078.73 Q776.226 1080.63 774.119 1083.22 Q773.54 1083.89 770.439 1087.11 Q767.337 1090.3 761.689 1096.07 Z" fill="#000000" fill-rule="evenodd" fill-opacity="1" /><path clip-path="url(#clip370)" d="M642.129 961.375 L671.805 961.375 L671.805 965.31 L642.129 965.31 L642.129 961.375 Z" fill="#000000" fill-rule="evenodd" fill-opacity="1" /><path clip-path="url(#clip370)" d="M691.897 946.722 Q688.286 946.722 686.458 950.287 Q684.652 953.829 684.652 960.958 Q684.652 968.065 686.458 971.629 Q688.286 975.171 691.897 975.171 Q695.532 975.171 697.337 971.629 Q699.166 968.065 699.166 960.958 Q699.166 953.829 697.337 950.287 Q695.532 946.722 691.897 946.722 M691.897 943.018 Q697.708 943.018 700.763 947.625 Q703.842 952.208 703.842 960.958 Q703.842 969.685 700.763 974.291 Q697.708 978.875 691.897 978.875 Q686.087 978.875 683.009 974.291 Q679.953 969.685 679.953 960.958 Q679.953 952.208 683.009 947.625 Q686.087 943.018 691.897 943.018 Z" fill="#000000" fill-rule="evenodd" fill-opacity="1" /><path clip-path="url(#clip370)" d="M712.059 972.324 L716.944 972.324 L716.944 978.203 L712.059 978.203 L712.059 972.324 Z" fill="#000000" fill-rule="evenodd" fill-opacity="1" /><path clip-path="url(#clip370)" d="M737.129 946.722 Q733.517 946.722 731.689 950.287 Q729.883 953.829 729.883 960.958 Q729.883 968.065 731.689 971.629 Q733.517 975.171 737.129 975.171 Q740.763 975.171 742.568 971.629 Q744.397 968.065 744.397 960.958 Q744.397 953.829 742.568 950.287 Q740.763 946.722 737.129 946.722 M737.129 943.018 Q742.939 943.018 745.994 947.625 Q749.073 952.208 749.073 960.958 Q749.073 969.685 745.994 974.291 Q742.939 978.875 737.129 978.875 Q731.318 978.875 728.24 974.291 Q725.184 969.685 725.184 960.958 Q725.184 952.208 728.24 947.625 Q731.318 943.018 737.129 943.018 Z" fill="#000000" fill-rule="evenodd" fill-opacity="1" /><path clip-path="url(#clip370)" d="M758.101 974.268 L765.74 974.268 L765.74 947.903 L757.429 949.569 L757.429 945.31 L765.693 943.643 L770.369 943.643 L770.369 974.268 L778.008 974.268 L778.008 978.203 L758.101 978.203 L758.101 974.268 Z" fill="#000000" fill-rule="evenodd" fill-opacity="1" /><path clip-path="url(#clip370)" d="M690.671 824.922 Q687.059 824.922 685.231 828.487 Q683.425 832.029 683.425 839.158 Q683.425 846.265 685.231 849.829 Q687.059 853.371 690.671 853.371 Q694.305 853.371 696.11 849.829 Q697.939 846.265 697.939 839.158 Q697.939 832.029 696.11 828.487 Q694.305 824.922 690.671 824.922 M690.671 821.218 Q696.481 821.218 699.536 825.825 Q702.615 830.408 702.615 839.158 Q702.615 847.885 699.536 852.491 Q696.481 857.075 690.671 857.075 Q684.86 857.075 681.782 852.491 Q678.726 847.885 678.726 839.158 Q678.726 830.408 681.782 825.825 Q684.86 821.218 690.671 821.218 Z" fill="#000000" fill-rule="evenodd" fill-opacity="1" /><path clip-path="url(#clip370)" d="M710.832 850.524 L715.717 850.524 L715.717 856.403 L710.832 856.403 L710.832 850.524 Z" fill="#000000" fill-rule="evenodd" fill-opacity="1" /><path clip-path="url(#clip370)" d="M735.902 824.922 Q732.291 824.922 730.462 828.487 Q728.656 832.029 728.656 839.158 Q728.656 846.265 730.462 849.829 Q732.291 853.371 735.902 853.371 Q739.536 853.371 741.342 849.829 Q743.17 846.265 743.17 839.158 Q743.17 832.029 741.342 828.487 Q739.536 824.922 735.902 824.922 M735.902 821.218 Q741.712 821.218 744.767 825.825 Q747.846 830.408 747.846 839.158 Q747.846 847.885 744.767 852.491 Q741.712 857.075 735.902 857.075 Q730.092 857.075 727.013 852.491 Q723.957 847.885 723.957 839.158 Q723.957 830.408 727.013 825.825 Q730.092 821.218 735.902 821.218 Z" fill="#000000" fill-rule="evenodd" fill-opacity="1" /><path clip-path="url(#clip370)" d="M766.064 824.922 Q762.453 824.922 760.624 828.487 Q758.818 832.029 758.818 839.158 Q758.818 846.265 760.624 849.829 Q762.453 853.371 766.064 853.371 Q769.698 853.371 771.503 849.829 Q773.332 846.265 773.332 839.158 Q773.332 832.029 771.503 828.487 Q769.698 824.922 766.064 824.922 M766.064 821.218 Q771.874 821.218 774.929 825.825 Q778.008 830.408 778.008 839.158 Q778.008 847.885 774.929 852.491 Q771.874 857.075 766.064 857.075 Q760.253 857.075 757.175 852.491 Q754.119 847.885 754.119 839.158 Q754.119 830.408 757.175 825.825 Q760.253 821.218 766.064 821.218 Z" fill="#000000" fill-rule="evenodd" fill-opacity="1" /><path clip-path="url(#clip370)" d="M691.897 703.122 Q688.286 703.122 686.458 706.687 Q684.652 710.229 684.652 717.358 Q684.652 724.465 686.458 728.029 Q688.286 731.571 691.897 731.571 Q695.532 731.571 697.337 728.029 Q699.166 724.465 699.166 717.358 Q699.166 710.229 697.337 706.687 Q695.532 703.122 691.897 703.122 M691.897 699.418 Q697.708 699.418 700.763 704.025 Q703.842 708.608 703.842 717.358 Q703.842 726.085 700.763 730.691 Q697.708 735.275 691.897 735.275 Q686.087 735.275 683.009 730.691 Q679.953 726.085 679.953 717.358 Q679.953 708.608 683.009 704.025 Q686.087 699.418 691.897 699.418 Z" fill="#000000" fill-rule="evenodd" fill-opacity="1" /><path clip-path="url(#clip370)" d="M712.059 728.724 L716.944 728.724 L716.944 734.603 L712.059 734.603 L712.059 728.724 Z" fill="#000000" fill-rule="evenodd" fill-opacity="1" /><path clip-path="url(#clip370)" d="M737.129 703.122 Q733.517 703.122 731.689 706.687 Q729.883 710.229 729.883 717.358 Q729.883 724.465 731.689 728.029 Q733.517 731.571 737.129 731.571 Q740.763 731.571 742.568 728.029 Q744.397 724.465 744.397 717.358 Q744.397 710.229 742.568 706.687 Q740.763 703.122 737.129 703.122 M737.129 699.418 Q742.939 699.418 745.994 704.025 Q749.073 708.608 749.073 717.358 Q749.073 726.085 745.994 730.691 Q742.939 735.275 737.129 735.275 Q731.318 735.275 728.24 730.691 Q725.184 726.085 725.184 717.358 Q725.184 708.608 728.24 704.025 Q731.318 699.418 737.129 699.418 Z" fill="#000000" fill-rule="evenodd" fill-opacity="1" /><path clip-path="url(#clip370)" d="M758.101 730.668 L765.74 730.668 L765.74 704.303 L757.429 705.969 L757.429 701.71 L765.693 700.043 L770.369 700.043 L770.369 730.668 L778.008 730.668 L778.008 734.603 L758.101 734.603 L758.101 730.668 Z" fill="#000000" fill-rule="evenodd" fill-opacity="1" /><path clip-path="url(#clip370)" d="M692.268 581.322 Q688.657 581.322 686.828 584.887 Q685.022 588.429 685.022 595.558 Q685.022 602.665 686.828 606.229 Q688.657 609.771 692.268 609.771 Q695.902 609.771 697.708 606.229 Q699.536 602.665 699.536 595.558 Q699.536 588.429 697.708 584.887 Q695.902 581.322 692.268 581.322 M692.268 577.618 Q698.078 577.618 701.133 582.225 Q704.212 586.808 704.212 595.558 Q704.212 604.285 701.133 608.891 Q698.078 613.475 692.268 613.475 Q686.458 613.475 683.379 608.891 Q680.323 604.285 680.323 595.558 Q680.323 586.808 683.379 582.225 Q686.458 577.618 692.268 577.618 Z" fill="#000000" fill-rule="evenodd" fill-opacity="1" /><path clip-path="url(#clip370)" d="M712.43 606.924 L717.314 606.924 L717.314 612.803 L712.43 612.803 L712.43 606.924 Z" fill="#000000" fill-rule="evenodd" fill-opacity="1" /><path clip-path="url(#clip370)" d="M737.499 581.322 Q733.888 581.322 732.059 584.887 Q730.254 588.429 730.254 595.558 Q730.254 602.665 732.059 606.229 Q733.888 609.771 737.499 609.771 Q741.133 609.771 742.939 606.229 Q744.767 602.665 744.767 595.558 Q744.767 588.429 742.939 584.887 Q741.133 581.322 737.499 581.322 M737.499 577.618 Q743.309 577.618 746.365 582.225 Q749.443 586.808 749.443 595.558 Q749.443 604.285 746.365 608.891 Q743.309 613.475 737.499 613.475 Q731.689 613.475 728.61 608.891 Q725.555 604.285 725.555 595.558 Q725.555 586.808 728.61 582.225 Q731.689 577.618 737.499 577.618 Z" fill="#000000" fill-rule="evenodd" fill-opacity="1" /><path clip-path="url(#clip370)" d="M761.689 608.868 L778.008 608.868 L778.008 612.803 L756.064 612.803 L756.064 608.868 Q758.726 606.114 763.309 601.484 Q767.915 596.831 769.096 595.489 Q771.341 592.966 772.221 591.229 Q773.124 589.47 773.124 587.78 Q773.124 585.026 771.179 583.29 Q769.258 581.554 766.156 581.554 Q763.957 581.554 761.503 582.318 Q759.073 583.081 756.295 584.632 L756.295 579.91 Q759.119 578.776 761.573 578.197 Q764.027 577.618 766.064 577.618 Q771.434 577.618 774.628 580.304 Q777.823 582.989 777.823 587.48 Q777.823 589.609 777.013 591.53 Q776.226 593.429 774.119 596.021 Q773.54 596.692 770.439 599.91 Q767.337 603.104 761.689 608.868 Z" fill="#000000" fill-rule="evenodd" fill-opacity="1" /><polyline clip-path="url(#clip372)" style="stroke:#0000ff; stroke-linecap:butt; stroke-linejoin:round; stroke-width:4; stroke-opacity:1; fill:none" points="
  834.051,1265.25 856.942,1236.09 879.833,1206.93 902.729,1170.54 925.641,1128.92 948.612,1083.78 971.8,1036.34 995.724,986.624 1021.51,932.401 1049.49,872.349 
  1077.63,813.791 1103.72,765.644 1127.8,726.842 1151.04,693.98 1174.02,665.575 1196.94,641.123 1219.84,620.416 1242.72,603.329 1265.57,589.753 1288.33,579.744 
  1310.72,573.897 1331.87,574.342 1349.8,585.272 1364.54,606.551 1380.94,626.508 1401.13,640.416 1423.21,652.71 1445.88,666.531 1468.71,683.142 1491.59,703.014 
  1514.47,726.381 1537.36,753.392 1560.25,784.139 1583.14,818.647 1606.03,853.156 
  "/>
<polyline clip-path="url(#clip372)" style="stroke:#0000ff; stroke-linecap:butt; stroke-linejoin:round; stroke-width:4; stroke-opacity:1; fill:none" points="
  838.745,1251.93 861.629,1222.79 884.514,1193.64 907.404,1157.27 930.308,1115.66 953.27,1070.54 976.441,1023.15 1000.32,973.542 1026,919.612 1053.8,860.114 
  1081.75,802.144 1107.72,754.331 1131.76,715.657 1154.98,682.842 1177.96,654.458 1200.86,630.018 1223.75,609.319 1246.63,592.236 1269.48,578.66 1292.23,568.64 
  1314.64,562.745 1335.84,563.027 1353.94,573.533 1368.95,594.132 1385.57,613.55 1405.84,627.231 1427.94,639.454 1450.62,653.258 1473.44,669.864 1496.31,689.735 
  1519.19,713.099 1542.08,740.106 1564.96,770.847 1587.84,805.347 1610.73,839.848 
  "/>
<polyline clip-path="url(#clip372)" style="stroke:#0000ff; stroke-linecap:butt; stroke-linejoin:round; stroke-width:4; stroke-opacity:1; fill:none" points="
  843.439,1238.62 866.317,1209.48 889.196,1180.35 912.078,1143.99 934.976,1102.4 957.928,1057.31 981.083,1009.95 1004.92,960.459 1030.49,906.823 1058.11,847.878 
  1085.88,790.498 1111.73,743.018 1135.72,704.472 1158.92,671.704 1181.89,643.341 1204.79,618.912 1227.67,598.221 1250.54,581.143 1273.39,567.567 1296.14,557.535 
  1318.56,551.592 1339.81,551.712 1358.07,561.794 1373.36,581.712 1390.19,600.593 1410.55,614.047 1432.68,626.199 1455.35,639.984 1478.18,656.586 1501.04,676.455 
  1523.91,699.817 1546.79,726.82 1569.67,757.555 1592.54,792.047 1615.42,826.54 
  "/>
<polyline clip-path="url(#clip372)" style="stroke:#0000ff; stroke-linecap:butt; stroke-linejoin:round; stroke-width:4; stroke-opacity:1; fill:none" points="
  848.133,1225.3 871.004,1196.18 893.877,1167.06 916.753,1130.71 939.643,1089.14 962.586,1044.07 985.724,996.762 1009.52,947.376 1034.99,894.034 1062.42,835.643 
  1090,778.851 1115.74,731.705 1139.68,693.287 1162.86,660.567 1185.82,632.224 1208.71,607.807 1231.59,587.124 1254.45,570.05 1277.29,556.474 1300.04,546.431 
  1322.47,540.44 1343.78,540.397 1362.2,550.055 1377.76,569.293 1394.82,587.635 1415.27,600.863 1437.41,612.943 1460.09,626.711 1482.91,643.308 1505.76,663.175 
  1528.63,686.535 1551.5,713.534 1574.37,744.263 1597.24,778.747 1620.11,813.232 
  "/>
<polyline clip-path="url(#clip372)" style="stroke:#0000ff; stroke-linecap:butt; stroke-linejoin:round; stroke-width:4; stroke-opacity:1; fill:none" points="
  852.826,1211.99 875.692,1182.88 898.558,1153.76 921.427,1117.44 944.31,1075.88 967.244,1030.84 990.366,983.569 1014.12,934.293 1039.48,881.245 1066.73,823.408 
  1094.13,767.205 1119.74,720.392 1143.64,682.102 1166.81,649.429 1189.75,621.107 1212.64,596.702 1235.51,576.026 1258.36,558.957 1281.2,545.38 1303.95,535.326 
  1326.39,529.288 1347.75,529.082 1366.34,538.317 1382.17,556.874 1399.45,574.678 1419.98,587.678 1442.15,599.688 1464.82,613.437 1487.64,630.03 1510.49,649.896 
  1533.35,673.253 1556.21,700.248 1579.08,730.97 1601.94,765.447 1624.81,799.924 
  "/>
<polyline clip-path="url(#clip372)" style="stroke:#0000ff; stroke-linecap:butt; stroke-linejoin:round; stroke-width:4; stroke-opacity:1; fill:none" points="
  857.52,1198.68 880.379,1169.58 903.239,1140.47 926.102,1104.16 948.978,1062.62 971.903,1017.6 995.007,970.377 1018.72,921.21 1043.97,868.456 1071.04,811.173 
  1098.25,755.558 1123.75,709.079 1147.6,670.917 1170.75,638.291 1193.68,609.99 1216.56,585.596 1239.43,564.929 1262.28,547.863 1285.11,534.287 1307.85,524.222 
  1330.3,518.135 1351.71,517.767 1370.47,526.578 1386.58,544.455 1404.07,561.721 1424.69,574.494 1446.88,586.433 1469.56,600.163 1492.37,616.753 1515.22,636.616 
  1538.07,659.971 1560.93,686.962 1583.79,717.678 1606.64,752.147 1629.5,786.615 
  "/>
<polyline clip-path="url(#clip372)" style="stroke:#0000ff; stroke-linecap:butt; stroke-linejoin:round; stroke-width:4; stroke-opacity:1; fill:none" points="
  862.214,1185.36 885.066,1156.27 907.92,1127.18 930.776,1090.88 953.645,1049.36 976.561,1004.37 999.649,957.184 1023.32,908.127 1048.47,855.667 1075.36,798.937 
  1102.37,743.912 1127.76,697.766 1151.56,659.732 1174.69,627.153 1197.62,598.872 1220.49,574.491 1243.34,553.831 1266.19,536.77 1289.01,523.194 1311.76,513.117 
  1334.22,506.983 1355.68,506.453 1374.61,514.84 1390.99,532.037 1408.7,548.764 1429.4,561.31 1451.62,573.177 1474.29,586.89 1497.1,603.475 1519.94,623.337 
  1542.79,646.689 1565.64,673.675 1588.49,704.386 1611.34,738.847 1634.2,773.307 
  "/>
<polyline clip-path="url(#clip372)" style="stroke:#0000ff; stroke-linecap:butt; stroke-linejoin:round; stroke-width:4; stroke-opacity:1; fill:none" points="
  866.908,1172.05 889.754,1142.97 912.601,1113.89 935.451,1077.61 958.312,1036.11 981.219,991.131 1004.29,943.992 1027.92,895.044 1052.96,842.877 1079.67,786.702 
  1106.5,732.265 1131.77,686.453 1155.52,648.547 1178.63,616.015 1201.55,587.755 1224.41,563.386 1247.26,542.734 1270.1,525.677 1292.92,512.101 1315.66,502.013 
  1338.13,495.83 1359.65,495.138 1378.74,503.102 1395.4,519.618 1413.33,535.808 1434.12,548.125 1456.35,559.922 1479.03,573.616 1501.83,590.197 1524.67,610.057 
  1547.51,633.407 1570.35,660.389 1593.2,691.094 1616.04,725.547 1638.89,759.999 
  "/>
<polyline clip-path="url(#clip372)" style="stroke:#0000ff; stroke-linecap:butt; stroke-linejoin:round; stroke-width:4; stroke-opacity:1; fill:none" points="
  871.602,1158.73 894.441,1129.67 917.282,1100.6 940.125,1064.33 962.98,1022.85 985.877,977.896 1008.93,930.799 1032.52,881.961 1057.45,830.088 1083.98,774.467 
  1110.62,720.619 1135.77,675.14 1159.48,637.362 1182.57,604.877 1205.48,576.638 1228.34,552.28 1251.18,531.636 1274.01,514.584 1296.83,501.008 1319.57,490.908 
  1342.05,484.678 1363.62,483.823 1382.87,491.364 1399.81,507.199 1417.95,522.851 1438.83,534.941 1461.09,546.667 1483.77,560.343 1506.56,576.919 1529.39,596.777 
  1552.23,620.125 1575.07,647.103 1597.91,677.802 1620.74,712.247 1643.58,746.691 
  "/>
<polyline clip-path="url(#clip372)" style="stroke:#0000ff; stroke-linecap:butt; stroke-linejoin:round; stroke-width:4; stroke-opacity:1; fill:none" points="
  876.296,1145.42 899.129,1116.37 921.963,1087.31 944.799,1051.06 967.647,1009.59 990.535,964.66 1013.57,917.607 1037.12,868.878 1061.95,817.299 1088.29,762.231 
  1114.75,708.972 1139.78,663.827 1163.44,626.177 1186.51,593.74 1209.41,565.521 1232.26,541.175 1255.1,520.539 1277.92,503.491 1300.73,489.915 1323.47,479.804 
  1345.97,473.526 1367.59,472.509 1387.01,479.626 1404.22,494.781 1422.58,509.895 1443.54,521.757 1465.82,533.411 1488.5,547.069 1511.29,563.641 1534.12,583.498 
  1556.95,606.843 1579.78,633.817 1602.61,664.51 1625.44,698.947 1648.28,733.383 
  "/>
<polyline clip-path="url(#clip372)" style="stroke:#0000ff; stroke-linecap:butt; stroke-linejoin:round; stroke-width:4; stroke-opacity:1; fill:none" points="
  880.989,1132.1 903.816,1103.06 926.644,1074.02 949.474,1037.78 972.314,996.329 995.193,951.425 1018.22,904.414 1041.72,855.795 1066.44,804.509 1092.6,749.996 
  1118.87,697.326 1143.79,652.514 1167.4,614.992 1190.45,582.602 1213.34,554.404 1236.19,530.07 1259.02,509.442 1281.84,492.398 1304.64,478.821 1327.38,468.699 
  1349.88,462.373 1371.56,461.194 1391.14,467.888 1408.63,482.362 1427.2,496.938 1448.26,508.573 1470.55,520.156 1493.24,533.796 1516.03,550.363 1538.84,570.218 
  1561.67,593.561 1584.49,620.531 1607.32,651.218 1630.15,685.647 1652.97,720.075 
  "/>
<polyline clip-path="url(#clip372)" style="stroke:#0000ff; stroke-linecap:butt; stroke-linejoin:round; stroke-width:4; stroke-opacity:1; fill:none" points="
  885.683,1118.79 908.504,1089.76 931.325,1060.73 954.148,1024.5 976.982,983.071 999.852,938.19 1022.86,891.222 1046.32,842.712 1070.93,791.72 1096.91,737.761 
  1122.99,685.679 1147.8,641.201 1171.36,603.807 1194.4,571.464 1217.27,543.287 1240.11,518.965 1262.93,498.344 1285.75,481.305 1308.55,467.728 1331.28,457.595 
  1353.8,451.221 1375.53,449.88 1395.28,456.151 1413.04,469.944 1431.83,483.982 1452.97,495.388 1475.29,506.901 1497.97,520.522 1520.76,537.086 1543.57,556.939 
  1566.39,580.279 1589.21,607.245 1612.03,637.926 1634.85,672.347 1657.67,706.767 
  "/>
<polyline clip-path="url(#clip372)" style="stroke:#0000ff; stroke-linecap:butt; stroke-linejoin:round; stroke-width:4; stroke-opacity:1; fill:none" points="
  890.377,1105.48 913.191,1076.46 936.006,1047.44 958.823,1011.23 981.649,969.812 1004.51,924.955 1027.5,878.03 1050.92,829.629 1075.43,778.93 1101.22,725.525 
  1127.12,674.033 1151.8,629.888 1175.32,592.623 1198.34,560.326 1221.21,532.17 1244.03,507.859 1266.85,487.247 1289.66,470.212 1312.45,456.635 1335.19,446.49 
  1357.71,440.069 1379.5,438.566 1399.41,444.413 1417.44,457.525 1436.46,471.026 1457.68,482.204 1480.02,493.645 1502.71,507.249 1525.49,523.808 1548.29,543.659 
  1571.11,566.997 1593.92,593.959 1616.73,624.634 1639.55,659.047 1662.36,693.459 
  "/>
<polyline clip-path="url(#clip372)" style="stroke:#0000ff; stroke-linecap:butt; stroke-linejoin:round; stroke-width:4; stroke-opacity:1; fill:none" points="
  895.071,1092.16 917.879,1063.15 940.687,1034.14 963.497,997.951 986.316,956.554 1009.17,911.719 1032.14,864.837 1055.52,816.546 1079.92,766.14 1105.54,713.29 
  1131.24,662.386 1155.81,618.576 1179.28,581.438 1202.28,549.188 1225.14,521.053 1247.96,496.754 1270.77,476.149 1293.57,459.119 1316.36,445.542 1339.09,435.385 
  1361.63,428.916 1383.47,427.252 1403.54,432.676 1421.85,445.107 1441.08,458.071 1462.4,469.02 1484.76,480.39 1507.45,493.975 1530.22,510.53 1553.02,530.38 
  1575.82,553.715 1598.63,580.673 1621.44,611.342 1644.25,645.746 1667.05,680.15 
  "/>
<polyline clip-path="url(#clip372)" style="stroke:#0000ff; stroke-linecap:butt; stroke-linejoin:round; stroke-width:4; stroke-opacity:1; fill:none" points="
  899.765,1078.85 922.566,1049.85 945.368,1020.85 968.172,984.674 990.984,943.295 1013.83,898.484 1036.78,851.645 1060.12,803.463 1084.41,753.351 1109.85,701.055 
  1135.37,650.74 1159.82,607.263 1183.24,570.253 1206.22,538.05 1229.07,509.935 1251.88,485.649 1274.69,465.052 1297.48,448.026 1320.27,434.449 1343,424.281 
  1365.54,417.764 1387.44,415.938 1407.68,420.939 1426.26,432.689 1445.71,445.115 1467.11,455.836 1489.49,467.135 1512.18,480.702 1534.95,497.252 1557.74,517.1 
  1580.54,540.433 1603.34,567.387 1626.15,598.05 1648.95,632.446 1671.75,666.842 
  "/>
<polyline clip-path="url(#clip372)" style="stroke:#0000ff; stroke-linecap:butt; stroke-linejoin:round; stroke-width:4; stroke-opacity:1; fill:none" points="
  904.459,1065.53 927.253,1036.55 950.049,1007.56 972.846,971.398 995.651,930.036 1018.48,885.249 1041.42,838.452 1064.72,790.381 1088.91,740.561 1114.16,688.819 
  1139.49,639.093 1163.83,595.95 1187.2,559.068 1210.16,526.913 1233,498.818 1255.81,474.543 1278.61,453.954 1301.4,436.933 1324.17,423.356 1346.9,413.176 
  1369.46,406.612 1391.41,404.623 1411.81,409.202 1430.67,420.271 1450.33,432.16 1471.82,442.652 1494.23,453.88 1516.92,467.428 1539.68,483.975 1562.47,503.821 
  1585.26,527.151 1608.06,554.101 1630.85,584.758 1653.65,619.146 1676.44,653.534 
  "/>
<polyline clip-path="url(#clip372)" style="stroke:#0000ff; stroke-linecap:butt; stroke-linejoin:round; stroke-width:4; stroke-opacity:1; fill:none" points="
  909.152,1052.22 931.941,1023.25 954.73,994.271 977.521,958.122 1000.32,916.778 1023.14,872.013 1046.06,825.26 1069.32,777.298 1093.4,727.771 1118.47,676.584 
  1143.61,627.447 1167.83,584.637 1191.16,547.883 1214.1,515.775 1236.93,487.701 1259.73,463.438 1282.52,442.857 1305.31,425.839 1328.08,412.262 1350.81,402.072 
  1373.38,395.459 1395.38,393.309 1415.95,397.466 1435.08,407.853 1454.96,419.204 1476.54,429.468 1498.96,440.624 1521.65,454.155 1544.41,470.697 1567.2,490.541 
  1589.98,513.869 1612.77,540.815 1635.56,571.466 1658.35,605.846 1681.13,640.226 
  "/>
<polyline clip-path="url(#clip372)" style="stroke:#0000ff; stroke-linecap:butt; stroke-linejoin:round; stroke-width:4; stroke-opacity:1; fill:none" points="
  913.846,1038.91 936.628,1009.94 959.411,980.98 982.195,944.845 1004.99,903.519 1027.8,858.778 1050.71,812.067 1073.92,764.215 1097.89,714.981 1122.78,664.349 
  1147.74,615.8 1171.84,573.324 1195.12,536.698 1218.04,504.637 1240.87,476.584 1263.66,452.333 1286.44,431.759 1309.22,414.746 1331.99,401.169 1354.71,390.967 
  1377.29,384.307 1399.35,381.996 1420.08,385.729 1439.49,395.435 1459.59,406.249 1481.25,416.284 1503.7,427.369 1526.39,440.881 1549.15,457.419 1571.92,477.262 
  1594.7,500.587 1617.48,527.529 1640.26,558.174 1663.05,592.546 1685.83,626.918 
  "/>
<polyline clip-path="url(#clip372)" style="stroke:#0000ff; stroke-linecap:butt; stroke-linejoin:round; stroke-width:4; stroke-opacity:1; fill:none" points="
  918.54,1025.59 941.316,996.641 964.092,967.689 986.869,931.569 1009.65,890.26 1032.46,845.543 1055.35,798.875 1078.52,751.132 1102.39,702.191 1127.09,652.113 
  1151.86,604.154 1175.85,562.011 1199.08,525.513 1221.99,493.499 1244.8,465.467 1267.58,441.228 1290.36,420.662 1313.13,403.653 1335.89,390.076 1358.62,379.863 
  1381.21,373.155 1403.32,370.682 1424.22,373.993 1443.9,383.017 1464.21,393.294 1485.96,403.1 1508.43,414.114 1531.12,427.608 1553.88,444.141 1576.65,463.982 
  1599.42,487.305 1622.2,514.243 1644.97,544.882 1667.75,579.246 1690.52,613.61 
  "/>
<polyline clip-path="url(#clip372)" style="stroke:#0000ff; stroke-linecap:butt; stroke-linejoin:round; stroke-width:4; stroke-opacity:1; fill:none" points="
  923.234,1012.28 946.003,983.339 968.773,954.398 991.544,918.293 1014.32,877.002 1037.12,832.307 1059.99,785.682 1083.11,738.049 1106.88,689.401 1131.41,639.878 
  1155.99,592.507 1179.86,550.698 1203.04,514.328 1225.93,482.361 1248.73,454.35 1271.51,430.122 1294.28,409.564 1317.04,392.56 1339.8,378.983 1362.52,368.758 
  1385.12,362.002 1407.29,359.368 1428.35,362.256 1448.31,370.6 1468.84,380.339 1490.68,389.916 1513.17,400.859 1535.86,414.334 1558.61,430.864 1581.37,450.703 
  1604.14,474.023 1626.91,500.957 1649.68,531.59 1672.45,565.946 1695.22,600.302 
  "/>
<polyline clip-path="url(#clip372)" style="stroke:#0000ff; stroke-linecap:butt; stroke-linejoin:round; stroke-width:4; stroke-opacity:1; fill:none" points="
  927.928,998.964 950.691,970.036 973.454,941.107 996.218,905.017 1018.99,863.743 1041.78,819.072 1064.63,772.49 1087.71,724.966 1111.37,676.611 1135.72,627.643 
  1160.11,580.86 1183.86,539.386 1207,503.143 1229.87,471.224 1252.66,443.233 1275.43,419.017 1298.2,398.467 1320.96,381.467 1343.71,367.89 1366.43,357.654 
  1389.04,350.85 1411.26,348.054 1432.48,350.52 1452.72,358.182 1473.47,367.385 1495.39,376.732 1517.9,387.604 1540.6,401.061 1563.34,417.586 1586.1,437.423 
  1608.86,460.741 1631.62,487.671 1654.38,518.298 1677.15,552.646 1699.91,586.994 
  "/>
<polyline clip-path="url(#clip372)" style="stroke:#0000ff; stroke-linecap:butt; stroke-linejoin:round; stroke-width:4; stroke-opacity:1; fill:none" points="
  932.622,985.65 955.378,956.733 978.135,927.816 1000.89,891.74 1023.66,850.484 1046.43,805.837 1069.27,759.298 1092.31,711.883 1115.87,663.82 1140.03,615.407 
  1164.23,569.214 1187.87,528.073 1210.96,491.959 1233.81,460.086 1256.59,432.116 1279.36,407.912 1302.11,387.37 1324.87,370.374 1347.61,356.797 1370.33,346.549 
  1392.95,339.698 1415.23,336.74 1436.62,338.784 1457.12,345.764 1478.09,354.43 1500.1,363.548 1522.64,374.349 1545.33,387.788 1568.07,404.308 1590.82,424.144 
  1613.58,447.459 1636.33,474.385 1659.09,505.006 1681.85,539.346 1704.6,573.685 
  "/>
<polyline clip-path="url(#clip372)" style="stroke:#0000ff; stroke-linecap:butt; stroke-linejoin:round; stroke-width:4; stroke-opacity:1; fill:none" points="
  937.316,972.336 960.066,943.431 982.816,914.525 1005.57,878.464 1028.32,837.226 1051.09,792.601 1073.91,746.105 1096.91,698.8 1120.36,651.03 1144.34,603.172 
  1168.36,557.567 1191.88,516.76 1214.92,480.774 1237.75,448.948 1260.52,420.999 1283.28,396.806 1306.03,376.272 1328.78,359.281 1351.52,345.703 1374.24,335.445 
  1396.87,328.545 1419.2,325.427 1440.75,327.048 1461.53,333.347 1482.72,341.476 1504.81,350.364 1527.37,361.094 1550.07,374.514 1572.8,391.031 1595.55,410.864 
  1618.3,434.178 1641.05,461.099 1663.8,491.714 1686.55,526.046 1709.3,560.377 
  "/>
<polyline clip-path="url(#clip372)" style="stroke:#0000ff; stroke-linecap:butt; stroke-linejoin:round; stroke-width:4; stroke-opacity:1; fill:none" points="
  942.009,959.022 964.753,930.128 987.497,901.234 1010.24,865.188 1032.99,823.967 1055.75,779.366 1078.56,732.913 1101.51,685.717 1124.85,638.24 1148.65,590.937 
  1172.48,545.921 1195.89,505.447 1218.88,469.589 1241.69,437.81 1264.46,409.882 1287.21,385.701 1309.95,365.175 1332.69,348.188 1355.43,334.61 1378.14,324.34 
  1400.79,317.393 1423.17,314.113 1444.89,315.313 1465.94,320.929 1487.34,328.521 1509.53,337.18 1532.1,347.838 1554.8,361.241 1577.53,377.753 1600.27,397.585 
  1623.02,420.896 1645.76,447.813 1668.5,478.422 1691.25,512.746 1713.99,547.069 
  "/>
<polyline clip-path="url(#clip372)" style="stroke:#0000ff; stroke-linecap:butt; stroke-linejoin:round; stroke-width:4; stroke-opacity:1; fill:none" points="
  946.703,945.708 969.441,916.825 992.178,887.942 1014.92,851.911 1037.66,810.708 1060.41,766.131 1083.2,719.72 1106.11,672.633 1129.35,625.449 1152.96,578.701 
  1176.61,534.274 1199.89,494.134 1222.84,458.404 1245.63,426.672 1268.39,398.764 1291.13,374.596 1313.87,354.077 1336.6,337.095 1359.33,323.517 1382.05,313.236 
  1404.7,306.241 1427.14,302.8 1449.02,303.577 1470.35,308.512 1491.97,315.567 1514.24,323.996 1536.84,334.583 1559.54,347.968 1582.27,364.475 1605,384.305 
  1627.74,407.614 1650.47,434.527 1673.21,465.13 1695.95,499.446 1718.69,533.761 
  "/>
<polyline clip-path="url(#clip372)" style="stroke:#0000ff; stroke-linecap:butt; stroke-linejoin:round; stroke-width:4; stroke-opacity:1; fill:none" points="
  951.397,932.393 974.128,903.523 996.859,874.651 1019.59,838.635 1042.32,797.45 1065.07,752.895 1087.84,706.528 1110.71,659.55 1133.84,612.659 1157.27,566.466 
  1180.73,522.628 1203.9,482.822 1226.8,447.219 1249.58,415.535 1272.32,387.647 1295.05,363.491 1317.79,342.98 1340.52,326.002 1363.24,312.424 1385.95,302.131 
  1408.62,295.089 1431.11,291.487 1453.15,291.842 1474.76,296.095 1496.6,302.613 1518.95,310.812 1541.57,321.328 1564.27,334.694 1587,351.197 1609.73,371.026 
  1632.46,394.332 1655.19,421.241 1677.92,451.838 1700.65,486.146 1723.38,520.453 
  "/>
<polyline clip-path="url(#clip372)" style="stroke:#0000ff; stroke-linecap:butt; stroke-linejoin:round; stroke-width:4; stroke-opacity:1; fill:none" points="
  956.091,919.079 978.815,890.22 1001.54,861.36 1024.27,825.359 1046.99,784.191 1069.72,739.66 1092.48,693.335 1115.31,646.467 1138.33,599.868 1161.59,554.231 
  1184.85,510.981 1207.91,471.509 1230.76,436.034 1253.52,404.397 1276.25,376.53 1298.98,352.385 1321.7,331.882 1344.43,314.909 1367.15,301.331 1389.86,291.027 
  1412.53,283.936 1435.08,280.173 1457.29,280.107 1479.17,283.677 1501.22,289.66 1523.67,297.629 1546.31,308.073 1569.01,321.421 1591.73,337.92 1614.45,357.746 
  1637.18,381.05 1659.9,407.955 1682.62,438.546 1705.35,472.846 1728.07,507.145 
  "/>
<polyline clip-path="url(#clip372)" style="stroke:#0000ff; stroke-linecap:butt; stroke-linejoin:round; stroke-width:4; stroke-opacity:1; fill:none" points="
  960.785,905.765 983.503,876.917 1006.22,848.069 1028.94,812.082 1051.66,770.932 1074.38,726.425 1097.12,680.143 1119.91,633.384 1142.83,587.077 1165.9,541.996 
  1188.98,499.335 1211.92,460.196 1234.72,424.85 1257.46,393.259 1280.18,365.413 1302.9,341.28 1325.62,320.785 1348.34,303.815 1371.06,290.238 1393.76,279.922 
  1416.45,272.784 1439.05,268.86 1461.42,268.371 1483.58,271.26 1505.85,276.706 1528.38,284.445 1551.04,294.818 1573.75,308.148 1596.46,324.642 1619.18,344.467 
  1641.89,367.768 1664.61,394.669 1687.33,425.254 1710.05,459.545 1732.77,493.837 
  "/>
<polyline clip-path="url(#clip372)" style="stroke:#0000ff; stroke-linecap:butt; stroke-linejoin:round; stroke-width:4; stroke-opacity:1; fill:none" points="
  965.479,892.451 988.19,863.615 1010.9,834.778 1033.61,798.806 1056.33,757.674 1079.04,713.189 1101.76,666.95 1124.51,620.301 1147.32,574.287 1170.21,529.76 
  1193.1,487.688 1215.92,448.883 1238.68,413.665 1261.4,382.121 1284.12,354.296 1306.83,330.175 1329.54,309.687 1352.25,292.722 1374.96,279.144 1397.67,268.818 
  1420.36,261.632 1443.02,257.547 1465.56,256.636 1487.99,258.843 1510.47,263.752 1533.09,271.261 1555.78,281.563 1578.48,294.874 1601.19,311.365 1623.9,331.187 
  1646.61,354.486 1669.33,381.383 1692.04,411.962 1714.75,446.245 1737.46,480.529 
  "/>
<polyline clip-path="url(#clip372)" style="stroke:#0000ff; stroke-linecap:butt; stroke-linejoin:round; stroke-width:4; stroke-opacity:1; fill:none" points="
  970.172,879.137 992.878,850.312 1015.58,821.487 1038.29,785.53 1060.99,744.415 1083.7,699.954 1106.4,653.758 1129.11,607.218 1151.82,561.496 1174.52,517.525 
  1197.23,476.042 1219.93,437.571 1242.64,402.48 1265.34,370.984 1288.05,343.179 1310.75,319.07 1333.46,298.59 1356.16,281.629 1378.87,268.051 1401.57,257.713 
  1424.28,250.479 1446.98,246.234 1469.69,244.902 1492.4,246.426 1515.1,250.799 1537.81,258.077 1560.51,268.308 1583.22,281.601 1605.92,298.087 1628.63,317.908 
  1651.33,341.204 1674.04,368.097 1696.74,398.67 1719.45,432.945 1742.15,467.22 
  "/>
</svg>
