<?xml version="1.0" encoding="utf-8"?>
<svg xmlns="http://www.w3.org/2000/svg" xmlns:xlink="http://www.w3.org/1999/xlink" width="600" height="400" viewBox="0 0 2400 1600">
<defs>
  <clipPath id="clip580">
    <rect x="0" y="0" width="2400" height="1600"/>
  </clipPath>
</defs>
<path clip-path="url(#clip580)" d="
M0 1600 L2400 1600 L2400 0 L0 0  Z
  " fill="#ffffff" fill-rule="evenodd" fill-opacity="1"/>
<defs>
  <clipPath id="clip581">
    <rect x="480" y="0" width="1681" height="1600"/>
  </clipPath>
</defs>
<defs>
  <clipPath id="clip582">
    <rect x="223" y="47" width="2130" height="1440"/>
  </clipPath>
</defs>
<path clip-path="url(#clip582)" d="
M1562.36 1777.98 L1562.36 1325.4 L1580.51 1068.08 L1683.44 1113.45 L1683.44 1566.03 L1665.29 1823.36 L1562.36 1777.98  Z
  " fill="#ffffff" fill-rule="evenodd" fill-opacity="1"/>
<polyline clip-path="url(#clip582)" style="stroke:#000000; stroke-linecap:butt; stroke-linejoin:round; stroke-width:2; stroke-opacity:0.1; fill:none" points="
  881.433,1301.73 1025.72,892.579 
  "/>
<polyline clip-path="url(#clip582)" style="stroke:#000000; stroke-linecap:butt; stroke-linejoin:round; stroke-width:2; stroke-opacity:0.1; fill:none" points="
  1025.72,892.579 1025.72,172.977 
  "/>
<polyline clip-path="url(#clip582)" style="stroke:#000000; stroke-linecap:butt; stroke-linejoin:round; stroke-width:2; stroke-opacity:0.1; fill:none" points="
  1035.83,1315.34 1180.12,906.191 
  "/>
<polyline clip-path="url(#clip582)" style="stroke:#000000; stroke-linecap:butt; stroke-linejoin:round; stroke-width:2; stroke-opacity:0.1; fill:none" points="
  1180.12,906.191 1180.12,186.589 
  "/>
<polyline clip-path="url(#clip582)" style="stroke:#000000; stroke-linecap:butt; stroke-linejoin:round; stroke-width:2; stroke-opacity:0.1; fill:none" points="
  1190.23,1328.95 1334.51,919.803 
  "/>
<polyline clip-path="url(#clip582)" style="stroke:#000000; stroke-linecap:butt; stroke-linejoin:round; stroke-width:2; stroke-opacity:0.1; fill:none" points="
  1334.51,919.803 1334.51,200.201 
  "/>
<polyline clip-path="url(#clip582)" style="stroke:#000000; stroke-linecap:butt; stroke-linejoin:round; stroke-width:2; stroke-opacity:0.1; fill:none" points="
  1344.62,1342.57 1488.91,933.415 
  "/>
<polyline clip-path="url(#clip582)" style="stroke:#000000; stroke-linecap:butt; stroke-linejoin:round; stroke-width:2; stroke-opacity:0.1; fill:none" points="
  1488.91,933.415 1488.91,213.813 
  "/>
<polyline clip-path="url(#clip582)" style="stroke:#000000; stroke-linecap:butt; stroke-linejoin:round; stroke-width:2; stroke-opacity:0.1; fill:none" points="
  1499.02,1356.18 1643.31,947.027 
  "/>
<polyline clip-path="url(#clip582)" style="stroke:#000000; stroke-linecap:butt; stroke-linejoin:round; stroke-width:2; stroke-opacity:0.1; fill:none" points="
  1643.31,947.027 1643.31,227.425 
  "/>
<polyline clip-path="url(#clip580)" style="stroke:#000000; stroke-linecap:butt; stroke-linejoin:round; stroke-width:4; stroke-opacity:1; fill:none" points="
  806.808,1295.15 1625.11,1367.29 
  "/>
<polyline clip-path="url(#clip580)" style="stroke:#000000; stroke-linecap:butt; stroke-linejoin:round; stroke-width:4; stroke-opacity:1; fill:none" points="
  881.433,1301.73 883.164,1296.82 
  "/>
<polyline clip-path="url(#clip580)" style="stroke:#000000; stroke-linecap:butt; stroke-linejoin:round; stroke-width:4; stroke-opacity:1; fill:none" points="
  1035.83,1315.34 1037.56,1310.43 
  "/>
<polyline clip-path="url(#clip580)" style="stroke:#000000; stroke-linecap:butt; stroke-linejoin:round; stroke-width:4; stroke-opacity:1; fill:none" points="
  1190.23,1328.95 1191.96,1324.04 
  "/>
<polyline clip-path="url(#clip580)" style="stroke:#000000; stroke-linecap:butt; stroke-linejoin:round; stroke-width:4; stroke-opacity:1; fill:none" points="
  1344.62,1342.57 1346.35,1337.66 
  "/>
<polyline clip-path="url(#clip580)" style="stroke:#000000; stroke-linecap:butt; stroke-linejoin:round; stroke-width:4; stroke-opacity:1; fill:none" points="
  1499.02,1356.18 1500.75,1351.27 
  "/>
<path clip-path="url(#clip580)" d="M808.289 1328.53 L837.964 1328.53 L837.964 1332.47 L808.289 1332.47 L808.289 1328.53 Z" fill="#000000" fill-rule="evenodd" fill-opacity="1" /><path clip-path="url(#clip580)" d="M848.196 1344.64 L848.196 1340.39 Q849.955 1341.22 851.761 1341.66 Q853.566 1342.1 855.302 1342.1 Q859.932 1342.1 862.362 1339 Q864.816 1335.87 865.163 1329.53 Q863.821 1331.52 861.761 1332.58 Q859.7 1333.65 857.2 1333.65 Q852.015 1333.65 848.983 1330.52 Q845.974 1327.38 845.974 1321.94 Q845.974 1316.61 849.122 1313.39 Q852.27 1310.18 857.501 1310.18 Q863.497 1310.18 866.645 1314.78 Q869.816 1319.37 869.816 1328.12 Q869.816 1336.29 865.927 1341.17 Q862.061 1346.03 855.511 1346.03 Q853.751 1346.03 851.946 1345.69 Q850.14 1345.34 848.196 1344.64 M857.501 1329.99 Q860.649 1329.99 862.478 1327.84 Q864.33 1325.69 864.33 1321.94 Q864.33 1318.21 862.478 1316.06 Q860.649 1313.88 857.501 1313.88 Q854.353 1313.88 852.501 1316.06 Q850.673 1318.21 850.673 1321.94 Q850.673 1325.69 852.501 1327.84 Q854.353 1329.99 857.501 1329.99 Z" fill="#000000" fill-rule="evenodd" fill-opacity="1" /><path clip-path="url(#clip580)" d="M962.338 1342.15 L992.014 1342.15 L992.014 1346.08 L962.338 1346.08 L962.338 1342.15 Z" fill="#000000" fill-rule="evenodd" fill-opacity="1" /><path clip-path="url(#clip580)" d="M1012.68 1339.83 Q1009.54 1339.83 1007.68 1341.98 Q1005.86 1344.14 1005.86 1347.89 Q1005.86 1351.61 1007.68 1353.79 Q1009.54 1355.94 1012.68 1355.94 Q1015.83 1355.94 1017.66 1353.79 Q1019.51 1351.61 1019.51 1347.89 Q1019.51 1344.14 1017.66 1341.98 Q1015.83 1339.83 1012.68 1339.83 M1021.97 1325.18 L1021.97 1329.44 Q1020.21 1328.6 1018.4 1328.16 Q1016.62 1327.72 1014.86 1327.72 Q1010.23 1327.72 1007.78 1330.85 Q1005.35 1333.97 1005 1340.29 Q1006.37 1338.28 1008.43 1337.22 Q1010.49 1336.13 1012.96 1336.13 Q1018.17 1336.13 1021.18 1339.3 Q1024.21 1342.45 1024.21 1347.89 Q1024.21 1353.21 1021.06 1356.43 Q1017.92 1359.65 1012.68 1359.65 Q1006.69 1359.65 1003.52 1355.06 Q1000.35 1350.46 1000.35 1341.73 Q1000.35 1333.53 1004.24 1328.67 Q1008.12 1323.79 1014.68 1323.79 Q1016.43 1323.79 1018.22 1324.14 Q1020.02 1324.48 1021.97 1325.18 Z" fill="#000000" fill-rule="evenodd" fill-opacity="1" /><path clip-path="url(#clip580)" d="M1117.54 1355.76 L1147.22 1355.76 L1147.22 1359.69 L1117.54 1359.69 L1117.54 1355.76 Z" fill="#000000" fill-rule="evenodd" fill-opacity="1" /><path clip-path="url(#clip580)" d="M1171.48 1353.95 Q1174.84 1354.67 1176.71 1356.94 Q1178.61 1359.21 1178.61 1362.54 Q1178.61 1367.66 1175.09 1370.46 Q1171.57 1373.26 1165.09 1373.26 Q1162.91 1373.26 1160.6 1372.82 Q1158.31 1372.4 1155.85 1371.54 L1155.85 1367.03 Q1157.8 1368.17 1160.11 1368.74 Q1162.43 1369.32 1164.95 1369.32 Q1169.35 1369.32 1171.64 1367.59 Q1173.96 1365.85 1173.96 1362.54 Q1173.96 1359.48 1171.8 1357.77 Q1169.67 1356.04 1165.85 1356.04 L1161.83 1356.04 L1161.83 1352.19 L1166.04 1352.19 Q1169.49 1352.19 1171.32 1350.83 Q1173.15 1349.44 1173.15 1346.85 Q1173.15 1344.18 1171.25 1342.77 Q1169.37 1341.34 1165.85 1341.34 Q1163.93 1341.34 1161.73 1341.75 Q1159.53 1342.17 1156.9 1343.05 L1156.9 1338.88 Q1159.56 1338.14 1161.87 1337.77 Q1164.21 1337.4 1166.27 1337.4 Q1171.6 1337.4 1174.7 1339.83 Q1177.8 1342.24 1177.8 1346.36 Q1177.8 1349.23 1176.16 1351.22 Q1174.51 1353.19 1171.48 1353.95 Z" fill="#000000" fill-rule="evenodd" fill-opacity="1" /><path clip-path="url(#clip580)" d="M1321.06 1354.72 Q1317.45 1354.72 1315.62 1358.28 Q1313.82 1361.82 1313.82 1368.95 Q1313.82 1376.06 1315.62 1379.62 Q1317.45 1383.17 1321.06 1383.17 Q1324.7 1383.17 1326.5 1379.62 Q1328.33 1376.06 1328.33 1368.95 Q1328.33 1361.82 1326.5 1358.28 Q1324.7 1354.72 1321.06 1354.72 M1321.06 1351.01 Q1326.87 1351.01 1329.93 1355.62 Q1333.01 1360.2 1333.01 1368.95 Q1333.01 1377.68 1329.93 1382.29 Q1326.87 1386.87 1321.06 1386.87 Q1315.25 1386.87 1312.17 1382.29 Q1309.12 1377.68 1309.12 1368.95 Q1309.12 1360.2 1312.17 1355.62 Q1315.25 1351.01 1321.06 1351.01 Z" fill="#000000" fill-rule="evenodd" fill-opacity="1" /><path clip-path="url(#clip580)" d="M1480.27 1381.18 Q1483.63 1381.89 1485.5 1384.16 Q1487.4 1386.43 1487.4 1389.76 Q1487.4 1394.88 1483.88 1397.68 Q1480.36 1400.48 1473.88 1400.48 Q1471.71 1400.48 1469.39 1400.04 Q1467.1 1399.63 1464.65 1398.77 L1464.65 1394.26 Q1466.59 1395.39 1468.91 1395.97 Q1471.22 1396.55 1473.74 1396.55 Q1478.14 1396.55 1480.43 1394.81 Q1482.75 1393.07 1482.75 1389.76 Q1482.75 1386.71 1480.6 1385 Q1478.47 1383.26 1474.65 1383.26 L1470.62 1383.26 L1470.62 1379.42 L1474.83 1379.42 Q1478.28 1379.42 1480.11 1378.05 Q1481.94 1376.66 1481.94 1374.07 Q1481.94 1371.41 1480.04 1370 Q1478.17 1368.56 1474.65 1368.56 Q1472.73 1368.56 1470.53 1368.98 Q1468.33 1369.39 1465.69 1370.27 L1465.69 1366.11 Q1468.35 1365.37 1470.67 1365 Q1473 1364.63 1475.06 1364.63 Q1480.39 1364.63 1483.49 1367.06 Q1486.59 1369.46 1486.59 1373.58 Q1486.59 1376.45 1484.95 1378.45 Q1483.3 1380.41 1480.27 1381.18 Z" fill="#000000" fill-rule="evenodd" fill-opacity="1" /><polyline clip-path="url(#clip582)" style="stroke:#000000; stroke-linecap:butt; stroke-linejoin:round; stroke-width:2; stroke-opacity:0.1; fill:none" points="
  1629.19,1355.71 810.892,1283.57 
  "/>
<polyline clip-path="url(#clip582)" style="stroke:#000000; stroke-linecap:butt; stroke-linejoin:round; stroke-width:2; stroke-opacity:0.1; fill:none" points="
  810.892,1283.57 810.892,563.968 
  "/>
<polyline clip-path="url(#clip582)" style="stroke:#000000; stroke-linecap:butt; stroke-linejoin:round; stroke-width:2; stroke-opacity:0.1; fill:none" points="
  1674.57,1227.05 856.265,1154.91 
  "/>
<polyline clip-path="url(#clip582)" style="stroke:#000000; stroke-linecap:butt; stroke-linejoin:round; stroke-width:2; stroke-opacity:0.1; fill:none" points="
  856.265,1154.91 856.265,435.305 
  "/>
<polyline clip-path="url(#clip582)" style="stroke:#000000; stroke-linecap:butt; stroke-linejoin:round; stroke-width:2; stroke-opacity:0.1; fill:none" points="
  1719.94,1098.39 901.639,1026.24 
  "/>
<polyline clip-path="url(#clip582)" style="stroke:#000000; stroke-linecap:butt; stroke-linejoin:round; stroke-width:2; stroke-opacity:0.1; fill:none" points="
  901.639,1026.24 901.639,306.641 
  "/>
<polyline clip-path="url(#clip582)" style="stroke:#000000; stroke-linecap:butt; stroke-linejoin:round; stroke-width:2; stroke-opacity:0.1; fill:none" points="
  1765.31,969.724 947.013,897.579 
  "/>
<polyline clip-path="url(#clip582)" style="stroke:#000000; stroke-linecap:butt; stroke-linejoin:round; stroke-width:2; stroke-opacity:0.1; fill:none" points="
  947.013,897.579 947.013,177.977 
  "/>
<polyline clip-path="url(#clip580)" style="stroke:#000000; stroke-linecap:butt; stroke-linejoin:round; stroke-width:4; stroke-opacity:1; fill:none" points="
  1625.11,1367.29 1769.4,958.144 
  "/>
<polyline clip-path="url(#clip580)" style="stroke:#000000; stroke-linecap:butt; stroke-linejoin:round; stroke-width:4; stroke-opacity:1; fill:none" points="
  1629.19,1355.71 1619.37,1354.85 
  "/>
<polyline clip-path="url(#clip580)" style="stroke:#000000; stroke-linecap:butt; stroke-linejoin:round; stroke-width:4; stroke-opacity:1; fill:none" points="
  1674.57,1227.05 1664.75,1226.19 
  "/>
<polyline clip-path="url(#clip580)" style="stroke:#000000; stroke-linecap:butt; stroke-linejoin:round; stroke-width:4; stroke-opacity:1; fill:none" points="
  1719.94,1098.39 1710.12,1097.52 
  "/>
<polyline clip-path="url(#clip580)" style="stroke:#000000; stroke-linecap:butt; stroke-linejoin:round; stroke-width:4; stroke-opacity:1; fill:none" points="
  1765.31,969.724 1755.49,968.858 
  "/>
<path clip-path="url(#clip580)" d="M1669.87 1343.54 Q1666.25 1343.54 1664.43 1347.1 Q1662.62 1350.65 1662.62 1357.78 Q1662.62 1364.88 1664.43 1368.45 Q1666.25 1371.99 1669.87 1371.99 Q1673.5 1371.99 1675.31 1368.45 Q1677.13 1364.88 1677.13 1357.78 Q1677.13 1350.65 1675.31 1347.1 Q1673.5 1343.54 1669.87 1343.54 M1669.87 1339.84 Q1675.68 1339.84 1678.73 1344.44 Q1681.81 1349.03 1681.81 1357.78 Q1681.81 1366.5 1678.73 1371.11 Q1675.68 1375.69 1669.87 1375.69 Q1664.06 1375.69 1660.98 1371.11 Q1657.92 1366.5 1657.92 1357.78 Q1657.92 1349.03 1660.98 1344.44 Q1664.06 1339.84 1669.87 1339.84 Z" fill="#000000" fill-rule="evenodd" fill-opacity="1" /><path clip-path="url(#clip580)" d="M1703.97 1242.42 L1711.61 1242.42 L1711.61 1216.06 L1703.3 1217.72 L1703.3 1213.46 L1711.56 1211.8 L1716.23 1211.8 L1716.23 1242.42 L1723.87 1242.42 L1723.87 1246.36 L1703.97 1246.36 L1703.97 1242.42 Z" fill="#000000" fill-rule="evenodd" fill-opacity="1" /><path clip-path="url(#clip580)" d="M1754.29 1113.76 L1770.61 1113.76 L1770.61 1117.69 L1748.67 1117.69 L1748.67 1113.76 Q1751.33 1111 1755.91 1106.37 Q1760.52 1101.72 1761.7 1100.38 Q1763.95 1097.86 1764.83 1096.12 Q1765.73 1094.36 1765.73 1092.67 Q1765.73 1089.92 1763.78 1088.18 Q1761.86 1086.44 1758.76 1086.44 Q1756.56 1086.44 1754.11 1087.21 Q1751.68 1087.97 1748.9 1089.52 L1748.9 1084.8 Q1751.72 1083.67 1754.18 1083.09 Q1756.63 1082.51 1758.67 1082.51 Q1764.04 1082.51 1767.23 1085.19 Q1770.43 1087.88 1770.43 1092.37 Q1770.43 1094.5 1769.62 1096.42 Q1768.83 1098.32 1766.72 1100.91 Q1766.15 1101.58 1763.04 1104.8 Q1759.94 1107.99 1754.29 1113.76 Z" fill="#000000" fill-rule="evenodd" fill-opacity="1" /><path clip-path="url(#clip580)" d="M1809.67 970.396 Q1813.02 971.113 1814.9 973.382 Q1816.8 975.65 1816.8 978.984 Q1816.8 984.099 1813.28 986.9 Q1809.76 989.701 1803.28 989.701 Q1801.1 989.701 1798.79 989.261 Q1796.5 988.845 1794.04 987.988 L1794.04 983.474 Q1795.99 984.609 1798.3 985.187 Q1800.62 985.766 1803.14 985.766 Q1807.54 985.766 1809.83 984.03 Q1812.14 982.294 1812.14 978.984 Q1812.14 975.928 1809.99 974.215 Q1807.86 972.479 1804.04 972.479 L1800.01 972.479 L1800.01 968.636 L1804.23 968.636 Q1807.68 968.636 1809.51 967.271 Q1811.33 965.882 1811.33 963.289 Q1811.33 960.627 1809.44 959.215 Q1807.56 957.78 1804.04 957.78 Q1802.12 957.78 1799.92 958.197 Q1797.72 958.613 1795.08 959.493 L1795.08 955.326 Q1797.75 954.586 1800.06 954.215 Q1802.4 953.845 1804.46 953.845 Q1809.78 953.845 1812.89 956.275 Q1815.99 958.683 1815.99 962.803 Q1815.99 965.673 1814.34 967.664 Q1812.7 969.632 1809.67 970.396 Z" fill="#000000" fill-rule="evenodd" fill-opacity="1" /><polyline clip-path="url(#clip582)" style="stroke:#000000; stroke-linecap:butt; stroke-linejoin:round; stroke-width:2; stroke-opacity:0.1; fill:none" points="
  806.808,1204.52 951.097,795.373 
  "/>
<polyline clip-path="url(#clip582)" style="stroke:#000000; stroke-linecap:butt; stroke-linejoin:round; stroke-width:2; stroke-opacity:0.1; fill:none" points="
  951.097,795.373 1769.4,867.517 
  "/>
<polyline clip-path="url(#clip582)" style="stroke:#000000; stroke-linecap:butt; stroke-linejoin:round; stroke-width:2; stroke-opacity:0.1; fill:none" points="
  806.808,1082.72 951.097,673.573 
  "/>
<polyline clip-path="url(#clip582)" style="stroke:#000000; stroke-linecap:butt; stroke-linejoin:round; stroke-width:2; stroke-opacity:0.1; fill:none" points="
  951.097,673.573 1769.4,745.717 
  "/>
<polyline clip-path="url(#clip582)" style="stroke:#000000; stroke-linecap:butt; stroke-linejoin:round; stroke-width:2; stroke-opacity:0.1; fill:none" points="
  806.808,960.924 951.097,551.773 
  "/>
<polyline clip-path="url(#clip582)" style="stroke:#000000; stroke-linecap:butt; stroke-linejoin:round; stroke-width:2; stroke-opacity:0.1; fill:none" points="
  951.097,551.773 1769.4,623.917 
  "/>
<polyline clip-path="url(#clip582)" style="stroke:#000000; stroke-linecap:butt; stroke-linejoin:round; stroke-width:2; stroke-opacity:0.1; fill:none" points="
  806.808,839.124 951.097,429.973 
  "/>
<polyline clip-path="url(#clip582)" style="stroke:#000000; stroke-linecap:butt; stroke-linejoin:round; stroke-width:2; stroke-opacity:0.1; fill:none" points="
  951.097,429.973 1769.4,502.118 
  "/>
<polyline clip-path="url(#clip582)" style="stroke:#000000; stroke-linecap:butt; stroke-linejoin:round; stroke-width:2; stroke-opacity:0.1; fill:none" points="
  806.808,717.324 951.097,308.173 
  "/>
<polyline clip-path="url(#clip582)" style="stroke:#000000; stroke-linecap:butt; stroke-linejoin:round; stroke-width:2; stroke-opacity:0.1; fill:none" points="
  951.097,308.173 1769.4,380.318 
  "/>
<polyline clip-path="url(#clip582)" style="stroke:#000000; stroke-linecap:butt; stroke-linejoin:round; stroke-width:2; stroke-opacity:0.1; fill:none" points="
  806.808,595.524 951.097,186.373 
  "/>
<polyline clip-path="url(#clip582)" style="stroke:#000000; stroke-linecap:butt; stroke-linejoin:round; stroke-width:2; stroke-opacity:0.1; fill:none" points="
  951.097,186.373 1769.4,258.518 
  "/>
<polyline clip-path="url(#clip580)" style="stroke:#000000; stroke-linecap:butt; stroke-linejoin:round; stroke-width:4; stroke-opacity:1; fill:none" points="
  806.808,1295.15 806.808,575.548 
  "/>
<polyline clip-path="url(#clip580)" style="stroke:#000000; stroke-linecap:butt; stroke-linejoin:round; stroke-width:4; stroke-opacity:1; fill:none" points="
  806.808,1204.52 808.539,1199.61 
  "/>
<polyline clip-path="url(#clip580)" style="stroke:#000000; stroke-linecap:butt; stroke-linejoin:round; stroke-width:4; stroke-opacity:1; fill:none" points="
  806.808,1082.72 808.539,1077.81 
  "/>
<polyline clip-path="url(#clip580)" style="stroke:#000000; stroke-linecap:butt; stroke-linejoin:round; stroke-width:4; stroke-opacity:1; fill:none" points="
  806.808,960.924 808.539,956.014 
  "/>
<polyline clip-path="url(#clip580)" style="stroke:#000000; stroke-linecap:butt; stroke-linejoin:round; stroke-width:4; stroke-opacity:1; fill:none" points="
  806.808,839.124 808.539,834.214 
  "/>
<polyline clip-path="url(#clip580)" style="stroke:#000000; stroke-linecap:butt; stroke-linejoin:round; stroke-width:4; stroke-opacity:1; fill:none" points="
  806.808,717.324 808.539,712.414 
  "/>
<polyline clip-path="url(#clip580)" style="stroke:#000000; stroke-linecap:butt; stroke-linejoin:round; stroke-width:4; stroke-opacity:1; fill:none" points="
  806.808,595.524 808.539,590.614 
  "/>
<path clip-path="url(#clip580)" d="M641.55 1204.97 L671.226 1204.97 L671.226 1208.91 L641.55 1208.91 L641.55 1204.97 Z" fill="#000000" fill-rule="evenodd" fill-opacity="1" /><path clip-path="url(#clip580)" d="M691.319 1190.32 Q687.708 1190.32 685.879 1193.89 Q684.073 1197.43 684.073 1204.56 Q684.073 1211.66 685.879 1215.23 Q687.708 1218.77 691.319 1218.77 Q694.953 1218.77 696.758 1215.23 Q698.587 1211.66 698.587 1204.56 Q698.587 1197.43 696.758 1193.89 Q694.953 1190.32 691.319 1190.32 M691.319 1186.62 Q697.129 1186.62 700.184 1191.22 Q703.263 1195.81 703.263 1204.56 Q703.263 1213.29 700.184 1217.89 Q697.129 1222.47 691.319 1222.47 Q685.508 1222.47 682.43 1217.89 Q679.374 1213.29 679.374 1204.56 Q679.374 1195.81 682.43 1191.22 Q685.508 1186.62 691.319 1186.62 Z" fill="#000000" fill-rule="evenodd" fill-opacity="1" /><path clip-path="url(#clip580)" d="M711.481 1215.92 L716.365 1215.92 L716.365 1221.8 L711.481 1221.8 L711.481 1215.92 Z" fill="#000000" fill-rule="evenodd" fill-opacity="1" /><path clip-path="url(#clip580)" d="M736.55 1190.32 Q732.939 1190.32 731.11 1193.89 Q729.305 1197.43 729.305 1204.56 Q729.305 1211.66 731.11 1215.23 Q732.939 1218.77 736.55 1218.77 Q740.184 1218.77 741.99 1215.23 Q743.818 1211.66 743.818 1204.56 Q743.818 1197.43 741.99 1193.89 Q740.184 1190.32 736.55 1190.32 M736.55 1186.62 Q742.36 1186.62 745.416 1191.22 Q748.494 1195.81 748.494 1204.56 Q748.494 1213.29 745.416 1217.89 Q742.36 1222.47 736.55 1222.47 Q730.74 1222.47 727.661 1217.89 Q724.606 1213.29 724.606 1204.56 Q724.606 1195.81 727.661 1191.22 Q730.74 1186.62 736.55 1186.62 Z" fill="#000000" fill-rule="evenodd" fill-opacity="1" /><path clip-path="url(#clip580)" d="M770.878 1203.17 Q774.235 1203.89 776.11 1206.16 Q778.008 1208.42 778.008 1211.76 Q778.008 1216.87 774.489 1219.67 Q770.971 1222.47 764.49 1222.47 Q762.314 1222.47 759.999 1222.03 Q757.707 1221.62 755.253 1220.76 L755.253 1216.25 Q757.198 1217.38 759.513 1217.96 Q761.828 1218.54 764.351 1218.54 Q768.749 1218.54 771.04 1216.8 Q773.355 1215.07 773.355 1211.76 Q773.355 1208.7 771.202 1206.99 Q769.073 1205.25 765.253 1205.25 L761.226 1205.25 L761.226 1201.41 L765.439 1201.41 Q768.888 1201.41 770.716 1200.04 Q772.545 1198.66 772.545 1196.06 Q772.545 1193.4 770.647 1191.99 Q768.772 1190.55 765.253 1190.55 Q763.332 1190.55 761.133 1190.97 Q758.934 1191.39 756.295 1192.27 L756.295 1188.1 Q758.957 1187.36 761.272 1186.99 Q763.61 1186.62 765.67 1186.62 Q770.994 1186.62 774.096 1189.05 Q777.198 1191.46 777.198 1195.58 Q777.198 1198.45 775.554 1200.44 Q773.911 1202.41 770.878 1203.17 Z" fill="#000000" fill-rule="evenodd" fill-opacity="1" /><path clip-path="url(#clip580)" d="M642.499 1083.17 L672.175 1083.17 L672.175 1087.11 L642.499 1087.11 L642.499 1083.17 Z" fill="#000000" fill-rule="evenodd" fill-opacity="1" /><path clip-path="url(#clip580)" d="M692.268 1068.52 Q688.657 1068.52 686.828 1072.09 Q685.022 1075.63 685.022 1082.76 Q685.022 1089.86 686.828 1093.43 Q688.657 1096.97 692.268 1096.97 Q695.902 1096.97 697.708 1093.43 Q699.536 1089.86 699.536 1082.76 Q699.536 1075.63 697.708 1072.09 Q695.902 1068.52 692.268 1068.52 M692.268 1064.82 Q698.078 1064.82 701.133 1069.43 Q704.212 1074.01 704.212 1082.76 Q704.212 1091.49 701.133 1096.09 Q698.078 1100.67 692.268 1100.67 Q686.458 1100.67 683.379 1096.09 Q680.323 1091.49 680.323 1082.76 Q680.323 1074.01 683.379 1069.43 Q686.458 1064.82 692.268 1064.82 Z" fill="#000000" fill-rule="evenodd" fill-opacity="1" /><path clip-path="url(#clip580)" d="M712.43 1094.12 L717.314 1094.12 L717.314 1100 L712.43 1100 L712.43 1094.12 Z" fill="#000000" fill-rule="evenodd" fill-opacity="1" /><path clip-path="url(#clip580)" d="M737.499 1068.52 Q733.888 1068.52 732.059 1072.09 Q730.254 1075.63 730.254 1082.76 Q730.254 1089.86 732.059 1093.43 Q733.888 1096.97 737.499 1096.97 Q741.133 1096.97 742.939 1093.43 Q744.767 1089.86 744.767 1082.76 Q744.767 1075.63 742.939 1072.09 Q741.133 1068.52 737.499 1068.52 M737.499 1064.82 Q743.309 1064.82 746.365 1069.43 Q749.443 1074.01 749.443 1082.76 Q749.443 1091.49 746.365 1096.09 Q743.309 1100.67 737.499 1100.67 Q731.689 1100.67 728.61 1096.09 Q725.555 1091.49 725.555 1082.76 Q725.555 1074.01 728.61 1069.43 Q731.689 1064.82 737.499 1064.82 Z" fill="#000000" fill-rule="evenodd" fill-opacity="1" /><path clip-path="url(#clip580)" d="M761.689 1096.07 L778.008 1096.07 L778.008 1100 L756.064 1100 L756.064 1096.07 Q758.726 1093.31 763.309 1088.68 Q767.915 1084.03 769.096 1082.69 Q771.341 1080.17 772.221 1078.43 Q773.124 1076.67 773.124 1074.98 Q773.124 1072.23 771.179 1070.49 Q769.258 1068.75 766.156 1068.75 Q763.957 1068.75 761.503 1069.52 Q759.073 1070.28 756.295 1071.83 L756.295 1067.11 Q759.119 1065.98 761.573 1065.4 Q764.027 1064.82 766.064 1064.82 Q771.434 1064.82 774.628 1067.5 Q777.823 1070.19 777.823 1074.68 Q777.823 1076.81 777.013 1078.73 Q776.226 1080.63 774.119 1083.22 Q773.54 1083.89 770.439 1087.11 Q767.337 1090.3 761.689 1096.07 Z" fill="#000000" fill-rule="evenodd" fill-opacity="1" /><path clip-path="url(#clip580)" d="M642.129 961.375 L671.805 961.375 L671.805 965.31 L642.129 965.31 L642.129 961.375 Z" fill="#000000" fill-rule="evenodd" fill-opacity="1" /><path clip-path="url(#clip580)" d="M691.897 946.722 Q688.286 946.722 686.458 950.287 Q684.652 953.829 684.652 960.958 Q684.652 968.065 686.458 971.63 Q688.286 975.171 691.897 975.171 Q695.532 975.171 697.337 971.63 Q699.166 968.065 699.166 960.958 Q699.166 953.829 697.337 950.287 Q695.532 946.722 691.897 946.722 M691.897 943.019 Q697.708 943.019 700.763 947.625 Q703.842 952.208 703.842 960.958 Q703.842 969.685 700.763 974.292 Q697.708 978.875 691.897 978.875 Q686.087 978.875 683.009 974.292 Q679.953 969.685 679.953 960.958 Q679.953 952.208 683.009 947.625 Q686.087 943.019 691.897 943.019 Z" fill="#000000" fill-rule="evenodd" fill-opacity="1" /><path clip-path="url(#clip580)" d="M712.059 972.324 L716.944 972.324 L716.944 978.204 L712.059 978.204 L712.059 972.324 Z" fill="#000000" fill-rule="evenodd" fill-opacity="1" /><path clip-path="url(#clip580)" d="M737.129 946.722 Q733.517 946.722 731.689 950.287 Q729.883 953.829 729.883 960.958 Q729.883 968.065 731.689 971.63 Q733.517 975.171 737.129 975.171 Q740.763 975.171 742.568 971.63 Q744.397 968.065 744.397 960.958 Q744.397 953.829 742.568 950.287 Q740.763 946.722 737.129 946.722 M737.129 943.019 Q742.939 943.019 745.994 947.625 Q749.073 952.208 749.073 960.958 Q749.073 969.685 745.994 974.292 Q742.939 978.875 737.129 978.875 Q731.318 978.875 728.24 974.292 Q725.184 969.685 725.184 960.958 Q725.184 952.208 728.24 947.625 Q731.318 943.019 737.129 943.019 Z" fill="#000000" fill-rule="evenodd" fill-opacity="1" /><path clip-path="url(#clip580)" d="M758.101 974.269 L765.74 974.269 L765.74 947.903 L757.429 949.57 L757.429 945.31 L765.693 943.644 L770.369 943.644 L770.369 974.269 L778.008 974.269 L778.008 978.204 L758.101 978.204 L758.101 974.269 Z" fill="#000000" fill-rule="evenodd" fill-opacity="1" /><path clip-path="url(#clip580)" d="M690.671 824.922 Q687.059 824.922 685.231 828.487 Q683.425 832.029 683.425 839.158 Q683.425 846.265 685.231 849.83 Q687.059 853.371 690.671 853.371 Q694.305 853.371 696.11 849.83 Q697.939 846.265 697.939 839.158 Q697.939 832.029 696.11 828.487 Q694.305 824.922 690.671 824.922 M690.671 821.219 Q696.481 821.219 699.536 825.825 Q702.615 830.409 702.615 839.158 Q702.615 847.885 699.536 852.492 Q696.481 857.075 690.671 857.075 Q684.86 857.075 681.782 852.492 Q678.726 847.885 678.726 839.158 Q678.726 830.409 681.782 825.825 Q684.86 821.219 690.671 821.219 Z" fill="#000000" fill-rule="evenodd" fill-opacity="1" /><path clip-path="url(#clip580)" d="M710.832 850.524 L715.717 850.524 L715.717 856.404 L710.832 856.404 L710.832 850.524 Z" fill="#000000" fill-rule="evenodd" fill-opacity="1" /><path clip-path="url(#clip580)" d="M735.902 824.922 Q732.291 824.922 730.462 828.487 Q728.656 832.029 728.656 839.158 Q728.656 846.265 730.462 849.83 Q732.291 853.371 735.902 853.371 Q739.536 853.371 741.342 849.83 Q743.17 846.265 743.17 839.158 Q743.17 832.029 741.342 828.487 Q739.536 824.922 735.902 824.922 M735.902 821.219 Q741.712 821.219 744.767 825.825 Q747.846 830.409 747.846 839.158 Q747.846 847.885 744.767 852.492 Q741.712 857.075 735.902 857.075 Q730.092 857.075 727.013 852.492 Q723.957 847.885 723.957 839.158 Q723.957 830.409 727.013 825.825 Q730.092 821.219 735.902 821.219 Z" fill="#000000" fill-rule="evenodd" fill-opacity="1" /><path clip-path="url(#clip580)" d="M766.064 824.922 Q762.453 824.922 760.624 828.487 Q758.818 832.029 758.818 839.158 Q758.818 846.265 760.624 849.83 Q762.453 853.371 766.064 853.371 Q769.698 853.371 771.503 849.83 Q773.332 846.265 773.332 839.158 Q773.332 832.029 771.503 828.487 Q769.698 824.922 766.064 824.922 M766.064 821.219 Q771.874 821.219 774.929 825.825 Q778.008 830.409 778.008 839.158 Q778.008 847.885 774.929 852.492 Q771.874 857.075 766.064 857.075 Q760.253 857.075 757.175 852.492 Q754.119 847.885 754.119 839.158 Q754.119 830.409 757.175 825.825 Q760.253 821.219 766.064 821.219 Z" fill="#000000" fill-rule="evenodd" fill-opacity="1" /><path clip-path="url(#clip580)" d="M691.897 703.123 Q688.286 703.123 686.458 706.687 Q684.652 710.229 684.652 717.359 Q684.652 724.465 686.458 728.03 Q688.286 731.571 691.897 731.571 Q695.532 731.571 697.337 728.03 Q699.166 724.465 699.166 717.359 Q699.166 710.229 697.337 706.687 Q695.532 703.123 691.897 703.123 M691.897 699.419 Q697.708 699.419 700.763 704.025 Q703.842 708.609 703.842 717.359 Q703.842 726.085 700.763 730.692 Q697.708 735.275 691.897 735.275 Q686.087 735.275 683.009 730.692 Q679.953 726.085 679.953 717.359 Q679.953 708.609 683.009 704.025 Q686.087 699.419 691.897 699.419 Z" fill="#000000" fill-rule="evenodd" fill-opacity="1" /><path clip-path="url(#clip580)" d="M712.059 728.724 L716.944 728.724 L716.944 734.604 L712.059 734.604 L712.059 728.724 Z" fill="#000000" fill-rule="evenodd" fill-opacity="1" /><path clip-path="url(#clip580)" d="M737.129 703.123 Q733.517 703.123 731.689 706.687 Q729.883 710.229 729.883 717.359 Q729.883 724.465 731.689 728.03 Q733.517 731.571 737.129 731.571 Q740.763 731.571 742.568 728.03 Q744.397 724.465 744.397 717.359 Q744.397 710.229 742.568 706.687 Q740.763 703.123 737.129 703.123 M737.129 699.419 Q742.939 699.419 745.994 704.025 Q749.073 708.609 749.073 717.359 Q749.073 726.085 745.994 730.692 Q742.939 735.275 737.129 735.275 Q731.318 735.275 728.24 730.692 Q725.184 726.085 725.184 717.359 Q725.184 708.609 728.24 704.025 Q731.318 699.419 737.129 699.419 Z" fill="#000000" fill-rule="evenodd" fill-opacity="1" /><path clip-path="url(#clip580)" d="M758.101 730.669 L765.74 730.669 L765.74 704.303 L757.429 705.97 L757.429 701.711 L765.693 700.044 L770.369 700.044 L770.369 730.669 L778.008 730.669 L778.008 734.604 L758.101 734.604 L758.101 730.669 Z" fill="#000000" fill-rule="evenodd" fill-opacity="1" /><path clip-path="url(#clip580)" d="M692.268 581.323 Q688.657 581.323 686.828 584.887 Q685.022 588.429 685.022 595.559 Q685.022 602.665 686.828 606.23 Q688.657 609.772 692.268 609.772 Q695.902 609.772 697.708 606.23 Q699.536 602.665 699.536 595.559 Q699.536 588.429 697.708 584.887 Q695.902 581.323 692.268 581.323 M692.268 577.619 Q698.078 577.619 701.133 582.225 Q704.212 586.809 704.212 595.559 Q704.212 604.286 701.133 608.892 Q698.078 613.475 692.268 613.475 Q686.458 613.475 683.379 608.892 Q680.323 604.286 680.323 595.559 Q680.323 586.809 683.379 582.225 Q686.458 577.619 692.268 577.619 Z" fill="#000000" fill-rule="evenodd" fill-opacity="1" /><path clip-path="url(#clip580)" d="M712.43 606.924 L717.314 606.924 L717.314 612.804 L712.43 612.804 L712.43 606.924 Z" fill="#000000" fill-rule="evenodd" fill-opacity="1" /><path clip-path="url(#clip580)" d="M737.499 581.323 Q733.888 581.323 732.059 584.887 Q730.254 588.429 730.254 595.559 Q730.254 602.665 732.059 606.23 Q733.888 609.772 737.499 609.772 Q741.133 609.772 742.939 606.23 Q744.767 602.665 744.767 595.559 Q744.767 588.429 742.939 584.887 Q741.133 581.323 737.499 581.323 M737.499 577.619 Q743.309 577.619 746.365 582.225 Q749.443 586.809 749.443 595.559 Q749.443 604.286 746.365 608.892 Q743.309 613.475 737.499 613.475 Q731.689 613.475 728.61 608.892 Q725.555 604.286 725.555 595.559 Q725.555 586.809 728.61 582.225 Q731.689 577.619 737.499 577.619 Z" fill="#000000" fill-rule="evenodd" fill-opacity="1" /><path clip-path="url(#clip580)" d="M761.689 608.869 L778.008 608.869 L778.008 612.804 L756.064 612.804 L756.064 608.869 Q758.726 606.114 763.309 601.485 Q767.915 596.832 769.096 595.489 Q771.341 592.966 772.221 591.23 Q773.124 589.471 773.124 587.781 Q773.124 585.026 771.179 583.29 Q769.258 581.554 766.156 581.554 Q763.957 581.554 761.503 582.318 Q759.073 583.082 756.295 584.633 L756.295 579.911 Q759.119 578.776 761.573 578.198 Q764.027 577.619 766.064 577.619 Q771.434 577.619 774.628 580.304 Q777.823 582.989 777.823 587.48 Q777.823 589.61 777.013 591.531 Q776.226 593.429 774.119 596.022 Q773.54 596.693 770.439 599.911 Q767.337 603.105 761.689 608.869 Z" fill="#000000" fill-rule="evenodd" fill-opacity="1" /><polyline clip-path="url(#clip582)" style="stroke:#0000ff; stroke-linecap:butt; stroke-linejoin:round; stroke-width:4; stroke-opacity:1; fill:none" points="
  834.051,1265.25 856.942,1236.09 879.833,1206.93 902.729,1170.54 925.641,1128.91 948.612,1083.77 971.8,1036.34 995.724,986.621 1021.51,932.399 1049.49,872.349 
  1077.63,813.791 1103.72,765.645 1127.8,726.844 1151.04,693.982 1174.02,665.577 1196.94,641.124 1219.84,620.417 1242.72,603.329 1265.57,589.754 1288.33,579.746 
  1310.72,573.899 1331.87,574.345 1349.8,585.273 1364.54,606.555 1380.94,626.519 1401.13,640.426 1423.21,652.718 1445.88,666.538 1468.71,683.146 1491.59,703.017 
  1514.47,726.383 1537.36,753.393 1560.25,784.139 1583.14,818.648 1606.03,853.156 
  "/>
<polyline clip-path="url(#clip582)" style="stroke:#0000ff; stroke-linecap:butt; stroke-linejoin:round; stroke-width:4; stroke-opacity:1; fill:none" points="
  834.206,1264.81 857.097,1235.65 879.988,1206.49 902.884,1170.1 925.795,1128.48 948.765,1083.34 971.953,1035.9 995.876,986.192 1021.65,931.978 1049.63,871.945 
  1077.77,813.406 1103.85,765.271 1127.93,726.473 1151.17,693.613 1174.15,665.209 1197.07,640.757 1219.96,620.05 1242.85,602.963 1265.7,589.387 1288.46,579.378 
  1310.85,573.529 1332,573.969 1349.94,584.885 1364.68,606.141 1381.09,626.081 1401.28,639.981 1423.37,652.273 1446.04,666.094 1468.87,682.704 1491.74,702.576 
  1514.63,725.943 1537.52,752.953 1560.41,783.7 1583.3,818.209 1606.19,852.717 
  "/>
<polyline clip-path="url(#clip582)" style="stroke:#0000ff; stroke-linecap:butt; stroke-linejoin:round; stroke-width:4; stroke-opacity:1; fill:none" points="
  834.397,1264.27 857.287,1235.11 880.178,1205.95 903.073,1169.56 925.984,1127.94 948.954,1082.8 972.141,1035.37 996.062,985.662 1021.84,931.46 1049.8,871.449 
  1077.93,812.934 1104.01,764.812 1128.09,726.019 1151.33,693.161 1174.31,664.758 1197.23,640.306 1220.12,619.6 1243,602.513 1265.86,588.937 1288.62,578.928 
  1311.01,573.077 1332.16,573.51 1350.11,584.409 1364.86,605.637 1381.28,625.555 1401.47,639.446 1423.56,651.735 1446.23,665.555 1469.06,682.165 1491.94,702.037 
  1514.82,725.404 1537.71,752.414 1560.6,783.161 1583.49,817.669 1606.38,852.177 
  "/>
<polyline clip-path="url(#clip582)" style="stroke:#0000ff; stroke-linecap:butt; stroke-linejoin:round; stroke-width:4; stroke-opacity:1; fill:none" points="
  834.63,1263.6 857.52,1234.45 880.411,1205.29 903.306,1168.9 926.217,1127.28 949.186,1082.14 972.372,1034.71 996.291,985.01 1022.06,930.823 1050.02,870.839 
  1078.14,812.354 1104.21,764.249 1128.29,725.462 1151.53,692.606 1174.51,664.204 1197.42,639.753 1220.32,619.047 1243.2,601.96 1266.05,588.385 1288.81,578.375 
  1311.21,572.521 1332.36,572.946 1350.31,583.824 1365.08,605.019 1381.51,624.909 1401.71,638.789 1423.79,651.075 1446.46,664.894 1469.3,681.504 1492.17,701.376 
  1515.06,724.743 1537.94,751.753 1560.83,782.499 1583.72,817.006 1606.61,851.514 
  "/>
<polyline clip-path="url(#clip582)" style="stroke:#0000ff; stroke-linecap:butt; stroke-linejoin:round; stroke-width:4; stroke-opacity:1; fill:none" points="
  834.917,1262.79 857.807,1233.63 880.697,1204.48 903.592,1168.09 926.502,1126.47 949.471,1081.34 972.656,1033.9 996.573,984.21 1022.34,930.041 1050.28,870.091 
  1078.39,811.642 1104.45,763.557 1128.53,724.778 1151.77,691.925 1174.75,663.524 1197.66,639.074 1220.56,618.368 1243.44,601.282 1266.29,587.706 1289.05,577.696 
  1311.45,571.839 1332.6,572.254 1350.56,583.106 1365.35,604.259 1381.8,624.117 1402,637.983 1424.08,650.264 1446.75,664.082 1469.59,680.692 1492.46,700.564 
  1515.34,723.93 1538.23,750.94 1561.12,781.686 1584.01,816.193 1606.9,850.7 
  "/>
<polyline clip-path="url(#clip582)" style="stroke:#0000ff; stroke-linecap:butt; stroke-linejoin:round; stroke-width:4; stroke-opacity:1; fill:none" points="
  835.27,1261.79 858.159,1232.64 881.049,1203.48 903.943,1167.1 926.852,1125.47 949.821,1080.34 973.005,1032.91 996.918,983.228 1022.67,929.081 1050.6,869.173 
  1078.7,810.768 1104.76,762.708 1128.83,723.939 1152.06,691.09 1175.04,662.69 1197.96,638.241 1220.85,617.536 1243.73,600.45 1266.59,586.874 1289.34,576.862 
  1311.74,571.003 1332.9,571.405 1350.87,582.225 1365.68,603.328 1382.14,623.145 1402.35,636.994 1424.44,649.269 1447.11,663.087 1469.94,679.696 1492.81,699.568 
  1515.7,722.934 1538.59,749.943 1561.47,780.689 1584.36,815.195 1607.25,849.702 
  "/>
<polyline clip-path="url(#clip582)" style="stroke:#0000ff; stroke-linecap:butt; stroke-linejoin:round; stroke-width:4; stroke-opacity:1; fill:none" points="
  835.701,1260.56 858.59,1231.41 881.479,1202.26 904.373,1165.87 927.282,1124.25 950.249,1079.12 973.432,1031.7 997.341,982.025 1023.09,927.904 1051,868.048 
  1079.08,809.696 1105.12,761.667 1129.19,722.91 1152.42,690.065 1175.41,661.667 1198.32,637.219 1221.21,616.515 1244.09,599.429 1266.95,585.853 1289.7,575.841 
  1312.1,569.977 1333.26,570.364 1351.25,581.145 1366.09,602.185 1382.57,621.953 1402.78,635.781 1424.87,648.05 1447.55,661.865 1470.38,678.474 1493.25,698.346 
  1516.13,721.712 1539.02,748.721 1561.91,779.466 1584.8,813.972 1607.68,848.477 
  "/>
<polyline clip-path="url(#clip582)" style="stroke:#0000ff; stroke-linecap:butt; stroke-linejoin:round; stroke-width:4; stroke-opacity:1; fill:none" points="
  836.231,1259.06 859.118,1229.91 882.007,1200.76 904.9,1164.38 927.808,1122.76 950.775,1077.63 973.955,1030.21 997.859,980.55 1023.59,926.462 1051.49,866.668 
  1079.54,808.383 1105.58,760.392 1129.64,721.649 1152.87,688.809 1175.85,660.414 1198.76,635.967 1221.65,615.264 1244.53,598.178 1267.39,584.603 1290.14,574.589 
  1312.54,568.719 1333.71,569.088 1351.72,579.822 1366.58,600.785 1383.09,620.492 1403.31,634.294 1425.41,646.555 1448.08,660.369 1470.91,676.977 1493.78,696.849 
  1516.67,720.214 1539.55,747.223 1562.44,777.967 1585.33,812.472 1608.21,846.977 
  "/>
<polyline clip-path="url(#clip582)" style="stroke:#0000ff; stroke-linecap:butt; stroke-linejoin:round; stroke-width:4; stroke-opacity:1; fill:none" points="
  836.879,1257.23 859.765,1228.08 882.653,1198.92 905.545,1162.54 928.453,1120.93 951.418,1075.8 974.596,1028.39 998.494,978.743 1024.21,924.697 1052.08,864.979 
  1080.11,806.775 1106.13,758.83 1130.18,720.105 1153.41,687.271 1176.39,658.879 1199.3,634.433 1222.2,613.731 1245.07,596.647 1267.93,583.071 1290.68,573.056 
  1313.08,567.179 1334.26,567.526 1352.29,578.201 1367.19,599.07 1383.73,618.703 1403.97,632.474 1426.06,644.725 1448.73,658.536 1471.56,675.144 1494.43,695.015 
  1517.32,718.38 1540.2,745.389 1563.09,776.132 1585.97,810.636 1608.86,845.139 
  "/>
<polyline clip-path="url(#clip582)" style="stroke:#0000ff; stroke-linecap:butt; stroke-linejoin:round; stroke-width:4; stroke-opacity:1; fill:none" points="
  837.671,1254.98 860.557,1225.83 883.444,1196.68 906.335,1160.3 929.241,1118.69 952.204,1073.57 975.38,1026.16 999.271,976.534 1024.97,922.537 1052.81,862.912 
  1080.81,804.808 1106.81,756.919 1130.85,718.215 1154.08,685.39 1177.06,657.001 1199.97,632.558 1222.86,611.857 1245.73,594.773 1268.58,581.197 1291.34,571.18 
  1313.75,565.296 1334.93,565.615 1352.99,576.218 1367.94,596.972 1384.51,616.514 1404.76,630.247 1426.86,642.486 1449.53,656.294 1472.36,672.901 1495.23,692.772 
  1518.11,716.137 1541,743.145 1563.88,773.887 1586.77,808.389 1609.65,842.892 
  "/>
<polyline clip-path="url(#clip582)" style="stroke:#0000ff; stroke-linecap:butt; stroke-linejoin:round; stroke-width:4; stroke-opacity:1; fill:none" points="
  838.64,1252.23 861.525,1223.08 884.41,1193.93 907.299,1157.56 930.204,1115.95 953.166,1070.84 976.338,1023.44 1000.22,973.834 1025.9,919.898 1053.7,860.387 
  1081.66,802.405 1107.63,754.584 1131.67,715.907 1154.89,683.091 1177.87,654.707 1200.78,630.266 1223.67,609.567 1246.54,592.484 1269.39,578.908 1292.15,568.888 
  1314.55,562.994 1335.75,563.28 1353.84,573.796 1368.85,594.409 1385.46,613.84 1405.73,627.526 1427.84,639.751 1450.51,653.555 1473.34,670.161 1496.21,690.032 
  1519.09,713.396 1541.97,740.403 1564.85,771.144 1587.74,805.645 1610.62,840.145 
  "/>
<polyline clip-path="url(#clip582)" style="stroke:#0000ff; stroke-linecap:butt; stroke-linejoin:round; stroke-width:4; stroke-opacity:1; fill:none" points="
  839.822,1248.88 862.705,1219.73 885.589,1190.59 908.476,1154.22 931.379,1112.61 954.339,1067.51 977.506,1020.12 1001.38,970.54 1027.03,916.678 1054.79,857.307 
  1082.7,799.472 1108.64,751.736 1132.67,713.091 1155.88,680.287 1178.86,651.908 1201.76,627.47 1224.65,606.773 1247.53,589.691 1270.37,576.115 1293.13,566.093 
  1315.54,560.186 1336.75,560.431 1354.88,570.84 1369.96,591.283 1386.63,610.578 1406.92,624.207 1429.03,636.413 1451.7,650.213 1474.53,666.818 1497.4,686.688 
  1520.28,710.052 1543.16,737.058 1566.04,767.797 1588.92,802.296 1611.8,836.795 
  "/>
<polyline clip-path="url(#clip582)" style="stroke:#0000ff; stroke-linecap:butt; stroke-linejoin:round; stroke-width:4; stroke-opacity:1; fill:none" points="
  841.261,1244.79 864.142,1215.66 887.024,1186.51 909.91,1150.15 932.81,1108.55 955.767,1063.45 978.929,1016.07 1002.79,966.528 1028.41,912.756 1056.11,853.555 
  1083.96,795.901 1109.87,748.267 1133.88,709.662 1157.09,676.872 1180.06,648.499 1202.97,624.065 1225.85,603.37 1248.73,586.29 1271.57,572.714 1294.33,562.688 
  1316.74,556.767 1337.96,556.962 1356.15,567.241 1371.31,587.475 1388.05,606.605 1408.37,620.164 1430.48,632.349 1453.15,646.143 1475.98,662.747 1498.85,682.616 
  1521.72,705.98 1544.6,732.984 1567.48,763.722 1590.36,798.218 1613.24,832.714 
  "/>
<polyline clip-path="url(#clip582)" style="stroke:#0000ff; stroke-linecap:butt; stroke-linejoin:round; stroke-width:4; stroke-opacity:1; fill:none" points="
  843.01,1239.83 865.889,1210.7 888.768,1181.56 911.651,1145.2 934.549,1103.61 957.502,1058.52 980.659,1011.16 1004.5,961.654 1030.08,907.991 1057.72,848.996 
  1085.5,791.562 1111.36,744.052 1135.36,705.494 1158.56,672.722 1181.53,644.357 1204.43,619.927 1227.31,599.235 1250.18,582.156 1273.03,568.58 1295.78,558.55 
  1318.2,552.611 1339.44,552.746 1357.69,562.867 1372.95,582.847 1389.77,601.777 1410.12,615.252 1432.25,627.41 1454.92,641.197 1477.74,657.799 1500.61,677.668 
  1523.48,701.031 1546.36,728.034 1569.24,758.769 1592.11,793.262 1614.99,827.756 
  "/>
<polyline clip-path="url(#clip582)" style="stroke:#0000ff; stroke-linecap:butt; stroke-linejoin:round; stroke-width:4; stroke-opacity:1; fill:none" points="
  845.13,1233.82 868.005,1204.69 890.882,1175.56 913.762,1139.21 936.657,1097.62 959.606,1052.54 982.755,1005.2 1006.58,955.746 1032.11,902.216 1059.66,843.471 
  1087.36,786.303 1113.17,738.943 1137.15,700.443 1160.34,667.693 1183.3,639.337 1206.2,614.912 1229.08,594.224 1251.95,577.147 1274.79,563.571 1297.55,553.536 
  1319.97,547.575 1341.24,547.636 1359.56,557.566 1374.94,577.239 1391.86,595.926 1412.25,609.298 1434.38,621.424 1457.06,635.203 1479.88,651.803 1502.74,671.672 
  1525.61,695.033 1548.49,722.034 1571.36,752.767 1594.24,787.256 1617.11,821.746 
  "/>
<polyline clip-path="url(#clip582)" style="stroke:#0000ff; stroke-linecap:butt; stroke-linejoin:round; stroke-width:4; stroke-opacity:1; fill:none" points="
  847.69,1226.56 870.562,1197.43 893.435,1168.31 916.312,1131.96 939.203,1090.39 962.147,1045.32 985.287,998.005 1009.09,948.609 1034.56,895.239 1062.01,836.796 
  1089.61,779.949 1115.36,732.772 1139.31,694.341 1162.49,661.617 1185.45,633.272 1208.34,608.854 1231.22,588.17 1254.08,571.095 1276.92,557.519 1299.68,547.478 
  1322.1,541.491 1343.4,541.464 1361.81,551.162 1377.35,570.464 1394.38,588.857 1414.82,602.106 1436.97,614.193 1459.64,627.962 1482.46,644.56 1505.32,664.427 
  1528.19,687.787 1551.06,714.786 1573.93,745.515 1596.8,780.001 1619.67,814.486 
  "/>
<polyline clip-path="url(#clip582)" style="stroke:#0000ff; stroke-linecap:butt; stroke-linejoin:round; stroke-width:4; stroke-opacity:1; fill:none" points="
  850.772,1217.82 873.639,1188.7 896.508,1159.58 919.381,1123.25 942.267,1081.69 965.205,1036.63 988.334,989.345 1012.11,940.02 1037.51,886.844 1064.84,828.764 
  1092.32,772.304 1117.99,725.345 1141.91,686.999 1165.08,654.305 1188.03,625.974 1210.92,601.564 1233.79,580.885 1256.65,563.813 1279.49,550.237 1302.24,540.188 
  1324.67,534.17 1346.01,534.036 1364.53,543.456 1380.24,562.312 1397.42,580.351 1417.92,593.451 1440.07,605.492 1462.75,619.248 1485.57,635.844 1508.42,655.71 
  1531.28,679.068 1554.15,706.064 1577.02,736.79 1599.89,771.27 1622.75,805.75 
  "/>
<polyline clip-path="url(#clip582)" style="stroke:#0000ff; stroke-linecap:butt; stroke-linejoin:round; stroke-width:4; stroke-opacity:1; fill:none" points="
  854.462,1207.35 877.325,1178.24 900.189,1149.13 923.056,1112.81 945.937,1071.26 968.868,1026.22 991.983,978.972 1015.72,929.734 1041.05,876.788 1068.23,819.144 
  1095.56,763.146 1121.14,716.45 1145.02,678.205 1168.18,645.548 1191.12,617.233 1214.01,592.832 1236.87,572.159 1259.73,555.091 1282.56,541.515 1305.31,531.457 
  1327.75,525.402 1349.13,525.14 1367.78,534.226 1383.71,552.547 1401.06,570.164 1421.62,583.084 1443.8,595.069 1466.47,608.812 1489.29,625.404 1512.14,645.269 
  1535,668.625 1557.86,695.618 1580.72,726.339 1603.58,760.813 1626.44,795.286 
  "/>
<polyline clip-path="url(#clip582)" style="stroke:#0000ff; stroke-linecap:butt; stroke-linejoin:round; stroke-width:4; stroke-opacity:1; fill:none" points="
  858.858,1194.88 881.715,1165.79 904.572,1136.69 927.434,1100.38 950.308,1058.84 973.23,1013.83 996.33,966.618 1020.03,917.482 1045.25,864.812 1072.27,807.686 
  1099.42,752.24 1124.89,705.856 1148.73,667.73 1171.87,635.118 1194.8,606.822 1217.68,582.432 1240.54,561.767 1263.39,544.703 1286.22,531.127 1308.97,521.058 
  1331.42,514.958 1352.85,514.544 1371.65,523.234 1387.84,540.917 1405.39,558.03 1426.03,570.738 1448.23,582.656 1470.91,596.382 1493.72,612.97 1516.56,632.833 
  1539.41,656.187 1562.27,683.176 1585.13,713.891 1607.98,748.358 1630.84,782.824 
  "/>
<polyline clip-path="url(#clip582)" style="stroke:#0000ff; stroke-linecap:butt; stroke-linejoin:round; stroke-width:4; stroke-opacity:1; fill:none" points="
  864.058,1180.13 886.908,1151.05 909.759,1121.96 932.613,1085.67 955.479,1044.15 978.391,999.166 1001.47,952.001 1025.13,902.987 1050.23,850.642 1077.05,794.13 
  1103.99,739.336 1129.33,693.322 1153.11,655.338 1176.24,622.777 1199.16,594.505 1222.03,570.128 1244.88,549.472 1267.73,532.412 1290.55,518.836 1313.29,508.755 
  1335.76,502.602 1357.24,502.008 1376.23,510.228 1392.72,527.158 1410.52,543.674 1431.26,556.13 1453.48,567.97 1476.16,581.675 1498.96,598.258 1521.8,618.12 
  1544.64,641.471 1567.49,668.456 1590.34,699.164 1613.19,733.622 1636.04,768.079 
  "/>
<polyline clip-path="url(#clip582)" style="stroke:#0000ff; stroke-linecap:butt; stroke-linejoin:round; stroke-width:4; stroke-opacity:1; fill:none" points="
  870.163,1162.81 893.004,1133.75 915.847,1104.67 938.692,1068.4 961.549,1026.91 984.449,981.953 1007.51,934.844 1031.11,885.972 1056.08,834.009 1082.66,778.218 
  1109.36,724.19 1134.55,678.609 1158.26,640.792 1181.36,608.292 1204.27,580.047 1227.13,555.685 1249.98,535.039 1272.81,517.985 1295.63,504.409 1318.37,494.313 
  1340.85,488.098 1362.41,487.293 1381.61,494.963 1398.46,511.007 1416.53,526.824 1437.39,538.984 1459.63,550.731 1482.31,564.412 1505.11,580.99 1527.94,600.849 
  1550.78,624.197 1573.62,651.177 1596.46,681.878 1619.3,716.325 1642.14,750.771 
  "/>
<polyline clip-path="url(#clip582)" style="stroke:#0000ff; stroke-linecap:butt; stroke-linejoin:round; stroke-width:4; stroke-opacity:1; fill:none" points="
  877.262,1142.68 900.094,1113.63 922.927,1084.57 945.762,1048.32 968.608,1006.86 991.495,961.935 1014.53,914.89 1038.07,866.184 1062.87,814.665 1089.18,759.712 
  1115.59,706.574 1140.61,661.498 1164.25,623.874 1187.32,591.446 1210.22,563.232 1233.07,538.888 1255.9,518.254 1278.73,501.207 1301.54,487.63 1324.28,477.517 
  1346.77,471.229 1368.41,470.179 1387.86,477.209 1405.13,492.223 1423.53,507.227 1444.51,519.042 1466.8,530.682 1489.48,544.336 1512.27,560.907 1535.09,580.763 
  1557.92,604.108 1580.75,631.081 1603.58,661.773 1626.41,696.208 1649.24,730.642 
  "/>
<polyline clip-path="url(#clip582)" style="stroke:#0000ff; stroke-linecap:butt; stroke-linejoin:round; stroke-width:4; stroke-opacity:1; fill:none" points="
  885.431,1119.51 908.252,1090.48 931.073,1061.44 953.897,1025.22 976.731,983.784 999.601,938.902 1022.61,891.932 1046.07,843.416 1070.69,792.408 1096.68,738.419 
  1122.77,686.306 1147.58,641.81 1171.15,604.409 1194.18,572.063 1217.06,543.885 1239.9,519.562 1262.72,498.941 1285.54,481.902 1308.34,468.325 1331.07,458.192 
  1353.59,451.821 1375.32,450.489 1395.05,456.783 1412.8,470.612 1431.58,484.68 1452.72,496.098 1475.03,507.614 1497.72,521.237 1520.5,537.8 1543.31,557.654 
  1566.13,580.994 1588.95,607.96 1611.77,638.642 1634.59,673.062 1657.41,707.483 
  "/>
<polyline clip-path="url(#clip582)" style="stroke:#0000ff; stroke-linecap:butt; stroke-linejoin:round; stroke-width:4; stroke-opacity:1; fill:none" points="
  894.714,1093.18 917.522,1064.17 940.33,1035.16 963.141,998.961 985.961,957.563 1008.81,912.727 1031.79,865.842 1055.17,817.543 1079.58,767.114 1105.21,714.222 
  1130.93,663.273 1155.51,619.437 1178.98,582.29 1201.98,550.037 1224.84,521.899 1247.66,497.6 1270.47,476.995 1293.27,459.964 1316.06,446.387 1338.8,436.231 
  1361.33,429.766 1383.17,428.114 1403.23,433.57 1421.52,446.053 1440.73,459.058 1462.04,470.025 1484.4,481.4 1507.08,494.986 1529.86,511.541 1552.66,531.391 
  1575.47,554.727 1598.27,581.685 1621.08,612.355 1643.89,646.759 1666.7,681.164 
  "/>
<polyline clip-path="url(#clip582)" style="stroke:#0000ff; stroke-linecap:butt; stroke-linejoin:round; stroke-width:4; stroke-opacity:1; fill:none" points="
  905.116,1063.67 927.91,1034.69 950.704,1005.7 973.5,969.54 996.304,928.18 1019.14,883.396 1042.07,836.606 1065.36,788.549 1089.54,738.771 1114.76,687.107 
  1140.07,637.463 1164.39,594.367 1187.75,557.502 1210.71,525.354 1233.55,497.263 1256.36,472.989 1279.15,452.401 1301.94,435.38 1324.72,421.803 1347.45,411.622 
  1370.01,405.051 1391.97,403.04 1412.39,407.56 1431.29,418.533 1450.98,430.347 1472.48,440.807 1494.89,452.025 1517.58,465.571 1540.35,482.116 1563.13,501.962 
  1585.92,525.292 1608.72,552.242 1631.51,582.898 1654.3,617.285 1677.1,651.672 
  "/>
<polyline clip-path="url(#clip582)" style="stroke:#0000ff; stroke-linecap:butt; stroke-linejoin:round; stroke-width:4; stroke-opacity:1; fill:none" points="
  916.59,1031.12 939.369,1002.17 962.147,973.211 984.928,937.084 1007.71,895.768 1030.52,851.041 1053.42,804.355 1076.6,756.567 1100.52,707.504 1125.3,657.197 
  1150.15,608.992 1174.18,566.711 1197.43,530.16 1220.35,498.126 1243.16,470.086 1265.95,445.841 1288.73,425.273 1311.51,408.262 1334.27,394.685 1357,384.476 
  1379.58,377.788 1401.67,375.382 1422.5,378.869 1442.07,388.176 1462.29,398.676 1484,408.577 1506.46,419.621 1529.16,433.122 1551.91,449.658 1574.68,469.499 
  1597.46,492.823 1620.24,519.763 1643.02,550.405 1665.79,584.772 1688.57,619.139 
  "/>
<polyline clip-path="url(#clip582)" style="stroke:#0000ff; stroke-linecap:butt; stroke-linejoin:round; stroke-width:4; stroke-opacity:1; fill:none" points="
  929.03,995.837 951.792,966.911 974.553,937.985 997.316,901.898 1020.08,860.629 1042.87,815.963 1065.72,769.391 1088.79,721.893 1112.43,673.607 1136.73,624.769 
  1161.08,578.125 1184.81,536.729 1207.93,500.517 1230.79,468.608 1253.58,440.622 1276.35,416.409 1299.12,395.861 1321.87,378.862 1344.63,365.285 1367.35,355.046 
  1389.96,348.231 1412.19,345.397 1433.45,347.764 1453.75,355.266 1474.55,364.342 1496.5,373.636 1519.01,384.491 1541.71,397.944 1564.45,414.468 1587.21,434.304 
  1609.97,457.622 1632.73,484.551 1655.49,515.177 1678.25,549.522 1701.01,583.868 
  "/>
<polyline clip-path="url(#clip582)" style="stroke:#0000ff; stroke-linecap:butt; stroke-linejoin:round; stroke-width:4; stroke-opacity:1; fill:none" points="
  942.266,958.292 965.01,929.399 987.753,900.506 1010.5,864.461 1033.25,823.241 1056.01,778.641 1078.81,732.19 1101.76,685 1125.1,637.539 1148.89,590.267 
  1172.71,545.283 1196.11,504.828 1219.09,468.977 1241.91,437.201 1264.67,409.273 1287.42,385.093 1310.16,364.567 1332.91,347.581 1355.64,334.003 1378.36,323.732 
  1401,316.783 1423.38,313.494 1445.11,314.67 1466.18,320.25 1487.6,327.812 1509.79,336.459 1532.36,347.113 1555.06,360.514 1577.79,377.026 1600.53,396.858 
  1623.28,420.169 1646.02,447.086 1668.76,477.695 1691.51,512.018 1714.25,546.341 
  "/>
<polyline clip-path="url(#clip582)" style="stroke:#0000ff; stroke-linecap:butt; stroke-linejoin:round; stroke-width:4; stroke-opacity:1; fill:none" points="
  956.071,919.135 978.796,890.276 1001.52,861.416 1024.25,825.415 1046.97,784.247 1069.71,739.716 1092.46,693.391 1115.29,646.523 1138.32,599.922 1161.57,554.283 
  1184.84,511.03 1207.89,471.557 1230.74,436.082 1253.5,404.444 1276.24,376.577 1298.96,352.433 1321.69,331.929 1344.41,314.956 1367.13,301.378 1389.84,291.074 
  1412.52,283.984 1435.06,280.221 1457.27,280.156 1479.15,283.73 1501.2,289.714 1523.65,297.684 1546.29,308.129 1568.99,321.477 1591.71,337.976 1614.43,357.802 
  1637.16,381.106 1659.88,408.011 1682.6,438.603 1705.33,472.902 1728.05,507.201 
  "/>
<polyline clip-path="url(#clip582)" style="stroke:#0000ff; stroke-linecap:butt; stroke-linejoin:round; stroke-width:4; stroke-opacity:1; fill:none" points="
  970.172,879.137 992.878,850.312 1015.58,821.487 1038.29,785.53 1060.99,744.416 1083.7,699.955 1106.4,653.759 1129.11,607.219 1151.82,561.496 1174.52,517.525 
  1197.23,476.042 1219.93,437.571 1242.64,402.48 1265.34,370.984 1288.05,343.179 1310.75,319.07 1333.46,298.59 1356.16,281.63 1378.87,268.052 1401.57,257.713 
  1424.28,250.48 1446.98,246.234 1469.69,244.902 1492.4,246.426 1515.1,250.798 1537.81,258.076 1560.51,268.308 1583.22,281.601 1605.92,298.087 1628.63,317.908 
  1651.33,341.204 1674.04,368.098 1696.74,398.671 1719.45,432.946 1742.15,467.221 
  "/>
</svg>
