<?xml version="1.0" encoding="utf-8"?>
<svg xmlns="http://www.w3.org/2000/svg" xmlns:xlink="http://www.w3.org/1999/xlink" width="600" height="400" viewBox="0 0 2400 1600">
<defs>
  <clipPath id="clip310">
    <rect x="0" y="0" width="2400" height="1600"/>
  </clipPath>
</defs>
<path clip-path="url(#clip310)" d="
M0 1600 L2400 1600 L2400 0 L0 0  Z
  " fill="#ffffff" fill-rule="evenodd" fill-opacity="1"/>
<defs>
  <clipPath id="clip311">
    <rect x="480" y="0" width="1681" height="1600"/>
  </clipPath>
</defs>
<defs>
  <clipPath id="clip312">
    <rect x="224" y="47" width="2129" height="1440"/>
  </clipPath>
</defs>
<path clip-path="url(#clip312)" d="
M1562.75 1777.98 L1562.75 1325.4 L1580.9 1068.08 L1683.83 1113.45 L1683.83 1566.03 L1665.68 1823.36 L1562.75 1777.98  Z
  " fill="#ffffff" fill-rule="evenodd" fill-opacity="1"/>
<polyline clip-path="url(#clip312)" style="stroke:#000000; stroke-linecap:butt; stroke-linejoin:round; stroke-width:2; stroke-opacity:0.1; fill:none" points="
  882,1301.73 1026.29,892.579 
  "/>
<polyline clip-path="url(#clip312)" style="stroke:#000000; stroke-linecap:butt; stroke-linejoin:round; stroke-width:2; stroke-opacity:0.1; fill:none" points="
  1026.29,892.579 1026.29,172.977 
  "/>
<polyline clip-path="url(#clip312)" style="stroke:#000000; stroke-linecap:butt; stroke-linejoin:round; stroke-width:2; stroke-opacity:0.1; fill:none" points="
  1036.4,1315.34 1180.69,906.191 
  "/>
<polyline clip-path="url(#clip312)" style="stroke:#000000; stroke-linecap:butt; stroke-linejoin:round; stroke-width:2; stroke-opacity:0.1; fill:none" points="
  1180.69,906.191 1180.69,186.589 
  "/>
<polyline clip-path="url(#clip312)" style="stroke:#000000; stroke-linecap:butt; stroke-linejoin:round; stroke-width:2; stroke-opacity:0.1; fill:none" points="
  1190.79,1328.95 1335.08,919.803 
  "/>
<polyline clip-path="url(#clip312)" style="stroke:#000000; stroke-linecap:butt; stroke-linejoin:round; stroke-width:2; stroke-opacity:0.1; fill:none" points="
  1335.08,919.803 1335.08,200.201 
  "/>
<polyline clip-path="url(#clip312)" style="stroke:#000000; stroke-linecap:butt; stroke-linejoin:round; stroke-width:2; stroke-opacity:0.1; fill:none" points="
  1345.19,1342.57 1489.48,933.415 
  "/>
<polyline clip-path="url(#clip312)" style="stroke:#000000; stroke-linecap:butt; stroke-linejoin:round; stroke-width:2; stroke-opacity:0.1; fill:none" points="
  1489.48,933.415 1489.48,213.813 
  "/>
<polyline clip-path="url(#clip312)" style="stroke:#000000; stroke-linecap:butt; stroke-linejoin:round; stroke-width:2; stroke-opacity:0.1; fill:none" points="
  1499.59,1356.18 1643.87,947.027 
  "/>
<polyline clip-path="url(#clip312)" style="stroke:#000000; stroke-linecap:butt; stroke-linejoin:round; stroke-width:2; stroke-opacity:0.1; fill:none" points="
  1643.87,947.027 1643.87,227.425 
  "/>
<polyline clip-path="url(#clip310)" style="stroke:#000000; stroke-linecap:butt; stroke-linejoin:round; stroke-width:4; stroke-opacity:1; fill:none" points="
  807.375,1295.15 1625.68,1367.29 
  "/>
<polyline clip-path="url(#clip310)" style="stroke:#000000; stroke-linecap:butt; stroke-linejoin:round; stroke-width:4; stroke-opacity:1; fill:none" points="
  882,1301.73 883.732,1296.82 
  "/>
<polyline clip-path="url(#clip310)" style="stroke:#000000; stroke-linecap:butt; stroke-linejoin:round; stroke-width:4; stroke-opacity:1; fill:none" points="
  1036.4,1315.34 1038.13,1310.43 
  "/>
<polyline clip-path="url(#clip310)" style="stroke:#000000; stroke-linecap:butt; stroke-linejoin:round; stroke-width:4; stroke-opacity:1; fill:none" points="
  1190.79,1328.95 1192.52,1324.04 
  "/>
<polyline clip-path="url(#clip310)" style="stroke:#000000; stroke-linecap:butt; stroke-linejoin:round; stroke-width:4; stroke-opacity:1; fill:none" points="
  1345.19,1342.57 1346.92,1337.66 
  "/>
<polyline clip-path="url(#clip310)" style="stroke:#000000; stroke-linecap:butt; stroke-linejoin:round; stroke-width:4; stroke-opacity:1; fill:none" points="
  1499.59,1356.18 1501.32,1351.27 
  "/>
<path clip-path="url(#clip310)" d="M808.856 1328.53 L838.531 1328.53 L838.531 1332.47 L808.856 1332.47 L808.856 1328.53 Z" fill="#000000" fill-rule="evenodd" fill-opacity="1" /><path clip-path="url(#clip310)" d="M848.763 1344.64 L848.763 1340.39 Q850.522 1341.22 852.328 1341.66 Q854.133 1342.1 855.869 1342.1 Q860.499 1342.1 862.929 1339 Q865.383 1335.87 865.73 1329.53 Q864.388 1331.52 862.328 1332.58 Q860.267 1333.65 857.767 1333.65 Q852.582 1333.65 849.55 1330.52 Q846.541 1327.38 846.541 1321.94 Q846.541 1316.61 849.689 1313.39 Q852.837 1310.18 858.068 1310.18 Q864.064 1310.18 867.212 1314.78 Q870.383 1319.37 870.383 1328.12 Q870.383 1336.29 866.494 1341.17 Q862.629 1346.03 856.078 1346.03 Q854.318 1346.03 852.513 1345.69 Q850.707 1345.34 848.763 1344.64 M858.068 1329.99 Q861.217 1329.99 863.045 1327.84 Q864.897 1325.69 864.897 1321.94 Q864.897 1318.21 863.045 1316.06 Q861.217 1313.88 858.068 1313.88 Q854.92 1313.88 853.068 1316.06 Q851.24 1318.21 851.24 1321.94 Q851.24 1325.69 853.068 1327.84 Q854.92 1329.99 858.068 1329.99 Z" fill="#000000" fill-rule="evenodd" fill-opacity="1" /><path clip-path="url(#clip310)" d="M962.905 1342.15 L992.581 1342.15 L992.581 1346.08 L962.905 1346.08 L962.905 1342.15 Z" fill="#000000" fill-rule="evenodd" fill-opacity="1" /><path clip-path="url(#clip310)" d="M1013.25 1339.83 Q1010.1 1339.83 1008.25 1341.98 Q1006.42 1344.14 1006.42 1347.89 Q1006.42 1351.61 1008.25 1353.79 Q1010.1 1355.94 1013.25 1355.94 Q1016.4 1355.94 1018.23 1353.79 Q1020.08 1351.61 1020.08 1347.89 Q1020.08 1344.14 1018.23 1341.98 Q1016.4 1339.83 1013.25 1339.83 M1022.53 1325.18 L1022.53 1329.44 Q1020.77 1328.6 1018.97 1328.16 Q1017.19 1327.72 1015.43 1327.72 Q1010.8 1327.72 1008.34 1330.85 Q1005.91 1333.97 1005.57 1340.29 Q1006.93 1338.28 1008.99 1337.22 Q1011.05 1336.13 1013.53 1336.13 Q1018.74 1336.13 1021.75 1339.3 Q1024.78 1342.45 1024.78 1347.89 Q1024.78 1353.21 1021.63 1356.43 Q1018.48 1359.65 1013.25 1359.65 Q1007.26 1359.65 1004.09 1355.06 Q1000.91 1350.46 1000.91 1341.73 Q1000.91 1333.53 1004.8 1328.67 Q1008.69 1323.79 1015.24 1323.79 Q1017 1323.79 1018.78 1324.14 Q1020.59 1324.48 1022.53 1325.18 Z" fill="#000000" fill-rule="evenodd" fill-opacity="1" /><path clip-path="url(#clip310)" d="M1118.11 1355.76 L1147.79 1355.76 L1147.79 1359.69 L1118.11 1359.69 L1118.11 1355.76 Z" fill="#000000" fill-rule="evenodd" fill-opacity="1" /><path clip-path="url(#clip310)" d="M1172.05 1353.95 Q1175.4 1354.67 1177.28 1356.94 Q1179.18 1359.21 1179.18 1362.54 Q1179.18 1367.66 1175.66 1370.46 Q1172.14 1373.26 1165.66 1373.26 Q1163.48 1373.26 1161.17 1372.82 Q1158.88 1372.4 1156.42 1371.54 L1156.42 1367.03 Q1158.37 1368.17 1160.68 1368.74 Q1163 1369.32 1165.52 1369.32 Q1169.92 1369.32 1172.21 1367.59 Q1174.52 1365.85 1174.52 1362.54 Q1174.52 1359.48 1172.37 1357.77 Q1170.24 1356.04 1166.42 1356.04 L1162.39 1356.04 L1162.39 1352.19 L1166.61 1352.19 Q1170.06 1352.19 1171.88 1350.83 Q1173.71 1349.44 1173.71 1346.85 Q1173.71 1344.18 1171.81 1342.77 Q1169.94 1341.34 1166.42 1341.34 Q1164.5 1341.34 1162.3 1341.75 Q1160.1 1342.17 1157.46 1343.05 L1157.46 1338.88 Q1160.13 1338.14 1162.44 1337.77 Q1164.78 1337.4 1166.84 1337.4 Q1172.16 1337.4 1175.26 1339.83 Q1178.37 1342.24 1178.37 1346.36 Q1178.37 1349.23 1176.72 1351.22 Q1175.08 1353.19 1172.05 1353.95 Z" fill="#000000" fill-rule="evenodd" fill-opacity="1" /><path clip-path="url(#clip310)" d="M1321.63 1354.72 Q1318.02 1354.72 1316.19 1358.28 Q1314.38 1361.82 1314.38 1368.95 Q1314.38 1376.06 1316.19 1379.62 Q1318.02 1383.17 1321.63 1383.17 Q1325.26 1383.17 1327.07 1379.62 Q1328.9 1376.06 1328.9 1368.95 Q1328.9 1361.82 1327.07 1358.28 Q1325.26 1354.72 1321.63 1354.72 M1321.63 1351.01 Q1327.44 1351.01 1330.49 1355.62 Q1333.57 1360.2 1333.57 1368.95 Q1333.57 1377.68 1330.49 1382.29 Q1327.44 1386.87 1321.63 1386.87 Q1315.82 1386.87 1312.74 1382.29 Q1309.68 1377.68 1309.68 1368.95 Q1309.68 1360.2 1312.74 1355.62 Q1315.82 1351.01 1321.63 1351.01 Z" fill="#000000" fill-rule="evenodd" fill-opacity="1" /><path clip-path="url(#clip310)" d="M1480.84 1381.18 Q1484.2 1381.89 1486.07 1384.16 Q1487.97 1386.43 1487.97 1389.76 Q1487.97 1394.88 1484.45 1397.68 Q1480.93 1400.48 1474.45 1400.48 Q1472.27 1400.48 1469.96 1400.04 Q1467.67 1399.63 1465.21 1398.77 L1465.21 1394.26 Q1467.16 1395.39 1469.47 1395.97 Q1471.79 1396.55 1474.31 1396.55 Q1478.71 1396.55 1481 1394.81 Q1483.32 1393.07 1483.32 1389.76 Q1483.32 1386.71 1481.16 1385 Q1479.03 1383.26 1475.21 1383.26 L1471.19 1383.26 L1471.19 1379.42 L1475.4 1379.42 Q1478.85 1379.42 1480.68 1378.05 Q1482.51 1376.66 1482.51 1374.07 Q1482.51 1371.41 1480.61 1370 Q1478.73 1368.56 1475.21 1368.56 Q1473.29 1368.56 1471.09 1368.98 Q1468.89 1369.39 1466.26 1370.27 L1466.26 1366.11 Q1468.92 1365.37 1471.23 1365 Q1473.57 1364.63 1475.63 1364.63 Q1480.96 1364.63 1484.06 1367.06 Q1487.16 1369.46 1487.16 1373.58 Q1487.16 1376.45 1485.52 1378.45 Q1483.87 1380.41 1480.84 1381.18 Z" fill="#000000" fill-rule="evenodd" fill-opacity="1" /><polyline clip-path="url(#clip312)" style="stroke:#000000; stroke-linecap:butt; stroke-linejoin:round; stroke-width:2; stroke-opacity:0.1; fill:none" points="
  1629.76,1355.71 811.459,1283.57 
  "/>
<polyline clip-path="url(#clip312)" style="stroke:#000000; stroke-linecap:butt; stroke-linejoin:round; stroke-width:2; stroke-opacity:0.1; fill:none" points="
  811.459,1283.57 811.459,563.968 
  "/>
<polyline clip-path="url(#clip312)" style="stroke:#000000; stroke-linecap:butt; stroke-linejoin:round; stroke-width:2; stroke-opacity:0.1; fill:none" points="
  1675.13,1227.05 856.833,1154.91 
  "/>
<polyline clip-path="url(#clip312)" style="stroke:#000000; stroke-linecap:butt; stroke-linejoin:round; stroke-width:2; stroke-opacity:0.1; fill:none" points="
  856.833,1154.91 856.833,435.305 
  "/>
<polyline clip-path="url(#clip312)" style="stroke:#000000; stroke-linecap:butt; stroke-linejoin:round; stroke-width:2; stroke-opacity:0.1; fill:none" points="
  1720.51,1098.39 902.206,1026.24 
  "/>
<polyline clip-path="url(#clip312)" style="stroke:#000000; stroke-linecap:butt; stroke-linejoin:round; stroke-width:2; stroke-opacity:0.1; fill:none" points="
  902.206,1026.24 902.206,306.641 
  "/>
<polyline clip-path="url(#clip312)" style="stroke:#000000; stroke-linecap:butt; stroke-linejoin:round; stroke-width:2; stroke-opacity:0.1; fill:none" points="
  1765.88,969.724 947.58,897.579 
  "/>
<polyline clip-path="url(#clip312)" style="stroke:#000000; stroke-linecap:butt; stroke-linejoin:round; stroke-width:2; stroke-opacity:0.1; fill:none" points="
  947.58,897.579 947.58,177.977 
  "/>
<polyline clip-path="url(#clip310)" style="stroke:#000000; stroke-linecap:butt; stroke-linejoin:round; stroke-width:4; stroke-opacity:1; fill:none" points="
  1625.68,1367.29 1769.96,958.144 
  "/>
<polyline clip-path="url(#clip310)" style="stroke:#000000; stroke-linecap:butt; stroke-linejoin:round; stroke-width:4; stroke-opacity:1; fill:none" points="
  1629.76,1355.71 1619.94,1354.85 
  "/>
<polyline clip-path="url(#clip310)" style="stroke:#000000; stroke-linecap:butt; stroke-linejoin:round; stroke-width:4; stroke-opacity:1; fill:none" points="
  1675.13,1227.05 1665.31,1226.19 
  "/>
<polyline clip-path="url(#clip310)" style="stroke:#000000; stroke-linecap:butt; stroke-linejoin:round; stroke-width:4; stroke-opacity:1; fill:none" points="
  1720.51,1098.39 1710.69,1097.52 
  "/>
<polyline clip-path="url(#clip310)" style="stroke:#000000; stroke-linecap:butt; stroke-linejoin:round; stroke-width:4; stroke-opacity:1; fill:none" points="
  1765.88,969.724 1756.06,968.858 
  "/>
<path clip-path="url(#clip310)" d="M1670.43 1343.54 Q1666.82 1343.54 1664.99 1347.1 Q1663.19 1350.65 1663.19 1357.78 Q1663.19 1364.88 1664.99 1368.45 Q1666.82 1371.99 1670.43 1371.99 Q1674.07 1371.99 1675.87 1368.45 Q1677.7 1364.88 1677.7 1357.78 Q1677.7 1350.65 1675.87 1347.1 Q1674.07 1343.54 1670.43 1343.54 M1670.43 1339.84 Q1676.24 1339.84 1679.3 1344.44 Q1682.38 1349.03 1682.38 1357.78 Q1682.38 1366.5 1679.3 1371.11 Q1676.24 1375.69 1670.43 1375.69 Q1664.62 1375.69 1661.54 1371.11 Q1658.49 1366.5 1658.49 1357.78 Q1658.49 1349.03 1661.54 1344.44 Q1664.62 1339.84 1670.43 1339.84 Z" fill="#000000" fill-rule="evenodd" fill-opacity="1" /><path clip-path="url(#clip310)" d="M1704.53 1242.42 L1712.17 1242.42 L1712.17 1216.06 L1703.86 1217.72 L1703.86 1213.46 L1712.13 1211.8 L1716.8 1211.8 L1716.8 1242.42 L1724.44 1242.42 L1724.44 1246.36 L1704.53 1246.36 L1704.53 1242.42 Z" fill="#000000" fill-rule="evenodd" fill-opacity="1" /><path clip-path="url(#clip310)" d="M1754.86 1113.76 L1771.18 1113.76 L1771.18 1117.69 L1749.24 1117.69 L1749.24 1113.76 Q1751.9 1111 1756.48 1106.37 Q1761.09 1101.72 1762.27 1100.38 Q1764.51 1097.86 1765.39 1096.12 Q1766.3 1094.36 1766.3 1092.67 Q1766.3 1089.92 1764.35 1088.18 Q1762.43 1086.44 1759.33 1086.44 Q1757.13 1086.44 1754.68 1087.21 Q1752.25 1087.97 1749.47 1089.52 L1749.47 1084.8 Q1752.29 1083.67 1754.75 1083.09 Q1757.2 1082.51 1759.24 1082.51 Q1764.61 1082.51 1767.8 1085.19 Q1771 1087.88 1771 1092.37 Q1771 1094.5 1770.18 1096.42 Q1769.4 1098.32 1767.29 1100.91 Q1766.71 1101.58 1763.61 1104.8 Q1760.51 1107.99 1754.86 1113.76 Z" fill="#000000" fill-rule="evenodd" fill-opacity="1" /><path clip-path="url(#clip310)" d="M1810.23 970.396 Q1813.59 971.113 1815.47 973.382 Q1817.36 975.65 1817.36 978.984 Q1817.36 984.099 1813.85 986.9 Q1810.33 989.701 1803.85 989.701 Q1801.67 989.701 1799.36 989.261 Q1797.06 988.845 1794.61 987.988 L1794.61 983.474 Q1796.55 984.609 1798.87 985.187 Q1801.18 985.766 1803.71 985.766 Q1808.11 985.766 1810.4 984.03 Q1812.71 982.294 1812.71 978.984 Q1812.71 975.928 1810.56 974.215 Q1808.43 972.479 1804.61 972.479 L1800.58 972.479 L1800.58 968.636 L1804.79 968.636 Q1808.24 968.636 1810.07 967.271 Q1811.9 965.882 1811.9 963.289 Q1811.9 960.627 1810 959.215 Q1808.13 957.78 1804.61 957.78 Q1802.69 957.78 1800.49 958.197 Q1798.29 958.613 1795.65 959.493 L1795.65 955.326 Q1798.31 954.586 1800.63 954.215 Q1802.97 953.845 1805.03 953.845 Q1810.35 953.845 1813.45 956.275 Q1816.55 958.683 1816.55 962.803 Q1816.55 965.673 1814.91 967.664 Q1813.27 969.632 1810.23 970.396 Z" fill="#000000" fill-rule="evenodd" fill-opacity="1" /><polyline clip-path="url(#clip312)" style="stroke:#000000; stroke-linecap:butt; stroke-linejoin:round; stroke-width:2; stroke-opacity:0.1; fill:none" points="
  807.375,1211.89 951.664,802.74 
  "/>
<polyline clip-path="url(#clip312)" style="stroke:#000000; stroke-linecap:butt; stroke-linejoin:round; stroke-width:2; stroke-opacity:0.1; fill:none" points="
  951.664,802.74 1769.96,874.885 
  "/>
<polyline clip-path="url(#clip312)" style="stroke:#000000; stroke-linecap:butt; stroke-linejoin:round; stroke-width:2; stroke-opacity:0.1; fill:none" points="
  807.375,1119.68 951.664,710.527 
  "/>
<polyline clip-path="url(#clip312)" style="stroke:#000000; stroke-linecap:butt; stroke-linejoin:round; stroke-width:2; stroke-opacity:0.1; fill:none" points="
  951.664,710.527 1769.96,782.671 
  "/>
<polyline clip-path="url(#clip312)" style="stroke:#000000; stroke-linecap:butt; stroke-linejoin:round; stroke-width:2; stroke-opacity:0.1; fill:none" points="
  807.375,1027.46 951.664,618.314 
  "/>
<polyline clip-path="url(#clip312)" style="stroke:#000000; stroke-linecap:butt; stroke-linejoin:round; stroke-width:2; stroke-opacity:0.1; fill:none" points="
  951.664,618.314 1769.96,690.458 
  "/>
<polyline clip-path="url(#clip312)" style="stroke:#000000; stroke-linecap:butt; stroke-linejoin:round; stroke-width:2; stroke-opacity:0.1; fill:none" points="
  807.375,935.251 951.664,526.101 
  "/>
<polyline clip-path="url(#clip312)" style="stroke:#000000; stroke-linecap:butt; stroke-linejoin:round; stroke-width:2; stroke-opacity:0.1; fill:none" points="
  951.664,526.101 1769.96,598.245 
  "/>
<polyline clip-path="url(#clip312)" style="stroke:#000000; stroke-linecap:butt; stroke-linejoin:round; stroke-width:2; stroke-opacity:0.1; fill:none" points="
  807.375,843.038 951.664,433.888 
  "/>
<polyline clip-path="url(#clip312)" style="stroke:#000000; stroke-linecap:butt; stroke-linejoin:round; stroke-width:2; stroke-opacity:0.1; fill:none" points="
  951.664,433.888 1769.96,506.032 
  "/>
<polyline clip-path="url(#clip312)" style="stroke:#000000; stroke-linecap:butt; stroke-linejoin:round; stroke-width:2; stroke-opacity:0.1; fill:none" points="
  807.375,750.825 951.664,341.674 
  "/>
<polyline clip-path="url(#clip312)" style="stroke:#000000; stroke-linecap:butt; stroke-linejoin:round; stroke-width:2; stroke-opacity:0.1; fill:none" points="
  951.664,341.674 1769.96,413.819 
  "/>
<polyline clip-path="url(#clip312)" style="stroke:#000000; stroke-linecap:butt; stroke-linejoin:round; stroke-width:2; stroke-opacity:0.1; fill:none" points="
  807.375,658.612 951.664,249.461 
  "/>
<polyline clip-path="url(#clip312)" style="stroke:#000000; stroke-linecap:butt; stroke-linejoin:round; stroke-width:2; stroke-opacity:0.1; fill:none" points="
  951.664,249.461 1769.96,321.605 
  "/>
<polyline clip-path="url(#clip310)" style="stroke:#000000; stroke-linecap:butt; stroke-linejoin:round; stroke-width:4; stroke-opacity:1; fill:none" points="
  807.375,1295.15 807.375,575.548 
  "/>
<polyline clip-path="url(#clip310)" style="stroke:#000000; stroke-linecap:butt; stroke-linejoin:round; stroke-width:4; stroke-opacity:1; fill:none" points="
  807.375,1211.89 809.107,1206.98 
  "/>
<polyline clip-path="url(#clip310)" style="stroke:#000000; stroke-linecap:butt; stroke-linejoin:round; stroke-width:4; stroke-opacity:1; fill:none" points="
  807.375,1119.68 809.107,1114.77 
  "/>
<polyline clip-path="url(#clip310)" style="stroke:#000000; stroke-linecap:butt; stroke-linejoin:round; stroke-width:4; stroke-opacity:1; fill:none" points="
  807.375,1027.46 809.107,1022.55 
  "/>
<polyline clip-path="url(#clip310)" style="stroke:#000000; stroke-linecap:butt; stroke-linejoin:round; stroke-width:4; stroke-opacity:1; fill:none" points="
  807.375,935.251 809.107,930.341 
  "/>
<polyline clip-path="url(#clip310)" style="stroke:#000000; stroke-linecap:butt; stroke-linejoin:round; stroke-width:4; stroke-opacity:1; fill:none" points="
  807.375,843.038 809.107,838.128 
  "/>
<polyline clip-path="url(#clip310)" style="stroke:#000000; stroke-linecap:butt; stroke-linejoin:round; stroke-width:4; stroke-opacity:1; fill:none" points="
  807.375,750.825 809.107,745.915 
  "/>
<polyline clip-path="url(#clip310)" style="stroke:#000000; stroke-linecap:butt; stroke-linejoin:round; stroke-width:4; stroke-opacity:1; fill:none" points="
  807.375,658.612 809.107,653.702 
  "/>
<path clip-path="url(#clip310)" d="M641.307 1212.34 L670.983 1212.34 L670.983 1216.28 L641.307 1216.28 L641.307 1212.34 Z" fill="#000000" fill-rule="evenodd" fill-opacity="1" /><path clip-path="url(#clip310)" d="M691.076 1197.69 Q687.465 1197.69 685.636 1201.25 Q683.83 1204.8 683.83 1211.93 Q683.83 1219.03 685.636 1222.6 Q687.465 1226.14 691.076 1226.14 Q694.71 1226.14 696.515 1222.6 Q698.344 1219.03 698.344 1211.93 Q698.344 1204.8 696.515 1201.25 Q694.71 1197.69 691.076 1197.69 M691.076 1193.99 Q696.886 1193.99 699.941 1198.59 Q703.02 1203.18 703.02 1211.93 Q703.02 1220.65 699.941 1225.26 Q696.886 1229.84 691.076 1229.84 Q685.265 1229.84 682.187 1225.26 Q679.131 1220.65 679.131 1211.93 Q679.131 1203.18 682.187 1198.59 Q685.265 1193.99 691.076 1193.99 Z" fill="#000000" fill-rule="evenodd" fill-opacity="1" /><path clip-path="url(#clip310)" d="M711.238 1223.29 L716.122 1223.29 L716.122 1229.17 L711.238 1229.17 L711.238 1223.29 Z" fill="#000000" fill-rule="evenodd" fill-opacity="1" /><path clip-path="url(#clip310)" d="M736.307 1197.69 Q732.696 1197.69 730.867 1201.25 Q729.062 1204.8 729.062 1211.93 Q729.062 1219.03 730.867 1222.6 Q732.696 1226.14 736.307 1226.14 Q739.941 1226.14 741.747 1222.6 Q743.575 1219.03 743.575 1211.93 Q743.575 1204.8 741.747 1201.25 Q739.941 1197.69 736.307 1197.69 M736.307 1193.99 Q742.117 1193.99 745.173 1198.59 Q748.251 1203.18 748.251 1211.93 Q748.251 1220.65 745.173 1225.26 Q742.117 1229.84 736.307 1229.84 Q730.497 1229.84 727.418 1225.26 Q724.362 1220.65 724.362 1211.93 Q724.362 1203.18 727.418 1198.59 Q730.497 1193.99 736.307 1193.99 Z" fill="#000000" fill-rule="evenodd" fill-opacity="1" /><path clip-path="url(#clip310)" d="M767.047 1210.03 Q763.899 1210.03 762.047 1212.18 Q760.219 1214.33 760.219 1218.08 Q760.219 1221.81 762.047 1223.99 Q763.899 1226.14 767.047 1226.14 Q770.196 1226.14 772.024 1223.99 Q773.876 1221.81 773.876 1218.08 Q773.876 1214.33 772.024 1212.18 Q770.196 1210.03 767.047 1210.03 M776.33 1195.37 L776.33 1199.63 Q774.571 1198.8 772.765 1198.36 Q770.983 1197.92 769.223 1197.92 Q764.594 1197.92 762.14 1201.05 Q759.709 1204.17 759.362 1210.49 Q760.728 1208.48 762.788 1207.41 Q764.848 1206.32 767.325 1206.32 Q772.533 1206.32 775.543 1209.49 Q778.575 1212.64 778.575 1218.08 Q778.575 1223.41 775.427 1226.62 Q772.279 1229.84 767.047 1229.84 Q761.052 1229.84 757.881 1225.26 Q754.71 1220.65 754.71 1211.93 Q754.71 1203.73 758.598 1198.87 Q762.487 1193.99 769.038 1193.99 Q770.797 1193.99 772.58 1194.33 Q774.385 1194.68 776.33 1195.37 Z" fill="#000000" fill-rule="evenodd" fill-opacity="1" /><path clip-path="url(#clip310)" d="M640.983 1120.13 L670.659 1120.13 L670.659 1124.06 L640.983 1124.06 L640.983 1120.13 Z" fill="#000000" fill-rule="evenodd" fill-opacity="1" /><path clip-path="url(#clip310)" d="M690.752 1105.48 Q687.14 1105.48 685.312 1109.04 Q683.506 1112.58 683.506 1119.71 Q683.506 1126.82 685.312 1130.38 Q687.14 1133.93 690.752 1133.93 Q694.386 1133.93 696.191 1130.38 Q698.02 1126.82 698.02 1119.71 Q698.02 1112.58 696.191 1109.04 Q694.386 1105.48 690.752 1105.48 M690.752 1101.77 Q696.562 1101.77 699.617 1106.38 Q702.696 1110.96 702.696 1119.71 Q702.696 1128.44 699.617 1133.05 Q696.562 1137.63 690.752 1137.63 Q684.941 1137.63 681.863 1133.05 Q678.807 1128.44 678.807 1119.71 Q678.807 1110.96 681.863 1106.38 Q684.941 1101.77 690.752 1101.77 Z" fill="#000000" fill-rule="evenodd" fill-opacity="1" /><path clip-path="url(#clip310)" d="M710.913 1131.08 L715.798 1131.08 L715.798 1136.96 L710.913 1136.96 L710.913 1131.08 Z" fill="#000000" fill-rule="evenodd" fill-opacity="1" /><path clip-path="url(#clip310)" d="M735.983 1105.48 Q732.372 1105.48 730.543 1109.04 Q728.737 1112.58 728.737 1119.71 Q728.737 1126.82 730.543 1130.38 Q732.372 1133.93 735.983 1133.93 Q739.617 1133.93 741.423 1130.38 Q743.251 1126.82 743.251 1119.71 Q743.251 1112.58 741.423 1109.04 Q739.617 1105.48 735.983 1105.48 M735.983 1101.77 Q741.793 1101.77 744.848 1106.38 Q747.927 1110.96 747.927 1119.71 Q747.927 1128.44 744.848 1133.05 Q741.793 1137.63 735.983 1137.63 Q730.173 1137.63 727.094 1133.05 Q724.038 1128.44 724.038 1119.71 Q724.038 1110.96 727.094 1106.38 Q730.173 1101.77 735.983 1101.77 Z" fill="#000000" fill-rule="evenodd" fill-opacity="1" /><path clip-path="url(#clip310)" d="M768.992 1106.47 L757.186 1124.92 L768.992 1124.92 L768.992 1106.47 M767.765 1102.4 L773.645 1102.4 L773.645 1124.92 L778.575 1124.92 L778.575 1128.81 L773.645 1128.81 L773.645 1136.96 L768.992 1136.96 L768.992 1128.81 L753.39 1128.81 L753.39 1124.3 L767.765 1102.4 Z" fill="#000000" fill-rule="evenodd" fill-opacity="1" /><path clip-path="url(#clip310)" d="M643.067 1027.92 L672.742 1027.92 L672.742 1031.85 L643.067 1031.85 L643.067 1027.92 Z" fill="#000000" fill-rule="evenodd" fill-opacity="1" /><path clip-path="url(#clip310)" d="M692.835 1013.26 Q689.224 1013.26 687.395 1016.83 Q685.59 1020.37 685.59 1027.5 Q685.59 1034.61 687.395 1038.17 Q689.224 1041.71 692.835 1041.71 Q696.469 1041.71 698.275 1038.17 Q700.103 1034.61 700.103 1027.5 Q700.103 1020.37 698.275 1016.83 Q696.469 1013.26 692.835 1013.26 M692.835 1009.56 Q698.645 1009.56 701.701 1014.17 Q704.779 1018.75 704.779 1027.5 Q704.779 1036.23 701.701 1040.83 Q698.645 1045.42 692.835 1045.42 Q687.025 1045.42 683.946 1040.83 Q680.89 1036.23 680.89 1027.5 Q680.89 1018.75 683.946 1014.17 Q687.025 1009.56 692.835 1009.56 Z" fill="#000000" fill-rule="evenodd" fill-opacity="1" /><path clip-path="url(#clip310)" d="M712.997 1038.86 L717.881 1038.86 L717.881 1044.74 L712.997 1044.74 L712.997 1038.86 Z" fill="#000000" fill-rule="evenodd" fill-opacity="1" /><path clip-path="url(#clip310)" d="M738.066 1013.26 Q734.455 1013.26 732.626 1016.83 Q730.821 1020.37 730.821 1027.5 Q730.821 1034.61 732.626 1038.17 Q734.455 1041.71 738.066 1041.71 Q741.7 1041.71 743.506 1038.17 Q745.335 1034.61 745.335 1027.5 Q745.335 1020.37 743.506 1016.83 Q741.7 1013.26 738.066 1013.26 M738.066 1009.56 Q743.876 1009.56 746.932 1014.17 Q750.01 1018.75 750.01 1027.5 Q750.01 1036.23 746.932 1040.83 Q743.876 1045.42 738.066 1045.42 Q732.256 1045.42 729.177 1040.83 Q726.122 1036.23 726.122 1027.5 Q726.122 1018.75 729.177 1014.17 Q732.256 1009.56 738.066 1009.56 Z" fill="#000000" fill-rule="evenodd" fill-opacity="1" /><path clip-path="url(#clip310)" d="M762.256 1040.81 L778.575 1040.81 L778.575 1044.74 L756.631 1044.74 L756.631 1040.81 Q759.293 1038.05 763.876 1033.43 Q768.483 1028.77 769.663 1027.43 Q771.908 1024.91 772.788 1023.17 Q773.691 1021.41 773.691 1019.72 Q773.691 1016.97 771.746 1015.23 Q769.825 1013.49 766.723 1013.49 Q764.524 1013.49 762.071 1014.26 Q759.64 1015.02 756.862 1016.57 L756.862 1011.85 Q759.686 1010.72 762.14 1010.14 Q764.594 1009.56 766.631 1009.56 Q772.001 1009.56 775.196 1012.24 Q778.39 1014.93 778.39 1019.42 Q778.39 1021.55 777.58 1023.47 Q776.793 1025.37 774.686 1027.96 Q774.108 1028.63 771.006 1031.85 Q767.904 1035.05 762.256 1040.81 Z" fill="#000000" fill-rule="evenodd" fill-opacity="1" /><path clip-path="url(#clip310)" d="M691.238 921.05 Q687.627 921.05 685.798 924.615 Q683.992 928.156 683.992 935.286 Q683.992 942.392 685.798 945.957 Q687.627 949.499 691.238 949.499 Q694.872 949.499 696.677 945.957 Q698.506 942.392 698.506 935.286 Q698.506 928.156 696.677 924.615 Q694.872 921.05 691.238 921.05 M691.238 917.346 Q697.048 917.346 700.103 921.953 Q703.182 926.536 703.182 935.286 Q703.182 944.013 700.103 948.619 Q697.048 953.203 691.238 953.203 Q685.427 953.203 682.349 948.619 Q679.293 944.013 679.293 935.286 Q679.293 926.536 682.349 921.953 Q685.427 917.346 691.238 917.346 Z" fill="#000000" fill-rule="evenodd" fill-opacity="1" /><path clip-path="url(#clip310)" d="M711.4 946.652 L716.284 946.652 L716.284 952.531 L711.4 952.531 L711.4 946.652 Z" fill="#000000" fill-rule="evenodd" fill-opacity="1" /><path clip-path="url(#clip310)" d="M736.469 921.05 Q732.858 921.05 731.029 924.615 Q729.224 928.156 729.224 935.286 Q729.224 942.392 731.029 945.957 Q732.858 949.499 736.469 949.499 Q740.103 949.499 741.909 945.957 Q743.737 942.392 743.737 935.286 Q743.737 928.156 741.909 924.615 Q740.103 921.05 736.469 921.05 M736.469 917.346 Q742.279 917.346 745.335 921.953 Q748.413 926.536 748.413 935.286 Q748.413 944.013 745.335 948.619 Q742.279 953.203 736.469 953.203 Q730.659 953.203 727.58 948.619 Q724.524 944.013 724.524 935.286 Q724.524 926.536 727.58 921.953 Q730.659 917.346 736.469 917.346 Z" fill="#000000" fill-rule="evenodd" fill-opacity="1" /><path clip-path="url(#clip310)" d="M766.631 921.05 Q763.02 921.05 761.191 924.615 Q759.385 928.156 759.385 935.286 Q759.385 942.392 761.191 945.957 Q763.02 949.499 766.631 949.499 Q770.265 949.499 772.071 945.957 Q773.899 942.392 773.899 935.286 Q773.899 928.156 772.071 924.615 Q770.265 921.05 766.631 921.05 M766.631 917.346 Q772.441 917.346 775.496 921.953 Q778.575 926.536 778.575 935.286 Q778.575 944.013 775.496 948.619 Q772.441 953.203 766.631 953.203 Q760.821 953.203 757.742 948.619 Q754.686 944.013 754.686 935.286 Q754.686 926.536 757.742 921.953 Q760.821 917.346 766.631 917.346 Z" fill="#000000" fill-rule="evenodd" fill-opacity="1" /><path clip-path="url(#clip310)" d="M692.835 828.837 Q689.224 828.837 687.395 832.402 Q685.59 835.943 685.59 843.073 Q685.59 850.179 687.395 853.744 Q689.224 857.286 692.835 857.286 Q696.469 857.286 698.275 853.744 Q700.103 850.179 700.103 843.073 Q700.103 835.943 698.275 832.402 Q696.469 828.837 692.835 828.837 M692.835 825.133 Q698.645 825.133 701.701 829.74 Q704.779 834.323 704.779 843.073 Q704.779 851.8 701.701 856.406 Q698.645 860.989 692.835 860.989 Q687.025 860.989 683.946 856.406 Q680.89 851.8 680.89 843.073 Q680.89 834.323 683.946 829.74 Q687.025 825.133 692.835 825.133 Z" fill="#000000" fill-rule="evenodd" fill-opacity="1" /><path clip-path="url(#clip310)" d="M712.997 854.439 L717.881 854.439 L717.881 860.318 L712.997 860.318 L712.997 854.439 Z" fill="#000000" fill-rule="evenodd" fill-opacity="1" /><path clip-path="url(#clip310)" d="M738.066 828.837 Q734.455 828.837 732.626 832.402 Q730.821 835.943 730.821 843.073 Q730.821 850.179 732.626 853.744 Q734.455 857.286 738.066 857.286 Q741.7 857.286 743.506 853.744 Q745.335 850.179 745.335 843.073 Q745.335 835.943 743.506 832.402 Q741.7 828.837 738.066 828.837 M738.066 825.133 Q743.876 825.133 746.932 829.74 Q750.01 834.323 750.01 843.073 Q750.01 851.8 746.932 856.406 Q743.876 860.989 738.066 860.989 Q732.256 860.989 729.177 856.406 Q726.122 851.8 726.122 843.073 Q726.122 834.323 729.177 829.74 Q732.256 825.133 738.066 825.133 Z" fill="#000000" fill-rule="evenodd" fill-opacity="1" /><path clip-path="url(#clip310)" d="M762.256 856.383 L778.575 856.383 L778.575 860.318 L756.631 860.318 L756.631 856.383 Q759.293 853.628 763.876 848.999 Q768.483 844.346 769.663 843.003 Q771.908 840.48 772.788 838.744 Q773.691 836.985 773.691 835.295 Q773.691 832.54 771.746 830.804 Q769.825 829.068 766.723 829.068 Q764.524 829.068 762.071 829.832 Q759.64 830.596 756.862 832.147 L756.862 827.425 Q759.686 826.291 762.14 825.712 Q764.594 825.133 766.631 825.133 Q772.001 825.133 775.196 827.818 Q778.39 830.503 778.39 834.994 Q778.39 837.124 777.58 839.045 Q776.793 840.943 774.686 843.536 Q774.108 844.207 771.006 847.425 Q767.904 850.619 762.256 856.383 Z" fill="#000000" fill-rule="evenodd" fill-opacity="1" /><path clip-path="url(#clip310)" d="M690.752 736.624 Q687.14 736.624 685.312 740.188 Q683.506 743.73 683.506 750.86 Q683.506 757.966 685.312 761.531 Q687.14 765.073 690.752 765.073 Q694.386 765.073 696.191 761.531 Q698.02 757.966 698.02 750.86 Q698.02 743.73 696.191 740.188 Q694.386 736.624 690.752 736.624 M690.752 732.92 Q696.562 732.92 699.617 737.526 Q702.696 742.11 702.696 750.86 Q702.696 759.586 699.617 764.193 Q696.562 768.776 690.752 768.776 Q684.941 768.776 681.863 764.193 Q678.807 759.586 678.807 750.86 Q678.807 742.11 681.863 737.526 Q684.941 732.92 690.752 732.92 Z" fill="#000000" fill-rule="evenodd" fill-opacity="1" /><path clip-path="url(#clip310)" d="M710.913 762.225 L715.798 762.225 L715.798 768.105 L710.913 768.105 L710.913 762.225 Z" fill="#000000" fill-rule="evenodd" fill-opacity="1" /><path clip-path="url(#clip310)" d="M735.983 736.624 Q732.372 736.624 730.543 740.188 Q728.737 743.73 728.737 750.86 Q728.737 757.966 730.543 761.531 Q732.372 765.073 735.983 765.073 Q739.617 765.073 741.423 761.531 Q743.251 757.966 743.251 750.86 Q743.251 743.73 741.423 740.188 Q739.617 736.624 735.983 736.624 M735.983 732.92 Q741.793 732.92 744.848 737.526 Q747.927 742.11 747.927 750.86 Q747.927 759.586 744.848 764.193 Q741.793 768.776 735.983 768.776 Q730.173 768.776 727.094 764.193 Q724.038 759.586 724.038 750.86 Q724.038 742.11 727.094 737.526 Q730.173 732.92 735.983 732.92 Z" fill="#000000" fill-rule="evenodd" fill-opacity="1" /><path clip-path="url(#clip310)" d="M768.992 737.619 L757.186 756.068 L768.992 756.068 L768.992 737.619 M767.765 733.545 L773.645 733.545 L773.645 756.068 L778.575 756.068 L778.575 759.957 L773.645 759.957 L773.645 768.105 L768.992 768.105 L768.992 759.957 L753.39 759.957 L753.39 755.443 L767.765 733.545 Z" fill="#000000" fill-rule="evenodd" fill-opacity="1" /><path clip-path="url(#clip310)" d="M691.076 644.41 Q687.465 644.41 685.636 647.975 Q683.83 651.517 683.83 658.646 Q683.83 665.753 685.636 669.318 Q687.465 672.859 691.076 672.859 Q694.71 672.859 696.515 669.318 Q698.344 665.753 698.344 658.646 Q698.344 651.517 696.515 647.975 Q694.71 644.41 691.076 644.41 M691.076 640.707 Q696.886 640.707 699.941 645.313 Q703.02 649.897 703.02 658.646 Q703.02 667.373 699.941 671.98 Q696.886 676.563 691.076 676.563 Q685.265 676.563 682.187 671.98 Q679.131 667.373 679.131 658.646 Q679.131 649.897 682.187 645.313 Q685.265 640.707 691.076 640.707 Z" fill="#000000" fill-rule="evenodd" fill-opacity="1" /><path clip-path="url(#clip310)" d="M711.238 670.012 L716.122 670.012 L716.122 675.892 L711.238 675.892 L711.238 670.012 Z" fill="#000000" fill-rule="evenodd" fill-opacity="1" /><path clip-path="url(#clip310)" d="M736.307 644.41 Q732.696 644.41 730.867 647.975 Q729.062 651.517 729.062 658.646 Q729.062 665.753 730.867 669.318 Q732.696 672.859 736.307 672.859 Q739.941 672.859 741.747 669.318 Q743.575 665.753 743.575 658.646 Q743.575 651.517 741.747 647.975 Q739.941 644.41 736.307 644.41 M736.307 640.707 Q742.117 640.707 745.173 645.313 Q748.251 649.897 748.251 658.646 Q748.251 667.373 745.173 671.98 Q742.117 676.563 736.307 676.563 Q730.497 676.563 727.418 671.98 Q724.362 667.373 724.362 658.646 Q724.362 649.897 727.418 645.313 Q730.497 640.707 736.307 640.707 Z" fill="#000000" fill-rule="evenodd" fill-opacity="1" /><path clip-path="url(#clip310)" d="M767.047 656.748 Q763.899 656.748 762.047 658.901 Q760.219 661.054 760.219 664.804 Q760.219 668.531 762.047 670.707 Q763.899 672.859 767.047 672.859 Q770.196 672.859 772.024 670.707 Q773.876 668.531 773.876 664.804 Q773.876 661.054 772.024 658.901 Q770.196 656.748 767.047 656.748 M776.33 642.096 L776.33 646.355 Q774.571 645.522 772.765 645.082 Q770.983 644.642 769.223 644.642 Q764.594 644.642 762.14 647.767 Q759.709 650.892 759.362 657.211 Q760.728 655.197 762.788 654.133 Q764.848 653.045 767.325 653.045 Q772.533 653.045 775.543 656.216 Q778.575 659.364 778.575 664.804 Q778.575 670.128 775.427 673.345 Q772.279 676.563 767.047 676.563 Q761.052 676.563 757.881 671.98 Q754.71 667.373 754.71 658.646 Q754.71 650.452 758.598 645.591 Q762.487 640.707 769.038 640.707 Q770.797 640.707 772.58 641.054 Q774.385 641.401 776.33 642.096 Z" fill="#000000" fill-rule="evenodd" fill-opacity="1" /><polyline clip-path="url(#clip312)" style="stroke:#0000ff; stroke-linecap:butt; stroke-linejoin:round; stroke-width:4; stroke-opacity:1; fill:none" points="
  834.618,869.814 857.509,939.932 880.401,1007.42 903.296,1069.05 926.208,1123.72 949.179,1170.61 972.367,1208.81 996.291,1236.49 1022.07,1249.77 1050.05,1246.8 
  1078.2,1235.91 1104.28,1226.59 1128.37,1217.53 1151.61,1204.98 1174.59,1187.76 1197.51,1165.97 1220.4,1140.11 1243.28,1110.77 1266.14,1078.56 1288.9,1044.28 
  1311.29,1009.25 1332.43,976.678 1350.37,951.752 1365.1,933.377 1381.51,911.72 1401.69,881.508 1423.78,846.869 1446.45,812.083 1469.28,778.986 1492.15,748.48 
  1515.04,721.238 1537.93,697.888 1560.82,679.057 1583.71,665.38 1606.6,654.437 
  "/>
<polyline clip-path="url(#clip312)" style="stroke:#0000ff; stroke-linecap:butt; stroke-linejoin:round; stroke-width:4; stroke-opacity:1; fill:none" points="
  839.312,856.503 862.196,926.603 885.082,994.077 907.971,1055.69 930.875,1110.36 953.837,1157.25 977.008,1195.48 1000.89,1223.28 1026.57,1236.9 1054.36,1234.55 
  1082.32,1224.3 1108.29,1215.33 1132.33,1206.38 1155.55,1193.86 1178.52,1176.64 1201.43,1154.87 1224.32,1129.01 1247.2,1099.67 1270.05,1067.48 1292.8,1033.19 
  1315.21,998.118 1336.4,965.381 1354.5,939.996 1369.51,920.924 1386.14,898.689 1406.41,868.216 1428.51,833.508 1451.18,798.713 1474.01,765.624 1496.88,735.13 
  1519.76,707.9 1542.64,684.56 1565.53,665.738 1588.41,652.066 1611.29,641.128 
  "/>
<polyline clip-path="url(#clip312)" style="stroke:#0000ff; stroke-linecap:butt; stroke-linejoin:round; stroke-width:4; stroke-opacity:1; fill:none" points="
  844.006,843.192 866.884,913.274 889.763,980.732 912.645,1042.33 935.543,1097 958.495,1143.89 981.65,1182.16 1005.49,1210.07 1031.06,1224.02 1058.68,1222.3 
  1086.44,1212.7 1112.3,1204.06 1136.29,1195.23 1159.49,1182.74 1182.45,1165.53 1205.36,1143.76 1228.24,1117.91 1251.11,1088.58 1273.95,1056.39 1296.71,1022.1 
  1319.12,986.989 1340.37,954.084 1358.64,928.239 1373.92,908.471 1390.76,885.658 1411.12,854.924 1433.25,820.146 1455.92,785.344 1478.74,752.262 1501.61,721.78 
  1524.48,694.561 1547.36,671.232 1570.23,652.418 1593.11,638.752 1615.99,627.819 
  "/>
<polyline clip-path="url(#clip312)" style="stroke:#0000ff; stroke-linecap:butt; stroke-linejoin:round; stroke-width:4; stroke-opacity:1; fill:none" points="
  848.7,829.881 871.571,899.945 894.444,967.387 917.32,1028.97 940.21,1083.63 963.153,1130.54 986.291,1168.83 1010.09,1196.86 1035.55,1211.14 1062.99,1210.05 
  1090.57,1201.09 1116.3,1192.8 1140.25,1184.08 1163.43,1171.62 1186.39,1154.42 1209.28,1132.66 1232.16,1106.81 1255.02,1077.49 1277.86,1045.3 1300.61,1011.01 
  1323.04,975.861 1344.34,942.787 1362.77,916.482 1378.33,896.017 1395.39,872.626 1415.83,841.632 1437.98,806.785 1460.65,771.974 1483.47,738.9 1506.33,708.43 
  1529.2,681.223 1552.07,657.903 1574.94,639.098 1597.81,625.439 1620.68,614.51 
  "/>
<polyline clip-path="url(#clip312)" style="stroke:#0000ff; stroke-linecap:butt; stroke-linejoin:round; stroke-width:4; stroke-opacity:1; fill:none" points="
  853.394,816.57 876.259,886.616 899.125,954.041 921.994,1015.62 944.877,1070.27 967.811,1117.18 990.933,1155.5 1014.69,1183.65 1040.05,1198.27 1067.3,1197.8 
  1094.69,1189.48 1120.31,1181.54 1144.21,1172.93 1167.37,1160.5 1190.32,1143.31 1213.2,1121.55 1236.07,1095.71 1258.93,1066.39 1281.77,1034.22 1304.52,999.921 
  1326.95,964.732 1348.31,931.49 1366.9,904.725 1382.74,883.564 1400.01,859.595 1420.55,828.34 1442.71,793.423 1465.39,758.604 1488.21,725.539 1511.06,695.079 
  1533.92,667.884 1556.78,644.575 1579.65,625.779 1602.51,612.125 1625.38,601.201 
  "/>
<polyline clip-path="url(#clip312)" style="stroke:#0000ff; stroke-linecap:butt; stroke-linejoin:round; stroke-width:4; stroke-opacity:1; fill:none" points="
  858.087,803.259 880.946,873.287 903.806,940.696 926.669,1002.26 949.545,1056.91 972.47,1103.82 995.575,1142.17 1019.29,1170.43 1044.54,1185.39 1071.61,1185.55 
  1098.82,1177.87 1124.32,1170.27 1148.17,1161.78 1171.31,1149.38 1194.25,1132.2 1217.13,1110.44 1239.99,1084.61 1262.84,1055.3 1285.67,1023.13 1308.42,988.831 
  1330.87,953.604 1352.28,920.193 1371.04,892.969 1387.15,871.111 1404.64,846.564 1425.26,815.047 1447.45,780.062 1470.13,745.235 1492.94,712.177 1515.78,681.729 
  1538.64,654.546 1561.49,631.247 1584.35,612.459 1607.21,598.812 1630.07,587.892 
  "/>
<polyline clip-path="url(#clip312)" style="stroke:#0000ff; stroke-linecap:butt; stroke-linejoin:round; stroke-width:4; stroke-opacity:1; fill:none" points="
  862.781,789.949 885.634,859.958 908.487,927.35 931.343,988.901 954.212,1043.54 977.128,1090.46 1000.22,1128.85 1023.89,1157.22 1049.03,1172.52 1075.92,1173.3 
  1102.94,1166.26 1128.33,1159.01 1152.13,1150.63 1175.26,1138.26 1198.18,1121.09 1221.05,1099.34 1243.91,1073.51 1266.76,1044.21 1289.58,1012.04 1312.33,977.742 
  1334.79,942.475 1356.25,908.896 1375.17,881.212 1391.56,858.657 1409.27,833.533 1429.97,801.755 1452.18,766.7 1474.86,731.865 1497.67,698.815 1520.51,668.379 
  1543.36,641.207 1566.21,617.919 1589.06,599.14 1611.91,585.498 1634.76,574.583 
  "/>
<polyline clip-path="url(#clip312)" style="stroke:#0000ff; stroke-linecap:butt; stroke-linejoin:round; stroke-width:4; stroke-opacity:1; fill:none" points="
  867.475,776.638 890.321,846.629 913.168,914.005 936.018,975.544 958.879,1030.18 981.786,1077.1 1004.86,1115.52 1028.49,1144.01 1053.53,1159.64 1080.23,1161.05 
  1107.06,1154.65 1132.33,1147.75 1156.09,1139.48 1179.2,1127.14 1202.11,1109.98 1224.98,1088.23 1247.83,1062.41 1270.67,1033.12 1293.49,1000.96 1316.23,966.652 
  1338.7,931.347 1360.22,897.599 1379.31,869.455 1395.97,846.204 1413.89,820.501 1434.68,788.463 1456.92,753.339 1479.6,718.496 1502.4,685.454 1525.23,655.029 
  1548.08,627.868 1570.92,604.591 1593.77,585.82 1616.61,572.184 1639.46,561.274 
  "/>
<polyline clip-path="url(#clip312)" style="stroke:#0000ff; stroke-linecap:butt; stroke-linejoin:round; stroke-width:4; stroke-opacity:1; fill:none" points="
  872.169,763.327 895.008,833.299 917.849,900.66 940.692,962.186 963.547,1016.82 986.444,1063.74 1009.5,1102.19 1033.09,1130.8 1058.02,1146.76 1084.55,1148.8 
  1111.19,1143.04 1136.34,1136.48 1160.05,1128.33 1183.14,1116.02 1206.05,1098.87 1228.9,1077.13 1251.75,1051.31 1274.58,1022.02 1297.39,989.87 1320.14,955.563 
  1342.62,920.218 1364.19,886.302 1383.44,857.698 1400.38,833.751 1418.52,807.47 1439.4,775.171 1461.65,739.977 1484.33,705.126 1507.13,672.092 1529.96,641.679 
  1552.8,614.53 1575.63,591.263 1598.47,572.5 1621.31,558.871 1644.15,547.965 
  "/>
<polyline clip-path="url(#clip312)" style="stroke:#0000ff; stroke-linecap:butt; stroke-linejoin:round; stroke-width:4; stroke-opacity:1; fill:none" points="
  876.863,750.016 899.696,819.97 922.53,887.314 945.367,948.829 968.214,1003.45 991.102,1050.38 1014.14,1088.87 1037.69,1117.59 1062.51,1133.89 1088.86,1136.55 
  1115.31,1131.43 1140.35,1125.22 1164.01,1117.18 1187.08,1104.9 1209.98,1087.76 1232.83,1066.02 1255.66,1040.21 1278.49,1010.93 1301.3,978.783 1324.04,944.473 
  1346.53,909.09 1368.16,875.005 1387.58,845.942 1404.78,821.297 1423.14,794.439 1444.11,761.879 1466.39,726.616 1489.07,691.757 1511.86,658.73 1534.68,628.329 
  1557.51,601.191 1580.35,577.935 1603.18,559.181 1626.01,545.557 1648.84,534.656 
  "/>
<polyline clip-path="url(#clip312)" style="stroke:#0000ff; stroke-linecap:butt; stroke-linejoin:round; stroke-width:4; stroke-opacity:1; fill:none" points="
  881.557,736.705 904.383,806.641 927.211,873.969 950.041,935.471 972.881,990.089 995.761,1037.02 1018.78,1075.54 1042.29,1104.38 1067.01,1121.01 1093.17,1124.3 
  1119.44,1119.82 1144.36,1113.96 1167.97,1106.03 1191.02,1093.78 1213.91,1076.65 1236.75,1054.92 1259.58,1029.11 1282.4,999.839 1305.21,967.696 1327.95,933.384 
  1350.45,897.961 1372.13,863.708 1391.71,834.185 1409.19,808.844 1427.77,781.408 1448.82,748.587 1471.12,713.254 1493.8,678.387 1516.59,645.369 1539.41,614.979 
  1562.23,587.853 1585.06,564.607 1607.89,545.861 1630.71,532.244 1653.54,521.347 
  "/>
<polyline clip-path="url(#clip312)" style="stroke:#0000ff; stroke-linecap:butt; stroke-linejoin:round; stroke-width:4; stroke-opacity:1; fill:none" points="
  886.25,723.394 909.071,793.312 931.892,860.623 954.715,922.114 977.549,976.726 1000.42,1023.67 1023.42,1062.21 1046.89,1091.17 1071.5,1108.14 1097.48,1112.05 
  1123.56,1108.22 1148.36,1102.69 1171.93,1094.88 1194.96,1082.66 1217.84,1065.54 1240.68,1043.81 1263.5,1018.01 1286.32,988.746 1309.11,956.609 1331.85,922.295 
  1354.36,886.833 1376.1,852.411 1395.84,822.428 1413.6,796.391 1432.4,768.377 1453.54,735.295 1475.86,699.893 1498.54,665.017 1521.32,632.007 1544.14,601.628 
  1566.95,574.514 1589.77,551.279 1612.59,532.542 1635.41,518.93 1658.23,508.038 
  "/>
<polyline clip-path="url(#clip312)" style="stroke:#0000ff; stroke-linecap:butt; stroke-linejoin:round; stroke-width:4; stroke-opacity:1; fill:none" points="
  890.944,710.083 913.758,779.983 936.573,847.278 959.39,908.757 982.216,963.362 1005.08,1010.31 1028.07,1048.89 1051.49,1077.96 1075.99,1095.26 1101.79,1099.8 
  1127.68,1096.61 1152.37,1091.43 1175.89,1083.73 1198.9,1071.54 1221.77,1054.43 1244.6,1032.71 1267.42,1006.92 1290.23,977.653 1313.02,945.522 1335.76,911.205 
  1358.28,875.704 1380.07,841.114 1399.98,810.671 1418.01,783.937 1437.02,755.345 1458.25,722.003 1480.59,686.531 1503.28,651.648 1526.06,618.645 1548.86,588.278 
  1571.67,561.176 1594.49,537.951 1617.3,519.222 1640.11,505.616 1662.93,494.729 
  "/>
<polyline clip-path="url(#clip312)" style="stroke:#0000ff; stroke-linecap:butt; stroke-linejoin:round; stroke-width:4; stroke-opacity:1; fill:none" points="
  895.638,696.772 918.446,766.654 941.254,833.933 964.064,895.399 986.883,949.999 1009.74,996.948 1032.71,1035.56 1056.08,1064.75 1080.49,1082.38 1106.1,1087.55 
  1131.81,1085 1156.38,1080.17 1179.85,1072.58 1202.85,1060.42 1225.71,1043.31 1248.53,1021.6 1271.34,995.816 1294.14,966.561 1316.93,934.436 1339.66,900.116 
  1362.2,864.576 1384.04,829.816 1404.11,798.915 1422.42,771.484 1441.65,742.314 1462.96,708.711 1485.33,673.17 1508.01,638.278 1530.79,605.284 1553.59,574.928 
  1576.39,547.837 1599.2,524.622 1622.01,505.902 1644.81,492.303 1667.62,481.42 
  "/>
<polyline clip-path="url(#clip312)" style="stroke:#0000ff; stroke-linecap:butt; stroke-linejoin:round; stroke-width:4; stroke-opacity:1; fill:none" points="
  900.332,683.461 923.133,753.325 945.935,820.587 968.739,882.042 991.551,936.635 1014.39,983.589 1037.35,1022.23 1060.68,1051.53 1084.98,1069.51 1110.41,1075.3 
  1135.93,1073.39 1160.39,1068.9 1183.81,1061.43 1206.79,1049.3 1229.64,1032.2 1252.45,1010.49 1275.25,984.716 1298.05,955.468 1320.83,923.349 1343.57,889.026 
  1366.11,853.447 1388.01,818.519 1408.25,787.158 1426.83,759.031 1446.28,729.283 1467.68,695.419 1490.06,659.809 1512.75,624.909 1535.52,591.922 1558.31,561.578 
  1581.11,534.499 1603.91,511.294 1626.71,492.583 1649.51,478.989 1672.31,468.111 
  "/>
<polyline clip-path="url(#clip312)" style="stroke:#0000ff; stroke-linecap:butt; stroke-linejoin:round; stroke-width:4; stroke-opacity:1; fill:none" points="
  905.026,670.15 927.821,739.996 950.616,807.242 973.413,868.684 996.218,923.272 1019.05,970.23 1041.99,1008.91 1065.28,1038.32 1089.47,1056.63 1114.73,1063.05 
  1140.06,1061.78 1164.39,1057.64 1187.77,1050.28 1210.73,1038.18 1233.57,1021.09 1256.38,999.389 1279.17,973.617 1301.96,944.375 1324.74,912.262 1347.47,877.937 
  1370.03,842.319 1391.98,807.222 1412.38,775.401 1431.24,746.578 1450.9,716.252 1472.39,682.127 1494.79,646.447 1517.48,611.539 1540.25,578.56 1563.04,548.228 
  1585.83,521.16 1608.62,497.966 1631.42,479.263 1654.21,465.676 1677.01,454.802 
  "/>
<polyline clip-path="url(#clip312)" style="stroke:#0000ff; stroke-linecap:butt; stroke-linejoin:round; stroke-width:4; stroke-opacity:1; fill:none" points="
  909.72,656.839 932.508,726.667 955.297,793.896 978.088,855.327 1000.89,909.908 1023.71,956.872 1046.63,995.578 1069.88,1025.11 1093.97,1043.76 1119.04,1050.8 
  1144.18,1050.17 1168.4,1046.38 1191.73,1039.13 1214.67,1027.06 1237.5,1009.98 1260.3,988.283 1283.09,962.518 1305.88,933.283 1328.65,901.175 1351.38,866.847 
  1373.94,831.19 1395.95,795.925 1416.51,763.644 1435.65,734.124 1455.53,703.221 1477.1,668.835 1499.53,633.086 1522.22,598.17 1544.98,565.199 1567.76,534.878 
  1590.55,507.822 1613.34,484.638 1636.13,465.944 1658.91,452.362 1681.7,441.493 
  "/>
<polyline clip-path="url(#clip312)" style="stroke:#0000ff; stroke-linecap:butt; stroke-linejoin:round; stroke-width:4; stroke-opacity:1; fill:none" points="
  914.413,643.529 937.195,713.338 959.978,780.551 982.762,841.969 1005.55,896.545 1028.37,943.513 1051.27,982.251 1074.48,1011.9 1098.46,1030.88 1123.35,1038.55 
  1148.3,1038.56 1172.41,1035.11 1195.68,1027.98 1218.61,1015.94 1241.43,998.871 1264.22,977.178 1287.01,951.418 1309.79,922.19 1332.55,890.088 1355.28,855.758 
  1377.86,820.062 1399.92,784.628 1420.65,751.888 1440.06,721.671 1460.15,690.19 1481.82,655.543 1504.26,619.724 1526.96,584.8 1549.71,551.837 1572.49,521.528 
  1595.27,494.483 1618.05,471.31 1640.83,452.624 1663.61,439.048 1686.4,428.184 
  "/>
<polyline clip-path="url(#clip312)" style="stroke:#0000ff; stroke-linecap:butt; stroke-linejoin:round; stroke-width:4; stroke-opacity:1; fill:none" points="
  919.107,630.218 941.883,700.009 964.659,767.205 987.437,828.612 1010.22,883.181 1033.03,930.154 1055.91,968.924 1079.08,998.69 1102.95,1018 1127.66,1026.3 
  1152.43,1026.95 1176.42,1023.85 1199.64,1016.83 1222.55,1004.82 1245.36,987.76 1268.15,966.072 1290.93,940.319 1313.7,911.097 1336.46,879.002 1359.19,844.668 
  1381.77,808.933 1403.89,773.331 1424.78,740.131 1444.46,709.218 1464.78,677.158 1486.53,642.251 1509,606.363 1531.69,571.431 1554.44,538.476 1577.21,508.178 
  1599.99,481.145 1622.76,457.982 1645.54,439.304 1668.31,425.735 1691.09,414.875 
  "/>
<polyline clip-path="url(#clip312)" style="stroke:#0000ff; stroke-linecap:butt; stroke-linejoin:round; stroke-width:4; stroke-opacity:1; fill:none" points="
  923.801,616.907 946.57,686.68 969.34,753.86 992.111,815.254 1014.89,869.818 1037.68,916.795 1060.56,955.597 1083.68,985.479 1107.45,1005.13 1131.97,1014.05 
  1156.55,1015.34 1180.42,1012.59 1203.6,1005.68 1226.49,993.699 1249.3,976.649 1272.07,954.967 1294.84,929.219 1317.61,900.005 1340.37,867.915 1363.09,833.579 
  1385.69,797.805 1407.86,762.034 1428.92,728.374 1448.87,696.764 1469.41,664.127 1491.24,628.959 1513.73,593.002 1536.43,558.061 1559.18,525.114 1581.94,494.828 
  1604.71,467.806 1627.48,444.654 1650.25,425.985 1673.01,412.421 1695.78,401.566 
  "/>
<polyline clip-path="url(#clip312)" style="stroke:#0000ff; stroke-linecap:butt; stroke-linejoin:round; stroke-width:4; stroke-opacity:1; fill:none" points="
  928.495,603.596 951.258,673.351 974.021,740.515 996.786,801.897 1019.55,856.454 1042.34,903.436 1065.2,942.27 1088.28,972.267 1111.94,992.252 1136.28,1001.8 
  1160.68,1003.73 1184.43,1001.32 1207.56,994.526 1230.44,982.579 1253.23,965.538 1276,943.861 1298.76,918.12 1321.52,888.912 1344.27,856.828 1367,822.489 
  1389.61,786.676 1411.83,750.737 1433.05,716.617 1453.28,684.311 1474.03,651.096 1495.96,615.667 1518.47,579.64 1541.16,544.692 1563.91,511.752 1586.67,481.478 
  1609.43,454.468 1632.19,431.326 1654.95,412.665 1677.71,399.108 1700.48,388.257 
  "/>
<polyline clip-path="url(#clip312)" style="stroke:#0000ff; stroke-linecap:butt; stroke-linejoin:round; stroke-width:4; stroke-opacity:1; fill:none" points="
  933.189,590.285 955.945,660.021 978.702,727.169 1001.46,788.539 1024.22,843.091 1047,890.077 1069.84,928.942 1092.88,959.056 1116.44,979.376 1140.6,989.546 
  1164.8,992.126 1188.44,990.059 1211.52,983.375 1234.38,971.459 1257.16,954.427 1279.92,932.756 1302.68,907.02 1325.43,877.819 1348.18,845.741 1370.9,811.4 
  1393.52,775.548 1415.8,739.44 1437.18,704.861 1457.69,671.858 1478.66,638.065 1500.67,602.375 1523.2,566.279 1545.9,531.322 1568.64,498.391 1591.39,468.127 
  1614.15,441.129 1636.9,417.998 1659.66,399.346 1682.41,385.794 1705.17,374.948 
  "/>
<polyline clip-path="url(#clip312)" style="stroke:#0000ff; stroke-linecap:butt; stroke-linejoin:round; stroke-width:4; stroke-opacity:1; fill:none" points="
  937.883,576.974 960.633,646.692 983.383,713.824 1006.13,775.182 1028.89,829.727 1051.66,876.718 1074.48,915.615 1097.48,945.845 1120.93,966.5 1144.91,977.296 
  1168.92,980.517 1192.45,978.796 1215.48,972.225 1238.32,960.339 1261.09,943.316 1283.85,921.65 1306.6,895.921 1329.35,866.727 1352.09,834.654 1374.81,800.31 
  1397.44,764.419 1419.76,728.143 1441.32,693.104 1462.1,659.405 1483.28,625.034 1505.38,589.083 1527.94,552.917 1550.63,517.953 1573.37,485.029 1596.12,454.777 
  1618.87,427.791 1641.61,404.67 1664.36,386.026 1687.11,372.48 1709.86,361.639 
  "/>
<polyline clip-path="url(#clip312)" style="stroke:#0000ff; stroke-linecap:butt; stroke-linejoin:round; stroke-width:4; stroke-opacity:1; fill:none" points="
  942.576,563.663 965.32,633.363 988.064,700.478 1010.81,761.824 1033.56,816.364 1056.32,863.359 1079.12,902.288 1102.08,932.633 1125.42,953.623 1149.22,965.046 
  1173.05,968.908 1196.45,967.532 1219.44,961.075 1242.26,949.219 1265.02,932.206 1287.77,910.545 1310.52,884.822 1333.26,855.634 1356,823.568 1378.71,789.221 
  1401.35,753.291 1423.73,716.846 1445.45,681.347 1466.51,646.951 1487.91,612.003 1510.09,575.791 1532.67,539.556 1555.37,504.584 1578.1,471.668 1600.84,441.427 
  1623.58,414.453 1646.33,391.342 1669.07,372.706 1691.82,359.167 1714.56,348.33 
  "/>
<polyline clip-path="url(#clip312)" style="stroke:#0000ff; stroke-linecap:butt; stroke-linejoin:round; stroke-width:4; stroke-opacity:1; fill:none" points="
  947.27,550.352 970.008,620.034 992.745,687.133 1015.48,748.467 1038.22,803 1060.98,850 1083.76,888.961 1106.68,919.422 1129.92,940.747 1153.53,952.796 
  1177.17,957.299 1200.46,956.269 1223.4,949.924 1246.2,938.099 1268.96,921.095 1291.7,899.439 1314.44,873.722 1337.17,844.541 1359.9,812.481 1382.62,778.132 
  1405.27,742.162 1427.7,705.549 1449.59,669.59 1470.92,634.498 1492.54,598.972 1514.81,562.499 1537.41,526.195 1560.11,491.214 1582.83,458.306 1605.57,428.077 
  1628.3,401.114 1651.04,378.014 1673.78,359.387 1696.52,345.853 1719.25,335.021 
  "/>
<polyline clip-path="url(#clip312)" style="stroke:#0000ff; stroke-linecap:butt; stroke-linejoin:round; stroke-width:4; stroke-opacity:1; fill:none" points="
  951.964,537.041 974.695,606.705 997.426,673.787 1020.16,735.109 1042.89,789.637 1065.63,836.641 1088.41,875.633 1111.28,906.211 1134.41,927.871 1157.84,940.546 
  1181.3,945.69 1204.47,945.005 1227.36,938.774 1250.14,926.979 1272.89,909.984 1295.62,888.333 1318.35,862.623 1341.08,833.449 1363.81,801.394 1386.52,767.042 
  1409.18,731.034 1431.67,694.252 1453.72,657.834 1475.33,622.045 1497.16,585.94 1519.52,549.207 1542.14,512.833 1564.84,477.845 1587.56,444.945 1610.29,414.727 
  1633.02,387.776 1655.75,364.686 1678.48,346.067 1701.22,332.54 1723.95,321.712 
  "/>
<polyline clip-path="url(#clip312)" style="stroke:#0000ff; stroke-linecap:butt; stroke-linejoin:round; stroke-width:4; stroke-opacity:1; fill:none" points="
  956.658,523.73 979.383,593.376 1002.11,660.442 1024.83,721.752 1047.56,776.273 1070.29,823.282 1093.05,862.306 1115.88,892.999 1138.9,914.995 1162.15,928.295 
  1185.42,934.081 1208.48,933.742 1231.32,927.624 1254.08,915.859 1276.82,898.873 1299.55,877.228 1322.27,851.523 1344.99,822.356 1367.72,790.307 1390.43,755.953 
  1413.1,719.905 1435.64,682.954 1457.86,646.077 1479.74,609.592 1501.79,572.909 1524.23,535.915 1546.88,499.472 1569.58,464.475 1592.3,431.583 1615.02,401.377 
  1637.74,374.437 1660.47,351.357 1683.19,332.748 1705.92,319.226 1728.64,308.403 
  "/>
<polyline clip-path="url(#clip312)" style="stroke:#0000ff; stroke-linecap:butt; stroke-linejoin:round; stroke-width:4; stroke-opacity:1; fill:none" points="
  961.352,510.419 984.07,580.047 1006.79,647.097 1029.51,708.394 1052.23,762.909 1074.95,809.923 1097.69,848.979 1120.48,879.788 1143.4,902.119 1166.46,916.045 
  1189.55,922.472 1212.48,922.478 1235.28,916.473 1258.03,904.739 1280.75,887.762 1303.47,866.122 1326.19,840.424 1348.91,811.263 1371.62,779.22 1394.33,744.863 
  1417.02,708.777 1439.61,671.657 1461.99,634.32 1484.14,597.138 1506.42,559.878 1528.95,522.623 1551.61,486.111 1574.31,451.106 1597.03,418.221 1619.74,388.027 
  1642.46,361.099 1665.18,338.029 1687.9,319.428 1710.62,305.913 1733.33,295.095 
  "/>
<polyline clip-path="url(#clip312)" style="stroke:#0000ff; stroke-linecap:butt; stroke-linejoin:round; stroke-width:4; stroke-opacity:1; fill:none" points="
  966.046,497.109 988.757,566.718 1011.47,633.751 1034.18,695.036 1056.89,749.546 1079.61,796.564 1102.33,835.651 1125.08,866.576 1147.89,889.243 1170.78,903.795 
  1193.67,910.863 1216.49,911.215 1239.24,905.323 1261.97,893.619 1284.68,876.651 1307.4,855.017 1330.11,829.324 1352.82,800.171 1375.53,768.134 1398.24,733.774 
  1420.93,697.648 1443.58,660.36 1466.12,622.563 1488.55,584.685 1511.04,546.847 1533.66,509.331 1556.34,472.749 1579.05,437.736 1601.76,404.86 1624.47,374.677 
  1647.18,347.76 1669.89,324.701 1692.6,306.109 1715.32,292.599 1738.03,281.786 
  "/>
<polyline clip-path="url(#clip312)" style="stroke:#0000ff; stroke-linecap:butt; stroke-linejoin:round; stroke-width:4; stroke-opacity:1; fill:none" points="
  970.74,483.798 993.445,553.389 1016.15,620.406 1038.86,681.679 1061.56,736.182 1084.27,783.205 1106.97,822.324 1129.68,853.365 1152.38,876.367 1175.09,891.545 
  1197.79,899.254 1220.5,899.951 1243.2,894.173 1265.91,882.499 1288.61,865.54 1311.32,843.911 1334.03,818.225 1356.73,789.078 1379.44,757.047 1402.14,722.684 
  1424.85,686.52 1447.55,649.063 1470.26,610.807 1492.96,572.232 1515.67,533.816 1538.37,496.039 1561.08,459.388 1583.78,424.367 1606.49,391.498 1629.19,361.327 
  1651.9,334.422 1674.61,311.373 1697.31,292.789 1720.02,279.285 1742.72,268.477 
  "/>
</svg>
