<?xml version="1.0" encoding="utf-8"?>
<svg xmlns="http://www.w3.org/2000/svg" xmlns:xlink="http://www.w3.org/1999/xlink" width="600" height="400" viewBox="0 0 2400 1600">
<defs>
  <clipPath id="clip520">
    <rect x="0" y="0" width="2400" height="1600"/>
  </clipPath>
</defs>
<path clip-path="url(#clip520)" d="
M0 1600 L2400 1600 L2400 0 L0 0  Z
  " fill="#ffffff" fill-rule="evenodd" fill-opacity="1"/>
<defs>
  <clipPath id="clip521">
    <rect x="480" y="0" width="1681" height="1600"/>
  </clipPath>
</defs>
<defs>
  <clipPath id="clip522">
    <rect x="224" y="47" width="2129" height="1440"/>
  </clipPath>
</defs>
<path clip-path="url(#clip522)" d="
M1562.75 1777.98 L1562.75 1325.4 L1580.9 1068.08 L1683.83 1113.45 L1683.83 1566.03 L1665.68 1823.36 L1562.75 1777.98  Z
  " fill="#ffffff" fill-rule="evenodd" fill-opacity="1"/>
<polyline clip-path="url(#clip522)" style="stroke:#000000; stroke-linecap:butt; stroke-linejoin:round; stroke-width:2; stroke-opacity:0.1; fill:none" points="
  882,1301.73 1026.29,892.579 
  "/>
<polyline clip-path="url(#clip522)" style="stroke:#000000; stroke-linecap:butt; stroke-linejoin:round; stroke-width:2; stroke-opacity:0.1; fill:none" points="
  1026.29,892.579 1026.29,172.977 
  "/>
<polyline clip-path="url(#clip522)" style="stroke:#000000; stroke-linecap:butt; stroke-linejoin:round; stroke-width:2; stroke-opacity:0.1; fill:none" points="
  1036.4,1315.34 1180.69,906.191 
  "/>
<polyline clip-path="url(#clip522)" style="stroke:#000000; stroke-linecap:butt; stroke-linejoin:round; stroke-width:2; stroke-opacity:0.1; fill:none" points="
  1180.69,906.191 1180.69,186.589 
  "/>
<polyline clip-path="url(#clip522)" style="stroke:#000000; stroke-linecap:butt; stroke-linejoin:round; stroke-width:2; stroke-opacity:0.1; fill:none" points="
  1190.79,1328.95 1335.08,919.803 
  "/>
<polyline clip-path="url(#clip522)" style="stroke:#000000; stroke-linecap:butt; stroke-linejoin:round; stroke-width:2; stroke-opacity:0.1; fill:none" points="
  1335.08,919.803 1335.08,200.201 
  "/>
<polyline clip-path="url(#clip522)" style="stroke:#000000; stroke-linecap:butt; stroke-linejoin:round; stroke-width:2; stroke-opacity:0.1; fill:none" points="
  1345.19,1342.57 1489.48,933.415 
  "/>
<polyline clip-path="url(#clip522)" style="stroke:#000000; stroke-linecap:butt; stroke-linejoin:round; stroke-width:2; stroke-opacity:0.1; fill:none" points="
  1489.48,933.415 1489.48,213.813 
  "/>
<polyline clip-path="url(#clip522)" style="stroke:#000000; stroke-linecap:butt; stroke-linejoin:round; stroke-width:2; stroke-opacity:0.1; fill:none" points="
  1499.59,1356.18 1643.87,947.027 
  "/>
<polyline clip-path="url(#clip522)" style="stroke:#000000; stroke-linecap:butt; stroke-linejoin:round; stroke-width:2; stroke-opacity:0.1; fill:none" points="
  1643.87,947.027 1643.87,227.425 
  "/>
<polyline clip-path="url(#clip520)" style="stroke:#000000; stroke-linecap:butt; stroke-linejoin:round; stroke-width:4; stroke-opacity:1; fill:none" points="
  807.375,1295.15 1625.68,1367.29 
  "/>
<polyline clip-path="url(#clip520)" style="stroke:#000000; stroke-linecap:butt; stroke-linejoin:round; stroke-width:4; stroke-opacity:1; fill:none" points="
  882,1301.73 883.732,1296.82 
  "/>
<polyline clip-path="url(#clip520)" style="stroke:#000000; stroke-linecap:butt; stroke-linejoin:round; stroke-width:4; stroke-opacity:1; fill:none" points="
  1036.4,1315.34 1038.13,1310.43 
  "/>
<polyline clip-path="url(#clip520)" style="stroke:#000000; stroke-linecap:butt; stroke-linejoin:round; stroke-width:4; stroke-opacity:1; fill:none" points="
  1190.79,1328.95 1192.52,1324.04 
  "/>
<polyline clip-path="url(#clip520)" style="stroke:#000000; stroke-linecap:butt; stroke-linejoin:round; stroke-width:4; stroke-opacity:1; fill:none" points="
  1345.19,1342.57 1346.92,1337.66 
  "/>
<polyline clip-path="url(#clip520)" style="stroke:#000000; stroke-linecap:butt; stroke-linejoin:round; stroke-width:4; stroke-opacity:1; fill:none" points="
  1499.59,1356.18 1501.32,1351.27 
  "/>
<path clip-path="url(#clip520)" d="M808.856 1328.53 L838.531 1328.53 L838.531 1332.47 L808.856 1332.47 L808.856 1328.53 Z" fill="#000000" fill-rule="evenodd" fill-opacity="1" /><path clip-path="url(#clip520)" d="M848.763 1344.64 L848.763 1340.39 Q850.522 1341.22 852.328 1341.66 Q854.133 1342.1 855.869 1342.1 Q860.499 1342.1 862.929 1339 Q865.383 1335.87 865.73 1329.53 Q864.388 1331.52 862.328 1332.58 Q860.267 1333.65 857.767 1333.65 Q852.582 1333.65 849.55 1330.52 Q846.541 1327.38 846.541 1321.94 Q846.541 1316.61 849.689 1313.39 Q852.837 1310.18 858.068 1310.18 Q864.064 1310.18 867.212 1314.78 Q870.383 1319.37 870.383 1328.12 Q870.383 1336.29 866.494 1341.17 Q862.629 1346.03 856.078 1346.03 Q854.318 1346.03 852.513 1345.69 Q850.707 1345.34 848.763 1344.64 M858.068 1329.99 Q861.217 1329.99 863.045 1327.84 Q864.897 1325.69 864.897 1321.94 Q864.897 1318.21 863.045 1316.06 Q861.217 1313.88 858.068 1313.88 Q854.92 1313.88 853.068 1316.06 Q851.24 1318.21 851.24 1321.94 Q851.24 1325.69 853.068 1327.84 Q854.92 1329.99 858.068 1329.99 Z" fill="#000000" fill-rule="evenodd" fill-opacity="1" /><path clip-path="url(#clip520)" d="M962.905 1342.15 L992.581 1342.15 L992.581 1346.08 L962.905 1346.08 L962.905 1342.15 Z" fill="#000000" fill-rule="evenodd" fill-opacity="1" /><path clip-path="url(#clip520)" d="M1013.25 1339.83 Q1010.1 1339.83 1008.25 1341.98 Q1006.42 1344.14 1006.42 1347.89 Q1006.42 1351.61 1008.25 1353.79 Q1010.1 1355.94 1013.25 1355.94 Q1016.4 1355.94 1018.23 1353.79 Q1020.08 1351.61 1020.08 1347.89 Q1020.08 1344.14 1018.23 1341.98 Q1016.4 1339.83 1013.25 1339.83 M1022.53 1325.18 L1022.53 1329.44 Q1020.77 1328.6 1018.97 1328.16 Q1017.19 1327.72 1015.43 1327.72 Q1010.8 1327.72 1008.34 1330.85 Q1005.91 1333.97 1005.57 1340.29 Q1006.93 1338.28 1008.99 1337.22 Q1011.05 1336.13 1013.53 1336.13 Q1018.74 1336.13 1021.75 1339.3 Q1024.78 1342.45 1024.78 1347.89 Q1024.78 1353.21 1021.63 1356.43 Q1018.48 1359.65 1013.25 1359.65 Q1007.26 1359.65 1004.09 1355.06 Q1000.91 1350.46 1000.91 1341.73 Q1000.91 1333.53 1004.8 1328.67 Q1008.69 1323.79 1015.24 1323.79 Q1017 1323.79 1018.78 1324.14 Q1020.59 1324.48 1022.53 1325.18 Z" fill="#000000" fill-rule="evenodd" fill-opacity="1" /><path clip-path="url(#clip520)" d="M1118.11 1355.76 L1147.79 1355.76 L1147.79 1359.69 L1118.11 1359.69 L1118.11 1355.76 Z" fill="#000000" fill-rule="evenodd" fill-opacity="1" /><path clip-path="url(#clip520)" d="M1172.05 1353.95 Q1175.4 1354.67 1177.28 1356.94 Q1179.18 1359.21 1179.18 1362.54 Q1179.18 1367.66 1175.66 1370.46 Q1172.14 1373.26 1165.66 1373.26 Q1163.48 1373.26 1161.17 1372.82 Q1158.88 1372.4 1156.42 1371.54 L1156.42 1367.03 Q1158.37 1368.17 1160.68 1368.74 Q1163 1369.32 1165.52 1369.32 Q1169.92 1369.32 1172.21 1367.59 Q1174.52 1365.85 1174.52 1362.54 Q1174.52 1359.48 1172.37 1357.77 Q1170.24 1356.04 1166.42 1356.04 L1162.39 1356.04 L1162.39 1352.19 L1166.61 1352.19 Q1170.06 1352.19 1171.88 1350.83 Q1173.71 1349.44 1173.71 1346.85 Q1173.71 1344.18 1171.81 1342.77 Q1169.94 1341.34 1166.42 1341.34 Q1164.5 1341.34 1162.3 1341.75 Q1160.1 1342.17 1157.46 1343.05 L1157.46 1338.88 Q1160.13 1338.14 1162.44 1337.77 Q1164.78 1337.4 1166.84 1337.4 Q1172.16 1337.4 1175.26 1339.83 Q1178.37 1342.24 1178.37 1346.36 Q1178.37 1349.23 1176.72 1351.22 Q1175.08 1353.19 1172.05 1353.95 Z" fill="#000000" fill-rule="evenodd" fill-opacity="1" /><path clip-path="url(#clip520)" d="M1321.63 1354.72 Q1318.02 1354.72 1316.19 1358.28 Q1314.38 1361.82 1314.38 1368.95 Q1314.38 1376.06 1316.19 1379.62 Q1318.02 1383.17 1321.63 1383.17 Q1325.26 1383.17 1327.07 1379.62 Q1328.9 1376.06 1328.9 1368.95 Q1328.9 1361.82 1327.07 1358.28 Q1325.26 1354.72 1321.63 1354.72 M1321.63 1351.01 Q1327.44 1351.01 1330.49 1355.62 Q1333.57 1360.2 1333.57 1368.95 Q1333.57 1377.68 1330.49 1382.29 Q1327.44 1386.87 1321.63 1386.87 Q1315.82 1386.87 1312.74 1382.29 Q1309.68 1377.68 1309.68 1368.95 Q1309.68 1360.2 1312.74 1355.62 Q1315.82 1351.01 1321.63 1351.01 Z" fill="#000000" fill-rule="evenodd" fill-opacity="1" /><path clip-path="url(#clip520)" d="M1480.84 1381.18 Q1484.2 1381.89 1486.07 1384.16 Q1487.97 1386.43 1487.97 1389.76 Q1487.97 1394.88 1484.45 1397.68 Q1480.93 1400.48 1474.45 1400.48 Q1472.27 1400.48 1469.96 1400.04 Q1467.67 1399.63 1465.21 1398.77 L1465.21 1394.26 Q1467.16 1395.39 1469.47 1395.97 Q1471.79 1396.55 1474.31 1396.55 Q1478.71 1396.55 1481 1394.81 Q1483.32 1393.07 1483.32 1389.76 Q1483.32 1386.71 1481.16 1385 Q1479.03 1383.26 1475.21 1383.26 L1471.19 1383.26 L1471.19 1379.42 L1475.4 1379.42 Q1478.85 1379.42 1480.68 1378.05 Q1482.51 1376.66 1482.51 1374.07 Q1482.51 1371.41 1480.61 1370 Q1478.73 1368.56 1475.21 1368.56 Q1473.29 1368.56 1471.09 1368.98 Q1468.89 1369.39 1466.26 1370.27 L1466.26 1366.11 Q1468.92 1365.37 1471.23 1365 Q1473.57 1364.63 1475.63 1364.63 Q1480.96 1364.63 1484.06 1367.06 Q1487.16 1369.46 1487.16 1373.58 Q1487.16 1376.45 1485.52 1378.45 Q1483.87 1380.41 1480.84 1381.18 Z" fill="#000000" fill-rule="evenodd" fill-opacity="1" /><polyline clip-path="url(#clip522)" style="stroke:#000000; stroke-linecap:butt; stroke-linejoin:round; stroke-width:2; stroke-opacity:0.1; fill:none" points="
  1629.76,1355.71 811.459,1283.57 
  "/>
<polyline clip-path="url(#clip522)" style="stroke:#000000; stroke-linecap:butt; stroke-linejoin:round; stroke-width:2; stroke-opacity:0.1; fill:none" points="
  811.459,1283.57 811.459,563.968 
  "/>
<polyline clip-path="url(#clip522)" style="stroke:#000000; stroke-linecap:butt; stroke-linejoin:round; stroke-width:2; stroke-opacity:0.1; fill:none" points="
  1675.13,1227.05 856.833,1154.91 
  "/>
<polyline clip-path="url(#clip522)" style="stroke:#000000; stroke-linecap:butt; stroke-linejoin:round; stroke-width:2; stroke-opacity:0.1; fill:none" points="
  856.833,1154.91 856.833,435.305 
  "/>
<polyline clip-path="url(#clip522)" style="stroke:#000000; stroke-linecap:butt; stroke-linejoin:round; stroke-width:2; stroke-opacity:0.1; fill:none" points="
  1720.51,1098.39 902.206,1026.24 
  "/>
<polyline clip-path="url(#clip522)" style="stroke:#000000; stroke-linecap:butt; stroke-linejoin:round; stroke-width:2; stroke-opacity:0.1; fill:none" points="
  902.206,1026.24 902.206,306.641 
  "/>
<polyline clip-path="url(#clip522)" style="stroke:#000000; stroke-linecap:butt; stroke-linejoin:round; stroke-width:2; stroke-opacity:0.1; fill:none" points="
  1765.88,969.724 947.58,897.579 
  "/>
<polyline clip-path="url(#clip522)" style="stroke:#000000; stroke-linecap:butt; stroke-linejoin:round; stroke-width:2; stroke-opacity:0.1; fill:none" points="
  947.58,897.579 947.58,177.977 
  "/>
<polyline clip-path="url(#clip520)" style="stroke:#000000; stroke-linecap:butt; stroke-linejoin:round; stroke-width:4; stroke-opacity:1; fill:none" points="
  1625.68,1367.29 1769.96,958.144 
  "/>
<polyline clip-path="url(#clip520)" style="stroke:#000000; stroke-linecap:butt; stroke-linejoin:round; stroke-width:4; stroke-opacity:1; fill:none" points="
  1629.76,1355.71 1619.94,1354.85 
  "/>
<polyline clip-path="url(#clip520)" style="stroke:#000000; stroke-linecap:butt; stroke-linejoin:round; stroke-width:4; stroke-opacity:1; fill:none" points="
  1675.13,1227.05 1665.31,1226.19 
  "/>
<polyline clip-path="url(#clip520)" style="stroke:#000000; stroke-linecap:butt; stroke-linejoin:round; stroke-width:4; stroke-opacity:1; fill:none" points="
  1720.51,1098.39 1710.69,1097.52 
  "/>
<polyline clip-path="url(#clip520)" style="stroke:#000000; stroke-linecap:butt; stroke-linejoin:round; stroke-width:4; stroke-opacity:1; fill:none" points="
  1765.88,969.724 1756.06,968.858 
  "/>
<path clip-path="url(#clip520)" d="M1670.43 1343.54 Q1666.82 1343.54 1664.99 1347.1 Q1663.19 1350.65 1663.19 1357.78 Q1663.19 1364.88 1664.99 1368.45 Q1666.82 1371.99 1670.43 1371.99 Q1674.07 1371.99 1675.87 1368.45 Q1677.7 1364.88 1677.7 1357.78 Q1677.7 1350.65 1675.87 1347.1 Q1674.07 1343.54 1670.43 1343.54 M1670.43 1339.84 Q1676.24 1339.84 1679.3 1344.44 Q1682.38 1349.03 1682.38 1357.78 Q1682.38 1366.5 1679.3 1371.11 Q1676.24 1375.69 1670.43 1375.69 Q1664.62 1375.69 1661.54 1371.11 Q1658.49 1366.5 1658.49 1357.78 Q1658.49 1349.03 1661.54 1344.44 Q1664.62 1339.84 1670.43 1339.84 Z" fill="#000000" fill-rule="evenodd" fill-opacity="1" /><path clip-path="url(#clip520)" d="M1704.53 1242.42 L1712.17 1242.42 L1712.17 1216.06 L1703.86 1217.72 L1703.86 1213.46 L1712.13 1211.8 L1716.8 1211.8 L1716.8 1242.42 L1724.44 1242.42 L1724.44 1246.36 L1704.53 1246.36 L1704.53 1242.42 Z" fill="#000000" fill-rule="evenodd" fill-opacity="1" /><path clip-path="url(#clip520)" d="M1754.86 1113.76 L1771.18 1113.76 L1771.18 1117.69 L1749.24 1117.69 L1749.24 1113.76 Q1751.9 1111 1756.48 1106.37 Q1761.09 1101.72 1762.27 1100.38 Q1764.51 1097.86 1765.39 1096.12 Q1766.3 1094.36 1766.3 1092.67 Q1766.3 1089.92 1764.35 1088.18 Q1762.43 1086.44 1759.33 1086.44 Q1757.13 1086.44 1754.68 1087.21 Q1752.25 1087.97 1749.47 1089.52 L1749.47 1084.8 Q1752.29 1083.67 1754.75 1083.09 Q1757.2 1082.51 1759.24 1082.51 Q1764.61 1082.51 1767.8 1085.19 Q1771 1087.88 1771 1092.37 Q1771 1094.5 1770.18 1096.42 Q1769.4 1098.32 1767.29 1100.91 Q1766.71 1101.58 1763.61 1104.8 Q1760.51 1107.99 1754.86 1113.76 Z" fill="#000000" fill-rule="evenodd" fill-opacity="1" /><path clip-path="url(#clip520)" d="M1810.23 970.396 Q1813.59 971.113 1815.47 973.382 Q1817.36 975.65 1817.36 978.984 Q1817.36 984.099 1813.85 986.9 Q1810.33 989.701 1803.85 989.701 Q1801.67 989.701 1799.36 989.261 Q1797.06 988.845 1794.61 987.988 L1794.61 983.474 Q1796.55 984.609 1798.87 985.187 Q1801.18 985.766 1803.71 985.766 Q1808.11 985.766 1810.4 984.03 Q1812.71 982.294 1812.71 978.984 Q1812.71 975.928 1810.56 974.215 Q1808.43 972.479 1804.61 972.479 L1800.58 972.479 L1800.58 968.636 L1804.79 968.636 Q1808.24 968.636 1810.07 967.271 Q1811.9 965.882 1811.9 963.289 Q1811.9 960.627 1810 959.215 Q1808.13 957.78 1804.61 957.78 Q1802.69 957.78 1800.49 958.197 Q1798.29 958.613 1795.65 959.493 L1795.65 955.326 Q1798.31 954.586 1800.63 954.215 Q1802.97 953.845 1805.03 953.845 Q1810.35 953.845 1813.45 956.275 Q1816.55 958.683 1816.55 962.803 Q1816.55 965.673 1814.91 967.664 Q1813.27 969.632 1810.23 970.396 Z" fill="#000000" fill-rule="evenodd" fill-opacity="1" /><polyline clip-path="url(#clip522)" style="stroke:#000000; stroke-linecap:butt; stroke-linejoin:round; stroke-width:2; stroke-opacity:0.1; fill:none" points="
  807.375,1211.89 951.664,802.74 
  "/>
<polyline clip-path="url(#clip522)" style="stroke:#000000; stroke-linecap:butt; stroke-linejoin:round; stroke-width:2; stroke-opacity:0.1; fill:none" points="
  951.664,802.74 1769.96,874.885 
  "/>
<polyline clip-path="url(#clip522)" style="stroke:#000000; stroke-linecap:butt; stroke-linejoin:round; stroke-width:2; stroke-opacity:0.1; fill:none" points="
  807.375,1119.68 951.664,710.527 
  "/>
<polyline clip-path="url(#clip522)" style="stroke:#000000; stroke-linecap:butt; stroke-linejoin:round; stroke-width:2; stroke-opacity:0.1; fill:none" points="
  951.664,710.527 1769.96,782.671 
  "/>
<polyline clip-path="url(#clip522)" style="stroke:#000000; stroke-linecap:butt; stroke-linejoin:round; stroke-width:2; stroke-opacity:0.1; fill:none" points="
  807.375,1027.46 951.664,618.314 
  "/>
<polyline clip-path="url(#clip522)" style="stroke:#000000; stroke-linecap:butt; stroke-linejoin:round; stroke-width:2; stroke-opacity:0.1; fill:none" points="
  951.664,618.314 1769.96,690.458 
  "/>
<polyline clip-path="url(#clip522)" style="stroke:#000000; stroke-linecap:butt; stroke-linejoin:round; stroke-width:2; stroke-opacity:0.1; fill:none" points="
  807.375,935.251 951.664,526.101 
  "/>
<polyline clip-path="url(#clip522)" style="stroke:#000000; stroke-linecap:butt; stroke-linejoin:round; stroke-width:2; stroke-opacity:0.1; fill:none" points="
  951.664,526.101 1769.96,598.245 
  "/>
<polyline clip-path="url(#clip522)" style="stroke:#000000; stroke-linecap:butt; stroke-linejoin:round; stroke-width:2; stroke-opacity:0.1; fill:none" points="
  807.375,843.038 951.664,433.888 
  "/>
<polyline clip-path="url(#clip522)" style="stroke:#000000; stroke-linecap:butt; stroke-linejoin:round; stroke-width:2; stroke-opacity:0.1; fill:none" points="
  951.664,433.888 1769.96,506.032 
  "/>
<polyline clip-path="url(#clip522)" style="stroke:#000000; stroke-linecap:butt; stroke-linejoin:round; stroke-width:2; stroke-opacity:0.1; fill:none" points="
  807.375,750.825 951.664,341.674 
  "/>
<polyline clip-path="url(#clip522)" style="stroke:#000000; stroke-linecap:butt; stroke-linejoin:round; stroke-width:2; stroke-opacity:0.1; fill:none" points="
  951.664,341.674 1769.96,413.819 
  "/>
<polyline clip-path="url(#clip522)" style="stroke:#000000; stroke-linecap:butt; stroke-linejoin:round; stroke-width:2; stroke-opacity:0.1; fill:none" points="
  807.375,658.612 951.664,249.461 
  "/>
<polyline clip-path="url(#clip522)" style="stroke:#000000; stroke-linecap:butt; stroke-linejoin:round; stroke-width:2; stroke-opacity:0.1; fill:none" points="
  951.664,249.461 1769.96,321.605 
  "/>
<polyline clip-path="url(#clip520)" style="stroke:#000000; stroke-linecap:butt; stroke-linejoin:round; stroke-width:4; stroke-opacity:1; fill:none" points="
  807.375,1295.15 807.375,575.548 
  "/>
<polyline clip-path="url(#clip520)" style="stroke:#000000; stroke-linecap:butt; stroke-linejoin:round; stroke-width:4; stroke-opacity:1; fill:none" points="
  807.375,1211.89 809.107,1206.98 
  "/>
<polyline clip-path="url(#clip520)" style="stroke:#000000; stroke-linecap:butt; stroke-linejoin:round; stroke-width:4; stroke-opacity:1; fill:none" points="
  807.375,1119.68 809.107,1114.77 
  "/>
<polyline clip-path="url(#clip520)" style="stroke:#000000; stroke-linecap:butt; stroke-linejoin:round; stroke-width:4; stroke-opacity:1; fill:none" points="
  807.375,1027.46 809.107,1022.55 
  "/>
<polyline clip-path="url(#clip520)" style="stroke:#000000; stroke-linecap:butt; stroke-linejoin:round; stroke-width:4; stroke-opacity:1; fill:none" points="
  807.375,935.251 809.107,930.341 
  "/>
<polyline clip-path="url(#clip520)" style="stroke:#000000; stroke-linecap:butt; stroke-linejoin:round; stroke-width:4; stroke-opacity:1; fill:none" points="
  807.375,843.038 809.107,838.128 
  "/>
<polyline clip-path="url(#clip520)" style="stroke:#000000; stroke-linecap:butt; stroke-linejoin:round; stroke-width:4; stroke-opacity:1; fill:none" points="
  807.375,750.825 809.107,745.915 
  "/>
<polyline clip-path="url(#clip520)" style="stroke:#000000; stroke-linecap:butt; stroke-linejoin:round; stroke-width:4; stroke-opacity:1; fill:none" points="
  807.375,658.612 809.107,653.702 
  "/>
<path clip-path="url(#clip520)" d="M641.307 1212.34 L670.983 1212.34 L670.983 1216.28 L641.307 1216.28 L641.307 1212.34 Z" fill="#000000" fill-rule="evenodd" fill-opacity="1" /><path clip-path="url(#clip520)" d="M691.076 1197.69 Q687.465 1197.69 685.636 1201.25 Q683.83 1204.8 683.83 1211.93 Q683.83 1219.03 685.636 1222.6 Q687.465 1226.14 691.076 1226.14 Q694.71 1226.14 696.515 1222.6 Q698.344 1219.03 698.344 1211.93 Q698.344 1204.8 696.515 1201.25 Q694.71 1197.69 691.076 1197.69 M691.076 1193.99 Q696.886 1193.99 699.941 1198.59 Q703.02 1203.18 703.02 1211.93 Q703.02 1220.65 699.941 1225.26 Q696.886 1229.84 691.076 1229.84 Q685.265 1229.84 682.187 1225.26 Q679.131 1220.65 679.131 1211.93 Q679.131 1203.18 682.187 1198.59 Q685.265 1193.99 691.076 1193.99 Z" fill="#000000" fill-rule="evenodd" fill-opacity="1" /><path clip-path="url(#clip520)" d="M711.238 1223.29 L716.122 1223.29 L716.122 1229.17 L711.238 1229.17 L711.238 1223.29 Z" fill="#000000" fill-rule="evenodd" fill-opacity="1" /><path clip-path="url(#clip520)" d="M736.307 1197.69 Q732.696 1197.69 730.867 1201.25 Q729.062 1204.8 729.062 1211.93 Q729.062 1219.03 730.867 1222.6 Q732.696 1226.14 736.307 1226.14 Q739.941 1226.14 741.747 1222.6 Q743.575 1219.03 743.575 1211.93 Q743.575 1204.8 741.747 1201.25 Q739.941 1197.69 736.307 1197.69 M736.307 1193.99 Q742.117 1193.99 745.173 1198.59 Q748.251 1203.18 748.251 1211.93 Q748.251 1220.65 745.173 1225.26 Q742.117 1229.84 736.307 1229.84 Q730.497 1229.84 727.418 1225.26 Q724.362 1220.65 724.362 1211.93 Q724.362 1203.18 727.418 1198.59 Q730.497 1193.99 736.307 1193.99 Z" fill="#000000" fill-rule="evenodd" fill-opacity="1" /><path clip-path="url(#clip520)" d="M767.047 1210.03 Q763.899 1210.03 762.047 1212.18 Q760.219 1214.33 760.219 1218.08 Q760.219 1221.81 762.047 1223.99 Q763.899 1226.14 767.047 1226.14 Q770.196 1226.14 772.024 1223.99 Q773.876 1221.81 773.876 1218.08 Q773.876 1214.33 772.024 1212.18 Q770.196 1210.03 767.047 1210.03 M776.33 1195.37 L776.33 1199.63 Q774.571 1198.8 772.765 1198.36 Q770.983 1197.92 769.223 1197.92 Q764.594 1197.92 762.14 1201.05 Q759.709 1204.17 759.362 1210.49 Q760.728 1208.48 762.788 1207.41 Q764.848 1206.32 767.325 1206.32 Q772.533 1206.32 775.543 1209.49 Q778.575 1212.64 778.575 1218.08 Q778.575 1223.41 775.427 1226.62 Q772.279 1229.84 767.047 1229.84 Q761.052 1229.84 757.881 1225.26 Q754.71 1220.65 754.71 1211.93 Q754.71 1203.73 758.598 1198.87 Q762.487 1193.99 769.038 1193.99 Q770.797 1193.99 772.58 1194.33 Q774.385 1194.68 776.33 1195.37 Z" fill="#000000" fill-rule="evenodd" fill-opacity="1" /><path clip-path="url(#clip520)" d="M640.983 1120.13 L670.659 1120.13 L670.659 1124.06 L640.983 1124.06 L640.983 1120.13 Z" fill="#000000" fill-rule="evenodd" fill-opacity="1" /><path clip-path="url(#clip520)" d="M690.752 1105.48 Q687.14 1105.48 685.312 1109.04 Q683.506 1112.58 683.506 1119.71 Q683.506 1126.82 685.312 1130.38 Q687.14 1133.93 690.752 1133.93 Q694.386 1133.93 696.191 1130.38 Q698.02 1126.82 698.02 1119.71 Q698.02 1112.58 696.191 1109.04 Q694.386 1105.48 690.752 1105.48 M690.752 1101.77 Q696.562 1101.77 699.617 1106.38 Q702.696 1110.96 702.696 1119.71 Q702.696 1128.44 699.617 1133.05 Q696.562 1137.63 690.752 1137.63 Q684.941 1137.63 681.863 1133.05 Q678.807 1128.44 678.807 1119.71 Q678.807 1110.96 681.863 1106.38 Q684.941 1101.77 690.752 1101.77 Z" fill="#000000" fill-rule="evenodd" fill-opacity="1" /><path clip-path="url(#clip520)" d="M710.913 1131.08 L715.798 1131.08 L715.798 1136.96 L710.913 1136.96 L710.913 1131.08 Z" fill="#000000" fill-rule="evenodd" fill-opacity="1" /><path clip-path="url(#clip520)" d="M735.983 1105.48 Q732.372 1105.48 730.543 1109.04 Q728.737 1112.58 728.737 1119.71 Q728.737 1126.82 730.543 1130.38 Q732.372 1133.93 735.983 1133.93 Q739.617 1133.93 741.423 1130.38 Q743.251 1126.82 743.251 1119.71 Q743.251 1112.58 741.423 1109.04 Q739.617 1105.48 735.983 1105.48 M735.983 1101.77 Q741.793 1101.77 744.848 1106.38 Q747.927 1110.96 747.927 1119.71 Q747.927 1128.44 744.848 1133.05 Q741.793 1137.63 735.983 1137.63 Q730.173 1137.63 727.094 1133.05 Q724.038 1128.44 724.038 1119.71 Q724.038 1110.96 727.094 1106.38 Q730.173 1101.77 735.983 1101.77 Z" fill="#000000" fill-rule="evenodd" fill-opacity="1" /><path clip-path="url(#clip520)" d="M768.992 1106.47 L757.186 1124.92 L768.992 1124.92 L768.992 1106.47 M767.765 1102.4 L773.645 1102.4 L773.645 1124.92 L778.575 1124.92 L778.575 1128.81 L773.645 1128.81 L773.645 1136.96 L768.992 1136.96 L768.992 1128.81 L753.39 1128.81 L753.39 1124.3 L767.765 1102.4 Z" fill="#000000" fill-rule="evenodd" fill-opacity="1" /><path clip-path="url(#clip520)" d="M643.067 1027.92 L672.742 1027.92 L672.742 1031.85 L643.067 1031.85 L643.067 1027.92 Z" fill="#000000" fill-rule="evenodd" fill-opacity="1" /><path clip-path="url(#clip520)" d="M692.835 1013.26 Q689.224 1013.26 687.395 1016.83 Q685.59 1020.37 685.59 1027.5 Q685.59 1034.61 687.395 1038.17 Q689.224 1041.71 692.835 1041.71 Q696.469 1041.71 698.275 1038.17 Q700.103 1034.61 700.103 1027.5 Q700.103 1020.37 698.275 1016.83 Q696.469 1013.26 692.835 1013.26 M692.835 1009.56 Q698.645 1009.56 701.701 1014.17 Q704.779 1018.75 704.779 1027.5 Q704.779 1036.23 701.701 1040.83 Q698.645 1045.42 692.835 1045.42 Q687.025 1045.42 683.946 1040.83 Q680.89 1036.23 680.89 1027.5 Q680.89 1018.75 683.946 1014.17 Q687.025 1009.56 692.835 1009.56 Z" fill="#000000" fill-rule="evenodd" fill-opacity="1" /><path clip-path="url(#clip520)" d="M712.997 1038.86 L717.881 1038.86 L717.881 1044.74 L712.997 1044.74 L712.997 1038.86 Z" fill="#000000" fill-rule="evenodd" fill-opacity="1" /><path clip-path="url(#clip520)" d="M738.066 1013.26 Q734.455 1013.26 732.626 1016.83 Q730.821 1020.37 730.821 1027.5 Q730.821 1034.61 732.626 1038.17 Q734.455 1041.71 738.066 1041.71 Q741.7 1041.71 743.506 1038.17 Q745.335 1034.61 745.335 1027.5 Q745.335 1020.37 743.506 1016.83 Q741.7 1013.26 738.066 1013.26 M738.066 1009.56 Q743.876 1009.56 746.932 1014.17 Q750.01 1018.75 750.01 1027.5 Q750.01 1036.23 746.932 1040.83 Q743.876 1045.42 738.066 1045.42 Q732.256 1045.42 729.177 1040.83 Q726.122 1036.23 726.122 1027.5 Q726.122 1018.75 729.177 1014.17 Q732.256 1009.56 738.066 1009.56 Z" fill="#000000" fill-rule="evenodd" fill-opacity="1" /><path clip-path="url(#clip520)" d="M762.256 1040.81 L778.575 1040.81 L778.575 1044.74 L756.631 1044.74 L756.631 1040.81 Q759.293 1038.05 763.876 1033.43 Q768.483 1028.77 769.663 1027.43 Q771.908 1024.91 772.788 1023.17 Q773.691 1021.41 773.691 1019.72 Q773.691 1016.97 771.746 1015.23 Q769.825 1013.49 766.723 1013.49 Q764.524 1013.49 762.071 1014.26 Q759.64 1015.02 756.862 1016.57 L756.862 1011.85 Q759.686 1010.72 762.14 1010.14 Q764.594 1009.56 766.631 1009.56 Q772.001 1009.56 775.196 1012.24 Q778.39 1014.93 778.39 1019.42 Q778.39 1021.55 777.58 1023.47 Q776.793 1025.37 774.686 1027.96 Q774.108 1028.63 771.006 1031.85 Q767.904 1035.05 762.256 1040.81 Z" fill="#000000" fill-rule="evenodd" fill-opacity="1" /><path clip-path="url(#clip520)" d="M691.238 921.05 Q687.627 921.05 685.798 924.615 Q683.992 928.156 683.992 935.286 Q683.992 942.392 685.798 945.957 Q687.627 949.499 691.238 949.499 Q694.872 949.499 696.677 945.957 Q698.506 942.392 698.506 935.286 Q698.506 928.156 696.677 924.615 Q694.872 921.05 691.238 921.05 M691.238 917.346 Q697.048 917.346 700.103 921.953 Q703.182 926.536 703.182 935.286 Q703.182 944.013 700.103 948.619 Q697.048 953.203 691.238 953.203 Q685.427 953.203 682.349 948.619 Q679.293 944.013 679.293 935.286 Q679.293 926.536 682.349 921.953 Q685.427 917.346 691.238 917.346 Z" fill="#000000" fill-rule="evenodd" fill-opacity="1" /><path clip-path="url(#clip520)" d="M711.4 946.652 L716.284 946.652 L716.284 952.531 L711.4 952.531 L711.4 946.652 Z" fill="#000000" fill-rule="evenodd" fill-opacity="1" /><path clip-path="url(#clip520)" d="M736.469 921.05 Q732.858 921.05 731.029 924.615 Q729.224 928.156 729.224 935.286 Q729.224 942.392 731.029 945.957 Q732.858 949.499 736.469 949.499 Q740.103 949.499 741.909 945.957 Q743.737 942.392 743.737 935.286 Q743.737 928.156 741.909 924.615 Q740.103 921.05 736.469 921.05 M736.469 917.346 Q742.279 917.346 745.335 921.953 Q748.413 926.536 748.413 935.286 Q748.413 944.013 745.335 948.619 Q742.279 953.203 736.469 953.203 Q730.659 953.203 727.58 948.619 Q724.524 944.013 724.524 935.286 Q724.524 926.536 727.58 921.953 Q730.659 917.346 736.469 917.346 Z" fill="#000000" fill-rule="evenodd" fill-opacity="1" /><path clip-path="url(#clip520)" d="M766.631 921.05 Q763.02 921.05 761.191 924.615 Q759.385 928.156 759.385 935.286 Q759.385 942.392 761.191 945.957 Q763.02 949.499 766.631 949.499 Q770.265 949.499 772.071 945.957 Q773.899 942.392 773.899 935.286 Q773.899 928.156 772.071 924.615 Q770.265 921.05 766.631 921.05 M766.631 917.346 Q772.441 917.346 775.496 921.953 Q778.575 926.536 778.575 935.286 Q778.575 944.013 775.496 948.619 Q772.441 953.203 766.631 953.203 Q760.821 953.203 757.742 948.619 Q754.686 944.013 754.686 935.286 Q754.686 926.536 757.742 921.953 Q760.821 917.346 766.631 917.346 Z" fill="#000000" fill-rule="evenodd" fill-opacity="1" /><path clip-path="url(#clip520)" d="M692.835 828.837 Q689.224 828.837 687.395 832.402 Q685.59 835.943 685.59 843.073 Q685.59 850.179 687.395 853.744 Q689.224 857.286 692.835 857.286 Q696.469 857.286 698.275 853.744 Q700.103 850.179 700.103 843.073 Q700.103 835.943 698.275 832.402 Q696.469 828.837 692.835 828.837 M692.835 825.133 Q698.645 825.133 701.701 829.74 Q704.779 834.323 704.779 843.073 Q704.779 851.8 701.701 856.406 Q698.645 860.989 692.835 860.989 Q687.025 860.989 683.946 856.406 Q680.89 851.8 680.89 843.073 Q680.89 834.323 683.946 829.74 Q687.025 825.133 692.835 825.133 Z" fill="#000000" fill-rule="evenodd" fill-opacity="1" /><path clip-path="url(#clip520)" d="M712.997 854.439 L717.881 854.439 L717.881 860.318 L712.997 860.318 L712.997 854.439 Z" fill="#000000" fill-rule="evenodd" fill-opacity="1" /><path clip-path="url(#clip520)" d="M738.066 828.837 Q734.455 828.837 732.626 832.402 Q730.821 835.943 730.821 843.073 Q730.821 850.179 732.626 853.744 Q734.455 857.286 738.066 857.286 Q741.7 857.286 743.506 853.744 Q745.335 850.179 745.335 843.073 Q745.335 835.943 743.506 832.402 Q741.7 828.837 738.066 828.837 M738.066 825.133 Q743.876 825.133 746.932 829.74 Q750.01 834.323 750.01 843.073 Q750.01 851.8 746.932 856.406 Q743.876 860.989 738.066 860.989 Q732.256 860.989 729.177 856.406 Q726.122 851.8 726.122 843.073 Q726.122 834.323 729.177 829.74 Q732.256 825.133 738.066 825.133 Z" fill="#000000" fill-rule="evenodd" fill-opacity="1" /><path clip-path="url(#clip520)" d="M762.256 856.383 L778.575 856.383 L778.575 860.318 L756.631 860.318 L756.631 856.383 Q759.293 853.628 763.876 848.999 Q768.483 844.346 769.663 843.003 Q771.908 840.48 772.788 838.744 Q773.691 836.985 773.691 835.295 Q773.691 832.54 771.746 830.804 Q769.825 829.068 766.723 829.068 Q764.524 829.068 762.071 829.832 Q759.64 830.596 756.862 832.147 L756.862 827.425 Q759.686 826.291 762.14 825.712 Q764.594 825.133 766.631 825.133 Q772.001 825.133 775.196 827.818 Q778.39 830.503 778.39 834.994 Q778.39 837.124 777.58 839.045 Q776.793 840.943 774.686 843.536 Q774.108 844.207 771.006 847.425 Q767.904 850.619 762.256 856.383 Z" fill="#000000" fill-rule="evenodd" fill-opacity="1" /><path clip-path="url(#clip520)" d="M690.752 736.624 Q687.14 736.624 685.312 740.188 Q683.506 743.73 683.506 750.86 Q683.506 757.966 685.312 761.531 Q687.14 765.073 690.752 765.073 Q694.386 765.073 696.191 761.531 Q698.02 757.966 698.02 750.86 Q698.02 743.73 696.191 740.188 Q694.386 736.624 690.752 736.624 M690.752 732.92 Q696.562 732.92 699.617 737.526 Q702.696 742.11 702.696 750.86 Q702.696 759.586 699.617 764.193 Q696.562 768.776 690.752 768.776 Q684.941 768.776 681.863 764.193 Q678.807 759.586 678.807 750.86 Q678.807 742.11 681.863 737.526 Q684.941 732.92 690.752 732.92 Z" fill="#000000" fill-rule="evenodd" fill-opacity="1" /><path clip-path="url(#clip520)" d="M710.913 762.225 L715.798 762.225 L715.798 768.105 L710.913 768.105 L710.913 762.225 Z" fill="#000000" fill-rule="evenodd" fill-opacity="1" /><path clip-path="url(#clip520)" d="M735.983 736.624 Q732.372 736.624 730.543 740.188 Q728.737 743.73 728.737 750.86 Q728.737 757.966 730.543 761.531 Q732.372 765.073 735.983 765.073 Q739.617 765.073 741.423 761.531 Q743.251 757.966 743.251 750.86 Q743.251 743.73 741.423 740.188 Q739.617 736.624 735.983 736.624 M735.983 732.92 Q741.793 732.92 744.848 737.526 Q747.927 742.11 747.927 750.86 Q747.927 759.586 744.848 764.193 Q741.793 768.776 735.983 768.776 Q730.173 768.776 727.094 764.193 Q724.038 759.586 724.038 750.86 Q724.038 742.11 727.094 737.526 Q730.173 732.92 735.983 732.92 Z" fill="#000000" fill-rule="evenodd" fill-opacity="1" /><path clip-path="url(#clip520)" d="M768.992 737.619 L757.186 756.068 L768.992 756.068 L768.992 737.619 M767.765 733.545 L773.645 733.545 L773.645 756.068 L778.575 756.068 L778.575 759.957 L773.645 759.957 L773.645 768.105 L768.992 768.105 L768.992 759.957 L753.39 759.957 L753.39 755.443 L767.765 733.545 Z" fill="#000000" fill-rule="evenodd" fill-opacity="1" /><path clip-path="url(#clip520)" d="M691.076 644.41 Q687.465 644.41 685.636 647.975 Q683.83 651.517 683.83 658.646 Q683.83 665.753 685.636 669.318 Q687.465 672.859 691.076 672.859 Q694.71 672.859 696.515 669.318 Q698.344 665.753 698.344 658.646 Q698.344 651.517 696.515 647.975 Q694.71 644.41 691.076 644.41 M691.076 640.707 Q696.886 640.707 699.941 645.313 Q703.02 649.897 703.02 658.646 Q703.02 667.373 699.941 671.98 Q696.886 676.563 691.076 676.563 Q685.265 676.563 682.187 671.98 Q679.131 667.373 679.131 658.646 Q679.131 649.897 682.187 645.313 Q685.265 640.707 691.076 640.707 Z" fill="#000000" fill-rule="evenodd" fill-opacity="1" /><path clip-path="url(#clip520)" d="M711.238 670.012 L716.122 670.012 L716.122 675.892 L711.238 675.892 L711.238 670.012 Z" fill="#000000" fill-rule="evenodd" fill-opacity="1" /><path clip-path="url(#clip520)" d="M736.307 644.41 Q732.696 644.41 730.867 647.975 Q729.062 651.517 729.062 658.646 Q729.062 665.753 730.867 669.318 Q732.696 672.859 736.307 672.859 Q739.941 672.859 741.747 669.318 Q743.575 665.753 743.575 658.646 Q743.575 651.517 741.747 647.975 Q739.941 644.41 736.307 644.41 M736.307 640.707 Q742.117 640.707 745.173 645.313 Q748.251 649.897 748.251 658.646 Q748.251 667.373 745.173 671.98 Q742.117 676.563 736.307 676.563 Q730.497 676.563 727.418 671.98 Q724.362 667.373 724.362 658.646 Q724.362 649.897 727.418 645.313 Q730.497 640.707 736.307 640.707 Z" fill="#000000" fill-rule="evenodd" fill-opacity="1" /><path clip-path="url(#clip520)" d="M767.047 656.748 Q763.899 656.748 762.047 658.901 Q760.219 661.054 760.219 664.804 Q760.219 668.531 762.047 670.707 Q763.899 672.859 767.047 672.859 Q770.196 672.859 772.024 670.707 Q773.876 668.531 773.876 664.804 Q773.876 661.054 772.024 658.901 Q770.196 656.748 767.047 656.748 M776.33 642.096 L776.33 646.355 Q774.571 645.522 772.765 645.082 Q770.983 644.642 769.223 644.642 Q764.594 644.642 762.14 647.767 Q759.709 650.892 759.362 657.211 Q760.728 655.197 762.788 654.133 Q764.848 653.045 767.325 653.045 Q772.533 653.045 775.543 656.216 Q778.575 659.364 778.575 664.804 Q778.575 670.128 775.427 673.345 Q772.279 676.563 767.047 676.563 Q761.052 676.563 757.881 671.98 Q754.71 667.373 754.71 658.646 Q754.71 650.452 758.598 645.591 Q762.487 640.707 769.038 640.707 Q770.797 640.707 772.58 641.054 Q774.385 641.401 776.33 642.096 Z" fill="#000000" fill-rule="evenodd" fill-opacity="1" /><polyline clip-path="url(#clip522)" style="stroke:#0000ff; stroke-linecap:butt; stroke-linejoin:round; stroke-width:4; stroke-opacity:1; fill:none" points="
  834.618,869.814 857.509,939.932 880.401,1007.42 903.296,1069.05 926.208,1123.72 949.179,1170.61 972.367,1208.81 996.291,1236.49 1022.07,1249.77 1050.05,1246.8 
  1078.2,1235.91 1104.28,1226.59 1128.37,1217.53 1151.61,1204.98 1174.59,1187.76 1197.51,1165.97 1220.4,1140.11 1243.28,1110.77 1266.14,1078.56 1288.9,1044.28 
  1311.29,1009.25 1332.43,976.678 1350.37,951.752 1365.1,933.377 1381.51,911.72 1401.69,881.508 1423.78,846.869 1446.45,812.083 1469.28,778.986 1492.15,748.48 
  1515.04,721.238 1537.93,697.888 1560.82,679.057 1583.71,665.38 1606.6,654.437 
  "/>
<polyline clip-path="url(#clip522)" style="stroke:#0000ff; stroke-linecap:butt; stroke-linejoin:round; stroke-width:4; stroke-opacity:1; fill:none" points="
  834.773,869.374 857.664,939.492 880.555,1006.98 903.451,1068.6 926.362,1123.28 949.333,1170.17 972.52,1208.37 996.443,1236.05 1022.22,1249.35 1050.2,1246.39 
  1078.33,1235.53 1104.41,1226.22 1128.5,1217.16 1151.74,1204.61 1174.72,1187.39 1197.64,1165.6 1220.53,1139.74 1243.41,1110.4 1266.27,1078.2 1289.03,1043.91 
  1311.42,1008.88 1332.57,976.305 1350.5,951.364 1365.25,932.966 1381.66,911.29 1401.85,881.069 1423.93,846.428 1446.6,811.641 1469.44,778.544 1492.31,748.039 
  1515.2,720.798 1538.09,697.448 1560.98,678.617 1583.87,664.94 1606.76,653.997 
  "/>
<polyline clip-path="url(#clip522)" style="stroke:#0000ff; stroke-linecap:butt; stroke-linejoin:round; stroke-width:4; stroke-opacity:1; fill:none" points="
  834.964,868.834 857.854,938.951 880.745,1006.44 903.64,1068.06 926.552,1122.74 949.521,1169.63 972.708,1207.83 996.629,1235.52 1022.4,1248.82 1050.37,1245.9 
  1078.5,1235.06 1104.58,1225.76 1128.66,1216.71 1151.9,1204.16 1174.88,1186.94 1197.8,1165.15 1220.69,1139.29 1243.57,1109.95 1266.43,1077.75 1289.18,1043.46 
  1311.58,1008.43 1332.73,975.847 1350.67,950.887 1365.43,932.461 1381.85,910.761 1402.04,880.53 1424.12,845.886 1446.8,811.099 1469.63,778.002 1492.5,747.498 
  1515.39,720.257 1538.28,696.907 1561.17,678.077 1584.06,664.4 1606.95,653.458 
  "/>
<polyline clip-path="url(#clip522)" style="stroke:#0000ff; stroke-linecap:butt; stroke-linejoin:round; stroke-width:4; stroke-opacity:1; fill:none" points="
  835.197,868.171 858.087,938.287 880.978,1005.78 903.873,1067.4 926.784,1122.07 949.754,1168.96 972.94,1207.16 996.858,1234.86 1022.63,1248.18 1050.58,1245.29 
  1078.71,1234.48 1104.78,1225.2 1128.86,1216.15 1152.09,1203.6 1175.08,1186.38 1197.99,1164.6 1220.89,1138.74 1243.77,1109.4 1266.62,1077.2 1289.38,1042.91 
  1311.78,1007.87 1332.92,975.284 1350.88,950.302 1365.65,931.84 1382.08,910.112 1402.27,879.868 1424.36,845.22 1447.03,810.433 1469.86,777.337 1492.74,746.833 
  1515.62,719.592 1538.51,696.243 1561.4,677.414 1584.29,663.737 1607.18,652.795 
  "/>
<polyline clip-path="url(#clip522)" style="stroke:#0000ff; stroke-linecap:butt; stroke-linejoin:round; stroke-width:4; stroke-opacity:1; fill:none" points="
  835.485,867.357 858.374,937.472 881.265,1004.96 904.159,1066.58 927.069,1121.26 950.038,1168.15 973.223,1206.35 997.14,1234.05 1022.9,1247.4 1050.85,1244.54 
  1078.96,1233.77 1105.02,1224.51 1129.1,1215.47 1152.33,1202.92 1175.32,1185.71 1198.23,1163.92 1221.13,1138.06 1244.01,1108.72 1266.86,1076.52 1289.62,1042.23 
  1312.01,1007.19 1333.17,974.594 1351.13,949.583 1365.92,931.079 1382.36,909.315 1402.56,879.055 1424.65,844.403 1447.32,809.615 1470.15,776.52 1493.03,746.016 
  1515.91,718.777 1538.8,695.428 1561.69,676.599 1584.58,662.923 1607.47,651.981 
  "/>
<polyline clip-path="url(#clip522)" style="stroke:#0000ff; stroke-linecap:butt; stroke-linejoin:round; stroke-width:4; stroke-opacity:1; fill:none" points="
  835.837,866.359 858.726,936.472 881.616,1003.96 904.51,1065.58 927.42,1120.25 950.388,1167.14 973.572,1205.35 997.485,1233.06 1023.24,1246.43 1051.17,1243.62 
  1079.27,1232.9 1105.32,1223.66 1129.39,1214.63 1152.63,1202.09 1175.61,1184.87 1198.53,1163.09 1221.42,1137.23 1244.3,1107.89 1267.15,1075.69 1289.91,1041.4 
  1312.31,1006.36 1333.46,973.746 1351.44,948.701 1366.25,930.144 1382.71,908.337 1402.92,878.058 1425.01,843.401 1447.68,808.612 1470.51,775.517 1493.38,745.015 
  1516.27,717.776 1539.15,694.428 1562.04,675.6 1584.93,661.924 1607.82,650.982 
  "/>
<polyline clip-path="url(#clip522)" style="stroke:#0000ff; stroke-linecap:butt; stroke-linejoin:round; stroke-width:4; stroke-opacity:1; fill:none" points="
  836.269,865.134 859.157,935.246 882.046,1002.73 904.94,1064.35 927.849,1119.02 950.816,1165.91 973.999,1204.12 997.908,1231.84 1023.65,1245.24 1051.57,1242.49 
  1079.65,1231.83 1105.69,1222.63 1129.76,1213.61 1152.99,1201.07 1175.97,1183.85 1198.89,1162.07 1221.78,1136.21 1244.66,1106.87 1267.51,1074.67 1290.27,1040.38 
  1312.67,1005.33 1333.83,972.707 1351.82,947.619 1366.65,928.999 1383.14,907.138 1403.35,876.835 1425.44,842.172 1448.11,807.382 1470.94,774.288 1493.82,743.786 
  1516.7,716.549 1539.59,693.202 1562.47,674.374 1585.36,660.699 1608.25,649.758 
  "/>
<polyline clip-path="url(#clip522)" style="stroke:#0000ff; stroke-linecap:butt; stroke-linejoin:round; stroke-width:4; stroke-opacity:1; fill:none" points="
  836.798,863.633 859.685,933.743 882.574,1001.23 905.467,1062.84 928.375,1117.52 951.342,1164.41 974.522,1202.62 998.427,1230.35 1024.16,1243.79 1052.05,1241.11 
  1080.11,1230.52 1106.14,1221.36 1130.21,1212.35 1153.44,1199.81 1176.42,1182.6 1199.33,1160.81 1222.22,1134.95 1245.1,1105.61 1267.95,1073.42 1290.71,1039.13 
  1313.11,1004.08 1334.28,971.433 1352.29,946.293 1367.15,927.595 1383.66,905.669 1403.88,875.336 1425.97,840.665 1448.65,805.875 1471.48,772.781 1494.35,742.281 
  1517.23,715.045 1540.12,691.699 1563.01,672.872 1585.89,659.198 1608.78,648.257 
  "/>
<polyline clip-path="url(#clip522)" style="stroke:#0000ff; stroke-linecap:butt; stroke-linejoin:round; stroke-width:4; stroke-opacity:1; fill:none" points="
  837.446,861.795 860.333,931.903 883.22,999.383 906.112,1061 929.02,1115.67 951.985,1162.56 975.163,1200.78 999.062,1228.53 1024.78,1242.01 1052.65,1239.42 
  1080.68,1228.92 1106.7,1219.8 1130.75,1210.81 1153.98,1198.28 1176.96,1181.06 1199.87,1159.28 1222.76,1133.42 1245.64,1104.08 1268.49,1071.89 1291.25,1037.6 
  1313.65,1002.54 1334.83,969.873 1352.86,944.67 1367.76,925.875 1384.3,903.87 1404.53,873.501 1426.63,838.82 1449.3,804.029 1472.13,770.936 1495,740.438 
  1517.88,713.203 1540.77,689.859 1563.66,671.033 1586.54,657.359 1609.43,646.42 
  "/>
<polyline clip-path="url(#clip522)" style="stroke:#0000ff; stroke-linecap:butt; stroke-linejoin:round; stroke-width:4; stroke-opacity:1; fill:none" points="
  838.239,859.547 861.124,929.651 884.011,997.129 906.902,1058.74 929.808,1113.42 952.772,1160.31 975.947,1198.53 999.838,1226.3 1025.54,1239.84 1053.38,1237.35 
  1081.38,1226.96 1107.37,1217.9 1131.42,1208.93 1154.65,1196.4 1177.62,1179.19 1200.53,1157.41 1223.42,1131.55 1246.3,1102.21 1269.15,1070.01 1291.91,1035.73 
  1314.31,1000.66 1335.5,967.965 1353.56,942.684 1368.5,923.772 1385.08,901.669 1405.33,871.256 1427.43,836.563 1450.1,801.771 1472.93,768.68 1495.8,738.183 
  1518.68,710.95 1541.57,687.608 1564.45,668.784 1587.34,655.111 1610.22,644.172 
  "/>
<polyline clip-path="url(#clip522)" style="stroke:#0000ff; stroke-linecap:butt; stroke-linejoin:round; stroke-width:4; stroke-opacity:1; fill:none" points="
  839.207,856.8 862.092,926.901 884.977,994.375 907.867,1055.99 930.771,1110.66 953.733,1157.55 976.905,1195.78 1000.79,1223.57 1026.47,1237.18 1054.27,1234.82 
  1082.23,1224.56 1108.2,1215.58 1132.24,1206.63 1155.46,1194.1 1178.44,1176.89 1201.34,1155.11 1224.23,1129.26 1247.11,1099.92 1269.96,1067.72 1292.71,1033.44 
  1315.12,998.366 1336.32,965.634 1354.41,940.258 1369.41,921.202 1386.03,898.98 1406.3,868.513 1428.4,833.806 1451.08,799.012 1473.91,765.922 1496.77,735.428 
  1519.65,708.198 1542.54,684.857 1565.42,666.035 1588.31,652.363 1611.19,641.425 
  "/>
<polyline clip-path="url(#clip522)" style="stroke:#0000ff; stroke-linecap:butt; stroke-linejoin:round; stroke-width:4; stroke-opacity:1; fill:none" points="
  840.389,853.449 863.272,923.545 886.156,991.015 909.043,1052.62 931.946,1107.29 954.906,1154.19 978.073,1192.42 1001.95,1220.25 1027.6,1233.94 1055.35,1231.74 
  1083.27,1221.64 1109.21,1212.74 1133.23,1203.82 1156.45,1191.3 1179.43,1174.1 1202.33,1152.32 1225.22,1126.46 1248.09,1097.13 1270.94,1064.93 1293.7,1030.64 
  1316.11,995.564 1337.31,962.789 1355.45,937.298 1370.52,918.066 1387.2,895.699 1407.49,865.166 1429.6,830.442 1452.27,795.646 1475.1,762.558 1497.96,732.067 
  1520.84,704.839 1543.72,681.502 1566.61,662.682 1589.49,649.011 1612.37,638.074 
  "/>
<polyline clip-path="url(#clip522)" style="stroke:#0000ff; stroke-linecap:butt; stroke-linejoin:round; stroke-width:4; stroke-opacity:1; fill:none" points="
  841.828,849.368 864.709,919.458 887.591,986.923 910.477,1048.53 933.377,1103.2 956.334,1150.09 979.497,1188.34 1003.36,1216.2 1028.98,1229.99 1056.68,1227.98 
  1084.53,1218.08 1110.44,1209.29 1134.45,1200.4 1157.66,1187.9 1180.63,1170.69 1203.54,1148.91 1226.42,1123.06 1249.29,1093.73 1272.14,1061.53 1294.89,1027.24 
  1317.31,992.152 1338.53,959.325 1356.72,933.693 1371.88,914.248 1388.62,891.703 1408.93,861.09 1431.05,826.345 1453.72,791.546 1476.55,758.461 1499.41,727.973 
  1522.29,700.749 1545.17,677.415 1568.05,658.597 1590.93,644.929 1613.81,633.993 
  "/>
<polyline clip-path="url(#clip522)" style="stroke:#0000ff; stroke-linecap:butt; stroke-linejoin:round; stroke-width:4; stroke-opacity:1; fill:none" points="
  843.577,844.408 866.456,914.491 889.335,981.951 912.218,1043.55 935.116,1098.22 958.07,1145.11 981.226,1183.37 1005.07,1211.27 1030.65,1225.2 1058.28,1223.42 
  1086.07,1213.76 1111.93,1205.09 1135.92,1196.25 1159.13,1183.75 1182.1,1166.55 1205,1144.77 1227.88,1118.92 1250.75,1089.59 1273.6,1057.4 1296.35,1023.11 
  1318.77,988.005 1340.01,955.116 1358.26,929.313 1373.52,909.608 1390.34,886.848 1410.69,856.138 1432.81,821.367 1455.49,786.565 1478.31,753.482 1501.17,722.999 
  1524.05,695.779 1546.93,672.449 1569.8,653.635 1592.68,639.968 1615.56,629.035 
  "/>
<polyline clip-path="url(#clip522)" style="stroke:#0000ff; stroke-linecap:butt; stroke-linejoin:round; stroke-width:4; stroke-opacity:1; fill:none" points="
  845.697,838.397 868.572,908.472 891.449,975.924 914.329,1037.52 937.224,1092.18 960.173,1139.08 983.322,1177.35 1007.15,1205.31 1032.68,1219.38 1060.23,1217.88 
  1087.93,1208.51 1113.74,1200 1137.71,1191.21 1160.91,1178.73 1183.87,1161.53 1206.77,1139.76 1229.65,1113.91 1252.52,1084.58 1275.36,1052.4 1298.11,1018.1 
  1320.53,982.98 1341.8,950.015 1360.13,924.004 1375.51,903.984 1392.43,880.963 1412.82,850.135 1434.95,815.333 1457.62,780.527 1480.45,747.449 1503.31,716.97 
  1526.18,689.756 1549.05,666.43 1571.93,647.62 1594.8,633.956 1617.68,623.025 
  "/>
<polyline clip-path="url(#clip522)" style="stroke:#0000ff; stroke-linecap:butt; stroke-linejoin:round; stroke-width:4; stroke-opacity:1; fill:none" points="
  848.257,831.136 871.129,901.201 894.003,968.644 916.879,1030.23 939.77,1084.89 962.714,1131.79 985.854,1170.08 1009.66,1198.1 1035.13,1212.36 1062.58,1211.2 
  1090.18,1202.18 1115.93,1193.86 1139.87,1185.13 1163.06,1172.66 1186.02,1155.47 1208.91,1133.7 1231.79,1107.86 1254.65,1078.53 1277.49,1046.35 1300.24,1012.06 
  1322.67,976.909 1343.97,943.852 1362.38,917.59 1377.92,897.191 1394.95,873.854 1415.39,842.884 1437.53,808.044 1460.21,773.234 1483.03,740.16 1505.89,709.688 
  1528.75,682.48 1551.62,659.159 1574.5,640.354 1597.37,626.693 1620.24,615.764 
  "/>
<polyline clip-path="url(#clip522)" style="stroke:#0000ff; stroke-linecap:butt; stroke-linejoin:round; stroke-width:4; stroke-opacity:1; fill:none" points="
  851.339,822.398 874.207,892.451 897.075,959.884 919.948,1021.46 942.834,1076.12 965.772,1123.02 988.901,1161.34 1012.68,1189.43 1038.08,1203.9 1065.41,1203.16 
  1092.89,1194.56 1118.56,1186.47 1142.47,1177.81 1165.65,1165.36 1188.6,1148.18 1211.49,1126.41 1234.36,1100.57 1257.22,1071.25 1280.06,1039.07 1302.81,1004.78 
  1325.24,969.604 1346.57,936.436 1365.09,909.872 1380.81,889.016 1397.99,865.3 1418.48,834.158 1440.64,799.273 1463.32,764.457 1486.13,731.388 1508.99,700.924 
  1531.85,673.723 1554.72,650.41 1577.59,631.61 1600.45,617.954 1623.32,607.027 
  "/>
<polyline clip-path="url(#clip522)" style="stroke:#0000ff; stroke-linecap:butt; stroke-linejoin:round; stroke-width:4; stroke-opacity:1; fill:none" points="
  855.029,811.932 877.892,881.971 900.756,949.391 923.623,1010.96 946.504,1065.61 969.435,1112.52 992.551,1150.86 1016.29,1179.04 1041.61,1193.78 1068.8,1193.53 
  1096.13,1185.43 1121.71,1177.61 1145.59,1169.04 1168.75,1156.62 1191.69,1139.44 1214.57,1117.68 1237.44,1091.84 1260.29,1062.53 1283.13,1030.35 1305.88,996.056 
  1328.32,960.854 1349.7,927.553 1368.35,900.628 1384.28,879.224 1401.63,855.054 1422.19,823.707 1444.36,788.767 1467.04,753.945 1489.85,720.882 1512.7,690.427 
  1535.56,663.236 1558.42,639.931 1581.29,621.137 1604.15,607.486 1627.01,596.563 
  "/>
<polyline clip-path="url(#clip522)" style="stroke:#0000ff; stroke-linecap:butt; stroke-linejoin:round; stroke-width:4; stroke-opacity:1; fill:none" points="
  859.425,799.466 882.282,869.489 905.14,936.893 928.001,998.452 950.875,1053.1 973.797,1100.01 996.897,1138.38 1020.6,1166.67 1045.82,1181.72 1072.84,1182.06 
  1099.99,1174.56 1125.46,1167.06 1149.29,1158.6 1172.44,1146.21 1195.37,1129.04 1218.25,1107.28 1241.11,1081.45 1263.96,1052.14 1286.79,1019.97 1309.53,985.671 
  1331.99,950.433 1353.41,916.974 1372.22,889.619 1388.41,867.562 1405.96,842.851 1426.6,811.26 1448.8,776.254 1471.48,741.425 1494.28,708.37 1517.13,677.925 
  1539.98,650.745 1562.84,627.449 1585.69,608.664 1608.55,595.018 1631.41,584.1 
  "/>
<polyline clip-path="url(#clip522)" style="stroke:#0000ff; stroke-linecap:butt; stroke-linejoin:round; stroke-width:4; stroke-opacity:1; fill:none" points="
  864.625,784.719 887.475,854.721 910.326,922.107 933.18,983.653 956.046,1038.29 978.958,1085.21 1002.04,1123.61 1025.7,1152.03 1050.8,1167.46 1077.62,1168.48 
  1104.56,1161.7 1129.9,1154.58 1153.68,1146.25 1176.8,1133.89 1199.73,1116.73 1222.6,1094.98 1245.45,1069.15 1268.29,1039.85 1291.11,1007.69 1313.86,973.385 
  1336.32,938.103 1357.81,904.457 1376.8,876.593 1393.29,853.764 1411.08,828.413 1431.82,796.533 1454.04,761.45 1476.72,726.612 1499.53,693.565 1522.36,663.134 
  1545.21,635.966 1568.06,612.682 1590.91,593.906 1613.76,580.267 1636.61,569.354 
  "/>
<polyline clip-path="url(#clip522)" style="stroke:#0000ff; stroke-linecap:butt; stroke-linejoin:round; stroke-width:4; stroke-opacity:1; fill:none" points="
  870.73,767.407 893.571,837.386 916.414,904.751 939.259,966.281 962.116,1020.91 985.016,1067.84 1008.08,1106.28 1031.68,1134.85 1056.64,1150.71 1083.22,1152.55 
  1109.92,1146.6 1135.11,1139.94 1158.83,1131.75 1181.93,1119.43 1204.84,1102.28 1227.7,1080.53 1250.55,1054.72 1273.38,1025.42 1296.2,993.268 1318.94,958.963 
  1341.42,923.63 1362.97,889.765 1382.17,861.303 1399.02,837.568 1417.1,811.465 1437.95,779.246 1460.2,744.073 1482.88,709.225 1505.68,676.188 1528.51,645.771 
  1551.35,618.619 1574.19,595.349 1597.03,576.584 1619.87,562.952 1642.71,552.045 
  "/>
<polyline clip-path="url(#clip522)" style="stroke:#0000ff; stroke-linecap:butt; stroke-linejoin:round; stroke-width:4; stroke-opacity:1; fill:none" points="
  877.829,747.274 900.661,817.225 923.494,884.566 946.329,946.078 969.175,1000.7 992.062,1047.63 1015.1,1086.12 1038.63,1114.87 1063.44,1131.24 1089.74,1134.02 
  1116.16,1129.04 1141.17,1122.9 1164.82,1114.88 1187.89,1102.61 1210.79,1085.47 1233.64,1063.73 1256.47,1037.93 1279.3,1008.65 1302.1,976.499 1324.85,942.189 
  1347.34,906.798 1368.98,872.678 1388.43,843.52 1405.69,818.732 1424.1,791.755 1445.08,759.141 1467.36,723.864 1490.04,689.003 1512.84,655.978 1535.66,625.579 
  1558.49,598.444 1581.32,575.19 1604.15,556.438 1626.98,542.815 1649.81,531.915 
  "/>
<polyline clip-path="url(#clip522)" style="stroke:#0000ff; stroke-linecap:butt; stroke-linejoin:round; stroke-width:4; stroke-opacity:1; fill:none" points="
  885.998,724.11 908.819,794.029 931.64,861.341 954.464,922.833 977.298,977.445 1000.17,1024.38 1023.17,1062.93 1046.64,1091.88 1071.26,1108.83 1097.25,1112.71 
  1123.34,1108.84 1148.15,1103.3 1171.71,1095.48 1194.75,1083.26 1217.63,1066.13 1240.47,1044.41 1263.29,1018.61 1286.1,989.343 1308.9,957.206 1331.64,922.891 
  1354.15,887.431 1375.89,853.018 1395.62,823.061 1413.37,797.061 1432.15,769.078 1453.28,736.01 1475.6,700.612 1498.29,665.737 1521.07,632.726 1543.88,602.347 
  1566.7,575.232 1589.52,551.996 1612.34,533.258 1635.16,519.646 1657.98,508.754 
  "/>
<polyline clip-path="url(#clip522)" style="stroke:#0000ff; stroke-linecap:butt; stroke-linejoin:round; stroke-width:4; stroke-opacity:1; fill:none" points="
  895.281,697.786 918.089,767.669 940.898,834.949 963.708,896.416 986.528,951.016 1009.38,997.965 1032.35,1036.57 1055.73,1065.75 1080.15,1083.36 1105.77,1088.48 
  1131.49,1085.88 1156.07,1081.02 1179.54,1073.43 1202.55,1061.26 1225.41,1044.16 1248.23,1022.45 1271.04,996.661 1293.84,967.405 1316.63,935.28 1339.36,900.96 
  1361.9,865.423 1383.74,830.677 1403.8,799.81 1422.08,772.432 1441.3,743.306 1462.6,709.723 1484.97,674.187 1507.65,639.296 1530.43,606.301 1553.23,575.945 
  1576.03,548.853 1598.84,525.637 1621.65,506.916 1644.46,493.316 1667.26,482.434 
  "/>
<polyline clip-path="url(#clip522)" style="stroke:#0000ff; stroke-linecap:butt; stroke-linejoin:round; stroke-width:4; stroke-opacity:1; fill:none" points="
  905.683,668.287 928.477,738.13 951.271,805.374 974.068,866.814 996.872,921.401 1019.7,968.36 1042.64,1007.04 1065.93,1036.47 1090.1,1054.83 1115.33,1061.33 
  1140.63,1060.15 1164.95,1056.06 1188.32,1048.72 1211.28,1036.62 1234.12,1019.54 1256.92,997.834 1279.72,972.063 1302.51,942.823 1325.29,910.71 1348.02,876.384 
  1370.58,840.761 1392.53,805.641 1412.96,773.755 1431.86,744.834 1451.55,714.428 1473.05,680.266 1495.46,644.577 1518.15,609.668 1540.91,576.69 1563.7,546.359 
  1586.49,519.293 1609.28,496.101 1632.08,477.399 1654.87,463.812 1677.66,452.939 
  "/>
<polyline clip-path="url(#clip522)" style="stroke:#0000ff; stroke-linecap:butt; stroke-linejoin:round; stroke-width:4; stroke-opacity:1; fill:none" points="
  917.157,635.747 939.936,705.546 962.714,772.749 985.495,834.161 1008.28,888.733 1031.09,935.703 1053.99,974.46 1077.17,1004.18 1101.09,1023.35 1125.87,1031.39 
  1150.72,1031.78 1174.75,1028.53 1198,1021.46 1220.92,1009.44 1243.73,992.376 1266.52,970.686 1289.3,944.93 1312.07,915.706 1334.84,883.607 1357.56,849.275 
  1380.15,813.556 1402.24,778.024 1423.06,745.015 1442.63,714.391 1462.86,682.572 1484.57,647.772 1507.03,611.914 1529.72,576.985 1552.48,544.026 1575.25,513.724 
  1598.03,486.686 1620.81,463.519 1643.58,444.838 1666.36,431.266 1689.14,420.404 
  "/>
<polyline clip-path="url(#clip522)" style="stroke:#0000ff; stroke-linecap:butt; stroke-linejoin:round; stroke-width:4; stroke-opacity:1; fill:none" points="
  929.597,600.469 952.359,670.22 975.121,737.38 997.883,798.759 1020.65,853.316 1043.44,900.298 1066.29,939.139 1089.36,969.164 1113,989.227 1137.3,998.919 
  1161.65,1001.01 1185.37,998.677 1208.49,991.907 1231.36,979.967 1254.15,962.929 1276.92,941.253 1299.68,915.513 1322.44,886.307 1345.19,854.224 1367.91,819.885 
  1390.53,784.063 1412.76,748.083 1434.02,713.856 1454.32,681.386 1475.12,648.035 1497.06,612.544 1519.58,576.502 1542.27,541.552 1565.02,508.614 1587.78,478.342 
  1610.54,451.335 1633.3,428.195 1656.06,409.537 1678.82,395.981 1701.58,385.131 
  "/>
<polyline clip-path="url(#clip522)" style="stroke:#0000ff; stroke-linecap:butt; stroke-linejoin:round; stroke-width:4; stroke-opacity:1; fill:none" points="
  942.834,562.934 965.577,632.633 988.32,699.747 1011.06,761.093 1033.81,815.632 1056.57,862.628 1079.38,901.558 1102.33,931.91 1125.67,952.918 1149.45,964.375 
  1173.27,968.272 1196.67,966.915 1219.66,960.464 1242.48,948.61 1265.24,931.597 1287.99,909.936 1310.73,884.214 1333.47,855.027 1356.21,822.96 1378.93,788.614 
  1401.57,752.681 1423.95,716.227 1445.68,680.703 1466.75,646.269 1488.16,611.289 1510.35,575.063 1532.93,538.824 1555.63,503.851 1578.36,470.936 1601.1,440.696 
  1623.84,413.722 1646.59,390.612 1669.33,371.977 1692.07,358.438 1714.82,347.601 
  "/>
<polyline clip-path="url(#clip522)" style="stroke:#0000ff; stroke-linecap:butt; stroke-linejoin:round; stroke-width:4; stroke-opacity:1; fill:none" points="
  956.638,523.786 979.363,593.432 1002.09,660.498 1024.81,721.808 1047.54,776.329 1070.27,823.338 1093.03,862.362 1115.86,893.055 1138.88,915.049 1162.13,928.347 
  1185.4,934.129 1208.46,933.789 1231.31,927.671 1254.07,915.906 1276.8,898.919 1299.53,877.275 1322.25,851.57 1344.98,822.403 1367.7,790.354 1390.41,755.999 
  1413.08,719.952 1435.63,683.002 1457.84,646.126 1479.72,609.644 1501.77,572.964 1524.21,535.97 1546.86,499.528 1569.56,464.531 1592.28,431.639 1615,401.433 
  1637.72,374.493 1660.45,351.413 1683.17,332.804 1705.9,319.282 1728.62,308.459 
  "/>
<polyline clip-path="url(#clip522)" style="stroke:#0000ff; stroke-linecap:butt; stroke-linejoin:round; stroke-width:4; stroke-opacity:1; fill:none" points="
  970.74,483.798 993.445,553.389 1016.15,620.406 1038.86,681.679 1061.56,736.182 1084.27,783.205 1106.97,822.324 1129.68,853.365 1152.38,876.367 1175.09,891.545 
  1197.79,899.254 1220.5,899.951 1243.2,894.173 1265.91,882.499 1288.61,865.54 1311.32,843.911 1334.03,818.225 1356.73,789.078 1379.44,757.047 1402.14,722.684 
  1424.85,686.52 1447.55,649.063 1470.26,610.807 1492.96,572.232 1515.67,533.816 1538.37,496.039 1561.08,459.388 1583.78,424.367 1606.49,391.498 1629.19,361.327 
  1651.9,334.422 1674.61,311.373 1697.31,292.789 1720.02,279.285 1742.72,268.477 
  "/>
</svg>
