<?xml version="1.0" encoding="utf-8"?>
<svg xmlns="http://www.w3.org/2000/svg" xmlns:xlink="http://www.w3.org/1999/xlink" width="600" height="400" viewBox="0 0 2400 1600">
<defs>
  <clipPath id="clip340">
    <rect x="0" y="0" width="2400" height="1600"/>
  </clipPath>
</defs>
<path clip-path="url(#clip340)" d="
M0 1600 L2400 1600 L2400 0 L0 0  Z
  " fill="#ffffff" fill-rule="evenodd" fill-opacity="1"/>
<defs>
  <clipPath id="clip341">
    <rect x="480" y="0" width="1681" height="1600"/>
  </clipPath>
</defs>
<defs>
  <clipPath id="clip342">
    <rect x="486" y="47" width="1867" height="1440"/>
  </clipPath>
</defs>
<path clip-path="url(#clip342)" d="
M1652.49 1777.98 L1652.49 1325.4 L1670.64 1068.08 L1773.57 1113.45 L1773.57 1566.03 L1755.43 1823.36 L1652.49 1777.98  Z
  " fill="#ffffff" fill-rule="evenodd" fill-opacity="1"/>
<polyline clip-path="url(#clip342)" style="stroke:#000000; stroke-linecap:butt; stroke-linejoin:round; stroke-width:2; stroke-opacity:0.1; fill:none" points="
  1012.91,1301.73 1157.2,892.579 
  "/>
<polyline clip-path="url(#clip342)" style="stroke:#000000; stroke-linecap:butt; stroke-linejoin:round; stroke-width:2; stroke-opacity:0.1; fill:none" points="
  1157.2,892.579 1157.2,172.977 
  "/>
<polyline clip-path="url(#clip342)" style="stroke:#000000; stroke-linecap:butt; stroke-linejoin:round; stroke-width:2; stroke-opacity:0.1; fill:none" points="
  1167.31,1315.34 1311.6,906.191 
  "/>
<polyline clip-path="url(#clip342)" style="stroke:#000000; stroke-linecap:butt; stroke-linejoin:round; stroke-width:2; stroke-opacity:0.1; fill:none" points="
  1311.6,906.191 1311.6,186.589 
  "/>
<polyline clip-path="url(#clip342)" style="stroke:#000000; stroke-linecap:butt; stroke-linejoin:round; stroke-width:2; stroke-opacity:0.1; fill:none" points="
  1321.71,1328.95 1466,919.803 
  "/>
<polyline clip-path="url(#clip342)" style="stroke:#000000; stroke-linecap:butt; stroke-linejoin:round; stroke-width:2; stroke-opacity:0.1; fill:none" points="
  1466,919.803 1466,200.201 
  "/>
<polyline clip-path="url(#clip342)" style="stroke:#000000; stroke-linecap:butt; stroke-linejoin:round; stroke-width:2; stroke-opacity:0.1; fill:none" points="
  1476.1,1342.57 1620.39,933.415 
  "/>
<polyline clip-path="url(#clip342)" style="stroke:#000000; stroke-linecap:butt; stroke-linejoin:round; stroke-width:2; stroke-opacity:0.1; fill:none" points="
  1620.39,933.415 1620.39,213.813 
  "/>
<polyline clip-path="url(#clip342)" style="stroke:#000000; stroke-linecap:butt; stroke-linejoin:round; stroke-width:2; stroke-opacity:0.1; fill:none" points="
  1630.5,1356.18 1774.79,947.027 
  "/>
<polyline clip-path="url(#clip342)" style="stroke:#000000; stroke-linecap:butt; stroke-linejoin:round; stroke-width:2; stroke-opacity:0.1; fill:none" points="
  1774.79,947.027 1774.79,227.425 
  "/>
<polyline clip-path="url(#clip340)" style="stroke:#000000; stroke-linecap:butt; stroke-linejoin:round; stroke-width:4; stroke-opacity:1; fill:none" points="
  938.289,1295.15 1756.59,1367.29 
  "/>
<polyline clip-path="url(#clip340)" style="stroke:#000000; stroke-linecap:butt; stroke-linejoin:round; stroke-width:4; stroke-opacity:1; fill:none" points="
  1012.91,1301.73 1014.65,1296.82 
  "/>
<polyline clip-path="url(#clip340)" style="stroke:#000000; stroke-linecap:butt; stroke-linejoin:round; stroke-width:4; stroke-opacity:1; fill:none" points="
  1167.31,1315.34 1169.04,1310.43 
  "/>
<polyline clip-path="url(#clip340)" style="stroke:#000000; stroke-linecap:butt; stroke-linejoin:round; stroke-width:4; stroke-opacity:1; fill:none" points="
  1321.71,1328.95 1323.44,1324.04 
  "/>
<polyline clip-path="url(#clip340)" style="stroke:#000000; stroke-linecap:butt; stroke-linejoin:round; stroke-width:4; stroke-opacity:1; fill:none" points="
  1476.1,1342.57 1477.84,1337.66 
  "/>
<polyline clip-path="url(#clip340)" style="stroke:#000000; stroke-linecap:butt; stroke-linejoin:round; stroke-width:4; stroke-opacity:1; fill:none" points="
  1630.5,1356.18 1632.23,1351.27 
  "/>
<path clip-path="url(#clip340)" d="M939.77 1328.53 L969.446 1328.53 L969.446 1332.47 L939.77 1332.47 L939.77 1328.53 Z" fill="#000000" fill-rule="evenodd" fill-opacity="1" /><path clip-path="url(#clip340)" d="M979.677 1344.64 L979.677 1340.39 Q981.437 1341.22 983.242 1341.66 Q985.048 1342.1 986.784 1342.1 Q991.413 1342.1 993.844 1339 Q996.298 1335.87 996.645 1329.53 Q995.302 1331.52 993.242 1332.58 Q991.182 1333.65 988.682 1333.65 Q983.497 1333.65 980.464 1330.52 Q977.455 1327.38 977.455 1321.94 Q977.455 1316.61 980.603 1313.39 Q983.751 1310.18 988.983 1310.18 Q994.978 1310.18 998.126 1314.78 Q1001.3 1319.37 1001.3 1328.12 Q1001.3 1336.29 997.409 1341.17 Q993.543 1346.03 986.992 1346.03 Q985.233 1346.03 983.427 1345.69 Q981.622 1345.34 979.677 1344.64 M988.983 1329.99 Q992.131 1329.99 993.96 1327.84 Q995.811 1325.69 995.811 1321.94 Q995.811 1318.21 993.96 1316.06 Q992.131 1313.88 988.983 1313.88 Q985.835 1313.88 983.983 1316.06 Q982.154 1318.21 982.154 1321.94 Q982.154 1325.69 983.983 1327.84 Q985.835 1329.99 988.983 1329.99 Z" fill="#000000" fill-rule="evenodd" fill-opacity="1" /><path clip-path="url(#clip340)" d="M1093.82 1342.15 L1123.5 1342.15 L1123.5 1346.08 L1093.82 1346.08 L1093.82 1342.15 Z" fill="#000000" fill-rule="evenodd" fill-opacity="1" /><path clip-path="url(#clip340)" d="M1144.17 1339.83 Q1141.02 1339.83 1139.17 1341.98 Q1137.34 1344.14 1137.34 1347.89 Q1137.34 1351.61 1139.17 1353.79 Q1141.02 1355.94 1144.17 1355.94 Q1147.31 1355.94 1149.14 1353.79 Q1150.99 1351.61 1150.99 1347.89 Q1150.99 1344.14 1149.14 1341.98 Q1147.31 1339.83 1144.17 1339.83 M1153.45 1325.18 L1153.45 1329.44 Q1151.69 1328.6 1149.88 1328.16 Q1148.1 1327.72 1146.34 1327.72 Q1141.71 1327.72 1139.26 1330.85 Q1136.83 1333.97 1136.48 1340.29 Q1137.85 1338.28 1139.91 1337.22 Q1141.97 1336.13 1144.44 1336.13 Q1149.65 1336.13 1152.66 1339.3 Q1155.69 1342.45 1155.69 1347.89 Q1155.69 1353.21 1152.55 1356.43 Q1149.4 1359.65 1144.17 1359.65 Q1138.17 1359.65 1135 1355.06 Q1131.83 1350.46 1131.83 1341.73 Q1131.83 1333.53 1135.72 1328.67 Q1139.61 1323.79 1146.16 1323.79 Q1147.92 1323.79 1149.7 1324.14 Q1151.5 1324.48 1153.45 1325.18 Z" fill="#000000" fill-rule="evenodd" fill-opacity="1" /><path clip-path="url(#clip340)" d="M1249.03 1355.76 L1278.7 1355.76 L1278.7 1359.69 L1249.03 1359.69 L1249.03 1355.76 Z" fill="#000000" fill-rule="evenodd" fill-opacity="1" /><path clip-path="url(#clip340)" d="M1302.96 1353.95 Q1306.32 1354.67 1308.19 1356.94 Q1310.09 1359.21 1310.09 1362.54 Q1310.09 1367.66 1306.57 1370.46 Q1303.05 1373.26 1296.57 1373.26 Q1294.4 1373.26 1292.08 1372.82 Q1289.79 1372.4 1287.34 1371.54 L1287.34 1367.03 Q1289.28 1368.17 1291.6 1368.74 Q1293.91 1369.32 1296.43 1369.32 Q1300.83 1369.32 1303.12 1367.59 Q1305.44 1365.85 1305.44 1362.54 Q1305.44 1359.48 1303.28 1357.77 Q1301.16 1356.04 1297.34 1356.04 L1293.31 1356.04 L1293.31 1352.19 L1297.52 1352.19 Q1300.97 1352.19 1302.8 1350.83 Q1304.63 1349.44 1304.63 1346.85 Q1304.63 1344.18 1302.73 1342.77 Q1300.85 1341.34 1297.34 1341.34 Q1295.41 1341.34 1293.22 1341.75 Q1291.02 1342.17 1288.38 1343.05 L1288.38 1338.88 Q1291.04 1338.14 1293.35 1337.77 Q1295.69 1337.4 1297.75 1337.4 Q1303.08 1337.4 1306.18 1339.83 Q1309.28 1342.24 1309.28 1346.36 Q1309.28 1349.23 1307.64 1351.22 Q1305.99 1353.19 1302.96 1353.95 Z" fill="#000000" fill-rule="evenodd" fill-opacity="1" /><path clip-path="url(#clip340)" d="M1452.54 1354.72 Q1448.93 1354.72 1447.1 1358.28 Q1445.3 1361.82 1445.3 1368.95 Q1445.3 1376.06 1447.1 1379.62 Q1448.93 1383.17 1452.54 1383.17 Q1456.18 1383.17 1457.98 1379.62 Q1459.81 1376.06 1459.81 1368.95 Q1459.81 1361.82 1457.98 1358.28 Q1456.18 1354.72 1452.54 1354.72 M1452.54 1351.01 Q1458.35 1351.01 1461.41 1355.62 Q1464.49 1360.2 1464.49 1368.95 Q1464.49 1377.68 1461.41 1382.29 Q1458.35 1386.87 1452.54 1386.87 Q1446.73 1386.87 1443.65 1382.29 Q1440.6 1377.68 1440.6 1368.95 Q1440.6 1360.2 1443.65 1355.62 Q1446.73 1351.01 1452.54 1351.01 Z" fill="#000000" fill-rule="evenodd" fill-opacity="1" /><path clip-path="url(#clip340)" d="M1611.75 1381.18 Q1615.11 1381.89 1616.99 1384.16 Q1618.88 1386.43 1618.88 1389.76 Q1618.88 1394.88 1615.36 1397.68 Q1611.85 1400.48 1605.36 1400.48 Q1603.19 1400.48 1600.87 1400.04 Q1598.58 1399.63 1596.13 1398.77 L1596.13 1394.26 Q1598.07 1395.39 1600.39 1395.97 Q1602.7 1396.55 1605.23 1396.55 Q1609.62 1396.55 1611.92 1394.81 Q1614.23 1393.07 1614.23 1389.76 Q1614.23 1386.71 1612.08 1385 Q1609.95 1383.26 1606.13 1383.26 L1602.1 1383.26 L1602.1 1379.42 L1606.31 1379.42 Q1609.76 1379.42 1611.59 1378.05 Q1613.42 1376.66 1613.42 1374.07 Q1613.42 1371.41 1611.52 1370 Q1609.65 1368.56 1606.13 1368.56 Q1604.21 1368.56 1602.01 1368.98 Q1599.81 1369.39 1597.17 1370.27 L1597.17 1366.11 Q1599.83 1365.37 1602.15 1365 Q1604.49 1364.63 1606.55 1364.63 Q1611.87 1364.63 1614.97 1367.06 Q1618.07 1369.46 1618.07 1373.58 Q1618.07 1376.45 1616.43 1378.45 Q1614.79 1380.41 1611.75 1381.18 Z" fill="#000000" fill-rule="evenodd" fill-opacity="1" /><polyline clip-path="url(#clip342)" style="stroke:#000000; stroke-linecap:butt; stroke-linejoin:round; stroke-width:2; stroke-opacity:0.1; fill:none" points="
  1760.67,1355.71 942.373,1283.57 
  "/>
<polyline clip-path="url(#clip342)" style="stroke:#000000; stroke-linecap:butt; stroke-linejoin:round; stroke-width:2; stroke-opacity:0.1; fill:none" points="
  942.373,1283.57 942.373,563.968 
  "/>
<polyline clip-path="url(#clip342)" style="stroke:#000000; stroke-linecap:butt; stroke-linejoin:round; stroke-width:2; stroke-opacity:0.1; fill:none" points="
  1806.05,1227.05 987.747,1154.91 
  "/>
<polyline clip-path="url(#clip342)" style="stroke:#000000; stroke-linecap:butt; stroke-linejoin:round; stroke-width:2; stroke-opacity:0.1; fill:none" points="
  987.747,1154.91 987.747,435.305 
  "/>
<polyline clip-path="url(#clip342)" style="stroke:#000000; stroke-linecap:butt; stroke-linejoin:round; stroke-width:2; stroke-opacity:0.1; fill:none" points="
  1851.42,1098.39 1033.12,1026.24 
  "/>
<polyline clip-path="url(#clip342)" style="stroke:#000000; stroke-linecap:butt; stroke-linejoin:round; stroke-width:2; stroke-opacity:0.1; fill:none" points="
  1033.12,1026.24 1033.12,306.641 
  "/>
<polyline clip-path="url(#clip342)" style="stroke:#000000; stroke-linecap:butt; stroke-linejoin:round; stroke-width:2; stroke-opacity:0.1; fill:none" points="
  1896.8,969.724 1078.49,897.579 
  "/>
<polyline clip-path="url(#clip342)" style="stroke:#000000; stroke-linecap:butt; stroke-linejoin:round; stroke-width:2; stroke-opacity:0.1; fill:none" points="
  1078.49,897.579 1078.49,177.977 
  "/>
<polyline clip-path="url(#clip340)" style="stroke:#000000; stroke-linecap:butt; stroke-linejoin:round; stroke-width:4; stroke-opacity:1; fill:none" points="
  1756.59,1367.29 1900.88,958.144 
  "/>
<polyline clip-path="url(#clip340)" style="stroke:#000000; stroke-linecap:butt; stroke-linejoin:round; stroke-width:4; stroke-opacity:1; fill:none" points="
  1760.67,1355.71 1750.85,1354.85 
  "/>
<polyline clip-path="url(#clip340)" style="stroke:#000000; stroke-linecap:butt; stroke-linejoin:round; stroke-width:4; stroke-opacity:1; fill:none" points="
  1806.05,1227.05 1796.23,1226.19 
  "/>
<polyline clip-path="url(#clip340)" style="stroke:#000000; stroke-linecap:butt; stroke-linejoin:round; stroke-width:4; stroke-opacity:1; fill:none" points="
  1851.42,1098.39 1841.6,1097.52 
  "/>
<polyline clip-path="url(#clip340)" style="stroke:#000000; stroke-linecap:butt; stroke-linejoin:round; stroke-width:4; stroke-opacity:1; fill:none" points="
  1896.8,969.724 1886.98,968.858 
  "/>
<path clip-path="url(#clip340)" d="M1801.35 1343.54 Q1797.74 1343.54 1795.91 1347.1 Q1794.1 1350.65 1794.1 1357.78 Q1794.1 1364.88 1795.91 1368.45 Q1797.74 1371.99 1801.35 1371.99 Q1804.98 1371.99 1806.79 1368.45 Q1808.62 1364.88 1808.62 1357.78 Q1808.62 1350.65 1806.79 1347.1 Q1804.98 1343.54 1801.35 1343.54 M1801.35 1339.84 Q1807.16 1339.84 1810.21 1344.44 Q1813.29 1349.03 1813.29 1357.78 Q1813.29 1366.5 1810.21 1371.11 Q1807.16 1375.69 1801.35 1375.69 Q1795.54 1375.69 1792.46 1371.11 Q1789.4 1366.5 1789.4 1357.78 Q1789.4 1349.03 1792.46 1344.44 Q1795.54 1339.84 1801.35 1339.84 Z" fill="#000000" fill-rule="evenodd" fill-opacity="1" /><path clip-path="url(#clip340)" d="M1835.45 1242.42 L1843.09 1242.42 L1843.09 1216.06 L1834.78 1217.72 L1834.78 1213.46 L1843.04 1211.8 L1847.72 1211.8 L1847.72 1242.42 L1855.36 1242.42 L1855.36 1246.36 L1835.45 1246.36 L1835.45 1242.42 Z" fill="#000000" fill-rule="evenodd" fill-opacity="1" /><path clip-path="url(#clip340)" d="M1885.78 1113.76 L1902.09 1113.76 L1902.09 1117.69 L1880.15 1117.69 L1880.15 1113.76 Q1882.81 1111 1887.4 1106.37 Q1892 1101.72 1893.18 1100.38 Q1895.43 1097.86 1896.31 1096.12 Q1897.21 1094.36 1897.21 1092.67 Q1897.21 1089.92 1895.27 1088.18 Q1893.34 1086.44 1890.24 1086.44 Q1888.04 1086.44 1885.59 1087.21 Q1883.16 1087.97 1880.38 1089.52 L1880.38 1084.8 Q1883.21 1083.67 1885.66 1083.09 Q1888.11 1082.51 1890.15 1082.51 Q1895.52 1082.51 1898.72 1085.19 Q1901.91 1087.88 1901.91 1092.37 Q1901.91 1094.5 1901.1 1096.42 Q1900.31 1098.32 1898.21 1100.91 Q1897.63 1101.58 1894.53 1104.8 Q1891.42 1107.99 1885.78 1113.76 Z" fill="#000000" fill-rule="evenodd" fill-opacity="1" /><path clip-path="url(#clip340)" d="M1941.15 970.396 Q1944.51 971.113 1946.38 973.382 Q1948.28 975.65 1948.28 978.984 Q1948.28 984.099 1944.76 986.9 Q1941.24 989.701 1934.76 989.701 Q1932.58 989.701 1930.27 989.261 Q1927.98 988.845 1925.52 987.988 L1925.52 983.474 Q1927.47 984.609 1929.78 985.187 Q1932.1 985.766 1934.62 985.766 Q1939.02 985.766 1941.31 984.03 Q1943.63 982.294 1943.63 978.984 Q1943.63 975.928 1941.47 974.215 Q1939.34 972.479 1935.52 972.479 L1931.5 972.479 L1931.5 968.636 L1935.71 968.636 Q1939.16 968.636 1940.99 967.271 Q1942.82 965.882 1942.82 963.289 Q1942.82 960.627 1940.92 959.215 Q1939.04 957.78 1935.52 957.78 Q1933.6 957.78 1931.4 958.197 Q1929.2 958.613 1926.57 959.493 L1926.57 955.326 Q1929.23 954.586 1931.54 954.215 Q1933.88 953.845 1935.94 953.845 Q1941.26 953.845 1944.37 956.275 Q1947.47 958.683 1947.47 962.803 Q1947.47 965.673 1945.82 967.664 Q1944.18 969.632 1941.15 970.396 Z" fill="#000000" fill-rule="evenodd" fill-opacity="1" /><polyline clip-path="url(#clip342)" style="stroke:#000000; stroke-linecap:butt; stroke-linejoin:round; stroke-width:2; stroke-opacity:0.1; fill:none" points="
  938.289,1281.02 1082.58,871.871 
  "/>
<polyline clip-path="url(#clip342)" style="stroke:#000000; stroke-linecap:butt; stroke-linejoin:round; stroke-width:2; stroke-opacity:0.1; fill:none" points="
  1082.58,871.871 1900.88,944.015 
  "/>
<polyline clip-path="url(#clip342)" style="stroke:#000000; stroke-linecap:butt; stroke-linejoin:round; stroke-width:2; stroke-opacity:0.1; fill:none" points="
  938.289,1134.09 1082.58,724.937 
  "/>
<polyline clip-path="url(#clip342)" style="stroke:#000000; stroke-linecap:butt; stroke-linejoin:round; stroke-width:2; stroke-opacity:0.1; fill:none" points="
  1082.58,724.937 1900.88,797.081 
  "/>
<polyline clip-path="url(#clip342)" style="stroke:#000000; stroke-linecap:butt; stroke-linejoin:round; stroke-width:2; stroke-opacity:0.1; fill:none" points="
  938.289,987.153 1082.58,578.003 
  "/>
<polyline clip-path="url(#clip342)" style="stroke:#000000; stroke-linecap:butt; stroke-linejoin:round; stroke-width:2; stroke-opacity:0.1; fill:none" points="
  1082.58,578.003 1900.88,650.147 
  "/>
<polyline clip-path="url(#clip342)" style="stroke:#000000; stroke-linecap:butt; stroke-linejoin:round; stroke-width:2; stroke-opacity:0.1; fill:none" points="
  938.289,840.219 1082.58,431.069 
  "/>
<polyline clip-path="url(#clip342)" style="stroke:#000000; stroke-linecap:butt; stroke-linejoin:round; stroke-width:2; stroke-opacity:0.1; fill:none" points="
  1082.58,431.069 1900.88,503.213 
  "/>
<polyline clip-path="url(#clip342)" style="stroke:#000000; stroke-linecap:butt; stroke-linejoin:round; stroke-width:2; stroke-opacity:0.1; fill:none" points="
  938.289,693.285 1082.58,284.135 
  "/>
<polyline clip-path="url(#clip342)" style="stroke:#000000; stroke-linecap:butt; stroke-linejoin:round; stroke-width:2; stroke-opacity:0.1; fill:none" points="
  1082.58,284.135 1900.88,356.279 
  "/>
<polyline clip-path="url(#clip340)" style="stroke:#000000; stroke-linecap:butt; stroke-linejoin:round; stroke-width:4; stroke-opacity:1; fill:none" points="
  938.289,1295.15 938.289,575.548 
  "/>
<polyline clip-path="url(#clip340)" style="stroke:#000000; stroke-linecap:butt; stroke-linejoin:round; stroke-width:4; stroke-opacity:1; fill:none" points="
  938.289,1281.02 940.021,1276.11 
  "/>
<polyline clip-path="url(#clip340)" style="stroke:#000000; stroke-linecap:butt; stroke-linejoin:round; stroke-width:4; stroke-opacity:1; fill:none" points="
  938.289,1134.09 940.021,1129.18 
  "/>
<polyline clip-path="url(#clip340)" style="stroke:#000000; stroke-linecap:butt; stroke-linejoin:round; stroke-width:4; stroke-opacity:1; fill:none" points="
  938.289,987.153 940.021,982.243 
  "/>
<polyline clip-path="url(#clip340)" style="stroke:#000000; stroke-linecap:butt; stroke-linejoin:round; stroke-width:4; stroke-opacity:1; fill:none" points="
  938.289,840.219 940.021,835.309 
  "/>
<polyline clip-path="url(#clip340)" style="stroke:#000000; stroke-linecap:butt; stroke-linejoin:round; stroke-width:4; stroke-opacity:1; fill:none" points="
  938.289,693.285 940.021,688.375 
  "/>
<path clip-path="url(#clip340)" d="M512.291 1304.03 L512.291 1299.77 Q514.05 1300.61 515.856 1301.05 Q517.661 1301.49 519.398 1301.49 Q524.027 1301.49 526.458 1298.38 Q528.911 1295.26 529.259 1288.92 Q527.916 1290.91 525.856 1291.97 Q523.796 1293.04 521.296 1293.04 Q516.111 1293.04 513.078 1289.91 Q510.069 1286.76 510.069 1281.32 Q510.069 1276 513.217 1272.78 Q516.365 1269.56 521.597 1269.56 Q527.592 1269.56 530.74 1274.17 Q533.911 1278.75 533.911 1287.5 Q533.911 1295.67 530.022 1300.56 Q526.157 1305.42 519.606 1305.42 Q517.847 1305.42 516.041 1305.07 Q514.236 1304.73 512.291 1304.03 M521.597 1289.38 Q524.745 1289.38 526.573 1287.23 Q528.425 1285.07 528.425 1281.32 Q528.425 1277.6 526.573 1275.44 Q524.745 1273.27 521.597 1273.27 Q518.448 1273.27 516.597 1275.44 Q514.768 1277.6 514.768 1281.32 Q514.768 1285.07 516.597 1287.23 Q518.448 1289.38 521.597 1289.38 Z" fill="#000000" fill-rule="evenodd" fill-opacity="1" /><path clip-path="url(#clip340)" d="M542.314 1298.87 L547.198 1298.87 L547.198 1304.75 L542.314 1304.75 L542.314 1298.87 Z" fill="#000000" fill-rule="evenodd" fill-opacity="1" /><path clip-path="url(#clip340)" d="M557.522 1304.03 L557.522 1299.77 Q559.282 1300.61 561.087 1301.05 Q562.893 1301.49 564.629 1301.49 Q569.258 1301.49 571.689 1298.38 Q574.143 1295.26 574.49 1288.92 Q573.147 1290.91 571.087 1291.97 Q569.027 1293.04 566.527 1293.04 Q561.342 1293.04 558.309 1289.91 Q555.3 1286.76 555.3 1281.32 Q555.3 1276 558.448 1272.78 Q561.596 1269.56 566.828 1269.56 Q572.823 1269.56 575.971 1274.17 Q579.143 1278.75 579.143 1287.5 Q579.143 1295.67 575.254 1300.56 Q571.388 1305.42 564.837 1305.42 Q563.078 1305.42 561.272 1305.07 Q559.467 1304.73 557.522 1304.03 M566.828 1289.38 Q569.976 1289.38 571.805 1287.23 Q573.657 1285.07 573.657 1281.32 Q573.657 1277.6 571.805 1275.44 Q569.976 1273.27 566.828 1273.27 Q563.68 1273.27 561.828 1275.44 Q559.999 1277.6 559.999 1281.32 Q559.999 1285.07 561.828 1287.23 Q563.68 1289.38 566.828 1289.38 Z" fill="#000000" fill-rule="evenodd" fill-opacity="1" /><path clip-path="url(#clip340)" d="M587.684 1304.03 L587.684 1299.77 Q589.443 1300.61 591.249 1301.05 Q593.055 1301.49 594.791 1301.49 Q599.42 1301.49 601.851 1298.38 Q604.305 1295.26 604.652 1288.92 Q603.309 1290.91 601.249 1291.97 Q599.189 1293.04 596.689 1293.04 Q591.504 1293.04 588.471 1289.91 Q585.462 1286.76 585.462 1281.32 Q585.462 1276 588.61 1272.78 Q591.758 1269.56 596.99 1269.56 Q602.985 1269.56 606.133 1274.17 Q609.304 1278.75 609.304 1287.5 Q609.304 1295.67 605.416 1300.56 Q601.55 1305.42 594.999 1305.42 Q593.24 1305.42 591.434 1305.07 Q589.629 1304.73 587.684 1304.03 M596.99 1289.38 Q600.138 1289.38 601.967 1287.23 Q603.818 1285.07 603.818 1281.32 Q603.818 1277.6 601.967 1275.44 Q600.138 1273.27 596.99 1273.27 Q593.842 1273.27 591.99 1275.44 Q590.161 1277.6 590.161 1281.32 Q590.161 1285.07 591.99 1287.23 Q593.842 1289.38 596.99 1289.38 Z" fill="#000000" fill-rule="evenodd" fill-opacity="1" /><path clip-path="url(#clip340)" d="M617.846 1304.03 L617.846 1299.77 Q619.605 1300.61 621.411 1301.05 Q623.216 1301.49 624.953 1301.49 Q629.582 1301.49 632.013 1298.38 Q634.466 1295.26 634.814 1288.92 Q633.471 1290.91 631.411 1291.97 Q629.351 1293.04 626.851 1293.04 Q621.666 1293.04 618.633 1289.91 Q615.624 1286.76 615.624 1281.32 Q615.624 1276 618.772 1272.78 Q621.92 1269.56 627.152 1269.56 Q633.147 1269.56 636.295 1274.17 Q639.466 1278.75 639.466 1287.5 Q639.466 1295.67 635.577 1300.56 Q631.712 1305.42 625.161 1305.42 Q623.402 1305.42 621.596 1305.07 Q619.791 1304.73 617.846 1304.03 M627.152 1289.38 Q630.3 1289.38 632.128 1287.23 Q633.98 1285.07 633.98 1281.32 Q633.98 1277.6 632.128 1275.44 Q630.3 1273.27 627.152 1273.27 Q624.003 1273.27 622.152 1275.44 Q620.323 1277.6 620.323 1281.32 Q620.323 1285.07 622.152 1287.23 Q624.003 1289.38 627.152 1289.38 Z" fill="#000000" fill-rule="evenodd" fill-opacity="1" /><path clip-path="url(#clip340)" d="M648.008 1304.03 L648.008 1299.77 Q649.767 1300.61 651.573 1301.05 Q653.378 1301.49 655.114 1301.49 Q659.744 1301.49 662.175 1298.38 Q664.628 1295.26 664.975 1288.92 Q663.633 1290.91 661.573 1291.97 Q659.513 1293.04 657.013 1293.04 Q651.827 1293.04 648.795 1289.91 Q645.786 1286.76 645.786 1281.32 Q645.786 1276 648.934 1272.78 Q652.082 1269.56 657.313 1269.56 Q663.309 1269.56 666.457 1274.17 Q669.628 1278.75 669.628 1287.5 Q669.628 1295.67 665.739 1300.56 Q661.874 1305.42 655.323 1305.42 Q653.563 1305.42 651.758 1305.07 Q649.952 1304.73 648.008 1304.03 M657.313 1289.38 Q660.462 1289.38 662.29 1287.23 Q664.142 1285.07 664.142 1281.32 Q664.142 1277.6 662.29 1275.44 Q660.462 1273.27 657.313 1273.27 Q654.165 1273.27 652.314 1275.44 Q650.485 1277.6 650.485 1281.32 Q650.485 1285.07 652.314 1287.23 Q654.165 1289.38 657.313 1289.38 Z" fill="#000000" fill-rule="evenodd" fill-opacity="1" /><path clip-path="url(#clip340)" d="M688.031 1288.34 Q684.698 1288.34 682.776 1290.12 Q680.878 1291.9 680.878 1295.03 Q680.878 1298.15 682.776 1299.93 Q684.698 1301.72 688.031 1301.72 Q691.364 1301.72 693.286 1299.93 Q695.207 1298.13 695.207 1295.03 Q695.207 1291.9 693.286 1290.12 Q691.387 1288.34 688.031 1288.34 M683.355 1286.35 Q680.346 1285.61 678.656 1283.55 Q676.989 1281.49 676.989 1278.52 Q676.989 1274.38 679.929 1271.97 Q682.892 1269.56 688.031 1269.56 Q693.193 1269.56 696.133 1271.97 Q699.073 1274.38 699.073 1278.52 Q699.073 1281.49 697.383 1283.55 Q695.716 1285.61 692.73 1286.35 Q696.11 1287.13 697.985 1289.42 Q699.883 1291.72 699.883 1295.03 Q699.883 1300.05 696.804 1302.74 Q693.748 1305.42 688.031 1305.42 Q682.313 1305.42 679.235 1302.74 Q676.179 1300.05 676.179 1295.03 Q676.179 1291.72 678.077 1289.42 Q679.975 1287.13 683.355 1286.35 M681.642 1278.96 Q681.642 1281.65 683.309 1283.15 Q684.999 1284.66 688.031 1284.66 Q691.04 1284.66 692.73 1283.15 Q694.443 1281.65 694.443 1278.96 Q694.443 1276.28 692.73 1274.77 Q691.04 1273.27 688.031 1273.27 Q684.999 1273.27 683.309 1274.77 Q681.642 1276.28 681.642 1278.96 Z" fill="#000000" fill-rule="evenodd" fill-opacity="1" /><path clip-path="url(#clip340)" d="M718.193 1273.27 Q714.582 1273.27 712.753 1276.83 Q710.947 1280.37 710.947 1287.5 Q710.947 1294.61 712.753 1298.17 Q714.582 1301.72 718.193 1301.72 Q721.827 1301.72 723.633 1298.17 Q725.461 1294.61 725.461 1287.5 Q725.461 1280.37 723.633 1276.83 Q721.827 1273.27 718.193 1273.27 M718.193 1269.56 Q724.003 1269.56 727.058 1274.17 Q730.137 1278.75 730.137 1287.5 Q730.137 1296.23 727.058 1300.84 Q724.003 1305.42 718.193 1305.42 Q712.383 1305.42 709.304 1300.84 Q706.248 1296.23 706.248 1287.5 Q706.248 1278.75 709.304 1274.17 Q712.383 1269.56 718.193 1269.56 Z" fill="#000000" fill-rule="evenodd" fill-opacity="1" /><path clip-path="url(#clip340)" d="M748.355 1273.27 Q744.744 1273.27 742.915 1276.83 Q741.109 1280.37 741.109 1287.5 Q741.109 1294.61 742.915 1298.17 Q744.744 1301.72 748.355 1301.72 Q751.989 1301.72 753.794 1298.17 Q755.623 1294.61 755.623 1287.5 Q755.623 1280.37 753.794 1276.83 Q751.989 1273.27 748.355 1273.27 M748.355 1269.56 Q754.165 1269.56 757.22 1274.17 Q760.299 1278.75 760.299 1287.5 Q760.299 1296.23 757.22 1300.84 Q754.165 1305.42 748.355 1305.42 Q742.545 1305.42 739.466 1300.84 Q736.41 1296.23 736.41 1287.5 Q736.41 1278.75 739.466 1274.17 Q742.545 1269.56 748.355 1269.56 Z" fill="#000000" fill-rule="evenodd" fill-opacity="1" /><path clip-path="url(#clip340)" d="M796.688 1279.29 L786.109 1289.91 L796.688 1300.49 L793.933 1303.29 L783.308 1292.67 L772.683 1303.29 L769.952 1300.49 L780.507 1289.91 L769.952 1279.29 L772.683 1276.49 L783.308 1287.11 L793.933 1276.49 L796.688 1279.29 Z" fill="#000000" fill-rule="evenodd" fill-opacity="1" /><path clip-path="url(#clip340)" d="M809.049 1300.81 L816.688 1300.81 L816.688 1274.45 L808.377 1276.11 L808.377 1271.86 L816.641 1270.19 L821.317 1270.19 L821.317 1300.81 L828.956 1300.81 L828.956 1304.75 L809.049 1304.75 L809.049 1300.81 Z" fill="#000000" fill-rule="evenodd" fill-opacity="1" /><path clip-path="url(#clip340)" d="M848.4 1273.27 Q844.789 1273.27 842.961 1276.83 Q841.155 1280.37 841.155 1287.5 Q841.155 1294.61 842.961 1298.17 Q844.789 1301.72 848.4 1301.72 Q852.035 1301.72 853.84 1298.17 Q855.669 1294.61 855.669 1287.5 Q855.669 1280.37 853.84 1276.83 Q852.035 1273.27 848.4 1273.27 M848.4 1269.56 Q854.211 1269.56 857.266 1274.17 Q860.345 1278.75 860.345 1287.5 Q860.345 1296.23 857.266 1300.84 Q854.211 1305.42 848.4 1305.42 Q842.59 1305.42 839.512 1300.84 Q836.456 1296.23 836.456 1287.5 Q836.456 1278.75 839.512 1274.17 Q842.59 1269.56 848.4 1269.56 Z" fill="#000000" fill-rule="evenodd" fill-opacity="1" /><path clip-path="url(#clip340)" d="M860.345 1263.67 L884.456 1263.67 L884.456 1266.86 L860.345 1266.86 L860.345 1263.67 Z" fill="#000000" fill-rule="evenodd" fill-opacity="1" /><path clip-path="url(#clip340)" d="M893.315 1274.14 L899.521 1274.14 L899.521 1252.72 L892.769 1254.07 L892.769 1250.61 L899.484 1249.26 L903.283 1249.26 L903.283 1274.14 L909.489 1274.14 L909.489 1277.34 L893.315 1277.34 L893.315 1274.14 Z" fill="#000000" fill-rule="evenodd" fill-opacity="1" /><path clip-path="url(#clip340)" d="M512.291 1157.1 L512.291 1152.84 Q514.05 1153.67 515.856 1154.11 Q517.661 1154.55 519.398 1154.55 Q524.027 1154.55 526.458 1151.45 Q528.911 1148.32 529.259 1141.98 Q527.916 1143.97 525.856 1145.04 Q523.796 1146.1 521.296 1146.1 Q516.111 1146.1 513.078 1142.98 Q510.069 1139.83 510.069 1134.39 Q510.069 1129.07 513.217 1125.85 Q516.365 1122.63 521.597 1122.63 Q527.592 1122.63 530.74 1127.24 Q533.911 1131.82 533.911 1140.57 Q533.911 1148.74 530.022 1153.63 Q526.157 1158.49 519.606 1158.49 Q517.847 1158.49 516.041 1158.14 Q514.236 1157.79 512.291 1157.1 M521.597 1142.44 Q524.745 1142.44 526.573 1140.29 Q528.425 1138.14 528.425 1134.39 Q528.425 1130.66 526.573 1128.51 Q524.745 1126.33 521.597 1126.33 Q518.448 1126.33 516.597 1128.51 Q514.768 1130.66 514.768 1134.39 Q514.768 1138.14 516.597 1140.29 Q518.448 1142.44 521.597 1142.44 Z" fill="#000000" fill-rule="evenodd" fill-opacity="1" /><path clip-path="url(#clip340)" d="M542.314 1151.94 L547.198 1151.94 L547.198 1157.81 L542.314 1157.81 L542.314 1151.94 Z" fill="#000000" fill-rule="evenodd" fill-opacity="1" /><path clip-path="url(#clip340)" d="M557.522 1157.1 L557.522 1152.84 Q559.282 1153.67 561.087 1154.11 Q562.893 1154.55 564.629 1154.55 Q569.258 1154.55 571.689 1151.45 Q574.143 1148.32 574.49 1141.98 Q573.147 1143.97 571.087 1145.04 Q569.027 1146.1 566.527 1146.1 Q561.342 1146.1 558.309 1142.98 Q555.3 1139.83 555.3 1134.39 Q555.3 1129.07 558.448 1125.85 Q561.596 1122.63 566.828 1122.63 Q572.823 1122.63 575.971 1127.24 Q579.143 1131.82 579.143 1140.57 Q579.143 1148.74 575.254 1153.63 Q571.388 1158.49 564.837 1158.49 Q563.078 1158.49 561.272 1158.14 Q559.467 1157.79 557.522 1157.1 M566.828 1142.44 Q569.976 1142.44 571.805 1140.29 Q573.657 1138.14 573.657 1134.39 Q573.657 1130.66 571.805 1128.51 Q569.976 1126.33 566.828 1126.33 Q563.68 1126.33 561.828 1128.51 Q559.999 1130.66 559.999 1134.39 Q559.999 1138.14 561.828 1140.29 Q563.68 1142.44 566.828 1142.44 Z" fill="#000000" fill-rule="evenodd" fill-opacity="1" /><path clip-path="url(#clip340)" d="M587.684 1157.1 L587.684 1152.84 Q589.443 1153.67 591.249 1154.11 Q593.055 1154.55 594.791 1154.55 Q599.42 1154.55 601.851 1151.45 Q604.305 1148.32 604.652 1141.98 Q603.309 1143.97 601.249 1145.04 Q599.189 1146.1 596.689 1146.1 Q591.504 1146.1 588.471 1142.98 Q585.462 1139.83 585.462 1134.39 Q585.462 1129.07 588.61 1125.85 Q591.758 1122.63 596.99 1122.63 Q602.985 1122.63 606.133 1127.24 Q609.304 1131.82 609.304 1140.57 Q609.304 1148.74 605.416 1153.63 Q601.55 1158.49 594.999 1158.49 Q593.24 1158.49 591.434 1158.14 Q589.629 1157.79 587.684 1157.1 M596.99 1142.44 Q600.138 1142.44 601.967 1140.29 Q603.818 1138.14 603.818 1134.39 Q603.818 1130.66 601.967 1128.51 Q600.138 1126.33 596.99 1126.33 Q593.842 1126.33 591.99 1128.51 Q590.161 1130.66 590.161 1134.39 Q590.161 1138.14 591.99 1140.29 Q593.842 1142.44 596.99 1142.44 Z" fill="#000000" fill-rule="evenodd" fill-opacity="1" /><path clip-path="url(#clip340)" d="M617.846 1157.1 L617.846 1152.84 Q619.605 1153.67 621.411 1154.11 Q623.216 1154.55 624.953 1154.55 Q629.582 1154.55 632.013 1151.45 Q634.466 1148.32 634.814 1141.98 Q633.471 1143.97 631.411 1145.04 Q629.351 1146.1 626.851 1146.1 Q621.666 1146.1 618.633 1142.98 Q615.624 1139.83 615.624 1134.39 Q615.624 1129.07 618.772 1125.85 Q621.92 1122.63 627.152 1122.63 Q633.147 1122.63 636.295 1127.24 Q639.466 1131.82 639.466 1140.57 Q639.466 1148.74 635.577 1153.63 Q631.712 1158.49 625.161 1158.49 Q623.402 1158.49 621.596 1158.14 Q619.791 1157.79 617.846 1157.1 M627.152 1142.44 Q630.3 1142.44 632.128 1140.29 Q633.98 1138.14 633.98 1134.39 Q633.98 1130.66 632.128 1128.51 Q630.3 1126.33 627.152 1126.33 Q624.003 1126.33 622.152 1128.51 Q620.323 1130.66 620.323 1134.39 Q620.323 1138.14 622.152 1140.29 Q624.003 1142.44 627.152 1142.44 Z" fill="#000000" fill-rule="evenodd" fill-opacity="1" /><path clip-path="url(#clip340)" d="M648.008 1157.1 L648.008 1152.84 Q649.767 1153.67 651.573 1154.11 Q653.378 1154.55 655.114 1154.55 Q659.744 1154.55 662.175 1151.45 Q664.628 1148.32 664.975 1141.98 Q663.633 1143.97 661.573 1145.04 Q659.513 1146.1 657.013 1146.1 Q651.827 1146.1 648.795 1142.98 Q645.786 1139.83 645.786 1134.39 Q645.786 1129.07 648.934 1125.85 Q652.082 1122.63 657.313 1122.63 Q663.309 1122.63 666.457 1127.24 Q669.628 1131.82 669.628 1140.57 Q669.628 1148.74 665.739 1153.63 Q661.874 1158.49 655.323 1158.49 Q653.563 1158.49 651.758 1158.14 Q649.952 1157.79 648.008 1157.1 M657.313 1142.44 Q660.462 1142.44 662.29 1140.29 Q664.142 1138.14 664.142 1134.39 Q664.142 1130.66 662.29 1128.51 Q660.462 1126.33 657.313 1126.33 Q654.165 1126.33 652.314 1128.51 Q650.485 1130.66 650.485 1134.39 Q650.485 1138.14 652.314 1140.29 Q654.165 1142.44 657.313 1142.44 Z" fill="#000000" fill-rule="evenodd" fill-opacity="1" /><path clip-path="url(#clip340)" d="M678.17 1157.1 L678.17 1152.84 Q679.929 1153.67 681.735 1154.11 Q683.54 1154.55 685.276 1154.55 Q689.906 1154.55 692.336 1151.45 Q694.79 1148.32 695.137 1141.98 Q693.795 1143.97 691.735 1145.04 Q689.674 1146.1 687.174 1146.1 Q681.989 1146.1 678.957 1142.98 Q675.948 1139.83 675.948 1134.39 Q675.948 1129.07 679.096 1125.85 Q682.244 1122.63 687.475 1122.63 Q693.471 1122.63 696.619 1127.24 Q699.79 1131.82 699.79 1140.57 Q699.79 1148.74 695.901 1153.63 Q692.036 1158.49 685.485 1158.49 Q683.725 1158.49 681.92 1158.14 Q680.114 1157.79 678.17 1157.1 M687.475 1142.44 Q690.623 1142.44 692.452 1140.29 Q694.304 1138.14 694.304 1134.39 Q694.304 1130.66 692.452 1128.51 Q690.623 1126.33 687.475 1126.33 Q684.327 1126.33 682.475 1128.51 Q680.647 1130.66 680.647 1134.39 Q680.647 1138.14 682.475 1140.29 Q684.327 1142.44 687.475 1142.44 Z" fill="#000000" fill-rule="evenodd" fill-opacity="1" /><path clip-path="url(#clip340)" d="M718.193 1126.33 Q714.582 1126.33 712.753 1129.9 Q710.947 1133.44 710.947 1140.57 Q710.947 1147.68 712.753 1151.24 Q714.582 1154.78 718.193 1154.78 Q721.827 1154.78 723.633 1151.24 Q725.461 1147.68 725.461 1140.57 Q725.461 1133.44 723.633 1129.9 Q721.827 1126.33 718.193 1126.33 M718.193 1122.63 Q724.003 1122.63 727.058 1127.24 Q730.137 1131.82 730.137 1140.57 Q730.137 1149.3 727.058 1153.9 Q724.003 1158.49 718.193 1158.49 Q712.383 1158.49 709.304 1153.9 Q706.248 1149.3 706.248 1140.57 Q706.248 1131.82 709.304 1127.24 Q712.383 1122.63 718.193 1122.63 Z" fill="#000000" fill-rule="evenodd" fill-opacity="1" /><path clip-path="url(#clip340)" d="M748.355 1126.33 Q744.744 1126.33 742.915 1129.9 Q741.109 1133.44 741.109 1140.57 Q741.109 1147.68 742.915 1151.24 Q744.744 1154.78 748.355 1154.78 Q751.989 1154.78 753.794 1151.24 Q755.623 1147.68 755.623 1140.57 Q755.623 1133.44 753.794 1129.9 Q751.989 1126.33 748.355 1126.33 M748.355 1122.63 Q754.165 1122.63 757.22 1127.24 Q760.299 1131.82 760.299 1140.57 Q760.299 1149.3 757.22 1153.9 Q754.165 1158.49 748.355 1158.49 Q742.545 1158.49 739.466 1153.9 Q736.41 1149.3 736.41 1140.57 Q736.41 1131.82 739.466 1127.24 Q742.545 1122.63 748.355 1122.63 Z" fill="#000000" fill-rule="evenodd" fill-opacity="1" /><path clip-path="url(#clip340)" d="M796.688 1132.35 L786.109 1142.98 L796.688 1153.56 L793.933 1156.36 L783.308 1145.73 L772.683 1156.36 L769.952 1153.56 L780.507 1142.98 L769.952 1132.35 L772.683 1129.55 L783.308 1140.18 L793.933 1129.55 L796.688 1132.35 Z" fill="#000000" fill-rule="evenodd" fill-opacity="1" /><path clip-path="url(#clip340)" d="M809.049 1153.88 L816.688 1153.88 L816.688 1127.51 L808.377 1129.18 L808.377 1124.92 L816.641 1123.25 L821.317 1123.25 L821.317 1153.88 L828.956 1153.88 L828.956 1157.81 L809.049 1157.81 L809.049 1153.88 Z" fill="#000000" fill-rule="evenodd" fill-opacity="1" /><path clip-path="url(#clip340)" d="M848.4 1126.33 Q844.789 1126.33 842.961 1129.9 Q841.155 1133.44 841.155 1140.57 Q841.155 1147.68 842.961 1151.24 Q844.789 1154.78 848.4 1154.78 Q852.035 1154.78 853.84 1151.24 Q855.669 1147.68 855.669 1140.57 Q855.669 1133.44 853.84 1129.9 Q852.035 1126.33 848.4 1126.33 M848.4 1122.63 Q854.211 1122.63 857.266 1127.24 Q860.345 1131.82 860.345 1140.57 Q860.345 1149.3 857.266 1153.9 Q854.211 1158.49 848.4 1158.49 Q842.59 1158.49 839.512 1153.9 Q836.456 1149.3 836.456 1140.57 Q836.456 1131.82 839.512 1127.24 Q842.59 1122.63 848.4 1122.63 Z" fill="#000000" fill-rule="evenodd" fill-opacity="1" /><path clip-path="url(#clip340)" d="M860.345 1116.73 L884.456 1116.73 L884.456 1119.93 L860.345 1119.93 L860.345 1116.73 Z" fill="#000000" fill-rule="evenodd" fill-opacity="1" /><path clip-path="url(#clip340)" d="M893.315 1127.21 L899.521 1127.21 L899.521 1105.79 L892.769 1107.14 L892.769 1103.68 L899.484 1102.32 L903.283 1102.32 L903.283 1127.21 L909.489 1127.21 L909.489 1130.4 L893.315 1130.4 L893.315 1127.21 Z" fill="#000000" fill-rule="evenodd" fill-opacity="1" /><path clip-path="url(#clip340)" d="M542.697 1006.95 L550.336 1006.95 L550.336 980.58 L542.026 982.247 L542.026 977.987 L550.29 976.321 L554.966 976.321 L554.966 1006.95 L562.605 1006.95 L562.605 1010.88 L542.697 1010.88 L542.697 1006.95 Z" fill="#000000" fill-rule="evenodd" fill-opacity="1" /><path clip-path="url(#clip340)" d="M572.049 1005 L576.933 1005 L576.933 1010.88 L572.049 1010.88 L572.049 1005 Z" fill="#000000" fill-rule="evenodd" fill-opacity="1" /><path clip-path="url(#clip340)" d="M597.118 979.4 Q593.507 979.4 591.679 982.964 Q589.873 986.506 589.873 993.636 Q589.873 1000.74 591.679 1004.31 Q593.507 1007.85 597.118 1007.85 Q600.753 1007.85 602.558 1004.31 Q604.387 1000.74 604.387 993.636 Q604.387 986.506 602.558 982.964 Q600.753 979.4 597.118 979.4 M597.118 975.696 Q602.929 975.696 605.984 980.302 Q609.063 984.886 609.063 993.636 Q609.063 1002.36 605.984 1006.97 Q602.929 1011.55 597.118 1011.55 Q591.308 1011.55 588.23 1006.97 Q585.174 1002.36 585.174 993.636 Q585.174 984.886 588.23 980.302 Q591.308 975.696 597.118 975.696 Z" fill="#000000" fill-rule="evenodd" fill-opacity="1" /><path clip-path="url(#clip340)" d="M627.28 979.4 Q623.669 979.4 621.841 982.964 Q620.035 986.506 620.035 993.636 Q620.035 1000.74 621.841 1004.31 Q623.669 1007.85 627.28 1007.85 Q630.915 1007.85 632.72 1004.31 Q634.549 1000.74 634.549 993.636 Q634.549 986.506 632.72 982.964 Q630.915 979.4 627.28 979.4 M627.28 975.696 Q633.091 975.696 636.146 980.302 Q639.225 984.886 639.225 993.636 Q639.225 1002.36 636.146 1006.97 Q633.091 1011.55 627.28 1011.55 Q621.47 1011.55 618.392 1006.97 Q615.336 1002.36 615.336 993.636 Q615.336 984.886 618.392 980.302 Q621.47 975.696 627.28 975.696 Z" fill="#000000" fill-rule="evenodd" fill-opacity="1" /><path clip-path="url(#clip340)" d="M657.442 979.4 Q653.831 979.4 652.002 982.964 Q650.197 986.506 650.197 993.636 Q650.197 1000.74 652.002 1004.31 Q653.831 1007.85 657.442 1007.85 Q661.076 1007.85 662.882 1004.31 Q664.711 1000.74 664.711 993.636 Q664.711 986.506 662.882 982.964 Q661.076 979.4 657.442 979.4 M657.442 975.696 Q663.252 975.696 666.308 980.302 Q669.387 984.886 669.387 993.636 Q669.387 1002.36 666.308 1006.97 Q663.252 1011.55 657.442 1011.55 Q651.632 1011.55 648.553 1006.97 Q645.498 1002.36 645.498 993.636 Q645.498 984.886 648.553 980.302 Q651.632 975.696 657.442 975.696 Z" fill="#000000" fill-rule="evenodd" fill-opacity="1" /><path clip-path="url(#clip340)" d="M687.604 979.4 Q683.993 979.4 682.164 982.964 Q680.359 986.506 680.359 993.636 Q680.359 1000.74 682.164 1004.31 Q683.993 1007.85 687.604 1007.85 Q691.238 1007.85 693.044 1004.31 Q694.873 1000.74 694.873 993.636 Q694.873 986.506 693.044 982.964 Q691.238 979.4 687.604 979.4 M687.604 975.696 Q693.414 975.696 696.47 980.302 Q699.548 984.886 699.548 993.636 Q699.548 1002.36 696.47 1006.97 Q693.414 1011.55 687.604 1011.55 Q681.794 1011.55 678.715 1006.97 Q675.66 1002.36 675.66 993.636 Q675.66 984.886 678.715 980.302 Q681.794 975.696 687.604 975.696 Z" fill="#000000" fill-rule="evenodd" fill-opacity="1" /><path clip-path="url(#clip340)" d="M717.766 979.4 Q714.155 979.4 712.326 982.964 Q710.521 986.506 710.521 993.636 Q710.521 1000.74 712.326 1004.31 Q714.155 1007.85 717.766 1007.85 Q721.4 1007.85 723.206 1004.31 Q725.034 1000.74 725.034 993.636 Q725.034 986.506 723.206 982.964 Q721.4 979.4 717.766 979.4 M717.766 975.696 Q723.576 975.696 726.632 980.302 Q729.71 984.886 729.71 993.636 Q729.71 1002.36 726.632 1006.97 Q723.576 1011.55 717.766 1011.55 Q711.956 1011.55 708.877 1006.97 Q705.822 1002.36 705.822 993.636 Q705.822 984.886 708.877 980.302 Q711.956 975.696 717.766 975.696 Z" fill="#000000" fill-rule="evenodd" fill-opacity="1" /><path clip-path="url(#clip340)" d="M747.928 979.4 Q744.317 979.4 742.488 982.964 Q740.683 986.506 740.683 993.636 Q740.683 1000.74 742.488 1004.31 Q744.317 1007.85 747.928 1007.85 Q751.562 1007.85 753.368 1004.31 Q755.196 1000.74 755.196 993.636 Q755.196 986.506 753.368 982.964 Q751.562 979.4 747.928 979.4 M747.928 975.696 Q753.738 975.696 756.794 980.302 Q759.872 984.886 759.872 993.636 Q759.872 1002.36 756.794 1006.97 Q753.738 1011.55 747.928 1011.55 Q742.118 1011.55 739.039 1006.97 Q735.983 1002.36 735.983 993.636 Q735.983 984.886 739.039 980.302 Q742.118 975.696 747.928 975.696 Z" fill="#000000" fill-rule="evenodd" fill-opacity="1" /><path clip-path="url(#clip340)" d="M778.09 979.4 Q774.479 979.4 772.65 982.964 Q770.844 986.506 770.844 993.636 Q770.844 1000.74 772.65 1004.31 Q774.479 1007.85 778.09 1007.85 Q781.724 1007.85 783.53 1004.31 Q785.358 1000.74 785.358 993.636 Q785.358 986.506 783.53 982.964 Q781.724 979.4 778.09 979.4 M778.09 975.696 Q783.9 975.696 786.955 980.302 Q790.034 984.886 790.034 993.636 Q790.034 1002.36 786.955 1006.97 Q783.9 1011.55 778.09 1011.55 Q772.28 1011.55 769.201 1006.97 Q766.145 1002.36 766.145 993.636 Q766.145 984.886 769.201 980.302 Q772.28 975.696 778.09 975.696 Z" fill="#000000" fill-rule="evenodd" fill-opacity="1" /><path clip-path="url(#clip340)" d="M826.423 985.418 L815.844 996.043 L826.423 1006.62 L823.668 1009.42 L813.043 998.798 L802.418 1009.42 L799.687 1006.62 L810.242 996.043 L799.687 985.418 L802.418 982.617 L813.043 993.242 L823.668 982.617 L826.423 985.418 Z" fill="#000000" fill-rule="evenodd" fill-opacity="1" /><path clip-path="url(#clip340)" d="M838.784 1006.95 L846.423 1006.95 L846.423 980.58 L838.113 982.247 L838.113 977.987 L846.376 976.321 L851.052 976.321 L851.052 1006.95 L858.691 1006.95 L858.691 1010.88 L838.784 1010.88 L838.784 1006.95 Z" fill="#000000" fill-rule="evenodd" fill-opacity="1" /><path clip-path="url(#clip340)" d="M878.136 979.4 Q874.524 979.4 872.696 982.964 Q870.89 986.506 870.89 993.636 Q870.89 1000.74 872.696 1004.31 Q874.524 1007.85 878.136 1007.85 Q881.77 1007.85 883.575 1004.31 Q885.404 1000.74 885.404 993.636 Q885.404 986.506 883.575 982.964 Q881.77 979.4 878.136 979.4 M878.136 975.696 Q883.946 975.696 887.001 980.302 Q890.08 984.886 890.08 993.636 Q890.08 1002.36 887.001 1006.97 Q883.946 1011.55 878.136 1011.55 Q872.325 1011.55 869.247 1006.97 Q866.191 1002.36 866.191 993.636 Q866.191 984.886 869.247 980.302 Q872.325 975.696 878.136 975.696 Z" fill="#000000" fill-rule="evenodd" fill-opacity="1" /><path clip-path="url(#clip340)" d="M899.785 957.892 Q896.851 957.892 895.365 960.788 Q893.898 963.666 893.898 969.459 Q893.898 975.233 895.365 978.129 Q896.851 981.007 899.785 981.007 Q902.738 981.007 904.205 978.129 Q905.69 975.233 905.69 969.459 Q905.69 963.666 904.205 960.788 Q902.738 957.892 899.785 957.892 M899.785 954.883 Q904.505 954.883 906.988 958.625 Q909.489 962.349 909.489 969.459 Q909.489 976.549 906.988 980.292 Q904.505 984.016 899.785 984.016 Q895.064 984.016 892.563 980.292 Q890.08 976.549 890.08 969.459 Q890.08 962.349 892.563 958.625 Q895.064 954.883 899.785 954.883 Z" fill="#000000" fill-rule="evenodd" fill-opacity="1" /><path clip-path="url(#clip340)" d="M542.697 860.012 L550.336 860.012 L550.336 833.646 L542.026 835.313 L542.026 831.053 L550.29 829.387 L554.966 829.387 L554.966 860.012 L562.605 860.012 L562.605 863.947 L542.697 863.947 L542.697 860.012 Z" fill="#000000" fill-rule="evenodd" fill-opacity="1" /><path clip-path="url(#clip340)" d="M572.049 858.067 L576.933 858.067 L576.933 863.947 L572.049 863.947 L572.049 858.067 Z" fill="#000000" fill-rule="evenodd" fill-opacity="1" /><path clip-path="url(#clip340)" d="M597.118 832.465 Q593.507 832.465 591.679 836.03 Q589.873 839.572 589.873 846.701 Q589.873 853.808 591.679 857.373 Q593.507 860.914 597.118 860.914 Q600.753 860.914 602.558 857.373 Q604.387 853.808 604.387 846.701 Q604.387 839.572 602.558 836.03 Q600.753 832.465 597.118 832.465 M597.118 828.762 Q602.929 828.762 605.984 833.368 Q609.063 837.952 609.063 846.701 Q609.063 855.428 605.984 860.035 Q602.929 864.618 597.118 864.618 Q591.308 864.618 588.23 860.035 Q585.174 855.428 585.174 846.701 Q585.174 837.952 588.23 833.368 Q591.308 828.762 597.118 828.762 Z" fill="#000000" fill-rule="evenodd" fill-opacity="1" /><path clip-path="url(#clip340)" d="M627.28 832.465 Q623.669 832.465 621.841 836.03 Q620.035 839.572 620.035 846.701 Q620.035 853.808 621.841 857.373 Q623.669 860.914 627.28 860.914 Q630.915 860.914 632.72 857.373 Q634.549 853.808 634.549 846.701 Q634.549 839.572 632.72 836.03 Q630.915 832.465 627.28 832.465 M627.28 828.762 Q633.091 828.762 636.146 833.368 Q639.225 837.952 639.225 846.701 Q639.225 855.428 636.146 860.035 Q633.091 864.618 627.28 864.618 Q621.47 864.618 618.392 860.035 Q615.336 855.428 615.336 846.701 Q615.336 837.952 618.392 833.368 Q621.47 828.762 627.28 828.762 Z" fill="#000000" fill-rule="evenodd" fill-opacity="1" /><path clip-path="url(#clip340)" d="M657.442 832.465 Q653.831 832.465 652.002 836.03 Q650.197 839.572 650.197 846.701 Q650.197 853.808 652.002 857.373 Q653.831 860.914 657.442 860.914 Q661.076 860.914 662.882 857.373 Q664.711 853.808 664.711 846.701 Q664.711 839.572 662.882 836.03 Q661.076 832.465 657.442 832.465 M657.442 828.762 Q663.252 828.762 666.308 833.368 Q669.387 837.952 669.387 846.701 Q669.387 855.428 666.308 860.035 Q663.252 864.618 657.442 864.618 Q651.632 864.618 648.553 860.035 Q645.498 855.428 645.498 846.701 Q645.498 837.952 648.553 833.368 Q651.632 828.762 657.442 828.762 Z" fill="#000000" fill-rule="evenodd" fill-opacity="1" /><path clip-path="url(#clip340)" d="M687.604 832.465 Q683.993 832.465 682.164 836.03 Q680.359 839.572 680.359 846.701 Q680.359 853.808 682.164 857.373 Q683.993 860.914 687.604 860.914 Q691.238 860.914 693.044 857.373 Q694.873 853.808 694.873 846.701 Q694.873 839.572 693.044 836.03 Q691.238 832.465 687.604 832.465 M687.604 828.762 Q693.414 828.762 696.47 833.368 Q699.548 837.952 699.548 846.701 Q699.548 855.428 696.47 860.035 Q693.414 864.618 687.604 864.618 Q681.794 864.618 678.715 860.035 Q675.66 855.428 675.66 846.701 Q675.66 837.952 678.715 833.368 Q681.794 828.762 687.604 828.762 Z" fill="#000000" fill-rule="evenodd" fill-opacity="1" /><path clip-path="url(#clip340)" d="M717.766 832.465 Q714.155 832.465 712.326 836.03 Q710.521 839.572 710.521 846.701 Q710.521 853.808 712.326 857.373 Q714.155 860.914 717.766 860.914 Q721.4 860.914 723.206 857.373 Q725.034 853.808 725.034 846.701 Q725.034 839.572 723.206 836.03 Q721.4 832.465 717.766 832.465 M717.766 828.762 Q723.576 828.762 726.632 833.368 Q729.71 837.952 729.71 846.701 Q729.71 855.428 726.632 860.035 Q723.576 864.618 717.766 864.618 Q711.956 864.618 708.877 860.035 Q705.822 855.428 705.822 846.701 Q705.822 837.952 708.877 833.368 Q711.956 828.762 717.766 828.762 Z" fill="#000000" fill-rule="evenodd" fill-opacity="1" /><path clip-path="url(#clip340)" d="M738.738 860.012 L746.377 860.012 L746.377 833.646 L738.067 835.313 L738.067 831.053 L746.331 829.387 L751.007 829.387 L751.007 860.012 L758.645 860.012 L758.645 863.947 L738.738 863.947 L738.738 860.012 Z" fill="#000000" fill-rule="evenodd" fill-opacity="1" /><path clip-path="url(#clip340)" d="M778.09 832.465 Q774.479 832.465 772.65 836.03 Q770.844 839.572 770.844 846.701 Q770.844 853.808 772.65 857.373 Q774.479 860.914 778.09 860.914 Q781.724 860.914 783.53 857.373 Q785.358 853.808 785.358 846.701 Q785.358 839.572 783.53 836.03 Q781.724 832.465 778.09 832.465 M778.09 828.762 Q783.9 828.762 786.955 833.368 Q790.034 837.952 790.034 846.701 Q790.034 855.428 786.955 860.035 Q783.9 864.618 778.09 864.618 Q772.28 864.618 769.201 860.035 Q766.145 855.428 766.145 846.701 Q766.145 837.952 769.201 833.368 Q772.28 828.762 778.09 828.762 Z" fill="#000000" fill-rule="evenodd" fill-opacity="1" /><path clip-path="url(#clip340)" d="M826.423 838.484 L815.844 849.109 L826.423 859.688 L823.668 862.488 L813.043 851.864 L802.418 862.488 L799.687 859.688 L810.242 849.109 L799.687 838.484 L802.418 835.683 L813.043 846.308 L823.668 835.683 L826.423 838.484 Z" fill="#000000" fill-rule="evenodd" fill-opacity="1" /><path clip-path="url(#clip340)" d="M838.784 860.012 L846.423 860.012 L846.423 833.646 L838.113 835.313 L838.113 831.053 L846.376 829.387 L851.052 829.387 L851.052 860.012 L858.691 860.012 L858.691 863.947 L838.784 863.947 L838.784 860.012 Z" fill="#000000" fill-rule="evenodd" fill-opacity="1" /><path clip-path="url(#clip340)" d="M878.136 832.465 Q874.524 832.465 872.696 836.03 Q870.89 839.572 870.89 846.701 Q870.89 853.808 872.696 857.373 Q874.524 860.914 878.136 860.914 Q881.77 860.914 883.575 857.373 Q885.404 853.808 885.404 846.701 Q885.404 839.572 883.575 836.03 Q881.77 832.465 878.136 832.465 M878.136 828.762 Q883.946 828.762 887.001 833.368 Q890.08 837.952 890.08 846.701 Q890.08 855.428 887.001 860.035 Q883.946 864.618 878.136 864.618 Q872.325 864.618 869.247 860.035 Q866.191 855.428 866.191 846.701 Q866.191 837.952 869.247 833.368 Q872.325 828.762 878.136 828.762 Z" fill="#000000" fill-rule="evenodd" fill-opacity="1" /><path clip-path="url(#clip340)" d="M899.785 810.958 Q896.851 810.958 895.365 813.854 Q893.898 816.732 893.898 822.525 Q893.898 828.299 895.365 831.195 Q896.851 834.073 899.785 834.073 Q902.738 834.073 904.205 831.195 Q905.69 828.299 905.69 822.525 Q905.69 816.732 904.205 813.854 Q902.738 810.958 899.785 810.958 M899.785 807.949 Q904.505 807.949 906.988 811.691 Q909.489 815.415 909.489 822.525 Q909.489 829.615 906.988 833.358 Q904.505 837.082 899.785 837.082 Q895.064 837.082 892.563 833.358 Q890.08 829.615 890.08 822.525 Q890.08 815.415 892.563 811.691 Q895.064 807.949 899.785 807.949 Z" fill="#000000" fill-rule="evenodd" fill-opacity="1" /><path clip-path="url(#clip340)" d="M542.697 713.078 L550.336 713.078 L550.336 686.712 L542.026 688.379 L542.026 684.119 L550.29 682.453 L554.966 682.453 L554.966 713.078 L562.605 713.078 L562.605 717.013 L542.697 717.013 L542.697 713.078 Z" fill="#000000" fill-rule="evenodd" fill-opacity="1" /><path clip-path="url(#clip340)" d="M572.049 711.133 L576.933 711.133 L576.933 717.013 L572.049 717.013 L572.049 711.133 Z" fill="#000000" fill-rule="evenodd" fill-opacity="1" /><path clip-path="url(#clip340)" d="M597.118 685.531 Q593.507 685.531 591.679 689.096 Q589.873 692.638 589.873 699.767 Q589.873 706.874 591.679 710.439 Q593.507 713.98 597.118 713.98 Q600.753 713.98 602.558 710.439 Q604.387 706.874 604.387 699.767 Q604.387 692.638 602.558 689.096 Q600.753 685.531 597.118 685.531 M597.118 681.828 Q602.929 681.828 605.984 686.434 Q609.063 691.017 609.063 699.767 Q609.063 708.494 605.984 713.101 Q602.929 717.684 597.118 717.684 Q591.308 717.684 588.23 713.101 Q585.174 708.494 585.174 699.767 Q585.174 691.017 588.23 686.434 Q591.308 681.828 597.118 681.828 Z" fill="#000000" fill-rule="evenodd" fill-opacity="1" /><path clip-path="url(#clip340)" d="M627.28 685.531 Q623.669 685.531 621.841 689.096 Q620.035 692.638 620.035 699.767 Q620.035 706.874 621.841 710.439 Q623.669 713.98 627.28 713.98 Q630.915 713.98 632.72 710.439 Q634.549 706.874 634.549 699.767 Q634.549 692.638 632.72 689.096 Q630.915 685.531 627.28 685.531 M627.28 681.828 Q633.091 681.828 636.146 686.434 Q639.225 691.017 639.225 699.767 Q639.225 708.494 636.146 713.101 Q633.091 717.684 627.28 717.684 Q621.47 717.684 618.392 713.101 Q615.336 708.494 615.336 699.767 Q615.336 691.017 618.392 686.434 Q621.47 681.828 627.28 681.828 Z" fill="#000000" fill-rule="evenodd" fill-opacity="1" /><path clip-path="url(#clip340)" d="M657.442 685.531 Q653.831 685.531 652.002 689.096 Q650.197 692.638 650.197 699.767 Q650.197 706.874 652.002 710.439 Q653.831 713.98 657.442 713.98 Q661.076 713.98 662.882 710.439 Q664.711 706.874 664.711 699.767 Q664.711 692.638 662.882 689.096 Q661.076 685.531 657.442 685.531 M657.442 681.828 Q663.252 681.828 666.308 686.434 Q669.387 691.017 669.387 699.767 Q669.387 708.494 666.308 713.101 Q663.252 717.684 657.442 717.684 Q651.632 717.684 648.553 713.101 Q645.498 708.494 645.498 699.767 Q645.498 691.017 648.553 686.434 Q651.632 681.828 657.442 681.828 Z" fill="#000000" fill-rule="evenodd" fill-opacity="1" /><path clip-path="url(#clip340)" d="M687.604 685.531 Q683.993 685.531 682.164 689.096 Q680.359 692.638 680.359 699.767 Q680.359 706.874 682.164 710.439 Q683.993 713.98 687.604 713.98 Q691.238 713.98 693.044 710.439 Q694.873 706.874 694.873 699.767 Q694.873 692.638 693.044 689.096 Q691.238 685.531 687.604 685.531 M687.604 681.828 Q693.414 681.828 696.47 686.434 Q699.548 691.017 699.548 699.767 Q699.548 708.494 696.47 713.101 Q693.414 717.684 687.604 717.684 Q681.794 717.684 678.715 713.101 Q675.66 708.494 675.66 699.767 Q675.66 691.017 678.715 686.434 Q681.794 681.828 687.604 681.828 Z" fill="#000000" fill-rule="evenodd" fill-opacity="1" /><path clip-path="url(#clip340)" d="M717.766 685.531 Q714.155 685.531 712.326 689.096 Q710.521 692.638 710.521 699.767 Q710.521 706.874 712.326 710.439 Q714.155 713.98 717.766 713.98 Q721.4 713.98 723.206 710.439 Q725.034 706.874 725.034 699.767 Q725.034 692.638 723.206 689.096 Q721.4 685.531 717.766 685.531 M717.766 681.828 Q723.576 681.828 726.632 686.434 Q729.71 691.017 729.71 699.767 Q729.71 708.494 726.632 713.101 Q723.576 717.684 717.766 717.684 Q711.956 717.684 708.877 713.101 Q705.822 708.494 705.822 699.767 Q705.822 691.017 708.877 686.434 Q711.956 681.828 717.766 681.828 Z" fill="#000000" fill-rule="evenodd" fill-opacity="1" /><path clip-path="url(#clip340)" d="M741.956 713.078 L758.275 713.078 L758.275 717.013 L736.331 717.013 L736.331 713.078 Q738.993 710.323 743.576 705.693 Q748.182 701.041 749.363 699.698 Q751.608 697.175 752.488 695.439 Q753.391 693.679 753.391 691.99 Q753.391 689.235 751.446 687.499 Q749.525 685.763 746.423 685.763 Q744.224 685.763 741.77 686.527 Q739.34 687.291 736.562 688.842 L736.562 684.119 Q739.386 682.985 741.84 682.406 Q744.294 681.828 746.331 681.828 Q751.701 681.828 754.895 684.513 Q758.09 687.198 758.09 691.689 Q758.09 693.818 757.28 695.74 Q756.493 697.638 754.386 700.23 Q753.807 700.902 750.706 704.119 Q747.604 707.314 741.956 713.078 Z" fill="#000000" fill-rule="evenodd" fill-opacity="1" /><path clip-path="url(#clip340)" d="M778.09 685.531 Q774.479 685.531 772.65 689.096 Q770.844 692.638 770.844 699.767 Q770.844 706.874 772.65 710.439 Q774.479 713.98 778.09 713.98 Q781.724 713.98 783.53 710.439 Q785.358 706.874 785.358 699.767 Q785.358 692.638 783.53 689.096 Q781.724 685.531 778.09 685.531 M778.09 681.828 Q783.9 681.828 786.955 686.434 Q790.034 691.017 790.034 699.767 Q790.034 708.494 786.955 713.101 Q783.9 717.684 778.09 717.684 Q772.28 717.684 769.201 713.101 Q766.145 708.494 766.145 699.767 Q766.145 691.017 769.201 686.434 Q772.28 681.828 778.09 681.828 Z" fill="#000000" fill-rule="evenodd" fill-opacity="1" /><path clip-path="url(#clip340)" d="M826.423 691.55 L815.844 702.175 L826.423 712.753 L823.668 715.554 L813.043 704.929 L802.418 715.554 L799.687 712.753 L810.242 702.175 L799.687 691.55 L802.418 688.749 L813.043 699.374 L823.668 688.749 L826.423 691.55 Z" fill="#000000" fill-rule="evenodd" fill-opacity="1" /><path clip-path="url(#clip340)" d="M838.784 713.078 L846.423 713.078 L846.423 686.712 L838.113 688.379 L838.113 684.119 L846.376 682.453 L851.052 682.453 L851.052 713.078 L858.691 713.078 L858.691 717.013 L838.784 717.013 L838.784 713.078 Z" fill="#000000" fill-rule="evenodd" fill-opacity="1" /><path clip-path="url(#clip340)" d="M878.136 685.531 Q874.524 685.531 872.696 689.096 Q870.89 692.638 870.89 699.767 Q870.89 706.874 872.696 710.439 Q874.524 713.98 878.136 713.98 Q881.77 713.98 883.575 710.439 Q885.404 706.874 885.404 699.767 Q885.404 692.638 883.575 689.096 Q881.77 685.531 878.136 685.531 M878.136 681.828 Q883.946 681.828 887.001 686.434 Q890.08 691.017 890.08 699.767 Q890.08 708.494 887.001 713.101 Q883.946 717.684 878.136 717.684 Q872.325 717.684 869.247 713.101 Q866.191 708.494 866.191 699.767 Q866.191 691.017 869.247 686.434 Q872.325 681.828 878.136 681.828 Z" fill="#000000" fill-rule="evenodd" fill-opacity="1" /><path clip-path="url(#clip340)" d="M899.785 664.024 Q896.851 664.024 895.365 666.92 Q893.898 669.798 893.898 675.591 Q893.898 681.364 895.365 684.261 Q896.851 687.138 899.785 687.138 Q902.738 687.138 904.205 684.261 Q905.69 681.364 905.69 675.591 Q905.69 669.798 904.205 666.92 Q902.738 664.024 899.785 664.024 M899.785 661.014 Q904.505 661.014 906.988 664.757 Q909.489 668.481 909.489 675.591 Q909.489 682.681 906.988 686.424 Q904.505 690.148 899.785 690.148 Q895.064 690.148 892.563 686.424 Q890.08 682.681 890.08 675.591 Q890.08 668.481 892.563 664.757 Q895.064 661.014 899.785 661.014 Z" fill="#000000" fill-rule="evenodd" fill-opacity="1" /><polyline clip-path="url(#clip342)" style="stroke:#0000ff; stroke-linecap:butt; stroke-linejoin:round; stroke-width:4; stroke-opacity:1; fill:none" points="
  965.533,977.615 988.423,950.79 1011.31,906.256 1034.21,850.715 1057.12,790.182 1080.09,729.365 1103.28,668.567 1127.21,596.302 1152.99,608.713 1180.97,917.148 
  1209.11,1164.16 1235.2,1227.73 1259.28,1168.23 1282.52,1104.27 1305.51,1050.32 1328.42,1006.36 1351.32,972.154 1374.2,947.35 1397.05,931.483 1419.81,924.729 
  1442.21,935.342 1463.35,1009.05 1481.28,1014.62 1496.02,1070.4 1512.42,1201.85 1532.61,1013.81 1554.69,950.986 1577.36,935.779 1600.19,930.13 1623.07,930.909 
  1645.96,938.473 1668.84,953.372 1691.73,976.076 1714.62,1006.86 1737.51,1045.68 
  "/>
<polyline clip-path="url(#clip342)" style="stroke:#0000ff; stroke-linecap:butt; stroke-linejoin:round; stroke-width:4; stroke-opacity:1; fill:none" points="
  970.226,964.305 993.111,937.498 1016,892.996 1038.89,837.492 1061.79,776.999 1084.75,716.234 1107.92,655.64 1131.8,584.453 1157.48,597.764 1185.28,904.781 
  1213.23,1153.27 1239.2,1216.18 1263.24,1156.87 1286.46,1093.05 1309.44,1039.16 1332.35,995.225 1355.23,961.047 1378.11,936.257 1400.96,920.394 1423.72,913.611 
  1446.12,923.872 1467.32,995.384 1485.42,1001.44 1500.43,1055.3 1517.05,1181.21 1537.32,998.773 1559.43,937.533 1582.1,922.477 1604.93,916.847 1627.79,917.635 
  1650.67,925.203 1673.56,940.102 1696.44,962.799 1719.32,993.569 1742.21,1032.37 
  "/>
<polyline clip-path="url(#clip342)" style="stroke:#0000ff; stroke-linecap:butt; stroke-linejoin:round; stroke-width:4; stroke-opacity:1; fill:none" points="
  974.92,950.995 997.798,924.206 1020.68,879.735 1043.56,824.269 1066.46,763.815 1089.41,703.102 1112.56,642.71 1136.4,572.601 1161.97,586.815 1189.59,892.414 
  1217.36,1142.38 1243.21,1204.63 1267.2,1145.51 1290.4,1081.82 1313.37,1027.99 1336.27,984.093 1359.15,949.939 1382.02,925.164 1404.87,909.306 1427.62,902.493 
  1450.04,912.403 1471.29,981.72 1489.55,988.263 1504.84,1040.21 1521.68,1160.56 1542.03,983.731 1564.16,924.079 1586.83,909.174 1609.66,903.563 1632.52,904.36 
  1655.39,911.934 1678.27,926.832 1701.15,949.522 1724.02,980.279 1746.9,1019.06 
  "/>
<polyline clip-path="url(#clip342)" style="stroke:#0000ff; stroke-linecap:butt; stroke-linejoin:round; stroke-width:4; stroke-opacity:1; fill:none" points="
  979.614,937.685 1002.49,910.914 1025.36,866.475 1048.23,811.046 1071.12,750.631 1094.07,689.969 1117.21,629.781 1141,560.751 1166.47,575.869 1193.9,880.046 
  1221.48,1131.48 1247.22,1193.08 1271.16,1134.15 1294.35,1070.6 1317.3,1016.82 1340.19,972.961 1363.07,938.831 1385.93,914.071 1408.77,898.217 1431.53,891.375 
  1453.95,900.934 1475.26,968.055 1493.68,975.086 1509.25,1025.11 1526.3,1139.92 1546.75,968.689 1568.89,910.626 1591.57,895.871 1614.39,890.279 1637.25,891.085 
  1660.11,898.664 1682.98,913.562 1705.85,936.246 1728.73,966.989 1751.6,1005.75 
  "/>
<polyline clip-path="url(#clip342)" style="stroke:#0000ff; stroke-linecap:butt; stroke-linejoin:round; stroke-width:4; stroke-opacity:1; fill:none" points="
  984.308,924.375 1007.17,897.622 1030.04,853.214 1052.91,797.822 1075.79,737.446 1098.73,676.837 1121.85,616.851 1145.6,548.902 1170.96,564.927 1198.21,867.679 
  1225.61,1120.59 1251.23,1181.52 1275.12,1122.79 1298.29,1059.38 1321.23,1005.66 1344.12,961.829 1366.99,927.723 1389.85,902.978 1412.68,887.128 1435.43,880.257 
  1457.87,889.465 1479.23,954.391 1497.82,961.909 1513.65,1010.01 1530.93,1119.28 1551.46,953.647 1573.63,897.172 1596.3,882.568 1619.12,876.995 1641.97,877.811 
  1664.83,885.394 1687.7,900.291 1710.56,922.969 1733.43,953.699 1756.29,992.436 
  "/>
<polyline clip-path="url(#clip342)" style="stroke:#0000ff; stroke-linecap:butt; stroke-linejoin:round; stroke-width:4; stroke-opacity:1; fill:none" points="
  989.002,911.065 1011.86,884.331 1034.72,839.953 1057.58,784.599 1080.46,724.262 1103.38,663.704 1126.49,603.922 1150.2,537.056 1175.45,553.987 1202.52,855.311 
  1229.73,1109.7 1255.23,1169.97 1279.08,1111.43 1302.23,1048.15 1325.16,994.49 1348.04,950.698 1370.91,916.616 1393.76,891.885 1416.59,876.039 1439.34,869.139 
  1461.78,877.996 1483.2,940.727 1501.95,948.732 1518.06,994.909 1535.55,1098.64 1556.17,938.606 1578.36,883.719 1601.04,869.265 1623.85,863.711 1646.7,864.536 
  1669.55,872.124 1692.41,887.021 1715.27,909.692 1738.13,940.409 1760.98,979.126 
  "/>
<polyline clip-path="url(#clip342)" style="stroke:#0000ff; stroke-linecap:butt; stroke-linejoin:round; stroke-width:4; stroke-opacity:1; fill:none" points="
  993.696,897.755 1016.55,871.039 1039.4,826.693 1062.26,771.376 1085.13,711.078 1108.04,650.572 1131.13,590.993 1154.8,525.21 1179.95,543.051 1206.84,842.943 
  1233.85,1098.8 1259.24,1158.41 1283.04,1100.07 1306.17,1036.93 1329.1,983.323 1351.97,939.566 1374.83,905.508 1397.67,880.792 1420.49,864.951 1443.24,858.021 
  1465.7,866.527 1487.17,927.063 1506.09,935.555 1522.47,979.809 1540.18,1077.99 1560.89,923.565 1583.1,870.265 1605.78,855.962 1628.58,850.427 1651.42,851.261 
  1674.27,858.854 1697.12,873.751 1719.97,896.415 1742.83,927.119 1765.68,965.816 
  "/>
<polyline clip-path="url(#clip342)" style="stroke:#0000ff; stroke-linecap:butt; stroke-linejoin:round; stroke-width:4; stroke-opacity:1; fill:none" points="
  998.389,884.445 1021.24,857.747 1044.08,813.432 1066.93,758.152 1089.79,697.894 1112.7,637.439 1135.77,578.064 1159.4,513.367 1184.44,532.117 1211.15,830.575 
  1237.98,1087.9 1263.25,1146.86 1287,1088.71 1310.11,1025.71 1333.03,972.157 1355.89,928.434 1378.74,894.4 1401.58,869.699 1424.4,853.862 1447.15,846.903 
  1469.62,855.058 1491.14,913.4 1510.22,922.378 1526.88,964.709 1544.81,1057.34 1565.6,908.524 1587.83,856.812 1610.51,842.659 1633.31,837.143 1656.15,837.987 
  1678.99,845.584 1701.84,860.48 1724.68,883.138 1747.53,913.829 1770.37,952.506 
  "/>
<polyline clip-path="url(#clip342)" style="stroke:#0000ff; stroke-linecap:butt; stroke-linejoin:round; stroke-width:4; stroke-opacity:1; fill:none" points="
  1003.08,871.135 1025.92,844.455 1048.76,800.172 1071.61,744.929 1094.46,684.709 1117.36,624.307 1140.41,565.135 1164,501.525 1188.93,521.187 1215.46,818.207 
  1242.1,1077.01 1267.26,1135.3 1290.96,1077.35 1314.05,1014.49 1336.96,960.99 1359.82,917.302 1382.66,883.293 1405.49,858.606 1428.31,842.773 1451.05,835.785 
  1473.53,843.589 1495.11,899.736 1514.36,909.202 1531.29,949.608 1549.43,1036.7 1570.31,893.483 1592.57,843.359 1615.25,829.356 1638.05,823.859 1660.87,824.712 
  1683.71,832.314 1706.55,847.21 1729.39,869.861 1752.23,900.539 1775.07,939.196 
  "/>
<polyline clip-path="url(#clip342)" style="stroke:#0000ff; stroke-linecap:butt; stroke-linejoin:round; stroke-width:4; stroke-opacity:1; fill:none" points="
  1007.78,857.825 1030.61,831.163 1053.44,786.911 1076.28,731.706 1099.13,671.525 1122.02,611.174 1145.06,552.207 1168.6,489.685 1193.43,510.26 1219.77,805.838 
  1246.23,1066.11 1271.26,1123.74 1294.92,1065.99 1317.99,1003.26 1340.89,949.824 1363.74,906.17 1386.58,872.185 1409.41,847.513 1432.21,831.685 1454.96,824.668 
  1477.45,832.12 1499.07,886.073 1518.49,896.025 1535.7,934.506 1554.06,1016.05 1575.03,878.442 1597.3,829.906 1619.98,816.054 1642.78,810.576 1665.6,811.437 
  1688.43,819.045 1711.26,833.94 1734.09,856.584 1756.93,887.249 1779.76,925.886 
  "/>
<polyline clip-path="url(#clip342)" style="stroke:#0000ff; stroke-linecap:butt; stroke-linejoin:round; stroke-width:4; stroke-opacity:1; fill:none" points="
  1012.47,844.515 1035.3,817.871 1058.13,773.65 1080.96,718.482 1103.8,658.341 1126.67,598.042 1149.7,539.278 1173.2,477.847 1197.92,499.336 1224.08,793.469 
  1250.35,1055.2 1275.27,1112.18 1298.88,1054.63 1321.94,992.042 1344.82,938.657 1367.67,895.039 1390.5,861.077 1413.32,836.421 1436.12,820.596 1458.86,813.55 
  1481.36,820.651 1503.04,872.41 1522.62,882.848 1540.11,919.404 1558.69,995.402 1579.74,863.401 1602.04,816.453 1624.72,802.751 1647.51,797.292 1670.32,798.163 
  1693.15,805.775 1715.97,820.669 1738.8,843.307 1761.63,873.958 1784.45,912.576 
  "/>
<polyline clip-path="url(#clip342)" style="stroke:#0000ff; stroke-linecap:butt; stroke-linejoin:round; stroke-width:4; stroke-opacity:1; fill:none" points="
  1017.16,831.205 1039.99,804.58 1062.81,760.389 1085.63,705.259 1108.46,645.156 1131.33,584.909 1154.34,526.35 1177.8,466.011 1202.42,488.415 1228.39,781.1 
  1254.48,1044.3 1279.28,1100.61 1302.84,1043.27 1325.88,980.82 1348.76,927.491 1371.59,883.907 1394.42,849.97 1417.23,825.328 1440.03,809.507 1462.77,802.432 
  1485.28,809.182 1507.01,858.747 1526.76,869.671 1544.52,904.301 1563.31,974.752 1584.45,848.361 1606.77,803 1629.46,789.448 1652.24,784.008 1675.05,784.888 
  1697.87,792.505 1720.69,807.399 1743.51,830.03 1766.33,860.668 1789.15,899.266 
  "/>
<polyline clip-path="url(#clip342)" style="stroke:#0000ff; stroke-linecap:butt; stroke-linejoin:round; stroke-width:4; stroke-opacity:1; fill:none" points="
  1021.86,817.895 1044.67,791.288 1067.49,747.129 1090.3,692.035 1113.13,631.972 1135.99,571.776 1158.98,513.422 1182.4,454.176 1206.91,477.497 1232.71,768.731 
  1258.6,1033.4 1283.29,1089.05 1306.8,1031.91 1329.82,969.598 1352.69,916.324 1375.52,872.775 1398.33,838.862 1421.14,814.235 1443.93,798.418 1466.67,791.314 
  1489.19,797.713 1510.98,845.084 1530.89,856.495 1548.93,889.198 1567.94,954.102 1589.16,833.32 1611.51,789.547 1634.19,776.146 1656.97,770.724 1679.78,771.613 
  1702.59,779.235 1725.4,794.129 1748.21,816.753 1771.03,847.378 1793.84,885.956 
  "/>
<polyline clip-path="url(#clip342)" style="stroke:#0000ff; stroke-linecap:butt; stroke-linejoin:round; stroke-width:4; stroke-opacity:1; fill:none" points="
  1026.55,804.585 1049.36,777.996 1072.17,733.868 1094.98,678.812 1117.8,618.787 1140.65,558.644 1163.62,500.494 1187,442.343 1211.4,466.583 1237.02,756.361 
  1262.72,1022.49 1287.29,1077.49 1310.76,1020.55 1333.76,958.376 1356.62,905.158 1379.44,861.643 1402.25,827.755 1425.05,803.142 1447.84,787.33 1470.58,780.196 
  1493.11,786.245 1514.95,831.422 1535.03,843.318 1553.33,874.095 1572.56,933.451 1593.88,818.28 1616.24,776.094 1638.93,762.843 1661.7,757.441 1684.5,758.339 
  1707.31,765.965 1730.11,780.858 1752.92,803.476 1775.73,834.088 1798.53,872.645 
  "/>
<polyline clip-path="url(#clip342)" style="stroke:#0000ff; stroke-linecap:butt; stroke-linejoin:round; stroke-width:4; stroke-opacity:1; fill:none" points="
  1031.25,791.275 1054.05,764.704 1076.85,720.607 1099.65,665.588 1122.47,605.603 1145.31,545.511 1168.26,487.566 1191.6,430.511 1215.9,455.671 1241.33,743.992 
  1266.85,1011.58 1291.3,1065.92 1314.72,1009.19 1337.7,947.154 1360.55,893.992 1383.37,850.512 1406.17,816.647 1428.97,792.049 1451.75,776.241 1474.48,769.078 
  1497.03,774.776 1518.92,817.759 1539.16,830.142 1557.74,858.991 1577.19,912.8 1598.59,803.24 1620.97,762.641 1643.66,749.54 1666.43,744.157 1689.23,745.064 
  1712.03,752.695 1734.83,767.588 1757.63,790.199 1780.43,820.798 1803.23,859.335 
  "/>
<polyline clip-path="url(#clip342)" style="stroke:#0000ff; stroke-linecap:butt; stroke-linejoin:round; stroke-width:4; stroke-opacity:1; fill:none" points="
  1035.94,777.965 1058.73,751.412 1081.53,707.346 1104.33,652.364 1127.13,592.418 1149.97,532.378 1172.9,474.638 1196.2,418.682 1220.39,444.763 1245.64,731.622 
  1270.97,1000.67 1295.31,1054.35 1318.68,997.835 1341.64,935.931 1364.48,882.825 1387.29,839.38 1410.09,805.539 1432.88,780.956 1455.66,765.152 1478.39,757.96 
  1500.94,763.307 1522.89,804.097 1543.29,816.965 1562.15,843.887 1581.82,892.147 1603.3,788.2 1625.71,749.188 1648.4,736.238 1671.16,730.873 1693.95,731.79 
  1716.74,739.426 1739.54,754.318 1762.33,776.922 1785.13,807.508 1807.92,846.025 
  "/>
<polyline clip-path="url(#clip342)" style="stroke:#0000ff; stroke-linecap:butt; stroke-linejoin:round; stroke-width:4; stroke-opacity:1; fill:none" points="
  1040.63,764.655 1063.42,738.12 1086.21,694.086 1109,639.141 1131.8,579.233 1154.62,519.245 1177.55,461.71 1200.8,406.853 1224.88,433.857 1249.95,719.251 
  1275.1,989.765 1299.32,1042.78 1322.64,986.475 1345.58,924.709 1368.41,871.659 1391.21,828.248 1414.01,794.432 1436.79,769.863 1459.56,754.063 1482.29,746.842 
  1504.86,751.838 1526.86,790.435 1547.43,803.789 1566.56,828.782 1586.44,871.494 1608.02,773.16 1630.44,735.736 1653.13,722.935 1675.9,717.59 1698.68,718.515 
  1721.46,726.156 1744.25,741.047 1767.04,763.645 1789.83,794.218 1812.62,832.715 
  "/>
<polyline clip-path="url(#clip342)" style="stroke:#0000ff; stroke-linecap:butt; stroke-linejoin:round; stroke-width:4; stroke-opacity:1; fill:none" points="
  1045.33,751.345 1068.11,724.828 1090.89,680.825 1113.68,625.917 1136.47,566.049 1159.28,506.113 1182.19,448.783 1205.4,395.027 1229.38,422.955 1254.26,706.881 
  1279.22,978.853 1303.32,1031.21 1326.6,975.115 1349.53,913.487 1372.35,860.493 1395.14,817.117 1417.92,783.324 1440.7,758.77 1463.47,742.975 1486.2,735.724 
  1508.77,740.369 1530.83,776.773 1551.56,790.613 1570.97,813.676 1591.07,850.84 1612.73,758.121 1635.18,722.283 1657.87,709.633 1680.63,704.306 1703.4,705.241 
  1726.18,712.886 1748.96,727.777 1771.75,750.368 1794.53,780.927 1817.31,819.405 
  "/>
<polyline clip-path="url(#clip342)" style="stroke:#0000ff; stroke-linecap:butt; stroke-linejoin:round; stroke-width:4; stroke-opacity:1; fill:none" points="
  1050.02,738.035 1072.8,711.536 1095.57,667.564 1118.35,612.693 1141.13,552.864 1163.94,492.98 1186.83,435.855 1210,383.202 1233.87,412.056 1258.58,694.51 
  1283.34,967.94 1307.33,1019.64 1330.56,963.755 1353.47,902.265 1376.28,849.327 1399.06,805.985 1421.84,772.216 1444.61,747.677 1467.38,731.886 1490.1,724.606 
  1512.69,728.901 1534.8,763.112 1555.7,777.437 1575.38,798.571 1595.69,830.185 1617.44,743.081 1639.91,708.83 1662.61,696.33 1685.36,691.022 1708.13,691.966 
  1730.9,699.616 1753.68,714.507 1776.45,737.091 1799.23,767.637 1822,806.095 
  "/>
<polyline clip-path="url(#clip342)" style="stroke:#0000ff; stroke-linecap:butt; stroke-linejoin:round; stroke-width:4; stroke-opacity:1; fill:none" points="
  1054.72,724.725 1077.48,698.245 1100.25,654.303 1123.03,599.47 1145.8,539.679 1168.6,479.847 1191.47,422.928 1214.6,371.38 1238.36,401.16 1262.89,682.139 
  1287.47,957.026 1311.34,1008.07 1334.52,952.395 1357.41,891.043 1380.21,838.16 1402.99,794.853 1425.76,761.109 1448.53,736.584 1471.28,720.797 1494.01,713.489 
  1516.6,717.432 1538.77,749.45 1559.83,764.26 1579.79,783.464 1600.32,809.529 1622.16,728.042 1644.65,695.378 1667.34,683.028 1690.09,677.739 1712.85,678.692 
  1735.62,686.346 1758.39,701.236 1781.16,723.815 1803.93,754.347 1826.7,792.785 
  "/>
<polyline clip-path="url(#clip342)" style="stroke:#0000ff; stroke-linecap:butt; stroke-linejoin:round; stroke-width:4; stroke-opacity:1; fill:none" points="
  1059.41,711.415 1082.17,684.953 1104.94,641.042 1127.7,586.246 1150.47,526.494 1173.26,466.714 1196.11,410.001 1219.2,359.558 1242.86,390.267 1267.2,669.768 
  1291.59,946.11 1315.35,996.496 1338.48,941.035 1361.35,879.821 1384.14,826.994 1406.91,783.722 1429.68,750.001 1452.44,725.491 1475.19,709.709 1497.91,702.371 
  1520.52,705.963 1542.74,735.789 1563.96,751.084 1584.2,768.358 1604.95,788.872 1626.87,713.003 1649.38,681.926 1672.08,669.726 1694.82,664.455 1717.58,665.417 
  1740.34,673.077 1763.1,687.966 1785.87,710.538 1808.63,741.057 1831.39,779.475 
  "/>
<polyline clip-path="url(#clip342)" style="stroke:#0000ff; stroke-linecap:butt; stroke-linejoin:round; stroke-width:4; stroke-opacity:1; fill:none" points="
  1064.1,698.105 1086.86,671.661 1109.62,627.781 1132.37,573.022 1155.14,513.31 1177.92,453.581 1200.75,397.074 1223.8,347.739 1247.35,379.377 1271.51,657.397 
  1295.72,935.193 1319.35,984.921 1342.44,929.674 1365.29,868.6 1388.07,815.828 1410.84,772.59 1433.6,738.894 1456.35,714.398 1479.1,698.62 1501.82,691.253 
  1524.44,694.495 1546.71,722.128 1568.1,737.908 1588.61,753.25 1609.57,768.215 1631.58,697.964 1654.12,668.473 1676.81,656.423 1699.55,651.172 1722.31,652.143 
  1745.06,659.807 1767.82,674.695 1790.57,697.261 1813.33,727.767 1836.09,766.165 
  "/>
<polyline clip-path="url(#clip342)" style="stroke:#0000ff; stroke-linecap:butt; stroke-linejoin:round; stroke-width:4; stroke-opacity:1; fill:none" points="
  1068.8,684.795 1091.55,658.369 1114.3,614.52 1137.05,559.798 1159.8,500.125 1182.57,440.448 1205.4,384.147 1228.39,335.921 1251.84,368.491 1275.82,645.026 
  1299.84,924.274 1323.36,973.345 1346.4,918.314 1369.23,857.378 1392.01,804.662 1414.76,761.459 1437.51,727.786 1460.26,703.305 1483,687.531 1505.72,680.135 
  1528.35,683.026 1550.68,708.467 1572.23,724.732 1593.01,738.143 1614.2,747.557 1636.3,682.925 1658.85,655.021 1681.55,643.121 1704.28,637.888 1727.03,638.868 
  1749.78,646.537 1772.53,661.425 1795.28,683.984 1818.03,714.477 1840.78,752.855 
  "/>
<polyline clip-path="url(#clip342)" style="stroke:#0000ff; stroke-linecap:butt; stroke-linejoin:round; stroke-width:4; stroke-opacity:1; fill:none" points="
  1073.49,671.484 1096.23,645.077 1118.98,601.259 1141.72,546.574 1164.47,486.94 1187.23,427.315 1210.04,371.22 1232.99,324.105 1256.34,357.607 1280.13,632.654 
  1303.96,913.354 1327.37,961.767 1350.36,906.954 1373.17,846.156 1395.94,793.496 1418.69,750.327 1441.43,716.678 1464.17,692.212 1486.91,676.442 1509.63,669.017 
  1532.27,671.557 1554.65,694.807 1576.37,711.556 1597.42,723.034 1618.83,726.898 1641.01,667.886 1663.59,641.569 1686.28,629.819 1709.02,624.605 1731.76,625.594 
  1754.5,633.267 1777.24,648.155 1799.99,670.707 1822.73,701.186 1845.47,739.545 
  "/>
<polyline clip-path="url(#clip342)" style="stroke:#0000ff; stroke-linecap:butt; stroke-linejoin:round; stroke-width:4; stroke-opacity:1; fill:none" points="
  1078.18,658.174 1100.92,631.785 1123.66,587.998 1146.4,533.35 1169.14,473.755 1191.89,414.182 1214.68,358.294 1237.59,312.29 1260.83,346.727 1284.44,620.282 
  1308.09,902.432 1331.38,950.189 1354.32,895.593 1377.12,834.934 1399.87,782.33 1422.61,739.195 1445.35,705.571 1468.09,681.12 1490.82,665.354 1513.53,657.899 
  1536.18,660.089 1558.62,681.146 1580.5,698.38 1601.83,707.926 1623.45,706.238 1645.72,652.848 1668.32,628.117 1691.02,616.517 1713.75,611.321 1736.48,612.319 
  1759.22,619.997 1781.96,634.884 1804.69,657.43 1827.43,687.896 1850.17,726.235 
  "/>
<polyline clip-path="url(#clip342)" style="stroke:#0000ff; stroke-linecap:butt; stroke-linejoin:round; stroke-width:4; stroke-opacity:1; fill:none" points="
  1082.88,644.864 1105.61,618.493 1128.34,574.737 1151.07,520.126 1173.81,460.57 1196.55,401.049 1219.32,345.368 1242.19,300.478 1265.32,335.85 1288.76,607.91 
  1312.21,891.509 1335.38,938.608 1358.28,884.233 1381.06,823.712 1403.8,771.164 1426.54,728.064 1449.27,694.463 1472,670.027 1494.72,654.265 1517.44,646.781 
  1540.1,648.62 1562.59,667.486 1584.64,685.204 1606.24,692.817 1628.08,685.577 1650.44,637.809 1673.05,614.665 1695.76,603.214 1718.48,598.038 1741.21,599.045 
  1763.94,606.728 1786.67,621.614 1809.4,644.153 1832.13,674.606 1854.86,712.925 
  "/>
<polyline clip-path="url(#clip342)" style="stroke:#0000ff; stroke-linecap:butt; stroke-linejoin:round; stroke-width:4; stroke-opacity:1; fill:none" points="
  1087.57,631.554 1110.3,605.201 1133.02,561.476 1155.75,506.902 1178.47,447.385 1201.21,387.916 1223.96,332.441 1246.79,288.667 1269.82,324.975 1293.07,595.537 
  1316.34,880.585 1339.39,927.027 1362.24,872.872 1385,812.491 1407.73,759.998 1430.46,716.932 1453.19,683.356 1475.91,658.934 1498.63,643.176 1521.34,635.663 
  1544.01,637.152 1566.56,653.826 1588.77,672.028 1610.65,677.707 1632.7,664.916 1655.15,622.771 1677.79,601.213 1700.49,589.912 1723.21,584.754 1745.93,585.77 
  1768.66,593.458 1791.38,608.344 1814.11,630.875 1836.83,661.316 1859.55,699.615 
  "/>
<polyline clip-path="url(#clip342)" style="stroke:#0000ff; stroke-linecap:butt; stroke-linejoin:round; stroke-width:4; stroke-opacity:1; fill:none" points="
  1092.27,618.244 1114.98,591.909 1137.7,548.215 1160.42,493.678 1183.14,434.2 1205.86,374.783 1228.6,319.515 1251.39,276.858 1274.31,314.104 1297.38,583.164 
  1320.46,869.659 1343.4,915.444 1366.2,861.511 1388.94,801.269 1411.67,748.832 1434.39,705.801 1457.1,672.248 1479.82,647.841 1502.54,632.087 1525.25,624.546 
  1547.93,625.683 1570.53,640.166 1592.9,658.852 1615.06,662.597 1637.33,644.254 1659.86,607.733 1682.52,587.761 1705.23,576.61 1727.94,571.471 1750.66,572.496 
  1773.38,580.188 1796.09,595.073 1818.81,617.598 1841.53,648.026 1864.25,686.305 
  "/>
<polyline clip-path="url(#clip342)" style="stroke:#0000ff; stroke-linecap:butt; stroke-linejoin:round; stroke-width:4; stroke-opacity:1; fill:none" points="
  1096.96,604.934 1119.67,578.617 1142.38,534.954 1165.1,480.454 1187.81,421.015 1210.52,361.65 1233.24,306.589 1255.99,265.05 1278.8,303.236 1301.69,570.791 
  1324.58,858.731 1347.41,903.861 1370.16,850.151 1392.88,790.048 1415.6,737.666 1438.31,694.669 1461.02,661.141 1483.73,636.748 1506.44,620.999 1529.15,613.428 
  1551.85,614.215 1574.5,626.506 1597.04,645.677 1619.47,647.487 1641.96,623.591 1664.57,592.695 1687.26,574.309 1709.96,563.308 1732.67,558.187 1755.38,559.221 
  1778.1,566.918 1800.81,581.803 1823.52,604.321 1846.23,634.735 1868.94,672.995 
  "/>
<polyline clip-path="url(#clip342)" style="stroke:#0000ff; stroke-linecap:butt; stroke-linejoin:round; stroke-width:4; stroke-opacity:1; fill:none" points="
  1101.65,591.624 1124.36,565.325 1147.06,521.693 1169.77,467.23 1192.48,407.829 1215.18,348.515 1237.89,293.661 1260.59,253.24 1283.3,292.369 1306,558.418 
  1328.71,847.804 1351.41,892.278 1374.12,838.791 1396.82,778.827 1419.53,726.5 1442.23,683.538 1464.94,650.033 1487.64,625.655 1510.35,609.91 1533.06,602.31 
  1555.76,602.746 1578.47,612.846 1601.17,632.501 1623.88,632.376 1646.58,602.926 1669.29,577.656 1691.99,560.856 1714.7,550.005 1737.4,544.903 1760.11,545.946 
  1782.81,553.648 1805.52,568.532 1828.23,591.044 1850.93,621.445 1873.64,659.685 
  "/>
</svg>
