<?xml version="1.0" encoding="utf-8"?>
<svg xmlns="http://www.w3.org/2000/svg" xmlns:xlink="http://www.w3.org/1999/xlink" width="600" height="400" viewBox="0 0 2400 1600">
<defs>
  <clipPath id="clip550">
    <rect x="0" y="0" width="2400" height="1600"/>
  </clipPath>
</defs>
<path clip-path="url(#clip550)" d="
M0 1600 L2400 1600 L2400 0 L0 0  Z
  " fill="#ffffff" fill-rule="evenodd" fill-opacity="1"/>
<defs>
  <clipPath id="clip551">
    <rect x="480" y="0" width="1681" height="1600"/>
  </clipPath>
</defs>
<defs>
  <clipPath id="clip552">
    <rect x="486" y="47" width="1867" height="1440"/>
  </clipPath>
</defs>
<path clip-path="url(#clip552)" d="
M1652.49 1777.98 L1652.49 1325.4 L1670.64 1068.08 L1773.57 1113.45 L1773.57 1566.03 L1755.43 1823.36 L1652.49 1777.98  Z
  " fill="#ffffff" fill-rule="evenodd" fill-opacity="1"/>
<polyline clip-path="url(#clip552)" style="stroke:#000000; stroke-linecap:butt; stroke-linejoin:round; stroke-width:2; stroke-opacity:0.1; fill:none" points="
  1012.91,1301.73 1157.2,892.579 
  "/>
<polyline clip-path="url(#clip552)" style="stroke:#000000; stroke-linecap:butt; stroke-linejoin:round; stroke-width:2; stroke-opacity:0.1; fill:none" points="
  1157.2,892.579 1157.2,172.977 
  "/>
<polyline clip-path="url(#clip552)" style="stroke:#000000; stroke-linecap:butt; stroke-linejoin:round; stroke-width:2; stroke-opacity:0.1; fill:none" points="
  1167.31,1315.34 1311.6,906.191 
  "/>
<polyline clip-path="url(#clip552)" style="stroke:#000000; stroke-linecap:butt; stroke-linejoin:round; stroke-width:2; stroke-opacity:0.1; fill:none" points="
  1311.6,906.191 1311.6,186.589 
  "/>
<polyline clip-path="url(#clip552)" style="stroke:#000000; stroke-linecap:butt; stroke-linejoin:round; stroke-width:2; stroke-opacity:0.1; fill:none" points="
  1321.71,1328.95 1466,919.803 
  "/>
<polyline clip-path="url(#clip552)" style="stroke:#000000; stroke-linecap:butt; stroke-linejoin:round; stroke-width:2; stroke-opacity:0.1; fill:none" points="
  1466,919.803 1466,200.201 
  "/>
<polyline clip-path="url(#clip552)" style="stroke:#000000; stroke-linecap:butt; stroke-linejoin:round; stroke-width:2; stroke-opacity:0.1; fill:none" points="
  1476.1,1342.57 1620.39,933.415 
  "/>
<polyline clip-path="url(#clip552)" style="stroke:#000000; stroke-linecap:butt; stroke-linejoin:round; stroke-width:2; stroke-opacity:0.1; fill:none" points="
  1620.39,933.415 1620.39,213.813 
  "/>
<polyline clip-path="url(#clip552)" style="stroke:#000000; stroke-linecap:butt; stroke-linejoin:round; stroke-width:2; stroke-opacity:0.1; fill:none" points="
  1630.5,1356.18 1774.79,947.027 
  "/>
<polyline clip-path="url(#clip552)" style="stroke:#000000; stroke-linecap:butt; stroke-linejoin:round; stroke-width:2; stroke-opacity:0.1; fill:none" points="
  1774.79,947.027 1774.79,227.425 
  "/>
<polyline clip-path="url(#clip550)" style="stroke:#000000; stroke-linecap:butt; stroke-linejoin:round; stroke-width:4; stroke-opacity:1; fill:none" points="
  938.289,1295.15 1756.59,1367.29 
  "/>
<polyline clip-path="url(#clip550)" style="stroke:#000000; stroke-linecap:butt; stroke-linejoin:round; stroke-width:4; stroke-opacity:1; fill:none" points="
  1012.91,1301.73 1014.65,1296.82 
  "/>
<polyline clip-path="url(#clip550)" style="stroke:#000000; stroke-linecap:butt; stroke-linejoin:round; stroke-width:4; stroke-opacity:1; fill:none" points="
  1167.31,1315.34 1169.04,1310.43 
  "/>
<polyline clip-path="url(#clip550)" style="stroke:#000000; stroke-linecap:butt; stroke-linejoin:round; stroke-width:4; stroke-opacity:1; fill:none" points="
  1321.71,1328.95 1323.44,1324.04 
  "/>
<polyline clip-path="url(#clip550)" style="stroke:#000000; stroke-linecap:butt; stroke-linejoin:round; stroke-width:4; stroke-opacity:1; fill:none" points="
  1476.1,1342.57 1477.84,1337.66 
  "/>
<polyline clip-path="url(#clip550)" style="stroke:#000000; stroke-linecap:butt; stroke-linejoin:round; stroke-width:4; stroke-opacity:1; fill:none" points="
  1630.5,1356.18 1632.23,1351.27 
  "/>
<path clip-path="url(#clip550)" d="M939.77 1328.53 L969.446 1328.53 L969.446 1332.47 L939.77 1332.47 L939.77 1328.53 Z" fill="#000000" fill-rule="evenodd" fill-opacity="1" /><path clip-path="url(#clip550)" d="M979.677 1344.64 L979.677 1340.39 Q981.437 1341.22 983.242 1341.66 Q985.048 1342.1 986.784 1342.1 Q991.413 1342.1 993.844 1339 Q996.298 1335.87 996.645 1329.53 Q995.302 1331.52 993.242 1332.58 Q991.182 1333.65 988.682 1333.65 Q983.497 1333.65 980.464 1330.52 Q977.455 1327.38 977.455 1321.94 Q977.455 1316.61 980.603 1313.39 Q983.751 1310.18 988.983 1310.18 Q994.978 1310.18 998.126 1314.78 Q1001.3 1319.37 1001.3 1328.12 Q1001.3 1336.29 997.409 1341.17 Q993.543 1346.03 986.992 1346.03 Q985.233 1346.03 983.427 1345.69 Q981.622 1345.34 979.677 1344.64 M988.983 1329.99 Q992.131 1329.99 993.96 1327.84 Q995.811 1325.69 995.811 1321.94 Q995.811 1318.21 993.96 1316.06 Q992.131 1313.88 988.983 1313.88 Q985.835 1313.88 983.983 1316.06 Q982.154 1318.21 982.154 1321.94 Q982.154 1325.69 983.983 1327.84 Q985.835 1329.99 988.983 1329.99 Z" fill="#000000" fill-rule="evenodd" fill-opacity="1" /><path clip-path="url(#clip550)" d="M1093.82 1342.15 L1123.5 1342.15 L1123.5 1346.08 L1093.82 1346.08 L1093.82 1342.15 Z" fill="#000000" fill-rule="evenodd" fill-opacity="1" /><path clip-path="url(#clip550)" d="M1144.17 1339.83 Q1141.02 1339.83 1139.17 1341.98 Q1137.34 1344.14 1137.34 1347.89 Q1137.34 1351.61 1139.17 1353.79 Q1141.02 1355.94 1144.17 1355.94 Q1147.31 1355.94 1149.14 1353.79 Q1150.99 1351.61 1150.99 1347.89 Q1150.99 1344.14 1149.14 1341.98 Q1147.31 1339.83 1144.17 1339.83 M1153.45 1325.18 L1153.45 1329.44 Q1151.69 1328.6 1149.88 1328.16 Q1148.1 1327.72 1146.34 1327.72 Q1141.71 1327.72 1139.26 1330.85 Q1136.83 1333.97 1136.48 1340.29 Q1137.85 1338.28 1139.91 1337.22 Q1141.97 1336.13 1144.44 1336.13 Q1149.65 1336.13 1152.66 1339.3 Q1155.69 1342.45 1155.69 1347.89 Q1155.69 1353.21 1152.55 1356.43 Q1149.4 1359.65 1144.17 1359.65 Q1138.17 1359.65 1135 1355.06 Q1131.83 1350.46 1131.83 1341.73 Q1131.83 1333.53 1135.72 1328.67 Q1139.61 1323.79 1146.16 1323.79 Q1147.92 1323.79 1149.7 1324.14 Q1151.5 1324.48 1153.45 1325.18 Z" fill="#000000" fill-rule="evenodd" fill-opacity="1" /><path clip-path="url(#clip550)" d="M1249.03 1355.76 L1278.7 1355.76 L1278.7 1359.69 L1249.03 1359.69 L1249.03 1355.76 Z" fill="#000000" fill-rule="evenodd" fill-opacity="1" /><path clip-path="url(#clip550)" d="M1302.96 1353.95 Q1306.32 1354.67 1308.19 1356.94 Q1310.09 1359.21 1310.09 1362.54 Q1310.09 1367.66 1306.57 1370.46 Q1303.05 1373.26 1296.57 1373.26 Q1294.4 1373.26 1292.08 1372.82 Q1289.79 1372.4 1287.34 1371.54 L1287.34 1367.03 Q1289.28 1368.17 1291.6 1368.74 Q1293.91 1369.32 1296.43 1369.32 Q1300.83 1369.32 1303.12 1367.59 Q1305.44 1365.85 1305.44 1362.54 Q1305.44 1359.48 1303.28 1357.77 Q1301.16 1356.04 1297.34 1356.04 L1293.31 1356.04 L1293.31 1352.19 L1297.52 1352.19 Q1300.97 1352.19 1302.8 1350.83 Q1304.63 1349.44 1304.63 1346.85 Q1304.63 1344.18 1302.73 1342.77 Q1300.85 1341.34 1297.34 1341.34 Q1295.41 1341.34 1293.22 1341.75 Q1291.02 1342.17 1288.38 1343.05 L1288.38 1338.88 Q1291.04 1338.14 1293.35 1337.77 Q1295.69 1337.4 1297.75 1337.4 Q1303.08 1337.4 1306.18 1339.83 Q1309.28 1342.24 1309.28 1346.36 Q1309.28 1349.23 1307.64 1351.22 Q1305.99 1353.19 1302.96 1353.95 Z" fill="#000000" fill-rule="evenodd" fill-opacity="1" /><path clip-path="url(#clip550)" d="M1452.54 1354.72 Q1448.93 1354.72 1447.1 1358.28 Q1445.3 1361.82 1445.3 1368.95 Q1445.3 1376.06 1447.1 1379.62 Q1448.93 1383.17 1452.54 1383.17 Q1456.18 1383.17 1457.98 1379.62 Q1459.81 1376.06 1459.81 1368.95 Q1459.81 1361.82 1457.98 1358.28 Q1456.18 1354.72 1452.54 1354.72 M1452.54 1351.01 Q1458.35 1351.01 1461.41 1355.62 Q1464.49 1360.2 1464.49 1368.95 Q1464.49 1377.68 1461.41 1382.29 Q1458.35 1386.87 1452.54 1386.87 Q1446.73 1386.87 1443.65 1382.29 Q1440.6 1377.68 1440.6 1368.95 Q1440.6 1360.2 1443.65 1355.62 Q1446.73 1351.01 1452.54 1351.01 Z" fill="#000000" fill-rule="evenodd" fill-opacity="1" /><path clip-path="url(#clip550)" d="M1611.75 1381.18 Q1615.11 1381.89 1616.99 1384.16 Q1618.88 1386.43 1618.88 1389.76 Q1618.88 1394.88 1615.36 1397.68 Q1611.85 1400.48 1605.36 1400.48 Q1603.19 1400.48 1600.87 1400.04 Q1598.58 1399.63 1596.13 1398.77 L1596.13 1394.26 Q1598.07 1395.39 1600.39 1395.97 Q1602.7 1396.55 1605.23 1396.55 Q1609.62 1396.55 1611.92 1394.81 Q1614.23 1393.07 1614.23 1389.76 Q1614.23 1386.71 1612.08 1385 Q1609.95 1383.26 1606.13 1383.26 L1602.1 1383.26 L1602.1 1379.42 L1606.31 1379.42 Q1609.76 1379.42 1611.59 1378.05 Q1613.42 1376.66 1613.42 1374.07 Q1613.42 1371.41 1611.52 1370 Q1609.65 1368.56 1606.13 1368.56 Q1604.21 1368.56 1602.01 1368.98 Q1599.81 1369.39 1597.17 1370.27 L1597.17 1366.11 Q1599.83 1365.37 1602.15 1365 Q1604.49 1364.63 1606.55 1364.63 Q1611.87 1364.63 1614.97 1367.06 Q1618.07 1369.46 1618.07 1373.58 Q1618.07 1376.45 1616.43 1378.45 Q1614.79 1380.41 1611.75 1381.18 Z" fill="#000000" fill-rule="evenodd" fill-opacity="1" /><polyline clip-path="url(#clip552)" style="stroke:#000000; stroke-linecap:butt; stroke-linejoin:round; stroke-width:2; stroke-opacity:0.1; fill:none" points="
  1760.67,1355.71 942.373,1283.57 
  "/>
<polyline clip-path="url(#clip552)" style="stroke:#000000; stroke-linecap:butt; stroke-linejoin:round; stroke-width:2; stroke-opacity:0.1; fill:none" points="
  942.373,1283.57 942.373,563.968 
  "/>
<polyline clip-path="url(#clip552)" style="stroke:#000000; stroke-linecap:butt; stroke-linejoin:round; stroke-width:2; stroke-opacity:0.1; fill:none" points="
  1806.05,1227.05 987.747,1154.91 
  "/>
<polyline clip-path="url(#clip552)" style="stroke:#000000; stroke-linecap:butt; stroke-linejoin:round; stroke-width:2; stroke-opacity:0.1; fill:none" points="
  987.747,1154.91 987.747,435.305 
  "/>
<polyline clip-path="url(#clip552)" style="stroke:#000000; stroke-linecap:butt; stroke-linejoin:round; stroke-width:2; stroke-opacity:0.1; fill:none" points="
  1851.42,1098.39 1033.12,1026.24 
  "/>
<polyline clip-path="url(#clip552)" style="stroke:#000000; stroke-linecap:butt; stroke-linejoin:round; stroke-width:2; stroke-opacity:0.1; fill:none" points="
  1033.12,1026.24 1033.12,306.641 
  "/>
<polyline clip-path="url(#clip552)" style="stroke:#000000; stroke-linecap:butt; stroke-linejoin:round; stroke-width:2; stroke-opacity:0.1; fill:none" points="
  1896.8,969.724 1078.49,897.579 
  "/>
<polyline clip-path="url(#clip552)" style="stroke:#000000; stroke-linecap:butt; stroke-linejoin:round; stroke-width:2; stroke-opacity:0.1; fill:none" points="
  1078.49,897.579 1078.49,177.977 
  "/>
<polyline clip-path="url(#clip550)" style="stroke:#000000; stroke-linecap:butt; stroke-linejoin:round; stroke-width:4; stroke-opacity:1; fill:none" points="
  1756.59,1367.29 1900.88,958.144 
  "/>
<polyline clip-path="url(#clip550)" style="stroke:#000000; stroke-linecap:butt; stroke-linejoin:round; stroke-width:4; stroke-opacity:1; fill:none" points="
  1760.67,1355.71 1750.85,1354.85 
  "/>
<polyline clip-path="url(#clip550)" style="stroke:#000000; stroke-linecap:butt; stroke-linejoin:round; stroke-width:4; stroke-opacity:1; fill:none" points="
  1806.05,1227.05 1796.23,1226.19 
  "/>
<polyline clip-path="url(#clip550)" style="stroke:#000000; stroke-linecap:butt; stroke-linejoin:round; stroke-width:4; stroke-opacity:1; fill:none" points="
  1851.42,1098.39 1841.6,1097.52 
  "/>
<polyline clip-path="url(#clip550)" style="stroke:#000000; stroke-linecap:butt; stroke-linejoin:round; stroke-width:4; stroke-opacity:1; fill:none" points="
  1896.8,969.724 1886.98,968.858 
  "/>
<path clip-path="url(#clip550)" d="M1801.35 1343.54 Q1797.74 1343.54 1795.91 1347.1 Q1794.1 1350.65 1794.1 1357.78 Q1794.1 1364.88 1795.91 1368.45 Q1797.74 1371.99 1801.35 1371.99 Q1804.98 1371.99 1806.79 1368.45 Q1808.62 1364.88 1808.62 1357.78 Q1808.62 1350.65 1806.79 1347.1 Q1804.98 1343.54 1801.35 1343.54 M1801.35 1339.84 Q1807.16 1339.84 1810.21 1344.44 Q1813.29 1349.03 1813.29 1357.78 Q1813.29 1366.5 1810.21 1371.11 Q1807.16 1375.69 1801.35 1375.69 Q1795.54 1375.69 1792.46 1371.11 Q1789.4 1366.5 1789.4 1357.78 Q1789.4 1349.03 1792.46 1344.44 Q1795.54 1339.84 1801.35 1339.84 Z" fill="#000000" fill-rule="evenodd" fill-opacity="1" /><path clip-path="url(#clip550)" d="M1835.45 1242.42 L1843.09 1242.42 L1843.09 1216.06 L1834.78 1217.72 L1834.78 1213.46 L1843.04 1211.8 L1847.72 1211.8 L1847.72 1242.42 L1855.36 1242.42 L1855.36 1246.36 L1835.45 1246.36 L1835.45 1242.42 Z" fill="#000000" fill-rule="evenodd" fill-opacity="1" /><path clip-path="url(#clip550)" d="M1885.78 1113.76 L1902.09 1113.76 L1902.09 1117.69 L1880.15 1117.69 L1880.15 1113.76 Q1882.81 1111 1887.4 1106.37 Q1892 1101.72 1893.18 1100.38 Q1895.43 1097.86 1896.31 1096.12 Q1897.21 1094.36 1897.21 1092.67 Q1897.21 1089.92 1895.27 1088.18 Q1893.34 1086.44 1890.24 1086.44 Q1888.04 1086.44 1885.59 1087.21 Q1883.16 1087.97 1880.38 1089.52 L1880.38 1084.8 Q1883.21 1083.67 1885.66 1083.09 Q1888.11 1082.51 1890.15 1082.51 Q1895.52 1082.51 1898.72 1085.19 Q1901.91 1087.88 1901.91 1092.37 Q1901.91 1094.5 1901.1 1096.42 Q1900.31 1098.32 1898.21 1100.91 Q1897.63 1101.58 1894.53 1104.8 Q1891.42 1107.99 1885.78 1113.76 Z" fill="#000000" fill-rule="evenodd" fill-opacity="1" /><path clip-path="url(#clip550)" d="M1941.15 970.396 Q1944.51 971.113 1946.38 973.382 Q1948.28 975.65 1948.28 978.984 Q1948.28 984.099 1944.76 986.9 Q1941.24 989.701 1934.76 989.701 Q1932.58 989.701 1930.27 989.261 Q1927.98 988.845 1925.52 987.988 L1925.52 983.474 Q1927.47 984.609 1929.78 985.187 Q1932.1 985.766 1934.62 985.766 Q1939.02 985.766 1941.31 984.03 Q1943.63 982.294 1943.63 978.984 Q1943.63 975.928 1941.47 974.215 Q1939.34 972.479 1935.52 972.479 L1931.5 972.479 L1931.5 968.636 L1935.71 968.636 Q1939.16 968.636 1940.99 967.271 Q1942.82 965.882 1942.82 963.289 Q1942.82 960.627 1940.92 959.215 Q1939.04 957.78 1935.52 957.78 Q1933.6 957.78 1931.4 958.197 Q1929.2 958.613 1926.57 959.493 L1926.57 955.326 Q1929.23 954.586 1931.54 954.215 Q1933.88 953.845 1935.94 953.845 Q1941.26 953.845 1944.37 956.275 Q1947.47 958.683 1947.47 962.803 Q1947.47 965.673 1945.82 967.664 Q1944.18 969.632 1941.15 970.396 Z" fill="#000000" fill-rule="evenodd" fill-opacity="1" /><polyline clip-path="url(#clip552)" style="stroke:#000000; stroke-linecap:butt; stroke-linejoin:round; stroke-width:2; stroke-opacity:0.1; fill:none" points="
  938.289,1281.01 1082.58,871.855 
  "/>
<polyline clip-path="url(#clip552)" style="stroke:#000000; stroke-linecap:butt; stroke-linejoin:round; stroke-width:2; stroke-opacity:0.1; fill:none" points="
  1082.58,871.855 1900.88,943.999 
  "/>
<polyline clip-path="url(#clip552)" style="stroke:#000000; stroke-linecap:butt; stroke-linejoin:round; stroke-width:2; stroke-opacity:0.1; fill:none" points="
  938.289,1134.1 1082.58,724.947 
  "/>
<polyline clip-path="url(#clip552)" style="stroke:#000000; stroke-linecap:butt; stroke-linejoin:round; stroke-width:2; stroke-opacity:0.1; fill:none" points="
  1082.58,724.947 1900.88,797.091 
  "/>
<polyline clip-path="url(#clip552)" style="stroke:#000000; stroke-linecap:butt; stroke-linejoin:round; stroke-width:2; stroke-opacity:0.1; fill:none" points="
  938.289,987.19 1082.58,578.04 
  "/>
<polyline clip-path="url(#clip552)" style="stroke:#000000; stroke-linecap:butt; stroke-linejoin:round; stroke-width:2; stroke-opacity:0.1; fill:none" points="
  1082.58,578.04 1900.88,650.184 
  "/>
<polyline clip-path="url(#clip552)" style="stroke:#000000; stroke-linecap:butt; stroke-linejoin:round; stroke-width:2; stroke-opacity:0.1; fill:none" points="
  938.289,840.283 1082.58,431.132 
  "/>
<polyline clip-path="url(#clip552)" style="stroke:#000000; stroke-linecap:butt; stroke-linejoin:round; stroke-width:2; stroke-opacity:0.1; fill:none" points="
  1082.58,431.132 1900.88,503.276 
  "/>
<polyline clip-path="url(#clip552)" style="stroke:#000000; stroke-linecap:butt; stroke-linejoin:round; stroke-width:2; stroke-opacity:0.1; fill:none" points="
  938.289,693.375 1082.58,284.224 
  "/>
<polyline clip-path="url(#clip552)" style="stroke:#000000; stroke-linecap:butt; stroke-linejoin:round; stroke-width:2; stroke-opacity:0.1; fill:none" points="
  1082.58,284.224 1900.88,356.369 
  "/>
<polyline clip-path="url(#clip550)" style="stroke:#000000; stroke-linecap:butt; stroke-linejoin:round; stroke-width:4; stroke-opacity:1; fill:none" points="
  938.289,1295.15 938.289,575.548 
  "/>
<polyline clip-path="url(#clip550)" style="stroke:#000000; stroke-linecap:butt; stroke-linejoin:round; stroke-width:4; stroke-opacity:1; fill:none" points="
  938.289,1281.01 940.021,1276.1 
  "/>
<polyline clip-path="url(#clip550)" style="stroke:#000000; stroke-linecap:butt; stroke-linejoin:round; stroke-width:4; stroke-opacity:1; fill:none" points="
  938.289,1134.1 940.021,1129.19 
  "/>
<polyline clip-path="url(#clip550)" style="stroke:#000000; stroke-linecap:butt; stroke-linejoin:round; stroke-width:4; stroke-opacity:1; fill:none" points="
  938.289,987.19 940.021,982.28 
  "/>
<polyline clip-path="url(#clip550)" style="stroke:#000000; stroke-linecap:butt; stroke-linejoin:round; stroke-width:4; stroke-opacity:1; fill:none" points="
  938.289,840.283 940.021,835.373 
  "/>
<polyline clip-path="url(#clip550)" style="stroke:#000000; stroke-linecap:butt; stroke-linejoin:round; stroke-width:4; stroke-opacity:1; fill:none" points="
  938.289,693.375 940.021,688.465 
  "/>
<path clip-path="url(#clip550)" d="M512.291 1304.02 L512.291 1299.76 Q514.05 1300.59 515.856 1301.03 Q517.661 1301.47 519.398 1301.47 Q524.027 1301.47 526.458 1298.37 Q528.911 1295.24 529.259 1288.9 Q527.916 1290.89 525.856 1291.96 Q523.796 1293.02 521.296 1293.02 Q516.111 1293.02 513.078 1289.89 Q510.069 1286.75 510.069 1281.31 Q510.069 1275.98 513.217 1272.77 Q516.365 1269.55 521.597 1269.55 Q527.592 1269.55 530.74 1274.15 Q533.911 1278.74 533.911 1287.49 Q533.911 1295.66 530.022 1300.54 Q526.157 1305.4 519.606 1305.4 Q517.847 1305.4 516.041 1305.06 Q514.236 1304.71 512.291 1304.02 M521.597 1289.36 Q524.745 1289.36 526.573 1287.21 Q528.425 1285.06 528.425 1281.31 Q528.425 1277.58 526.573 1275.43 Q524.745 1273.25 521.597 1273.25 Q518.448 1273.25 516.597 1275.43 Q514.768 1277.58 514.768 1281.31 Q514.768 1285.06 516.597 1287.21 Q518.448 1289.36 521.597 1289.36 Z" fill="#000000" fill-rule="evenodd" fill-opacity="1" /><path clip-path="url(#clip550)" d="M542.314 1298.85 L547.198 1298.85 L547.198 1304.73 L542.314 1304.73 L542.314 1298.85 Z" fill="#000000" fill-rule="evenodd" fill-opacity="1" /><path clip-path="url(#clip550)" d="M557.522 1304.02 L557.522 1299.76 Q559.282 1300.59 561.087 1301.03 Q562.893 1301.47 564.629 1301.47 Q569.258 1301.47 571.689 1298.37 Q574.143 1295.24 574.49 1288.9 Q573.147 1290.89 571.087 1291.96 Q569.027 1293.02 566.527 1293.02 Q561.342 1293.02 558.309 1289.89 Q555.3 1286.75 555.3 1281.31 Q555.3 1275.98 558.448 1272.77 Q561.596 1269.55 566.828 1269.55 Q572.823 1269.55 575.971 1274.15 Q579.143 1278.74 579.143 1287.49 Q579.143 1295.66 575.254 1300.54 Q571.388 1305.4 564.837 1305.4 Q563.078 1305.4 561.272 1305.06 Q559.467 1304.71 557.522 1304.02 M566.828 1289.36 Q569.976 1289.36 571.805 1287.21 Q573.657 1285.06 573.657 1281.31 Q573.657 1277.58 571.805 1275.43 Q569.976 1273.25 566.828 1273.25 Q563.68 1273.25 561.828 1275.43 Q559.999 1277.58 559.999 1281.31 Q559.999 1285.06 561.828 1287.21 Q563.68 1289.36 566.828 1289.36 Z" fill="#000000" fill-rule="evenodd" fill-opacity="1" /><path clip-path="url(#clip550)" d="M587.684 1304.02 L587.684 1299.76 Q589.443 1300.59 591.249 1301.03 Q593.055 1301.47 594.791 1301.47 Q599.42 1301.47 601.851 1298.37 Q604.305 1295.24 604.652 1288.9 Q603.309 1290.89 601.249 1291.96 Q599.189 1293.02 596.689 1293.02 Q591.504 1293.02 588.471 1289.89 Q585.462 1286.75 585.462 1281.31 Q585.462 1275.98 588.61 1272.77 Q591.758 1269.55 596.99 1269.55 Q602.985 1269.55 606.133 1274.15 Q609.304 1278.74 609.304 1287.49 Q609.304 1295.66 605.416 1300.54 Q601.55 1305.4 594.999 1305.4 Q593.24 1305.4 591.434 1305.06 Q589.629 1304.71 587.684 1304.02 M596.99 1289.36 Q600.138 1289.36 601.967 1287.21 Q603.818 1285.06 603.818 1281.31 Q603.818 1277.58 601.967 1275.43 Q600.138 1273.25 596.99 1273.25 Q593.842 1273.25 591.99 1275.43 Q590.161 1277.58 590.161 1281.31 Q590.161 1285.06 591.99 1287.21 Q593.842 1289.36 596.99 1289.36 Z" fill="#000000" fill-rule="evenodd" fill-opacity="1" /><path clip-path="url(#clip550)" d="M617.846 1304.02 L617.846 1299.76 Q619.605 1300.59 621.411 1301.03 Q623.216 1301.47 624.953 1301.47 Q629.582 1301.47 632.013 1298.37 Q634.466 1295.24 634.814 1288.9 Q633.471 1290.89 631.411 1291.96 Q629.351 1293.02 626.851 1293.02 Q621.666 1293.02 618.633 1289.89 Q615.624 1286.75 615.624 1281.31 Q615.624 1275.98 618.772 1272.77 Q621.92 1269.55 627.152 1269.55 Q633.147 1269.55 636.295 1274.15 Q639.466 1278.74 639.466 1287.49 Q639.466 1295.66 635.577 1300.54 Q631.712 1305.4 625.161 1305.4 Q623.402 1305.4 621.596 1305.06 Q619.791 1304.71 617.846 1304.02 M627.152 1289.36 Q630.3 1289.36 632.128 1287.21 Q633.98 1285.06 633.98 1281.31 Q633.98 1277.58 632.128 1275.43 Q630.3 1273.25 627.152 1273.25 Q624.003 1273.25 622.152 1275.43 Q620.323 1277.58 620.323 1281.31 Q620.323 1285.06 622.152 1287.21 Q624.003 1289.36 627.152 1289.36 Z" fill="#000000" fill-rule="evenodd" fill-opacity="1" /><path clip-path="url(#clip550)" d="M648.008 1304.02 L648.008 1299.76 Q649.767 1300.59 651.573 1301.03 Q653.378 1301.47 655.114 1301.47 Q659.744 1301.47 662.175 1298.37 Q664.628 1295.24 664.975 1288.9 Q663.633 1290.89 661.573 1291.96 Q659.513 1293.02 657.013 1293.02 Q651.827 1293.02 648.795 1289.89 Q645.786 1286.75 645.786 1281.31 Q645.786 1275.98 648.934 1272.77 Q652.082 1269.55 657.313 1269.55 Q663.309 1269.55 666.457 1274.15 Q669.628 1278.74 669.628 1287.49 Q669.628 1295.66 665.739 1300.54 Q661.874 1305.4 655.323 1305.4 Q653.563 1305.4 651.758 1305.06 Q649.952 1304.71 648.008 1304.02 M657.313 1289.36 Q660.462 1289.36 662.29 1287.21 Q664.142 1285.06 664.142 1281.31 Q664.142 1277.58 662.29 1275.43 Q660.462 1273.25 657.313 1273.25 Q654.165 1273.25 652.314 1275.43 Q650.485 1277.58 650.485 1281.31 Q650.485 1285.06 652.314 1287.21 Q654.165 1289.36 657.313 1289.36 Z" fill="#000000" fill-rule="evenodd" fill-opacity="1" /><path clip-path="url(#clip550)" d="M688.031 1288.32 Q684.698 1288.32 682.776 1290.1 Q680.878 1291.89 680.878 1295.01 Q680.878 1298.14 682.776 1299.92 Q684.698 1301.7 688.031 1301.7 Q691.364 1301.7 693.286 1299.92 Q695.207 1298.11 695.207 1295.01 Q695.207 1291.89 693.286 1290.1 Q691.387 1288.32 688.031 1288.32 M683.355 1286.33 Q680.346 1285.59 678.656 1283.53 Q676.989 1281.47 676.989 1278.51 Q676.989 1274.36 679.929 1271.96 Q682.892 1269.55 688.031 1269.55 Q693.193 1269.55 696.133 1271.96 Q699.073 1274.36 699.073 1278.51 Q699.073 1281.47 697.383 1283.53 Q695.716 1285.59 692.73 1286.33 Q696.11 1287.12 697.985 1289.41 Q699.883 1291.7 699.883 1295.01 Q699.883 1300.03 696.804 1302.72 Q693.748 1305.4 688.031 1305.4 Q682.313 1305.4 679.235 1302.72 Q676.179 1300.03 676.179 1295.01 Q676.179 1291.7 678.077 1289.41 Q679.975 1287.12 683.355 1286.33 M681.642 1278.95 Q681.642 1281.63 683.309 1283.14 Q684.999 1284.64 688.031 1284.64 Q691.04 1284.64 692.73 1283.14 Q694.443 1281.63 694.443 1278.95 Q694.443 1276.26 692.73 1274.76 Q691.04 1273.25 688.031 1273.25 Q684.999 1273.25 683.309 1274.76 Q681.642 1276.26 681.642 1278.95 Z" fill="#000000" fill-rule="evenodd" fill-opacity="1" /><path clip-path="url(#clip550)" d="M718.193 1273.25 Q714.582 1273.25 712.753 1276.82 Q710.947 1280.36 710.947 1287.49 Q710.947 1294.59 712.753 1298.16 Q714.582 1301.7 718.193 1301.7 Q721.827 1301.7 723.633 1298.16 Q725.461 1294.59 725.461 1287.49 Q725.461 1280.36 723.633 1276.82 Q721.827 1273.25 718.193 1273.25 M718.193 1269.55 Q724.003 1269.55 727.058 1274.15 Q730.137 1278.74 730.137 1287.49 Q730.137 1296.21 727.058 1300.82 Q724.003 1305.4 718.193 1305.4 Q712.383 1305.4 709.304 1300.82 Q706.248 1296.21 706.248 1287.49 Q706.248 1278.74 709.304 1274.15 Q712.383 1269.55 718.193 1269.55 Z" fill="#000000" fill-rule="evenodd" fill-opacity="1" /><path clip-path="url(#clip550)" d="M748.355 1273.25 Q744.744 1273.25 742.915 1276.82 Q741.109 1280.36 741.109 1287.49 Q741.109 1294.59 742.915 1298.16 Q744.744 1301.7 748.355 1301.7 Q751.989 1301.7 753.794 1298.16 Q755.623 1294.59 755.623 1287.49 Q755.623 1280.36 753.794 1276.82 Q751.989 1273.25 748.355 1273.25 M748.355 1269.55 Q754.165 1269.55 757.22 1274.15 Q760.299 1278.74 760.299 1287.49 Q760.299 1296.21 757.22 1300.82 Q754.165 1305.4 748.355 1305.4 Q742.545 1305.4 739.466 1300.82 Q736.41 1296.21 736.41 1287.49 Q736.41 1278.74 739.466 1274.15 Q742.545 1269.55 748.355 1269.55 Z" fill="#000000" fill-rule="evenodd" fill-opacity="1" /><path clip-path="url(#clip550)" d="M796.688 1279.27 L786.109 1289.89 L796.688 1300.47 L793.933 1303.27 L783.308 1292.65 L772.683 1303.27 L769.952 1300.47 L780.507 1289.89 L769.952 1279.27 L772.683 1276.47 L783.308 1287.09 L793.933 1276.47 L796.688 1279.27 Z" fill="#000000" fill-rule="evenodd" fill-opacity="1" /><path clip-path="url(#clip550)" d="M809.049 1300.8 L816.688 1300.8 L816.688 1274.43 L808.377 1276.1 L808.377 1271.84 L816.641 1270.17 L821.317 1270.17 L821.317 1300.8 L828.956 1300.8 L828.956 1304.73 L809.049 1304.73 L809.049 1300.8 Z" fill="#000000" fill-rule="evenodd" fill-opacity="1" /><path clip-path="url(#clip550)" d="M848.4 1273.25 Q844.789 1273.25 842.961 1276.82 Q841.155 1280.36 841.155 1287.49 Q841.155 1294.59 842.961 1298.16 Q844.789 1301.7 848.4 1301.7 Q852.035 1301.7 853.84 1298.16 Q855.669 1294.59 855.669 1287.49 Q855.669 1280.36 853.84 1276.82 Q852.035 1273.25 848.4 1273.25 M848.4 1269.55 Q854.211 1269.55 857.266 1274.15 Q860.345 1278.74 860.345 1287.49 Q860.345 1296.21 857.266 1300.82 Q854.211 1305.4 848.4 1305.4 Q842.59 1305.4 839.512 1300.82 Q836.456 1296.21 836.456 1287.49 Q836.456 1278.74 839.512 1274.15 Q842.59 1269.55 848.4 1269.55 Z" fill="#000000" fill-rule="evenodd" fill-opacity="1" /><path clip-path="url(#clip550)" d="M860.345 1263.65 L884.456 1263.65 L884.456 1266.85 L860.345 1266.85 L860.345 1263.65 Z" fill="#000000" fill-rule="evenodd" fill-opacity="1" /><path clip-path="url(#clip550)" d="M893.315 1274.13 L899.521 1274.13 L899.521 1252.7 L892.769 1254.06 L892.769 1250.6 L899.484 1249.24 L903.283 1249.24 L903.283 1274.13 L909.489 1274.13 L909.489 1277.32 L893.315 1277.32 L893.315 1274.13 Z" fill="#000000" fill-rule="evenodd" fill-opacity="1" /><path clip-path="url(#clip550)" d="M512.291 1157.11 L512.291 1152.85 Q514.05 1153.68 515.856 1154.12 Q517.661 1154.56 519.398 1154.56 Q524.027 1154.56 526.458 1151.46 Q528.911 1148.33 529.259 1141.99 Q527.916 1143.98 525.856 1145.05 Q523.796 1146.11 521.296 1146.11 Q516.111 1146.11 513.078 1142.99 Q510.069 1139.84 510.069 1134.4 Q510.069 1129.08 513.217 1125.86 Q516.365 1122.64 521.597 1122.64 Q527.592 1122.64 530.74 1127.25 Q533.911 1131.83 533.911 1140.58 Q533.911 1148.75 530.022 1153.64 Q526.157 1158.5 519.606 1158.5 Q517.847 1158.5 516.041 1158.15 Q514.236 1157.8 512.291 1157.11 M521.597 1142.45 Q524.745 1142.45 526.573 1140.3 Q528.425 1138.15 528.425 1134.4 Q528.425 1130.67 526.573 1128.52 Q524.745 1126.34 521.597 1126.34 Q518.448 1126.34 516.597 1128.52 Q514.768 1130.67 514.768 1134.4 Q514.768 1138.15 516.597 1140.3 Q518.448 1142.45 521.597 1142.45 Z" fill="#000000" fill-rule="evenodd" fill-opacity="1" /><path clip-path="url(#clip550)" d="M542.314 1151.95 L547.198 1151.95 L547.198 1157.83 L542.314 1157.83 L542.314 1151.95 Z" fill="#000000" fill-rule="evenodd" fill-opacity="1" /><path clip-path="url(#clip550)" d="M557.522 1157.11 L557.522 1152.85 Q559.282 1153.68 561.087 1154.12 Q562.893 1154.56 564.629 1154.56 Q569.258 1154.56 571.689 1151.46 Q574.143 1148.33 574.49 1141.99 Q573.147 1143.98 571.087 1145.05 Q569.027 1146.11 566.527 1146.11 Q561.342 1146.11 558.309 1142.99 Q555.3 1139.84 555.3 1134.4 Q555.3 1129.08 558.448 1125.86 Q561.596 1122.64 566.828 1122.64 Q572.823 1122.64 575.971 1127.25 Q579.143 1131.83 579.143 1140.58 Q579.143 1148.75 575.254 1153.64 Q571.388 1158.5 564.837 1158.5 Q563.078 1158.5 561.272 1158.15 Q559.467 1157.8 557.522 1157.11 M566.828 1142.45 Q569.976 1142.45 571.805 1140.3 Q573.657 1138.15 573.657 1134.4 Q573.657 1130.67 571.805 1128.52 Q569.976 1126.34 566.828 1126.34 Q563.68 1126.34 561.828 1128.52 Q559.999 1130.67 559.999 1134.4 Q559.999 1138.15 561.828 1140.3 Q563.68 1142.45 566.828 1142.45 Z" fill="#000000" fill-rule="evenodd" fill-opacity="1" /><path clip-path="url(#clip550)" d="M587.684 1157.11 L587.684 1152.85 Q589.443 1153.68 591.249 1154.12 Q593.055 1154.56 594.791 1154.56 Q599.42 1154.56 601.851 1151.46 Q604.305 1148.33 604.652 1141.99 Q603.309 1143.98 601.249 1145.05 Q599.189 1146.11 596.689 1146.11 Q591.504 1146.11 588.471 1142.99 Q585.462 1139.84 585.462 1134.4 Q585.462 1129.08 588.61 1125.86 Q591.758 1122.64 596.99 1122.64 Q602.985 1122.64 606.133 1127.25 Q609.304 1131.83 609.304 1140.58 Q609.304 1148.75 605.416 1153.64 Q601.55 1158.5 594.999 1158.5 Q593.24 1158.5 591.434 1158.15 Q589.629 1157.8 587.684 1157.11 M596.99 1142.45 Q600.138 1142.45 601.967 1140.3 Q603.818 1138.15 603.818 1134.4 Q603.818 1130.67 601.967 1128.52 Q600.138 1126.34 596.99 1126.34 Q593.842 1126.34 591.99 1128.52 Q590.161 1130.67 590.161 1134.4 Q590.161 1138.15 591.99 1140.3 Q593.842 1142.45 596.99 1142.45 Z" fill="#000000" fill-rule="evenodd" fill-opacity="1" /><path clip-path="url(#clip550)" d="M617.846 1157.11 L617.846 1152.85 Q619.605 1153.68 621.411 1154.12 Q623.216 1154.56 624.953 1154.56 Q629.582 1154.56 632.013 1151.46 Q634.466 1148.33 634.814 1141.99 Q633.471 1143.98 631.411 1145.05 Q629.351 1146.11 626.851 1146.11 Q621.666 1146.11 618.633 1142.99 Q615.624 1139.84 615.624 1134.4 Q615.624 1129.08 618.772 1125.86 Q621.92 1122.64 627.152 1122.64 Q633.147 1122.64 636.295 1127.25 Q639.466 1131.83 639.466 1140.58 Q639.466 1148.75 635.577 1153.64 Q631.712 1158.5 625.161 1158.5 Q623.402 1158.5 621.596 1158.15 Q619.791 1157.8 617.846 1157.11 M627.152 1142.45 Q630.3 1142.45 632.128 1140.3 Q633.98 1138.15 633.98 1134.4 Q633.98 1130.67 632.128 1128.52 Q630.3 1126.34 627.152 1126.34 Q624.003 1126.34 622.152 1128.52 Q620.323 1130.67 620.323 1134.4 Q620.323 1138.15 622.152 1140.3 Q624.003 1142.45 627.152 1142.45 Z" fill="#000000" fill-rule="evenodd" fill-opacity="1" /><path clip-path="url(#clip550)" d="M648.008 1157.11 L648.008 1152.85 Q649.767 1153.68 651.573 1154.12 Q653.378 1154.56 655.114 1154.56 Q659.744 1154.56 662.175 1151.46 Q664.628 1148.33 664.975 1141.99 Q663.633 1143.98 661.573 1145.05 Q659.513 1146.11 657.013 1146.11 Q651.827 1146.11 648.795 1142.99 Q645.786 1139.84 645.786 1134.4 Q645.786 1129.08 648.934 1125.86 Q652.082 1122.64 657.313 1122.64 Q663.309 1122.64 666.457 1127.25 Q669.628 1131.83 669.628 1140.58 Q669.628 1148.75 665.739 1153.64 Q661.874 1158.5 655.323 1158.5 Q653.563 1158.5 651.758 1158.15 Q649.952 1157.8 648.008 1157.11 M657.313 1142.45 Q660.462 1142.45 662.29 1140.3 Q664.142 1138.15 664.142 1134.4 Q664.142 1130.67 662.29 1128.52 Q660.462 1126.34 657.313 1126.34 Q654.165 1126.34 652.314 1128.52 Q650.485 1130.67 650.485 1134.4 Q650.485 1138.15 652.314 1140.3 Q654.165 1142.45 657.313 1142.45 Z" fill="#000000" fill-rule="evenodd" fill-opacity="1" /><path clip-path="url(#clip550)" d="M678.17 1157.11 L678.17 1152.85 Q679.929 1153.68 681.735 1154.12 Q683.54 1154.56 685.276 1154.56 Q689.906 1154.56 692.336 1151.46 Q694.79 1148.33 695.137 1141.99 Q693.795 1143.98 691.735 1145.05 Q689.674 1146.11 687.174 1146.11 Q681.989 1146.11 678.957 1142.99 Q675.948 1139.84 675.948 1134.4 Q675.948 1129.08 679.096 1125.86 Q682.244 1122.64 687.475 1122.64 Q693.471 1122.64 696.619 1127.25 Q699.79 1131.83 699.79 1140.58 Q699.79 1148.75 695.901 1153.64 Q692.036 1158.5 685.485 1158.5 Q683.725 1158.5 681.92 1158.15 Q680.114 1157.8 678.17 1157.11 M687.475 1142.45 Q690.623 1142.45 692.452 1140.3 Q694.304 1138.15 694.304 1134.4 Q694.304 1130.67 692.452 1128.52 Q690.623 1126.34 687.475 1126.34 Q684.327 1126.34 682.475 1128.52 Q680.647 1130.67 680.647 1134.4 Q680.647 1138.15 682.475 1140.3 Q684.327 1142.45 687.475 1142.45 Z" fill="#000000" fill-rule="evenodd" fill-opacity="1" /><path clip-path="url(#clip550)" d="M718.193 1126.34 Q714.582 1126.34 712.753 1129.91 Q710.947 1133.45 710.947 1140.58 Q710.947 1147.69 712.753 1151.25 Q714.582 1154.79 718.193 1154.79 Q721.827 1154.79 723.633 1151.25 Q725.461 1147.69 725.461 1140.58 Q725.461 1133.45 723.633 1129.91 Q721.827 1126.34 718.193 1126.34 M718.193 1122.64 Q724.003 1122.64 727.058 1127.25 Q730.137 1131.83 730.137 1140.58 Q730.137 1149.31 727.058 1153.91 Q724.003 1158.5 718.193 1158.5 Q712.383 1158.5 709.304 1153.91 Q706.248 1149.31 706.248 1140.58 Q706.248 1131.83 709.304 1127.25 Q712.383 1122.64 718.193 1122.64 Z" fill="#000000" fill-rule="evenodd" fill-opacity="1" /><path clip-path="url(#clip550)" d="M748.355 1126.34 Q744.744 1126.34 742.915 1129.91 Q741.109 1133.45 741.109 1140.58 Q741.109 1147.69 742.915 1151.25 Q744.744 1154.79 748.355 1154.79 Q751.989 1154.79 753.794 1151.25 Q755.623 1147.69 755.623 1140.58 Q755.623 1133.45 753.794 1129.91 Q751.989 1126.34 748.355 1126.34 M748.355 1122.64 Q754.165 1122.64 757.22 1127.25 Q760.299 1131.83 760.299 1140.58 Q760.299 1149.31 757.22 1153.91 Q754.165 1158.5 748.355 1158.5 Q742.545 1158.5 739.466 1153.91 Q736.41 1149.31 736.41 1140.58 Q736.41 1131.83 739.466 1127.25 Q742.545 1122.64 748.355 1122.64 Z" fill="#000000" fill-rule="evenodd" fill-opacity="1" /><path clip-path="url(#clip550)" d="M796.688 1132.36 L786.109 1142.99 L796.688 1153.57 L793.933 1156.37 L783.308 1145.74 L772.683 1156.37 L769.952 1153.57 L780.507 1142.99 L769.952 1132.36 L772.683 1129.56 L783.308 1140.19 L793.933 1129.56 L796.688 1132.36 Z" fill="#000000" fill-rule="evenodd" fill-opacity="1" /><path clip-path="url(#clip550)" d="M809.049 1153.89 L816.688 1153.89 L816.688 1127.52 L808.377 1129.19 L808.377 1124.93 L816.641 1123.27 L821.317 1123.27 L821.317 1153.89 L828.956 1153.89 L828.956 1157.83 L809.049 1157.83 L809.049 1153.89 Z" fill="#000000" fill-rule="evenodd" fill-opacity="1" /><path clip-path="url(#clip550)" d="M848.4 1126.34 Q844.789 1126.34 842.961 1129.91 Q841.155 1133.45 841.155 1140.58 Q841.155 1147.69 842.961 1151.25 Q844.789 1154.79 848.4 1154.79 Q852.035 1154.79 853.84 1151.25 Q855.669 1147.69 855.669 1140.58 Q855.669 1133.45 853.84 1129.91 Q852.035 1126.34 848.4 1126.34 M848.4 1122.64 Q854.211 1122.64 857.266 1127.25 Q860.345 1131.83 860.345 1140.58 Q860.345 1149.31 857.266 1153.91 Q854.211 1158.5 848.4 1158.5 Q842.59 1158.5 839.512 1153.91 Q836.456 1149.31 836.456 1140.58 Q836.456 1131.83 839.512 1127.25 Q842.59 1122.64 848.4 1122.64 Z" fill="#000000" fill-rule="evenodd" fill-opacity="1" /><path clip-path="url(#clip550)" d="M860.345 1116.74 L884.456 1116.74 L884.456 1119.94 L860.345 1119.94 L860.345 1116.74 Z" fill="#000000" fill-rule="evenodd" fill-opacity="1" /><path clip-path="url(#clip550)" d="M893.315 1127.22 L899.521 1127.22 L899.521 1105.8 L892.769 1107.15 L892.769 1103.69 L899.484 1102.33 L903.283 1102.33 L903.283 1127.22 L909.489 1127.22 L909.489 1130.41 L893.315 1130.41 L893.315 1127.22 Z" fill="#000000" fill-rule="evenodd" fill-opacity="1" /><path clip-path="url(#clip550)" d="M542.697 1006.98 L550.336 1006.98 L550.336 980.617 L542.026 982.284 L542.026 978.024 L550.29 976.358 L554.966 976.358 L554.966 1006.98 L562.605 1006.98 L562.605 1010.92 L542.697 1010.92 L542.697 1006.98 Z" fill="#000000" fill-rule="evenodd" fill-opacity="1" /><path clip-path="url(#clip550)" d="M572.049 1005.04 L576.933 1005.04 L576.933 1010.92 L572.049 1010.92 L572.049 1005.04 Z" fill="#000000" fill-rule="evenodd" fill-opacity="1" /><path clip-path="url(#clip550)" d="M597.118 979.436 Q593.507 979.436 591.679 983.001 Q589.873 986.543 589.873 993.672 Q589.873 1000.78 591.679 1004.34 Q593.507 1007.89 597.118 1007.89 Q600.753 1007.89 602.558 1004.34 Q604.387 1000.78 604.387 993.672 Q604.387 986.543 602.558 983.001 Q600.753 979.436 597.118 979.436 M597.118 975.733 Q602.929 975.733 605.984 980.339 Q609.063 984.922 609.063 993.672 Q609.063 1002.4 605.984 1007.01 Q602.929 1011.59 597.118 1011.59 Q591.308 1011.59 588.23 1007.01 Q585.174 1002.4 585.174 993.672 Q585.174 984.922 588.23 980.339 Q591.308 975.733 597.118 975.733 Z" fill="#000000" fill-rule="evenodd" fill-opacity="1" /><path clip-path="url(#clip550)" d="M627.28 979.436 Q623.669 979.436 621.841 983.001 Q620.035 986.543 620.035 993.672 Q620.035 1000.78 621.841 1004.34 Q623.669 1007.89 627.28 1007.89 Q630.915 1007.89 632.72 1004.34 Q634.549 1000.78 634.549 993.672 Q634.549 986.543 632.72 983.001 Q630.915 979.436 627.28 979.436 M627.28 975.733 Q633.091 975.733 636.146 980.339 Q639.225 984.922 639.225 993.672 Q639.225 1002.4 636.146 1007.01 Q633.091 1011.59 627.28 1011.59 Q621.47 1011.59 618.392 1007.01 Q615.336 1002.4 615.336 993.672 Q615.336 984.922 618.392 980.339 Q621.47 975.733 627.28 975.733 Z" fill="#000000" fill-rule="evenodd" fill-opacity="1" /><path clip-path="url(#clip550)" d="M657.442 979.436 Q653.831 979.436 652.002 983.001 Q650.197 986.543 650.197 993.672 Q650.197 1000.78 652.002 1004.34 Q653.831 1007.89 657.442 1007.89 Q661.076 1007.89 662.882 1004.34 Q664.711 1000.78 664.711 993.672 Q664.711 986.543 662.882 983.001 Q661.076 979.436 657.442 979.436 M657.442 975.733 Q663.252 975.733 666.308 980.339 Q669.387 984.922 669.387 993.672 Q669.387 1002.4 666.308 1007.01 Q663.252 1011.59 657.442 1011.59 Q651.632 1011.59 648.553 1007.01 Q645.498 1002.4 645.498 993.672 Q645.498 984.922 648.553 980.339 Q651.632 975.733 657.442 975.733 Z" fill="#000000" fill-rule="evenodd" fill-opacity="1" /><path clip-path="url(#clip550)" d="M687.604 979.436 Q683.993 979.436 682.164 983.001 Q680.359 986.543 680.359 993.672 Q680.359 1000.78 682.164 1004.34 Q683.993 1007.89 687.604 1007.89 Q691.238 1007.89 693.044 1004.34 Q694.873 1000.78 694.873 993.672 Q694.873 986.543 693.044 983.001 Q691.238 979.436 687.604 979.436 M687.604 975.733 Q693.414 975.733 696.47 980.339 Q699.548 984.922 699.548 993.672 Q699.548 1002.4 696.47 1007.01 Q693.414 1011.59 687.604 1011.59 Q681.794 1011.59 678.715 1007.01 Q675.66 1002.4 675.66 993.672 Q675.66 984.922 678.715 980.339 Q681.794 975.733 687.604 975.733 Z" fill="#000000" fill-rule="evenodd" fill-opacity="1" /><path clip-path="url(#clip550)" d="M717.766 979.436 Q714.155 979.436 712.326 983.001 Q710.521 986.543 710.521 993.672 Q710.521 1000.78 712.326 1004.34 Q714.155 1007.89 717.766 1007.89 Q721.4 1007.89 723.206 1004.34 Q725.034 1000.78 725.034 993.672 Q725.034 986.543 723.206 983.001 Q721.4 979.436 717.766 979.436 M717.766 975.733 Q723.576 975.733 726.632 980.339 Q729.71 984.922 729.71 993.672 Q729.71 1002.4 726.632 1007.01 Q723.576 1011.59 717.766 1011.59 Q711.956 1011.59 708.877 1007.01 Q705.822 1002.4 705.822 993.672 Q705.822 984.922 708.877 980.339 Q711.956 975.733 717.766 975.733 Z" fill="#000000" fill-rule="evenodd" fill-opacity="1" /><path clip-path="url(#clip550)" d="M747.928 979.436 Q744.317 979.436 742.488 983.001 Q740.683 986.543 740.683 993.672 Q740.683 1000.78 742.488 1004.34 Q744.317 1007.89 747.928 1007.89 Q751.562 1007.89 753.368 1004.34 Q755.196 1000.78 755.196 993.672 Q755.196 986.543 753.368 983.001 Q751.562 979.436 747.928 979.436 M747.928 975.733 Q753.738 975.733 756.794 980.339 Q759.872 984.922 759.872 993.672 Q759.872 1002.4 756.794 1007.01 Q753.738 1011.59 747.928 1011.59 Q742.118 1011.59 739.039 1007.01 Q735.983 1002.4 735.983 993.672 Q735.983 984.922 739.039 980.339 Q742.118 975.733 747.928 975.733 Z" fill="#000000" fill-rule="evenodd" fill-opacity="1" /><path clip-path="url(#clip550)" d="M778.09 979.436 Q774.479 979.436 772.65 983.001 Q770.844 986.543 770.844 993.672 Q770.844 1000.78 772.65 1004.34 Q774.479 1007.89 778.09 1007.89 Q781.724 1007.89 783.53 1004.34 Q785.358 1000.78 785.358 993.672 Q785.358 986.543 783.53 983.001 Q781.724 979.436 778.09 979.436 M778.09 975.733 Q783.9 975.733 786.955 980.339 Q790.034 984.922 790.034 993.672 Q790.034 1002.4 786.955 1007.01 Q783.9 1011.59 778.09 1011.59 Q772.28 1011.59 769.201 1007.01 Q766.145 1002.4 766.145 993.672 Q766.145 984.922 769.201 980.339 Q772.28 975.733 778.09 975.733 Z" fill="#000000" fill-rule="evenodd" fill-opacity="1" /><path clip-path="url(#clip550)" d="M826.423 985.455 L815.844 996.08 L826.423 1006.66 L823.668 1009.46 L813.043 998.834 L802.418 1009.46 L799.687 1006.66 L810.242 996.08 L799.687 985.455 L802.418 982.654 L813.043 993.279 L823.668 982.654 L826.423 985.455 Z" fill="#000000" fill-rule="evenodd" fill-opacity="1" /><path clip-path="url(#clip550)" d="M838.784 1006.98 L846.423 1006.98 L846.423 980.617 L838.113 982.284 L838.113 978.024 L846.376 976.358 L851.052 976.358 L851.052 1006.98 L858.691 1006.98 L858.691 1010.92 L838.784 1010.92 L838.784 1006.98 Z" fill="#000000" fill-rule="evenodd" fill-opacity="1" /><path clip-path="url(#clip550)" d="M878.136 979.436 Q874.524 979.436 872.696 983.001 Q870.89 986.543 870.89 993.672 Q870.89 1000.78 872.696 1004.34 Q874.524 1007.89 878.136 1007.89 Q881.77 1007.89 883.575 1004.34 Q885.404 1000.78 885.404 993.672 Q885.404 986.543 883.575 983.001 Q881.77 979.436 878.136 979.436 M878.136 975.733 Q883.946 975.733 887.001 980.339 Q890.08 984.922 890.08 993.672 Q890.08 1002.4 887.001 1007.01 Q883.946 1011.59 878.136 1011.59 Q872.325 1011.59 869.247 1007.01 Q866.191 1002.4 866.191 993.672 Q866.191 984.922 869.247 980.339 Q872.325 975.733 878.136 975.733 Z" fill="#000000" fill-rule="evenodd" fill-opacity="1" /><path clip-path="url(#clip550)" d="M899.785 957.929 Q896.851 957.929 895.365 960.825 Q893.898 963.703 893.898 969.496 Q893.898 975.27 895.365 978.166 Q896.851 981.043 899.785 981.043 Q902.738 981.043 904.205 978.166 Q905.69 975.27 905.69 969.496 Q905.69 963.703 904.205 960.825 Q902.738 957.929 899.785 957.929 M899.785 954.919 Q904.505 954.919 906.988 958.662 Q909.489 962.386 909.489 969.496 Q909.489 976.586 906.988 980.329 Q904.505 984.053 899.785 984.053 Q895.064 984.053 892.563 980.329 Q890.08 976.586 890.08 969.496 Q890.08 962.386 892.563 958.662 Q895.064 954.919 899.785 954.919 Z" fill="#000000" fill-rule="evenodd" fill-opacity="1" /><path clip-path="url(#clip550)" d="M542.697 860.075 L550.336 860.075 L550.336 833.709 L542.026 835.376 L542.026 831.117 L550.29 829.45 L554.966 829.45 L554.966 860.075 L562.605 860.075 L562.605 864.01 L542.697 864.01 L542.697 860.075 Z" fill="#000000" fill-rule="evenodd" fill-opacity="1" /><path clip-path="url(#clip550)" d="M572.049 858.131 L576.933 858.131 L576.933 864.01 L572.049 864.01 L572.049 858.131 Z" fill="#000000" fill-rule="evenodd" fill-opacity="1" /><path clip-path="url(#clip550)" d="M597.118 832.529 Q593.507 832.529 591.679 836.094 Q589.873 839.635 589.873 846.765 Q589.873 853.871 591.679 857.436 Q593.507 860.978 597.118 860.978 Q600.753 860.978 602.558 857.436 Q604.387 853.871 604.387 846.765 Q604.387 839.635 602.558 836.094 Q600.753 832.529 597.118 832.529 M597.118 828.825 Q602.929 828.825 605.984 833.432 Q609.063 838.015 609.063 846.765 Q609.063 855.492 605.984 860.098 Q602.929 864.681 597.118 864.681 Q591.308 864.681 588.23 860.098 Q585.174 855.492 585.174 846.765 Q585.174 838.015 588.23 833.432 Q591.308 828.825 597.118 828.825 Z" fill="#000000" fill-rule="evenodd" fill-opacity="1" /><path clip-path="url(#clip550)" d="M627.28 832.529 Q623.669 832.529 621.841 836.094 Q620.035 839.635 620.035 846.765 Q620.035 853.871 621.841 857.436 Q623.669 860.978 627.28 860.978 Q630.915 860.978 632.72 857.436 Q634.549 853.871 634.549 846.765 Q634.549 839.635 632.72 836.094 Q630.915 832.529 627.28 832.529 M627.28 828.825 Q633.091 828.825 636.146 833.432 Q639.225 838.015 639.225 846.765 Q639.225 855.492 636.146 860.098 Q633.091 864.681 627.28 864.681 Q621.47 864.681 618.392 860.098 Q615.336 855.492 615.336 846.765 Q615.336 838.015 618.392 833.432 Q621.47 828.825 627.28 828.825 Z" fill="#000000" fill-rule="evenodd" fill-opacity="1" /><path clip-path="url(#clip550)" d="M657.442 832.529 Q653.831 832.529 652.002 836.094 Q650.197 839.635 650.197 846.765 Q650.197 853.871 652.002 857.436 Q653.831 860.978 657.442 860.978 Q661.076 860.978 662.882 857.436 Q664.711 853.871 664.711 846.765 Q664.711 839.635 662.882 836.094 Q661.076 832.529 657.442 832.529 M657.442 828.825 Q663.252 828.825 666.308 833.432 Q669.387 838.015 669.387 846.765 Q669.387 855.492 666.308 860.098 Q663.252 864.681 657.442 864.681 Q651.632 864.681 648.553 860.098 Q645.498 855.492 645.498 846.765 Q645.498 838.015 648.553 833.432 Q651.632 828.825 657.442 828.825 Z" fill="#000000" fill-rule="evenodd" fill-opacity="1" /><path clip-path="url(#clip550)" d="M687.604 832.529 Q683.993 832.529 682.164 836.094 Q680.359 839.635 680.359 846.765 Q680.359 853.871 682.164 857.436 Q683.993 860.978 687.604 860.978 Q691.238 860.978 693.044 857.436 Q694.873 853.871 694.873 846.765 Q694.873 839.635 693.044 836.094 Q691.238 832.529 687.604 832.529 M687.604 828.825 Q693.414 828.825 696.47 833.432 Q699.548 838.015 699.548 846.765 Q699.548 855.492 696.47 860.098 Q693.414 864.681 687.604 864.681 Q681.794 864.681 678.715 860.098 Q675.66 855.492 675.66 846.765 Q675.66 838.015 678.715 833.432 Q681.794 828.825 687.604 828.825 Z" fill="#000000" fill-rule="evenodd" fill-opacity="1" /><path clip-path="url(#clip550)" d="M717.766 832.529 Q714.155 832.529 712.326 836.094 Q710.521 839.635 710.521 846.765 Q710.521 853.871 712.326 857.436 Q714.155 860.978 717.766 860.978 Q721.4 860.978 723.206 857.436 Q725.034 853.871 725.034 846.765 Q725.034 839.635 723.206 836.094 Q721.4 832.529 717.766 832.529 M717.766 828.825 Q723.576 828.825 726.632 833.432 Q729.71 838.015 729.71 846.765 Q729.71 855.492 726.632 860.098 Q723.576 864.681 717.766 864.681 Q711.956 864.681 708.877 860.098 Q705.822 855.492 705.822 846.765 Q705.822 838.015 708.877 833.432 Q711.956 828.825 717.766 828.825 Z" fill="#000000" fill-rule="evenodd" fill-opacity="1" /><path clip-path="url(#clip550)" d="M738.738 860.075 L746.377 860.075 L746.377 833.709 L738.067 835.376 L738.067 831.117 L746.331 829.45 L751.007 829.45 L751.007 860.075 L758.645 860.075 L758.645 864.01 L738.738 864.01 L738.738 860.075 Z" fill="#000000" fill-rule="evenodd" fill-opacity="1" /><path clip-path="url(#clip550)" d="M778.09 832.529 Q774.479 832.529 772.65 836.094 Q770.844 839.635 770.844 846.765 Q770.844 853.871 772.65 857.436 Q774.479 860.978 778.09 860.978 Q781.724 860.978 783.53 857.436 Q785.358 853.871 785.358 846.765 Q785.358 839.635 783.53 836.094 Q781.724 832.529 778.09 832.529 M778.09 828.825 Q783.9 828.825 786.955 833.432 Q790.034 838.015 790.034 846.765 Q790.034 855.492 786.955 860.098 Q783.9 864.681 778.09 864.681 Q772.28 864.681 769.201 860.098 Q766.145 855.492 766.145 846.765 Q766.145 838.015 769.201 833.432 Q772.28 828.825 778.09 828.825 Z" fill="#000000" fill-rule="evenodd" fill-opacity="1" /><path clip-path="url(#clip550)" d="M826.423 838.547 L815.844 849.172 L826.423 859.751 L823.668 862.552 L813.043 851.927 L802.418 862.552 L799.687 859.751 L810.242 849.172 L799.687 838.547 L802.418 835.746 L813.043 846.371 L823.668 835.746 L826.423 838.547 Z" fill="#000000" fill-rule="evenodd" fill-opacity="1" /><path clip-path="url(#clip550)" d="M838.784 860.075 L846.423 860.075 L846.423 833.709 L838.113 835.376 L838.113 831.117 L846.376 829.45 L851.052 829.45 L851.052 860.075 L858.691 860.075 L858.691 864.01 L838.784 864.01 L838.784 860.075 Z" fill="#000000" fill-rule="evenodd" fill-opacity="1" /><path clip-path="url(#clip550)" d="M878.136 832.529 Q874.524 832.529 872.696 836.094 Q870.89 839.635 870.89 846.765 Q870.89 853.871 872.696 857.436 Q874.524 860.978 878.136 860.978 Q881.77 860.978 883.575 857.436 Q885.404 853.871 885.404 846.765 Q885.404 839.635 883.575 836.094 Q881.77 832.529 878.136 832.529 M878.136 828.825 Q883.946 828.825 887.001 833.432 Q890.08 838.015 890.08 846.765 Q890.08 855.492 887.001 860.098 Q883.946 864.681 878.136 864.681 Q872.325 864.681 869.247 860.098 Q866.191 855.492 866.191 846.765 Q866.191 838.015 869.247 833.432 Q872.325 828.825 878.136 828.825 Z" fill="#000000" fill-rule="evenodd" fill-opacity="1" /><path clip-path="url(#clip550)" d="M899.785 811.021 Q896.851 811.021 895.365 813.918 Q893.898 816.795 893.898 822.588 Q893.898 828.362 895.365 831.258 Q896.851 834.136 899.785 834.136 Q902.738 834.136 904.205 831.258 Q905.69 828.362 905.69 822.588 Q905.69 816.795 904.205 813.918 Q902.738 811.021 899.785 811.021 M899.785 808.012 Q904.505 808.012 906.988 811.755 Q909.489 815.479 909.489 822.588 Q909.489 829.679 906.988 833.421 Q904.505 837.145 899.785 837.145 Q895.064 837.145 892.563 833.421 Q890.08 829.679 890.08 822.588 Q890.08 815.479 892.563 811.755 Q895.064 808.012 899.785 808.012 Z" fill="#000000" fill-rule="evenodd" fill-opacity="1" /><path clip-path="url(#clip550)" d="M542.697 713.167 L550.336 713.167 L550.336 686.802 L542.026 688.469 L542.026 684.209 L550.29 682.543 L554.966 682.543 L554.966 713.167 L562.605 713.167 L562.605 717.103 L542.697 717.103 L542.697 713.167 Z" fill="#000000" fill-rule="evenodd" fill-opacity="1" /><path clip-path="url(#clip550)" d="M572.049 711.223 L576.933 711.223 L576.933 717.103 L572.049 717.103 L572.049 711.223 Z" fill="#000000" fill-rule="evenodd" fill-opacity="1" /><path clip-path="url(#clip550)" d="M597.118 685.621 Q593.507 685.621 591.679 689.186 Q589.873 692.728 589.873 699.857 Q589.873 706.964 591.679 710.529 Q593.507 714.07 597.118 714.07 Q600.753 714.07 602.558 710.529 Q604.387 706.964 604.387 699.857 Q604.387 692.728 602.558 689.186 Q600.753 685.621 597.118 685.621 M597.118 681.918 Q602.929 681.918 605.984 686.524 Q609.063 691.107 609.063 699.857 Q609.063 708.584 605.984 713.191 Q602.929 717.774 597.118 717.774 Q591.308 717.774 588.23 713.191 Q585.174 708.584 585.174 699.857 Q585.174 691.107 588.23 686.524 Q591.308 681.918 597.118 681.918 Z" fill="#000000" fill-rule="evenodd" fill-opacity="1" /><path clip-path="url(#clip550)" d="M627.28 685.621 Q623.669 685.621 621.841 689.186 Q620.035 692.728 620.035 699.857 Q620.035 706.964 621.841 710.529 Q623.669 714.07 627.28 714.07 Q630.915 714.07 632.72 710.529 Q634.549 706.964 634.549 699.857 Q634.549 692.728 632.72 689.186 Q630.915 685.621 627.28 685.621 M627.28 681.918 Q633.091 681.918 636.146 686.524 Q639.225 691.107 639.225 699.857 Q639.225 708.584 636.146 713.191 Q633.091 717.774 627.28 717.774 Q621.47 717.774 618.392 713.191 Q615.336 708.584 615.336 699.857 Q615.336 691.107 618.392 686.524 Q621.47 681.918 627.28 681.918 Z" fill="#000000" fill-rule="evenodd" fill-opacity="1" /><path clip-path="url(#clip550)" d="M657.442 685.621 Q653.831 685.621 652.002 689.186 Q650.197 692.728 650.197 699.857 Q650.197 706.964 652.002 710.529 Q653.831 714.07 657.442 714.07 Q661.076 714.07 662.882 710.529 Q664.711 706.964 664.711 699.857 Q664.711 692.728 662.882 689.186 Q661.076 685.621 657.442 685.621 M657.442 681.918 Q663.252 681.918 666.308 686.524 Q669.387 691.107 669.387 699.857 Q669.387 708.584 666.308 713.191 Q663.252 717.774 657.442 717.774 Q651.632 717.774 648.553 713.191 Q645.498 708.584 645.498 699.857 Q645.498 691.107 648.553 686.524 Q651.632 681.918 657.442 681.918 Z" fill="#000000" fill-rule="evenodd" fill-opacity="1" /><path clip-path="url(#clip550)" d="M687.604 685.621 Q683.993 685.621 682.164 689.186 Q680.359 692.728 680.359 699.857 Q680.359 706.964 682.164 710.529 Q683.993 714.07 687.604 714.07 Q691.238 714.07 693.044 710.529 Q694.873 706.964 694.873 699.857 Q694.873 692.728 693.044 689.186 Q691.238 685.621 687.604 685.621 M687.604 681.918 Q693.414 681.918 696.47 686.524 Q699.548 691.107 699.548 699.857 Q699.548 708.584 696.47 713.191 Q693.414 717.774 687.604 717.774 Q681.794 717.774 678.715 713.191 Q675.66 708.584 675.66 699.857 Q675.66 691.107 678.715 686.524 Q681.794 681.918 687.604 681.918 Z" fill="#000000" fill-rule="evenodd" fill-opacity="1" /><path clip-path="url(#clip550)" d="M717.766 685.621 Q714.155 685.621 712.326 689.186 Q710.521 692.728 710.521 699.857 Q710.521 706.964 712.326 710.529 Q714.155 714.07 717.766 714.07 Q721.4 714.07 723.206 710.529 Q725.034 706.964 725.034 699.857 Q725.034 692.728 723.206 689.186 Q721.4 685.621 717.766 685.621 M717.766 681.918 Q723.576 681.918 726.632 686.524 Q729.71 691.107 729.71 699.857 Q729.71 708.584 726.632 713.191 Q723.576 717.774 717.766 717.774 Q711.956 717.774 708.877 713.191 Q705.822 708.584 705.822 699.857 Q705.822 691.107 708.877 686.524 Q711.956 681.918 717.766 681.918 Z" fill="#000000" fill-rule="evenodd" fill-opacity="1" /><path clip-path="url(#clip550)" d="M741.956 713.167 L758.275 713.167 L758.275 717.103 L736.331 717.103 L736.331 713.167 Q738.993 710.413 743.576 705.783 Q748.182 701.13 749.363 699.788 Q751.608 697.265 752.488 695.529 Q753.391 693.769 753.391 692.08 Q753.391 689.325 751.446 687.589 Q749.525 685.853 746.423 685.853 Q744.224 685.853 741.77 686.617 Q739.34 687.381 736.562 688.931 L736.562 684.209 Q739.386 683.075 741.84 682.496 Q744.294 681.918 746.331 681.918 Q751.701 681.918 754.895 684.603 Q758.09 687.288 758.09 691.779 Q758.09 693.908 757.28 695.83 Q756.493 697.728 754.386 700.32 Q753.807 700.992 750.706 704.209 Q747.604 707.404 741.956 713.167 Z" fill="#000000" fill-rule="evenodd" fill-opacity="1" /><path clip-path="url(#clip550)" d="M778.09 685.621 Q774.479 685.621 772.65 689.186 Q770.844 692.728 770.844 699.857 Q770.844 706.964 772.65 710.529 Q774.479 714.07 778.09 714.07 Q781.724 714.07 783.53 710.529 Q785.358 706.964 785.358 699.857 Q785.358 692.728 783.53 689.186 Q781.724 685.621 778.09 685.621 M778.09 681.918 Q783.9 681.918 786.955 686.524 Q790.034 691.107 790.034 699.857 Q790.034 708.584 786.955 713.191 Q783.9 717.774 778.09 717.774 Q772.28 717.774 769.201 713.191 Q766.145 708.584 766.145 699.857 Q766.145 691.107 769.201 686.524 Q772.28 681.918 778.09 681.918 Z" fill="#000000" fill-rule="evenodd" fill-opacity="1" /><path clip-path="url(#clip550)" d="M826.423 691.64 L815.844 702.265 L826.423 712.843 L823.668 715.644 L813.043 705.019 L802.418 715.644 L799.687 712.843 L810.242 702.265 L799.687 691.64 L802.418 688.839 L813.043 699.464 L823.668 688.839 L826.423 691.64 Z" fill="#000000" fill-rule="evenodd" fill-opacity="1" /><path clip-path="url(#clip550)" d="M838.784 713.167 L846.423 713.167 L846.423 686.802 L838.113 688.469 L838.113 684.209 L846.376 682.543 L851.052 682.543 L851.052 713.167 L858.691 713.167 L858.691 717.103 L838.784 717.103 L838.784 713.167 Z" fill="#000000" fill-rule="evenodd" fill-opacity="1" /><path clip-path="url(#clip550)" d="M878.136 685.621 Q874.524 685.621 872.696 689.186 Q870.89 692.728 870.89 699.857 Q870.89 706.964 872.696 710.529 Q874.524 714.07 878.136 714.07 Q881.77 714.07 883.575 710.529 Q885.404 706.964 885.404 699.857 Q885.404 692.728 883.575 689.186 Q881.77 685.621 878.136 685.621 M878.136 681.918 Q883.946 681.918 887.001 686.524 Q890.08 691.107 890.08 699.857 Q890.08 708.584 887.001 713.191 Q883.946 717.774 878.136 717.774 Q872.325 717.774 869.247 713.191 Q866.191 708.584 866.191 699.857 Q866.191 691.107 869.247 686.524 Q872.325 681.918 878.136 681.918 Z" fill="#000000" fill-rule="evenodd" fill-opacity="1" /><path clip-path="url(#clip550)" d="M899.785 664.114 Q896.851 664.114 895.365 667.01 Q893.898 669.888 893.898 675.68 Q893.898 681.454 895.365 684.351 Q896.851 687.228 899.785 687.228 Q902.738 687.228 904.205 684.351 Q905.69 681.454 905.69 675.68 Q905.69 669.888 904.205 667.01 Q902.738 664.114 899.785 664.114 M899.785 661.104 Q904.505 661.104 906.988 664.847 Q909.489 668.571 909.489 675.68 Q909.489 682.771 906.988 686.514 Q904.505 690.238 899.785 690.238 Q895.064 690.238 892.563 686.514 Q890.08 682.771 890.08 675.68 Q890.08 668.571 892.563 664.847 Q895.064 661.104 899.785 661.104 Z" fill="#000000" fill-rule="evenodd" fill-opacity="1" /><polyline clip-path="url(#clip552)" style="stroke:#0000ff; stroke-linecap:butt; stroke-linejoin:round; stroke-width:4; stroke-opacity:1; fill:none" points="
  965.533,977.652 988.423,950.825 1011.31,906.283 1034.21,850.728 1057.12,790.18 1080.09,729.351 1103.28,668.55 1127.21,596.302 1152.99,608.758 1180.97,917.192 
  1209.11,1164.15 1235.2,1227.73 1259.28,1168.25 1282.52,1104.31 1305.51,1050.36 1328.42,1006.39 1351.32,972.19 1374.2,947.387 1397.05,931.527 1419.81,924.788 
  1442.21,935.421 1463.35,1009.13 1481.28,1014.66 1496.02,1070.53 1512.42,1202.16 1532.61,1014.16 1554.69,951.272 1577.36,936.005 1600.19,930.303 1623.07,931.039 
  1645.96,938.57 1668.84,953.445 1691.73,976.132 1714.62,1006.9 1737.51,1045.71 
  "/>
<polyline clip-path="url(#clip552)" style="stroke:#0000ff; stroke-linecap:butt; stroke-linejoin:round; stroke-width:4; stroke-opacity:1; fill:none" points="
  965.688,977.213 988.578,950.395 1011.47,905.879 1034.37,850.36 1057.28,789.851 1080.25,729.057 1103.43,668.284 1127.36,596.067 1153.14,608.483 1181.11,916.785 
  1209.25,1163.8 1235.33,1227.33 1259.41,1167.83 1282.65,1103.89 1305.64,1049.96 1328.55,1006.01 1351.45,971.818 1374.33,947.02 1397.18,931.155 1419.94,924.396 
  1442.34,934.987 1463.48,1008.6 1481.42,1014.21 1496.16,1069.89 1512.58,1201.04 1532.76,1013.23 1554.85,950.494 1577.52,935.322 1600.35,929.698 1623.23,930.495 
  1646.11,938.072 1669,952.978 1691.89,975.683 1714.78,1006.46 1737.67,1045.27 
  "/>
<polyline clip-path="url(#clip552)" style="stroke:#0000ff; stroke-linecap:butt; stroke-linejoin:round; stroke-width:4; stroke-opacity:1; fill:none" points="
  965.878,976.673 988.768,949.857 1011.66,905.343 1034.55,849.828 1057.47,789.323 1080.44,728.533 1103.62,667.77 1127.54,595.597 1153.32,608.045 1181.28,916.283 
  1209.41,1163.35 1235.49,1226.86 1259.57,1167.37 1282.81,1103.43 1305.79,1049.51 1328.71,1005.56 1351.61,971.367 1374.49,946.57 1397.34,930.705 1420.1,923.943 
  1442.49,934.518 1463.64,1008.04 1481.59,1013.67 1496.34,1069.26 1512.76,1200.17 1532.95,1012.59 1555.04,949.926 1577.71,934.766 1600.54,929.148 1623.42,929.95 
  1646.3,937.53 1669.19,952.438 1692.08,975.144 1714.97,1005.92 1737.86,1044.73 
  "/>
<polyline clip-path="url(#clip552)" style="stroke:#0000ff; stroke-linecap:butt; stroke-linejoin:round; stroke-width:4; stroke-opacity:1; fill:none" points="
  966.112,976.01 989.002,949.195 1011.89,904.685 1034.79,849.175 1057.7,788.675 1080.67,727.891 1103.85,667.139 1127.77,595.019 1153.54,607.506 1181.5,915.667 
  1209.62,1162.81 1235.69,1226.28 1259.77,1166.8 1283.01,1102.87 1305.99,1048.95 1328.91,1005 1351.8,970.813 1374.68,946.018 1397.54,930.152 1420.29,923.388 
  1442.69,933.942 1463.84,1007.36 1481.79,1013.02 1496.56,1068.5 1512.99,1199.11 1533.19,1011.81 1555.27,949.229 1577.95,934.084 1600.78,928.473 1623.65,929.28 
  1646.54,936.864 1669.43,951.775 1692.32,974.482 1715.2,1005.26 1738.09,1044.07 
  "/>
<polyline clip-path="url(#clip552)" style="stroke:#0000ff; stroke-linecap:butt; stroke-linejoin:round; stroke-width:4; stroke-opacity:1; fill:none" points="
  966.399,975.196 989.288,948.384 1012.18,903.878 1035.07,848.373 1057.98,787.88 1080.95,727.102 1104.14,666.364 1128.05,594.31 1153.82,606.845 1181.76,914.911 
  1209.87,1162.15 1235.94,1225.57 1260.01,1166.1 1283.25,1102.18 1306.23,1048.26 1329.15,1004.32 1352.04,970.134 1374.92,945.339 1397.77,929.473 1420.53,922.705 
  1442.93,933.235 1464.08,1006.51 1482.05,1012.21 1496.83,1067.56 1513.28,1197.8 1533.48,1010.84 1555.56,948.373 1578.24,933.246 1601.07,927.644 1623.94,928.458 
  1646.83,936.046 1669.71,950.96 1692.6,973.669 1715.49,1004.45 1738.38,1043.26 
  "/>
<polyline clip-path="url(#clip552)" style="stroke:#0000ff; stroke-linecap:butt; stroke-linejoin:round; stroke-width:4; stroke-opacity:1; fill:none" points="
  966.751,974.197 989.64,947.387 1012.53,902.887 1035.42,847.39 1058.33,786.903 1081.3,726.133 1104.49,665.414 1128.4,593.439 1154.15,606.034 1182.09,913.984 
  1210.18,1161.33 1236.24,1224.7 1260.31,1165.24 1283.54,1101.33 1306.53,1047.42 1329.44,1003.48 1352.33,969.3 1375.21,944.507 1398.07,928.641 1420.82,921.868 
  1443.22,932.368 1464.38,1005.48 1482.36,1011.22 1497.16,1066.41 1513.62,1196.2 1533.83,1009.66 1555.92,947.323 1578.59,932.219 1601.42,926.627 1624.3,927.449 
  1647.18,935.044 1670.07,949.961 1692.96,972.672 1715.84,1003.45 1738.73,1042.26 
  "/>
<polyline clip-path="url(#clip552)" style="stroke:#0000ff; stroke-linecap:butt; stroke-linejoin:round; stroke-width:4; stroke-opacity:1; fill:none" points="
  967.183,972.973 990.071,946.166 1012.96,901.672 1035.85,846.183 1058.76,785.706 1081.73,724.946 1104.91,664.248 1128.82,592.372 1154.57,605.039 1182.48,912.846 
  1210.56,1160.33 1236.61,1223.64 1260.67,1164.19 1283.91,1100.29 1306.89,1046.39 1329.8,1002.45 1352.69,968.277 1375.57,943.487 1398.43,927.62 1421.18,920.842 
  1443.58,931.304 1464.74,1004.21 1482.74,1010 1497.57,1065 1514.05,1194.24 1534.26,1008.22 1556.36,946.036 1579.03,930.959 1601.86,925.38 1624.73,926.212 
  1647.61,933.814 1670.5,948.736 1693.39,971.449 1716.28,1002.23 1739.17,1041.03 
  "/>
<polyline clip-path="url(#clip552)" style="stroke:#0000ff; stroke-linecap:butt; stroke-linejoin:round; stroke-width:4; stroke-opacity:1; fill:none" points="
  967.712,971.472 990.6,944.669 1013.49,900.183 1036.38,844.705 1059.29,784.239 1082.26,723.49 1105.44,662.819 1129.34,591.063 1155.07,603.82 1182.97,911.452 
  1211.03,1159.1 1237.06,1222.33 1261.12,1162.9 1284.35,1099.02 1307.33,1045.12 1330.24,1001.2 1353.14,967.024 1376.01,942.236 1398.87,926.368 1421.62,919.584 
  1444.02,930.001 1465.19,1002.65 1483.2,1008.52 1498.07,1063.27 1514.57,1191.83 1534.8,1006.44 1556.89,944.46 1579.56,929.415 1602.39,923.852 1625.26,924.696 
  1648.15,932.307 1671.03,947.235 1693.92,969.95 1716.81,1000.73 1739.69,1039.53 
  "/>
<polyline clip-path="url(#clip552)" style="stroke:#0000ff; stroke-linecap:butt; stroke-linejoin:round; stroke-width:4; stroke-opacity:1; fill:none" points="
  968.36,969.634 991.247,942.836 1014.13,898.36 1037.03,842.894 1059.93,782.441 1082.9,721.707 1106.08,661.068 1129.98,589.46 1155.69,602.326 1183.56,909.745 
  1211.6,1157.6 1237.61,1220.73 1261.67,1161.33 1284.9,1097.46 1307.87,1043.58 1330.79,999.656 1353.68,965.489 1376.55,940.704 1399.41,924.836 1422.16,918.043 
  1444.57,928.406 1465.74,1000.75 1483.77,1006.69 1498.67,1061.16 1515.21,1188.88 1535.45,1004.27 1557.54,942.53 1580.21,927.526 1603.04,921.982 1625.92,922.841 
  1648.8,930.462 1671.68,945.396 1694.57,968.115 1717.46,998.895 1740.34,1037.69 
  "/>
<polyline clip-path="url(#clip552)" style="stroke:#0000ff; stroke-linecap:butt; stroke-linejoin:round; stroke-width:4; stroke-opacity:1; fill:none" points="
  969.153,967.386 992.039,940.593 1014.93,896.129 1037.82,840.678 1060.72,780.242 1083.69,719.525 1106.86,658.926 1130.75,587.499 1156.45,600.499 1184.29,907.656 
  1212.29,1155.77 1238.29,1218.77 1262.34,1159.4 1285.56,1095.56 1308.54,1041.68 1331.45,997.771 1354.34,963.612 1377.22,938.831 1400.07,922.962 1422.82,916.159 
  1445.23,926.454 1466.41,998.423 1484.47,1004.47 1499.42,1058.57 1515.99,1185.28 1536.24,1001.62 1558.34,940.171 1581.01,925.216 1603.84,919.695 1626.71,920.571 
  1649.6,928.205 1672.48,943.148 1695.36,965.87 1718.25,996.65 1741.14,1035.45 
  "/>
<polyline clip-path="url(#clip552)" style="stroke:#0000ff; stroke-linecap:butt; stroke-linejoin:round; stroke-width:4; stroke-opacity:1; fill:none" points="
  970.122,964.639 993.006,937.853 1015.89,893.403 1038.78,837.971 1061.69,777.555 1084.65,716.859 1107.82,656.308 1131.7,585.101 1157.38,598.267 1185.18,905.105 
  1213.14,1153.52 1239.11,1216.38 1263.15,1157.04 1286.37,1093.23 1309.35,1039.37 1332.26,995.469 1355.15,961.318 1378.02,936.541 1400.87,920.672 1423.63,913.857 
  1446.03,924.07 1467.23,995.578 1485.32,1001.74 1500.33,1055.41 1516.95,1180.89 1537.22,998.384 1559.32,937.291 1581.99,922.395 1604.82,916.902 1627.69,917.799 
  1650.57,925.448 1673.45,940.4 1696.34,963.127 1719.22,993.907 1742.1,1032.7 
  "/>
<polyline clip-path="url(#clip552)" style="stroke:#0000ff; stroke-linecap:butt; stroke-linejoin:round; stroke-width:4; stroke-opacity:1; fill:none" points="
  971.303,961.288 994.186,934.51 1017.07,890.077 1039.96,834.667 1062.86,774.275 1085.82,713.604 1108.99,653.112 1132.86,582.175 1158.51,595.542 1186.27,901.992 
  1214.18,1150.78 1240.12,1213.47 1264.15,1154.16 1287.37,1090.39 1310.34,1036.54 1333.25,992.66 1356.13,958.52 1379.01,933.749 1401.86,917.878 1424.61,911.049 
  1447.02,921.162 1468.23,992.109 1486.37,998.421 1501.44,1051.56 1518.11,1175.53 1538.4,994.438 1560.51,933.78 1583.18,918.956 1606.01,913.496 1628.88,914.418 
  1651.76,922.085 1674.64,937.049 1697.52,959.78 1720.4,990.56 1743.29,1029.35 
  "/>
<polyline clip-path="url(#clip552)" style="stroke:#0000ff; stroke-linecap:butt; stroke-linejoin:round; stroke-width:4; stroke-opacity:1; fill:none" points="
  972.743,957.207 995.623,930.438 1018.51,886.026 1041.39,830.643 1064.29,770.279 1087.25,709.638 1110.41,649.218 1134.27,578.609 1159.89,592.223 1187.59,898.2 
  1215.45,1147.45 1241.35,1209.91 1265.36,1150.66 1288.58,1086.93 1311.55,1033.11 1334.45,989.239 1357.34,955.112 1380.21,930.347 1403.05,914.475 1425.81,907.629 
  1448.22,917.621 1469.45,987.885 1487.63,994.376 1502.79,1046.87 1519.53,1169.01 1539.85,989.639 1561.96,929.51 1584.64,914.771 1607.46,909.35 1630.33,910.301 
  1653.2,917.99 1676.08,932.967 1698.96,955.705 1721.84,986.484 1744.72,1025.27 
  "/>
<polyline clip-path="url(#clip552)" style="stroke:#0000ff; stroke-linecap:butt; stroke-linejoin:round; stroke-width:4; stroke-opacity:1; fill:none" points="
  974.492,952.248 997.37,925.491 1020.25,881.102 1043.13,825.751 1066.03,765.421 1088.98,704.816 1112.14,644.482 1135.98,574.273 1161.56,588.188 1189.2,893.593 
  1216.98,1143.39 1242.85,1205.6 1266.84,1146.41 1290.04,1082.72 1313.01,1028.93 1335.91,985.083 1358.8,950.97 1381.66,926.214 1404.51,910.34 1427.26,903.474 
  1449.68,913.319 1470.93,982.754 1489.17,989.46 1504.43,1041.17 1521.25,1161.09 1541.6,983.817 1563.73,924.327 1586.4,909.691 1609.22,904.316 1632.09,905.302 
  1654.96,913.015 1677.84,928.008 1700.72,950.753 1723.6,981.531 1746.47,1020.31 
  "/>
<polyline clip-path="url(#clip552)" style="stroke:#0000ff; stroke-linecap:butt; stroke-linejoin:round; stroke-width:4; stroke-opacity:1; fill:none" points="
  976.611,946.237 999.487,919.494 1022.36,875.134 1045.24,819.82 1068.14,759.53 1091.09,698.968 1114.24,638.738 1138.06,569.013 1163.59,583.296 1191.14,888.009 
  1218.84,1138.48 1244.66,1200.37 1268.63,1141.25 1291.82,1077.63 1314.79,1023.87 1337.68,980.046 1360.56,945.952 1383.43,921.205 1406.27,905.33 1429.03,898.439 
  1451.45,908.108 1472.72,976.538 1491.04,983.502 1506.42,1034.27 1523.34,1151.51 1543.73,976.773 1565.87,918.056 1588.54,903.541 1611.36,898.22 1634.22,899.245 
  1657.09,906.988 1679.97,921.999 1702.84,944.751 1725.72,975.529 1748.59,1014.3 
  "/>
<polyline clip-path="url(#clip552)" style="stroke:#0000ff; stroke-linecap:butt; stroke-linejoin:round; stroke-width:4; stroke-opacity:1; fill:none" points="
  979.172,938.976 1002.04,912.249 1024.92,867.923 1047.79,812.652 1070.68,752.408 1093.63,691.897 1116.77,631.792 1140.57,562.653 1166.04,577.383 1193.5,881.263 
  1221.09,1132.54 1246.84,1194.05 1270.79,1135.03 1293.97,1071.48 1316.93,1017.76 1339.82,973.962 1362.7,939.889 1385.57,915.153 1408.41,899.277 1431.16,892.358 
  1453.58,901.814 1474.88,969.032 1493.3,976.306 1508.83,1025.94 1525.87,1139.96 1546.3,968.282 1568.45,910.495 1591.12,896.123 1613.94,890.862 1636.8,891.933 
  1659.67,899.709 1682.54,914.741 1705.41,937.502 1728.28,968.277 1751.15,1007.04 
  "/>
<polyline clip-path="url(#clip552)" style="stroke:#0000ff; stroke-linecap:butt; stroke-linejoin:round; stroke-width:4; stroke-opacity:1; fill:none" points="
  982.253,930.239 1005.12,903.53 1027.99,859.243 1050.86,804.023 1073.75,743.832 1096.69,683.38 1119.82,623.423 1143.59,554.991 1168.99,570.264 1196.33,873.146 
  1223.8,1125.4 1249.47,1186.45 1273.39,1127.54 1296.56,1064.08 1319.51,1010.4 1342.4,966.642 1365.27,932.593 1388.13,907.871 1410.97,891.993 1433.72,885.042 
  1456.15,894.244 1477.49,960.004 1496.01,967.647 1511.72,1015.92 1528.9,1126.08 1549.4,958.091 1571.56,901.418 1594.23,887.21 1617.05,882.019 1639.9,883.141 
  1662.77,890.954 1685.63,906.008 1708.5,928.779 1731.37,959.552 1754.24,998.3 
  "/>
<polyline clip-path="url(#clip552)" style="stroke:#0000ff; stroke-linecap:butt; stroke-linejoin:round; stroke-width:4; stroke-opacity:1; fill:none" points="
  985.944,919.774 1008.81,893.087 1031.67,848.844 1054.54,793.681 1077.42,733.551 1100.35,673.166 1123.46,613.386 1147.21,545.801 1172.53,561.731 1199.72,863.422 
  1227.04,1116.84 1252.62,1177.34 1276.5,1118.57 1299.66,1055.22 1322.6,1001.6 1345.49,957.876 1368.35,923.856 1391.21,899.149 1414.04,883.27 1436.79,876.28 
  1459.23,885.182 1480.61,949.198 1499.26,957.277 1515.19,1003.93 1532.54,1109.5 1553.1,945.922 1575.28,890.573 1597.96,876.557 1620.77,871.441 1643.62,872.62 
  1666.48,880.473 1689.34,895.552 1712.2,918.332 1735.06,949.101 1757.93,987.834 
  "/>
<polyline clip-path="url(#clip552)" style="stroke:#0000ff; stroke-linecap:butt; stroke-linejoin:round; stroke-width:4; stroke-opacity:1; fill:none" points="
  990.339,907.309 1013.2,880.647 1036.05,836.455 1058.92,781.355 1081.79,721.294 1104.71,660.985 1127.81,601.413 1151.51,534.839 1176.74,551.561 1203.75,851.842 
  1230.91,1106.64 1256.38,1166.5 1280.21,1107.9 1303.35,1044.68 1326.29,991.113 1349.16,947.437 1372.02,913.45 1394.87,888.761 1417.7,872.881 1440.45,865.848 
  1462.9,874.395 1484.33,936.337 1503.13,944.928 1519.32,989.676 1536.87,1089.8 1557.52,931.479 1579.71,877.697 1602.39,863.897 1625.2,858.863 1648.04,860.101 
  1670.9,867.997 1693.75,883.101 1716.61,905.89 1739.46,936.654 1762.32,975.37 
  "/>
<polyline clip-path="url(#clip552)" style="stroke:#0000ff; stroke-linecap:butt; stroke-linejoin:round; stroke-width:4; stroke-opacity:1; fill:none" points="
  995.54,892.562 1018.39,865.928 1041.24,821.791 1064.09,766.762 1086.96,706.775 1109.87,646.551 1132.95,587.222 1156.61,521.846 1181.71,539.518 1208.53,838.14 
  1235.48,1094.57 1260.82,1153.68 1284.6,1095.28 1307.72,1032.21 1330.64,978.715 1353.51,935.09 1376.36,901.139 1399.21,876.471 1422.03,860.59 1444.78,853.51 
  1467.24,861.642 1488.73,921.134 1507.71,930.319 1524.2,972.828 1542,1066.56 1562.74,914.46 1584.96,862.516 1607.64,848.958 1630.44,844.008 1653.28,845.306 
  1676.13,853.245 1698.97,868.375 1721.82,891.171 1744.67,921.927 1767.52,960.623 
  "/>
<polyline clip-path="url(#clip552)" style="stroke:#0000ff; stroke-linecap:butt; stroke-linejoin:round; stroke-width:4; stroke-opacity:1; fill:none" points="
  1001.64,875.252 1024.49,848.649 1047.33,804.571 1070.17,749.617 1093.03,689.71 1115.93,629.579 1138.99,570.531 1162.59,506.565 1187.56,525.369 1214.14,822.055 
  1240.84,1080.4 1266.03,1138.63 1289.75,1080.47 1312.84,1017.58 1335.75,964.168 1358.61,920.6 1381.46,886.69 1404.29,862.044 1427.11,846.165 1449.85,839.032 
  1472.33,846.684 1493.89,903.305 1513.09,913.173 1529.94,953.081 1548.01,1039.38 1568.87,894.574 1591.12,844.767 1613.8,831.473 1636.59,826.605 1659.42,827.962 
  1682.26,835.942 1705.1,851.095 1727.94,873.897 1750.79,904.642 1773.63,943.313 
  "/>
<polyline clip-path="url(#clip552)" style="stroke:#0000ff; stroke-linecap:butt; stroke-linejoin:round; stroke-width:4; stroke-opacity:1; fill:none" points="
  1008.74,855.121 1031.58,828.55 1054.41,784.535 1077.24,729.659 1100.09,669.834 1122.98,609.803 1146.01,551.077 1169.55,488.756 1194.35,508.896 1220.66,803.348 
  1247.08,1063.92 1272.09,1121.13 1295.74,1063.26 1318.81,1000.58 1341.7,947.259 1364.55,903.752 1387.39,869.886 1410.21,845.266 1433.02,829.389 1455.76,822.201 
  1478.25,829.303 1499.89,882.592 1519.34,893.236 1536.61,930.152 1555.01,1007.88 1576,871.561 1598.28,824.214 1620.96,811.203 1643.75,806.411 1666.57,807.819 
  1689.4,815.834 1712.23,831.005 1735.06,853.809 1757.89,884.539 1780.73,923.181 
  "/>
<polyline clip-path="url(#clip552)" style="stroke:#0000ff; stroke-linecap:butt; stroke-linejoin:round; stroke-width:4; stroke-opacity:1; fill:none" points="
  1016.91,831.958 1039.73,805.423 1062.55,761.471 1085.38,706.673 1108.21,646.931 1131.08,587.003 1154.09,528.641 1177.55,468.218 1202.17,489.924 1228.16,781.824 
  1254.25,1044.95 1279.06,1101 1302.63,1043.47 1325.66,981.031 1348.54,927.814 1371.38,884.373 1394.2,850.554 1417.02,825.961 1439.82,810.09 1462.56,802.844 
  1485.07,809.323 1506.8,858.786 1526.54,870.301 1544.28,903.817 1563.06,971.781 1584.2,845.225 1606.52,800.677 1629.2,787.962 1651.98,783.232 1674.8,784.678 
  1697.61,792.719 1720.43,807.901 1743.25,830.7 1766.07,861.41 1788.89,900.018 
  "/>
<polyline clip-path="url(#clip552)" style="stroke:#0000ff; stroke-linecap:butt; stroke-linejoin:round; stroke-width:4; stroke-opacity:1; fill:none" points="
  1026.2,805.635 1049,779.136 1071.81,735.247 1094.62,680.524 1117.44,620.861 1140.29,561.038 1163.27,503.082 1186.65,444.823 1211.06,468.34 1236.69,757.361 
  1262.41,1023.38 1286.99,1078.12 1310.46,1021.01 1333.46,958.835 1356.32,905.73 1379.14,862.358 1401.95,828.587 1424.76,804.023 1447.54,788.16 1470.28,780.856 
  1492.81,786.64 1514.65,831.763 1534.71,844.242 1553,873.943 1572.21,930.926 1593.52,815.464 1615.88,774.059 1638.57,761.645 1661.34,756.955 1684.14,758.422 
  1706.95,766.474 1729.75,781.656 1752.56,804.442 1775.37,835.127 1798.18,873.696 
  "/>
<polyline clip-path="url(#clip552)" style="stroke:#0000ff; stroke-linecap:butt; stroke-linejoin:round; stroke-width:4; stroke-opacity:1; fill:none" points="
  1036.6,776.138 1059.39,749.676 1082.19,705.846 1104.98,651.192 1127.79,591.602 1150.62,531.88 1173.55,474.372 1196.84,418.546 1221.02,444.13 1246.24,729.948 
  1271.55,999.206 1295.87,1052.5 1319.23,995.847 1342.19,933.981 1365.03,880.996 1387.84,837.695 1410.64,803.973 1433.43,779.44 1456.2,763.588 1478.93,756.227 
  1501.49,761.245 1523.45,801.518 1543.87,815.047 1562.77,840.527 1582.46,885.334 1603.96,782.303 1626.37,744.377 1649.06,732.261 1671.83,727.582 1694.61,729.046 
  1717.41,737.09 1740.2,752.258 1762.99,775.023 1785.79,805.675 1808.58,844.199 
  "/>
<polyline clip-path="url(#clip552)" style="stroke:#0000ff; stroke-linecap:butt; stroke-linejoin:round; stroke-width:4; stroke-opacity:1; fill:none" points="
  1048.07,743.601 1070.85,717.175 1093.63,673.399 1116.41,618.804 1139.2,559.276 1162.01,499.652 1184.9,442.627 1208.09,389.497 1232,417.4 1256.78,699.706 
  1281.63,972.525 1305.67,1024.24 1328.91,968.115 1351.83,906.586 1374.65,853.727 1397.43,810.498 1420.21,776.824 1442.99,752.322 1465.75,736.486 1488.48,729.07 
  1511.06,733.259 1533.15,768.191 1553.98,782.848 1573.55,803.729 1593.77,835.24 1615.49,745.921 1637.95,711.789 1660.64,699.959 1683.39,695.258 1706.17,696.689 
  1728.94,704.704 1751.72,719.843 1774.5,742.575 1797.28,773.188 1820.05,811.661 
  "/>
<polyline clip-path="url(#clip552)" style="stroke:#0000ff; stroke-linecap:butt; stroke-linejoin:round; stroke-width:4; stroke-opacity:1; fill:none" points="
  1060.51,708.325 1083.27,681.934 1106.03,638.205 1128.8,583.66 1151.57,524.181 1174.35,464.648 1197.2,408.139 1220.28,357.944 1243.91,388.402 1268.21,666.918 
  1292.56,943.585 1316.29,993.596 1339.41,938.068 1362.28,876.905 1385.07,824.178 1407.83,781.02 1430.6,747.392 1453.36,722.923 1476.11,707.106 1498.83,699.639 
  1521.44,702.942 1543.67,732.097 1564.94,747.945 1585.23,763.895 1606.03,781.123 1627.98,706.671 1650.49,676.609 1673.19,665.047 1695.93,660.289 1718.69,661.657 
  1741.45,669.62 1764.21,684.713 1786.97,707.401 1809.73,737.967 1832.49,776.386 
  "/>
<polyline clip-path="url(#clip552)" style="stroke:#0000ff; stroke-linecap:butt; stroke-linejoin:round; stroke-width:4; stroke-opacity:1; fill:none" points="
  1073.75,670.792 1096.49,644.435 1119.23,600.746 1141.98,546.239 1164.73,486.799 1187.49,427.349 1210.29,371.381 1233.25,324.321 1256.58,357.536 1280.37,632.029 
  1304.19,912.781 1327.59,960.997 1350.58,906.116 1373.39,845.342 1396.15,792.751 1418.9,749.662 1441.65,716.079 1464.39,691.642 1487.12,675.848 1509.84,668.334 
  1532.48,670.708 1554.87,693.725 1576.59,710.813 1597.67,721.565 1619.08,723.71 1641.27,665.078 1663.85,639.307 1686.54,627.997 1709.27,623.146 1732.01,624.425 
  1754.76,632.313 1777.5,647.346 1800.24,669.981 1822.99,700.494 1845.73,738.853 
  "/>
<polyline clip-path="url(#clip552)" style="stroke:#0000ff; stroke-linecap:butt; stroke-linejoin:round; stroke-width:4; stroke-opacity:1; fill:none" points="
  1087.55,631.647 1110.28,605.322 1133,561.667 1155.73,507.19 1178.45,447.779 1201.19,388.406 1223.94,332.997 1246.77,289.221 1269.8,325.344 1293.05,595.638 
  1316.32,880.639 1339.37,926.995 1362.22,872.804 1384.98,812.437 1407.72,759.983 1430.44,716.963 1453.17,683.422 1475.89,659.017 1498.61,643.248 1521.32,635.691 
  1544,637.105 1566.54,653.729 1588.75,672.09 1610.63,677.454 1632.68,663.952 1655.13,621.824 1677.77,600.501 1700.47,589.426 1723.19,584.457 1745.91,585.623 
  1768.64,593.422 1791.36,608.382 1814.09,630.955 1836.81,661.411 1859.53,699.708 
  "/>
<polyline clip-path="url(#clip552)" style="stroke:#0000ff; stroke-linecap:butt; stroke-linejoin:round; stroke-width:4; stroke-opacity:1; fill:none" points="
  1101.65,591.661 1124.36,565.322 1147.06,521.576 1169.77,466.952 1192.48,407.375 1215.18,347.905 1237.89,292.949 1260.59,252.547 1283.3,292.013 1306,558.458 
  1328.71,847.771 1351.41,892.396 1374.12,839.01 1396.82,779.048 1419.53,726.674 1442.23,683.647 1464.94,650.089 1487.64,625.692 1510.35,609.978 1533.06,602.471 
  1555.76,603.059 1578.47,613.268 1601.17,632.597 1623.88,633.109 1646.58,605.116 1669.29,579.787 1691.99,562.523 1714.7,551.233 1737.4,545.763 1760.11,546.511 
  1782.81,553.991 1805.52,568.722 1828.23,591.141 1850.93,621.497 1873.64,659.722 
  "/>
</svg>
